<svg viewBox="0 0 16 16" xmlns="http://www.w3.org/2000/svg"><path fill="black" d="M8,16 C12.418278,16 16,12.418278 16,8 C16,3.581722 12.418278,0 8,0 C3.581722,0 0,3.581722 0,8 C0,12.418278 3.581722,16 8,16 L8,16 L8,16 Z M8,13.5384615 C4.94119215,13.5384615 2.46153846,11.0588078 2.46153846,8 C2.46153846,4.94119215 4.94119215,2.46153846 8,2.46153846 C11.0588078,2.46153846 13.5384615,4.94119215 13.5384615,8 C13.5384615,11.0588078 11.0588078,13.5384615 8,13.5384615 L8,13.5384615 L8,13.5384615 Z"></path></svg>