<?xml version="1.0" encoding="UTF-8" standalone="no"?>
<svg width="305px" height="195px" viewBox="0 0 305 195" version="1.1" xmlns="http://www.w3.org/2000/svg" xmlns:xlink="http://www.w3.org/1999/xlink">
    <!-- Generator: Sketch 39.1 (31720) - http://www.bohemiancoding.com/sketch -->
    <title>Group</title>
    <desc>Created with Sketch.</desc>
    <defs></defs>
    <g id="Page-1" stroke="none" stroke-width="1" fill="none" fill-rule="evenodd">
        <g id="Group">
            <rect id="Rectangle" fill="#FFFFFF" x="0.583984375" y="0.412109375" width="304" height="194" rx="16"></rect>
            <path d="M39.1439844,155.382109 L266.020984,155.382109 L266.020984,39.4421094 L39.1439844,39.4421094 L39.1439844,155.382109 L39.1439844,155.382109 Z M272.583984,161.942109 L32.5839844,161.942109 L32.5839844,32.8821094 L272.581984,32.8821094 L272.581984,161.942109 L272.583984,161.942109 Z M107.921984,65.7391094 L121.366984,65.7391094 L121.366984,129.192109 L107.923984,129.192109 L107.923984,103.436109 L78.9369844,103.436109 L78.9369844,129.192109 L65.3869844,129.192109 L65.3869844,65.7401094 L78.9369844,65.7401094 L78.9369844,91.4981094 L107.866984,91.4981094 L107.866984,65.7391094 L107.921984,65.7391094 L107.921984,65.7391094 Z M176.539984,127.795109 C171.107984,129.301109 162.879984,130.269109 156.911984,130.269109 C143.144984,130.269109 134.487984,126.019109 134.487984,111.877109 L134.487984,81.5471094 L147.393984,81.5471094 L147.393984,110.802109 C147.393984,116.879109 150.081984,119.675109 156.803984,119.675109 C158.633984,119.675109 161.267984,119.460109 163.633984,119.030109 L163.633984,81.5481094 L176.539984,81.5481094 L176.539984,127.795109 L176.539984,127.795109 Z M214.449984,91.5511094 C207.513984,91.5511094 202.512984,96.7661094 202.512984,105.316109 C202.512984,113.866109 207.512984,119.082109 214.449984,119.082109 C221.386984,119.082109 226.387984,113.867109 226.387984,105.317109 C226.387984,96.7671094 221.387984,91.5511094 214.449984,91.5511094 L214.449984,91.5511094 Z M228.324984,59.6611094 C228.324984,69.2871094 222.679984,74.8251094 214.451984,74.8251094 C206.223984,74.8251094 200.577984,69.2871094 200.577984,59.6611094 L210.095984,59.6611094 C210.095984,63.5871094 211.387984,66.2751094 214.452984,66.2751094 C217.517984,66.2751094 218.808984,63.5871094 218.808984,59.6611094 L228.326984,59.6611094 L228.324984,59.6611094 Z M214.451984,80.4711094 C228.648984,80.4711094 239.456984,90.5281094 239.456984,105.371109 C239.456984,120.211109 228.648984,130.268109 214.451984,130.268109 C200.254984,130.268109 189.553984,120.212109 189.553984,105.372109 C189.553984,90.5291094 200.253984,80.4721094 214.450984,80.4721094 L214.451984,80.4711094 Z" id="Shape" fill="#000000"></path>
        </g>
    </g>
</svg>