<svg xmlns="http://www.w3.org/2000/svg" width="16" height="16" viewBox="0 0 32 32">
  <path fill="currentColor" fill-rule="evenodd" d="M26.672 4.11c-2.156 2.484-4.938 4.406-8.453 5.812-1.657-3.11-3.704-6.297-6.22-9.406C13.297.187 14.625 0 16 0c4.11 0 7.86 1.563 10.672 4.11zM9.297 1.483c2.562 3.11 4.625 6.25 6.297 9.329-4.156 1.218-9.188 1.89-15.266 2 1-5.032 4.406-9.22 8.97-11.33zM28.375 5.86C30.625 8.593 31.97 12.11 32 15.92c-3.97-.89-7.703-1.063-11.188-.485-.437-1.11-.953-2.218-1.484-3.36 3.703-1.483 6.703-3.56 9.047-6.218zM16.89 16.437c-5.03 1.78-9.296 5.265-12.67 10.42C1.593 24 0 20.19 0 16v-.734c6.703-.125 12.188-.86 16.703-2.266.516 1.03.97 2.03 1.406 3.078-.407.11-.813.22-1.22.36zm4.813 1.343c3.516-.514 7-.155 10.11.626-.672 4.563-3.297 8.485-7 10.922-.625-3.437-1.547-7.36-3.11-11.547zM19 18.33c1.703 4.53 2.672 8.75 3.297 12.375C20.327 31.563 18.22 32 16 32c-3.734 0-7.22-1.297-9.922-3.438 3.734-5.89 8.297-8.937 12.922-10.234z"/>
</svg>