<svg xmlns="http://www.w3.org/2000/svg" width="16" height="16" viewBox="0 0 32 32">
  <path fill="currentColor" fill-rule="evenodd" d="M32 6.063c-1.188.53-2.438.89-3.78 1.046 1.374-.813 2.405-2.11 2.89-3.64-1.25.75-2.672 1.296-4.14 1.592C25.733 3.813 24.03 3 22.14 3c-3.624 0-6.546 2.922-6.546 6.547 0 .515.03 1.047.14 1.515-5.437-.296-10.25-2.765-13.515-6.734-.548.97-.892 1.97-.892 3.188 0 2.25 1.156 4.25 2.938 5.437-1.079-.03-2.079-.328-2.97-.812v.08c0 3.186 2.266 5.842 5.266 6.436-.562.157-1.156.235-1.75.235-.406 0-.812-.046-1.218-.124.812 2.593 3.265 4.53 6.11 4.562-2.22 1.78-5.08 3.11-8.142 3.11-.53 0-1.046-.032-1.562-.11C2.89 28.188 6.375 29 10.078 29c12.063 0 18.656-10 18.656-18.672v-.86C30 8.55 31.11 7.407 32 6.064z"/>
</svg>