<?xml version="1.0" encoding="UTF-8" standalone="no"?>
<svg width="1312px" height="328px" viewBox="0 0 1312 328" version="1.1" xmlns="http://www.w3.org/2000/svg" xmlns:xlink="http://www.w3.org/1999/xlink">
    <!-- Generator: Sketch 39.1 (31720) - http://www.bohemiancoding.com/sketch -->
    <title>Artboard</title>
    <desc>Created with Sketch.</desc>
    <defs>
        <rect id="path-1" x="0" y="0" width="316" height="328" rx="16"></rect>
        <rect id="path-3" x="0" y="0" width="316" height="328" rx="16"></rect>
        <rect id="path-5" x="0" y="0" width="316" height="328" rx="16"></rect>
        <rect id="path-7" x="0" y="0" width="316" height="328" rx="16"></rect>
    </defs>
    <g id="Page-1" stroke="none" stroke-width="1" fill="none" fill-rule="evenodd">
        <g id="Artboard">
            <g id="Group-6">
                <mask id="mask-2" fill="white">
                    <use xlink:href="#path-1"></use>
                </mask>
                <use id="Mask" fill="#FFFFFF" xlink:href="#path-1"></use>
                <rect id="path-3" fill="#331A10" mask="url(#mask-2)" x="0" y="0" width="79" height="82"></rect>
                <rect id="path-3" fill-opacity="0" fill="#FFFFFF" mask="url(#mask-2)" x="0" y="0" width="79" height="82"></rect>
                <rect id="path-4" fill="#331A10" mask="url(#mask-2)" x="0" y="82" width="79" height="82"></rect>
                <rect id="path-4" fill-opacity="0.62" fill="#FFFFFF" mask="url(#mask-2)" x="0" y="82" width="79" height="82"></rect>
                <rect id="path-5" fill="#331A10" mask="url(#mask-2)" x="79" y="0" width="79" height="82"></rect>
                <rect id="path-5" fill-opacity="0.25" fill="#FFFFFF" mask="url(#mask-2)" x="79" y="0" width="79" height="82"></rect>
                <rect id="path-6" fill="#331A10" mask="url(#mask-2)" x="79" y="82" width="79" height="82"></rect>
                <rect id="path-6" fill-opacity="0.75" fill="#FFFFFF" mask="url(#mask-2)" x="79" y="82" width="79" height="82"></rect>
                <rect id="path-7" fill="#331A10" mask="url(#mask-2)" x="158" y="0" width="79" height="82"></rect>
                <rect id="path-7" fill-opacity="0.38" fill="#FFFFFF" mask="url(#mask-2)" x="158" y="0" width="79" height="82"></rect>
                <rect id="path-8" fill="#331A10" mask="url(#mask-2)" x="158" y="82" width="79" height="82"></rect>
                <rect id="path-8" fill-opacity="0.88" fill="#FFFFFF" mask="url(#mask-2)" x="158" y="82" width="79" height="82"></rect>
                <rect id="path-9" fill="#331A10" mask="url(#mask-2)" x="237" y="0" width="79" height="82"></rect>
                <rect id="path-9" fill-opacity="0.5" fill="#FFFFFF" mask="url(#mask-2)" x="237" y="0" width="79" height="82"></rect>
                <rect id="path-10" fill="#331A10" mask="url(#mask-2)" x="237" y="82" width="79" height="82"></rect>
                <rect id="path-10" fill-opacity="0.95" fill="#FFFFFF" mask="url(#mask-2)" x="237" y="82" width="79" height="82"></rect>
                <rect id="path-35" fill="#D46A43" mask="url(#mask-2)" x="0" y="164" width="79" height="82"></rect>
                <rect id="path-35" fill-opacity="0" fill="#FFFFFF" mask="url(#mask-2)" x="0" y="164" width="79" height="82"></rect>
                <rect id="path-36" fill="#D46A43" mask="url(#mask-2)" x="0" y="246" width="79" height="82"></rect>
                <rect id="path-36" fill-opacity="0.62" fill="#FFFFFF" mask="url(#mask-2)" x="0" y="246" width="79" height="82"></rect>
                <rect id="path-37" fill="#D46A43" mask="url(#mask-2)" x="79" y="164" width="79" height="82"></rect>
                <rect id="path-37" fill-opacity="0.25" fill="#FFFFFF" mask="url(#mask-2)" x="79" y="164" width="79" height="82"></rect>
                <rect id="path-38" fill="#D46A43" mask="url(#mask-2)" x="79" y="246" width="79" height="82"></rect>
                <rect id="path-38" fill-opacity="0.75" fill="#FFFFFF" mask="url(#mask-2)" x="79" y="246" width="79" height="82"></rect>
                <rect id="path-39" fill="#D46A43" mask="url(#mask-2)" x="158" y="164" width="79" height="82"></rect>
                <rect id="path-39" fill-opacity="0.38" fill="#FFFFFF" mask="url(#mask-2)" x="158" y="164" width="79" height="82"></rect>
                <rect id="path-40" fill="#D46A43" mask="url(#mask-2)" x="158" y="246" width="79" height="82"></rect>
                <rect id="path-40" fill-opacity="0.88" fill="#FFFFFF" mask="url(#mask-2)" x="158" y="246" width="79" height="82"></rect>
                <rect id="path-41" fill="#D46A43" mask="url(#mask-2)" x="237" y="164" width="79" height="82"></rect>
                <rect id="path-41" fill-opacity="0.5" fill="#FFFFFF" mask="url(#mask-2)" x="237" y="164" width="79" height="82"></rect>
                <rect id="path-42" fill="#D46A43" mask="url(#mask-2)" x="237" y="246" width="79" height="82"></rect>
                <rect id="path-42" fill-opacity="0.95" fill="#FFFFFF" mask="url(#mask-2)" x="237" y="246" width="79" height="82"></rect>
            </g>
            <g id="Group-2" transform="translate(332.000000, 0.000000)">
                <mask id="mask-4" fill="white">
                    <use xlink:href="#path-3"></use>
                </mask>
                <use id="Mask" fill="#FFFFFF" xlink:href="#path-3"></use>
                <rect id="path-11" fill="#172617" mask="url(#mask-4)" x="0" y="0" width="79" height="82"></rect>
                <rect id="path-11" fill-opacity="0" fill="#FFFFFF" mask="url(#mask-4)" x="0" y="0" width="79" height="82"></rect>
                <rect id="path-12" fill="#172617" mask="url(#mask-4)" x="0" y="82" width="79" height="82"></rect>
                <rect id="path-12" fill-opacity="0.62" fill="#FFFFFF" mask="url(#mask-4)" x="0" y="82" width="79" height="82"></rect>
                <rect id="path-13" fill="#172617" mask="url(#mask-4)" x="79" y="0" width="79" height="82"></rect>
                <rect id="path-13" fill-opacity="0.25" fill="#FFFFFF" mask="url(#mask-4)" x="79" y="0" width="79" height="82"></rect>
                <rect id="path-14" fill="#172617" mask="url(#mask-4)" x="79" y="82" width="79" height="82"></rect>
                <rect id="path-14" fill-opacity="0.75" fill="#FFFFFF" mask="url(#mask-4)" x="79" y="82" width="79" height="82"></rect>
                <rect id="path-15" fill="#172617" mask="url(#mask-4)" x="158" y="0" width="79" height="82"></rect>
                <rect id="path-15" fill-opacity="0.38" fill="#FFFFFF" mask="url(#mask-4)" x="158" y="0" width="79" height="82"></rect>
                <rect id="path-16" fill="#172617" mask="url(#mask-4)" x="158" y="82" width="79" height="82"></rect>
                <rect id="path-16" fill-opacity="0.88" fill="#FFFFFF" mask="url(#mask-4)" x="158" y="82" width="79" height="82"></rect>
                <rect id="path-17" fill="#172617" mask="url(#mask-4)" x="237" y="0" width="79" height="82"></rect>
                <rect id="path-17" fill-opacity="0.5" fill="#FFFFFF" mask="url(#mask-4)" x="237" y="0" width="79" height="82"></rect>
                <rect id="path-18" fill="#172617" mask="url(#mask-4)" x="237" y="82" width="79" height="82"></rect>
                <rect id="path-18" fill-opacity="0.95" fill="#FFFFFF" mask="url(#mask-4)" x="237" y="82" width="79" height="82"></rect>
                <rect id="path-43" fill="#5D995D" mask="url(#mask-4)" x="0" y="164" width="79" height="82"></rect>
                <rect id="path-43" fill-opacity="0" fill="#FFFFFF" mask="url(#mask-4)" x="0" y="164" width="79" height="82"></rect>
                <rect id="path-44" fill="#5D995D" mask="url(#mask-4)" x="0" y="246" width="79" height="82"></rect>
                <rect id="path-44" fill-opacity="0.62" fill="#FFFFFF" mask="url(#mask-4)" x="0" y="246" width="79" height="82"></rect>
                <rect id="path-45" fill="#5D995D" mask="url(#mask-4)" x="79" y="164" width="79" height="82"></rect>
                <rect id="path-45" fill-opacity="0.25" fill="#FFFFFF" mask="url(#mask-4)" x="79" y="164" width="79" height="82"></rect>
                <rect id="path-46" fill="#5D995D" mask="url(#mask-4)" x="79" y="246" width="79" height="82"></rect>
                <rect id="path-46" fill-opacity="0.75" fill="#FFFFFF" mask="url(#mask-4)" x="79" y="246" width="79" height="82"></rect>
                <rect id="path-47" fill="#5D995D" mask="url(#mask-4)" x="158" y="164" width="79" height="82"></rect>
                <rect id="path-47" fill-opacity="0.38" fill="#FFFFFF" mask="url(#mask-4)" x="158" y="164" width="79" height="82"></rect>
                <rect id="path-48" fill="#5D995D" mask="url(#mask-4)" x="158" y="246" width="79" height="82"></rect>
                <rect id="path-48" fill-opacity="0.88" fill="#FFFFFF" mask="url(#mask-4)" x="158" y="246" width="79" height="82"></rect>
                <rect id="path-49" fill="#5D995D" mask="url(#mask-4)" x="237" y="164" width="79" height="82"></rect>
                <rect id="path-49" fill-opacity="0.5" fill="#FFFFFF" mask="url(#mask-4)" x="237" y="164" width="79" height="82"></rect>
                <rect id="path-50" fill="#5D995D" mask="url(#mask-4)" x="237" y="246" width="79" height="82"></rect>
                <rect id="path-50" fill-opacity="0.95" fill="#FFFFFF" mask="url(#mask-4)" x="237" y="246" width="79" height="82"></rect>
            </g>
            <g id="Group-4" transform="translate(664.000000, 0.000000)">
                <mask id="mask-6" fill="white">
                    <use xlink:href="#path-5"></use>
                </mask>
                <use id="Mask" fill="#FFFFFF" xlink:href="#path-5"></use>
                <rect id="path-19" fill="#331316" mask="url(#mask-6)" x="0" y="0" width="79" height="82"></rect>
                <rect id="path-19" fill-opacity="0" fill="#FFFFFF" mask="url(#mask-6)" x="0" y="0" width="79" height="82"></rect>
                <rect id="path-20" fill="#331316" mask="url(#mask-6)" x="0" y="82" width="79" height="82"></rect>
                <rect id="path-20" fill-opacity="0.62" fill="#FFFFFF" mask="url(#mask-6)" x="0" y="82" width="79" height="82"></rect>
                <rect id="path-21" fill="#331316" mask="url(#mask-6)" x="79" y="0" width="79" height="82"></rect>
                <rect id="path-21" fill-opacity="0.25" fill="#FFFFFF" mask="url(#mask-6)" x="79" y="0" width="79" height="82"></rect>
                <rect id="path-22" fill="#331316" mask="url(#mask-6)" x="79" y="82" width="79" height="82"></rect>
                <rect id="path-22" fill-opacity="0.75" fill="#FFFFFF" mask="url(#mask-6)" x="79" y="82" width="79" height="82"></rect>
                <rect id="path-23" fill="#331316" mask="url(#mask-6)" x="158" y="0" width="79" height="82"></rect>
                <rect id="path-23" fill-opacity="0.38" fill="#FFFFFF" mask="url(#mask-6)" x="158" y="0" width="79" height="82"></rect>
                <rect id="path-24" fill="#331316" mask="url(#mask-6)" x="158" y="82" width="79" height="82"></rect>
                <rect id="path-24" fill-opacity="0.88" fill="#FFFFFF" mask="url(#mask-6)" x="158" y="82" width="79" height="82"></rect>
                <rect id="path-25" fill="#331316" mask="url(#mask-6)" x="237" y="0" width="79" height="82"></rect>
                <rect id="path-25" fill-opacity="0.5" fill="#FFFFFF" mask="url(#mask-6)" x="237" y="0" width="79" height="82"></rect>
                <rect id="path-26" fill="#331316" mask="url(#mask-6)" x="237" y="82" width="79" height="82"></rect>
                <rect id="path-26" fill-opacity="0.95" fill="#FFFFFF" mask="url(#mask-6)" x="237" y="82" width="79" height="82"></rect>
                <rect id="path-51" fill="#D24D57" mask="url(#mask-6)" x="0" y="164" width="79" height="82"></rect>
                <rect id="path-51" fill-opacity="0" fill="#FFFFFF" mask="url(#mask-6)" x="0" y="164" width="79" height="82"></rect>
                <rect id="path-52" fill="#D24D57" mask="url(#mask-6)" x="0" y="246" width="79" height="82"></rect>
                <rect id="path-52" fill-opacity="0.62" fill="#FFFFFF" mask="url(#mask-6)" x="0" y="246" width="79" height="82"></rect>
                <rect id="path-53" fill="#D24D57" mask="url(#mask-6)" x="79" y="164" width="79" height="82"></rect>
                <rect id="path-53" fill-opacity="0.25" fill="#FFFFFF" mask="url(#mask-6)" x="79" y="164" width="79" height="82"></rect>
                <rect id="path-54" fill="#D24D57" mask="url(#mask-6)" x="79" y="246" width="79" height="82"></rect>
                <rect id="path-54" fill-opacity="0.75" fill="#FFFFFF" mask="url(#mask-6)" x="79" y="246" width="79" height="82"></rect>
                <rect id="path-55" fill="#D24D57" mask="url(#mask-6)" x="158" y="164" width="79" height="82"></rect>
                <rect id="path-55" fill-opacity="0.38" fill="#FFFFFF" mask="url(#mask-6)" x="158" y="164" width="79" height="82"></rect>
                <rect id="path-56" fill="#D24D57" mask="url(#mask-6)" x="158" y="246" width="79" height="82"></rect>
                <rect id="path-56" fill-opacity="0.88" fill="#FFFFFF" mask="url(#mask-6)" x="158" y="246" width="79" height="82"></rect>
                <rect id="path-57" fill="#D24D57" mask="url(#mask-6)" x="237" y="164" width="79" height="82"></rect>
                <rect id="path-57" fill-opacity="0.5" fill="#FFFFFF" mask="url(#mask-6)" x="237" y="164" width="79" height="82"></rect>
                <rect id="path-58" fill="#D24D57" mask="url(#mask-6)" x="237" y="246" width="79" height="82"></rect>
                <rect id="path-58" fill-opacity="0.95" fill="#FFFFFF" mask="url(#mask-6)" x="237" y="246" width="79" height="82"></rect>
            </g>
            <g id="Group-5" transform="translate(996.000000, 0.000000)">
                <mask id="mask-8" fill="white">
                    <use xlink:href="#path-7"></use>
                </mask>
                <use id="Mask" fill="#FFFFFF" xlink:href="#path-7"></use>
                <rect id="path-27" fill="#061D33" mask="url(#mask-8)" x="0" y="0" width="79" height="82"></rect>
                <rect id="path-27" fill-opacity="0" fill="#FFFFFF" mask="url(#mask-8)" x="0" y="0" width="79" height="82"></rect>
                <rect id="path-28" fill="#061D33" mask="url(#mask-8)" x="0" y="82" width="79" height="82"></rect>
                <rect id="path-28" fill-opacity="0.62" fill="#FFFFFF" mask="url(#mask-8)" x="0" y="82" width="79" height="82"></rect>
                <rect id="path-29" fill="#061D33" mask="url(#mask-8)" x="79" y="0" width="79" height="82"></rect>
                <rect id="path-29" fill-opacity="0.25" fill="#FFFFFF" mask="url(#mask-8)" x="79" y="0" width="79" height="82"></rect>
                <rect id="path-30" fill="#061D33" mask="url(#mask-8)" x="79" y="82" width="79" height="82"></rect>
                <rect id="path-30" fill-opacity="0.75" fill="#FFFFFF" mask="url(#mask-8)" x="79" y="82" width="79" height="82"></rect>
                <rect id="path-31" fill="#061D33" mask="url(#mask-8)" x="158" y="0" width="79" height="82"></rect>
                <rect id="path-31" fill-opacity="0.38" fill="#FFFFFF" mask="url(#mask-8)" x="158" y="0" width="79" height="82"></rect>
                <rect id="path-32" fill="#061D33" mask="url(#mask-8)" x="158" y="82" width="79" height="82"></rect>
                <rect id="path-32" fill-opacity="0.88" fill="#FFFFFF" mask="url(#mask-8)" x="158" y="82" width="79" height="82"></rect>
                <rect id="path-33" fill="#061D33" mask="url(#mask-8)" x="237" y="0" width="79" height="82"></rect>
                <rect id="path-33" fill-opacity="0.5" fill="#FFFFFF" mask="url(#mask-8)" x="237" y="0" width="79" height="82"></rect>
                <rect id="path-34" fill="#061D33" mask="url(#mask-8)" x="237" y="82" width="79" height="82"></rect>
                <rect id="path-34" fill-opacity="0.95" fill="#FFFFFF" mask="url(#mask-8)" x="237" y="82" width="79" height="82"></rect>
                <rect id="path-59" fill="#1E90FF" mask="url(#mask-8)" x="0" y="164" width="79" height="82"></rect>
                <rect id="path-59" fill-opacity="0" fill="#FFFFFF" mask="url(#mask-8)" x="0" y="164" width="79" height="82"></rect>
                <rect id="path-60" fill="#1E90FF" mask="url(#mask-8)" x="0" y="246" width="79" height="82"></rect>
                <rect id="path-60" fill-opacity="0.62" fill="#FFFFFF" mask="url(#mask-8)" x="0" y="246" width="79" height="82"></rect>
                <rect id="path-61" fill="#1E90FF" mask="url(#mask-8)" x="79" y="164" width="79" height="82"></rect>
                <rect id="path-61" fill-opacity="0.25" fill="#FFFFFF" mask="url(#mask-8)" x="79" y="164" width="79" height="82"></rect>
                <rect id="path-62" fill="#1E90FF" mask="url(#mask-8)" x="79" y="246" width="79" height="82"></rect>
                <rect id="path-62" fill-opacity="0.75" fill="#FFFFFF" mask="url(#mask-8)" x="79" y="246" width="79" height="82"></rect>
                <rect id="path-63" fill="#1E90FF" mask="url(#mask-8)" x="158" y="164" width="79" height="82"></rect>
                <rect id="path-63" fill-opacity="0.38" fill="#FFFFFF" mask="url(#mask-8)" x="158" y="164" width="79" height="82"></rect>
                <rect id="path-64" fill="#1E90FF" mask="url(#mask-8)" x="158" y="246" width="79" height="82"></rect>
                <rect id="path-64" fill-opacity="0.88" fill="#FFFFFF" mask="url(#mask-8)" x="158" y="246" width="79" height="82"></rect>
                <rect id="path-65" fill="#1E90FF" mask="url(#mask-8)" x="237" y="164" width="79" height="82"></rect>
                <rect id="path-65" fill-opacity="0.5" fill="#FFFFFF" mask="url(#mask-8)" x="237" y="164" width="79" height="82"></rect>
                <rect id="path-66" fill="#1E90FF" mask="url(#mask-8)" x="237" y="246" width="79" height="82"></rect>
                <rect id="path-66" fill-opacity="0.95" fill="#FFFFFF" mask="url(#mask-8)" x="237" y="246" width="79" height="82"></rect>
            </g>
        </g>
    </g>
</svg>