<?xml version="1.0" encoding="UTF-8" standalone="no"?>
<svg width="1476px" height="204px" viewBox="0 0 1476 204" version="1.1" xmlns="http://www.w3.org/2000/svg" xmlns:xlink="http://www.w3.org/1999/xlink">
    <!-- Generator: Sketch 39.1 (31720) - http://www.bohemiancoding.com/sketch -->
    <title>Artboard</title>
    <desc>Created with Sketch.</desc>
    <defs></defs>
    <g id="Page-1" stroke="none" stroke-width="1" fill="none" fill-rule="evenodd">
        <g id="Artboard">
            <rect id="path-2" fill="#FFFFFF" x="0" y="0" width="1476" height="204" rx="16"></rect>
            <path d="M1380,48 C1380,30.4 1394.4,16 1412,16 C1429.6,16 1444,30.4 1444,48 C1444,65.6 1429.6,80 1412,80 C1394.4,80 1380,65.6 1380,48 L1380,48 L1380,48 L1380,48 Z M1440,48 C1440,32.6 1427.4,20 1412,20 C1396.6,20 1384,32.6 1384,48 C1384,63.4 1396.6,76 1412,76 C1427.4,76 1440,63.4 1440,48 L1440,48 L1440,48 L1440,48 Z M1416.8,40.4 L1413.2,40.4 L1403.4,41.8 L1403.4,46.4 L1403.8,46.4 C1407.6,46.8 1407.6,47.8 1407.6,51 L1407.6,58.6 C1407.6,62 1407.6,63.2 1403.4,63.6 L1403.4,68 L1420.6,68 L1420.6,63.6 C1417,63 1416.8,62 1416.8,59.2 L1416.8,40.4 L1416.8,40.4 L1416.8,40.4 L1416.8,40.4 Z M1411.8,28 C1408.8,28 1406.4,30.4 1406.4,33.4 C1406.4,36.2 1408.6,38.6 1411.4,38.6 C1414.4,38.6 1416.8,36.2 1416.8,33.2 C1416.8,30.4 1414.6,28 1411.8,28 L1411.8,28 L1411.8,28 L1411.8,28 Z" id="Shape" fill="#1978D4"></path>
            <path d="M1412,16 C1394.4,16 1380,30.4 1380,48 C1380,65.6 1394.4,80 1412,80 C1429.6,80 1444,65.6 1444,48 C1444,30.4 1429.6,16 1412,16 L1412,16 L1412,16 Z" id="Shape" fill="#1978D4" opacity="0.25"></path>
            <path d="M32,48 C32,30.326 46.326,16 64,16 C81.674,16 96,30.326 96,48 C96,65.674 81.674,80 64,80 C46.326,80 32,65.674 32,48 L32,48 L32,48 Z M92,48 C92,32.536 79.464,20 64,20 C48.536,20 36,32.536 36,48 C36,63.464 48.536,76 64,76 C79.464,76 92,63.464 92,48 L92,48 L92,48 Z" id="Shape" fill="#1978D4"></path>
            <path d="M64,16 C46.4,16 32,30.4 32,48 C32,65.6 46.4,80 64,80 C81.6,80 96,65.6 96,48 C96,30.4 81.6,16 64,16 L64,16 L64,16 Z" id="Shape" fill="#1978D4" opacity="0.25"></path>
            <path d="M73.2206061,136.50303 C71.9444848,137.78303 69.8712727,137.779152 68.5990303,136.506909 L66.2814545,134.189333 C65.0053333,132.913212 64.9956364,130.853576 66.2814545,129.565818 L73.2244848,122.626667 C74.5006061,121.346667 76.568,121.346667 77.8402424,122.620848 L94.0458182,138.824485 C95.32,140.098667 95.3180606,142.166061 94.0458182,143.440242 L68.5912727,168.890909 C67.3151515,170.16703 65.2555152,170.174788 63.9677576,168.890909 L57.0286061,161.947879 C55.7486061,160.671758 55.7544242,158.596606 57.0286061,157.326303 L59.3442424,155.006788 C60.6203636,153.732606 62.68,153.726788 63.9677576,155.012606 L65.1236364,156.168485 C65.7636364,156.804606 66.8012121,156.802667 67.4450909,156.158788 L81.3078788,142.296 C81.953697,141.652121 81.953697,140.608727 81.3272727,139.988121 L76.6804848,135.337455 C76.0482424,134.703273 75.022303,134.703273 74.3784242,135.347151 L73.2225455,136.50303 L73.2206061,136.50303 L73.2206061,136.50303 Z M54.7187879,168.890909 C55.9949091,167.610909 58.0700606,167.614788 59.342303,168.88703 L61.6598788,171.204606 C62.9340606,172.480727 62.9398788,174.540364 61.656,175.828121 L54.7129697,182.767273 C53.4387879,184.047273 51.3694545,184.047273 50.0972121,182.773091 L33.889697,166.569455 C32.6155152,165.295273 32.6174545,163.227879 33.889697,161.953697 L59.3500606,136.50303 C60.6242424,135.226909 62.6858182,135.219152 63.9716364,136.50303 L70.9107879,143.446061 C72.1907879,144.722182 72.1849697,146.797333 70.9107879,148.067636 L68.5951515,150.387152 C67.3190303,151.661333 65.2593939,151.667151 63.9716364,150.381333 L62.8157576,149.225455 C62.1757576,148.589333 61.1381818,148.591273 60.494303,149.235152 L46.6315152,163.097939 C45.985697,163.741818 45.9876364,164.785212 46.6121212,165.405818 L51.2589091,170.056485 C51.8911515,170.690667 52.9170909,170.690667 53.5609697,170.046788 L54.7168485,168.890909 L54.7187879,168.890909 L54.7187879,168.890909 Z M72.0666667,133.037333 L74.3784242,130.721697 C75.0184242,130.081697 76.046303,130.077818 76.6921212,130.721697 L78.9941818,133.023758 L83.6409697,137.670546 L85.9430303,139.974546 C86.5830303,140.614545 86.5869091,141.642424 85.9430303,142.288242 L83.6235152,144.609697 L69.7607273,158.472485 L67.4392727,160.792 C66.7992727,161.432 65.7675152,161.435879 65.1236364,160.792 L62.8118788,158.480242 C62.1718788,157.840242 61.1401212,157.836364 60.4962424,158.480242 C59.8562424,159.120242 59.8620606,160.159758 60.4865455,160.784242 L65.1352727,165.43103 C65.7675152,166.063273 66.7895758,166.067151 67.4431515,165.415515 L90.5684848,142.288242 C91.2084848,141.648242 91.2084848,140.606788 90.5626667,139.96097 L76.6921212,126.100121 C76.0521212,125.460121 75.0087273,125.460121 74.3842424,126.080727 L69.7413333,130.735273 C69.1090909,131.367515 69.1090909,132.395394 69.7529697,133.039273 C70.3929697,133.679273 71.4247273,133.683152 72.0666667,133.039273 L72.0666667,133.037333 L72.0666667,133.037333 Z M55.8727273,172.356606 L53.5609697,174.672242 C52.9209697,175.312242 51.8930909,175.316121 51.2472727,174.672242 L48.9452121,172.370182 L44.2984242,167.723394 L41.9963636,165.419394 C41.3563636,164.779394 41.3524848,163.751515 41.9963636,163.105697 L44.3158788,160.784242 L58.1786667,146.921455 L60.5001212,144.601939 C61.1401212,143.961939 62.1718788,143.958061 62.8157576,144.601939 L65.1275152,146.913697 C65.7675152,147.553697 66.7992727,147.557576 67.4431515,146.913697 C68.0831515,146.273697 68.0792727,145.234182 67.4547879,144.609697 L62.8041212,139.962909 C62.1718788,139.330667 61.1498182,139.326788 60.4962424,139.978424 L37.3709091,163.105697 C36.7309091,163.745697 36.7309091,164.787151 37.3767273,165.43297 L51.2472727,179.295758 C51.8872727,179.935758 52.9306667,179.935758 53.5551515,179.315152 L58.2,174.660606 C58.8322424,174.028364 58.830303,173.000485 58.1864242,172.356606 C57.5464242,171.716606 56.5146667,171.712727 55.8727273,172.356606 L55.8727273,172.356606 L55.8727273,172.356606 Z" id="Shape" fill="#1978D4"></path>
            <path d="M73.2206061,136.50303 C71.9444848,137.78303 69.8712727,137.779152 68.5990303,136.506909 L66.2814545,134.189333 C65.0053333,132.913212 64.9956364,130.853576 66.2814545,129.565818 L73.2244848,122.626667 C74.5006061,121.346667 76.568,121.346667 77.8402424,122.620848 L94.0458182,138.824485 C95.32,140.098667 95.3180606,142.166061 94.0458182,143.440242 L68.5912727,168.890909 C67.3151515,170.16703 65.2555152,170.174788 63.9677576,168.890909 L57.0286061,161.947879 C55.7486061,160.671758 55.7544242,158.596606 57.0286061,157.326303 L59.3442424,155.006788 C60.6203636,153.732606 62.68,153.726788 63.9677576,155.012606 L65.1236364,156.168485 C65.7636364,156.804606 66.8012121,156.802667 67.4450909,156.158788 L81.3078788,142.296 C81.953697,141.652121 81.953697,140.608727 81.3272727,139.988121 L76.6804848,135.337455 C76.0482424,134.703273 75.022303,134.703273 74.3784242,135.347151 L73.2225455,136.50303 L73.2206061,136.50303 L73.2206061,136.50303 Z M54.7187879,168.890909 C55.9949091,167.610909 58.0700606,167.614788 59.342303,168.88703 L61.6598788,171.204606 C62.9340606,172.480727 62.9398788,174.540364 61.656,175.828121 L54.7129697,182.767273 C53.4387879,184.047273 51.3694545,184.047273 50.0972121,182.773091 L33.889697,166.569455 C32.6155152,165.295273 32.6174545,163.227879 33.889697,161.953697 L59.3500606,136.50303 C60.6242424,135.226909 62.6858182,135.219152 63.9716364,136.50303 L70.9107879,143.446061 C72.1907879,144.722182 72.1849697,146.797333 70.9107879,148.067636 L68.5951515,150.387152 C67.3190303,151.661333 65.2593939,151.667151 63.9716364,150.381333 L62.8157576,149.225455 C62.1757576,148.589333 61.1381818,148.591273 60.494303,149.235152 L46.6315152,163.097939 C45.985697,163.741818 45.9876364,164.785212 46.6121212,165.405818 L51.2589091,170.056485 C51.8911515,170.690667 52.9170909,170.690667 53.5609697,170.046788 L54.7168485,168.890909 L54.7187879,168.890909 L54.7187879,168.890909 Z" id="Shape" fill="#1978D4" opacity="0.25"></path>
            <path d="M281.268564,76 L227.748565,76 L254.508564,22.76 L281.268564,76 L281.268564,76 L281.268564,76 Z M252.720564,17.106 L222.720565,77.106 C222.054565,78.436 223.020565,80 224.508565,80 L284.508564,80 C285.994564,80 286.962564,78.436 286.296564,77.106 L256.296564,17.106 C255.560564,15.632 253.456564,15.632 252.720564,17.106 L252.720564,17.106 L252.720564,17.106 Z" id="Shape" fill="#1978D4"></path>
            <path d="M252.720564,17.106 L222.720565,77.106 C222.054565,78.436 223.020565,80 224.508565,80 L284.508564,80 C285.994564,80 286.962564,78.436 286.296564,77.106 L256.296564,17.106 C255.560564,15.632 253.456564,15.632 252.720564,17.106 L252.720564,17.106 L252.720564,17.106 Z" id="Shape" fill="#1978D4" opacity="0.25"></path>
            <path d="M267.776451,180.666667 L269.508451,179.666667 L239.508451,179.666667 L241.240451,180.666667 L226.240451,154.666667 L226.240451,156.666667 L241.240451,130.666667 L239.508451,131.666667 L269.508451,131.666667 L267.776451,130.666667 L282.776451,156.666667 L282.776451,154.666667 L267.776451,180.666667 L267.776451,180.666667 L267.776451,180.666667 Z M286.240451,154.666667 L271.240451,128.666667 C270.884451,128.046667 270.220451,127.666667 269.508451,127.666667 L239.508451,127.666667 C238.794451,127.666667 238.132451,128.046667 237.776451,128.666667 L222.776451,154.666667 C222.416451,155.286667 222.416451,156.046667 222.776451,156.666667 L237.776451,182.666667 C238.132451,183.286667 238.796451,183.666667 239.508451,183.666667 L269.508451,183.666667 C270.222451,183.666667 270.884451,183.286667 271.240451,182.666667 L286.240451,156.666667 C286.600451,156.046667 286.600451,155.286667 286.240451,154.666667 L286.240451,154.666667 L286.240451,154.666667 Z" id="Shape" fill="#1978D4"></path>
            <path d="M286.240451,154.666667 L271.240451,128.666667 C270.884451,128.046667 270.220451,127.666667 269.508451,127.666667 L239.508451,127.666667 C238.794451,127.666667 238.132451,128.046667 237.776451,128.666667 L222.776451,154.666667 C222.416451,155.286667 222.416451,156.046667 222.776451,156.666667 L237.776451,182.666667 C238.132451,183.286667 238.796451,183.666667 239.508451,183.666667 L269.508451,183.666667 C270.222451,183.666667 270.884451,183.286667 271.240451,182.666667 L286.240451,156.666667 C286.600451,156.046667 286.600451,155.286667 286.240451,154.666667 L286.240451,154.666667 L286.240451,154.666667 Z" id="Shape" fill="#1978D4" opacity="0.25"></path>
            <path d="M449.714286,34 C449.714286,35.106 450.626286,36 451.704286,36 L469.714286,36 L469.714286,33.18 L452.534286,16 L449.714286,16 L449.714286,34 L449.714286,34 L449.714286,34 Z" id="Shape" fill="#1978D4"></path>
            <path d="M413.714286,74.016 C413.714286,77.312 416.394286,80 419.694286,80 L463.734286,80 C467.034286,80 469.714286,77.32 469.714286,74.016 L469.714286,33.176 L469.128286,32.592 L453.122286,16.586 L452.534286,16 L419.694286,16 C416.394286,16 413.714286,18.68 413.714286,21.984 L413.714286,74.016 L413.714286,74.016 L413.714286,74.016 Z" id="Shape" fill="#1978D4" opacity="0.25"></path>
            <path d="M444.350649,177.642424 L462.387013,187.533333 C463.744589,188.309091 465.490043,186.951515 465.296104,185.4 L461.805195,164.454545 L461.223377,166.2 L475.768831,151.266667 C476.932468,150.10303 476.350649,148.163636 474.799134,147.775758 L454.629437,144.866667 L455.987013,145.836364 L447.065801,126.830303 C446.290043,125.278788 444.350649,125.278788 443.574892,126.830303 L434.65368,145.836364 L436.011255,144.866667 L415.841558,147.775758 C414.290043,148.163636 413.708225,150.10303 414.871861,151.266667 L429.417316,166.2 L428.835498,164.454545 L425.344589,185.4 C425.150649,186.951515 426.896104,188.309091 428.25368,187.533333 L446.290043,177.642424 L444.350649,177.642424 L444.350649,177.642424 L444.350649,177.642424 L444.350649,177.642424 Z M445.320346,132.260606 L452.690043,147.581818 C452.883983,148.163636 453.465801,148.745454 454.047619,148.745454 L470.338528,151.266667 L458.508225,163.290909 C458.120346,163.678788 457.926407,164.454545 457.926407,165.036364 L460.835498,182.10303 L446.290043,173.957576 C445.708225,173.763636 444.932468,173.763636 444.350649,173.957576 L429.805195,181.909091 L432.714286,165.036364 C432.714286,164.454545 432.520346,163.678788 432.132468,163.290909 L420.302165,151.266667 L436.593074,148.745454 C437.174892,148.745454 437.75671,148.163636 437.950649,147.581818 L445.320346,132.260606 L445.320346,132.260606 L445.320346,132.260606 L445.320346,132.260606 Z" id="Shape" fill="#1978D4"></path>
            <path d="M444.350649,177.642424 L462.387013,187.533333 C463.744589,188.309091 465.490043,186.951515 465.296104,185.4 L461.805195,164.454545 L461.223377,166.2 L475.768831,151.266667 C476.932468,150.10303 476.350649,148.163636 474.799134,147.775758 L454.629437,144.866667 L455.987013,145.836364 L447.065801,126.830303 C446.290043,125.278788 444.350649,125.278788 443.574892,126.830303 L434.65368,145.836364 L436.011255,144.866667 L415.841558,147.775758 C414.290043,148.163636 413.708225,150.10303 414.871861,151.266667 L429.417316,166.2 L428.835498,164.454545 L425.344589,185.4 C425.150649,186.951515 426.896104,188.309091 428.25368,187.533333 L446.290043,177.642424 L444.350649,177.642424 L444.350649,177.642424 L444.350649,177.642424 Z" id="Shape" fill="#1978D4" opacity="0.25"></path>
            <path d="M611.525974,21.984 C611.525974,20.884 612.411974,20 613.505974,20 L639.525974,20 L639.525974,34 C639.525974,37.326 642.205974,40 645.525974,40 L659.525974,40 L659.525974,74.016 C659.525974,75.116 658.639974,76 657.545974,76 L613.505974,76 C612.417974,76 611.525974,75.106 611.525974,74.016 L611.525974,21.984 L607.525974,21.984 L607.525974,74.016 C607.525974,77.312 610.205974,80 613.505974,80 L657.545974,80 C660.845974,80 663.525974,77.32 663.525974,74.016 L663.525974,33.176 L662.939974,32.592 L646.933974,16.586 L646.345974,16 L613.505974,16 C610.205974,16 607.525974,18.68 607.525974,21.984 L611.525974,21.984 L611.525974,21.984 Z M643.525974,34.004 C643.525974,35.108 644.431974,36 645.519974,36 L659.525974,36 L644.345974,20 L643.525974,20 L643.525974,34.006 L643.525974,34.004 L643.525974,34.004 Z" id="Shape" fill="#1978D4"></path>
            <path d="M607.525974,74.016 C607.525974,77.312 610.205974,80 613.505974,80 L657.545974,80 C660.845974,80 663.525974,77.32 663.525974,74.016 L663.525974,33.176 L662.939974,32.592 L646.933974,16.586 L646.345974,16 L613.505974,16 C610.205974,16 607.525974,18.68 607.525974,21.984 L607.525974,74.016 L607.525974,74.016 L607.525974,74.016 Z" id="Shape" fill="#1978D4" opacity="0.25"></path>
            <path d="M632.697974,155.666667 L619.971974,142.940667 C619.177974,142.146667 619.191974,140.890667 619.971974,140.110667 C620.755974,139.324667 622.019974,139.330667 622.799974,140.110667 L635.525974,152.840667 L648.251974,140.114667 C649.045974,139.320667 650.301974,139.334667 651.081974,140.114667 C651.867974,140.898667 651.861974,142.162667 651.081974,142.942667 L638.351974,155.666667 L651.077974,168.392667 C651.873974,169.188667 651.857974,170.442667 651.077974,171.222667 C650.293974,172.008667 649.029974,172.002667 648.249974,171.222667 L635.525974,158.492667 L622.799974,171.218667 C622.005974,172.012667 620.749974,171.998667 619.969974,171.218667 C619.183974,170.434667 619.189974,169.170667 619.969974,168.390667 L632.699974,155.666667 L632.697974,155.666667 L632.697974,155.666667 Z M603.525974,155.666667 C603.525974,137.992667 617.851974,123.666667 635.525974,123.666667 C653.199974,123.666667 667.525974,137.992667 667.525974,155.666667 C667.525974,173.340667 653.199974,187.666667 635.525974,187.666667 C617.851974,187.666667 603.525974,173.340667 603.525974,155.666667 L603.525974,155.666667 L603.525974,155.666667 Z M663.525974,155.666667 C663.525974,140.202667 650.989974,127.666667 635.525974,127.666667 C620.061974,127.666667 607.525974,140.202667 607.525974,155.666667 C607.525974,171.130667 620.061974,183.666667 635.525974,183.666667 C650.989974,183.666667 663.525974,171.130667 663.525974,155.666667 L663.525974,155.666667 L663.525974,155.666667 Z" id="Shape" fill="#1978D4"></path>
            <path d="M635.525974,123.666667 C617.925974,123.666667 603.525974,138.066667 603.525974,155.666667 C603.525974,173.266667 617.925974,187.666667 635.525974,187.666667 C653.125974,187.666667 667.525974,173.266667 667.525974,155.666667 C667.525974,138.066667 653.125974,123.666667 635.525974,123.666667 L635.525974,123.666667 L635.525974,123.666667 Z" id="Shape" fill="#1978D4" opacity="0.25"></path>
            <path d="M801.063935,40 L795.063935,40 L795.063935,19.996 C795.063935,17.788 796.867935,16 799.083935,16 L815.043935,16 C817.263935,16 819.063935,17.796 819.063935,19.996 L819.063935,24 L855.059935,24 C857.271935,24 859.063935,25.79 859.063935,27.994 L859.063935,40 L853.063935,40 C853.063935,35.584 849.477935,32 845.051935,32 L809.075935,32 C804.635935,32 801.063935,35.58 801.063935,40 L801.063935,40 L801.063935,40 Z" id="Shape" fill="#1978D4"></path>
            <path d="M855.059935,24 C857.271935,24 859.063935,25.79 859.063935,27.994 L859.063935,72.006 C859.063935,74.212 857.283935,76 855.059935,76 L799.067935,76 C796.855935,76 795.063935,74.21 795.063935,72.006 L795.063935,19.996 C795.063935,17.788 796.867935,16 799.083935,16 L815.043935,16 C817.263935,16 819.063935,17.796 819.063935,19.996 L819.063935,24 L855.059935,24 L855.059935,24 L855.059935,24 Z" id="Shape" fill="#1978D4" opacity="0.25"></path>
            <path d="M799.064935,185.666667 L795.064935,185.666667 L795.064935,173.974667 L797.924935,173.124667 C800.404935,172.388667 800.992935,171.730667 802.960935,166.594667 L819.256935,124.228667 L820.244935,121.666667 L834.368935,121.666667 L835.334935,124.280667 L851.628935,168.426667 C853.140935,172.506667 853.308935,172.676667 855.614935,172.998667 L859.062935,173.478667 L859.062935,185.666667 L828.250935,185.666667 L828.250935,173.086667 L834.114935,172.960667 L831.582935,165.214667 L818.490935,165.214667 L815.804935,173.086667 L821.508935,173.086667 L821.508935,185.666667 L799.064935,185.666667 L799.064935,185.666667 L799.064935,185.666667 Z M799.064935,181.666667 L817.508935,181.666667 L817.508935,176.958667 C813.360935,176.552667 811.804935,175.010667 811.804935,173.550667 C811.804935,172.820667 811.952935,171.522667 812.916935,168.924667 L815.656935,161.212667 L834.324935,161.212667 L837.878935,171.112667 C838.398935,172.572667 838.768935,173.712667 838.768935,174.440667 C838.768935,175.980667 837.212935,176.794667 832.248935,176.956667 L832.248935,181.666667 L855.064935,181.666667 L855.064935,176.958667 C850.990935,176.390667 849.804935,175.010667 847.878935,169.818667 L831.584935,125.666667 L822.990935,125.666667 L806.694935,168.032667 C804.174935,174.606667 802.620935,175.906667 799.064935,176.958667 L799.064935,181.666667 L799.064935,181.666667 L799.064935,181.666667 Z M825.064935,135.080667 L832.544935,156.020667 L817.584935,156.020667 L825.064935,135.080667 L825.064935,135.080667 L825.064935,135.080667 Z M825.064935,146.932667 L826.934935,152.168667 L823.194935,152.168667 L825.064935,146.934667 L825.064935,146.932667 L825.064935,146.932667 Z" id="Shape" fill="#1978D4"></path>
            <path d="M799.064935,185.666667 L795.064935,185.666667 L795.064935,173.974667 L797.924935,173.124667 C800.404935,172.388667 800.992935,171.730667 802.960935,166.594667 L819.256935,124.228667 L820.244935,121.666667 L834.368935,121.666667 L835.334935,124.280667 L851.628935,168.426667 C853.140935,172.506667 853.308935,172.676667 855.614935,172.998667 L859.062935,173.478667 L859.062935,185.666667 L828.250935,185.666667 L828.250935,173.086667 L834.114935,172.960667 L831.582935,165.214667 L818.490935,165.214667 L815.804935,173.086667 L821.508935,173.086667 L821.508935,185.666667 L799.064935,185.666667 L799.064935,185.666667 L799.064935,185.666667 Z M825.064935,146.932667 L826.934935,152.168667 L823.194935,152.168667 L825.064935,146.934667 L825.064935,146.932667 L825.064935,146.932667 Z" id="Shape" fill="#1978D4" opacity="0.25"></path>
            <path d="M1049.60279,42 L1049.60279,29.994 C1049.60279,27.79 1047.81079,26 1045.59879,26 L1009.60279,26 L1009.60279,21.996 C1009.60279,19.796 1007.80279,18 1005.58279,18 L989.622793,18 C987.402793,18 985.602793,19.788 985.602793,21.996 L985.602793,74.006 L985.606793,76 L985.646793,76 C985.558793,75.488 985.626793,74.9 985.870793,74.28 L989.602793,64.82 L989.602793,28 C989.602793,28 989.608793,22 989.622793,22 C989.622793,22 1005.60279,22.006 1005.60279,21.996 L1005.60279,30 L1009.60279,30 C1009.60279,30 1045.60279,30 1045.60279,29.994 L1045.60279,42 L1049.60279,42 L1049.60279,42 L1049.60279,42 Z M1002.61479,42 L1058.72279,42 C1060.94279,42 1062.12679,43.688 1061.38279,45.75 L1051.07079,74.25 C1050.32279,76.32 1047.93479,78 1045.72679,78 L988.392793,78 C986.192793,78 985.062793,76.336 985.872793,74.28 L997.136793,45.72 C997.946793,43.66 1000.38279,42 1002.61679,42 L1002.61479,42 L1002.61479,42 Z M989.594793,75.75 C989.814793,75.182 989.014793,74 988.394793,74 L1045.72279,74 C1046.24279,74 1047.12879,73.38 1047.30679,72.888 L1057.61479,44.388 C1057.41479,44.938 1058.16679,46 1058.72079,46 L1002.61679,46 C1002.03279,46 1001.06879,46.656 1000.86079,47.184 L989.592793,75.75 L989.594793,75.75 L989.594793,75.75 Z" id="Shape" fill="#1978D4"></path>
            <path d="M1049.60279,42 L1058.72279,42 C1060.94279,42 1062.12679,43.688 1061.38279,45.75 L1051.07079,74.25 C1050.32279,76.32 1047.93479,78 1045.72679,78 L988.392793,78 C986.398793,78 985.284793,76.636 985.692793,74.854 C985.632793,74.58 985.602793,74.294 985.602793,74.006 L985.602793,21.996 C985.602793,19.788 987.406793,18 989.622793,18 L1005.58279,18 C1007.80279,18 1009.60279,19.796 1009.60279,21.996 L1009.60279,26 L1045.59879,26 C1047.81079,26 1049.60279,27.79 1049.60279,29.994 L1049.60279,42 L1049.60279,42 L1049.60279,42 Z" id="Shape" fill="#1978D4" opacity="0.25"></path>
            <path d="M991.603896,155.666667 C991.603896,137.992667 1005.9299,123.666667 1023.6039,123.666667 C1041.2779,123.666667 1055.6039,137.992667 1055.6039,155.666667 C1055.6039,173.340667 1041.2779,187.666667 1023.6039,187.666667 C1005.9299,187.666667 991.603896,173.340667 991.603896,155.666667 L991.603896,155.666667 L991.603896,155.666667 Z M1051.6039,155.666667 C1051.6039,140.202667 1039.0679,127.666667 1023.6039,127.666667 C1008.1399,127.666667 995.603896,140.202667 995.603896,155.666667 C995.603896,171.130667 1008.1399,183.666667 1023.6039,183.666667 C1039.0679,183.666667 1051.6039,171.130667 1051.6039,155.666667 L1051.6039,155.666667 L1051.6039,155.666667 Z M1029.1079,137.566667 L1029.1919,135.666667 L1017.9139,135.666667 L1018.0039,137.566667 L1019.0279,159.542667 L1019.1079,161.276667 L1028.0539,161.276667 L1028.1299,159.536667 L1029.1099,137.564667 L1029.1079,137.566667 L1029.1079,137.566667 Z M1022.1039,157.638667 L1021.6359,139.298667 L1025.4759,139.298667 L1025.0039,157.638667 L1022.1039,157.638667 L1022.1039,157.638667 L1022.1039,157.638667 Z M1029.3519,169.938667 C1029.3519,166.786667 1026.7319,164.166667 1023.5799,164.166667 C1020.4279,164.166667 1017.8559,166.786667 1017.8559,169.942667 C1017.8559,173.058667 1020.4399,175.666667 1023.5799,175.666667 C1026.7199,175.666667 1029.3519,173.056667 1029.3519,169.942667 L1029.3519,169.938667 L1029.3519,169.938667 Z M1021.4919,169.938667 C1021.4919,168.778667 1022.4519,167.802667 1023.5799,167.802667 C1024.7239,167.802667 1025.7159,168.794667 1025.7159,169.938667 C1025.7159,171.038667 1024.7199,172.026667 1023.5799,172.026667 C1022.4559,172.026667 1021.4919,171.054667 1021.4919,169.938667 L1021.4919,169.938667 L1021.4919,169.938667 Z" id="Shape" fill="#1978D4"></path>
            <path d="M991.603896,155.666667 C991.603896,137.992667 1005.9299,123.666667 1023.6039,123.666667 C1041.2779,123.666667 1055.6039,137.992667 1055.6039,155.666667 C1055.6039,173.340667 1041.2779,187.666667 1023.6039,187.666667 C1005.9299,187.666667 991.603896,173.340667 991.603896,155.666667 L991.603896,155.666667 L991.603896,155.666667 Z M1029.1079,137.566667 L1029.1919,135.666667 L1017.9139,135.666667 L1018.0039,137.566667 L1019.0279,159.542667 L1019.1079,161.276667 L1028.0539,161.276667 L1028.1299,159.536667 L1029.1099,137.564667 L1029.1079,137.566667 L1029.1079,137.566667 Z M1029.3519,169.942667 C1029.3519,166.788667 1026.7319,164.168667 1023.5799,164.168667 C1020.4279,164.168667 1017.8559,166.788667 1017.8559,169.944667 C1017.8559,173.060667 1020.4399,175.668667 1023.5799,175.668667 C1026.7199,175.668667 1029.3519,173.058667 1029.3519,169.944667 L1029.3519,169.942667 L1029.3519,169.942667 Z" id="Shape" fill="#1978D4" opacity="0.25"></path>
            <path d="M1249.13886,24 C1251.35086,24 1253.14286,25.79 1253.14286,27.994 L1253.14286,72.006 C1253.14286,74.212 1251.36286,76 1249.13886,76 L1193.14686,76 C1190.93486,76 1189.14286,74.21 1189.14286,72.006 L1189.14286,19.996 C1189.14286,17.788 1190.94686,16 1193.16286,16 L1209.12286,16 C1211.34286,16 1213.14286,17.796 1213.14286,19.996 L1213.14286,24 L1249.13886,24 L1249.13886,24 L1249.13886,24 Z M1213.14286,28 L1209.14286,28 L1209.14286,19.996 C1209.14286,20.006 1193.16286,20 1193.16286,20 C1193.14686,20 1193.14286,26 1193.14286,26 L1193.14286,72.006 C1193.14286,72 1249.13886,72 1249.13886,72 C1249.15086,72 1249.14286,27.994 1249.14286,27.994 C1249.14286,28 1213.14286,28 1213.14286,28 L1213.14286,28 L1213.14286,28 Z M1193.14286,38 L1193.14286,42 L1249.14286,42 L1249.14286,38 L1193.14286,38 L1193.14286,38 L1193.14286,38 Z" id="Shape" fill="#1978D4"></path>
            <path d="M1249.13886,24 C1251.35086,24 1253.14286,25.79 1253.14286,27.994 L1253.14286,72.006 C1253.14286,74.212 1251.36286,76 1249.13886,76 L1193.14686,76 C1190.93486,76 1189.14286,74.21 1189.14286,72.006 L1189.14286,19.996 C1189.14286,17.788 1190.94686,16 1193.16286,16 L1209.12286,16 C1211.34286,16 1213.14286,17.796 1213.14286,19.996 L1213.14286,24 L1249.13886,24 L1249.13886,24 L1249.13886,24 Z" id="Shape" fill="#1978D4" opacity="0.25"></path>
            <path d="M1189.14286,153.666667 C1189.14286,135.992667 1203.46886,121.666667 1221.14286,121.666667 C1238.81686,121.666667 1253.14286,135.992667 1253.14286,153.666667 C1253.14286,171.340667 1238.81686,185.666667 1221.14286,185.666667 C1203.46886,185.666667 1189.14286,171.340667 1189.14286,153.666667 L1189.14286,153.666667 L1189.14286,153.666667 Z M1249.14286,153.666667 C1249.14286,138.202667 1236.60686,125.666667 1221.14286,125.666667 C1205.67886,125.666667 1193.14286,138.202667 1193.14286,153.666667 C1193.14286,169.130667 1205.67886,181.666667 1221.14286,181.666667 C1236.60686,181.666667 1249.14286,169.130667 1249.14286,153.666667 L1249.14286,153.666667 L1249.14286,153.666667 Z M1221.11286,173.666667 C1223.71286,173.666667 1225.89886,171.480667 1225.89886,168.940667 C1225.89886,166.340667 1223.71286,164.154667 1221.11286,164.154667 C1218.51286,164.154667 1216.38686,166.340667 1216.38686,168.940667 C1216.38686,171.480667 1218.51286,173.666667 1221.11286,173.666667 L1221.11286,173.666667 L1221.11286,173.666667 Z M1224.42286,160.254667 L1225.60286,133.666667 L1216.56286,133.666667 L1217.80286,160.254667 L1224.42286,160.254667 L1224.42286,160.254667 L1224.42286,160.254667 Z" id="Shape" fill="#1978D4"></path>
            <path d="M1221.14286,121.666667 C1203.54286,121.666667 1189.14286,136.066667 1189.14286,153.666667 C1189.14286,171.266667 1203.54286,185.666667 1221.14286,185.666667 C1238.74286,185.666667 1253.14286,171.266667 1253.14286,153.666667 C1253.14286,136.066667 1238.74286,121.666667 1221.14286,121.666667 L1221.14286,121.666667 L1221.14286,121.666667 Z" id="Shape" fill="#1978D4" opacity="0.25"></path>
        </g>
    </g>
</svg>