<svg xmlns="http://www.w3.org/2000/svg">
<defs>
<font id="8aff6463c0992d2dce36159ba80cf4fd" horiz-adv-x='1024' >
  <font-face 
    font-family="GTSectra-BookItalic"
    font-weight="300"
    font-style="italic"
    font-stretch="normal"
    units-per-em="1000"
    panose-1="2 0 5 3 7 0 0 9 0 3"
    ascent="750"
    descent="-250"
    x-height="475"
    cap-height="701"
    bbox="-202 -246 1552 973"
    underline-thickness="50"
    underline-position="-50"
    slope="-12"
    unicode-range="U+000D-FB04"
  />
<missing-glyph horiz-adv-x="648" 
d="M613 460l-3 -41l-8 -35l-12 -31l-3 -156l-21 -7l-50 70l-27 -7l-19 -140l-32 4l-7 -4l-4 -94l30 -19l16 -14l-3 -15l-30 1l-24 18h-14l-8 8l7 76l-4 47l-61 1l-3 -52l-2 -56v-20l-15 -6l-8 6l-30 -10h-32l-1 11l11 11l50 21l-6 96l-98 -6l-147 140l-4 115l-13 10l-10 36
v26l15 8l-3 78l92 -62l9 47l10 36l22 35l28 35l39 29l40 15l38 14h22l-68 22l4 17h7l79 -20l-4 51l16 12h32l19 -5l29 -25l32 -8l32 -10l15 -13v-20l-20 -31l30 -28l28 -32l18 -34l15 -41zM503 399l-4 7h-205l-66 -3l-7 -9l-6 -44l-48 20l-11 -4l57 -27l1 -45l-5 -73v-91
l18 4l2 40l41 -3l3 9l-44 6v16l48 -6l1 9l-47 7l1 22l43 -3l3 6l-45 9l3 94h74l11 10h-79l2 9h74l8 7h-82l2 22l117 4l140 -4v11zM184 569l29 12l13 -15l-17 -20l-10 -3l17 -3h5l36 24h32l18 -12l8 3l4 14l7 5l10 -4v-18h8l10 22l11 8l-5 6l-3 8l1 21l-30 -10l-10 -8l-8 5
l4 21l14 10l11 11l38 -2l12 13l-4 8h-49l-45 -13l-53 -26l-29 -23zM594 465l-8 37l-19 50l-20 36l-23 28l-34 21h-11l17 -19l25 -10l11 -11l3 -33l-25 13l-15 -29l12 -8v-19l15 3l-12 26l15 -5l10 -20l-5 -12l-8 -7h-23l-3 11l-12 2l1 -22h-14l14 -18l-7 -10l-21 5l-3 -27
l41 6l8 17l22 -2l6 -28l-16 -13v-15l8 -6l18 12h23l6 11l-18 6l-5 9l9 42h7l14 -20zM80 434l57 -32l7 10l-68 38v18l59 -34l43 -28l28 -14l3 10l-103 64l-13 7l-41 33l2 -78l19 -17v-5h-21l19 -14l1 -11l-20 7l18 -18l-4 -7l3 -97l11 -12v180zM489 331l-54 1l-1 -24v-6

<glyph glyph-name="ff" unicode="ff" horiz-adv-x="569" 
d="M405 457l11 63q7 39 20 67t38 45l128 83h74l-15 -74h-123q-19 -18 -31 -44.5t-16 -47.5l-16 -92h115l-11 -45h-112l-79 -456q-6 -35 -17 -65.5t-31 -43.5l-129 -82h-73l16 72h114q17 18 28.5 41t14.5 40l86 494h-196l-78 -456q-7 -35 -17.5 -65.5t-30.5 -43.5l-129 -82
h-69l16 72h110q17 18 28 41t14 40l87 494h-98l5 17l34 30h67l10 61q7 39 20.5 67t37.5 45l129 83h144l-104 -74h-104q-19 -18 -31.5 -44.5t-15.5 -47.5l-16 -92h195z" />
    <glyph glyph-name="fi" unicode="fi" horiz-adv-x="525" 
d="M201 412l-78 -456q-7 -35 -17.5 -65.5t-30.5 -43.5l-129 -82h-69l16 72h110q17 18 28 41t14 40l87 494h-98l5 17l34 30h67l10 61q7 39 20.5 67t37.5 45l129 83h183l-15 -74h-232q-19 -18 -31.5 -44.5t-15.5 -47.5l-16 -92h179l54 25l23 -26l-70 -399l84 53l16 -24
l-139 -101l-39 30l72 401l-52 -4h-137z" />
    <glyph glyph-name="fl" unicode="fl" horiz-adv-x="514" 
d="M393 457l36 204l-77 -20h-79q-19 -18 -31.5 -44.5t-15.5 -47.5l-16 -92h183zM-123 -235l16 72h110q17 18 28 41t14 40l87 494h-98l5 17l34 30h67l10 61q7 39 20.5 67t37.5 45l129 83h150l18 -19l-112 -638l83 52l16 -24l-139 -101l-39 30l70 397h-183l-78 -456
q-7 -35 -17.5 -65.5t-30.5 -43.5l-129 -82h-69z" />
    <glyph glyph-name="ffi" unicode="ffi" horiz-adv-x="791" 
d="M538 641q-19 -18 -31 -44.5t-16 -47.5l-16 -92h179l54 25l23 -26l-69 -399l83 53l16 -24l-139 -101l-39 30l72 401l-52 -4h-136l-79 -456q-6 -35 -17 -65.5t-31 -43.5l-129 -82h-73l16 72h114q17 18 28.5 41t14.5 40l86 494h-196l-78 -456q-7 -35 -17.5 -65.5
t-30.5 -43.5l-129 -82h-69l16 72h110q17 18 28 41t14 40l87 494h-98l5 17l34 30h67l10 61q7 39 20.5 67t37.5 45l129 83h144l-104 -74h-104q-19 -18 -31.5 -44.5t-15.5 -47.5l-16 -92h195l11 63q7 39 20 67t38 45l128 83h184l-16 -74h-232z" />
    <glyph glyph-name="ffl" unicode="ffl" horiz-adv-x="779" 
d="M658 457l36 204l-76 -20h-80q-19 -18 -31 -44.5t-16 -47.5l-16 -92h183zM-54 -235h-69l16 72h110q17 18 28 41t14 40l87 494h-98l5 17l34 30h67l10 61q7 39 20.5 67t37.5 45l129 83h144l-104 -74h-104q-19 -18 -31.5 -44.5t-15.5 -47.5l-16 -92h195l11 63q7 39 20 67
t38 45l128 83h150l18 -19l-112 -638l83 52l16 -24l-139 -101l-38 30l69 397h-182l-79 -456q-6 -35 -17 -65.5t-31 -43.5l-129 -82h-73l16 72h114q17 18 28.5 41t14.5 40l86 494h-196l-78 -456q-7 -35 -17.5 -65.5t-30.5 -43.5z" />
    <glyph glyph-name="Th" unicode="Th" horiz-adv-x="957" 
d="M688 715l18 -19l-51 -291l-14 -29l168 106q29 0 48.5 -9.5t30.5 -25t14.5 -34.5t0.5 -37l-56 -319l83 53l16 -24l-139 -101l-39 30l58 325q6 32 0.5 52t-33.5 20q-23 0 -51.5 -14t-50.5 -29l-49 -34l-59 -335h-70l114 647l14 15l-83 -6l-157 3l-98 -616l80 -13l-9 -31
l-121 3l-121 -3v31l87 13l98 616l-147 -3l-67 -123h-36l28 168l271 -3l249 3z" />
    <glyph glyph-name="fb" unicode="fb" horiz-adv-x="729" 
d="M440 317l-43 -238q28 -19 62 -31.5t57 -12.5q29 11 50.5 37t35 59t20 70t6.5 71q0 36 -6.5 61.5t-17 42.5t-23.5 26t-26 11zM453 397l-16 -43l133 128q28 -4 53 -16t44 -33.5t30 -53.5t11 -76q0 -48 -12 -94.5t-35.5 -86t-59 -70.5t-81.5 -49l-51 -18q-35 5 -71.5 15.5
t-78.5 29.5l110 631l-77 -20h-79q-19 -18 -31.5 -44.5t-15.5 -47.5l-16 -92h114l-11 -45h-112l-78 -456q-7 -35 -17.5 -65.5t-30.5 -43.5l-129 -82h-69l16 72h110q17 18 28 41t14 40l87 494h-98l5 17l34 30h67l10 61q7 39 20.5 67t37.5 45l129 83h150l18 -19z" />
    <glyph glyph-name="ffb" unicode="ffb" horiz-adv-x="995" 
d="M705 317l-42 -238q28 -19 61.5 -31.5t57.5 -12.5q29 11 50 37t34.5 59t20 70t6.5 71q0 36 -6.5 61.5t-17 42.5t-23.5 26t-26 11zM752 715l18 -19l-51 -299l-16 -43l132 128q28 -4 53.5 -16t44.5 -33.5t30 -53.5t11 -76q0 -48 -12 -94.5t-35.5 -86t-59 -70.5t-81.5 -49
l-51 -18q-35 5 -71.5 15.5t-79.5 29.5l110 631l-76 -20h-80q-19 -18 -31 -44.5t-16 -47.5l-16 -92h115l-11 -45h-112l-79 -456q-6 -35 -17 -65.5t-31 -43.5l-129 -82h-73l16 72h114q17 18 28.5 41t14.5 40l86 494h-196l-78 -456q-7 -35 -17.5 -65.5t-30.5 -43.5l-129 -82
h-69l16 72h110q17 18 28 41t14 40l87 494h-98l5 17l34 30h67l10 61q7 39 20.5 67t37.5 45l129 83h144l-104 -74h-104q-19 -18 -31.5 -44.5t-15.5 -47.5l-16 -92h195l11 63q7 39 20 67t38 45l128 83h150z" />
    <glyph glyph-name="ffh" unicode="ffh" horiz-adv-x="1023" 
d="M538 641q-19 -18 -30.5 -44.5t-16.5 -47.5l-16 -92h115l-11 -45h-112l-79 -456q-6 -35 -17 -65.5t-31 -43.5l-129 -82h-73l16 72h114q17 18 28.5 41t14.5 40l86 494h-196l-78 -456q-7 -35 -17.5 -65.5t-30.5 -43.5l-129 -82h-69l16 72h110q17 18 28 41t14 40l87 494h-98
l5 17l34 30h67l10 61q7 39 20.5 67t37.5 45l129 83h144l-104 -74h-104q-19 -18 -31.5 -44.5t-15.5 -47.5l-16 -92h195l11 63q7 39 20 67t38 45l128 83h150l19 -19l-50 -291l-14 -29l167 106q29 0 48.5 -9.5t31 -25t15 -34.5t0.5 -37l-57 -319l84 53l16 -24l-139 -101l-39 30
l58 325q6 32 0.5 52t-33.5 20q-24 0 -52.5 -14t-49.5 -29l-49 -34l-59 -335h-71l117 661l-77 -20h-80z" />
    <glyph glyph-name="ffj" unicode="ffj" horiz-adv-x="768" 
d="M708 482l23 -26l-90 -502q-6 -33 -16 -64t-30 -43l-127 -82h-45l12 73h93q15 17 25 38.5t13 37.5l89 502l-52 -4h-136l-79 -456q-6 -35 -17 -65.5t-31 -43.5l-129 -82h-73l16 72h114q17 18 28.5 41t14.5 40l86 494h-196l-78 -456q-7 -35 -17.5 -65.5t-30.5 -43.5
l-129 -82h-69l16 72h110q17 18 28 41t14 40l87 494h-98l5 17l34 30h67l10 61q7 39 20.5 67t37.5 45l129 83h144l-104 -74h-104q-19 -18 -31.5 -44.5t-15.5 -47.5l-16 -92h195l11 63q7 39 20 67t38 45l128 83h184l-16 -74h-232q-19 -18 -31 -44.5t-16 -47.5l-16 -92h179z" />
    <glyph glyph-name="ffk" unicode="ffk" horiz-adv-x="994" 
d="M538 641q-19 -18 -30.5 -44.5t-16.5 -47.5l-16 -92h115l-11 -45h-112l-79 -456q-6 -35 -17 -65.5t-31 -43.5l-129 -82h-73l16 72h114q17 18 28.5 41t14.5 40l86 494h-196l-78 -456q-7 -35 -17.5 -65.5t-30.5 -43.5l-129 -82h-69l16 72h110q17 18 28 41t14 40l87 494h-98
l5 17l34 30h67l10 61q7 39 20.5 67t37.5 45l129 83h144l-104 -74h-104q-19 -18 -31.5 -44.5t-15.5 -47.5l-16 -92h195l11 63q7 39 20 67t38 45l128 83h150l19 -19l-72 -416l18 5l185 187h87l-17 -82h-52q-26 -7 -47 -19t-48 -34l-79 -66l14 -6l113 -211l93 59l16 -25
l-141 -103l-29 22l-119 248l-43 -255h-70l115 661l-77 -20h-80z" />
    <glyph glyph-name="fh" unicode="fh" horiz-adv-x="758" 
d="M430 661l-78 -20h-79q-19 -18 -31 -44.5t-16 -47.5l-16 -92h114l-11 -45h-112l-78 -456q-7 -35 -17.5 -65.5t-30.5 -43.5l-129 -82h-69l16 72h110q17 18 28 41t14 40l87 494h-98l5 17l34 30h67l10 61q7 39 20.5 67t37.5 45l129 83h150l19 -19l-51 -291l-14 -29l168 106
q29 0 48.5 -9.5t31 -25t14.5 -34.5t0 -37l-56 -319l84 53l16 -24l-140 -101l-39 30l58 325q6 32 0.5 52t-33.5 20q-23 0 -51.5 -14t-49.5 -29l-49 -34l-60 -335h-70z" />
    <glyph glyph-name="fj" unicode="fj" horiz-adv-x="503" 
d="M376 -46q-6 -33 -16.5 -64t-30.5 -43l-126 -82h-46l12 73h94q15 17 25 38.5t12 37.5l90 502l-52 -4h-137l-78 -456q-7 -35 -17.5 -65.5t-30.5 -43.5l-129 -82h-69l16 72h110q17 18 28 41t14 40l87 494h-98l5 17l34 30h67l10 61q7 39 20.5 67t37.5 45l129 83h183l-15 -74
h-232q-19 -18 -31.5 -44.5t-15.5 -47.5l-16 -92h179l54 25l23 -26z" />
    <glyph glyph-name="fk" unicode="fk" horiz-adv-x="729" 
d="M430 661l-78 -20h-79q-19 -18 -31 -44.5t-16 -47.5l-16 -92h114l-11 -45h-112l-78 -456q-7 -35 -17.5 -65.5t-30.5 -43.5l-129 -82h-69l16 72h110q17 18 28 41t14 40l87 494h-98l5 17l34 30h67l10 61q7 39 20.5 67t37.5 45l129 83h150l19 -19l-73 -416l19 5l185 187h87
l-18 -82h-52q-25 -7 -46.5 -19t-47.5 -34l-80 -66l14 -6l113 -211l94 59l16 -25l-141 -103l-29 22l-119 248l-43 -255h-71z" />
    <glyph glyph-name="ft" unicode="ft" horiz-adv-x="574" 
d="M393 457l15 79l60 55h20l-25 -135h131l-10 -43h-128l-61 -356l130 55l17 -27l-186 -100l-39 25l69 402h-185l-78 -456q-7 -35 -17.5 -65.5t-30.5 -43.5l-129 -82h-69l16 72h110q17 18 28 41t14 40l87 494h-98l5 17l34 30h67l10 61q7 39 20.5 67t37.5 45l129 83h147
l-77 -74h-134q-19 -18 -31.5 -44.5t-15.5 -47.5l-16 -92h183z" />
    <glyph glyph-name="fu" unicode="fu" horiz-adv-x="743" 
d="M201 412l-78 -456q-7 -35 -17.5 -65.5t-30.5 -43.5l-129 -82h-69l16 72h110q17 18 28 41t14 40l87 494h-98l5 17l34 30h67l10 61q7 39 20.5 67t37.5 45l129 83h74l-16 -74h-122q-19 -18 -31.5 -44.5t-15.5 -47.5l-16 -92h159l54 25l24 -26l-57 -334q-7 -38 3.5 -53
t27.5 -15q12 0 26.5 5.5t29 14t27.5 17.5t23 15l46 31l56 330h70l-71 -408l83 51l16 -24l-139 -101l-30 27l7 57l13 27l-172 -111q-29 0 -48 11t-29.5 27.5t-13.5 35.5t0 34l57 323l-53 -4h-118z" />
    <glyph glyph-name="fy" unicode="fy" horiz-adv-x="676" 
d="M355 482l48 -28l42 -420l173 320l-60 80l78 48l35 -53l-20 -109l-328 -555h-122l14 80h68l143 157l-41 -2l-63 415l-49 -3h-72l-78 -456q-7 -35 -17.5 -65.5t-30.5 -43.5l-129 -82h-69l16 72h110q17 18 28 41t14 40l87 494h-98l5 17l34 30h67l10 61q7 39 20.5 67t37.5 45
l129 83h74l-16 -74h-122q-19 -18 -31.5 -44.5t-15.5 -47.5l-16 -92h91z" />
    <glyph glyph-name="ky" unicode="ky" horiz-adv-x="866" 
d="M391 -235l14 80h68l143 157l-41 -2l-67 445h-38l-20 -55h-63q-26 -7 -47 -19t-47 -34l-80 -66l14 -6l113 -211l93 59l16 -25l-140 -103l-29 22l-119 248l-44 -255h-70l116 663l-101 -28l-11 28l170 53l18 -19l-73 -417l18 5l185 187h195l28 -9l43 -429l173 320l-60 80
l78 48l35 -53l-20 -109l-328 -555h-122z" />
    <glyph glyph-name="tt" unicode="tt" horiz-adv-x="604" 
d="M423 457l15 79l60 55h20l-24 -135h130l-9 -43h-129l-60 -356l130 55l16 -27l-186 -100l-38 25l68 403h-210l-61 -356l104 50l16 -27l-159 -95l-39 25l69 403h-93l5 15l34 33h62l14 75l60 55h20l-25 -134h210z" />
    <glyph glyph-name="ty" unicode="ty" horiz-adv-x="726" 
d="M270 73l-164 -88l-39 25l69 403h-93l5 15l34 33h62l14 75l60 55h20l-25 -135h138l54 26l49 -28l42 -420l173 320l-61 80l78 48l35 -53l-20 -109l-328 -555h-121l14 80h67l143 157l-41 -2l-63 415l-65 -2h-101l-61 -356l110 46z" />
    <glyph glyph-name="www" unicode="www" horiz-adv-x="1557" 
d="M1075 469v-391l-8 -41l161 247l-4 157l76 28v-389l-8 -42l208 316l-61 80l78 48l35 -53l-20 -109l-227 -329l-69 19l-5 169l6 57l-157 -245l-68 19l-7 198l-148 -217l-69 19l-5 169l6 57l-157 -245l-69 19l-6 195l-147 -214l-69 19l-5 169l6 57l-157 -245l-69 19l-11 376
l14 33l-108 -39l-10 27l160 75l19 -22v-382l-8 -41l160 247l-3 157l75 28v-389l-7 -42l158 242l-4 161l76 28v-391l-8 -41l161 247l-4 157l76 28v-389l-8 -42l159 243l-3 160z" />
    <glyph glyph-name=".notdef" horiz-adv-x="648" 
d="M613 460l-3 -41l-8 -35l-12 -31l-3 -156l-21 -7l-50 70l-27 -7l-19 -140l-32 4l-7 -4l-4 -94l30 -19l16 -14l-3 -15l-30 1l-24 18h-14l-8 8l7 76l-4 47l-61 1l-3 -52l-2 -56v-20l-15 -6l-8 6l-30 -10h-32l-1 11l11 11l50 21l-6 96l-98 -6l-147 140l-4 115l-13 10l-10 36
v26l15 8l-3 78l92 -62l9 47l10 36l22 35l28 35l39 29l40 15l38 14h22l-68 22l4 17h7l79 -20l-4 51l16 12h32l19 -5l29 -25l32 -8l32 -10l15 -13v-20l-20 -31l30 -28l28 -32l18 -34l15 -41zM503 399l-4 7h-205l-66 -3l-7 -9l-6 -44l-48 20l-11 -4l57 -27l1 -45l-5 -73v-91
l18 4l2 40l41 -3l3 9l-44 6v16l48 -6l1 9l-47 7l1 22l43 -3l3 6l-45 9l3 94h74l11 10h-79l2 9h74l8 7h-82l2 22l117 4l140 -4v11zM184 569l29 12l13 -15l-17 -20l-10 -3l17 -3h5l36 24h32l18 -12l8 3l4 14l7 5l10 -4v-18h8l10 22l11 8l-5 6l-3 8l1 21l-30 -10l-10 -8l-8 5
l4 21l14 10l11 11l38 -2l12 13l-4 8h-49l-45 -13l-53 -26l-29 -23zM594 465l-8 37l-19 50l-20 36l-23 28l-34 21h-11l17 -19l25 -10l11 -11l3 -33l-25 13l-15 -29l12 -8v-19l15 3l-12 26l15 -5l10 -20l-5 -12l-8 -7h-23l-3 11l-12 2l1 -22h-14l14 -18l-7 -10l-21 5l-3 -27
l41 6l8 17l22 -2l6 -28l-16 -13v-15l8 -6l18 12h23l6 11l-18 6l-5 9l9 42h7l14 -20zM80 434l57 -32l7 10l-68 38v18l59 -34l43 -28l28 -14l3 10l-103 64l-13 7l-41 33l2 -78l19 -17v-5h-21l19 -14l1 -11l-20 7l18 -18l-4 -7l3 -97l11 -12v180zM489 331l-54 1l-1 -24v-6
l-2 -31l19 -3l-8 -61l-48 3l-8 -6l51 -5l-2 -9h-49l-4 -5l53 -7l-6 -35l27 -1l12 79l4 36l-15 3l-1 8l20 1l5 3l-28 16l2 5l30 -6l-30 15l5 5l21 -5l4 10zM184 331l-66 39v-7l-2 -13l1 -27v-48l64 -44l-1 60zM358 214l-64 4v-51l64 -6v53zM510 306l8 -6l8 2l20 15l13 13
l11 18l-7 5h-14l-10 3l-14 7l-17 -3q-2 -13 -3 -24q-2 -9 -2.5 -17t-0.5 -7zM406 585l5 -6l19 11l8 -2l6 -24h13l6 6l-9 18l17 28l-15 9v5l-25 7v-20l-13 -5v-9l-9 -6zM411 336l4 30l-54 5l-3 -35h53zM344 455l-7 -11h-12l-5 7l11 8l-15 2v6l-23 4l3 -17l8 -14l20 -9l13 -1
l18 10l6 9l5 20l-30 2l7 -5zM567 312l-6 -3l-33 -27l39 -48v78zM222 454l1 4l14 2l-13 6l2 7l-20 -1l3 -19l14 -15l12 -6l11 5l16 12l6 12l2 13l-22 -4l6 -10l-12 -13l-14 -1zM372 281l-72 7l-6 -13l78 -4v10zM184 203l-74 50l20 -23l50 -41zM372 312h-73v-10h73v10z
M362 256l-68 4v-10h68v6zM493 359h-48v-13l44 4zM329 520l-4 -12l49 -17l3 4zM192 498l59 12l-4 12zM392 642l-8 -9v-19l12 -6l3 17zM469 530l-8 -4v-9l8 -3l2 7zM542 386l5 7v7l-10 -4v-10h5z" />
    <glyph glyph-name=".null" horiz-adv-x="0" 
 />
    <glyph glyph-name=".null" horiz-adv-x="0" 
 />
    <glyph glyph-name="nonmarkingreturn" unicode="&#xd;" horiz-adv-x="360" 
 />
    <glyph glyph-name="space" unicode=" " horiz-adv-x="240" 
 />
    <glyph glyph-name="exclam" unicode="!" horiz-adv-x="289" 
d="M208 447l-56 -212h-26l17 211l43 264h75zM141 102l27 -4l-5 -53l-13 -45l-71 -5l-27 5l5 53l13 45z" />
    <glyph glyph-name="quotedbl" unicode="&#x22;" horiz-adv-x="376" 
d="M276 661l18 45l56 4l36 -4l-5 -53l-12 -45l-87 -140l-31 13q8 13 17 30.5t17 34.5t14.5 32.5t8.5 25.5l-37 4zM126 661l18 45l56 4l36 -4l-5 -53l-12 -45l-87 -140l-31 13q8 13 17 30.5t17.5 34.5t14.5 32.5t8 25.5l-37 4z" />
    <glyph glyph-name="numbersign" unicode="#" horiz-adv-x="621" 
d="M225 241h149l51 173h-149zM546 655l-58 -195h136l-14 -46h-136l-51 -173h134l-14 -46h-135l-57 -195h-49l57 195h-149l-57 -195h-49l57 195h-133l14 46h134l51 173h-132l14 46h132l58 195h49l-58 -195h149l58 195h49z" />
    <glyph glyph-name="dollar" unicode="$" horiz-adv-x="538" 
d="M513 528h-51l-4 94q-12 11 -34.5 24t-49.5 21l-46 -263l58 -43q16 -12 32.5 -27.5t30 -36.5t21.5 -47.5t8 -60.5q0 -62 -35.5 -106t-98.5 -66l-90 -30l-11 -67h-39l11 63q-61 4 -107 22t-76 41l23 135h61v-83q14 -17 43.5 -37t63.5 -31l52 295l-73 56q-35 26 -56.5 59.5
t-21.5 85.5q0 54 36.5 94.5t106.5 65.5l76 26l12 69h39l-11 -64q55 -3 93 -18t60 -32zM386 162q0 26 -5.5 46t-15.5 35.5t-24.5 28.5t-31.5 26l-48 -275h7q63 15 90.5 52t27.5 87zM216 557q0 -47 23.5 -76.5t53.5 -51.5l43 245h-7q-59 -19 -86 -47.5t-27 -69.5z" />
    <glyph glyph-name="percent" unicode="%" horiz-adv-x="823" 
d="M103 -5h-65l681 710h65zM244 350q-25 0 -48 8.5t-40.5 24t-28.5 37.5t-12 49q-2 40 4 75t24.5 64t52 52t87.5 39q30 0 52.5 -10t38 -27t24 -38.5t10.5 -43.5q1 -39 -4.5 -75t-23.5 -66.5t-50.5 -53.5t-85.5 -35zM278 658q-30 0 -50.5 -19.5t-32 -48t-16 -61.5t-3.5 -61
q3 -35 22 -56t57 -21q27 0 45 19.5t29 48t15.5 61.5t3.5 61q-3 36 -21.5 56.5t-48.5 20.5zM541 0q-25 0 -48 8.5t-40 24t-28 37.5t-12 49q-2 40 3.5 75t24 64t52 52t87.5 39q30 0 52.5 -10t38 -27t24 -38.5t10.5 -43.5q1 -39 -4.5 -75t-23.5 -66.5t-50.5 -53.5t-85.5 -35z
M575 308q-30 0 -50.5 -19.5t-32 -48t-16 -61.5t-3.5 -61q3 -35 22 -56t57 -21q27 0 45 19.5t29.5 48t16 61.5t3.5 61q-4 36 -22.5 56.5t-48.5 20.5z" />
    <glyph glyph-name="ampersand" unicode="&#x26;" horiz-adv-x="569" 
d="M464 584q-9 9 -25 21t-34.5 23.5t-36.5 20.5t-31 12q-24 -10 -46 -22t-38 -27.5t-25.5 -34.5t-9.5 -43q0 -26 10 -48t24.5 -38.5t31 -26t30.5 -9.5l-6 -36q-36 0 -70.5 -15.5t-61.5 -41.5t-43.5 -60.5t-16.5 -73.5q0 -30 10 -57.5t29.5 -48.5t49 -33t69.5 -12
q60 23 92.5 61.5t43.5 104.5l13 72h-53l-13 -22h-26l16 88h202l15 22h22l-16 -88h-70l-15 -82q-6 -32 -15.5 -57t-27.5 -46.5t-47.5 -40t-75.5 -36.5q-23 -9 -40 -14.5t-48 -13.5q-51 0 -89.5 14t-64 38.5t-38 58t-12.5 73.5q0 72 42.5 124.5t124.5 84.5l45 18
q-16 3 -33.5 13.5t-32 27.5t-24 40t-9.5 50q0 33 15 60t41.5 48.5t62.5 38t78 29.5l57 18q14 -2 33 -10t37.5 -18t34 -19.5t21.5 -14.5z" />
    <glyph glyph-name="quotesingle" unicode="'" horiz-adv-x="226" 
d="M126 661l18 45l56 4l36 -4l-5 -53l-12 -45l-87 -140l-31 13q8 13 17 30.5t17.5 34.5t14.5 32.5t8 25.5l-37 4z" />
    <glyph glyph-name="parenleft" unicode="(" horiz-adv-x="343" 
d="M368 710q-123 -137 -181 -291.5t-58 -328.5q0 -83 17 -159t57 -142l-24 -27q-30 51 -52 93t-37 81t-22.5 78.5t-7.5 84.5q0 68 6.5 123.5t20 104.5t36 94.5t54.5 92.5t74.5 98.5t96.5 113.5z" />
    <glyph glyph-name="parenright" unicode=")" horiz-adv-x="300" 
d="M-44 -222q123 137 181 291.5t58 328.5q0 83 -17 159t-57 142l24 27q30 -51 52 -93.5t37 -81.5t22.5 -78t7.5 -84q0 -68 -6.5 -123.5t-20 -105t-36 -94.5t-54.5 -92t-74.5 -99t-96.5 -113l-20 16v0z" />
    <glyph glyph-name="asterisk" unicode="*" horiz-adv-x="368" 
d="M164 415l-55 37l83 97l-127 28l14 60l119 -49l-14 127h63l-5 -127l113 49l23 -60l-123 -28l85 -97l-49 -37l-68 105z" />
    <glyph glyph-name="plus" unicode="+" 
d="M279 0v222h-227v61h227v232h61v-232h227v-61h-227v-222h-61z" />
    <glyph glyph-name="comma" unicode="," horiz-adv-x="225" 
d="M55 53l18 45l56 4l36 -4l-5 -53l-12 -45l-87 -141l-31 14q8 13 17 30.5t17.5 34.5t14.5 32.5t8 25.5l-37 4z" />
    <glyph glyph-name="hyphen" unicode="-" horiz-adv-x="389" 
d="M61 303h305l-11 -61h-305z" />
    <glyph glyph-name="period" unicode="." horiz-adv-x="241" 
d="M139 102l27 -4l-5 -53l-13 -45l-71 -5l-27 5l5 53l13 45z" />
    <glyph glyph-name="slash" unicode="/" horiz-adv-x="504" 
d="M-65 -230h-54l616 948h54z" />
    <glyph glyph-name="zero" unicode="0" horiz-adv-x="537" 
d="M313 482q44 0 80 -15.5t61.5 -43t39 -65t13.5 -80.5q0 -42 -10.5 -81t-34 -73t-61.5 -62.5t-93 -50.5l-69 -26q-44 0 -80 15.5t-61.5 42.5t-39 64t-13.5 81q0 43 10.5 82t34 73t61.5 62.5t93 50.5zM268 30q72 26 113.5 86.5t41.5 146.5q0 35 -12 64.5t-32 52.5t-45 37.5
t-50 19.5q-72 -26 -113.5 -86.5t-41.5 -147.5q0 -35 10.5 -64t29.5 -51.5t44 -37t55 -20.5z" />
    <glyph glyph-name="one" unicode="1" horiz-adv-x="473" 
d="M259 45l174 -15l-10 -31l-209 3l-209 -3v31l177 15l60 330l10 23l-40 -14l-145 -39l-7 28l244 105h33z" />
    <glyph glyph-name="two" unicode="2" horiz-adv-x="487" 
d="M162 335h-72l9 88l199 59q73 0 107.5 -31t34.5 -77q0 -45 -29 -84.5t-73 -73t-95 -61.5t-94 -51l-83 -46l174 24h229v-26l-26 -56h-420l-28 44l118 77q54 36 97.5 66t74 58.5t47 55.5t16.5 57q0 79 -78 79l-77 -22z" />
    <glyph glyph-name="three" unicode="3" horiz-adv-x="442" 
d="M-45 -235l13 76h213q110 59 110 149q0 135 -185 135l-5 26l51 20q37 15 66.5 30.5t50.5 35t32 43.5t11 56q0 39 -24.5 67.5t-69.5 33.5l-58 -22l-36 -91h-69l11 99l181 59q39 0 67.5 -11t46.5 -30t26.5 -44.5t8.5 -54.5q0 -58 -43.5 -100.5t-120.5 -71.5
q72 -5 109.5 -49.5t37.5 -108.5q0 -48 -22 -82.5t-56.5 -60t-77 -44.5t-84.5 -35l-66 -25h-118z" />
    <glyph glyph-name="four" unicode="4" horiz-adv-x="567" 
d="M398 57h149l-11 -55h-149l-41 -232h-79l41 232h-276l-27 31l402 434h82l-5 -30l-405 -393l47 13h193l16 97l70 52h19z" />
    <glyph glyph-name="five" unicode="5" horiz-adv-x="464" 
d="M-20 -235l13 76h215q54 35 86.5 81t32.5 95q0 60 -34 101t-104 41q-27 0 -47.5 -5.5t-49.5 -19.5l-36 -29l-20 26l102 336h333l-4 -27l-31 -54h-278l-68 -215l118 63q66 0 106 -19t61.5 -46t28 -57.5t6.5 -54.5q0 -54 -21 -96t-55 -74.5t-78 -56.5t-90 -41l-65 -24h-121z
" />
    <glyph glyph-name="six" unicode="6" horiz-adv-x="541" 
d="M161 312q-8 -14 -14.5 -35.5t-6.5 -62.5q0 -36 8 -68t24.5 -56t42 -39t59.5 -18q32 9 56 29.5t40.5 48t25 61.5t8.5 71q0 38 -8.5 64t-21.5 42t-29.5 23t-31.5 7q-25 0 -53 -11.5t-64 -34.5zM537 674q-68 -11 -129.5 -45t-110 -79.5t-82 -95t-44.5 -90.5l158 91
q31 0 61 -15.5t53 -41t37 -60t14 -71.5q0 -39 -10 -77t-31.5 -71.5t-55 -61t-81.5 -45.5l-74 -26q-43 0 -78 14.5t-60.5 42t-39.5 68.5t-14 95q0 93 35.5 175.5t98.5 149.5t150 114t189 69z" />
    <glyph glyph-name="seven" unicode="7" horiz-adv-x="481" 
d="M424 406l-26 -17h-352l14 78h428l11 -17l-406 -680h-90l6 24z" />
    <glyph glyph-name="eight" unicode="8" horiz-adv-x="521" 
d="M319 400q58 38 83.5 77t25.5 93q0 41 -27 67.5t-89 28.5q-29 -12 -47 -24.5t-28.5 -27.5t-14.5 -32.5t-4 -38.5q0 -32 25.5 -70t75.5 -73zM124 163q0 -33 11.5 -58t31 -42t44.5 -25t52 -7q62 30 94 66.5t32 92.5q0 30 -12.5 54.5t-31.5 44t-40 35.5t-37 29
q-30 -18 -56.5 -37.5t-46 -42t-30.5 -49.5t-11 -61zM230 -16q-34 0 -68 10.5t-61 31t-44 50t-17 67.5q0 45 17 81t45.5 63.5t65 47.5t75.5 33q-47 32 -78 67t-31 88q0 59 42.5 105t120.5 72l44 14q36 0 68 -8t55 -23.5t36.5 -38.5t13.5 -53q0 -41 -14.5 -73t-38 -57t-54 -44
t-62.5 -34q22 -15 45.5 -32t43 -38t32 -47.5t12.5 -61.5q0 -69 -53.5 -120.5t-159.5 -87.5z" />
    <glyph glyph-name="nine" unicode="9" horiz-adv-x="521" 
d="M375 156q8 13 14.5 35t6.5 63q0 36 -8 67.5t-24.5 55.5t-42 39.5t-59.5 18.5q-32 -9 -56 -29t-40.5 -47.5t-25 -61.5t-8.5 -71q0 -38 8.5 -64t21.5 -42.5t29.5 -24t31.5 -7.5q25 0 53 12t64 35zM-1 -207q68 10 129.5 44.5t110 80t82 95.5t44.5 91l-158 -91
q-32 0 -61.5 15.5t-52.5 41t-37 59.5t-14 72q0 39 10 77t31.5 71.5t55 61t81.5 45.5l74 26q43 0 78 -14.5t60.5 -42.5t39.5 -69t14 -94q0 -93 -35.5 -175.5t-98.5 -149.5t-150 -114t-189 -69z" />
    <glyph glyph-name="colon" unicode=":" horiz-adv-x="253" 
d="M195 486l28 -4l-6 -53l-12 -45l-71 -5l-27 5l5 53l13 45zM139 102l27 -4l-5 -53l-13 -45l-71 -5l-27 5l5 53l13 45z" />
    <glyph glyph-name="semicolon" unicode=";" horiz-adv-x="253" 
d="M196 486l27 -4l-5 -53l-13 -45l-71 -5l-27 5l5 53l13 45zM55 53l18 45l56 4l36 -4l-5 -53l-12 -45l-87 -141l-31 14q8 13 17 30.5t17.5 34.5t14.5 32.5t8 25.5l-37 4z" />
    <glyph glyph-name="less" unicode="&#x3c;" 
d="M570 548v-76l-430 -185l430 -185v-77l-520 231v60z" />
    <glyph glyph-name="equal" unicode="=" 
d="M567 312h-515v61h515v-61zM567 117h-515v61h515v-61z" />
    <glyph glyph-name="greater" unicode="&#x3e;" 
d="M570 316v-60l-520 -231v77l430 185l-430 185v76z" />
    <glyph glyph-name="question" unicode="?" horiz-adv-x="379" 
d="M155 102l27 -4l-5 -53l-13 -45l-71 -5l-27 5l5 53l13 45zM184 578h-61v68l152 64q27 0 51 -11.5t42.5 -32t29.5 -48.5t11 -61q0 -70 -33 -114.5t-92 -73.5l-71 -33l-36 -116h-50l20 113l95 56q47 28 65.5 66t18.5 73q0 19 -2.5 40.5t-11 41t-23 34t-38.5 20.5l-50 -17z
" />
    <glyph glyph-name="at" unicode="@" horiz-adv-x="925" 
d="M601 124q33 -1 71.5 17.5t71.5 54t54.5 86t21.5 113.5q0 54 -20.5 100.5t-58 80.5t-91 53.5t-120.5 19.5q-66 0 -132.5 -28.5t-119.5 -80.5t-86 -124.5t-33 -160.5q0 -79 27.5 -137.5t74.5 -97.5t109 -58t131 -19q63 0 114 17t83 32l15 -28q-28 -14 -59.5 -27
t-63.5 -23.5t-61.5 -17.5t-53.5 -10q-90 0 -163.5 26.5t-126 74t-81.5 112.5t-29 142q0 75 25 142t70 122.5t108.5 97.5t140.5 66l93 29q93 0 164.5 -22.5t120 -61.5t73.5 -92.5t25 -116.5q0 -66 -25 -123t-66.5 -100t-95.5 -67.5t-112 -24.5l-59 62l47 124l-7.5 -9.5
t-25.5 -31.5t-48.5 -58.5t-75.5 -88.5q-28 0 -53.5 10t-44.5 28.5t-30 45t-11 58.5q0 85 47.5 153t128.5 104l109 49l111 -65zM606 430l-83 53q-47 -19 -76.5 -47t-46 -59t-22.5 -61.5t-6 -55.5q0 -41 22 -64t59 -23l117 125z" />
    <glyph glyph-name="A" unicode="A" horiz-adv-x="655" 
d="M506 2l-131 -3l-1 31l91 13l-21 193h-220l-100 -193l88 -13l-9 -31l-111 3l-111 -3l-1 31l86 11l366 660l46 17l74 -677l79 -11l-8 -31zM248 281h191l-26 237l-2 73z" />
    <glyph glyph-name="B" unicode="B" horiz-adv-x="574" 
d="M363 51q51 32 76 69t25 87q0 28 -8 53.5t-26.5 44.5t-48.5 30t-74 11h-90l-47 -295h193zM375 379q41 -2 75 -15.5t58 -35.5t37.5 -51t13.5 -62q0 -42 -13 -71t-35.5 -51t-54.5 -38t-69 -31l-62 -25l-193 3l-142 -3l-1 31l96 13l98 620l-93 8l9 30l143 -3l152 3
q45 1 77.5 -11.5t52.5 -32t29.5 -44t9.5 -48.5q0 -22 -8.5 -45t-25.5 -45t-43.5 -41.5t-63.5 -34.5zM287 389q42 0 75.5 15.5t57 40t35.5 54.5t12 58q0 17 -6 35.5t-19 33.5t-33 25t-48 10h-94l-44 -272h64z" />
    <glyph glyph-name="C" unicode="C" horiz-adv-x="605" 
d="M328 -18q-64 0 -115 21.5t-87 62t-55.5 97.5t-19.5 129q0 57 13 117t44.5 115t85.5 100t136 72l76 24q37 0 70 -7.5t60 -19t48 -25t35 -26.5l-6 -136h-49l-20 97q-21 22 -65 39t-119 29q-107 -45 -161.5 -138t-54.5 -224q0 -69 18 -120.5t48.5 -86t71.5 -53t87 -20.5
q37 14 61 27t48 33l58 120h51l-36 -162z" />
    <glyph glyph-name="D" unicode="D" horiz-adv-x="664" 
d="M265 662l-96 -606h186q41 21 78.5 53t66.5 74.5t46.5 94.5t17.5 111q0 69 -16.5 119t-45.5 83t-67.5 50.5t-82.5 20.5h-87zM118 2l-127 -3l-2 31l94 13l98 620l-95 8l9 30l126 -3l173 3q61 1 110 -19.5t83 -59.5t52 -94.5t18 -124.5q0 -54 -15.5 -110.5t-49.5 -107.5
t-87 -93t-129 -67l-81 -26z" />
    <glyph glyph-name="E" unicode="E" horiz-adv-x="582" 
d="M597 701v-165h-28l-42 119l-261 3l-42 -273l148 4l61 105h25l-35 -128l-9 -126h-25l-23 104l-149 4l-49 -306l280 3l76 135h33l-40 -181l-389 3l-138 -3l-1 31l95 13l98 615l-91 13l9 30l139 -3z" />
    <glyph glyph-name="F" unicode="F" horiz-adv-x="545" 
d="M292 30l-9 -31l-160 3l-133 -3l-1 31l95 13l98 615l-91 13l9 30l139 -3l358 3v-163h-28l-42 117l-261 3l-44 -286l148 4l61 104h25l-35 -128l-9 -126h-25l-23 105l-149 4l-47 -293z" />
    <glyph glyph-name="G" unicode="G" horiz-adv-x="652" 
d="M491 284l-85 13l9 26l117 1l115 3v-30l-72 -13l-36 -233l-231 -69q-64 0 -116 19.5t-88.5 57.5t-56.5 93.5t-20 127.5q0 58 16 120.5t52.5 120t95.5 104t144 72.5l73 21q33 0 63.5 -7t56 -18.5t45.5 -25.5t33 -27l-2 -128h-50l-23 93q-9 11 -26 22.5t-39 21.5t-47.5 16
t-51.5 6q-55 -23 -100.5 -55t-78 -76.5t-50.5 -103t-18 -134.5q0 -68 17.5 -118.5t48 -84.5t71 -51t86.5 -19q35 12 66 28t51 31z" />
    <glyph glyph-name="H" unicode="H" horiz-adv-x="682" 
d="M89 670l9 31l131 -3l126 3l1 -31l-92 -13l-44 -270h297l42 270l-91 13l9 31l134 -3l120 3l1 -31l-90 -13l-98 -614l86 -13l-9 -31l-121 3l-134 -3l-1 31l96 13l48 296h-296l-47 -296l88 -13l-9 -31l-127 3l-128 -3l-1 31l94 13l98 614z" />
    <glyph glyph-name="I" unicode="I" horiz-adv-x="304" 
d="M166 43l86 -13l-9 -31l-128 3l-126 -3l-1 31l94 13l98 614l-92 13l9 31l127 -3l129 3l1 -31l-90 -13z" />
    <glyph glyph-name="J" unicode="J" horiz-adv-x="295" 
d="M-79 -175l16 74h99q14 19 23 36.5t15 39t10.5 48.5t9.5 64l90 570l-88 13l9 31l125 -3l127 3l1 -31l-90 -13l-89 -570q-5 -32 -9.5 -56.5t-11 -43.5t-15.5 -33t-22 -26l-124 -103h-76z" />
    <glyph glyph-name="K" unicode="K" horiz-adv-x="659" 
d="M224 390l23 16l280 251l-61 13l4 31l114 -3l90 3v-31l-86 -13l-295 -266l20 -15l259 -330l51 -16l-9 -31l-73 3l-56 -3l-251 347l-13 28l-52 -331l76 -13l-10 -31l-117 3l-128 -3v31l95 13l96 614l-91 13l9 31l126 -3l119 3l1 -31l-79 -13z" />
    <glyph glyph-name="L" unicode="L" horiz-adv-x="546" 
d="M231 698l129 3l1 -31l-96 -13l-98 -615l236 3l97 134h33l-61 -180l-346 3l-136 -3l-1 31l93 13l99 614l-92 13l9 31z" />
    <glyph glyph-name="M" unicode="M" horiz-adv-x="854" 
d="M133 43l87 -13l-10 -31l-106 3l-114 -3l-1 31l83 13l96 606l-96 21l9 31l131 -3l77 3l120 -559l-1 -53l310 612l73 -3l112 3l1 -31l-90 -13l-98 -614l80 -13l-9 -31l-107 3l-138 -3l-1 31l96 13l80 504l33 113l-341 -660h-49l-123 582l-8 80z" />
    <glyph glyph-name="N" unicode="N" horiz-adv-x="708" 
d="M139 43l83 -13l-9 -31l-105 3l-118 -3l-1 31l94 13l96 605l-87 22l10 31l95 -3l56 3l259 -511l18 -66l80 533l-87 13l10 31l110 -3l119 3v-31l-96 -13l-103 -657h-46l-275 551l-10 74z" />
    <glyph glyph-name="O" unicode="O" horiz-adv-x="686" 
d="M144 289q0 -68 17 -115.5t45.5 -78.5t66.5 -46.5t80 -18.5q51 19 92.5 55.5t71.5 87t46.5 111t16.5 127.5q0 68 -17 115.5t-45.5 78.5t-66.5 46.5t-80 18.5q-50 -19 -92 -55.5t-72 -87t-46.5 -111t-16.5 -127.5zM415 718q60 0 108 -20t81 -58t51 -92t18 -122
q0 -60 -15.5 -124t-50 -122t-88.5 -104t-132 -70l-77 -24q-60 0 -108 20t-81.5 58t-51.5 92t-18 122q0 60 15.5 124t50 122t88.5 104t132 70z" />
    <glyph glyph-name="P" unicode="P" horiz-adv-x="548" 
d="M380 701q96 1 148.5 -42t52.5 -113q0 -38 -11.5 -70t-37.5 -60t-68 -52.5t-104 -45.5l-47 -16h-105l-41 -259l121 -13l-9 -31l-163 3l-126 -3l-1 31l94 13l99 620l-93 8l9 30l130 -3zM266 660l-49 -303h157q23 10 43.5 27t36 39t24.5 48.5t9 55.5q0 58 -31 94t-100 39
h-90z" />
    <glyph glyph-name="Q" unicode="Q" horiz-adv-x="686" 
d="M415 718q60 0 108 -20t81 -58t51 -92t18 -122q0 -60 -15.5 -124t-50 -122t-88.5 -104t-132 -70l-49 -15l82 -32l96 -78l58 -23l1 -25h-129l-174 151q-104 12 -162.5 87.5t-58.5 202.5q0 60 15.5 124t50 122t88.5 104t132 70zM144 289q0 -68 17 -115.5t45.5 -78.5
t66.5 -46.5t80 -18.5q51 19 92.5 55.5t71.5 87t46.5 111t16.5 127.5q0 68 -17 115.5t-45.5 78.5t-66.5 46.5t-80 18.5q-50 -19 -92 -55.5t-72 -87t-46.5 -111t-16.5 -127.5z" />
    <glyph glyph-name="R" unicode="R" horiz-adv-x="624" 
d="M212 323l-45 -280l104 -13l-9 -31l-146 3l-126 -3l-1 31l94 13l99 620l-93 8l9 30l130 -3l152 3q48 1 85.5 -11t63 -33t39 -49t13.5 -61q0 -71 -44 -116.5t-138 -82.5l-43 -16l55 -43l125 -248l53 -13l-5 -29l-76 3l-53 -3l-143 313l-12 11h-88zM266 660l-46 -281h150
q22 8 43.5 22t37.5 33.5t26 44t10 53.5q0 55 -30.5 89.5t-100.5 38.5h-90z" />
    <glyph glyph-name="S" unicode="S" horiz-adv-x="502" 
d="M496 528h-51l-4 94q-8 7 -22 16.5t-31.5 17t-37 13t-38.5 5.5q-59 -19 -86 -47.5t-27 -69.5q0 -24 7 -43.5t18.5 -35t26 -28t30.5 -24.5l88 -65q16 -12 32.5 -27.5t30 -36.5t21.5 -47.5t8 -60.5q0 -62 -35.5 -106t-98.5 -66l-103 -35q-71 0 -123 19t-86 45l23 135h61v-83
q9 -11 25.5 -24.5t37.5 -24.5t44 -18.5t45 -7.5q63 15 90.5 52t27.5 87q0 27 -6 47.5t-16.5 36.5t-25.5 29t-33 27l-103 79q-35 26 -56.5 59.5t-21.5 85.5q0 54 36.5 94.5t106.5 65.5l91 32q66 0 110 -15.5t68 -35.5z" />
    <glyph glyph-name="T" unicode="T" horiz-adv-x="587" 
d="M300 43l80 -13l-9 -31l-121 3l-121 -3v31l87 13l98 616l-147 -3l-67 -123h-36l28 168l271 -3l271 3l-26 -168h-36l-22 123l-152 3z" />
    <glyph glyph-name="U" unicode="U" horiz-adv-x="657" 
d="M560 231q-7 -43 -19 -79.5t-36 -66t-62.5 -51.5t-97.5 -36l-66 -16q-59 0 -98 18t-60.5 51.5t-26.5 81.5t4 107l66 417l-91 13l9 31l132 -3l131 3l1 -31l-92 -13l-73 -438q-6 -35 -0.5 -69.5t23.5 -62t49.5 -44.5t77.5 -17q32 11 57.5 26t44.5 39t32.5 58.5t21.5 85.5
l68 422l-87 13l9 31l111 -3l129 3l1 -31l-89 -13z" />
    <glyph glyph-name="V" unicode="V" horiz-adv-x="615" 
d="M280 -18l-128 677l-79 11l9 31l120 -3l125 3l1 -31l-91 -13l87 -502l-8 -54l243 556l-88 13l9 31l120 -3l74 3l1 -31l-50 -11l-311 -660z" />
    <glyph glyph-name="W" unicode="W" horiz-adv-x="882" 
d="M257 -18l-104 677l-79 11l9 31l120 -3l101 3l1 -31l-67 -13l70 -503l-9 -52l173 448l-15 109l-55 11l10 31l95 -3l123 3l1 -31l-89 -13l71 -503l-9 -52l222 555l-84 13l9 31l114 -3l76 3l1 -31l-50 -11l-286 -660l-45 -17l-75 454v54l-185 -491z" />
    <glyph glyph-name="X" unicode="X" horiz-adv-x="632" 
d="M478 2l-131 -3l-1 31l91 13l-112 236v35l-220 -271l84 -13l-10 -31l-116 3l-83 -3l-1 31l53 13l263 303l-166 313l-56 11l10 31l116 -3l121 3v-31l-91 -13l112 -221l1 -34l219 255l-87 13l9 31l119 -3l75 3l1 -31l-48 -11l-257 -295l167 -321l51 -13l-9 -31z" />
    <glyph glyph-name="Y" unicode="Y" horiz-adv-x="593" 
d="M364 287l-38 -244l116 -13l-10 -31l-156 3l-158 -3v31l124 13l38 245l-151 371l-56 11l9 31l106 -3l127 3l1 -31l-91 -13l116 -291v-31l203 322l-89 13l9 31l113 -3l74 3v-31l-48 -11z" />
    <glyph glyph-name="Z" unicode="Z" horiz-adv-x="502" 
d="M476 203h33l-67 -203h-460l1 37l434 588l62 40l-307 -11l-66 -127h-29l28 173h419l23 -39l-433 -584l-57 -36l318 5z" />
    <glyph glyph-name="bracketleft" unicode="[" horiz-adv-x="341" 
d="M222 -230l-129 3l-83 -3q14 83 30 171q6 37 13.5 79t15.5 86t15.5 88.5t15.5 86.5q4 23 9.5 54t12 66t13 71.5t12.5 71.5q14 82 29 171l82 -3l131 3l-5 -31l-151 -10q-15 -78 -29 -150q-6 -31 -12 -63.5t-12 -64t-11 -59.5t-9 -49q-5 -26 -11 -60t-12 -72.5t-13 -79
t-13 -78.5q-15 -90 -31 -187l147 -10z" />
    <glyph glyph-name="backslash" unicode="\" horiz-adv-x="417" 
d="M94 718h47l286 -948h-47z" />
    <glyph glyph-name="bracketright" unicode="]" horiz-adv-x="322" 
d="M93 -189q19 97 36 187q7 38 14.5 78.5t14.5 79t13.5 72.5t11.5 60q4 21 8.5 49t10 59.5t10.5 64t10 63.5q11 72 24 150l-147 10l5 31l129 -3l84 3q-16 -88 -31 -170q-6 -35 -13 -72t-13.5 -71.5t-12 -65.5t-9.5 -54q-15 -86 -30.5 -176t-28.5 -165q-15 -88 -29 -171
l-82 3l-130 -3l5 31z" />
    <glyph glyph-name="asciicircum" unicode="^" horiz-adv-x="381" 
d="M142 460h-72l114 245h45l132 -245h-72l-76 169z" />
    <glyph glyph-name="underscore" unicode="_" horiz-adv-x="558" 
d="M-32 -53h555l-8 -51h-555z" />
    <glyph glyph-name="grave" unicode="`" horiz-adv-x="500" 
d="M276 537l-77 172h90l12 -172h-25z" />
    <glyph glyph-name="a" unicode="a" horiz-adv-x="466" 
d="M362 59l84 52l16 -25l-140 -101l-38 31l10 60l15 41l-135 -132q-24 5 -47 16t-42 32.5t-30.5 55t-11.5 83.5q0 102 47.5 171.5t135.5 114.5l47 24q12 -1 30.5 -5t40 -10t44 -13t41.5 -14zM124 183q0 -27 6.5 -49.5t17 -39.5t23.5 -28t25 -15l111 98l44 247q-9 7 -24 13.5
t-32 11t-34 7t-29 2.5q-20 -14 -39 -36.5t-34.5 -53.5t-25 -70.5t-9.5 -86.5z" />
    <glyph glyph-name="b" unicode="b" horiz-adv-x="453" 
d="M305 482q25 -4 48 -16t40.5 -33.5t28 -53.5t10.5 -76q0 -48 -12 -94.5t-35.5 -86t-59 -70.5t-81.5 -49l-51 -18q-35 5 -71.5 15.5t-79.5 29.5l110 630l-100 -28l-11 30l169 53l18 -19l-52 -299l-16 -43zM163 317l-43 -238q29 -19 62.5 -31.5t56.5 -12.5q29 11 50.5 37
t35 59t20 70t6.5 71q0 36 -5.5 61.5t-14.5 42.5t-20 26t-21 11z" />
    <glyph glyph-name="c" unicode="c" horiz-adv-x="401" 
d="M228 54q12 5 28 13t32.5 17t31.5 17.5t24 14.5l18 -22q-11 -9 -25.5 -19.5t-31.5 -22.5t-35 -23.5t-34 -21.5l-34 -22q-32 -1 -61 11.5t-51 37t-35 61.5t-13 85q0 46 13.5 90t40 81.5t64.5 67t87 47.5l46 16q8 0 21 -3t27.5 -8t28.5 -11.5t23 -12.5l-41 -72
q-24 18 -54.5 34.5t-51.5 27.5q-59 -29 -91.5 -89.5t-32.5 -146.5q0 -39 9.5 -66t24.5 -44.5t34 -26t38 -10.5z" />
    <glyph glyph-name="d" unicode="d" horiz-adv-x="488" 
d="M287 16l12 60l16 41l-137 -132q-25 4 -49 14.5t-43.5 32.5t-31.5 56.5t-12 85.5q0 45 10 87.5t31.5 80t54.5 67.5t79 50l54 23q16 -1 41.5 -7t54.5 -16l36 201l-100 -28l-11 30l169 53l18 -20l-113 -636l83 51l16 -24l-139 -101zM122 184q0 -62 22 -94t48 -41l121 104
l42 241q-9 7 -26 13.5t-36 11t-37 7.5t-28 3q-25 -16 -45 -42.5t-33.5 -59t-20.5 -69.5t-7 -74z" />
    <glyph glyph-name="e" unicode="e" horiz-adv-x="414" 
d="M258 438q-29 -11 -50.5 -30.5t-37 -45t-25.5 -55t-16 -59.5l175 74q5 16 8 28t3 24q0 35 -16.5 48t-40.5 16zM228 53q26 11 56 28.5t56 35.5l18 -24q-8 -7 -21 -18t-29 -23t-33.5 -24.5t-34.5 -22.5l-30 -20q-39 -2 -70 11t-53 37.5t-33.5 58.5t-11.5 75q0 48 13.5 93.5
t39 85.5t63 71.5t85.5 49.5l38 15q24 -4 44.5 -10.5t35.5 -18t23.5 -29t8.5 -43.5q0 -31 -19 -86l-251 -81q-1 -8 -1 -16v-15q-1 -37 9 -62.5t26 -41.5t35 -22t36 -4z" />
    <glyph glyph-name="f" unicode="f" horiz-adv-x="303" 
d="M3 -163q17 18 28 41t14 40l87 494h-98l5 17l34 30h67l10 61q7 39 20.5 67t37.5 45l129 83h74l-16 -74h-122q-19 -18 -31.5 -44.5t-15.5 -47.5l-16 -92h114l-11 -45h-112l-78 -456q-7 -35 -17.5 -65.5t-30.5 -43.5l-129 -82h-69l16 72h110z" />
    <glyph glyph-name="g" unicode="g" horiz-adv-x="463" 
d="M21 -235l12 72h178q25 15 48.5 52t31.5 84l16 102l15 41l-135 -131q-25 4 -49 15t-43.5 32.5t-31.5 56t-12 85.5q0 45 9.5 87.5t30.5 79.5t53 66.5t77 49.5l60 25q12 0 31.5 -3.5t42 -9.5t45.5 -15t43 -20l-89 -492q-5 -28 -30 -54t-66 -59l-83 -64h-154zM132 184
q0 -31 6 -54t15.5 -39t22 -26.5t25.5 -15.5l120 100l45 243q-9 7 -24.5 14t-33.5 11.5t-37 7.5t-35 3q-24 -16 -43.5 -42t-33 -58.5t-20.5 -69.5t-7 -74z" />
    <glyph glyph-name="h" unicode="h" horiz-adv-x="492" 
d="M117 0h-70l117 660l-100 -28l-12 30l170 53l18 -19l-51 -291l-14 -29l168 106q29 0 48.5 -9.5t31 -25t14.5 -34.5t0 -37l-56 -319l84 53l16 -24l-140 -101l-39 30l58 325q6 32 0.5 52t-33.5 20q-23 0 -51.5 -14t-49.5 -29l-49 -34z" />
    <glyph glyph-name="i" unicode="i" horiz-adv-x="279" 
d="M188 687l25 4l51 -4v-43l-15 -39l-24 -4l-57 4l4 46zM47 382l-10 26l160 74l23 -26l-70 -399l84 53l16 -24l-139 -101l-39 30l72 401z" />
    <glyph glyph-name="j" unicode="j" horiz-adv-x="264" 
d="M-105 -235l12 73h118q15 17 24.5 38.5t12.5 37.5l89 502l-96 -34l-11 26l160 74l23 -26l-90 -502q-6 -33 -16 -64t-30 -43l-127 -82h-69zM195 687l25 4l50 -4v-43l-15 -39l-24 -4l-57 4l4 46z" />
    <glyph glyph-name="k" unicode="k" horiz-adv-x="462" 
d="M62 635l-11 28l170 53l18 -19l-73 -417l18 5l185 187h88l-18 -82h-52q-26 -7 -47 -19t-47 -34l-80 -66l14 -6l113 -211l93 59l16 -25l-140 -103l-29 22l-119 248l-44 -255h-70l116 663z" />
    <glyph glyph-name="l" unicode="l" horiz-adv-x="257" 
d="M72 632l-11 30l170 53l17 -19l-112 -638l84 52l16 -24l-140 -101l-38 30l114 646z" />
    <glyph glyph-name="m" unicode="m" horiz-adv-x="746" 
d="M356 482q28 0 47.5 -9t30.5 -23.5t14.5 -32.5t0.5 -37l149 102q30 0 49.5 -9.5t31 -25t14.5 -34.5t0 -37l-56 -317l82 51l16 -24l-139 -101l-38 30l58 326q6 32 -0.5 52t-26.5 20q-22 0 -50 -14t-49 -29l-46 -34l-61 -336h-70l61 340q6 32 -1 52t-27 20q-21 0 -49 -14.5
t-49 -28.5l-48 -34l-60 -335h-70l74 417l-97 -35l-10 26l160 74l24 -27l-10 -51l-13 -28z" />
    <glyph glyph-name="n" unicode="n" horiz-adv-x="515" 
d="M384 340q6 32 0.5 52t-33.5 20q-24 0 -52.5 -14t-50.5 -29l-48 -34l-60 -335h-70l74 417l-97 -35l-10 26l160 74l24 -27l-10 -51l-13 -28l169 106q30 0 49.5 -9.5t30.5 -25t14.5 -34.5t0.5 -37l-57 -318l83 52l16 -24l-139 -101l-39 30z" />
    <glyph glyph-name="o" unicode="o" horiz-adv-x="463" 
d="M290 482q30 0 57 -13t48 -38t33.5 -62t12.5 -85q0 -45 -12.5 -88.5t-37 -80.5t-59.5 -65.5t-80 -43.5l-59 -21q-30 0 -57 13t-48 38.5t-33.5 63t-12.5 85.5q0 45 12.5 88.5t37 80t59.5 65t80 43.5zM249 441q-38 -11 -62 -39.5t-38.5 -64.5t-20 -74.5t-5.5 -70.5
q0 -43 9.5 -73t24.5 -49.5t34.5 -29.5t40.5 -13q37 11 62 39.5t40 64.5t21 74.5t6 70.5q0 43 -10 73t-25.5 49.5t-35.5 29.5t-41 13z" />
    <glyph glyph-name="p" unicode="p" horiz-adv-x="484" 
d="M133 -50l-34 -180h-70l113 647l-97 -35l-10 26l160 74l24 -28l-9 -55l-17 -44l144 127q25 -3 48 -15t41 -33.5t28.5 -53.5t10.5 -76q0 -48 -12 -94.5t-35.5 -86.5t-59 -71t-82.5 -49l-52 -18l-42 10t-42 17zM196 318l-43 -239q26 -19 60.5 -31.5t58.5 -12.5
q29 12 50.5 37.5t35 58.5t20 70t6.5 71q0 36 -5.5 62t-14.5 43t-20 26t-21 11z" />
    <glyph glyph-name="q" unicode="q" horiz-adv-x="449" 
d="M180 -15q-28 4 -53 16t-44 33.5t-30 53t-11 75.5q0 48 12 94.5t35 87t58 71.5t81 48l54 18q16 -1 36 -4.5t41 -9t40.5 -13t34.5 -16.5l-119 -669h-70l52 299l15 40zM313 145l44 257q-13 9 -30.5 14.5t-35 8.5t-33 4.5t-24.5 1.5q-29 -12 -50.5 -37.5t-35 -58.5t-20 -69.5
t-6.5 -70.5q0 -36 6.5 -62.5t17 -43.5t23.5 -26.5t25 -10.5z" />
    <glyph glyph-name="r" unicode="r" horiz-adv-x="370" 
d="M204 377l-31 -104l130 199h75l-18 -78h-39q-20 -12 -47.5 -39t-48.5 -55l-39 -52l-46 -248h-70l75 417l-98 -35l-10 26l160 74l20 -22z" />
    <glyph glyph-name="s" unicode="s" horiz-adv-x="361" 
d="M122 -15q-10 4 -26.5 12t-34.5 17t-33.5 18t-22.5 15l47 61q9 -7 23.5 -16.5t31 -20t32.5 -19.5t26 -14q30 9 43.5 27t13.5 50q0 15 -5.5 34.5t-17.5 32.5l-82 79q-16 16 -28 38t-12 46q0 41 32 70.5t101 53.5l44 13q8 -2 23 -8.5t31 -14t29.5 -14.5t19.5 -11l-43 -61
q-8 6 -21.5 14t-28.5 16t-29.5 15.5t-23.5 12.5q-25 -9 -40 -25.5t-15 -41.5q0 -19 6.5 -37t23.5 -35l75 -71q20 -20 31.5 -41t11.5 -51q0 -41 -21 -70t-82 -49z" />
    <glyph glyph-name="t" unicode="t" horiz-adv-x="324" 
d="M145 57l130 55l17 -27l-186 -100l-39 25l69 403h-93l5 15l34 33h62l14 75l60 55h20l-25 -135h131l-10 -43h-128z" />
    <glyph glyph-name="u" unicode="u" horiz-adv-x="509" 
d="M41 382l-10 26l160 74l22 -25l-57 -335q-7 -38 3.5 -53t27.5 -15q12 0 26.5 5.5t29 14t27.5 17.5t23 15l46 31l56 330h70l-71 -408l83 51l16 -24l-139 -101l-30 27l7 57l13 27l-172 -111q-29 0 -48 11t-29.5 27.5t-13.5 35.5t0 34l57 323z" />
    <glyph glyph-name="v" unicode="v" horiz-adv-x="432" 
d="M314 434l78 48l35 -53l-21 -109l-224 -335l-66 19l-12 410l-93 -34l-10 27l158 75l20 -22l-1 -388l-6 -38l201 319z" />
    <glyph glyph-name="w" unicode="w" horiz-adv-x="662" 
d="M544 434l78 48l35 -53l-21 -109l-226 -335l-69 19l-5 175l6 57l-157 -251l-69 19l-12 410l-93 -34l-10 27l160 75l19 -22v-388l-8 -41l160 253l-3 157l75 28v-395l-7 -42l208 322z" />
    <glyph glyph-name="x" unicode="x" horiz-adv-x="474" 
d="M157 422l-89 -34l-10 26l145 68l24 -20l40 -140v-50l123 200h92l-18 -74h-40q-12 -3 -21 -8t-19 -13.5t-21.5 -22.5t-27.5 -36l-47 -66l58 -191l85 45l15 -25l-140 -96l-20 20l-43 140v47l-150 -197h-92l18 74h56q12 3 22.5 8t21.5 14t23.5 23.5t29.5 36.5l49 67z" />
    <glyph glyph-name="y" unicode="y" horiz-adv-x="456" 
d="M205 2l-41 -2l-61 410l-87 -32l-15 23l128 81l53 -19l43 -429l173 320l-60 80l78 48l35 -53l-21 -109l-328 -555h-121l14 80h68z" />
    <glyph glyph-name="z" unicode="z" horiz-adv-x="396" 
d="M308 67l31 33l25 -8l-46 -109l-265 37l-39 -26l-25 17l330 384l-58 -17l-152 20l-28 -29l-24 7l47 99l254 -27l31 19l24 -18l-324 -378l55 19z" />
    <glyph glyph-name="braceleft" unicode="{" horiz-adv-x="317" 
d="M27 269q26 8 41.5 19.5t24.5 26t13.5 32.5t7.5 38l32 190q11 64 56.5 102t109.5 38h48l-5 -31h-52q-13 0 -28.5 -5t-29 -17.5t-24 -32.5t-14.5 -50l-28 -194q-3 -17 -8 -34t-15.5 -32.5t-29 -30t-46.5 -26.5l68 -52l-60 -304q-6 -30 -2.5 -50t12.5 -32.5t22 -17.5t26 -5
h52l-5 -31h-46q-64 0 -96.5 38t-21.5 102l51 285l-55 60z" />
    <glyph glyph-name="bar" unicode="|" horiz-adv-x="405" 
d="M259 718h56l-169 -963h-56z" />
    <glyph glyph-name="braceright" unicode="}" horiz-adv-x="296" 
d="M265 244q-26 -8 -41.5 -19.5t-24.5 -26t-13.5 -32.5t-7.5 -38l-37 -218q-11 -64 -56.5 -102t-109.5 -38h-47l5 31h51q13 0 28 5t29 17.5t24.5 32.5t14.5 50l33 222q3 17 8 34t15.5 32.5t28.5 30t47 26.5l-68 52l54 276q6 30 2.5 50t-12.5 32.5t-21.5 17.5t-25.5 5h-52
l5 31h46q64 0 96.5 -38t21.5 -102l-46 -257l55 -60z" />
    <glyph glyph-name="asciitilde" unicode="~" horiz-adv-x="735" 
d="M635 321h31l-58 -103l-96 -18l-353 56l-55 -63h-31l55 98l102 23l350 -56z" />
    <glyph glyph-name="exclamdown" unicode="&#xa1;" horiz-adv-x="240" 
d="M61 18l56 212h26l-17 -211l-43 -264h-75zM128 363l-27 4l5 53l13 45l71 5l27 -5l-5 -53l-13 -45z" />
    <glyph glyph-name="cent" unicode="&#xa2;" horiz-adv-x="421" 
d="M240 54q12 5 28 13t32.5 17t31.5 17.5t24 14.5l18 -22q-11 -9 -25.5 -19.5t-31.5 -22.5t-35 -23.5t-34 -21.5l-34 -22h-2l-9 -65h-44l8 71q-48 14 -80.5 62t-32.5 127q0 46 13.5 90t40 81.5t64.5 67t87 47.5l5 2l15 82h45l-10 -58l-44 -22l35 12q8 0 21 -3t27.5 -8
t28.5 -11.5t23 -12.5l-41 -72q-24 18 -54.5 34.5t-51.5 27.5q-59 -29 -91.5 -89.5t-32.5 -146.5q0 -39 9.5 -66t24.5 -44.5t34 -26t38 -10.5z" />
    <glyph glyph-name="sterling" unicode="&#xa3;" horiz-adv-x="545" 
d="M474 588q-10 11 -25 23.5t-31.5 24t-32.5 20.5t-28 13q-14 -7 -27.5 -19.5t-24 -28.5t-18 -33.5t-10.5 -35.5l-32 -184h198l-10 -49l-197 1l-37 -208l-37 -69l236 3l58 109h56l-53 -155l-313 3l-138 -3l2 35l111 45l42 240h-88l2 14l34 34h61l27 162q6 33 14 58.5
t23.5 45.5t41.5 35t69 28l68 21q26 -10 57 -26t58 -37z" />
    <glyph glyph-name="currency" unicode="&#xa4;" 
d="M153 350q14 77 71 136l-49 60l54 46l50 -62q30 19 64 29.5t69 10.5t64.5 -10.5t53.5 -28.5l70 59l38 -47l-68 -58q17 -28 23.5 -62.5t-0.5 -72.5q-6 -35 -22.5 -67t-39.5 -59l44 -52l-54 -46l-42 51q-33 -23 -70 -35t-75 -12t-70.5 12t-56.5 34l-64 -54l-39 47l66 56
q-29 54 -17 125zM206 350q-6 -35 2 -65t26.5 -53t46.5 -36t63 -13q34 0 67 13t59.5 36t45 53t24.5 65q6 34 -1.5 64.5t-26.5 53.5t-47 36t-62 13q-35 0 -67.5 -13t-59.5 -36t-45.5 -53.5t-24.5 -64.5z" />
    <glyph glyph-name="yen" unicode="&#xa5;" horiz-adv-x="587" 
d="M337 287l-3 -19h165l-8 -43h-164l-8 -50h163l-8 -43h-161l-14 -89l116 -13l-10 -31l-156 3l-158 -3v31l124 13l14 89h-152l8 43h150l8 50h-149l8 43h148l3 20l-151 371l-56 11l9 31l106 -3l127 3l1 -31l-91 -13l116 -291v-31l203 322l-89 13l9 31l113 -3l74 3v-31
l-48 -11z" />
    <glyph glyph-name="brokenbar" unicode="&#xa6;" horiz-adv-x="404" 
d="M259 718h55l-75 -430h-55zM165 185h55l-75 -430h-55z" />
    <glyph glyph-name="section" unicode="&#xa7;" horiz-adv-x="482" 
d="M262 323q-39 31 -82 91q-26 -22 -40.5 -47t-14.5 -59q0 -20 7 -38t20.5 -37t33 -40t45.5 -47l20.5 -20.5t16 -16.5t15 -16.5t16.5 -19.5q13 11 25.5 23.5t22.5 28.5t16 36t6 47v26zM72 -78q7 -9 25 -26.5t39 -36t41.5 -35t34.5 -24.5l12 9q23 17 39.5 43t16.5 58
q0 24 -6 45t-19.5 43t-34.5 45.5t-51 52.5q-31 30 -53 53t-35.5 43.5t-20 41t-6.5 47.5q0 54 33 90t81 59q-9 19 -16 42.5t-7 46.5q0 32 6 59.5t22 50t43.5 40.5t70.5 31l62 19q15 -9 31.5 -21.5t31.5 -25.5t27 -24.5t18 -18.5l-69 -52q-6 11 -19 25.5t-29 28t-32.5 24.5
t-29.5 17l-14 -10q-23 -19 -36.5 -47.5t-13.5 -60.5q0 -20 4 -40.5t15.5 -42.5t32 -46t52.5 -51l120 -103v-22q0 -49 -11 -80.5t-28.5 -52.5t-40 -35t-44.5 -28q7 -9 13.5 -22.5t11 -27.5t7 -27.5t2.5 -23.5q0 -68 -27.5 -112t-79.5 -58l-98 -27q-21 11 -41 25.5t-37 29.5
t-30 28.5t-20 22.5z" />
    <glyph glyph-name="dieresis" unicode="&#xa8;" horiz-adv-x="500" 
d="M161 660l54 -5l1 -41l-16 -37l-10 -5l-63 5l4 43l17 35zM317 660l55 -5l1 -41l-16 -37l-10 -5l-63 5l4 43l17 35z" />
    <glyph glyph-name="copyright" unicode="&#xa9;" horiz-adv-x="831" 
d="M435 21q61 0 117 22t99 63.5t68.5 101.5t25.5 136q0 57 -14 104.5t-38 84.5t-55.5 64.5t-65.5 45.5t-69 27t-66 9q-61 0 -117 -22t-99 -63.5t-68.5 -101.5t-25.5 -136q0 -86 30.5 -149.5t77 -104.5t100 -61t100.5 -20zM437 -15q-74 1 -140.5 26t-116.5 72.5t-80 116
t-30 156.5q0 79 26 140.5t74 106t115.5 72.5t149.5 40q73 -1 140 -26t117 -72.5t80 -116t30 -156.5q0 -79 -26 -140.5t-74 -106t-115.5 -72.5t-149.5 -40zM602 265l-16 -79q-12 -5 -29 -11.5t-36 -13.5t-38.5 -12.5t-36.5 -7.5q-40 0 -77.5 13.5t-66 39.5t-46 64t-17.5 87
q0 50 16 87t44.5 63.5t67.5 42t85 21.5q24 0 46 -5t41 -12t33.5 -15t22.5 -14v-73h-34l-18 50q-11 13 -35.5 25.5t-59.5 12.5q-64 0 -103.5 -42t-39.5 -127q0 -34 10.5 -67t30.5 -59.5t49.5 -42.5t67.5 -16q26 0 44.5 10t28.5 18l32 63h34z" />
    <glyph glyph-name="ordfeminine" unicode="&#xaa;" horiz-adv-x="431" 
d="M342 377l64 35l14 -24l-113 -82l-45 25l10 49l14 35l-118 -109q-20 4 -40 13.5t-36 27.5t-25.5 46t-9.5 69q0 81 45 137.5t124 91.5l38 20q11 -1 28.5 -4t37.5 -8t41 -10.5t39 -11.5zM128 470q0 -18 5.5 -35t13.5 -30t17 -21.5t16 -11.5l104 79l41 191q-8 6 -19.5 11
t-25 8.5t-27 5.5t-23.5 2q-17 -11 -35 -29t-33 -43t-24.5 -57t-9.5 -70z" />
    <glyph glyph-name="guillemotleft" unicode="&#xab;" horiz-adv-x="470" 
d="M351 15l-142 220l220 220h36l-166 -221l89 -219h-37zM177 15l-142 220l220 220h36l-166 -221l89 -219h-37z" />
    <glyph glyph-name="logicalnot" unicode="&#xac;" 
d="M567 180h-61v134h-454v61h515v-195z" />
    <glyph glyph-name="softhyphen" unicode="&#xad;" horiz-adv-x="336" 
d="M30 303h281l-10 -55h-281z" />
    <glyph glyph-name="registered" unicode="&#xae;" horiz-adv-x="590" 
d="M324 211q42 0 80 15t67 43t46.5 69t17.5 93q0 59 -21 102t-52 71t-68 41.5t-68 13.5q-42 0 -80 -15t-67 -43t-46.5 -69t-17.5 -93q0 -59 21 -101.5t52 -71t67.5 -42t68.5 -13.5zM285 424v-98l33 -5l-2 -20l-62 1l-64 -1l-2 20l35 5v222l-35 4l2 20l63 -1l93 1
q40 0 66.5 -17.5t26.5 -49.5q0 -30 -27 -47t-65 -25l44 -19l65 -87l20 -6l-1 -20l-46 1l-34 -1l-83 119l-6 4h-21zM326 185q-50 0 -95.5 17.5t-80 50t-55 79.5t-20.5 107q0 54 18 96t50.5 72.5t78.5 50t102 27.5q50 0 95.5 -17.5t80 -49.5t55 -79.5t20.5 -107.5
q0 -54 -18 -96t-50.5 -72.5t-78.5 -50t-102 -27.5zM285 448h28q26 0 43 14t17 40q0 25 -15.5 37.5t-38.5 12.5l-34 -3v-101z" />
    <glyph glyph-name="macron" unicode="&#xaf;" horiz-adv-x="500" 
d="M115 650h276l-7 -50h-276z" />
    <glyph glyph-name="degree" unicode="&#xb0;" horiz-adv-x="404" 
d="M115 601q0 31 10.5 54.5t30 41.5t48 31.5t64.5 24.5q31 0 58.5 -12t48 -32.5t32.5 -48.5t12 -59q0 -63 -35 -98.5t-116 -53.5q-32 0 -59.5 12t-48.5 33t-33 48.5t-12 58.5zM167 601q0 -20 8 -38.5t22 -32t32 -21.5t39 -8q20 0 38 8t31.5 21.5t21.5 32t8 38.5q0 21 -8 39
t-21.5 31.5t-31.5 21.5t-38 8q-21 0 -39 -8t-32 -21.5t-22 -31.5t-8 -39z" />
    <glyph glyph-name="plusminus" unicode="&#xb1;" 
d="M273 143v222h-227v61h227v232h61v-232h227v-61h-227v-222h-61zM46 61h529v-61h-529v61z" />
    <glyph glyph-name="twosuperior" unicode="&#xb2;" horiz-adv-x="334" 
d="M388 710q0 -30 -12.5 -56.5t-33.5 -50.5t-49.5 -45t-61.5 -40l-114 -74l98 20h144v-24l-25 -39h-264l-13 27l125 104q56 42 89 84t33 88q0 26 -12 42t-34 17l-34 -11l-27 -61h-53l9 65l131 39q53 0 78.5 -23.5t25.5 -61.5z" />
    <glyph glyph-name="threesuperior" unicode="&#xb3;" horiz-adv-x="296" 
d="M49 400l11 59h134q48 33 48 76q0 24 -21 39t-67 15l-6 18l29 11q38 14 61 39.5t23 59.5q0 20 -11 31.5t-30 13.5l-35 -10l-26 -61h-58l9 67l134 37q54 0 75.5 -20.5t21.5 -50.5q0 -20 -9 -36t-24 -28.5t-35 -21.5t-42 -15q50 -4 73 -25.5t23 -48.5q0 -30 -15 -50.5
t-38 -35t-50.5 -24t-52.5 -18.5l-57 -21h-65z" />
    <glyph glyph-name="acute" unicode="&#xb4;" horiz-adv-x="500" 
d="M162 537l79 172h96l-145 -172h-30z" />
    <glyph glyph-name="uni00B5" unicode="&#xb5;" 
d="M195 467h70l-58 -345q-7 -38 3.5 -53t28.5 -15q12 0 26.5 6t29 14t28 17l22.5 15l46 32l56 329h70l-72 -411l83 54l16 -24l-139 -100l-30 26l8 58l12 26l-171 -110q-18 0 -28.5 3.5t-21.5 8.5l-9 -26l10 -202h-100z" />
    <glyph glyph-name="paragraph" unicode="&#xb6;" horiz-adv-x="485" 
d="M447 700v-48l-50 -10v-801h-52v801h-115v-801h-53v579q-29 0 -54.5 8.5t-44 24.5t-29.5 39t-11 52q0 24 11 44.5t30 39t44.5 36.5t54.5 36h269z" />
    <glyph glyph-name="periodcentered" unicode="&#xb7;" horiz-adv-x="426" 
d="M271 456l27 -4l-5 -53l-13 -45l-71 -5l-27 5l5 53l13 45z" />
    <glyph glyph-name="cedilla" unicode="&#xb8;" horiz-adv-x="500" 
d="M295 13l21 -16l-41 -44q14 0 28.5 -4.5t26 -12.5t19 -21t7.5 -29q0 -23 -10 -40.5t-26 -30.5t-34.5 -22t-34.5 -15l-51 -16h-57l29 38h88q18 10 27.5 26.5t9.5 33.5t-8.5 28.5t-21.5 18.5t-29 10t-31 3z" />
    <glyph glyph-name="onesuperior" unicode="&#xb9;" horiz-adv-x="307" 
d="M244 435l90 -9l-8 -26l-125 2l-129 -2l2 26l92 9l56 283l9 14l-30 -12l-67 -11l-7 22l146 58h40z" />
    <glyph glyph-name="ordmasculine" unicode="&#xba;" horiz-adv-x="429" 
d="M284 710q27 0 51 -10.5t43 -31t30 -50.5t11 -69q0 -37 -11.5 -72t-33 -65t-52.5 -53t-70 -36l-48 -17q-26 0 -50.5 10.5t-43.5 31t-30.5 51t-11.5 70.5q0 36 11.5 71t33 65t52.5 53t70 35zM249 672q-28 -8 -47 -30.5t-30 -51.5t-16 -59.5t-5 -55.5q0 -34 7.5 -57.5
t19.5 -39t27.5 -23t30.5 -10.5q28 8 47.5 30.5t30.5 51.5t16 59.5t5 55.5q0 34 -7.5 57.5t-19.5 38.5t-27.5 23t-31.5 11z" />
    <glyph glyph-name="guillemotright" unicode="&#xbb;" horiz-adv-x="499" 
d="M38 15l165 219l-88 221h36l144 -220l-220 -220h-37zM212 15l165 219l-88 221h36l144 -220l-220 -220h-37z" />
    <glyph glyph-name="onequarter" unicode="&#xbc;" horiz-adv-x="815" 
d="M173 -50h-60l521 760h58zM222 349l89 -9l-8 -26l-124 2l-130 -2l2 26l92 9l56 283l9 14l-30 -12l-67 -11l-7 22l146 58h40zM680 174h79l-9 -56h-79l-23 -118h-69l22 118h-153l-18 38l231 234h77l-6 -32l-254 -196l32 12h100l12 46l61 46h17z" />
    <glyph glyph-name="onehalf" unicode="&#xbd;" horiz-adv-x="809" 
d="M173 -50h-60l521 760h58zM222 349l89 -9l-8 -26l-124 2l-130 -2l2 26l92 9l56 283l9 14l-30 -12l-67 -11l-7 22l146 58h40zM759 309q0 -30 -12.5 -56.5t-33.5 -50.5t-50 -45t-62 -39l-114 -75l99 20h143v-24l-24 -39h-264l-13 27l125 104q55 42 88.5 84.5t33.5 87.5
q0 26 -12.5 42t-33.5 18l-34 -12l-28 -61h-52l9 65l130 40q54 0 79.5 -24t25.5 -62z" />
    <glyph glyph-name="threequarters" unicode="&#xbe;" horiz-adv-x="784" 
d="M141 -50h-60l521 760h58zM648 174h79l-10 -56h-79l-22 -118h-69l22 118h-154l-17 38l231 234h77l-6 -32l-255 -196l32 12h101l11 46l62 46h16zM47 314l11 60h134q48 31 48 75q0 24 -21 39t-67 15l-6 18l29 11q38 14 61 40t23 59q0 20 -11 32t-30 13l-35 -10l-26 -60h-58
l9 66l134 38q54 0 75.5 -21t21.5 -51q0 -20 -9 -36t-24 -28.5t-35 -21.5t-42 -15q50 -4 73 -25.5t23 -48.5q0 -30 -15 -50.5t-38 -35t-50.5 -24t-52.5 -18.5l-57 -21h-65z" />
    <glyph glyph-name="questiondown" unicode="&#xbf;" horiz-adv-x="368" 
d="M254 363l-27 4l5 53l13 45l71 5l27 -5l-5 -53l-13 -45zM225 -113h61v-68l-152 -64q-27 0 -51 11.5t-42.5 32t-29.5 48.5t-11 61q0 70 33 114.5t92 73.5l71 33l36 116h50l-20 -113l-95 -56q-47 -28 -65.5 -66t-18.5 -73q0 -19 2.5 -40.5t11 -41t23 -34t38.5 -20.5l50 17z
" />
    <glyph glyph-name="Agrave" unicode="&#xc0;" horiz-adv-x="655" 
d="M445 766l-92 132h102l26 -132h-36zM506 2l-131 -3l-1 31l91 13l-21 193h-220l-100 -193l88 -13l-9 -31l-111 3l-111 -3l-1 31l86 11l366 660l46 17l74 -677l79 -11l-8 -31zM248 281h191l-26 237l-2 73z" />
    <glyph glyph-name="Aacute" unicode="&#xc1;" horiz-adv-x="655" 
d="M449 766l62 132h112l-140 -132h-34zM506 2l-131 -3l-1 31l91 13l-21 193h-220l-100 -193l88 -13l-9 -31l-111 3l-111 -3l-1 31l86 11l366 660l46 17l74 -677l79 -11l-8 -31zM248 281h191l-26 237l-2 73z" />
    <glyph glyph-name="Acircumflex" unicode="&#xc2;" horiz-adv-x="655" 
d="M347 766l105 132h74l60 -132h-38l-70 81l-93 -81h-38zM506 2l-131 -3l-1 31l91 13l-21 193h-220l-100 -193l88 -13l-9 -31l-111 3l-111 -3l-1 31l86 11l366 660l46 17l74 -677l79 -11l-8 -31zM248 281h191l-26 237l-2 73z" />
    <glyph glyph-name="Atilde" unicode="&#xc3;" horiz-adv-x="655" 
d="M377 866l67 22l129 -62l51 60h16l-41 -95l-65 -17l-129 62l-51 -60h-16zM506 2l-131 -3l-1 31l91 13l-21 193h-220l-100 -193l88 -13l-9 -31l-111 3l-111 -3l-1 31l86 11l366 660l46 17l74 -677l79 -11l-8 -31zM248 281h191l-26 237l-2 73z" />
    <glyph glyph-name="Adieresis" unicode="&#xc4;" horiz-adv-x="655" 
d="M372 868l61 -4v-41l-15 -43l-17 -5l-63 5l4 49l18 35zM569 868l60 -4l1 -41l-16 -43l-16 -5l-63 5l4 49l17 35zM506 2l-131 -3l-1 31l91 13l-21 193h-220l-100 -193l88 -13l-9 -31l-111 3l-111 -3l-1 31l86 11l366 660l46 17l74 -677l79 -11l-8 -31zM248 281h191l-26 237
l-2 73z" />
    <glyph glyph-name="Aring" unicode="&#xc5;" horiz-adv-x="655" 
d="M564 832q0 -24 -7.5 -38t-20.5 -22t-30.5 -14t-37.5 -13q-18 0 -36.5 4t-32.5 14t-23 27t-9 42q0 22 8.5 37.5t22 25.5t31 16.5t36.5 11.5q42 0 70.5 -19.5t28.5 -71.5zM411 832q0 -23 16 -37t39 -14t39 14t16 37t-16 39t-39 16t-39 -16t-16 -39zM506 2l-131 -3l-1 31
l91 13l-21 193h-220l-100 -193l88 -13l-9 -31l-111 3l-111 -3l-1 31l86 11l366 660l46 17l74 -677l79 -11l-8 -31zM248 281h191l-26 237l-2 73z" />
    <glyph glyph-name="AE" unicode="&#xc6;" horiz-adv-x="869" 
d="M212 30l-12 -31l-116 3l-109 -3l2 31l85 11l406 660l74 -3l342 3v-168h-30l-42 121l-240 3l-47 -298l121 4l64 122h21l-38 -145l-9 -151h-21l-25 123l-120 4l-46 -274l250 3l81 151h35l-46 -197l-361 2l-131 -2l-1 31l95 13l42 272h-149l-163 -272zM310 360h134l48 295z
" />
    <glyph glyph-name="Ccedilla" unicode="&#xc7;" horiz-adv-x="606" 
d="M228 -238h-57l29 38h88q18 10 27.5 26.5t9.5 33.5t-8.5 28.5t-21.5 18.5t-29 10t-31 3l59 64q-56 6 -100.5 29.5t-76 63.5t-48.5 94t-17 121q0 57 13 117t45 115t85.5 100t135.5 72l76 24q37 0 70 -7.5t60 -19t48 -25t35 -26.5l-6 -136h-49l-19 97q-22 22 -66 39t-119 29
q-107 -45 -161.5 -138t-54.5 -224q0 -69 18 -120.5t48.5 -86t71.5 -53t87 -20.5q38 14 61.5 27t47.5 33l58 120h52l-37 -162l-223 -65l-26 -29q13 0 27.5 -4.5t26.5 -12.5t19.5 -21t7.5 -29q0 -23 -10.5 -40.5t-26 -30.5t-34 -22t-34.5 -15z" />
    <glyph glyph-name="Egrave" unicode="&#xc8;" horiz-adv-x="582" 
d="M372 766l-92 132h102l26 -132h-36zM597 701v-165h-28l-42 119l-261 3l-42 -273l148 4l61 105h25l-35 -128l-9 -126h-25l-23 104l-149 4l-49 -306l280 3l76 135h33l-40 -181l-389 3l-138 -3l-1 31l95 13l98 615l-91 13l9 30l139 -3z" />
    <glyph glyph-name="Eacute" unicode="&#xc9;" horiz-adv-x="582" 
d="M356 766l61 132h112l-139 -132h-34zM597 701v-165h-28l-42 119l-261 3l-42 -273l148 4l61 105h25l-35 -128l-9 -126h-25l-23 104l-149 4l-49 -306l280 3l76 135h33l-40 -181l-389 3l-138 -3l-1 31l95 13l98 615l-91 13l9 30l139 -3z" />
    <glyph glyph-name="Ecircumflex" unicode="&#xca;" horiz-adv-x="582" 
d="M253 766l105 132h74l60 -132h-38l-70 81l-93 -81h-38zM597 701v-165h-28l-42 119l-261 3l-42 -273l148 4l61 105h25l-35 -128l-9 -126h-25l-23 104l-149 4l-49 -306l280 3l76 135h33l-40 -181l-389 3l-138 -3l-1 31l95 13l98 615l-91 13l9 30l139 -3z" />
    <glyph glyph-name="Edieresis" unicode="&#xcb;" horiz-adv-x="582" 
d="M279 868l60 -4l1 -41l-16 -43l-16 -5l-63 5l4 49l17 35zM475 868l61 -4l1 -41l-16 -43l-16 -5l-63 5l4 49l17 35zM597 701v-165h-28l-42 119l-261 3l-42 -273l148 4l61 105h25l-35 -128l-9 -126h-25l-23 104l-149 4l-49 -306l280 3l76 135h33l-40 -181l-389 3l-138 -3
l-1 31l95 13l98 615l-91 13l9 30l139 -3z" />
    <glyph glyph-name="Igrave" unicode="&#xcc;" horiz-adv-x="304" 
d="M216 766l-91 132h102l25 -132h-36zM166 43l86 -13l-9 -31l-128 3l-126 -3l-1 31l94 13l98 614l-92 13l9 31l127 -3l129 3l1 -31l-90 -13z" />
    <glyph glyph-name="Iacute" unicode="&#xcd;" horiz-adv-x="304" 
d="M214 766l62 132h112l-140 -132h-34zM166 43l86 -13l-9 -31l-128 3l-126 -3l-1 31l94 13l98 614l-92 13l9 31l127 -3l129 3l1 -31l-90 -13z" />
    <glyph glyph-name="Icircumflex" unicode="&#xce;" horiz-adv-x="304" 
d="M115 766l105 132h75l60 -132h-38l-70 81l-94 -81h-38zM166 43l86 -13l-9 -31l-128 3l-126 -3l-1 31l94 13l98 614l-92 13l9 31l127 -3l129 3l1 -31l-90 -13z" />
    <glyph glyph-name="Idieresis" unicode="&#xcf;" horiz-adv-x="304" 
d="M144 868l54 -4l1 -41l-16 -37l-10 -5l-63 5l4 43l17 35zM320 868l55 -4l1 -41l-16 -37l-10 -5l-63 5l4 43l17 35zM166 43l86 -13l-9 -31l-128 3l-126 -3l-1 31l94 13l98 614l-92 13l9 31l127 -3l129 3l1 -31l-90 -13z" />
    <glyph glyph-name="Eth" unicode="&#xd0;" horiz-adv-x="664" 
d="M118 2l-127 -3l-2 31l94 13l46 295h-91l8 49h91l44 276l-95 8l9 30l126 -3l173 3q61 1 110 -19.5t83 -59.5t52 -94.5t18 -124.5q0 -54 -15.5 -110.5t-49.5 -107.5t-87 -93t-129 -67l-81 -26zM265 662l-44 -275h127l-8 -49h-127l-44 -282h186q41 21 78.5 53t66.5 74.5
t46.5 94.5t17.5 111q0 69 -16.5 119t-45.5 83t-67.5 50.5t-82.5 20.5h-87z" />
    <glyph glyph-name="Ntilde" unicode="&#xd1;" horiz-adv-x="708" 
d="M329 866l67 22l129 -62l51 60h16l-41 -95l-65 -17l-130 62l-50 -60h-16zM139 43l83 -13l-9 -31l-105 3l-118 -3l-1 31l94 13l96 605l-87 22l10 31l95 -3l56 3l259 -511l18 -66l80 533l-87 13l10 31l110 -3l119 3v-31l-96 -13l-103 -657h-46l-275 551l-10 74z" />
    <glyph glyph-name="Ograve" unicode="&#xd2;" horiz-adv-x="686" 
d="M402 766l-92 132h102l26 -132h-36zM144 289q0 -68 17 -115.5t45.5 -78.5t66.5 -46.5t80 -18.5q51 19 92.5 55.5t71.5 87t46.5 111t16.5 127.5q0 68 -17 115.5t-45.5 78.5t-66.5 46.5t-80 18.5q-50 -19 -92 -55.5t-72 -87t-46.5 -111t-16.5 -127.5zM415 718q60 0 108 -20
t81 -58t51 -92t18 -122q0 -60 -15.5 -124t-50 -122t-88.5 -104t-132 -70l-77 -24q-60 0 -108 20t-81.5 58t-51.5 92t-18 122q0 60 15.5 124t50 122t88.5 104t132 70z" />
    <glyph glyph-name="Oacute" unicode="&#xd3;" horiz-adv-x="686" 
d="M418 766l61 132h112l-139 -132h-34zM144 289q0 -68 17 -115.5t45.5 -78.5t66.5 -46.5t80 -18.5q51 19 92.5 55.5t71.5 87t46.5 111t16.5 127.5q0 68 -17 115.5t-45.5 78.5t-66.5 46.5t-80 18.5q-50 -19 -92 -55.5t-72 -87t-46.5 -111t-16.5 -127.5zM415 718q60 0 108 -20
t81 -58t51 -92t18 -122q0 -60 -15.5 -124t-50 -122t-88.5 -104t-132 -70l-77 -24q-60 0 -108 20t-81.5 58t-51.5 92t-18 122q0 60 15.5 124t50 122t88.5 104t132 70z" />
    <glyph glyph-name="Ocircumflex" unicode="&#xd4;" horiz-adv-x="686" 
d="M315 766l105 132h75l60 -132h-38l-71 81l-93 -81h-38zM144 289q0 -68 17 -115.5t45.5 -78.5t66.5 -46.5t80 -18.5q51 19 92.5 55.5t71.5 87t46.5 111t16.5 127.5q0 68 -17 115.5t-45.5 78.5t-66.5 46.5t-80 18.5q-50 -19 -92 -55.5t-72 -87t-46.5 -111t-16.5 -127.5z
M415 718q60 0 108 -20t81 -58t51 -92t18 -122q0 -60 -15.5 -124t-50 -122t-88.5 -104t-132 -70l-77 -24q-60 0 -108 20t-81.5 58t-51.5 92t-18 122q0 60 15.5 124t50 122t88.5 104t132 70z" />
    <glyph glyph-name="Otilde" unicode="&#xd5;" horiz-adv-x="686" 
d="M342 866l67 22l129 -62l51 60h16l-41 -95l-65 -17l-130 62l-50 -60h-16zM144 289q0 -68 17 -115.5t45.5 -78.5t66.5 -46.5t80 -18.5q51 19 92.5 55.5t71.5 87t46.5 111t16.5 127.5q0 68 -17 115.5t-45.5 78.5t-66.5 46.5t-80 18.5q-50 -19 -92 -55.5t-72 -87t-46.5 -111
t-16.5 -127.5zM415 718q60 0 108 -20t81 -58t51 -92t18 -122q0 -60 -15.5 -124t-50 -122t-88.5 -104t-132 -70l-77 -24q-60 0 -108 20t-81.5 58t-51.5 92t-18 122q0 60 15.5 124t50 122t88.5 104t132 70z" />
    <glyph glyph-name="Odieresis" unicode="&#xd6;" horiz-adv-x="686" 
d="M340 868l60 -4l1 -41l-16 -43l-16 -5l-63 5l4 49l17 35zM536 868l61 -4l1 -41l-16 -43l-16 -5l-63 5l4 49l17 35zM144 289q0 -68 17 -115.5t45.5 -78.5t66.5 -46.5t80 -18.5q51 19 92.5 55.5t71.5 87t46.5 111t16.5 127.5q0 68 -17 115.5t-45.5 78.5t-66.5 46.5t-80 18.5
q-50 -19 -92 -55.5t-72 -87t-46.5 -111t-16.5 -127.5zM415 718q60 0 108 -20t81 -58t51 -92t18 -122q0 -60 -15.5 -124t-50 -122t-88.5 -104t-132 -70l-77 -24q-60 0 -108 20t-81.5 58t-51.5 92t-18 122q0 60 15.5 124t50 122t88.5 104t132 70z" />
    <glyph glyph-name="multiply" unicode="&#xd7;" 
d="M479 19l-170 171l-169 -170l-43 43l170 169l-170 169l43 43l169 -169l170 170l43 -43l-170 -170l170 -170z" />
    <glyph glyph-name="Oslash" unicode="&#xd8;" horiz-adv-x="686" 
d="M410 718q56 0 100.5 -17.5t77.5 -49.5l56 64h45l-79 -90q28 -38 43 -87.5t15 -111.5q0 -60 -15.5 -124t-50 -122t-88.5 -104t-132 -70l-77 -24q-121 0 -188 75l-63 -72h-47l88 101q-49 75 -49 188q0 60 15.5 124t50 122t88.5 104t132 70zM575 411q0 85 -28 141l-370 -425
q29 -48 74 -70.5t97 -26.5q51 19 92.5 55.5t71.5 87t46.5 111t16.5 127.5zM139 289q0 -39 5.5 -70.5t15.5 -57.5l369 422q-29 42 -71.5 62.5t-91.5 24.5q-50 -19 -92 -55.5t-72 -87t-46.5 -111t-16.5 -127.5z" />
    <glyph glyph-name="Ugrave" unicode="&#xd9;" horiz-adv-x="657" 
d="M396 766l-92 132h102l26 -132h-36zM560 231q-7 -43 -19 -79.5t-36 -66t-62.5 -51.5t-97.5 -36l-66 -16q-59 0 -98 18t-60.5 51.5t-26.5 81.5t4 107l66 417l-91 13l9 31l132 -3l131 3l1 -31l-92 -13l-73 -438q-6 -35 -0.5 -69.5t23.5 -62t49.5 -44.5t77.5 -17
q32 11 57.5 26t44.5 39t32.5 58.5t21.5 85.5l68 422l-87 13l9 31l111 -3l129 3l1 -31l-89 -13z" />
    <glyph glyph-name="Uacute" unicode="&#xda;" horiz-adv-x="657" 
d="M374 766l61 132h112l-139 -132h-34zM560 231q-7 -43 -19 -79.5t-36 -66t-62.5 -51.5t-97.5 -36l-66 -16q-59 0 -98 18t-60.5 51.5t-26.5 81.5t4 107l66 417l-91 13l9 31l132 -3l131 3l1 -31l-92 -13l-73 -438q-6 -35 -0.5 -69.5t23.5 -62t49.5 -44.5t77.5 -17
q32 11 57.5 26t44.5 39t32.5 58.5t21.5 85.5l68 422l-87 13l9 31l111 -3l129 3l1 -31l-89 -13z" />
    <glyph glyph-name="Ucircumflex" unicode="&#xdb;" horiz-adv-x="657" 
d="M300 766l105 132h75l60 -132h-38l-71 81l-93 -81h-38zM560 231q-7 -43 -19 -79.5t-36 -66t-62.5 -51.5t-97.5 -36l-66 -16q-59 0 -98 18t-60.5 51.5t-26.5 81.5t4 107l66 417l-91 13l9 31l132 -3l131 3l1 -31l-92 -13l-73 -438q-6 -35 -0.5 -69.5t23.5 -62t49.5 -44.5
t77.5 -17q32 11 57.5 26t44.5 39t32.5 58.5t21.5 85.5l68 422l-87 13l9 31l111 -3l129 3l1 -31l-89 -13z" />
    <glyph glyph-name="Udieresis" unicode="&#xdc;" horiz-adv-x="657" 
d="M321 868l61 -4v-41l-15 -43l-17 -5l-63 5l4 49l17 35zM518 868l60 -4l1 -41l-16 -43l-16 -5l-63 5l4 49l17 35zM560 231q-7 -43 -19 -79.5t-36 -66t-62.5 -51.5t-97.5 -36l-66 -16q-59 0 -98 18t-60.5 51.5t-26.5 81.5t4 107l66 417l-91 13l9 31l132 -3l131 3l1 -31
l-92 -13l-73 -438q-6 -35 -0.5 -69.5t23.5 -62t49.5 -44.5t77.5 -17q32 11 57.5 26t44.5 39t32.5 58.5t21.5 85.5l68 422l-87 13l9 31l111 -3l129 3l1 -31l-89 -13z" />
    <glyph glyph-name="Yacute" unicode="&#xdd;" horiz-adv-x="593" 
d="M354 766l61 132h112l-139 -132h-34zM364 287l-38 -244l116 -13l-10 -31l-156 3l-158 -3v31l124 13l38 245l-151 371l-56 11l9 31l106 -3l127 3l1 -31l-91 -13l116 -291v-31l203 322l-89 13l9 31l113 -3l74 3v-31l-48 -11z" />
    <glyph glyph-name="Thorn" unicode="&#xde;" horiz-adv-x="539" 
d="M248 554l109 3q48 1 86 -9.5t63.5 -31.5t39 -50t13.5 -64q0 -38 -11.5 -70t-37.5 -59.5t-68.5 -52t-104.5 -46.5l-47 -16h-106l-17 -115l122 -13l-9 -31l-164 3l-126 -3l-1 31l94 13l98 614l-92 13l9 31l127 -3l129 3l1 -31l-90 -13zM241 515l-47 -303h157q23 10 43.5 27
t36 39.5t24.5 48.5t9 55q0 59 -31 94.5t-100 38.5h-92z" />
    <glyph glyph-name="germandbls" unicode="&#xdf;" horiz-adv-x="511" 
d="M-82 -163h86q17 18 27.5 40.5t13.5 39.5l87 496h-98l5 17l34 30h67l9 54q6 36 21 65.5t38 46.5l123 88q26 -1 53 -4.5t48.5 -15.5t35.5 -34.5t14 -60.5q0 -27 -9 -47.5t-22.5 -37t-30.5 -30t-32 -25.5l-65 -51q-3 -4 -5.5 -14t-2.5 -15q0 -28 14.5 -49t44.5 -47
q15 -14 32.5 -29t32.5 -32.5t24.5 -38.5t9.5 -47q0 -47 -22.5 -77t-84.5 -50l-86 -28q-9 4 -22.5 11.5t-27.5 15.5t-26 16t-18 14l44 61q8 -6 20.5 -15t26.5 -18.5l28 -19t24 -15.5q32 8 47 30t15 52q0 23 -7 41t-18 32.5t-24.5 27t-26.5 23.5q-11 9 -22.5 19.5t-21 24
t-16 30.5t-6.5 38t5 35t12 22l53 47q14 12 28 25t25.5 28t19 33.5t7.5 41.5q0 24 -6.5 39t-16.5 23t-22.5 11t-24.5 3l-21 -12q-29 -14 -52.5 -34t-30.5 -60l-104 -596q-6 -35 -16 -65t-30 -43l-129 -82h-44z" />
    <glyph glyph-name="agrave" unicode="&#xe0;" horiz-adv-x="466" 
d="M319 537l-77 172h90l12 -172h-25zM362 59l84 52l16 -25l-140 -101l-38 31l10 60l15 41l-135 -132q-24 5 -47 16t-42 32.5t-30.5 55t-11.5 83.5q0 102 47.5 171.5t135.5 114.5l47 24q12 -1 30.5 -5t40 -10t44 -13t41.5 -14zM124 183q0 -27 6.5 -49.5t17 -39.5t23.5 -28
t25 -15l111 98l44 247q-9 7 -24 13.5t-32 11t-34 7t-29 2.5q-20 -14 -39 -36.5t-34.5 -53.5t-25 -70.5t-9.5 -86.5z" />
    <glyph glyph-name="aacute" unicode="&#xe1;" horiz-adv-x="466" 
d="M299 537l79 172h96l-145 -172h-30zM362 59l84 52l16 -25l-140 -101l-38 31l10 60l15 41l-135 -132q-24 5 -47 16t-42 32.5t-30.5 55t-11.5 83.5q0 102 47.5 171.5t135.5 114.5l47 24q12 -1 30.5 -5t40 -10t44 -13t41.5 -14zM124 183q0 -27 6.5 -49.5t17 -39.5t23.5 -28
t25 -15l111 98l44 247q-9 7 -24 13.5t-32 11t-34 7t-29 2.5q-20 -14 -39 -36.5t-34.5 -53.5t-25 -70.5t-9.5 -86.5z" />
    <glyph glyph-name="acircumflex" unicode="&#xe2;" horiz-adv-x="466" 
d="M216 537l116 172h61l53 -172h-30l-69 103l-101 -103h-30zM362 59l84 52l16 -25l-140 -101l-38 31l10 60l15 41l-135 -132q-24 5 -47 16t-42 32.5t-30.5 55t-11.5 83.5q0 102 47.5 171.5t135.5 114.5l47 24q12 -1 30.5 -5t40 -10t44 -13t41.5 -14zM124 183
q0 -27 6.5 -49.5t17 -39.5t23.5 -28t25 -15l111 98l44 247q-9 7 -24 13.5t-32 11t-34 7t-29 2.5q-20 -14 -39 -36.5t-34.5 -53.5t-25 -70.5t-9.5 -86.5z" />
    <glyph glyph-name="atilde" unicode="&#xe3;" horiz-adv-x="466" 
d="M226 675l67 22l129 -62l51 60h16l-41 -95l-65 -17l-130 62l-50 -60h-16zM362 59l84 52l16 -25l-140 -101l-38 31l10 60l15 41l-135 -132q-24 5 -47 16t-42 32.5t-30.5 55t-11.5 83.5q0 102 47.5 171.5t135.5 114.5l47 24q12 -1 30.5 -5t40 -10t44 -13t41.5 -14zM124 183
q0 -27 6.5 -49.5t17 -39.5t23.5 -28t25 -15l111 98l44 247q-9 7 -24 13.5t-32 11t-34 7t-29 2.5q-20 -14 -39 -36.5t-34.5 -53.5t-25 -70.5t-9.5 -86.5z" />
    <glyph glyph-name="adieresis" unicode="&#xe4;" horiz-adv-x="466" 
d="M247 660l54 -5l1 -41l-16 -37l-10 -5l-63 5l4 43l17 35zM403 660l55 -5l1 -41l-16 -37l-10 -5l-63 5l4 43l17 35zM362 59l84 52l16 -25l-140 -101l-38 31l10 60l15 41l-135 -132q-24 5 -47 16t-42 32.5t-30.5 55t-11.5 83.5q0 102 47.5 171.5t135.5 114.5l47 24
q12 -1 30.5 -5t40 -10t44 -13t41.5 -14zM124 183q0 -27 6.5 -49.5t17 -39.5t23.5 -28t25 -15l111 98l44 247q-9 7 -24 13.5t-32 11t-34 7t-29 2.5q-20 -14 -39 -36.5t-34.5 -53.5t-25 -70.5t-9.5 -86.5z" />
    <glyph glyph-name="aring" unicode="&#xe5;" horiz-adv-x="466" 
d="M456 624q0 -24 -7.5 -38t-20.5 -22t-30.5 -14t-37.5 -13q-18 0 -36 4t-32.5 14t-23 27t-8.5 42q0 22 8.5 37.5t22 25.5t31 16.5t35.5 11.5q42 0 70.5 -19.5t28.5 -71.5zM303 624q0 -23 16 -37t39 -14t39.5 14t16.5 37t-16.5 39t-39.5 16t-39 -16t-16 -39zM362 59l84 52
l16 -25l-140 -101l-38 31l10 60l15 41l-135 -132q-24 5 -47 16t-42 32.5t-30.5 55t-11.5 83.5q0 102 47.5 171.5t135.5 114.5l47 24q12 -1 30.5 -5t40 -10t44 -13t41.5 -14zM124 183q0 -27 6.5 -49.5t17 -39.5t23.5 -28t25 -15l111 98l44 247q-9 7 -24 13.5t-32 11t-34 7
t-29 2.5q-20 -14 -39 -36.5t-34.5 -53.5t-25 -70.5t-9.5 -86.5z" />
    <glyph glyph-name="ae" unicode="&#xe6;" horiz-adv-x="637" 
d="M451 53q26 11 56.5 28.5t56.5 35.5l17 -24q-7 -7 -20 -18t-29 -23t-34 -24.5t-34 -22.5l-31 -20q-57 -3 -96.5 25t-57.5 77l-105 -102q-25 5 -49.5 16t-44 32.5t-31.5 55t-12 83.5q0 102 47.5 171.5t135.5 114.5l47 24q11 -1 28 -4.5t37.5 -9t42 -11.5t40.5 -12l89 37
q24 -4 44.5 -10.5t35.5 -18t23.5 -29t8.5 -43.5q0 -16 -4.5 -38t-14.5 -48l-251 -81q-3 -26 0.5 -55t15.5 -53t34 -39t55 -14zM118 183q0 -27 7 -49.5t18.5 -39.5t25 -28t27.5 -15l73 64q-6 36 -3 74t14 74.5t30.5 70.5t46.5 61q-16 9 -35 15.5t-37 11t-33.5 6.5t-25.5 2
q-20 -14 -39 -36.5t-34.5 -53.5t-25 -70.5t-9.5 -86.5zM481 438q-29 -11 -50.5 -30.5t-37 -45t-25.5 -55t-16 -59.5l176 74q10 30 10 52q0 35 -16.5 48t-40.5 16z" />
    <glyph glyph-name="ccedilla" unicode="&#xe7;" horiz-adv-x="401" 
d="M98 -238h-57l29 38h88q18 10 27.5 26.5t9.5 33.5t-8.5 28.5t-21.5 18.5t-29 10t-31 3l64 68q-27 5 -50 20t-40 39.5t-27 57.5t-10 75q0 46 13.5 90t40 81.5t64.5 67t87 47.5l46 16q8 0 21 -3t27.5 -8t28.5 -11.5t23 -12.5l-41 -72q-24 18 -54.5 34.5t-51.5 27.5
q-59 -29 -91.5 -89.5t-32.5 -146.5q0 -39 9.5 -66t24.5 -44.5t34 -26t38 -10.5q12 5 28 13t32.5 17t31.5 17.5t24 14.5l18 -22q-11 -9 -25.5 -19.5t-31.5 -22.5t-35 -23.5t-34 -21.5l-34 -22l-29 -32q13 0 27.5 -4.5t26.5 -12.5t19.5 -21t7.5 -29q0 -23 -10.5 -40.5
t-26 -30.5t-34 -22t-34.5 -15z" />
    <glyph glyph-name="egrave" unicode="&#xe8;" horiz-adv-x="414" 
d="M283 537l-78 172h90l13 -172h-25zM258 438q-29 -11 -50.5 -30.5t-37 -45t-25.5 -55t-16 -59.5l175 74q5 16 8 28t3 24q0 35 -16.5 48t-40.5 16zM228 53q26 11 56 28.5t56 35.5l18 -24q-8 -7 -21 -18t-29 -23t-33.5 -24.5t-34.5 -22.5l-30 -20q-39 -2 -70 11t-53 37.5
t-33.5 58.5t-11.5 75q0 48 13.5 93.5t39 85.5t63 71.5t85.5 49.5l38 15q24 -4 44.5 -10.5t35.5 -18t23.5 -29t8.5 -43.5q0 -31 -19 -86l-251 -81q-1 -8 -1 -16v-15q-1 -37 9 -62.5t26 -41.5t35 -22t36 -4z" />
    <glyph glyph-name="eacute" unicode="&#xe9;" horiz-adv-x="414" 
d="M264 537l80 172h96l-146 -172h-30zM258 438q-29 -11 -50.5 -30.5t-37 -45t-25.5 -55t-16 -59.5l175 74q5 16 8 28t3 24q0 35 -16.5 48t-40.5 16zM228 53q26 11 56 28.5t56 35.5l18 -24q-8 -7 -21 -18t-29 -23t-33.5 -24.5t-34.5 -22.5l-30 -20q-39 -2 -70 11t-53 37.5
t-33.5 58.5t-11.5 75q0 48 13.5 93.5t39 85.5t63 71.5t85.5 49.5l38 15q24 -4 44.5 -10.5t35.5 -18t23.5 -29t8.5 -43.5q0 -31 -19 -86l-251 -81q-1 -8 -1 -16v-15q-1 -37 9 -62.5t26 -41.5t35 -22t36 -4z" />
    <glyph glyph-name="ecircumflex" unicode="&#xea;" horiz-adv-x="414" 
d="M175 537l116 172h60l54 -172h-30l-69 103l-101 -103h-30zM258 438q-29 -11 -50.5 -30.5t-37 -45t-25.5 -55t-16 -59.5l175 74q5 16 8 28t3 24q0 35 -16.5 48t-40.5 16zM228 53q26 11 56 28.5t56 35.5l18 -24q-8 -7 -21 -18t-29 -23t-33.5 -24.5t-34.5 -22.5l-30 -20
q-39 -2 -70 11t-53 37.5t-33.5 58.5t-11.5 75q0 48 13.5 93.5t39 85.5t63 71.5t85.5 49.5l38 15q24 -4 44.5 -10.5t35.5 -18t23.5 -29t8.5 -43.5q0 -31 -19 -86l-251 -81q-1 -8 -1 -16v-15q-1 -37 9 -62.5t26 -41.5t35 -22t36 -4z" />
    <glyph glyph-name="edieresis" unicode="&#xeb;" horiz-adv-x="414" 
d="M214 660l55 -5v-41l-15 -37l-11 -5l-63 5l4 43l18 35zM371 660l54 -5l1 -41l-16 -37l-10 -5l-63 5l4 43l17 35zM258 438q-29 -11 -50.5 -30.5t-37 -45t-25.5 -55t-16 -59.5l175 74q5 16 8 28t3 24q0 35 -16.5 48t-40.5 16zM228 53q26 11 56 28.5t56 35.5l18 -24
q-8 -7 -21 -18t-29 -23t-33.5 -24.5t-34.5 -22.5l-30 -20q-39 -2 -70 11t-53 37.5t-33.5 58.5t-11.5 75q0 48 13.5 93.5t39 85.5t63 71.5t85.5 49.5l38 15q24 -4 44.5 -10.5t35.5 -18t23.5 -29t8.5 -43.5q0 -31 -19 -86l-251 -81q-1 -8 -1 -16v-15q-1 -37 9 -62.5t26 -41.5
t35 -22t36 -4z" />
    <glyph glyph-name="igrave" unicode="&#xec;" horiz-adv-x="279" 
d="M206 537l-77 172h90l12 -172h-25zM47 382l-10 26l160 74l23 -26l-70 -399l84 53l16 -24l-139 -101l-39 30l72 401z" />
    <glyph glyph-name="iacute" unicode="&#xed;" horiz-adv-x="279" 
d="M181 537l80 172h96l-146 -172h-30zM47 382l-10 26l160 74l23 -26l-70 -399l84 53l16 -24l-139 -101l-39 30l72 401z" />
    <glyph glyph-name="icircumflex" unicode="&#xee;" horiz-adv-x="279" 
d="M84 537l115 172h61l53 -172h-30l-68 103l-101 -103h-30zM47 382l-10 26l160 74l23 -26l-70 -399l84 53l16 -24l-139 -101l-39 30l72 401z" />
    <glyph glyph-name="idieresis" unicode="&#xef;" horiz-adv-x="279" 
d="M118 660l55 -5l1 -41l-16 -37l-10 -5l-63 5l4 43l17 35zM275 660l55 -5v-41l-15 -37l-11 -5l-63 5l4 43l17 35zM47 382l-10 26l160 74l23 -26l-70 -399l84 53l16 -24l-139 -101l-39 30l72 401z" />
    <glyph glyph-name="eth" unicode="&#xf0;" horiz-adv-x="475" 
d="M296 482q21 -5 42 -13t34 -16q1 10 -5 27t-17 36.5t-26 39.5t-33 38l-112 -55v45l80 39q-24 19 -48.5 33t-48.5 20l14 40q39 -11 71 -26.5t58 -35.5l126 62v-46l-91 -46q37 -35 59.5 -75t34.5 -79t16 -73t4 -57q0 -134 -49.5 -213.5t-146.5 -121.5l-56 -20
q-32 0 -61 12.5t-51 37t-35 60.5t-13 83q0 46 12.5 90t37.5 81t62 66t86 47zM373 377q-34 24 -73.5 35.5t-62.5 11.5q-31 -12 -52 -37.5t-33.5 -57t-17.5 -66.5t-5 -66q0 -42 8.5 -71.5t23 -49.5t34 -31t40.5 -15q39 10 65 38t42.5 64t23.5 74.5t7 70.5v100z" />
    <glyph glyph-name="ntilde" unicode="&#xf1;" horiz-adv-x="515" 
d="M230 675l67 22l129 -62l51 60h16l-40 -95l-65 -17l-130 62l-50 -60h-16zM384 340q6 32 0.5 52t-33.5 20q-24 0 -52.5 -14t-50.5 -29l-48 -34l-60 -335h-70l74 417l-97 -35l-10 26l160 74l24 -27l-10 -51l-13 -28l169 106q30 0 49.5 -9.5t30.5 -25t14.5 -34.5t0.5 -37
l-57 -318l83 52l16 -24l-139 -101l-39 30z" />
    <glyph glyph-name="ograve" unicode="&#xf2;" horiz-adv-x="463" 
d="M297 537l-78 172h90l13 -172h-25zM290 482q30 0 57 -13t48 -38t33.5 -62t12.5 -85q0 -45 -12.5 -88.5t-37 -80.5t-59.5 -65.5t-80 -43.5l-59 -21q-30 0 -57 13t-48 38.5t-33.5 63t-12.5 85.5q0 45 12.5 88.5t37 80t59.5 65t80 43.5zM249 441q-38 -11 -62 -39.5
t-38.5 -64.5t-20 -74.5t-5.5 -70.5q0 -43 9.5 -73t24.5 -49.5t34.5 -29.5t40.5 -13q37 11 62 39.5t40 64.5t21 74.5t6 70.5q0 43 -10 73t-25.5 49.5t-35.5 29.5t-41 13z" />
    <glyph glyph-name="oacute" unicode="&#xf3;" horiz-adv-x="463" 
d="M278 537l80 172h96l-146 -172h-30zM290 482q30 0 57 -13t48 -38t33.5 -62t12.5 -85q0 -45 -12.5 -88.5t-37 -80.5t-59.5 -65.5t-80 -43.5l-59 -21q-30 0 -57 13t-48 38.5t-33.5 63t-12.5 85.5q0 45 12.5 88.5t37 80t59.5 65t80 43.5zM249 441q-38 -11 -62 -39.5
t-38.5 -64.5t-20 -74.5t-5.5 -70.5q0 -43 9.5 -73t24.5 -49.5t34.5 -29.5t40.5 -13q37 11 62 39.5t40 64.5t21 74.5t6 70.5q0 43 -10 73t-25.5 49.5t-35.5 29.5t-41 13z" />
    <glyph glyph-name="ocircumflex" unicode="&#xf4;" horiz-adv-x="463" 
d="M190 537l116 172h60l54 -172h-30l-69 103l-101 -103h-30zM290 482q30 0 57 -13t48 -38t33.5 -62t12.5 -85q0 -45 -12.5 -88.5t-37 -80.5t-59.5 -65.5t-80 -43.5l-59 -21q-30 0 -57 13t-48 38.5t-33.5 63t-12.5 85.5q0 45 12.5 88.5t37 80t59.5 65t80 43.5zM249 441
q-38 -11 -62 -39.5t-38.5 -64.5t-20 -74.5t-5.5 -70.5q0 -43 9.5 -73t24.5 -49.5t34.5 -29.5t40.5 -13q37 11 62 39.5t40 64.5t21 74.5t6 70.5q0 43 -10 73t-25.5 49.5t-35.5 29.5t-41 13z" />
    <glyph glyph-name="otilde" unicode="&#xf5;" horiz-adv-x="463" 
d="M216 675l67 22l129 -62l51 60h16l-41 -95l-65 -17l-130 62l-50 -60h-16zM290 482q30 0 57 -13t48 -38t33.5 -62t12.5 -85q0 -45 -12.5 -88.5t-37 -80.5t-59.5 -65.5t-80 -43.5l-59 -21q-30 0 -57 13t-48 38.5t-33.5 63t-12.5 85.5q0 45 12.5 88.5t37 80t59.5 65t80 43.5z
M249 441q-38 -11 -62 -39.5t-38.5 -64.5t-20 -74.5t-5.5 -70.5q0 -43 9.5 -73t24.5 -49.5t34.5 -29.5t40.5 -13q37 11 62 39.5t40 64.5t21 74.5t6 70.5q0 43 -10 73t-25.5 49.5t-35.5 29.5t-41 13z" />
    <glyph glyph-name="odieresis" unicode="&#xf6;" horiz-adv-x="463" 
d="M238 660l55 -5v-41l-15 -37l-11 -5l-63 5l4 43l18 35zM395 660l54 -5l1 -41l-16 -37l-10 -5l-63 5l4 43l17 35zM290 482q30 0 57 -13t48 -38t33.5 -62t12.5 -85q0 -45 -12.5 -88.5t-37 -80.5t-59.5 -65.5t-80 -43.5l-59 -21q-30 0 -57 13t-48 38.5t-33.5 63t-12.5 85.5
q0 45 12.5 88.5t37 80t59.5 65t80 43.5zM249 441q-38 -11 -62 -39.5t-38.5 -64.5t-20 -74.5t-5.5 -70.5q0 -43 9.5 -73t24.5 -49.5t34.5 -29.5t40.5 -13q37 11 62 39.5t40 64.5t21 74.5t6 70.5q0 43 -10 73t-25.5 49.5t-35.5 29.5t-41 13z" />
    <glyph glyph-name="divide" unicode="&#xf7;" 
d="M333 102l28 -4l4 -52l-4 -46l-70 -5l-28 5l-5 53l5 45zM47 271h525v-61h-525v61zM333 471l28 -4l4 -52l-4 -46l-70 -5l-28 5l-5 53l5 45z" />
    <glyph glyph-name="oslash" unicode="&#xf8;" horiz-adv-x="463" 
d="M290 482q30 0 57.5 -13t48.5 -39l45 48h47l-73 -77q12 -23 19 -52.5t7 -64.5q0 -45 -12.5 -88.5t-37 -80.5t-59.5 -65.5t-80 -43.5l-59 -21q-32 0 -61.5 15.5t-50.5 45.5l-41 -44h-48l71 75q-21 43 -21 108q0 45 12.5 88.5t37 80t59.5 65t80 43.5zM361 276q0 17 -2 32
t-5 28l-217 -231q14 -38 40 -55.5t55 -22.5q37 11 62 39.5t40 64.5t21 74.5t6 70.5zM249 441q-38 -11 -62 -39.5t-38.5 -64.5t-20 -74.5t-5.5 -70.5q0 -27 3 -48l216 229q-17 32 -42 47.5t-51 20.5z" />
    <glyph glyph-name="ugrave" unicode="&#xf9;" horiz-adv-x="509" 
d="M301 537l-77 172h90l13 -172h-26zM41 382l-10 26l160 74l22 -25l-57 -335q-7 -38 3.5 -53t27.5 -15q12 0 26.5 5.5t29 14t27.5 17.5t23 15l46 31l56 330h70l-71 -408l83 51l16 -24l-139 -101l-30 27l7 57l13 27l-172 -111q-29 0 -48 11t-29.5 27.5t-13.5 35.5t0 34
l57 323z" />
    <glyph glyph-name="uacute" unicode="&#xfa;" horiz-adv-x="509" 
d="M276 537l80 172h96l-146 -172h-30zM41 382l-10 26l160 74l22 -25l-57 -335q-7 -38 3.5 -53t27.5 -15q12 0 26.5 5.5t29 14t27.5 17.5t23 15l46 31l56 330h70l-71 -408l83 51l16 -24l-139 -101l-30 27l7 57l13 27l-172 -111q-29 0 -48 11t-29.5 27.5t-13.5 35.5t0 34
l57 323z" />
    <glyph glyph-name="ucircumflex" unicode="&#xfb;" horiz-adv-x="509" 
d="M198 537l115 172h61l53 -172h-30l-68 103l-101 -103h-30zM41 382l-10 26l160 74l22 -25l-57 -335q-7 -38 3.5 -53t27.5 -15q12 0 26.5 5.5t29 14t27.5 17.5t23 15l46 31l56 330h70l-71 -408l83 51l16 -24l-139 -101l-30 27l7 57l13 27l-172 -111q-29 0 -48 11t-29.5 27.5
t-13.5 35.5t0 34l57 323z" />
    <glyph glyph-name="udieresis" unicode="&#xfc;" horiz-adv-x="509" 
d="M238 660l54 -5l1 -41l-16 -37l-10 -5l-63 5l4 43l17 35zM394 660l55 -5l1 -41l-16 -37l-10 -5l-63 5l4 43l17 35zM41 382l-10 26l160 74l22 -25l-57 -335q-7 -38 3.5 -53t27.5 -15q12 0 26.5 5.5t29 14t27.5 17.5t23 15l46 31l56 330h70l-71 -408l83 51l16 -24l-139 -101
l-30 27l7 57l13 27l-172 -111q-29 0 -48 11t-29.5 27.5t-13.5 35.5t0 34l57 323z" />
    <glyph glyph-name="yacute" unicode="&#xfd;" horiz-adv-x="456" 
d="M236 537l80 172h96l-146 -172h-30zM205 2l-41 -2l-61 410l-87 -32l-15 23l128 81l53 -19l43 -429l173 320l-60 80l78 48l35 -53l-21 -109l-328 -555h-121l14 80h68z" />
    <glyph glyph-name="thorn" unicode="&#xfe;" horiz-adv-x="485" 
d="M86 632l-12 30l170 53l18 -19l-51 -295l-17 -44l134 125q28 -4 53 -16t44 -33.5t30 -53.5t11 -75q0 -48 -12 -94.5t-35.5 -87t-59 -71.5t-82.5 -48l-54 -18q-20 5 -41 10t-42 16l-6 -59l-34 -182h-71l156 890zM198 322l-43 -243q13 -9 29 -17t32 -14t31 -9.5t27 -3.5
q29 12 50 37.5t34.5 58.5t20 70t6.5 71q0 36 -6.5 62.5t-17 43.5t-23.5 26t-25 11z" />
    <glyph glyph-name="ydieresis" unicode="&#xff;" horiz-adv-x="456" 
d="M213 660l55 -5v-41l-15 -37l-11 -5l-63 5l4 43l17 35zM370 660l54 -5l1 -41l-16 -37l-10 -5l-63 5l4 43l17 35zM205 2l-41 -2l-61 410l-87 -32l-15 23l128 81l53 -19l43 -429l173 320l-60 80l78 48l35 -53l-21 -109l-328 -555h-121l14 80h68z" />
    <glyph glyph-name="Amacron" unicode="&#x100;" horiz-adv-x="655" 
d="M340 852h276l-8 -50h-276zM506 2l-131 -3l-1 31l91 13l-21 193h-220l-100 -193l88 -13l-9 -31l-111 3l-111 -3l-1 31l86 11l366 660l46 17l74 -677l79 -11l-8 -31zM248 281h191l-26 237l-2 73z" />
    <glyph glyph-name="amacron" unicode="&#x101;" horiz-adv-x="466" 
d="M206 650h276l-8 -50h-276zM362 59l84 52l16 -25l-140 -101l-38 31l10 60l15 41l-135 -132q-24 5 -47 16t-42 32.5t-30.5 55t-11.5 83.5q0 102 47.5 171.5t135.5 114.5l47 24q12 -1 30.5 -5t40 -10t44 -13t41.5 -14zM124 183q0 -27 6.5 -49.5t17 -39.5t23.5 -28t25 -15
l111 98l44 247q-9 7 -24 13.5t-32 11t-34 7t-29 2.5q-20 -14 -39 -36.5t-34.5 -53.5t-25 -70.5t-9.5 -86.5z" />
    <glyph glyph-name="Abreve" unicode="&#x102;" horiz-adv-x="655" 
d="M463 819q22 0 41 6.5t34 15.5t26.5 20t20.5 20l19 -18q-7 -8 -16.5 -21.5t-24.5 -29t-38.5 -31.5t-58.5 -29q-32 0 -53.5 11.5t-36 28.5t-23.5 36.5t-15 34.5l27 18q6 -9 13.5 -20t18.5 -20t27 -15.5t39 -6.5zM506 2l-131 -3l-1 31l91 13l-21 193h-220l-100 -193l88 -13
l-9 -31l-111 3l-111 -3l-1 31l86 11l366 660l46 17l74 -677l79 -11l-8 -31zM248 281h191l-26 237l-2 73z" />
    <glyph glyph-name="abreve" unicode="&#x103;" horiz-adv-x="466" 
d="M353 607q22 0 38.5 8t30 21t23.5 28.5t19 30.5l23 -18q-7 -11 -16.5 -27t-25 -33.5t-39.5 -36t-60 -34.5q-29 0 -51 13.5t-37 34t-24 43t-13 40.5l31 18q6 -15 13.5 -30.5t19 -28.5t28 -21t40.5 -8zM362 59l84 52l16 -25l-140 -101l-38 31l10 60l15 41l-135 -132
q-24 5 -47 16t-42 32.5t-30.5 55t-11.5 83.5q0 102 47.5 171.5t135.5 114.5l47 24q12 -1 30.5 -5t40 -10t44 -13t41.5 -14zM124 183q0 -27 6.5 -49.5t17 -39.5t23.5 -28t25 -15l111 98l44 247q-9 7 -24 13.5t-32 11t-34 7t-29 2.5q-20 -14 -39 -36.5t-34.5 -53.5t-25 -70.5
t-9.5 -86.5z" />
    <glyph glyph-name="Aogonek" unicode="&#x104;" horiz-adv-x="649" 
d="M230 236l-106 -193l88 -13l-10 -31l-110 3l-111 -3l-1 31l86 11l378 660l40 17l62 -677l79 -11l-8 -31l-133 3l-76 -114l-6 -33q-3 -20 3 -32t19 -19t31.5 -9.5t38.5 -2.5l-6 -30q-93 0 -128.5 25.5t-26.5 75.5l9 50l126 101l-19 222h-219zM425 518l-2 73l-168 -310h190z
" />
    <glyph glyph-name="aogonek" unicode="&#x105;" horiz-adv-x="466" 
d="M352 -238q-94 0 -129 25t-26 76l8 50l111 77l-32 26l10 60l15 41l-135 -132q-24 5 -47 16t-42 32.5t-30.5 55t-11.5 83.5q0 102 47.5 171.5t135.5 114.5l47 24q12 -1 30.5 -5t40 -10t44 -13t41.5 -14l-67 -381l84 52l16 -25l-90 -65l-96 -110l-11 -56q-4 -20 2.5 -32
t19.5 -19t31.5 -9.5t38.5 -2.5zM124 183q0 -27 6.5 -49.5t17 -39.5t23.5 -28t25 -15l111 98l44 247q-9 7 -24 13.5t-32 11t-34 7t-29 2.5q-20 -14 -39 -36.5t-34.5 -53.5t-25 -70.5t-9.5 -86.5z" />
    <glyph glyph-name="Cacute" unicode="&#x106;" horiz-adv-x="605" 
d="M409 766l61 132h100l-127 -132h-34zM328 -18q-64 0 -115 21.5t-87 62t-55.5 97.5t-19.5 129q0 57 13 117t44.5 115t85.5 100t136 72l76 24q37 0 70 -7.5t60 -19t48 -25t35 -26.5l-6 -136h-49l-20 97q-21 22 -65 39t-119 29q-107 -45 -161.5 -138t-54.5 -224
q0 -69 18 -120.5t48.5 -86t71.5 -53t87 -20.5q37 14 61 27t48 33l58 120h51l-36 -162z" />
    <glyph glyph-name="cacute" unicode="&#x107;" horiz-adv-x="401" 
d="M273 537l79 172h96l-145 -172h-30zM228 54q12 5 28 13t32.5 17t31.5 17.5t24 14.5l18 -22q-11 -9 -25.5 -19.5t-31.5 -22.5t-35 -23.5t-34 -21.5l-34 -22q-32 -1 -61 11.5t-51 37t-35 61.5t-13 85q0 46 13.5 90t40 81.5t64.5 67t87 47.5l46 16q8 0 21 -3t27.5 -8
t28.5 -11.5t23 -12.5l-41 -72q-24 18 -54.5 34.5t-51.5 27.5q-59 -29 -91.5 -89.5t-32.5 -146.5q0 -39 9.5 -66t24.5 -44.5t34 -26t38 -10.5z" />
    <glyph glyph-name="Ccircumflex" unicode="&#x108;" horiz-adv-x="605" 
d="M316 766l105 132h75l60 -132h-38l-71 81l-93 -81h-38zM328 -18q-64 0 -115 21.5t-87 62t-55.5 97.5t-19.5 129q0 57 13 117t44.5 115t85.5 100t136 72l76 24q37 0 70 -7.5t60 -19t48 -25t35 -26.5l-6 -136h-49l-20 97q-21 22 -65 39t-119 29q-107 -45 -161.5 -138
t-54.5 -224q0 -69 18 -120.5t48.5 -86t71.5 -53t87 -20.5q37 14 61 27t48 33l58 120h51l-36 -162z" />
    <glyph glyph-name="ccircumflex" unicode="&#x109;" horiz-adv-x="401" 
d="M183 537l115 172h61l53 -172h-30l-68 103l-101 -103h-30zM228 54q12 5 28 13t32.5 17t31.5 17.5t24 14.5l18 -22q-11 -9 -25.5 -19.5t-31.5 -22.5t-35 -23.5t-34 -21.5l-34 -22q-32 -1 -61 11.5t-51 37t-35 61.5t-13 85q0 46 13.5 90t40 81.5t64.5 67t87 47.5l46 16
q8 0 21 -3t27.5 -8t28.5 -11.5t23 -12.5l-41 -72q-24 18 -54.5 34.5t-51.5 27.5q-59 -29 -91.5 -89.5t-32.5 -146.5q0 -39 9.5 -66t24.5 -44.5t34 -26t38 -10.5z" />
    <glyph glyph-name="Cdotaccent" unicode="&#x10a;" horiz-adv-x="605" 
d="M415 865l21 5l56 -5l1 -43l-15 -40l-19 -4l-64 4l3 46zM328 -18q-64 0 -115 21.5t-87 62t-55.5 97.5t-19.5 129q0 57 13 117t44.5 115t85.5 100t136 72l76 24q37 0 70 -7.5t60 -19t48 -25t35 -26.5l-6 -136h-49l-20 97q-21 22 -65 39t-119 29q-107 -45 -161.5 -138
t-54.5 -224q0 -69 18 -120.5t48.5 -86t71.5 -53t87 -20.5q37 14 61 27t48 33l58 120h51l-36 -162z" />
    <glyph glyph-name="cdotaccent" unicode="&#x10b;" horiz-adv-x="401" 
d="M284 681l20 5l57 -5l1 -43l-16 -40l-19 -5l-64 5l4 46zM228 54q12 5 28 13t32.5 17t31.5 17.5t24 14.5l18 -22q-11 -9 -25.5 -19.5t-31.5 -22.5t-35 -23.5t-34 -21.5l-34 -22q-32 -1 -61 11.5t-51 37t-35 61.5t-13 85q0 46 13.5 90t40 81.5t64.5 67t87 47.5l46 16
q8 0 21 -3t27.5 -8t28.5 -11.5t23 -12.5l-41 -72q-24 18 -54.5 34.5t-51.5 27.5q-59 -29 -91.5 -89.5t-32.5 -146.5q0 -39 9.5 -66t24.5 -44.5t34 -26t38 -10.5z" />
    <glyph glyph-name="Ccaron" unicode="&#x10c;" horiz-adv-x="605" 
d="M577 898l-105 -132h-75l-60 132h38l70 -80l94 80h38zM328 -18q-64 0 -115 21.5t-87 62t-55.5 97.5t-19.5 129q0 57 13 117t44.5 115t85.5 100t136 72l76 24q37 0 70 -7.5t60 -19t48 -25t35 -26.5l-6 -136h-49l-20 97q-21 22 -65 39t-119 29q-107 -45 -161.5 -138
t-54.5 -224q0 -69 18 -120.5t48.5 -86t71.5 -53t87 -20.5q37 14 61 27t48 33l58 120h51l-36 -162z" />
    <glyph glyph-name="ccaron" unicode="&#x10d;" horiz-adv-x="401" 
d="M436 723l-116 -174h-61l-53 174h30l69 -105l101 105h30zM228 54q12 5 28 13t32.5 17t31.5 17.5t24 14.5l18 -22q-11 -9 -25.5 -19.5t-31.5 -22.5t-35 -23.5t-34 -21.5l-34 -22q-32 -1 -61 11.5t-51 37t-35 61.5t-13 85q0 46 13.5 90t40 81.5t64.5 67t87 47.5l46 16
q8 0 21 -3t27.5 -8t28.5 -11.5t23 -12.5l-41 -72q-24 18 -54.5 34.5t-51.5 27.5q-59 -29 -91.5 -89.5t-32.5 -146.5q0 -39 9.5 -66t24.5 -44.5t34 -26t38 -10.5z" />
    <glyph glyph-name="Dcaron" unicode="&#x10e;" horiz-adv-x="664" 
d="M514 898l-105 -132h-74l-60 132h38l70 -80l93 80h38zM265 662l-96 -606h186q41 21 78.5 53t66.5 74.5t46.5 94.5t17.5 111q0 69 -16.5 119t-45.5 83t-67.5 50.5t-82.5 20.5h-87zM118 2l-127 -3l-2 31l94 13l98 620l-95 8l9 30l126 -3l173 3q61 1 110 -19.5t83 -59.5
t52 -94.5t18 -124.5q0 -54 -15.5 -110.5t-49.5 -107.5t-87 -93t-129 -67l-81 -26z" />
    <glyph glyph-name="dcaron" unicode="&#x10f;" horiz-adv-x="551" 
d="M532 675l7 40h92l-14 -80l-77 -106l-31 10l40 101zM287 16l12 60l16 41l-137 -132q-25 4 -49 14.5t-43.5 32.5t-31.5 56.5t-12 85.5q0 45 10 87.5t31.5 80t54.5 67.5t79 50l54 23q16 -1 41.5 -7t54.5 -16l36 201l-100 -28l-11 30l169 53l18 -20l-113 -636l83 51l16 -24
l-139 -101zM122 184q0 -62 22 -94t48 -41l121 104l42 241q-9 7 -26 13.5t-36 11t-37 7.5t-28 3q-25 -16 -45 -42.5t-33.5 -59t-20.5 -69.5t-7 -74z" />
    <glyph glyph-name="Dcroat" unicode="&#x110;" horiz-adv-x="664" 
d="M118 2l-127 -3l-2 31l94 13l47 296h-92l8 48h91l44 276l-95 8l9 30l126 -3l173 3q61 1 110 -19.5t83 -59.5t52 -94.5t18 -124.5q0 -54 -15.5 -110.5t-49.5 -107.5t-87 -93t-129 -67l-81 -26zM265 662l-44 -275h127l-8 -48h-126l-45 -283h186q41 21 78.5 53t66.5 74.5
t46.5 94.5t17.5 111q0 69 -16.5 119t-45.5 83t-67.5 50.5t-82.5 20.5h-87z" />
    <glyph glyph-name="dcroat" unicode="&#x111;" horiz-adv-x="488" 
d="M287 16l12 60l16 41l-137 -132q-25 4 -49 14.5t-43.5 32.5t-31.5 56.5t-12 85.5q0 45 10 87.5t31.5 80t54.5 67.5t79 50l54 23q16 -1 41.5 -7t54.5 -16l18 101h-121l7 39h121l11 61l-100 -28l-11 30l169 53l18 -20l-17 -96h74l-7 -39h-74l-89 -501l83 51l16 -24
l-139 -101zM122 184q0 -62 22 -94t48 -41l121 104l42 241q-9 7 -26 13.5t-36 11t-37 7.5t-28 3q-25 -16 -45 -42.5t-33.5 -59t-20.5 -69.5t-7 -74z" />
    <glyph glyph-name="Emacron" unicode="&#x112;" horiz-adv-x="582" 
d="M246 852h276l-8 -50h-276zM597 701v-165h-28l-42 119l-261 3l-42 -273l148 4l61 105h25l-35 -128l-9 -126h-25l-23 104l-149 4l-49 -306l280 3l76 135h33l-40 -181l-389 3l-138 -3l-1 31l95 13l98 615l-91 13l9 30l139 -3z" />
    <glyph glyph-name="emacron" unicode="&#x113;" horiz-adv-x="414" 
d="M173 650h276l-7 -50h-276zM258 438q-29 -11 -50.5 -30.5t-37 -45t-25.5 -55t-16 -59.5l175 74q5 16 8 28t3 24q0 35 -16.5 48t-40.5 16zM228 53q26 11 56 28.5t56 35.5l18 -24q-8 -7 -21 -18t-29 -23t-33.5 -24.5t-34.5 -22.5l-30 -20q-39 -2 -70 11t-53 37.5t-33.5 58.5
t-11.5 75q0 48 13.5 93.5t39 85.5t63 71.5t85.5 49.5l38 15q24 -4 44.5 -10.5t35.5 -18t23.5 -29t8.5 -43.5q0 -31 -19 -86l-251 -81q-1 -8 -1 -16v-15q-1 -37 9 -62.5t26 -41.5t35 -22t36 -4z" />
    <glyph glyph-name="Ebreve" unicode="&#x114;" horiz-adv-x="582" 
d="M380 819q22 0 41 6.5t34 15.5t27 20t21 20l18 -18q-7 -8 -16.5 -21.5t-24.5 -29t-38.5 -31.5t-58.5 -29q-32 0 -53.5 11.5t-36 28.5t-23.5 36.5t-15 34.5l27 18q6 -9 13.5 -20t18.5 -20t27 -15.5t39 -6.5zM597 701v-165h-28l-42 119l-261 3l-42 -273l148 4l61 105h25
l-35 -128l-9 -126h-25l-23 104l-149 4l-49 -306l280 3l76 135h33l-40 -181l-389 3l-138 -3l-1 31l95 13l98 615l-91 13l9 30l139 -3z" />
    <glyph glyph-name="ebreve" unicode="&#x115;" horiz-adv-x="414" 
d="M299 607q22 0 38.5 8t30 21t23.5 28.5t19 30.5l24 -18q-7 -11 -16.5 -27t-25 -33.5t-39.5 -36t-60 -34.5q-29 0 -51 13.5t-37 34t-24 43t-13 40.5l30 18q6 -15 13.5 -30.5t19 -28.5t28 -21t40.5 -8zM258 438q-29 -11 -50.5 -30.5t-37 -45t-25.5 -55t-16 -59.5l175 74
q5 16 8 28t3 24q0 35 -16.5 48t-40.5 16zM228 53q26 11 56 28.5t56 35.5l18 -24q-8 -7 -21 -18t-29 -23t-33.5 -24.5t-34.5 -22.5l-30 -20q-39 -2 -70 11t-53 37.5t-33.5 58.5t-11.5 75q0 48 13.5 93.5t39 85.5t63 71.5t85.5 49.5l38 15q24 -4 44.5 -10.5t35.5 -18t23.5 -29
t8.5 -43.5q0 -31 -19 -86l-251 -81q-1 -8 -1 -16v-15q-1 -37 9 -62.5t26 -41.5t35 -22t36 -4z" />
    <glyph glyph-name="Edotaccent" unicode="&#x116;" horiz-adv-x="582" 
d="M346 867l21 5l56 -5l1 -43l-15 -40l-19 -4l-64 4l3 46zM597 701v-165h-28l-42 119l-261 3l-42 -273l148 4l61 105h25l-35 -128l-9 -126h-25l-23 104l-149 4l-49 -306l280 3l76 135h33l-40 -181l-389 3l-138 -3l-1 31l95 13l98 615l-91 13l9 30l139 -3z" />
    <glyph glyph-name="edotaccent" unicode="&#x117;" horiz-adv-x="414" 
d="M264 681l21 5l56 -5l1 -43l-15 -40l-20 -5l-64 5l4 46zM258 438q-29 -11 -50.5 -30.5t-37 -45t-25.5 -55t-16 -59.5l175 74q5 16 8 28t3 24q0 35 -16.5 48t-40.5 16zM228 53q26 11 56 28.5t56 35.5l18 -24q-8 -7 -21 -18t-29 -23t-33.5 -24.5t-34.5 -22.5l-30 -20
q-39 -2 -70 11t-53 37.5t-33.5 58.5t-11.5 75q0 48 13.5 93.5t39 85.5t63 71.5t85.5 49.5l38 15q24 -4 44.5 -10.5t35.5 -18t23.5 -29t8.5 -43.5q0 -31 -19 -86l-251 -81q-1 -8 -1 -16v-15q-1 -37 9 -62.5t26 -41.5t35 -22t36 -4z" />
    <glyph glyph-name="Eogonek" unicode="&#x118;" horiz-adv-x="582" 
d="M469 -238q-93 0 -128.5 25.5t-26.5 75.5l8 50l109 87l-303 2l-138 -3l-1 31l95 13l98 615l-91 13l9 30l139 -3l358 3v-165h-28l-42 119l-261 3l-42 -273l148 4l61 105h25l-35 -128l-9 -126h-25l-23 104l-149 4l-49 -306l280 3l76 135h33l-40 -181h-52l-77 -111l-6 -33
q-3 -20 3.5 -32t19.5 -19t31 -9.5t38 -2.5z" />
    <glyph glyph-name="eogonek" unicode="&#x119;" horiz-adv-x="414" 
d="M230 -238q-94 0 -129 25t-26 76l8 54l79 62q0 1 7.5 4t9.5 4q-65 7 -101 56.5t-36 123.5q0 48 13.5 93.5t39 85.5t63 71.5t85.5 49.5l38 15q24 -4 44.5 -10.5t35.5 -18t23.5 -29t8.5 -43.5q0 -31 -19 -86l-251 -81q-1 -8 -1 -16v-15q-1 -37 9 -62.5t26 -41.5t35 -22
t36 -4q26 11 56 28.5t56 35.5l18 -24q-8 -8 -22.5 -19t-32 -24t-36.5 -26t-37 -23l-82 -117l-5 -29q-3 -20 3 -32t19 -19t31.5 -9.5t38.5 -2.5zM258 438q-29 -11 -50.5 -30.5t-37 -45t-25.5 -55t-16 -59.5l175 74q5 16 8 28t3 24q0 35 -16.5 48t-40.5 16z" />
    <glyph glyph-name="Ecaron" unicode="&#x11a;" horiz-adv-x="582" 
d="M512 898l-105 -132h-75l-60 132h38l70 -80l94 80h38zM597 701v-165h-28l-42 119l-261 3l-42 -273l148 4l61 105h25l-35 -128l-9 -126h-25l-23 104l-149 4l-49 -306l280 3l76 135h33l-40 -181l-389 3l-138 -3l-1 31l95 13l98 615l-91 13l9 30l139 -3z" />
    <glyph glyph-name="ecaron" unicode="&#x11b;" horiz-adv-x="414" 
d="M438 725l-116 -174h-61l-53 174h30l68 -104l102 104h30zM258 438q-29 -11 -50.5 -30.5t-37 -45t-25.5 -55t-16 -59.5l175 74q5 16 8 28t3 24q0 35 -16.5 48t-40.5 16zM228 53q26 11 56 28.5t56 35.5l18 -24q-8 -7 -21 -18t-29 -23t-33.5 -24.5t-34.5 -22.5l-30 -20
q-39 -2 -70 11t-53 37.5t-33.5 58.5t-11.5 75q0 48 13.5 93.5t39 85.5t63 71.5t85.5 49.5l38 15q24 -4 44.5 -10.5t35.5 -18t23.5 -29t8.5 -43.5q0 -31 -19 -86l-251 -81q-1 -8 -1 -16v-15q-1 -37 9 -62.5t26 -41.5t35 -22t36 -4z" />
    <glyph glyph-name="Gcircumflex" unicode="&#x11c;" horiz-adv-x="652" 
d="M297 766l105 132h75l60 -132h-38l-71 81l-93 -81h-38zM491 284l-85 13l9 26l117 1l115 3v-30l-72 -13l-36 -233l-231 -69q-64 0 -116 19.5t-88.5 57.5t-56.5 93.5t-20 127.5q0 58 16 120.5t52.5 120t95.5 104t144 72.5l73 21q33 0 63.5 -7t56 -18.5t45.5 -25.5t33 -27
l-2 -128h-50l-23 93q-9 11 -26 22.5t-39 21.5t-47.5 16t-51.5 6q-55 -23 -100.5 -55t-78 -76.5t-50.5 -103t-18 -134.5q0 -68 17.5 -118.5t48 -84.5t71 -51t86.5 -19q35 12 66 28t51 31z" />
    <glyph glyph-name="gcircumflex" unicode="&#x11d;" horiz-adv-x="463" 
d="M200 539l116 172h60l54 -172h-30l-69 103l-101 -103h-30zM21 -235l12 72h178q25 15 48.5 52t31.5 84l16 102l15 41l-135 -131q-25 4 -49 15t-43.5 32.5t-31.5 56t-12 85.5q0 45 9.5 87.5t30.5 79.5t53 66.5t77 49.5l60 25q12 0 31.5 -3.5t42 -9.5t45.5 -15t43 -20
l-89 -492q-5 -28 -30 -54t-66 -59l-83 -64h-154zM132 184q0 -31 6 -54t15.5 -39t22 -26.5t25.5 -15.5l120 100l45 243q-9 7 -24.5 14t-33.5 11.5t-37 7.5t-35 3q-24 -16 -43.5 -42t-33 -58.5t-20.5 -69.5t-7 -74z" />
    <glyph glyph-name="Gbreve" unicode="&#x11e;" horiz-adv-x="652" 
d="M426 819q22 0 41 6.5t34 15.5t26.5 20t20.5 20l18 -18q-7 -8 -16.5 -21.5t-24.5 -29t-38.5 -31.5t-58.5 -29q-32 0 -53 11.5t-35.5 28.5t-23.5 36.5t-16 34.5l28 18q5 -9 12.5 -20t19 -20t27.5 -15.5t39 -6.5zM491 284l-85 13l9 26l117 1l115 3v-30l-72 -13l-36 -233
l-231 -69q-64 0 -116 19.5t-88.5 57.5t-56.5 93.5t-20 127.5q0 58 16 120.5t52.5 120t95.5 104t144 72.5l73 21q33 0 63.5 -7t56 -18.5t45.5 -25.5t33 -27l-2 -128h-50l-23 93q-9 11 -26 22.5t-39 21.5t-47.5 16t-51.5 6q-55 -23 -100.5 -55t-78 -76.5t-50.5 -103
t-18 -134.5q0 -68 17.5 -118.5t48 -84.5t71 -51t86.5 -19q35 12 66 28t51 31z" />
    <glyph glyph-name="gbreve" unicode="&#x11f;" horiz-adv-x="463" 
d="M330 607q22 0 38.5 8t30 21t23.5 28.5t19 30.5l24 -18q-7 -11 -16.5 -27t-25 -33.5t-39.5 -36t-60 -34.5q-29 0 -51 13.5t-37 34t-24 43t-13 40.5l30 18q6 -15 13.5 -30.5t19 -28.5t28 -21t40.5 -8zM21 -235l12 72h178q25 15 48.5 52t31.5 84l16 102l15 41l-135 -131
q-25 4 -49 15t-43.5 32.5t-31.5 56t-12 85.5q0 45 9.5 87.5t30.5 79.5t53 66.5t77 49.5l60 25q12 0 31.5 -3.5t42 -9.5t45.5 -15t43 -20l-89 -492q-5 -28 -30 -54t-66 -59l-83 -64h-154zM132 184q0 -31 6 -54t15.5 -39t22 -26.5t25.5 -15.5l120 100l45 243q-9 7 -24.5 14
t-33.5 11.5t-37 7.5t-35 3q-24 -16 -43.5 -42t-33 -58.5t-20.5 -69.5t-7 -74z" />
    <glyph glyph-name="Gdotaccent" unicode="&#x120;" horiz-adv-x="652" 
d="M419 865l21 5l56 -5l1 -43l-15 -40l-20 -4l-64 4l4 46zM491 284l-85 13l9 26l117 1l115 3v-30l-72 -13l-36 -233l-231 -69q-64 0 -116 19.5t-88.5 57.5t-56.5 93.5t-20 127.5q0 58 16 120.5t52.5 120t95.5 104t144 72.5l73 21q33 0 63.5 -7t56 -18.5t45.5 -25.5t33 -27
l-2 -128h-50l-23 93q-9 11 -26 22.5t-39 21.5t-47.5 16t-51.5 6q-55 -23 -100.5 -55t-78 -76.5t-50.5 -103t-18 -134.5q0 -68 17.5 -118.5t48 -84.5t71 -51t86.5 -19q35 12 66 28t51 31z" />
    <glyph glyph-name="gdotaccent" unicode="&#x121;" horiz-adv-x="463" 
d="M301 681l21 5l56 -5l1 -43l-15 -40l-19 -5l-64 5l3 46zM21 -235l12 72h178q25 15 48.5 52t31.5 84l16 102l15 41l-135 -131q-25 4 -49 15t-43.5 32.5t-31.5 56t-12 85.5q0 45 9.5 87.5t30.5 79.5t53 66.5t77 49.5l60 25q12 0 31.5 -3.5t42 -9.5t45.5 -15t43 -20l-89 -492
q-5 -28 -30 -54t-66 -59l-83 -64h-154zM132 184q0 -31 6 -54t15.5 -39t22 -26.5t25.5 -15.5l120 100l45 243q-9 7 -24.5 14t-33.5 11.5t-37 7.5t-35 3q-24 -16 -43.5 -42t-33 -58.5t-20.5 -69.5t-7 -74z" />
    <glyph glyph-name="Gcommaaccent" unicode="&#x122;" horiz-adv-x="652" 
d="M244 -90l7 40h92l-14 -80l-77 -106l-31 10l40 101zM491 284l-85 13l9 26l117 1l115 3v-30l-72 -13l-36 -233l-231 -69q-64 0 -116 19.5t-88.5 57.5t-56.5 93.5t-20 127.5q0 58 16 120.5t52.5 120t95.5 104t144 72.5l73 21q33 0 63.5 -7t56 -18.5t45.5 -25.5t33 -27
l-2 -128h-50l-23 93q-9 11 -26 22.5t-39 21.5t-47.5 16t-51.5 6q-55 -23 -100.5 -55t-78 -76.5t-50.5 -103t-18 -134.5q0 -68 17.5 -118.5t48 -84.5t71 -51t86.5 -19q35 12 66 28t51 31z" />
    <glyph glyph-name="gcommaaccent" unicode="&#x123;" horiz-adv-x="463" 
d="M358 584l-7 -40h-92l14 80l77 106l31 -10l-40 -101zM21 -235l12 72h178q25 15 48.5 52t31.5 84l16 102l15 41l-135 -131q-25 4 -49 15t-43.5 32.5t-31.5 56t-12 85.5q0 45 9.5 87.5t30.5 79.5t53 66.5t77 49.5l60 25q12 0 31.5 -3.5t42 -9.5t45.5 -15t43 -20l-89 -492
q-5 -28 -30 -54t-66 -59l-83 -64h-154zM132 184q0 -31 6 -54t15.5 -39t22 -26.5t25.5 -15.5l120 100l45 243q-9 7 -24.5 14t-33.5 11.5t-37 7.5t-35 3q-24 -16 -43.5 -42t-33 -58.5t-20.5 -69.5t-7 -74z" />
    <glyph glyph-name="Hcircumflex" unicode="&#x124;" horiz-adv-x="682" 
d="M305 766l105 132h75l59 -132h-38l-70 81l-93 -81h-38zM89 670l9 31l131 -3l126 3l1 -31l-92 -13l-44 -270h297l42 270l-91 13l9 31l134 -3l120 3l1 -31l-90 -13l-98 -614l86 -13l-9 -31l-121 3l-134 -3l-1 31l96 13l48 296h-296l-47 -296l88 -13l-9 -31l-127 3l-128 -3
l-1 31l94 13l98 614z" />
    <glyph glyph-name="hcircumflex" unicode="&#x125;" horiz-adv-x="492" 
d="M94 766l105 132h75l59 -132h-38l-70 81l-93 -81h-38zM117 0h-70l117 660l-100 -28l-12 30l170 53l18 -19l-51 -291l-14 -29l168 106q29 0 48.5 -9.5t31 -25t14.5 -34.5t0 -37l-56 -319l84 53l16 -24l-140 -101l-39 30l58 325q6 32 0.5 52t-33.5 20q-23 0 -51.5 -14
t-49.5 -29l-49 -34z" />
    <glyph glyph-name="Hbar" unicode="&#x126;" horiz-adv-x="682" 
d="M89 670l9 31l131 -3l126 3l1 -31l-92 -13l-29 -173h297l27 173l-91 13l9 31l134 -3l120 3l1 -31l-90 -13l-98 -614l86 -13l-9 -31l-121 3l-134 -3l-1 31l96 13l48 296h-296l-47 -296l88 -13l-9 -31l-127 3l-128 -3l-1 31l94 13l98 614zM517 387l9 59h-297l-9 -59h297z
" />
    <glyph glyph-name="hbar" unicode="&#x127;" horiz-adv-x="492" 
d="M117 0h-70l99 560h-64l7 39h64l11 61l-100 -28l-12 30l170 53l18 -19l-17 -97h131l-7 -39h-131l-27 -155l-14 -29l168 106q29 0 48.5 -9.5t31 -25t14.5 -34.5t0 -37l-56 -319l84 53l16 -24l-140 -101l-39 30l58 325q6 32 0.5 52t-33.5 20q-23 0 -51.5 -14t-49.5 -29
l-49 -34z" />
    <glyph glyph-name="Itilde" unicode="&#x128;" horiz-adv-x="304" 
d="M135 866l67 22l129 -62l51 60h16l-41 -95l-65 -17l-130 62l-50 -60h-16zM166 43l86 -13l-9 -31l-128 3l-126 -3l-1 31l94 13l98 614l-92 13l9 31l127 -3l129 3l1 -31l-90 -13z" />
    <glyph glyph-name="itilde" unicode="&#x129;" horiz-adv-x="279" 
d="M98 675l67 22l129 -62l51 60h16l-41 -95l-65 -17l-130 62l-50 -60h-16zM47 382l-10 26l160 74l23 -26l-70 -399l84 53l16 -24l-139 -101l-39 30l72 401z" />
    <glyph glyph-name="Imacron" unicode="&#x12a;" horiz-adv-x="304" 
d="M114 852h276l-8 -50h-276zM166 43l86 -13l-9 -31l-128 3l-126 -3l-1 31l94 13l98 614l-92 13l9 31l127 -3l129 3l1 -31l-90 -13z" />
    <glyph glyph-name="imacron" unicode="&#x12b;" horiz-adv-x="279" 
d="M74 650h276l-8 -50h-276zM47 382l-10 26l160 74l23 -26l-70 -399l84 53l16 -24l-139 -101l-39 30l72 401z" />
    <glyph glyph-name="Ibreve" unicode="&#x12c;" horiz-adv-x="304" 
d="M250 819q22 0 41 6.5t34 15.5t27 20t21 20l18 -18q-7 -8 -16.5 -21.5t-24.5 -29t-38.5 -31.5t-58.5 -29q-32 0 -53.5 11.5t-36 28.5t-23.5 36.5t-15 34.5l27 18q6 -9 13.5 -20t18.5 -20t27 -15.5t39 -6.5zM166 43l86 -13l-9 -31l-128 3l-126 -3l-1 31l94 13l98 614
l-92 13l9 31l127 -3l129 3l1 -31l-90 -13z" />
    <glyph glyph-name="ibreve" unicode="&#x12d;" horiz-adv-x="279" 
d="M208 607q22 0 38.5 8t30 21t23.5 28.5t19 30.5l23 -18q-7 -11 -16.5 -27t-25 -33.5t-39.5 -36t-60 -34.5q-29 0 -51 13.5t-37 34t-24 43t-13 40.5l31 18q6 -15 13.5 -30.5t19 -28.5t28 -21t40.5 -8zM47 382l-10 26l160 74l23 -26l-70 -399l84 53l16 -24l-139 -101l-39 30
l72 401z" />
    <glyph glyph-name="Iogonek" unicode="&#x12e;" horiz-adv-x="304" 
d="M166 43l86 -13l-9 -31l-116 2l-58 -113l-6 -33q-3 -20 3 -32t19 -19t31.5 -9.5t38.5 -2.5l-5 -30q-94 0 -129 25t-26 76l8 50l92 88l-106 -2l-1 31l94 13l98 614l-92 13l9 31l127 -3l129 3l1 -31l-90 -13z" />
    <glyph glyph-name="iogonek" unicode="&#x12f;" horiz-adv-x="279" 
d="M188 687l25 4l51 -4v-43l-15 -39l-24 -4l-57 4l4 46zM150 -238q-94 0 -129 25t-26 76l8 50l100 78l-31 24l72 401l-97 -34l-10 26l160 74l23 -26l-70 -399l84 53l16 -24l-88 -63l-93 -135l-6 -33q-3 -20 3 -32t19 -19t31.5 -9.5t38.5 -2.5z" />
    <glyph glyph-name="Idotaccent" unicode="&#x130;" horiz-adv-x="304" 
d="M216 867l21 5l56 -5l1 -43l-15 -40l-19 -4l-64 4l3 46zM166 43l86 -13l-9 -31l-128 3l-126 -3l-1 31l94 13l98 614l-92 13l9 31l127 -3l129 3l1 -31l-90 -13z" />
    <glyph glyph-name="dotlessi" unicode="&#x131;" horiz-adv-x="279" 
d="M47 382l-10 26l160 74l23 -26l-70 -399l84 53l16 -24l-139 -101l-39 30l72 401z" />
    <glyph glyph-name="IJ" unicode="&#x132;" horiz-adv-x="568" 
d="M167 43l90 -13l-9 -31l-132 3l-126 -3l-1 31l94 13l98 614l-92 13l9 31l127 -3l95 3l1 -31l-56 -13zM171 -175l15 74h94q16 19 26 36.5t16.5 39t11 48.5t10.5 64l90 570l-58 13l9 31l95 -3l127 3l1 -31l-90 -13l-90 -570q-9 -64 -20 -100t-37 -59l-124 -103h-76z" />
    <glyph glyph-name="ij" unicode="&#x133;" horiz-adv-x="456" 
d="M188 687l25 4l51 -4v-43l-15 -39l-24 -4l-57 4l4 46zM47 382l-10 26l160 74l23 -26l-70 -399l54 35l16 -24l-109 -83l-39 30l72 401zM87 -235l12 73h117q15 17 25 38.5t12 37.5l90 502l-67 -22l-10 26l130 62l23 -26l-90 -502q-6 -33 -16 -64t-30 -43l-127 -82h-69z
M386 687l25 4l51 -4v-43l-16 -39l-23 -4l-57 4l4 46z" />
    <glyph glyph-name="Jcircumflex" unicode="&#x134;" horiz-adv-x="295" 
d="M110 766l105 132h75l60 -132h-38l-71 81l-93 -81h-38zM-79 -175l16 74h99q14 19 23 36.5t15 39t10.5 48.5t9.5 64l90 570l-88 13l9 31l125 -3l127 3l1 -31l-90 -13l-89 -570q-5 -32 -9.5 -56.5t-11 -43.5t-15.5 -33t-22 -26l-124 -103h-76z" />
    <glyph glyph-name="jcircumflex" unicode="&#x135;" horiz-adv-x="264" 
d="M88 537l115 172h61l54 -172h-30l-69 103l-101 -103h-30zM-105 -235l12 73h118q15 17 24.5 38.5t12.5 37.5l89 502l-96 -34l-11 26l160 74l23 -26l-90 -502q-6 -33 -16 -64t-30 -43l-127 -82h-69z" />
    <glyph glyph-name="Kcommaaccent" unicode="&#x136;" horiz-adv-x="659" 
d="M259 -90l7 40h92l-14 -80l-78 -106l-31 10l41 101zM224 390l23 16l280 251l-61 13l4 31l114 -3l90 3v-31l-86 -13l-295 -266l20 -15l259 -330l51 -16l-9 -31l-73 3l-56 -3l-251 347l-13 28l-52 -331l76 -13l-10 -31l-117 3l-128 -3v31l95 13l96 614l-91 13l9 31l126 -3
l119 3l1 -31l-79 -13z" />
    <glyph glyph-name="kcommaaccent" unicode="&#x137;" horiz-adv-x="462" 
d="M131 -90l7 40h92l-14 -80l-77 -106l-31 10l40 101zM62 635l-11 28l170 53l18 -19l-73 -417l18 5l185 187h88l-18 -82h-52q-26 -7 -47 -19t-47 -34l-80 -66l14 -6l113 -211l93 59l16 -25l-140 -103l-29 22l-119 248l-44 -255h-70l116 663z" />
    <glyph glyph-name="kgreenlandic" unicode="&#x138;" horiz-adv-x="487" 
d="M191 280l19 5l185 187h87l-18 -82h-52q-25 -7 -46.5 -19t-47.5 -34l-80 -66l14 -6l113 -211l94 59l16 -25l-141 -103l-29 22l-119 248l-43 -255h-71l73 416l-96 -34l-10 26l160 74l23 -26z" />
    <glyph glyph-name="Lacute" unicode="&#x139;" horiz-adv-x="546" 
d="M211 766l62 132h112l-140 -132h-34zM231 698l129 3l1 -31l-96 -13l-98 -615l236 3l97 134h33l-61 -180l-346 3l-136 -3l-1 31l93 13l99 614l-92 13l9 31z" />
    <glyph glyph-name="lacute" unicode="&#x13a;" horiz-adv-x="257" 
d="M194 766l62 132h112l-140 -132h-34zM72 632l-11 30l170 53l17 -19l-112 -638l84 52l16 -24l-140 -101l-38 30l114 646z" />
    <glyph glyph-name="Lcommaaccent" unicode="&#x13b;" horiz-adv-x="546" 
d="M198 -90l7 40h92l-14 -80l-78 -106l-31 10l41 101zM231 698l129 3l1 -31l-96 -13l-98 -615l236 3l97 134h33l-61 -180l-346 3l-136 -3l-1 31l93 13l99 614l-92 13l9 31z" />
    <glyph glyph-name="lcommaaccent" unicode="&#x13c;" horiz-adv-x="257" 
d="M40 -90l7 40h92l-14 -80l-78 -106l-31 10l41 101zM72 632l-11 30l170 53l17 -19l-112 -638l84 52l16 -24l-140 -101l-38 30l114 646z" />
    <glyph glyph-name="Lcaron" unicode="&#x13d;" horiz-adv-x="546" 
d="M547 710l37 -4l-6 -53l-11 -46l-89 -142l-31 13q8 13 17 31t17.5 35.5t14.5 33t8 25.5l-37 4l5 53l18 46zM231 698l129 3l1 -31l-96 -13l-98 -615l236 3l97 134h33l-61 -180l-346 3l-136 -3l-1 31l93 13l99 614l-92 13l9 31z" />
    <glyph glyph-name="lcaron" unicode="&#x13e;" horiz-adv-x="391" 
d="M314 675l7 40h92l-14 -80l-77 -106l-31 10l40 101zM72 632l-11 30l170 53l17 -19l-112 -638l84 52l16 -24l-140 -101l-38 30l114 646z" />
    <glyph glyph-name="Ldot" unicode="&#x13f;" horiz-adv-x="546" 
d="M390 456l27 -4l-5 -53l-13 -45l-71 -5l-27 5l5 53l13 45zM231 698l129 3l1 -31l-96 -13l-98 -615l236 3l97 134h33l-61 -180l-346 3l-136 -3l-1 31l93 13l99 614l-92 13l9 31z" />
    <glyph glyph-name="ldot" unicode="&#x140;" horiz-adv-x="382" 
d="M341 456l27 -4l-5 -53l-12 -45l-71 -5l-27 5l4 53l13 45zM72 632l-11 30l170 53l17 -19l-112 -638l84 52l16 -24l-140 -101l-38 30l114 646z" />
    <glyph glyph-name="Lslash" unicode="&#x141;" horiz-adv-x="546" 
d="M231 698l129 3l1 -31l-96 -13l-37 -232l110 50l-8 -44l-109 -50l-54 -339l236 3l97 134h33l-61 -180l-346 3l-136 -3l-1 31l93 13l48 297l-97 -44l8 44l96 43l44 274l-92 13l9 31z" />
    <glyph glyph-name="lslash" unicode="&#x142;" horiz-adv-x="257" 
d="M72 632l-11 30l170 53l17 -19l-45 -257l85 39l-8 -46l-85 -39l-59 -335l84 52l16 -24l-140 -101l-38 30l60 343l-79 -36l9 46l78 36l46 257z" />
    <glyph glyph-name="Nacute" unicode="&#x143;" horiz-adv-x="708" 
d="M391 766l61 132h112l-139 -132h-34zM139 43l83 -13l-9 -31l-105 3l-118 -3l-1 31l94 13l96 605l-87 22l10 31l95 -3l56 3l259 -511l18 -66l80 533l-87 13l10 31l110 -3l119 3v-31l-96 -13l-103 -657h-46l-275 551l-10 74z" />
    <glyph glyph-name="nacute" unicode="&#x144;" horiz-adv-x="515" 
d="M293 537l79 172h96l-145 -172h-30zM384 340q6 32 0.5 52t-33.5 20q-24 0 -52.5 -14t-50.5 -29l-48 -34l-60 -335h-70l74 417l-97 -35l-10 26l160 74l24 -27l-10 -51l-13 -28l169 106q30 0 49.5 -9.5t30.5 -25t14.5 -34.5t0.5 -37l-57 -318l83 52l16 -24l-139 -101l-39 30
z" />
    <glyph glyph-name="Ncommaaccent" unicode="&#x145;" horiz-adv-x="708" 
d="M263 -90l7 40h92l-14 -80l-78 -106l-31 10l41 101zM139 43l83 -13l-9 -31l-105 3l-118 -3l-1 31l94 13l96 605l-87 22l10 31l95 -3l56 3l259 -511l18 -66l80 533l-87 13l10 31l110 -3l119 3v-31l-96 -13l-103 -657h-46l-275 551l-10 74z" />
    <glyph glyph-name="ncommaaccent" unicode="&#x146;" horiz-adv-x="515" 
d="M169 -90l7 40h92l-14 -80l-77 -106l-31 10l40 101zM384 340q6 32 0.5 52t-33.5 20q-24 0 -52.5 -14t-50.5 -29l-48 -34l-60 -335h-70l74 417l-97 -35l-10 26l160 74l24 -27l-10 -51l-13 -28l169 106q30 0 49.5 -9.5t30.5 -25t14.5 -34.5t0.5 -37l-57 -318l83 52l16 -24
l-139 -101l-39 30z" />
    <glyph glyph-name="Ncaron" unicode="&#x147;" horiz-adv-x="708" 
d="M561 898l-105 -132h-75l-60 132h38l70 -80l94 80h38zM139 43l83 -13l-9 -31l-105 3l-118 -3l-1 31l94 13l96 605l-87 22l10 31l95 -3l56 3l259 -511l18 -66l80 533l-87 13l10 31l110 -3l119 3v-31l-96 -13l-103 -657h-46l-275 551l-10 74z" />
    <glyph glyph-name="ncaron" unicode="&#x148;" horiz-adv-x="515" 
d="M461 723l-116 -174h-61l-53 174h30l68 -105l102 105h30zM384 340q6 32 0.5 52t-33.5 20q-24 0 -52.5 -14t-50.5 -29l-48 -34l-60 -335h-70l74 417l-97 -35l-10 26l160 74l24 -27l-10 -51l-13 -28l169 106q30 0 49.5 -9.5t30.5 -25t14.5 -34.5t0.5 -37l-57 -318l83 52
l16 -24l-139 -101l-39 30z" />
    <glyph glyph-name="napostrophe" unicode="&#x149;" horiz-adv-x="515" 
d="M163 675l7 40h92l-14 -80l-77 -106l-31 10l40 101zM384 340q6 32 0.5 52t-33.5 20q-24 0 -52.5 -14t-50.5 -29l-48 -34l-60 -335h-70l74 417l-97 -35l-10 26l160 74l24 -27l-10 -51l-13 -28l169 106q30 0 49.5 -9.5t30.5 -25t14.5 -34.5t0.5 -37l-57 -318l83 52l16 -24
l-139 -101l-39 30z" />
    <glyph glyph-name="Eng" unicode="&#x14a;" horiz-adv-x="708" 
d="M139 43l83 -13l-9 -31l-105 3l-118 -3l-1 31l94 13l96 605l-87 22l10 31l95 -3l56 3l259 -511l18 -66l80 533l-87 13l10 31l110 -3l119 3v-31l-96 -13l-103 -657l-137 -234h-122l14 79h76l90 129l47 26h-14l-275 551l-10 74z" />
    <glyph glyph-name="eng" unicode="&#x14b;" horiz-adv-x="514" 
d="M382 -43q-7 -35 -15 -66.5t-28 -43.5l-129 -82h-68l12 56h97q26 20 39.5 46t17.5 49l76 424q6 32 0.5 52t-33.5 20q-24 0 -52.5 -14t-50.5 -29l-48 -34l-60 -335h-70l74 417l-97 -35l-10 26l160 74l24 -27l-10 -51l-13 -28l169 106q30 0 49.5 -9.5t31 -25t14.5 -34.5
t0 -37z" />
    <glyph glyph-name="Omacron" unicode="&#x14c;" horiz-adv-x="686" 
d="M315 852h276l-7 -50h-276zM144 289q0 -68 17 -115.5t45.5 -78.5t66.5 -46.5t80 -18.5q51 19 92.5 55.5t71.5 87t46.5 111t16.5 127.5q0 68 -17 115.5t-45.5 78.5t-66.5 46.5t-80 18.5q-50 -19 -92 -55.5t-72 -87t-46.5 -111t-16.5 -127.5zM415 718q60 0 108 -20t81 -58
t51 -92t18 -122q0 -60 -15.5 -124t-50 -122t-88.5 -104t-132 -70l-77 -24q-60 0 -108 20t-81.5 58t-51.5 92t-18 122q0 60 15.5 124t50 122t88.5 104t132 70z" />
    <glyph glyph-name="omacron" unicode="&#x14d;" horiz-adv-x="463" 
d="M194 650h276l-8 -50h-276zM290 482q30 0 57 -13t48 -38t33.5 -62t12.5 -85q0 -45 -12.5 -88.5t-37 -80.5t-59.5 -65.5t-80 -43.5l-59 -21q-30 0 -57 13t-48 38.5t-33.5 63t-12.5 85.5q0 45 12.5 88.5t37 80t59.5 65t80 43.5zM249 441q-38 -11 -62 -39.5t-38.5 -64.5
t-20 -74.5t-5.5 -70.5q0 -43 9.5 -73t24.5 -49.5t34.5 -29.5t40.5 -13q37 11 62 39.5t40 64.5t21 74.5t6 70.5q0 43 -10 73t-25.5 49.5t-35.5 29.5t-41 13z" />
    <glyph glyph-name="Obreve" unicode="&#x14e;" horiz-adv-x="686" 
d="M427 819q22 0 41 6.5t34 15.5t26.5 20t20.5 20l19 -18q-7 -8 -16.5 -21.5t-24.5 -29t-38.5 -31.5t-58.5 -29q-32 0 -53.5 11.5t-36 28.5t-23.5 36.5t-15 34.5l27 18q6 -9 13.5 -20t18.5 -20t27 -15.5t39 -6.5zM144 289q0 -68 17 -115.5t45.5 -78.5t66.5 -46.5t80 -18.5
q51 19 92.5 55.5t71.5 87t46.5 111t16.5 127.5q0 68 -17 115.5t-45.5 78.5t-66.5 46.5t-80 18.5q-50 -19 -92 -55.5t-72 -87t-46.5 -111t-16.5 -127.5zM415 718q60 0 108 -20t81 -58t51 -92t18 -122q0 -60 -15.5 -124t-50 -122t-88.5 -104t-132 -70l-77 -24q-60 0 -108 20
t-81.5 58t-51.5 92t-18 122q0 60 15.5 124t50 122t88.5 104t132 70z" />
    <glyph glyph-name="obreve" unicode="&#x14f;" horiz-adv-x="463" 
d="M328 607q22 0 38.5 8t30 21t23.5 28.5t19 30.5l23 -18q-7 -11 -16.5 -27t-25 -33.5t-39.5 -36t-60 -34.5q-29 0 -51 13.5t-37 34t-24 43t-13 40.5l31 18q6 -15 13.5 -30.5t19 -28.5t28 -21t40.5 -8zM290 482q30 0 57 -13t48 -38t33.5 -62t12.5 -85q0 -45 -12.5 -88.5
t-37 -80.5t-59.5 -65.5t-80 -43.5l-59 -21q-30 0 -57 13t-48 38.5t-33.5 63t-12.5 85.5q0 45 12.5 88.5t37 80t59.5 65t80 43.5zM249 441q-38 -11 -62 -39.5t-38.5 -64.5t-20 -74.5t-5.5 -70.5q0 -43 9.5 -73t24.5 -49.5t34.5 -29.5t40.5 -13q37 11 62 39.5t40 64.5t21 74.5
t6 70.5q0 43 -10 73t-25.5 49.5t-35.5 29.5t-41 13z" />
    <glyph glyph-name="Ohungarumlaut" unicode="&#x150;" horiz-adv-x="686" 
d="M315 766l61 132h112l-139 -132h-34zM474 766l61 132h112l-139 -132h-34zM144 289q0 -68 17 -115.5t45.5 -78.5t66.5 -46.5t80 -18.5q51 19 92.5 55.5t71.5 87t46.5 111t16.5 127.5q0 68 -17 115.5t-45.5 78.5t-66.5 46.5t-80 18.5q-50 -19 -92 -55.5t-72 -87t-46.5 -111
t-16.5 -127.5zM415 718q60 0 108 -20t81 -58t51 -92t18 -122q0 -60 -15.5 -124t-50 -122t-88.5 -104t-132 -70l-77 -24q-60 0 -108 20t-81.5 58t-51.5 92t-18 122q0 60 15.5 124t50 122t88.5 104t132 70z" />
    <glyph glyph-name="ohungarumlaut" unicode="&#x151;" horiz-adv-x="463" 
d="M199 537l80 174h96l-146 -174h-30zM360 537l80 174h96l-146 -174h-30zM290 482q30 0 57 -13t48 -38t33.5 -62t12.5 -85q0 -45 -12.5 -88.5t-37 -80.5t-59.5 -65.5t-80 -43.5l-59 -21q-30 0 -57 13t-48 38.5t-33.5 63t-12.5 85.5q0 45 12.5 88.5t37 80t59.5 65t80 43.5z
M249 441q-38 -11 -62 -39.5t-38.5 -64.5t-20 -74.5t-5.5 -70.5q0 -43 9.5 -73t24.5 -49.5t34.5 -29.5t40.5 -13q37 11 62 39.5t40 64.5t21 74.5t6 70.5q0 43 -10 73t-25.5 49.5t-35.5 29.5t-41 13z" />
    <glyph glyph-name="OE" unicode="&#x152;" horiz-adv-x="905" 
d="M427 43l98 615l-154 12q-50 -19 -92 -55.5t-72 -87t-46.5 -111t-16.5 -127.5q0 -68 17 -115.5t45.5 -78.5t66.5 -46.5t80 -18.5zM310 -18q-60 0 -108 20t-81.5 58t-51.5 92t-18 122q0 60 15.5 124t50 122t88.5 104t132 70l78 24l167 -20l338 3v-165h-28l-42 119l-241 3
l-43 -273l129 4l61 105h25l-35 -128l-9 -126h-25l-23 104l-129 4l-49 -306l260 3l76 135h33l-40 -181l-369 3z" />
    <glyph glyph-name="oe" unicode="&#x153;" horiz-adv-x="730" 
d="M543 53q26 11 56.5 28.5t56.5 35.5l17 -24q-7 -7 -20 -18t-29 -23t-34 -24.5t-34 -22.5l-31 -20q-56 -2 -96 24.5t-59 74.5q-23 -26 -53 -46.5t-65 -33.5l-53 -19q-31 0 -59.5 12.5t-50 37t-34.5 61t-13 83.5q0 46 13 90t37.5 81.5t61 67t83.5 46.5l53 18
q47 0 85.5 -24.5t58.5 -75.5q25 28 56 49.5t69 35.5l37 15q24 -4 45 -10.5t36 -18t23.5 -29t8.5 -43.5q0 -32 -20 -86l-250 -81q-2 -8 -2 -16v-15q-1 -37 9.5 -62.5t26 -41.5t34.5 -22t36 -4zM255 439q-39 -11 -64.5 -39t-40.5 -63.5t-21 -74t-6 -70.5q0 -43 9.5 -73
t24.5 -49t34.5 -28.5t40.5 -12.5q39 11 65 40.5t41.5 66t22 76t6.5 71.5q0 43 -8.5 71.5t-23.5 46.5t-35.5 26.5t-44.5 11.5zM574 438q-29 -11 -51 -30.5t-37.5 -45t-25.5 -55t-16 -59.5l176 74q10 30 10 52q0 35 -16 48t-40 16z" />
    <glyph glyph-name="Racute" unicode="&#x154;" horiz-adv-x="624" 
d="M320 766l61 132h112l-139 -132h-34zM212 323l-45 -280l104 -13l-9 -31l-146 3l-126 -3l-1 31l94 13l99 620l-93 8l9 30l130 -3l152 3q48 1 85.5 -11t63 -33t39 -49t13.5 -61q0 -71 -44 -116.5t-138 -82.5l-43 -16l55 -43l125 -248l53 -13l-5 -29l-76 3l-53 -3l-143 313
l-12 11h-88zM266 660l-46 -281h150q22 8 43.5 22t37.5 33.5t26 44t10 53.5q0 55 -30.5 89.5t-100.5 38.5h-90z" />
    <glyph glyph-name="racute" unicode="&#x155;" horiz-adv-x="370" 
d="M237 537l79 172h96l-145 -172h-30zM204 377l-31 -104l130 199h75l-18 -78h-39q-20 -12 -47.5 -39t-48.5 -55l-39 -52l-46 -248h-70l75 417l-98 -35l-10 26l160 74l20 -22z" />
    <glyph glyph-name="Rcommaaccent" unicode="&#x156;" horiz-adv-x="624" 
d="M232 -90l7 40h92l-14 -80l-77 -106l-31 10l40 101zM212 323l-45 -280l104 -13l-9 -31l-146 3l-126 -3l-1 31l94 13l99 620l-93 8l9 30l130 -3l152 3q48 1 85.5 -11t63 -33t39 -49t13.5 -61q0 -71 -44 -116.5t-138 -82.5l-43 -16l55 -43l125 -248l53 -13l-5 -29l-76 3
l-53 -3l-143 313l-12 11h-88zM266 660l-46 -281h150q22 8 43.5 22t37.5 33.5t26 44t10 53.5q0 55 -30.5 89.5t-100.5 38.5h-90z" />
    <glyph glyph-name="rcommaaccent" unicode="&#x157;" horiz-adv-x="370" 
d="M47 -90l7 40h92l-14 -80l-77 -106l-31 10l40 101zM204 377l-31 -104l130 199h75l-18 -78h-39q-20 -12 -47.5 -39t-48.5 -55l-39 -52l-46 -248h-70l75 417l-98 -35l-10 26l160 74l20 -22z" />
    <glyph glyph-name="Rcaron" unicode="&#x158;" horiz-adv-x="624" 
d="M488 898l-105 -132h-75l-60 132h38l70 -80l94 80h38zM212 323l-45 -280l104 -13l-9 -31l-146 3l-126 -3l-1 31l94 13l99 620l-93 8l9 30l130 -3l152 3q48 1 85.5 -11t63 -33t39 -49t13.5 -61q0 -71 -44 -116.5t-138 -82.5l-43 -16l55 -43l125 -248l53 -13l-5 -29l-76 3
l-53 -3l-143 313l-12 11h-88zM266 660l-46 -281h150q22 8 43.5 22t37.5 33.5t26 44t10 53.5q0 55 -30.5 89.5t-100.5 38.5h-90z" />
    <glyph glyph-name="rcaron" unicode="&#x159;" horiz-adv-x="370" 
d="M403 723l-116 -174h-61l-53 174h30l68 -105l102 105h30zM204 377l-31 -104l130 199h75l-18 -78h-39q-20 -12 -47.5 -39t-48.5 -55l-39 -52l-46 -248h-70l75 417l-98 -35l-10 26l160 74l20 -22z" />
    <glyph glyph-name="Sacute" unicode="&#x15a;" horiz-adv-x="502" 
d="M315 766l61 132h112l-139 -132h-34zM496 528h-51l-4 94q-8 7 -22 16.5t-31.5 17t-37 13t-38.5 5.5q-59 -19 -86 -47.5t-27 -69.5q0 -24 7 -43.5t18.5 -35t26 -28t30.5 -24.5l88 -65q16 -12 32.5 -27.5t30 -36.5t21.5 -47.5t8 -60.5q0 -62 -35.5 -106t-98.5 -66l-103 -35
q-71 0 -123 19t-86 45l23 135h61v-83q9 -11 25.5 -24.5t37.5 -24.5t44 -18.5t45 -7.5q63 15 90.5 52t27.5 87q0 27 -6 47.5t-16.5 36.5t-25.5 29t-33 27l-103 79q-35 26 -56.5 59.5t-21.5 85.5q0 54 36.5 94.5t106.5 65.5l91 32q66 0 110 -15.5t68 -35.5z" />
    <glyph glyph-name="sacute" unicode="&#x15b;" horiz-adv-x="361" 
d="M231 537l79 172h96l-145 -172h-30zM122 -15q-10 4 -26.5 12t-34.5 17t-33.5 18t-22.5 15l47 61q9 -7 23.5 -16.5t31 -20t32.5 -19.5t26 -14q30 9 43.5 27t13.5 50q0 15 -5.5 34.5t-17.5 32.5l-82 79q-16 16 -28 38t-12 46q0 41 32 70.5t101 53.5l44 13q8 -2 23 -8.5
t31 -14t29.5 -14.5t19.5 -11l-43 -61q-8 6 -21.5 14t-28.5 16t-29.5 15.5t-23.5 12.5q-25 -9 -40 -25.5t-15 -41.5q0 -19 6.5 -37t23.5 -35l75 -71q20 -20 31.5 -41t11.5 -51q0 -41 -21 -70t-82 -49z" />
    <glyph glyph-name="Scircumflex" unicode="&#x15c;" horiz-adv-x="502" 
d="M226 766l105 132h75l60 -132h-38l-71 81l-93 -81h-38zM496 528h-51l-4 94q-8 7 -22 16.5t-31.5 17t-37 13t-38.5 5.5q-59 -19 -86 -47.5t-27 -69.5q0 -24 7 -43.5t18.5 -35t26 -28t30.5 -24.5l88 -65q16 -12 32.5 -27.5t30 -36.5t21.5 -47.5t8 -60.5q0 -62 -35.5 -106
t-98.5 -66l-103 -35q-71 0 -123 19t-86 45l23 135h61v-83q9 -11 25.5 -24.5t37.5 -24.5t44 -18.5t45 -7.5q63 15 90.5 52t27.5 87q0 27 -6 47.5t-16.5 36.5t-25.5 29t-33 27l-103 79q-35 26 -56.5 59.5t-21.5 85.5q0 54 36.5 94.5t106.5 65.5l91 32q66 0 110 -15.5t68 -35.5
z" />
    <glyph glyph-name="scircumflex" unicode="&#x15d;" horiz-adv-x="361" 
d="M133 537l116 172h61l53 -172h-30l-69 103l-101 -103h-30zM122 -15q-10 4 -26.5 12t-34.5 17t-33.5 18t-22.5 15l47 61q9 -7 23.5 -16.5t31 -20t32.5 -19.5t26 -14q30 9 43.5 27t13.5 50q0 15 -5.5 34.5t-17.5 32.5l-82 79q-16 16 -28 38t-12 46q0 41 32 70.5t101 53.5
l44 13q8 -2 23 -8.5t31 -14t29.5 -14.5t19.5 -11l-43 -61q-8 6 -21.5 14t-28.5 16t-29.5 15.5t-23.5 12.5q-25 -9 -40 -25.5t-15 -41.5q0 -19 6.5 -37t23.5 -35l75 -71q20 -20 31.5 -41t11.5 -51q0 -41 -21 -70t-82 -49z" />
    <glyph glyph-name="Scedilla" unicode="&#x15e;" horiz-adv-x="502" 
d="M66 -238l29 38h88q18 10 27.5 26.5t9.5 33.5t-8.5 28.5t-21.5 18.5t-29 10t-31 3l60 64q-59 5 -102.5 22.5t-72.5 39.5l23 135h61v-83q9 -11 25.5 -24.5t37.5 -24.5t44 -18.5t45 -7.5q63 15 90.5 52t27.5 87q0 27 -6 47.5t-16.5 36.5t-25.5 29t-33 27l-103 79
q-35 26 -56.5 59.5t-21.5 85.5q0 54 36.5 94.5t106.5 65.5l91 32q66 0 110 -15.5t68 -35.5l-23 -139h-51l-4 94q-8 7 -22 16.5t-31.5 17t-37 13t-38.5 5.5q-59 -19 -86 -47.5t-27 -69.5q0 -24 7 -43.5t18.5 -35t26 -28t30.5 -24.5l88 -65q16 -12 32.5 -27.5t30 -36.5
t21.5 -47.5t8 -60.5q0 -62 -35.5 -106t-98.5 -66l-103 -35l-26 -29q13 0 27.5 -4.5t26.5 -12.5t19.5 -21t7.5 -29q0 -23 -10.5 -40.5t-26 -30.5t-34 -22t-34.5 -15l-51 -16h-57z" />
    <glyph glyph-name="scedilla" unicode="&#x15f;" horiz-adv-x="361" 
d="M-45 -238l29 38h88q18 10 27.5 26.5t9.5 33.5t-8.5 28.5t-21.5 18.5t-29 10t-31 3l73 78l-25 12.5t-25 13t-22 12.5t-15 11l47 61q9 -7 23.5 -16.5t31 -20t32.5 -19.5t26 -14q30 9 43.5 27t13.5 50q0 15 -5.5 34.5t-17.5 32.5l-82 79q-16 16 -28 38t-12 46q0 41 32 70.5
t101 53.5l44 13q8 -2 23 -8.5t31 -14t29.5 -14.5t19.5 -11l-43 -61q-8 6 -21.5 14t-28.5 16t-29.5 15.5t-23.5 12.5q-25 -9 -40 -25.5t-15 -41.5q0 -19 6.5 -37t23.5 -35l75 -71q20 -20 31.5 -41t11.5 -51q0 -41 -21 -70t-82 -49l-87 -28l-27 -29q13 0 27.5 -4.5t26.5 -12.5
t19.5 -21t7.5 -29q0 -23 -10.5 -40.5t-26 -30.5t-34 -22t-34.5 -15l-51 -16h-57z" />
    <glyph glyph-name="Scaron" unicode="&#x160;" horiz-adv-x="502" 
d="M485 898l-105 -132h-75l-60 132h38l70 -80l94 80h38zM496 528h-51l-4 94q-8 7 -22 16.5t-31.5 17t-37 13t-38.5 5.5q-59 -19 -86 -47.5t-27 -69.5q0 -24 7 -43.5t18.5 -35t26 -28t30.5 -24.5l88 -65q16 -12 32.5 -27.5t30 -36.5t21.5 -47.5t8 -60.5q0 -62 -35.5 -106
t-98.5 -66l-103 -35q-71 0 -123 19t-86 45l23 135h61v-83q9 -11 25.5 -24.5t37.5 -24.5t44 -18.5t45 -7.5q63 15 90.5 52t27.5 87q0 27 -6 47.5t-16.5 36.5t-25.5 29t-33 27l-103 79q-35 26 -56.5 59.5t-21.5 85.5q0 54 36.5 94.5t106.5 65.5l91 32q66 0 110 -15.5t68 -35.5
z" />
    <glyph glyph-name="scaron" unicode="&#x161;" horiz-adv-x="361" 
d="M390 723l-115 -174h-61l-53 174h30l68 -105l101 105h30zM122 -15q-10 4 -26.5 12t-34.5 17t-33.5 18t-22.5 15l47 61q9 -7 23.5 -16.5t31 -20t32.5 -19.5t26 -14q30 9 43.5 27t13.5 50q0 15 -5.5 34.5t-17.5 32.5l-82 79q-16 16 -28 38t-12 46q0 41 32 70.5t101 53.5
l44 13q8 -2 23 -8.5t31 -14t29.5 -14.5t19.5 -11l-43 -61q-8 6 -21.5 14t-28.5 16t-29.5 15.5t-23.5 12.5q-25 -9 -40 -25.5t-15 -41.5q0 -19 6.5 -37t23.5 -35l75 -71q20 -20 31.5 -41t11.5 -51q0 -41 -21 -70t-82 -49z" />
    <glyph glyph-name="Tcommaaccent" unicode="&#x162;" horiz-adv-x="587" 
d="M202 -90l7 40h92l-14 -80l-77 -106l-31 10l40 101zM300 43l80 -13l-9 -31l-121 3l-121 -3v31l87 13l98 616l-147 -3l-67 -123h-36l28 168l271 -3l271 3l-26 -168h-36l-22 123l-152 3z" />
    <glyph glyph-name="tcommaaccent" unicode="&#x163;" horiz-adv-x="324" 
d="M46 -90l7 40h92l-14 -80l-77 -106l-31 10l40 101zM145 57l130 55l17 -27l-186 -100l-39 25l69 403h-93l5 15l34 33h62l14 75l60 55h20l-25 -135h131l-10 -43h-128z" />
    <glyph glyph-name="Tcaron" unicode="&#x164;" horiz-adv-x="587" 
d="M514 898l-105 -132h-75l-60 132h38l70 -80l94 80h38zM300 43l80 -13l-9 -31l-121 3l-121 -3v31l87 13l98 616l-147 -3l-67 -123h-36l28 168l271 -3l271 3l-26 -168h-36l-22 123l-152 3z" />
    <glyph glyph-name="tcaron" unicode="&#x165;" horiz-adv-x="324" 
d="M304 675l7 40h92l-14 -80l-78 -106l-31 10l41 101zM145 57l130 55l17 -27l-186 -100l-39 25l69 403h-93l5 15l34 33h62l14 75l60 55h20l-25 -135h131l-10 -43h-128z" />
    <glyph glyph-name="Tbar" unicode="&#x166;" horiz-adv-x="587" 
d="M368 473h111l-8 -49h-111l-60 -381l80 -13l-9 -31l-121 3l-121 -3v31l87 13l60 381h-101l8 49h101l30 186l-147 -3l-67 -123h-36l28 168l271 -3l271 3l-26 -168h-36l-22 123l-152 3z" />
    <glyph glyph-name="tbar" unicode="&#x167;" horiz-adv-x="324" 
d="M192 331h88l-7 -39h-88l-40 -235l130 55l17 -27l-186 -100l-39 25l48 282h-63l7 39h63l14 82h-93l5 15l34 33h62l14 75l60 55h20l-25 -135h131l-10 -43h-128z" />
    <glyph glyph-name="Utilde" unicode="&#x168;" horiz-adv-x="657" 
d="M321 866l67 22l128 -62l52 60h16l-41 -95l-65 -17l-130 62l-50 -60h-16zM560 231q-7 -43 -19 -79.5t-36 -66t-62.5 -51.5t-97.5 -36l-66 -16q-59 0 -98 18t-60.5 51.5t-26.5 81.5t4 107l66 417l-91 13l9 31l132 -3l131 3l1 -31l-92 -13l-73 -438q-6 -35 -0.5 -69.5
t23.5 -62t49.5 -44.5t77.5 -17q32 11 57.5 26t44.5 39t32.5 58.5t21.5 85.5l68 422l-87 13l9 31l111 -3l129 3l1 -31l-89 -13z" />
    <glyph glyph-name="utilde" unicode="&#x169;" horiz-adv-x="509" 
d="M226 675l67 22l128 -62l52 60h16l-41 -95l-65 -17l-130 62l-50 -60h-16zM41 382l-10 26l160 74l22 -25l-57 -335q-7 -38 3.5 -53t27.5 -15q12 0 26.5 5.5t29 14t27.5 17.5t23 15l46 31l56 330h70l-71 -408l83 51l16 -24l-139 -101l-30 27l7 57l13 27l-172 -111
q-29 0 -48 11t-29.5 27.5t-13.5 35.5t0 34l57 323z" />
    <glyph glyph-name="Umacron" unicode="&#x16a;" horiz-adv-x="657" 
d="M290 852h276l-8 -50h-276zM560 231q-7 -43 -19 -79.5t-36 -66t-62.5 -51.5t-97.5 -36l-66 -16q-59 0 -98 18t-60.5 51.5t-26.5 81.5t4 107l66 417l-91 13l9 31l132 -3l131 3l1 -31l-92 -13l-73 -438q-6 -35 -0.5 -69.5t23.5 -62t49.5 -44.5t77.5 -17q32 11 57.5 26
t44.5 39t32.5 58.5t21.5 85.5l68 422l-87 13l9 31l111 -3l129 3l1 -31l-89 -13z" />
    <glyph glyph-name="umacron" unicode="&#x16b;" horiz-adv-x="509" 
d="M194 650h276l-7 -50h-276zM41 382l-10 26l160 74l22 -25l-57 -335q-7 -38 3.5 -53t27.5 -15q12 0 26.5 5.5t29 14t27.5 17.5t23 15l46 31l56 330h70l-71 -408l83 51l16 -24l-139 -101l-30 27l7 57l13 27l-172 -111q-29 0 -48 11t-29.5 27.5t-13.5 35.5t0 34l57 323z" />
    <glyph glyph-name="Ubreve" unicode="&#x16c;" horiz-adv-x="657" 
d="M422 819q22 0 41 6.5t34 15.5t27 20t21 20l18 -18q-7 -8 -16.5 -21.5t-24.5 -29t-38.5 -31.5t-58.5 -29q-32 0 -53.5 11.5t-36 28.5t-23.5 36.5t-15 34.5l27 18q6 -9 13.5 -20t18.5 -20t27 -15.5t39 -6.5zM560 231q-7 -43 -19 -79.5t-36 -66t-62.5 -51.5t-97.5 -36
l-66 -16q-59 0 -98 18t-60.5 51.5t-26.5 81.5t4 107l66 417l-91 13l9 31l132 -3l131 3l1 -31l-92 -13l-73 -438q-6 -35 -0.5 -69.5t23.5 -62t49.5 -44.5t77.5 -17q32 11 57.5 26t44.5 39t32.5 58.5t21.5 85.5l68 422l-87 13l9 31l111 -3l129 3l1 -31l-89 -13z" />
    <glyph glyph-name="ubreve" unicode="&#x16d;" horiz-adv-x="509" 
d="M341 607q21 0 38 8t30.5 21t23.5 28.5t19 30.5l23 -18q-7 -11 -16.5 -27t-25 -33.5t-39.5 -36t-60 -34.5q-29 0 -51 13.5t-37 34t-24 43t-13 40.5l31 18q6 -15 13.5 -30.5t19 -28.5t28 -21t40.5 -8zM41 382l-10 26l160 74l22 -25l-57 -335q-7 -38 3.5 -53t27.5 -15
q12 0 26.5 5.5t29 14t27.5 17.5t23 15l46 31l56 330h70l-71 -408l83 51l16 -24l-139 -101l-30 27l7 57l13 27l-172 -111q-29 0 -48 11t-29.5 27.5t-13.5 35.5t0 34l57 323z" />
    <glyph glyph-name="Uring" unicode="&#x16e;" horiz-adv-x="657" 
d="M517 832q0 -24 -7.5 -37.5t-20.5 -22t-30.5 -14t-37.5 -13.5q-18 0 -36 4t-32.5 14t-23 27t-8.5 42q0 22 8.5 37.5t22 25.5t31 16.5t35.5 11.5q42 0 70.5 -19.5t28.5 -71.5zM364 832q0 -23 16 -37t39 -14t39.5 14t16.5 37t-16.5 39t-39.5 16t-39 -16t-16 -39zM560 231
q-7 -43 -19 -79.5t-36 -66t-62.5 -51.5t-97.5 -36l-66 -16q-59 0 -98 18t-60.5 51.5t-26.5 81.5t4 107l66 417l-91 13l9 31l132 -3l131 3l1 -31l-92 -13l-73 -438q-6 -35 -0.5 -69.5t23.5 -62t49.5 -44.5t77.5 -17q32 11 57.5 26t44.5 39t32.5 58.5t21.5 85.5l68 422l-87 13
l9 31l111 -3l129 3l1 -31l-89 -13z" />
    <glyph glyph-name="uring" unicode="&#x16f;" horiz-adv-x="509" 
d="M414 624q0 -24 -7.5 -38t-20.5 -22t-30.5 -14t-37.5 -13q-18 0 -36.5 4t-32.5 14t-23 27t-9 42q0 22 8.5 37.5t22 25.5t31 16.5t36.5 11.5q42 0 70.5 -19.5t28.5 -71.5zM261 624q0 -23 16 -37t39 -14t39 14t16 37t-16 39t-39 16t-39 -16t-16 -39zM41 382l-10 26l160 74
l22 -25l-57 -335q-7 -38 3.5 -53t27.5 -15q12 0 26.5 5.5t29 14t27.5 17.5t23 15l46 31l56 330h70l-71 -408l83 51l16 -24l-139 -101l-30 27l7 57l13 27l-172 -111q-29 0 -48 11t-29.5 27.5t-13.5 35.5t0 34l57 323z" />
    <glyph glyph-name="Uhungarumlaut" unicode="&#x170;" horiz-adv-x="657" 
d="M298 766l61 132h112l-139 -132h-34zM457 766l61 132h112l-139 -132h-34zM560 231q-7 -43 -19 -79.5t-36 -66t-62.5 -51.5t-97.5 -36l-66 -16q-59 0 -98 18t-60.5 51.5t-26.5 81.5t4 107l66 417l-91 13l9 31l132 -3l131 3l1 -31l-92 -13l-73 -438q-6 -35 -0.5 -69.5
t23.5 -62t49.5 -44.5t77.5 -17q32 11 57.5 26t44.5 39t32.5 58.5t21.5 85.5l68 422l-87 13l9 31l111 -3l129 3l1 -31l-89 -13z" />
    <glyph glyph-name="uhungarumlaut" unicode="&#x171;" horiz-adv-x="509" 
d="M202 537l80 174h96l-146 -174h-30zM363 537l80 174h96l-146 -174h-30zM41 382l-10 26l160 74l22 -25l-57 -335q-7 -38 3.5 -53t27.5 -15q12 0 26.5 5.5t29 14t27.5 17.5t23 15l46 31l56 330h70l-71 -408l83 51l16 -24l-139 -101l-30 27l7 57l13 27l-172 -111
q-29 0 -48 11t-29.5 27.5t-13.5 35.5t0 34l57 323z" />
    <glyph glyph-name="Uogonek" unicode="&#x172;" horiz-adv-x="657" 
d="M560 231q-6 -39 -16.5 -72.5t-30 -61.5t-50 -50t-76.5 -37l-86 -122l-6 -33q-3 -20 3.5 -32t19.5 -19t31.5 -9.5t38.5 -2.5l-6 -30q-93 0 -128.5 25.5t-26.5 75.5l8 50l105 84l-61 -15q-59 0 -98 18t-60.5 51.5t-26.5 81.5t4 107l66 417l-91 13l9 31l132 -3l131 3l1 -31
l-92 -13l-73 -438q-6 -35 -0.5 -69.5t23.5 -62t49.5 -44.5t77.5 -17q32 11 57.5 26t44.5 39t32.5 58.5t21.5 85.5l68 422l-87 13l9 31l111 -3l129 3l1 -31l-89 -13z" />
    <glyph glyph-name="uogonek" unicode="&#x173;" horiz-adv-x="509" 
d="M391 -238q-94 0 -129 25t-26 76l8 50l100 79l-20 20l7 57l13 27l-172 -111q-29 0 -48 11t-29.5 27.5t-13.5 35.5t0 34l57 323l-97 -34l-10 26l160 74l22 -25l-57 -335q-7 -38 3.5 -53t27.5 -15q12 0 26.5 5.5t29 14t27.5 17.5t23 15l46 31l56 330h70l-71 -408l83 51
l16 -24l-91 -66l-92 -132l-6 -33q-3 -20 3 -32t19 -19t31.5 -9.5t38.5 -2.5l-5 -30v0z" />
    <glyph glyph-name="Wcircumflex" unicode="&#x174;" horiz-adv-x="882" 
d="M408 766l105 132h75l60 -132h-38l-70 81l-94 -81h-38zM257 -18l-104 677l-79 11l9 31l120 -3l101 3l1 -31l-67 -13l70 -503l-9 -52l173 448l-15 109l-55 11l10 31l95 -3l123 3l1 -31l-89 -13l71 -503l-9 -52l222 555l-84 13l9 31l114 -3l76 3l1 -31l-50 -11l-286 -660
l-45 -17l-75 454v54l-185 -491z" />
    <glyph glyph-name="wcircumflex" unicode="&#x175;" horiz-adv-x="662" 
d="M251 537l115 172h61l53 -172h-30l-68 103l-101 -103h-30zM544 434l78 48l35 -53l-21 -109l-226 -335l-69 19l-5 175l6 57l-157 -251l-69 19l-12 410l-93 -34l-10 27l160 75l19 -22v-388l-8 -41l160 253l-3 157l75 28v-395l-7 -42l208 322z" />
    <glyph glyph-name="Ycircumflex" unicode="&#x176;" horiz-adv-x="593" 
d="M278 766l105 132h75l60 -132h-38l-70 81l-94 -81h-38zM364 287l-38 -244l116 -13l-10 -31l-156 3l-158 -3v31l124 13l38 245l-151 371l-56 11l9 31l106 -3l127 3l1 -31l-91 -13l116 -291v-31l203 322l-89 13l9 31l113 -3l74 3v-31l-48 -11z" />
    <glyph glyph-name="ycircumflex" unicode="&#x177;" horiz-adv-x="456" 
d="M160 537l115 172h61l54 -172h-30l-69 103l-101 -103h-30zM205 2l-41 -2l-61 410l-87 -32l-15 23l128 81l53 -19l43 -429l173 320l-60 80l78 48l35 -53l-21 -109l-328 -555h-121l14 80h68z" />
    <glyph glyph-name="Ydieresis" unicode="&#x178;" horiz-adv-x="593" 
d="M297 868l61 -4v-41l-15 -43l-17 -5l-63 5l4 49l18 35zM494 868l60 -4l1 -41l-16 -43l-16 -5l-63 5l4 49l17 35zM364 287l-38 -244l116 -13l-10 -31l-156 3l-158 -3v31l124 13l38 245l-151 371l-56 11l9 31l106 -3l127 3l1 -31l-91 -13l116 -291v-31l203 322l-89 13l9 31
l113 -3l74 3v-31l-48 -11z" />
    <glyph glyph-name="Zacute" unicode="&#x179;" horiz-adv-x="502" 
d="M297 766l61 132h112l-139 -132h-34zM476 203h33l-67 -203h-460l1 37l434 588l62 40l-307 -11l-66 -127h-29l28 173h419l23 -39l-433 -584l-57 -36l318 5z" />
    <glyph glyph-name="zacute" unicode="&#x17a;" horiz-adv-x="396" 
d="M242 537l79 172h96l-145 -172h-30zM308 67l31 33l25 -8l-46 -109l-265 37l-39 -26l-25 17l330 384l-58 -17l-152 20l-28 -29l-24 7l47 99l254 -27l31 19l24 -18l-324 -378l55 19z" />
    <glyph glyph-name="Zdotaccent" unicode="&#x17b;" horiz-adv-x="502" 
d="M306 867l21 5l56 -5l1 -43l-15 -40l-19 -4l-64 4l3 46zM476 203h33l-67 -203h-460l1 37l434 588l62 40l-307 -11l-66 -127h-29l28 173h419l23 -39l-433 -584l-57 -36l318 5z" />
    <glyph glyph-name="zdotaccent" unicode="&#x17c;" horiz-adv-x="396" 
d="M247 681l20 5l57 -5l1 -43l-16 -40l-19 -5l-64 5l4 46zM308 67l31 33l25 -8l-46 -109l-265 37l-39 -26l-25 17l330 384l-58 -17l-152 20l-28 -29l-24 7l47 99l254 -27l31 19l24 -18l-324 -378l55 19z" />
    <glyph glyph-name="Zcaron" unicode="&#x17d;" horiz-adv-x="502" 
d="M237 898h38l70 -80l94 80h38l-105 -132h-75zM476 203h33l-67 -203h-460l1 37l434 588l62 40l-307 -11l-66 -127h-29l28 173h419l23 -39l-433 -584l-57 -36l318 5z" />
    <glyph glyph-name="zcaron" unicode="&#x17e;" horiz-adv-x="396" 
d="M414 723l-116 -174h-61l-53 174h30l68 -105l102 105h30zM308 67l31 33l25 -8l-46 -109l-265 37l-39 -26l-25 17l330 384l-58 -17l-152 20l-28 -29l-24 7l47 99l254 -27l31 19l24 -18l-324 -378l55 19z" />
    <glyph glyph-name="longs" unicode="&#x17f;" horiz-adv-x="305" 
d="M122 -45q-6 -35 -17 -65.5t-31 -43.5l-129 -82h-68l16 72h110q17 18 28 41t14 40l87 495h-97l5 17l33 30h67l10 61q7 39 21 68t38 46l129 83h72l-16 -74h-121q-19 -18 -31 -44.5t-16 -47.5z" />
    <glyph glyph-name="florin" unicode="&#x192;" horiz-adv-x="340" 
d="M21 -167q17 19 28 42.5t14 40.5l87 497h-97l5 16l33 31h67l10 59q7 39 20.5 68t38.5 46l130 83h71l-15 -73h-122q-19 -18 -31 -44.5t-15 -47.5l-17 -94h113l-10 -44h-111l-79 -456q-6 -35 -17.5 -67.5t-31.5 -44.5l-129 -82h-68l16 70h110z" />
    <glyph glyph-name="Aringacute" unicode="&#x1fa;" horiz-adv-x="655" 
d="M564 832q0 -24 -7.5 -38t-20.5 -22t-30.5 -14t-37.5 -13q-18 0 -36.5 4t-32.5 14t-23 27t-9 42q0 22 8.5 37.5t22 25.5t31 16.5t35.5 11.5l21 45l100 5l-70 -58q23 -8 36 -28t13 -55zM411 832q0 -23 16 -37t39 -14t39 14t16 37t-16 39t-39 16t-39 -16t-16 -39zM506 2
l-131 -3l-1 31l91 13l-21 193h-220l-100 -193l88 -13l-9 -31l-111 3l-111 -3l-1 31l86 11l366 660l46 17l74 -677l79 -11l-8 -31zM248 281h191l-26 237l-2 73z" />
    <glyph glyph-name="aringacute" unicode="&#x1fb;" horiz-adv-x="466" 
d="M456 624q0 -24 -7.5 -38t-20.5 -22t-30.5 -14t-37.5 -13q-18 0 -36 4t-32.5 14t-23 27t-8.5 42q0 22 8 37.5t21.5 25.5t31 16.5t35.5 11.5l22 45l100 5l-70 -58q22 -8 35 -28t13 -55zM303 624q0 -23 16 -37t39 -14t39.5 14t16.5 37t-16.5 39t-39.5 16t-39 -16t-16 -39z
M362 59l84 52l16 -25l-140 -101l-38 31l10 60l15 41l-135 -132q-24 5 -47 16t-42 32.5t-30.5 55t-11.5 83.5q0 102 47.5 171.5t135.5 114.5l47 24q12 -1 30.5 -5t40 -10t44 -13t41.5 -14zM124 183q0 -27 6.5 -49.5t17 -39.5t23.5 -28t25 -15l111 98l44 247q-9 7 -24 13.5
t-32 11t-34 7t-29 2.5q-20 -14 -39 -36.5t-34.5 -53.5t-25 -70.5t-9.5 -86.5z" />
    <glyph glyph-name="AEacute" unicode="&#x1fc;" horiz-adv-x="869" 
d="M540 766l62 132h112l-140 -132h-34zM212 30l-12 -31l-116 3l-109 -3l2 31l85 11l406 660l74 -3l342 3v-168h-30l-42 121l-240 3l-47 -298l121 4l64 122h21l-38 -145l-9 -151h-21l-25 123l-120 4l-46 -274l250 3l81 151h35l-46 -197l-361 2l-131 -2l-1 31l95 13l42 272
h-149l-163 -272zM310 360h134l48 295z" />
    <glyph glyph-name="aeacute" unicode="&#x1fd;" horiz-adv-x="637" 
d="M365 537l79 172h96l-145 -172h-30zM451 53q26 11 56.5 28.5t56.5 35.5l17 -24q-7 -7 -20 -18t-29 -23t-34 -24.5t-34 -22.5l-31 -20q-57 -3 -96.5 25t-57.5 77l-105 -102q-25 5 -49.5 16t-44 32.5t-31.5 55t-12 83.5q0 102 47.5 171.5t135.5 114.5l47 24q11 -1 28 -4.5
t37.5 -9t42 -11.5t40.5 -12l89 37q24 -4 44.5 -10.5t35.5 -18t23.5 -29t8.5 -43.5q0 -16 -4.5 -38t-14.5 -48l-251 -81q-3 -26 0.5 -55t15.5 -53t34 -39t55 -14zM118 183q0 -27 7 -49.5t18.5 -39.5t25 -28t27.5 -15l73 64q-6 36 -3 74t14 74.5t30.5 70.5t46.5 61
q-16 9 -35 15.5t-37 11t-33.5 6.5t-25.5 2q-20 -14 -39 -36.5t-34.5 -53.5t-25 -70.5t-9.5 -86.5zM481 438q-29 -11 -50.5 -30.5t-37 -45t-25.5 -55t-16 -59.5l176 74q10 30 10 52q0 35 -16.5 48t-40.5 16z" />
    <glyph glyph-name="Oslashacute" unicode="&#x1fe;" horiz-adv-x="686" 
d="M410 718q56 0 100.5 -17.5t77.5 -49.5l56 64h45l-79 -90q28 -38 43 -87.5t15 -111.5q0 -60 -15.5 -124t-50 -122t-88.5 -104t-132 -70l-77 -24q-121 0 -188 75l-63 -72h-47l88 101q-49 75 -49 188q0 60 15.5 124t50 122t88.5 104t132 70zM575 411q0 85 -28 141l-370 -425
q29 -48 74 -70.5t97 -26.5q51 19 92.5 55.5t71.5 87t46.5 111t16.5 127.5zM139 289q0 -39 5.5 -70.5t15.5 -57.5l369 422q-29 42 -71.5 62.5t-91.5 24.5q-50 -19 -92 -55.5t-72 -87t-46.5 -111t-16.5 -127.5zM413 766l61 132h112l-139 -132h-34z" />
    <glyph glyph-name="oslashacute" unicode="&#x1ff;" horiz-adv-x="463" 
d="M290 482q29 0 56.5 -12.5t48.5 -38.5l44 47h47l-72 -76q13 -23 20 -52.5t7 -65.5q0 -45 -12.5 -88.5t-37 -80.5t-59.5 -65.5t-80 -43.5l-59 -21q-32 0 -61.5 15.5t-51.5 46.5l-42 -45h-48l72 76q-20 45 -20 107q0 45 12.5 88.5t37 80t59.5 65t80 43.5zM361 276
q0 17 -2 32.5t-5 29.5l-218 -232q15 -38 41 -56t55 -23q37 11 62 39.5t40 64.5t21 74.5t6 70.5zM249 441q-38 -11 -62 -39.5t-38.5 -64.5t-20 -74.5t-5.5 -70.5q0 -25 3 -46l215 228q-17 32 -41.5 47t-50.5 20zM277 537l79 172h96l-145 -172h-30z" />
    <glyph glyph-name="Scommaaccent" unicode="&#x218;" horiz-adv-x="502" 
d="M150 -90l7 40h92l-14 -80l-78 -106l-31 10l41 101zM496 528h-51l-4 94q-8 7 -22 16.5t-31.5 17t-37 13t-38.5 5.5q-59 -19 -86 -47.5t-27 -69.5q0 -24 7 -43.5t18.5 -35t26 -28t30.5 -24.5l88 -65q16 -12 32.5 -27.5t30 -36.5t21.5 -47.5t8 -60.5q0 -62 -35.5 -106
t-98.5 -66l-103 -35q-71 0 -123 19t-86 45l23 135h61v-83q9 -11 25.5 -24.5t37.5 -24.5t44 -18.5t45 -7.5q63 15 90.5 52t27.5 87q0 27 -6 47.5t-16.5 36.5t-25.5 29t-33 27l-103 79q-35 26 -56.5 59.5t-21.5 85.5q0 54 36.5 94.5t106.5 65.5l91 32q66 0 110 -15.5t68 -35.5
z" />
    <glyph glyph-name="scommaaccent" unicode="&#x219;" horiz-adv-x="361" 
d="M64 -90l7 40h92l-14 -80l-78 -106l-31 10l41 101zM122 -15q-10 4 -26.5 12t-34.5 17t-33.5 18t-22.5 15l47 61q9 -7 23.5 -16.5t31 -20t32.5 -19.5t26 -14q30 9 43.5 27t13.5 50q0 15 -5.5 34.5t-17.5 32.5l-82 79q-16 16 -28 38t-12 46q0 41 32 70.5t101 53.5l44 13
q8 -2 23 -8.5t31 -14t29.5 -14.5t19.5 -11l-43 -61q-8 6 -21.5 14t-28.5 16t-29.5 15.5t-23.5 12.5q-25 -9 -40 -25.5t-15 -41.5q0 -19 6.5 -37t23.5 -35l75 -71q20 -20 31.5 -41t11.5 -51q0 -41 -21 -70t-82 -49z" />
    <glyph glyph-name="uni021A" unicode="&#x21a;" horiz-adv-x="587" 
d="M191 -90l7 40h92l-14 -80l-77 -106l-31 10l40 101zM300 43l80 -13l-9 -31l-121 3l-121 -3v31l87 13l98 616l-147 -3l-67 -123h-36l28 168l271 -3l271 3l-26 -168h-36l-22 123l-152 3z" />
    <glyph glyph-name="uni021B" unicode="&#x21b;" horiz-adv-x="324" 
d="M46 -90l7 40h92l-14 -80l-77 -106l-31 10l40 101zM145 57l130 55l17 -27l-186 -100l-39 25l69 403h-93l5 15l34 33h62l14 75l60 55h20l-25 -135h131l-10 -43h-128z" />
    <glyph glyph-name="hsuperior" unicode="&#x2b0;" horiz-adv-x="337" 
d="M145 400h-70l70 353l-55 -13l-8 20l114 33l22 -19l-30 -149l-10 -22l107 69q74 0 62 -72l-34 -162l50 27l11 -16l-89 -57l-46 21l33 169q2 11 -1 19t-17 8q-11 0 -24 -4.5t-22 -9.5l-27 -14z" />
    <glyph glyph-name="jsuperior" unicode="&#x2b2;" horiz-adv-x="155" 
d="M-38 271l11 63h69q11 14 16.5 30t7.5 30l48 234l-51 -14l-9 17l104 41l29 -28l-49 -240q-5 -29 -21 -50.5t-41 -40.5l-71 -42h-43zM147 780l22 5l40 -5v-36l-12 -30l-20 -5l-45 5l2 35z" />
    <glyph glyph-name="wsuperior" unicode="&#x2b7;" horiz-adv-x="419" 
d="M371 635l62 37l29 -29l-14 -76l-134 -175l-65 12l-2 68l7 39l-87 -119l-65 12l-6 224l-51 -15l-8 18l104 41l27 -27v-177l-5 -32l82 108l-3 97l72 24v-200l-5 -32l107 146z" />
    <glyph glyph-name="ysuperior" unicode="&#x2b8;" horiz-adv-x="286" 
d="M176 410l-53 -10l-34 227l-48 -15l-9 18l95 42l34 -24l28 -215l96 145l-47 57l62 37l29 -29l-14 -76l-197 -296h-84l12 72h55z" />
    <glyph glyph-name="apostrophemod" unicode="&#x2bc;" horiz-adv-x="220" 
d="M95 481q8 13 17 30.5t17.5 34.5t14.5 32.5t8 25.5l-37 4l5 53l18 45l56 4l36 -4l-5 -53l-12 -45l-87 -140z" />
    <glyph glyph-name="circumflex" unicode="&#x2c6;" horiz-adv-x="500" 
d="M135 537l116 172h60l54 -172h-30l-69 103l-101 -103h-30z" />
    <glyph glyph-name="caron" unicode="&#x2c7;" horiz-adv-x="500" 
d="M365 723l-116 -174h-61l-53 174h30l68 -105l102 105h30z" />
    <glyph glyph-name="breve" unicode="&#x2d8;" horiz-adv-x="500" 
d="M249 607q21 0 38 8t30.5 21t23.5 28.5t19 30.5l23 -18q-7 -11 -16.5 -27t-25 -33.5t-39.5 -36t-60 -34.5q-29 0 -51 13.5t-37 34t-24 43t-13 40.5l31 18q6 -15 13.5 -30.5t19 -28.5t28 -21t40.5 -8z" />
    <glyph glyph-name="dotaccent" unicode="&#x2d9;" horiz-adv-x="500" 
d="M221 681l21 5l56 -5l1 -43l-15 -40l-19 -5l-64 5l3 46z" />
    <glyph glyph-name="ring" unicode="&#x2da;" horiz-adv-x="500" 
d="M348 624q0 -24 -7.5 -38t-20.5 -22t-30.5 -14t-37.5 -13q-18 0 -36.5 4t-32.5 14t-23 27t-9 42q0 22 8.5 37.5t22 25.5t31 16.5t36.5 11.5q42 0 70.5 -19.5t28.5 -71.5zM195 624q0 -23 16 -37t39 -14t39 14t16 37t-16 39t-39 16t-39 -16t-16 -39z" />
    <glyph glyph-name="ogonek" unicode="&#x2db;" horiz-adv-x="500" 
d="M243 -112l-6 -33q-3 -20 3 -32t19 -19t31.5 -9.5t38.5 -2.5l-6 -30q-93 0 -128.5 25.5t-26.5 75.5l9 50l138 109h21z" />
    <glyph glyph-name="tilde" unicode="&#x2dc;" horiz-adv-x="500" 
d="M138 675l67 22l129 -62l51 60h16l-41 -95l-65 -17l-130 62l-50 -60h-16z" />
    <glyph glyph-name="hungarumlaut" unicode="&#x2dd;" horiz-adv-x="500" 
d="M81 537l80 174h96l-146 -174h-30zM242 537l80 174h96l-146 -174h-30z" />
    <glyph glyph-name="xsuperior" unicode="&#x2e3;" horiz-adv-x="290" 
d="M118 629l-50 -15l-8 17l99 41l28 -27l20 -59v-26l76 107h63l-16 -71h-33q-11 -4 -21 -10.5t-24 -17.5l-30 -27l35 -105l53 29l11 -16l-88 -57l-41 20l-24 68v22l-80 -105h-63l17 71h37q11 3 21.5 9.5t25.5 19.5l27 27z" />
    <glyph glyph-name="Delta" unicode="&#x394;" horiz-adv-x="676" 
d="M20 0v46l303 649l45 20l288 -668v-47h-636zM84 46h477l-217 517l-7 55z" />
    <glyph glyph-name="Omega" unicode="&#x3a9;" horiz-adv-x="720" 
d="M264 111q-42 9 -82 31.5t-71.5 59t-51 87.5t-19.5 116q0 59 18.5 107t58.5 86t102.5 67t150.5 50q69 0 126 -22t98 -60t63.5 -89t22.5 -109q0 -69 -15.5 -116.5t-44 -82t-70 -62t-92.5 -56.5v-66l178 36l24 68h30v-156h-286v156q28 0 60 13t59 42.5t45 76.5t18 116
q0 58 -19 105.5t-52 81.5t-78.5 52.5t-97.5 18.5q-43 0 -80.5 -17.5t-65 -48t-43.5 -71.5t-16 -89q0 -62 16.5 -113t42.5 -88.5t58.5 -58t64.5 -20.5v-156h-286v156h30l24 -68l180 -36v59z" />
    <glyph glyph-name="mu" unicode="&#x3bc;" 
d="M195 467h70l-58 -345q-7 -38 3.5 -53t28.5 -15q12 0 26.5 6t29 14t28 17l22.5 15l46 32l56 329h70l-72 -411l83 54l16 -24l-139 -100l-30 26l8 58l12 26l-171 -110q-18 0 -28.5 3.5t-21.5 8.5l-9 -26l10 -202h-100z" />
    <glyph glyph-name="pi" unicode="&#x3c0;" 
d="M479 110l16 -24l-139 -100l-37 30l71 407h-146l-74 -423h-69l74 423h-58l-55 -99h-28l24 141h527l-7 -42h-118l-64 -367z" />
    <glyph glyph-name="Wgrave" unicode="&#x1e80;" horiz-adv-x="882" 
d="M498 766l-92 132h102l26 -132h-36zM257 -18l-104 677l-79 11l9 31l120 -3l101 3l1 -31l-67 -13l70 -503l-9 -52l173 448l-15 109l-55 11l10 31l95 -3l123 3l1 -31l-89 -13l71 -503l-9 -52l222 555l-84 13l9 31l114 -3l76 3l1 -31l-50 -11l-286 -660l-45 -17l-75 454v54
l-185 -491z" />
    <glyph glyph-name="wgrave" unicode="&#x1e81;" horiz-adv-x="662" 
d="M353 537l-78 172h90l13 -172h-25zM544 434l78 48l35 -53l-21 -109l-226 -335l-69 19l-5 175l6 57l-157 -251l-69 19l-12 410l-93 -34l-10 27l160 75l19 -22v-388l-8 -41l160 253l-3 157l75 28v-395l-7 -42l208 322z" />
    <glyph glyph-name="Wacute" unicode="&#x1e82;" horiz-adv-x="882" 
d="M493 766l61 132h112l-139 -132h-34zM257 -18l-104 677l-79 11l9 31l120 -3l101 3l1 -31l-67 -13l70 -503l-9 -52l173 448l-15 109l-55 11l10 31l95 -3l123 3l1 -31l-89 -13l71 -503l-9 -52l222 555l-84 13l9 31l114 -3l76 3l1 -31l-50 -11l-286 -660l-45 -17l-75 454v54
l-185 -491z" />
    <glyph glyph-name="wacute" unicode="&#x1e83;" horiz-adv-x="662" 
d="M343 537l79 172h96l-145 -172h-30zM544 434l78 48l35 -53l-21 -109l-226 -335l-69 19l-5 175l6 57l-157 -251l-69 19l-12 410l-93 -34l-10 27l160 75l19 -22v-388l-8 -41l160 253l-3 157l75 28v-395l-7 -42l208 322z" />
    <glyph glyph-name="Wdieresis" unicode="&#x1e84;" horiz-adv-x="882" 
d="M420 868l61 -4l1 -41l-16 -43l-16 -5l-63 5l4 49l17 35zM617 868l61 -4l1 -41l-16 -43l-16 -5l-64 5l5 49l17 35zM257 -18l-104 677l-79 11l9 31l120 -3l101 3l1 -31l-67 -13l70 -503l-9 -52l173 448l-15 109l-55 11l10 31l95 -3l123 3l1 -31l-89 -13l71 -503l-9 -52
l222 555l-84 13l9 31l114 -3l76 3l1 -31l-50 -11l-286 -660l-45 -17l-75 454v54l-185 -491z" />
    <glyph glyph-name="wdieresis" unicode="&#x1e85;" horiz-adv-x="662" 
d="M301 660l55 -5v-41l-15 -37l-11 -5l-63 5l4 43l18 35zM458 660l54 -5l1 -41l-16 -37l-10 -5l-63 5l4 43l17 35zM544 434l78 48l35 -53l-21 -109l-226 -335l-69 19l-5 175l6 57l-157 -251l-69 19l-12 410l-93 -34l-10 27l160 75l19 -22v-388l-8 -41l160 253l-3 157l75 28
v-395l-7 -42l208 322z" />
    <glyph glyph-name="Ygrave" unicode="&#x1ef2;" horiz-adv-x="593" 
d="M354 766l-92 132h102l26 -132h-36zM364 287l-38 -244l116 -13l-10 -31l-156 3l-158 -3v31l124 13l38 245l-151 371l-56 11l9 31l106 -3l127 3l1 -31l-91 -13l116 -291v-31l203 322l-89 13l9 31l113 -3l74 3v-31l-48 -11z" />
    <glyph glyph-name="ygrave" unicode="&#x1ef3;" horiz-adv-x="456" 
d="M257 537l-77 172h90l12 -172h-25zM205 2l-41 -2l-61 410l-87 -32l-15 23l128 81l53 -19l43 -429l173 320l-60 80l78 48l35 -53l-21 -109l-328 -555h-121l14 80h68z" />
    <glyph glyph-name="endash" unicode="&#x2013;" horiz-adv-x="662" 
d="M74 304h555l-9 -50h-555z" />
    <glyph glyph-name="emdash" unicode="&#x2014;" horiz-adv-x="858" 
d="M79 304h741l-9 -50h-741z" />
    <glyph glyph-name="quoteleft" unicode="&#x2018;" horiz-adv-x="210" 
d="M200 527l-18 -45l-56 -4l-36 4l5 53l12 45l87 141l31 -14q-8 -13 -17 -30.5t-17.5 -34.5t-14.5 -32.5t-8 -25.5l37 -4z" />
    <glyph glyph-name="quoteright" unicode="&#x2019;" horiz-adv-x="226" 
d="M126 661l18 45l56 4l36 -4l-5 -53l-12 -45l-87 -140l-31 13q8 13 17 30.5t17.5 34.5t14.5 32.5t8 25.5l-37 4z" />
    <glyph glyph-name="quotesinglbase" unicode="&#x201a;" horiz-adv-x="232" 
d="M40 53l18 45l56 4l36 -4l-5 -53l-12 -45l-87 -141l-31 14q8 13 17 30.5t17.5 34.5t14.5 32.5t8 25.5l-37 4z" />
    <glyph glyph-name="quotedblleft" unicode="&#x201c;" horiz-adv-x="360" 
d="M200 525l-18 -45l-56 -4l-36 4l5 53l12 45l87 141l31 -14q-8 -13 -17 -30.5t-17.5 -34.5t-14.5 -32.5t-8 -25.5l37 -4zM350 525l-18 -45l-56 -4l-36 4l5 53l11 45l88 141l31 -14q-8 -13 -17 -30.5t-17.5 -34.5t-14.5 -32.5t-8 -25.5l36 -4z" />
    <glyph glyph-name="quotedblright" unicode="&#x201d;" horiz-adv-x="376" 
d="M276 661l18 45l56 4l36 -4l-5 -53l-12 -45l-87 -140l-31 13q8 13 17 30.5t17 34.5t14.5 32.5t8.5 25.5l-37 4zM126 661l18 45l56 4l36 -4l-5 -53l-12 -45l-87 -140l-31 13q8 13 17 30.5t17.5 34.5t14.5 32.5t8 25.5l-37 4z" />
    <glyph glyph-name="quotedblbase" unicode="&#x201e;" horiz-adv-x="382" 
d="M190 53l18 45l56 4l36 -4l-5 -53l-12 -45l-87 -141l-31 14q8 13 17 30.5t17 34.5t14.5 32.5t8.5 25.5l-37 4zM40 53l18 45l56 4l36 -4l-5 -53l-12 -45l-87 -141l-31 14q8 13 17 30.5t17.5 34.5t14.5 32.5t8 25.5l-37 4z" />
    <glyph glyph-name="dagger" unicode="&#x2020;" horiz-adv-x="425" 
d="M74 538l166 -22l1 194h93l-66 -194l177 22l-14 -86l-171 28l-5 -110l19 -41l-44 -103l-68 -286h-18l32 286l-8 103l33 41l33 110l-174 -28z" />
    <glyph glyph-name="daggerdbl" unicode="&#x2021;" horiz-adv-x="489" 
d="M235 370l33 110l-174 -28l14 86l166 -22l1 194h93l-66 -194l177 22l-14 -86l-171 28l-5 -110l19 -41l-33 -41l-34 -110l174 28l-14 -86l-166 22v-194h-93l65 194l-177 -22l14 86l171 -28l6 110l-19 41z" />
    <glyph glyph-name="bullet" unicode="&#x2022;" horiz-adv-x="272" 
d="M169 368l38 -5l-7 -63l-15 -56l-82 -5l-38 5l7 64l15 55z" />
    <glyph glyph-name="ellipsis" unicode="&#x2026;" horiz-adv-x="676" 
d="M159 102l27 -4l-5 -53l-13 -45l-71 -5l-27 5l5 53l13 45zM371 102l27 -4l-5 -53l-13 -45l-71 -5l-27 5l5 53l13 45zM584 102l27 -4l-5 -53l-13 -45l-71 -5l-27 5l5 53l13 45z" />
    <glyph glyph-name="perthousand" unicode="&#x2030;" horiz-adv-x="1080" 
d="M105 -5h-65l681 710h65zM246 350q-25 0 -48 8.5t-40.5 24t-28.5 37.5t-12 49q-2 40 4 75t24.5 64t52 52t87.5 39q30 0 52.5 -10t38 -27t24 -38.5t10.5 -43.5q1 -39 -4.5 -75t-23.5 -66.5t-50.5 -53.5t-85.5 -35zM280 658q-30 0 -50.5 -19.5t-32 -48t-16 -61.5t-3.5 -61
q3 -35 21.5 -56t56.5 -21q27 0 45 19.5t29.5 48t16 61.5t3.5 61q-3 36 -21.5 56.5t-48.5 20.5zM878 0q-25 0 -48 8.5t-40.5 24t-28.5 37.5t-12 49q-2 40 4 75t24.5 64t52 52t87.5 39q29 0 51.5 -10t38.5 -27t24.5 -38.5t10.5 -43.5q1 -39 -4.5 -75t-23.5 -66.5t-50.5 -53.5
t-85.5 -35zM543 0q-25 0 -48 8.5t-40.5 24t-28.5 37.5t-12 49q-2 40 4 75t24.5 64t52 52t87.5 39q30 0 52.5 -10t38 -27t24 -38.5t10.5 -43.5q1 -39 -4.5 -75t-23.5 -66.5t-50.5 -53.5t-85.5 -35zM912 308q-30 0 -50.5 -19.5t-32 -48t-16 -61.5t-3.5 -61q3 -35 21.5 -56
t56.5 -21q27 0 45 19.5t29.5 48t16 61.5t3.5 61q-3 36 -21.5 56.5t-48.5 20.5zM577 308q-30 0 -50.5 -19.5t-32 -48t-16 -61.5t-3.5 -61q3 -35 22 -56t57 -21q27 0 45 19.5t29 48t15.5 61.5t3.5 61q-3 36 -21.5 56.5t-48.5 20.5z" />
    <glyph glyph-name="guilsinglleft" unicode="&#x2039;" horiz-adv-x="296" 
d="M177 15l-142 220l220 220h36l-166 -221l89 -219h-37z" />
    <glyph glyph-name="guilsinglright" unicode="&#x203a;" horiz-adv-x="322" 
d="M35 15l165 219l-88 221h36l144 -220l-220 -220h-37z" />
    <glyph glyph-name="fraction" unicode="&#x2044;" horiz-adv-x="173" 
d="M-142 -50h-60l521 760h58z" />
    <glyph glyph-name="zerosuperior" unicode="&#x2070;" horiz-adv-x="367" 
d="M84 547q0 36 9.5 71.5t30.5 66.5t53.5 55.5t77.5 39.5l41 15q54 0 88 -40t34 -117q0 -36 -10 -71.5t-31 -66.5t-53.5 -55.5t-78.5 -39.5l-40 -15q-53 0 -87 40t-34 117zM229 426q23 9 42 29t33 47t22 59.5t8 67.5q0 65 -17 93.5t-44 36.5q-23 -9 -42.5 -28.5t-33.5 -46.5
t-21.5 -59.5t-7.5 -67.5q0 -66 17.5 -95t43.5 -36z" />
    <glyph glyph-name="foursuperior" unicode="&#x2074;" horiz-adv-x="339" 
d="M318 575h79l-9 -56h-79l-23 -118h-69l22 118h-153l-18 38l231 234h77l-6 -32l-254 -196l32 12h100l12 46l61 46h17z" />
    <glyph glyph-name="fivesuperior" unicode="&#x2075;" horiz-adv-x="319" 
d="M70 397l11 61h134q24 17 37 40t13 46q0 25 -15.5 41t-50.5 16q-17 0 -29.5 -3.5t-29.5 -10.5l-23 -8l-12 13l61 194h220l-4 -23l-25 -38h-172l-39 -108l82 37q63 0 91.5 -24.5t28.5 -59.5q0 -32 -13.5 -55.5t-34.5 -41t-47.5 -30t-52.5 -22.5l-60 -24h-70z" />
    <glyph glyph-name="sixsuperior" unicode="&#x2076;" horiz-adv-x="341" 
d="M394 772q-46 -11 -81.5 -31.5t-61 -45t-40.5 -51t-20 -49.5l93 61q21 0 39 -8.5t31 -22.5t20.5 -32.5t7.5 -39.5q0 -57 -34.5 -95t-91.5 -56l-41 -12q-54 0 -87.5 34.5t-33.5 97.5q0 45 22.5 90t61.5 82.5t92 64t115 35.5zM186 566q-3 -15 -5.5 -31.5t-2.5 -30.5
q1 -35 15 -57t42 -27q16 7 28 19t20 26.5t11.5 30t3.5 29.5q0 38 -12 56t-26 18q-22 0 -53 -20z" />
    <glyph glyph-name="sevensuperior" unicode="&#x2077;" horiz-adv-x="295" 
d="M314 725l-21 -11h-200l11 71h261l15 -19l-242 -366h-57l1 32z" />
    <glyph glyph-name="eightsuperior" unicode="&#x2078;" horiz-adv-x="349" 
d="M263 633q51 28 51 73q0 23 -13 38.5t-42 20.5q-24 -8 -32.5 -28t-8.5 -40t11.5 -35t33.5 -29zM202 389q-26 0 -47.5 6.5t-38 18.5t-25.5 28t-9 34q0 24 9.5 42t25.5 31.5t37 24t44 19.5q-32 20 -48.5 39.5t-16.5 42.5q0 39 29.5 65t74.5 39l45 14q52 0 83.5 -20t31.5 -51
q0 -23 -9.5 -40.5t-24.5 -30t-35 -22t-41 -17.5q35 -22 58.5 -42.5t23.5 -51.5q0 -25 -10 -43.5t-27.5 -32.5t-41.5 -24t-52 -17zM165 492q0 -32 19.5 -50t39.5 -23q30 10 44 30.5t14 43.5q0 15 -5.5 26.5t-13.5 21t-19 18t-21 16.5q-26 -15 -42 -36t-16 -47z" />
    <glyph glyph-name="ninesuperior" unicode="&#x2079;" horiz-adv-x="335" 
d="M282 620q2 14 3.5 30t1.5 30q0 35 -14.5 57t-40.5 27q-17 -7 -29.5 -19.5t-20 -27t-11 -30t-3.5 -29.5q0 -36 12 -54t28 -18q12 0 24 5t29 15zM72 412q46 11 82.5 32t62 45.5t40.5 51.5t20 50l-93 -61q-22 0 -40 8.5t-31.5 22.5t-21 32.5t-7.5 39.5q0 57 35 94.5t92 54.5
l41 13q54 0 87.5 -34.5t33.5 -97.5q0 -45 -22.5 -90t-61.5 -82.5t-92.5 -64t-115.5 -35.5z" />
    <glyph glyph-name="plussuperior" unicode="&#x207a;" horiz-adv-x="411" 
d="M240 440v117h-132v44h132v122h44v-122h133v-44h-133v-117h-44z" />
    <glyph glyph-name="minussuperior" unicode="&#x207b;" horiz-adv-x="418" 
d="M108 619h315v-44h-315v44z" />
    <glyph glyph-name="equalsuperior" unicode="&#x207c;" horiz-adv-x="411" 
d="M417 605h-309v45h309v-45zM417 499h-309v42h309v-42z" />
    <glyph glyph-name="parenleftsuperior" unicode="&#x207d;" horiz-adv-x="259" 
d="M347 837q-67 -78 -101 -160t-34 -178q0 -45 9.5 -85.5t24.5 -76.5l-18 -18q-18 27 -31.5 49.5t-22.5 43.5t-13.5 42t-4.5 45q0 59 8.5 102t29 81t53.5 77t82 91z" />
    <glyph glyph-name="parenrightsuperior" unicode="&#x207e;" horiz-adv-x="259" 
d="M52 334q67 77 101 158.5t34 178.5q0 45 -9.5 85.5t-25.5 75.5l19 18q18 -27 31.5 -49.5t22.5 -43.5t13.5 -42t4.5 -45q0 -59 -9 -101.5t-29 -81t-53 -78t-82 -90.5z" />
    <glyph glyph-name="nsuperior" unicode="&#x207f;" horiz-adv-x="335" 
d="M271 582q2 11 -0.5 19t-16.5 8q-11 0 -23.5 -4.5t-21.5 -9.5l-29 -15l-34 -180h-71l45 227l-51 -13l-8 17l104 41l28 -27l-4 -21l-10 -20l105 68q73 0 61 -72l-32 -164l49 28l11 -14l-88 -58l-47 20z" />
    <glyph glyph-name="zeroinferior" unicode="&#x2080;" horiz-adv-x="368" 
d="M-16 -3q0 36 9.5 71.5t30.5 66.5t53.5 55.5t78.5 39.5l41 15q53 0 87 -40t34 -117q0 -36 -10 -71.5t-31 -66.5t-53.5 -55.5t-77.5 -39.5l-40 -15q-54 0 -88 40t-34 117zM129 -124q23 9 42 29t33 47t22 59.5t8 67.5q0 65 -17 93.5t-44 36.5q-23 -9 -42.5 -28.5
t-33.5 -46.5t-21.5 -59.5t-7.5 -67.5q0 -66 17.5 -95t43.5 -36z" />
    <glyph glyph-name="oneinferior" unicode="&#x2081;" horiz-adv-x="307" 
d="M143 -116l89 -10l-8 -25l-124 2l-130 -2l2 25l92 10l56 283l9 14l-30 -12l-67 -11l-7 22l146 58h40z" />
    <glyph glyph-name="twoinferior" unicode="&#x2082;" horiz-adv-x="342" 
d="M286 159q0 -30 -12.5 -56.5t-33.5 -50.5t-50 -45t-62 -39l-113 -75l98 20h144v-24l-25 -39h-264l-13 27l125 104q55 42 88.5 84.5t33.5 87.5q0 26 -12.5 42t-33.5 18l-34 -12l-28 -61h-52l9 65l130 40q54 0 79.5 -24t25.5 -62z" />
    <glyph glyph-name="threeinferior" unicode="&#x2083;" horiz-adv-x="298" 
d="M-50 -150l11 59h134q47 33 47 76q0 24 -20.5 39t-66.5 15l-6 18l29 11q38 14 61 39.5t23 59.5q0 20 -11 31.5t-30 13.5l-35 -10l-26 -61h-58l9 67l134 37q53 0 75 -20.5t22 -50.5q0 -20 -9 -36t-24.5 -28.5t-35.5 -21.5t-41 -15q50 -4 73 -25.5t23 -49.5q0 -30 -15 -50
t-38 -34.5t-50.5 -24t-52.5 -18.5l-58 -21h-64z" />
    <glyph glyph-name="fourinferior" unicode="&#x2084;" horiz-adv-x="339" 
d="M215 24h79l-9 -56h-79l-23 -118h-69l22 118h-153l-18 38l231 234h77l-6 -32l-255 -196l33 12h100l11 46l62 46h17z" />
    <glyph glyph-name="fiveinferior" unicode="&#x2085;" horiz-adv-x="322" 
d="M-29 -153l12 61h134q23 17 36 40t13 46q0 26 -15.5 42t-50.5 16q-17 0 -29.5 -3.5t-29.5 -10.5l-22 -8l-13 12l62 194h219l-4 -23l-24 -38h-173l-38 -108l81 37q63 0 91.5 -24.5t28.5 -59.5q0 -32 -13 -55.5t-34 -40.5t-47.5 -29.5t-53.5 -22.5l-60 -25h-70z" />
    <glyph glyph-name="sixinferior" unicode="&#x2086;" horiz-adv-x="339" 
d="M291 221q-46 -11 -81.5 -31.5t-61 -45t-40.5 -50.5t-20 -49l93 60q21 0 39 -8.5t30.5 -22.5t20 -32.5t7.5 -39.5q0 -57 -34.5 -94.5t-91.5 -55.5l-41 -13q-54 0 -87 34.5t-33 97.5q0 45 22 90t61 82.5t92.5 64t115.5 35.5zM82 15q-3 -14 -5 -31t-2 -31q1 -34 15 -56.5
t42 -27.5q33 15 48 45.5t15 59.5q0 38 -12 56t-27 18q-22 0 -53 -20z" />
    <glyph glyph-name="seveninferior" unicode="&#x2087;" horiz-adv-x="298" 
d="M214 176l-22 -11h-200l12 71h261l14 -19l-241 -366h-57l1 32z" />
    <glyph glyph-name="eightinferior" unicode="&#x2088;" horiz-adv-x="347" 
d="M163 81q50 30 50 74q0 23 -13 38t-41 20q-25 -8 -33.5 -27.5t-8.5 -40.5q0 -19 12 -34.5t34 -29.5zM100 -162q-25 0 -46.5 6.5t-37.5 18t-25.5 27.5t-9.5 34q0 24 9.5 42t25.5 32t36.5 24.5t43.5 18.5q-32 20 -48.5 40t-16.5 43q1 38 30.5 64t74.5 39l46 15
q51 0 82.5 -20.5t31.5 -51.5q0 -23 -9.5 -40t-25 -29.5t-35.5 -22t-41 -17.5q35 -22 58.5 -43t23.5 -51q0 -25 -10 -43.5t-27.5 -32.5t-41.5 -24t-52 -17zM64 -60q0 -32 19 -49.5t39 -23.5q31 10 45 30.5t14 44.5q0 29 -18.5 47t-40.5 35q-26 -16 -42 -37t-16 -47z" />
    <glyph glyph-name="nineinferior" unicode="&#x2089;" horiz-adv-x="336" 
d="M185 72q2 14 3.5 30t1.5 30q0 35 -14.5 57t-41.5 27q-17 -7 -29 -19.5t-19.5 -27t-11 -30t-3.5 -29.5q0 -36 12 -54t28 -18q12 0 24 5t29 15zM-25 -136q46 11 82.5 32t62 45.5t40.5 51.5t20 50l-94 -61q-21 0 -39.5 8.5t-31.5 22.5t-20.5 32.5t-7.5 39.5q0 57 35 94.5
t92 54.5l41 13q54 0 87 -34.5t33 -97.5q0 -45 -22 -90t-61 -82.5t-92.5 -64t-115.5 -35.5z" />
    <glyph glyph-name="parenleftinferior" unicode="&#x208d;" horiz-adv-x="262" 
d="M252 275q-67 -78 -101 -160t-34 -179q0 -45 9.5 -85t24.5 -76l-18 -18q-18 27 -31.5 49.5t-22.5 43.5t-13.5 42t-4.5 45q0 59 8.5 102t29 81t53.5 77t82 91z" />
    <glyph glyph-name="parenrightinferior" unicode="&#x208e;" horiz-adv-x="262" 
d="M-49 -228q67 77 100.5 158.5t33.5 178.5q0 45 -9.5 85.5t-24.5 75.5l19 18q18 -27 31.5 -49.5t22.5 -43.5t13.5 -42t4.5 -45q0 -59 -9 -101.5t-29 -81t-53 -78t-82 -90.5z" />
    <glyph glyph-name="Euro" unicode="&#x20ac;" horiz-adv-x="622" 
d="M453 666q-41 -7 -79 -27t-70 -50t-57.5 -67t-42.5 -79h343l-36 -51h-320q-8 -43 -8 -84h282l-36 -51h-243q5 -43 20.5 -80.5t39.5 -65t55.5 -43.5t67.5 -16q25 0 50.5 6.5t48 16t42 20t33.5 18.5l17 -25q-9 -7 -26 -19.5t-41 -27.5t-56 -31t-72 -29q-57 0 -104.5 19.5
t-82 55.5t-55.5 87t-26 114h-75l8 51h64q2 44 9 84h-57l8 51h62q38 94 118 159.5t211 98.5l68 17q19 -7 38 -16.5t36 -20t31 -20t23 -15.5l-51 -69q-12 11 -29.5 24.5t-37 26t-38 23t-32.5 15.5z" />
    <glyph glyph-name="afii61289" unicode="&#x2113;" horiz-adv-x="445" 
d="M23 232q29 12 54.5 21.5t58.5 23.5l60 346l143 97q22 0 39 -11.5t28.5 -30.5t17 -42.5t5.5 -47.5q0 -60 -16 -107.5t-45.5 -85.5t-71 -68t-92.5 -55l-38 -220l147 52l18 -28l-173 -92l-69 22l39 229q-31 -13 -56.5 -22.5t-57.5 -22.5zM214 325q28 18 52.5 41t43 53
t29 67.5t10.5 85.5q0 29 -9 50.5t-28 21.5l-45 -10z" />
    <glyph glyph-name="afii61352" unicode="&#x2116;" horiz-adv-x="975" 
d="M568 55h356l-9 -55h-356zM479 0h-53l-175 530l-7 114l-113 -644h-141l-1 26l108 42l104 581l-85 20l10 31l89 -3l80 3l152 -466l7 -116l103 582h127l1 -26l-94 -41zM825 484q72 0 106 -37.5t34 -96.5q0 -44 -12 -77t-33 -58t-50.5 -42t-64.5 -28l-64 -20q-72 0 -106 37.5
t-34 96.5q0 43 11.5 76.5t32.5 58.5t50.5 42t64.5 28zM768 171q32 7 53.5 23.5t34 38t18 46.5t5.5 48t-5 43.5t-15 35.5t-25.5 23.5t-36.5 8.5q-33 -8 -54 -24.5t-34 -38t-18 -46t-5 -47.5t5 -43.5t15 -35.5t25.5 -23.5t36.5 -8.5z" />
    <glyph glyph-name="trademark" unicode="&#x2122;" horiz-adv-x="1025" 
d="M899 701l79 -2l64 2l3 -26l-46 -7v-320l44 -7l-3 -27l-82 2l-87 -2l-3 27l47 7v257l9 66l-141 -356h-51l-118 285l-17 67v-319l46 -7l-3 -27l-65 2l-66 -2l-3 27l46 7v320l-47 7l3 26l57 -2l91 2l115 -276l1 -45zM399 314l-103 2l-105 -2l-3 27l66 7v321l-77 -2l-28 -77
h-29v111l178 -2l173 2v-111h-28l-29 77l-76 2v-321l64 -7z" />
    <glyph glyph-name="uni2126" unicode="&#x2126;" horiz-adv-x="720" 
d="M264 111q-42 9 -82 31.5t-71.5 59t-51 87.5t-19.5 116q0 59 18.5 107t58.5 86t102.5 67t150.5 50q69 0 126 -22t98 -60t63.5 -89t22.5 -109q0 -69 -15.5 -116.5t-44 -82t-70 -62t-92.5 -56.5v-66l178 36l24 68h30v-156h-286v156q28 0 60 13t59 42.5t45 76.5t18 116
q0 58 -19 105.5t-52 81.5t-78.5 52.5t-97.5 18.5q-43 0 -80.5 -17.5t-65 -48t-43.5 -71.5t-16 -89q0 -62 16.5 -113t42.5 -88.5t58.5 -58t64.5 -20.5v-156h-286v156h30l24 -68l180 -36v59z" />
    <glyph glyph-name="estimated" unicode="&#x212e;" horiz-adv-x="842" 
d="M736 220q-26 -64 -61 -102.5t-80.5 -62.5t-103.5 -38.5t-130 -31.5q-76 0 -134 22.5t-97.5 62t-59.5 93.5t-20 118q0 104 30.5 178t85.5 124.5t132 81.5t170 50q82 0 146 -25.5t105.5 -70.5t59.5 -106t9 -133l-9 -48h-621l-15 -87q9 -45 29 -83.5t50.5 -66.5t70.5 -43.5
t90 -15.5q95 0 160 49t105 135h88zM166 376h509l10 58q-5 52 -24 94.5t-49.5 72.5t-71 46.5t-88.5 16.5q-47 0 -85.5 -12t-71 -33.5t-59 -52t-48.5 -66.5z" />
    <glyph glyph-name="arrowleft" unicode="&#x2190;" horiz-adv-x="610" 
d="M560 321v-52h-427l33 -19l154 -151v-74l-270 270l270 270v-74l-154 -150l-33 -20h427z" />
    <glyph glyph-name="arrowup" unicode="&#x2191;" horiz-adv-x="640" 
d="M294 467l-19 -33l-151 -154h-74l270 270l270 -270h-74l-150 154l-20 33v-427h-52v427z" />
    <glyph glyph-name="arrowright" unicode="&#x2192;" horiz-adv-x="610" 
d="M477 321l-33 20l-154 150v74l270 -270l-270 -270v74l154 151l33 19h-427v52h427z" />
    <glyph glyph-name="arrowdown" unicode="&#x2193;" horiz-adv-x="640" 
d="M294 550h52v-427l20 33l150 154h74l-270 -270l-270 270h74l151 -154l19 -33v427z" />
    <glyph glyph-name="uni2196" unicode="&#x2196;" horiz-adv-x="479" 
d="M90 399l10 -37l2 -216l-52 -53v382h382l-53 -52l-215 3l-38 9l303 -302l-37 -37z" />
    <glyph glyph-name="uni2197" unicode="&#x2197;" horiz-adv-x="479" 
d="M87 96l-37 37l303 302l-38 -9l-215 -3l-53 52h382v-382l-52 53l2 216l10 37z" />
    <glyph glyph-name="uni2198" unicode="&#x2198;" horiz-adv-x="479" 
d="M389 172l-10 37l-2 216l52 53v-382h-382l53 52l215 -4l38 -8l-303 302l37 37z" />
    <glyph glyph-name="uni2199" unicode="&#x2199;" horiz-adv-x="479" 
d="M392 475l37 -37l-303 -302l38 8l215 4l53 -52h-382v382l52 -53l-2 -216l-10 -37z" />
    <glyph glyph-name="partialdiff" unicode="&#x2202;" 
d="M516 340q0 -134 -49.5 -213.5t-146.5 -121.5l-56 -20q-32 0 -61 12.5t-51 37t-35 60.5t-13 83q0 46 12.5 90t37.5 81t62 66t86 47l56 20q23 -6 39 -12t37 -17q1 20 -16.5 53.5t-47 67.5t-69 62.5t-81.5 39.5l14 40q64 -19 110 -48t77 -63.5t50 -72t29 -73t13 -67t3 -52.5
zM435 377q-16 10 -30.5 17.5t-30 13t-33.5 9.5t-42 7q-31 -12 -52 -37.5t-33.5 -57t-17.5 -66.5t-5 -66q0 -42 8.5 -71.5t23 -49.5t34 -31t40.5 -15q34 12 60 40t43 63.5t26 73.5t9 70v100z" />
    <glyph glyph-name="uni2206" unicode="&#x2206;" horiz-adv-x="676" 
d="M20 0v46l303 649l45 20l288 -668v-47h-636zM84 46h477l-217 517l-7 55z" />
    <glyph glyph-name="product" unicode="&#x220f;" horiz-adv-x="807" 
d="M50 669l5 31l142 -3h427l128 3l5 -31l-89 -13v-772l89 -13l-5 -31l-128 3l-138 -3l-5 31l98 13v767h-346v-767l93 -13l-5 -31l-132 3l-134 -3l-5 31l94 13v772z" />
    <glyph glyph-name="summation" unicode="&#x2211;" 
d="M70 -160l-22 40l306 375l-296 405l22 40h465v-180h-30l-46 134l-295 5l265 -353v-30l-308 -373l357 15l49 101h34l-35 -179h-466z" />
    <glyph glyph-name="minus" unicode="&#x2212;" 
d="M47 303h525v-61h-525v61z" />
    <glyph glyph-name="radical" unicode="&#x221a;" 
d="M151 -14l-159 448l-61 10l5 26h129l113 -327l8 -67l263 810h241l-20 -52h-169l-278 -819z" />
    <glyph glyph-name="infinity" unicode="&#x221e;" horiz-adv-x="825" 
d="M360 200q-14 -15 -32 -28t-37.5 -22.5t-39 -15t-37.5 -5.5q-36 0 -64.5 12.5t-48.5 34t-30.5 51t-10.5 63.5q0 26 8.5 52t27.5 49.5t50 43.5t76 35q33 0 61.5 -12.5t53.5 -30.5t47 -39.5t42 -39.5l40 45q29 32 68 54.5t75 22.5q37 0 66.5 -13t49 -35t30 -52t10.5 -64
q0 -62 -36 -104.5t-126 -72.5q-32 0 -60 11.5t-53.5 28.5t-47.5 37.5t-40 38.5zM225 196q24 0 52.5 12t51.5 36l40 42q-16 20 -35.5 39.5t-41 34.5t-43.5 24.5t-44 9.5q-14 0 -30 -5t-30 -16.5t-23.5 -30t-9.5 -45.5q0 -43 29.5 -72t83.5 -29zM461 306q16 -16 37 -33.5
t42.5 -32.5t43.5 -25t41 -10q15 0 30.5 5t28 16.5t21 30.5t8.5 46q0 43 -25.5 68t-79.5 25q-26 0 -58 -10.5t-54 -36.5z" />
    <glyph glyph-name="integral" unicode="&#x222b;" 
d="M311 514q7 37 21 66t37 46l125 83h84l-13 -63h-118q-27 -21 -41.5 -49.5t-18.5 -53.5l-101 -575q-7 -35 -17 -65.5t-30 -43.5l-129 -82h-69l13 58h97q26 19 40.5 45.5t18.5 49.5z" />
    <glyph glyph-name="approxequal" unicode="&#x2248;" 
d="M562 397h31l-36 -103l-91 -18l-365 56l-42 -63h-31l34 98l97 23l362 -56zM561 215h31l-36 -103l-91 -18l-365 56l-42 -63h-31l34 98l97 23l362 -56z" />
    <glyph glyph-name="notequal" unicode="&#x2260;" 
d="M254 117l-97 -117h-69l98 117h-134v61h185l113 134h-298v61h349l91 107h67l-90 -107h98v-61h-150l-112 -134h262v-61h-313z" />
    <glyph glyph-name="lessequal" unicode="&#x2264;" 
d="M48 61h523v-61h-523v61zM570 618v-76l-430 -185l430 -185v-77l-520 231v60z" />
    <glyph glyph-name="greaterequal" unicode="&#x2265;" 
d="M571 0h-523v61h523v-61zM569 386v-60l-520 -231v77l430 185l-430 185v76z" />
    <glyph glyph-name="lozenge" unicode="&#x25ca;" 
d="M289 695l45 20l239 -346l-242 -365l-45 -20l-239 346zM320 616l-7 35l-189 -293l175 -280l7 -35l193 295z" />
    <glyph glyph-name="commaaccent" unicode="&#xf6c3;" horiz-adv-x="500" 
d="M229 -125l-17 35l7 40h92l-14 -80l-78 -106l-31 10z" />
    <glyph glyph-name="asuperior" unicode="&#xf6e9;" horiz-adv-x="314" 
d="M296 436l49 29l12 -16l-89 -57l-46 20l6 29l12 28l-94 -77q-32 9 -54.5 34t-22.5 70q0 50 28.5 88t82.5 62l52 26q22 0 50.5 -7t54.5 -16zM145 525q0 -26 8.5 -43t20.5 -30l62 38l25 124q-14 8 -34.5 11.5t-37.5 3.5q-20 -22 -32 -48t-12 -56z" />
    <glyph glyph-name="bsuperior" unicode="&#xf6ea;" horiz-adv-x="312" 
d="M262 672q35 -7 56 -33t21 -70q0 -50 -28 -90.5t-81 -61.5l-51 -25q-29 0 -57 6.5t-54 20.5l66 334l-56 -13l-8 20l113 33l24 -19l-29 -144l-13 -28zM169 584l-24 -128q14 -8 33.5 -14t37.5 -6q25 17 36 46.5t11 55.5q0 29 -9 48t-22 26z" />
    <glyph glyph-name="dsuperior" unicode="&#xf6eb;" horiz-adv-x="326" 
d="M225 414l7 30l12 27l-95 -79q-34 10 -57 34.5t-23 71.5q0 99 104 144l56 30q12 0 22 -1.5t22 -3.5l18 86l-54 -13l-8 20l114 33l22 -19l-66 -339l49 30l13 -16l-89 -57zM145 524q0 -26 9.5 -42.5t23.5 -28.5l62 38l25 129q-14 5 -35 8t-38 3q-23 -20 -35 -49.5t-12 -57.5
z" />
    <glyph glyph-name="esuperior" unicode="&#xf6ec;" horiz-adv-x="281" 
d="M205 445q16 5 38.5 15.5t38.5 18.5l12 -17q-17 -11 -43.5 -26t-51.5 -26l-35 -18q-38 6 -66.5 32.5t-28.5 71.5q0 51 30.5 93t89.5 61l56 22q27 -5 45 -21t18 -44q0 -13 -2.5 -23t-7.5 -24l-153 -42v-4q3 -23 19.5 -42t40.5 -27zM204 637q-27 -14 -40.5 -40.5
t-16.5 -58.5l81 25q3 11 4.5 18t1.5 16q0 17 -8.5 27.5t-21.5 12.5z" />
    <glyph glyph-name="isuperior" unicode="&#xf6ed;" horiz-adv-x="193" 
d="M157 780l22 5l41 -5v-36l-12 -30l-21 -5l-46 5l3 35zM72 614l-8 17l104 41l29 -28l-41 -206l49 27l11 -16l-88 -57l-46 21l41 215z" />
    <glyph glyph-name="lsuperior" unicode="&#xf6ee;" horiz-adv-x="187" 
d="M98 740l-8 20l114 33l22 -19l-65 -337l49 28l12 -16l-89 -57l-46 21l66 339z" />
    <glyph glyph-name="msuperior" unicode="&#xf6ef;" horiz-adv-x="485" 
d="M279 672q68 0 61 -64l94 64q72 0 60 -72l-32 -165l50 29l11 -14l-89 -58l-47 20l33 168q2 11 -1 19t-14 8q-10 0 -21.5 -4.5t-20.5 -8.5l-27 -16l-36 -178h-70l35 182q3 11 -0.5 19t-14.5 8q-9 0 -20.5 -4.5t-20.5 -9.5l-29 -15l-34 -180h-70l44 227l-51 -13l-8 17
l104 41l28 -27l-4 -21l-10 -20z" />
    <glyph glyph-name="osuperior" unicode="&#xf6f0;" horiz-adv-x="317" 
d="M229 672q22 0 43 -7t36.5 -21.5t25 -35t9.5 -47.5q0 -52 -31 -91t-90 -63l-39 -15q-23 0 -43.5 6.5t-36.5 20t-25 34t-9 47.5q0 53 31.5 91t89.5 64zM205 633q-33 -13 -47 -46.5t-14 -67.5q0 -41 18 -63t45 -28q16 7 27.5 19.5t18.5 28t10.5 33t3.5 34.5q0 42 -18 63.5
t-44 26.5z" />
    <glyph glyph-name="rsuperior" unicode="&#xf6f1;" horiz-adv-x="246" 
d="M183 604l-21 -66l85 129h55l-17 -76h-32q-14 -7 -28.5 -17.5t-28.5 -25.5l-24 -24l-25 -124h-69l43 227l-50 -13l-8 17l104 41l23 -23z" />
    <glyph glyph-name="ssuperior" unicode="&#xf6f2;" horiz-adv-x="226" 
d="M117 392q-8 1 -19 4.5t-22.5 7t-21 7t-13.5 5.5l30 58q18 -9 46 -22t51 -24q18 3 18 16q0 8 -6 17.5t-24 23.5l-51 40q-12 11 -20 25.5t-8 28.5q0 22 16.5 38t55.5 32l46 23q14 -2 35 -8.5t40 -15.5l-33 -60q-17 13 -41 25l-46 23q-18 -7 -18 -17q0 -7 6.5 -13t22.5 -19
l52 -42q17 -13 24 -27t7 -28q0 -28 -15.5 -44.5t-46.5 -27.5l-65 -26v0z" />
    <glyph glyph-name="tsuperior" unicode="&#xf6f3;" horiz-adv-x="206" 
d="M161 438l78 27l9 -15l-115 -58l-46 20l40 208h-56l2 12l27 24h34l6 29l58 52h20l-15 -83h71l-7 -34h-71z" />
    <glyph glyph-name="apple" unicode="&#xf8ff;" horiz-adv-x="685" 
d="M635 460l-3 -41l-8 -35l-12 -31l-3 -156l-21 -7l-50 70l-27 -7l-19 -140l-32 4l-7 -4l-4 -94l30 -19l16 -14l-3 -15l-30 1l-24 18h-14l-8 8l7 76l-4 47l-61 1l-3 -52l-2 -56v-20l-15 -6l-8 6l-30 -10h-32l-1 11l11 11l50 21l-6 96l-98 -6l-147 140l-4 115l-13 10l-10 36
v26l15 8l-3 78l92 -62l9 47l10 36l22 35l28 35l39 29l40 15l38 14h22l-68 22l4 17h7l79 -20l-4 51l16 12h32l19 -5l29 -25l32 -8l32 -10l15 -13v-20l-20 -31l30 -28l28 -32l18 -34l15 -41zM525 399l-4 7h-205l-66 -3l-7 -9l-6 -44l-48 20l-11 -4l57 -27l1 -45l-5 -73v-91
l18 4l2 40l41 -3l3 9l-44 6v16l48 -6l1 9l-47 7l1 22l43 -3l3 6l-45 9l3 94h74l11 10h-79l2 9h74l8 7h-82l2 22l117 4l140 -4v11zM206 569l29 12l13 -15l-17 -20l-10 -3l17 -3h5l36 24h32l18 -12l8 3l4 14l7 5l10 -4v-18h8l10 22l11 8l-5 6l-3 8l1 21l-30 -10l-10 -8l-8 5
l4 21l14 10l11 11l38 -2l12 13l-4 8h-49l-45 -13l-53 -26l-29 -23zM616 465l-8 37l-19 50l-20 36l-23 28l-34 21h-11l17 -19l25 -10l11 -11l3 -33l-25 13l-15 -29l12 -8v-19l15 3l-12 26l15 -5l10 -20l-5 -12l-8 -7h-23l-3 11l-12 2l1 -22h-14l14 -18l-7 -10l-21 5l-3 -27
l41 6l8 17l22 -2l6 -28l-16 -13v-15l8 -6l18 12h23l6 11l-18 6l-5 9l9 42h7l14 -20zM102 434l57 -32l7 10l-68 38v18l59 -34l43 -28l28 -14l3 10l-103 64l-13 7l-41 33l2 -78l19 -17v-5h-21l19 -14l1 -11l-20 7l18 -18l-4 -7l3 -97l11 -12v180zM511 331l-54 1l-1 -24v-6
l-2 -31l19 -3l-8 -61l-48 3l-8 -6l51 -5l-2 -9h-49l-4 -5l53 -7l-6 -35l27 -1l12 79l4 36l-15 3l-1 8l20 1l5 3l-28 16l2 5l30 -6l-30 15l5 5l21 -5l4 10zM206 331l-66 39v-7l-2 -13l1 -27v-48l64 -44l-1 60zM380 214l-64 4v-51l64 -6v53zM532 306l8 -6l8 2l20 15l13 13
l11 18l-7 5h-14l-10 3l-14 7l-17 -3q-2 -13 -3 -24q-2 -9 -2.5 -17t-0.5 -7zM428 585l5 -6l19 11l8 -2l6 -24h13l6 6l-9 18l17 28l-15 9v5l-25 7v-20l-13 -5v-9l-9 -6zM433 336l4 30l-54 5l-3 -35h53zM366 455l-7 -11h-12l-5 7l11 8l-15 2v6l-23 4l3 -17l8 -14l20 -9l13 -1
l18 10l6 9l5 20l-30 2l7 -5zM589 312l-6 -3l-33 -27l39 -48v78zM244 454l1 4l14 2l-13 6l2 7l-20 -1l3 -19l14 -15l12 -6l11 5l16 12l6 12l2 13l-22 -4l6 -10l-12 -13l-14 -1zM394 281l-72 7l-6 -13l78 -4v10zM206 203l-74 50l20 -23l50 -41zM394 312h-73v-10h73v10z
M384 256l-68 4v-10h68v6zM515 359h-48v-13l44 4zM351 520l-4 -12l49 -17l3 4zM214 498l59 12l-4 12zM414 642l-8 -9v-19l12 -6l3 17zM491 530l-8 -4v-9l8 -3l2 7zM564 386l5 7v7l-10 -4v-10h5z" />
    <glyph glyph-name="AE.sc" horiz-adv-x="723" 
d="M261 262h108l39 214zM651 -1l-289 2l-105 -2l-1 31l74 10l33 186h-120l-130 -186l67 -10l-10 -31l-86 2l-85 -2l2 31l62 8l326 470l62 -2l271 2v-127h-27l-33 86l-181 2l-37 -204l90 2l52 84h19l-30 -105l-7 -107h-20l-20 83l-90 3l-33 -186l189 2l64 99h30z" />
    <glyph glyph-name="AEacute.002" horiz-adv-x="869" 
d="M528 750l84 100h104l-136 -100h-52zM212 30l-12 -31l-116 3l-109 -3l2 31l85 11l406 660l74 -3l342 3v-168h-30l-42 121l-240 3l-47 -298l121 4l64 122h21l-38 -145l-9 -151h-21l-25 123l-120 4l-46 -274l250 3l81 151h35l-46 -197l-361 2l-131 -2l-1 31l95 13l42 272
h-149l-163 -272zM310 360h134l48 295z" />
    <glyph glyph-name="AEacute.sc" horiz-adv-x="723" 
d="M446 558l49 98h93l-110 -98h-32zM261 262h108l39 214zM651 -1l-289 2l-105 -2l-1 31l74 10l33 186h-120l-130 -186l67 -10l-10 -31l-86 2l-85 -2l2 31l62 8l326 470l62 -2l271 2v-127h-27l-33 86l-181 2l-37 -204l90 2l52 84h19l-30 -105l-7 -107h-20l-20 83l-90 3
l-33 -186l189 2l64 99h30z" />
    <glyph glyph-name="Aacute.002" horiz-adv-x="655" 
d="M436 750l84 100h104l-136 -100h-52zM506 2l-131 -3l-1 31l91 13l-21 193h-220l-100 -193l88 -13l-9 -31l-111 3l-111 -3l-1 31l86 11l366 660l46 17l74 -677l79 -11l-8 -31zM248 281h191l-26 237l-2 73z" />
    <glyph glyph-name="Aacute.sc" horiz-adv-x="555" 
d="M368 558l49 98h93l-108 -98h-34zM411 1l-102 -2l1 31l69 10l-16 127h-172l-83 -127l68 -10l-9 -31l-82 2l-86 -2l1 31l63 8l292 464l49 19l55 -483l60 -8l-7 -31zM210 205h150l-20 179l-1 49z" />
    <glyph glyph-name="Abreve.002" horiz-adv-x="655" 
d="M463 797q22 0 41 6t34 15t26.5 19t20.5 18l19 -8q-7 -8 -16 -21t-24.5 -28t-38.5 -31t-59 -29q-32 0 -52.5 11.5t-34 28.5t-22 35.5t-14.5 33.5l22 8l13.5 -18t18.5 -19t27 -15t39 -6zM506 2l-131 -3l-1 31l91 13l-21 193h-220l-100 -193l88 -13l-9 -31l-111 3l-111 -3
l-1 31l86 11l366 660l46 17l74 -677l79 -11l-8 -31zM248 281h191l-26 237l-2 73z" />
    <glyph glyph-name="Abreve.sc" horiz-adv-x="555" 
d="M385 610q35 0 59 13.5t38 22.5l16 -18q-7 -11 -14 -20.5t-19 -19t-30.5 -18.5t-47.5 -19q-25 0 -42.5 7.5t-29.5 18.5t-20 25t-13 27l23 18q5 -5 11.5 -11t15.5 -12t22 -10t31 -4zM411 1l-102 -2l1 31l69 10l-16 127h-172l-83 -127l68 -10l-9 -31l-82 2l-86 -2l1 31l63 8
l292 464l49 19l55 -483l60 -8l-7 -31zM210 205h150l-20 179l-1 49z" />
    <glyph glyph-name="Acircumflex.002" horiz-adv-x="655" 
d="M327 750l123 100h75l89 -100h-50l-83 55l-104 -55h-50zM506 2l-131 -3l-1 31l91 13l-21 193h-220l-100 -193l88 -13l-9 -31l-111 3l-111 -3l-1 31l86 11l366 660l46 17l74 -677l79 -11l-8 -31zM248 281h191l-26 237l-2 73z" />
    <glyph glyph-name="Acircumflex.sc" horiz-adv-x="555" 
d="M285 557l88 98h65l49 -98h-36l-56 50l-72 -50h-38zM411 1l-102 -2l1 31l69 10l-16 127h-172l-83 -127l68 -10l-9 -31l-82 2l-86 -2l1 31l63 8l292 464l49 19l55 -483l60 -8l-7 -31zM210 205h150l-20 179l-1 49z" />
    <glyph glyph-name="Adieresis.002" horiz-adv-x="655" 
d="M372 851l61 -4v-44l-15 -45l-17 -4l-63 4l4 52l18 37zM569 851l60 -4l1 -44l-16 -45l-16 -4l-63 4l4 52l17 37zM506 2l-131 -3l-1 31l91 13l-21 193h-220l-100 -193l88 -13l-9 -31l-111 3l-111 -3l-1 31l86 11l366 660l46 17l74 -677l79 -11l-8 -31zM248 281h191l-26 237
l-2 73z" />
    <glyph glyph-name="Adieresis.sc" horiz-adv-x="556" 
d="M315 640l44 -4l1 -38l-13 -35l-21 -5l-47 5l3 41l14 32zM475 640l45 -4v-38l-13 -35l-20 -5l-48 5l4 41l15 32zM411 1l-102 -2l1 31l69 10l-16 127h-172l-83 -127l68 -10l-9 -31l-82 2l-86 -2l1 31l63 8l292 464l49 19l55 -483l60 -8l-7 -31zM210 205h150l-20 179l-1 49z
" />
    <glyph glyph-name="Agrave.002" horiz-adv-x="655" 
d="M446 750l-66 100h82l19 -100h-35zM506 2l-131 -3l-1 31l91 13l-21 193h-220l-100 -193l88 -13l-9 -31l-111 3l-111 -3l-1 31l86 11l366 660l46 17l74 -677l79 -11l-8 -31zM248 281h191l-26 237l-2 73z" />
    <glyph glyph-name="Agrave.sc" horiz-adv-x="555" 
d="M366 558l-72 98h86l19 -98h-33zM411 1l-102 -2l1 31l69 10l-16 127h-172l-83 -127l68 -10l-9 -31l-82 2l-86 -2l1 31l63 8l292 464l49 19l55 -483l60 -8l-7 -31zM210 205h150l-20 179l-1 49z" />
    <glyph glyph-name="Amacron.002" horiz-adv-x="655" 
d="M340 828h276l-8 -52h-276zM506 2l-131 -3l-1 31l91 13l-21 193h-220l-100 -193l88 -13l-9 -31l-111 3l-111 -3l-1 31l86 11l366 660l46 17l74 -677l79 -11l-8 -31zM248 281h191l-26 237l-2 73z" />
    <glyph glyph-name="Amacron.sc" horiz-adv-x="555" 
d="M286 624h221l-7 -46h-220zM411 1l-102 -2l1 31l69 10l-16 127h-172l-83 -127l68 -10l-9 -31l-82 2l-86 -2l1 31l63 8l292 464l49 19l55 -483l60 -8l-7 -31zM210 205h150l-20 179l-1 49z" />
    <glyph glyph-name="Aogonek.001" horiz-adv-x="649" 
d="M425 518l-2 73l-167 -310h189zM449 236h-219l-106 -193l88 -13l-9 -31l-111 3l-111 -3l-1 31l86 11l378 660l40 17l62 -677l79 -11l-8 -31l-130 3l-66 -82l-3 -13q-5 -20 1.5 -32t20 -19t32 -9.5t38.5 -2.5l-5 -30q-94 0 -132.5 27t-24.5 76l4 16l116 81z" />
    <glyph glyph-name="Aogonek.sc" horiz-adv-x="551" 
d="M213 205h149l-16 179v49zM400 -176q-77 0 -106 17.5t-21 54.5l7 45l101 77l-16 149h-171l-86 -127l66 -10l-7 -31l-83 2l-85 -2l-1 31l64 8l301 464l44 19l49 -483l59 -8l-7 -31l-112 2l-59 -78l-5 -25q-5 -20 15 -33.5t57 -13.5z" />
    <glyph glyph-name="Aring.002" horiz-adv-x="655" 
d="M423 784q0 -19 12.5 -30.5t31.5 -11.5q20 0 32 11.5t12 30.5q0 17 -12 29t-32 12q-19 0 -31.5 -12t-12.5 -29zM467 716q-14 0 -28 3.5t-25.5 11.5t-18.5 20.5t-7 30.5q0 16 7 27.5t18 19t25 12.5t29 9q14 0 28 -3.5t25.5 -11.5t18.5 -20.5t7 -30.5q0 -17 -6.5 -28
t-17.5 -18.5t-25.5 -12.5t-29.5 -9zM506 2l-131 -3l-1 31l91 13l-21 193h-220l-100 -193l88 -13l-9 -31l-111 3l-111 -3l-1 31l86 11l366 660l46 17l74 -677l79 -11l-8 -31zM248 281h191l-26 237l-2 73z" />
    <glyph glyph-name="Aring.sc" horiz-adv-x="555" 
d="M467 610q0 -20 -6.5 -31t-17 -18t-25 -11.5t-30.5 -10.5q-15 0 -30 3.5t-26.5 11.5t-19 21.5t-7.5 34.5q0 18 7 30.5t18 20.5t25.5 13.5t29.5 9.5q35 0 58.5 -15.5t23.5 -58.5zM343 610q0 -17 12.5 -28t30.5 -11t31 11t13 28q0 18 -13 30t-31 12t-30.5 -12t-12.5 -30z
M411 1l-102 -2l1 31l69 10l-16 127h-172l-83 -127l68 -10l-9 -31l-82 2l-86 -2l1 31l63 8l292 464l49 19l55 -483l60 -8l-7 -31zM210 205h150l-20 179l-1 49z" />
    <glyph glyph-name="Aringacute.002" horiz-adv-x="655" 
d="M469 716q-14 0 -28 3.5t-25.5 11.5t-18.5 20.5t-7 30.5q0 16 7 27.5t18 19t25 12.5t29 9q28 0 51 -14l11 9l77 3l-67 -34q7 -14 7 -30q0 -17 -6.5 -28t-17.5 -18.5t-25.5 -12.5t-29.5 -9zM425 784q0 -19 12.5 -30.5t31.5 -11.5q20 0 32 11.5t12 30.5q0 17 -12 29t-32 12
q-19 0 -31.5 -12t-12.5 -29zM506 2l-131 -3l-1 31l91 13l-21 193h-220l-100 -193l88 -13l-9 -31l-111 3l-111 -3l-1 31l86 11l366 660l46 17l74 -677l79 -11l-8 -31zM248 281h191l-26 237l-2 73z" />
    <glyph glyph-name="Aringacute.sc" horiz-adv-x="555" 
d="M467 610q0 -20 -6.5 -31t-17 -18t-25 -11.5t-30.5 -10.5q-15 0 -30 3.5t-26.5 11.5t-19 21.5t-7.5 34.5q0 18 7 30.5t18 20.5t25.5 13.5t29.5 9.5l17 33l82 3l-55 -45q17 -7 27.5 -23t10.5 -42zM343 610q0 -17 12.5 -28t30.5 -11t31 11t13 28q0 18 -13 30t-31 12
t-30.5 -12t-12.5 -30zM411 1l-102 -2l1 31l69 10l-16 127h-172l-83 -127l68 -10l-9 -31l-82 2l-86 -2l1 31l63 8l292 464l49 19l55 -483l60 -8l-7 -31zM210 205h150l-20 179l-1 49z" />
    <glyph glyph-name="Atilde.002" horiz-adv-x="655" 
d="M379 829l67 19l129 -59l51 60h16l-43 -89l-65 -13l-129 58l-51 -60h-16zM506 2l-131 -3l-1 31l91 13l-21 193h-220l-100 -193l88 -13l-9 -31l-111 3l-111 -3l-1 31l86 11l366 660l46 17l74 -677l79 -11l-8 -31zM248 281h191l-26 237l-2 73z" />
    <glyph glyph-name="Atilde.sc" horiz-adv-x="564" 
d="M311 635l55 16l109 -40l37 39h16l-33 -78l-53 -13l-110 41l-37 -39h-16zM411 1l-102 -2l1 31l69 10l-16 127h-172l-83 -127l68 -10l-9 -31l-82 2l-86 -2l1 31l63 8l292 464l49 19l55 -483l60 -8l-7 -31zM210 205h150l-20 179l-1 49z" />
    <glyph glyph-name="B.sc" horiz-adv-x="496" 
d="M312 44q78 42 78 111q0 39 -26.5 66.5t-91.5 27.5h-65l-36 -205h141zM328 275q68 -5 107.5 -37.5t39.5 -75.5q0 -30 -11 -52.5t-30.5 -40t-45 -29.5t-53.5 -19l-56 -22l-151 2l-109 -2l-1 31l74 10l78 431l-72 8l8 29l109 -2l129 2q36 0 61.5 -8t42 -22.5t24 -33
t7.5 -37.5q0 -42 -27.5 -73.5t-83.5 -46.5zM258 284q32 0 57.5 10t43 26.5t27 37.5t9.5 42q0 29 -19 51t-62 22h-67l-34 -189h45z" />
    <glyph glyph-name="C.sc" horiz-adv-x="521" 
d="M278 -13q-51 0 -92 15t-69.5 43t-44 68t-15.5 90q0 42 10.5 86t36 83.5t68 72t106.5 52.5l66 25q59 0 102 -17.5t65 -34.5l-5 -116h-40l-17 69q-17 17 -51 31.5t-92 21.5q-81 -32 -122.5 -97t-41.5 -151q0 -47 14 -82.5t37 -60t54 -37.5t65 -16q29 12 47.5 22.5
t38.5 29.5l47 82h42l-30 -130z" />
    <glyph glyph-name="Cacute.002" horiz-adv-x="605" 
d="M386 750l84 100h104l-136 -100h-52zM328 -18q-64 0 -115 21.5t-87 62t-55.5 97.5t-19.5 129q0 57 13 117t44.5 115t85.5 100t136 72l76 24q37 0 70 -7.5t60 -19t48 -25t35 -26.5l-6 -136h-49l-20 97q-21 22 -65 39t-119 29q-107 -45 -161.5 -138t-54.5 -224
q0 -69 18 -120.5t48.5 -86t71.5 -53t87 -20.5q37 14 61 27t48 33l58 120h51l-36 -162z" />
    <glyph glyph-name="Cacute.sc" horiz-adv-x="521" 
d="M340 558l48 98h88l-103 -98h-33zM278 -13q-51 0 -92 15t-69.5 43t-44 68t-15.5 90q0 42 10.5 86t36 83.5t68 72t106.5 52.5l66 25q59 0 102 -17.5t65 -34.5l-5 -116h-40l-17 69q-17 17 -51 31.5t-92 21.5q-81 -32 -122.5 -97t-41.5 -151q0 -47 14 -82.5t37 -60t54 -37.5
t65 -16q29 12 47.5 22.5t38.5 29.5l47 82h42l-30 -130z" />
    <glyph glyph-name="Ccaron.002" horiz-adv-x="605" 
d="M594 850l-124 -100h-75l-91 100h50l86 -55l104 55h50zM328 -18q-64 0 -115 21.5t-87 62t-55.5 97.5t-19.5 129q0 57 13 117t44.5 115t85.5 100t136 72l76 24q37 0 70 -7.5t60 -19t48 -25t35 -26.5l-6 -136h-49l-20 97q-21 22 -65 39t-119 29q-107 -45 -161.5 -138
t-54.5 -224q0 -69 18 -120.5t48.5 -86t71.5 -53t87 -20.5q37 14 61 27t48 33l58 120h51l-36 -162z" />
    <glyph glyph-name="Ccaron.sc" horiz-adv-x="521" 
d="M487 656l-86 -98h-65l-51 98h38l54 -48l72 48h38zM278 -13q-51 0 -92 15t-69.5 43t-44 68t-15.5 90q0 42 10.5 86t36 83.5t68 72t106.5 52.5l66 25q59 0 102 -17.5t65 -34.5l-5 -116h-40l-17 69q-17 17 -51 31.5t-92 21.5q-81 -32 -122.5 -97t-41.5 -151q0 -47 14 -82.5
t37 -60t54 -37.5t65 -16q29 12 47.5 22.5t38.5 29.5l47 82h42l-30 -130z" />
    <glyph glyph-name="Ccedilla.001" horiz-adv-x="606" 
d="M331 -17l-13 -15q11 -2 23 -6t21.5 -10.5t16 -15.5t6.5 -22q0 -15 -7.5 -27t-19 -21t-25 -15t-25.5 -10l-51 -16h-57l29 38h81q12 6 18.5 15.5t6.5 19.5t-8 17t-20 11t-27 6t-29 2l47 50q-57 5 -102.5 28.5t-77.5 63t-49 94t-17 122.5q0 57 13 117t44.5 115t85.5 100
t136 72l76 24q37 0 70 -7.5t60 -19t48 -25t35 -26.5l-6 -136h-49l-20 97q-21 22 -65 39t-119 29q-107 -45 -161.5 -138t-54.5 -224q0 -69 18 -120.5t48.5 -86t71.5 -53t87 -20.5q37 14 61 27t48 33l58 120h51l-36 -162z" />
    <glyph glyph-name="Ccedilla.sc" horiz-adv-x="521" 
d="M198 -176h-46l23 30h67q14 8 21 20t7 24t-6.5 20.5t-16 14t-21.5 7.5t-23 2l46 47q-91 10 -141.5 66.5t-50.5 147.5q0 42 10.5 86t36 83.5t68 72t106.5 52.5l66 25q59 0 102 -17.5t64 -34.5l-4 -116h-40l-17 69q-17 17 -51 31.5t-93 21.5q-81 -32 -122 -97t-41 -151
q0 -47 13.5 -82.5t37 -60t54 -37.5t64.5 -16q29 12 48 22.5t38 29.5l48 82h42l-30 -130l-179 -49l-20 -21q23 0 43.5 -12.5t20.5 -36.5q0 -17 -8 -30t-20.5 -23t-27.5 -16.5t-28 -11.5z" />
    <glyph glyph-name="Ccircumflex.002" horiz-adv-x="605" 
d="M290 750l124 100h75l89 -100h-50l-84 55l-104 -55h-50zM328 -18q-64 0 -115 21.5t-87 62t-55.5 97.5t-19.5 129q0 57 13 117t44.5 115t85.5 100t136 72l76 24q37 0 70 -7.5t60 -19t48 -25t35 -26.5l-6 -136h-49l-20 97q-21 22 -65 39t-119 29q-107 -45 -161.5 -138
t-54.5 -224q0 -69 18 -120.5t48.5 -86t71.5 -53t87 -20.5q37 14 61 27t48 33l58 120h51l-36 -162z" />
    <glyph glyph-name="Ccircumflex.sc" horiz-adv-x="521" 
d="M265 557l87 98h64l51 -98h-38l-54 50l-72 -50h-38zM278 -13q-51 0 -92 15t-69.5 43t-44 68t-15.5 90q0 42 10.5 86t36 83.5t68 72t106.5 52.5l66 25q59 0 102 -17.5t65 -34.5l-5 -116h-40l-17 69q-17 17 -51 31.5t-92 21.5q-81 -32 -122.5 -97t-41.5 -151q0 -47 14 -82.5
t37 -60t54 -37.5t65 -16q29 12 47.5 22.5t38.5 29.5l47 82h42l-30 -130z" />
    <glyph glyph-name="Cdotaccent.002" horiz-adv-x="605" 
d="M444 851l61 -4v-47l-15 -43l-17 -4l-69 4l4 49l17 41zM328 -18q-64 0 -115 21.5t-87 62t-55.5 97.5t-19.5 129q0 57 13 117t44.5 115t85.5 100t136 72l76 24q37 0 70 -7.5t60 -19t48 -25t35 -26.5l-6 -136h-49l-20 97q-21 22 -65 39t-119 29q-107 -45 -161.5 -138
t-54.5 -224q0 -69 18 -120.5t48.5 -86t71.5 -53t87 -20.5q37 14 61 27t48 33l58 120h51l-36 -162z" />
    <glyph glyph-name="Cdotaccent.sc" horiz-adv-x="521" 
d="M346 640l22 4l44 -5v-41l-13 -36l-20 -5l-50 5l4 41zM278 -13q-51 0 -92 15t-69.5 43t-44 68t-15.5 90q0 42 10.5 86t36 83.5t68 72t106.5 52.5l66 25q59 0 102 -17.5t65 -34.5l-5 -116h-40l-17 69q-17 17 -51 31.5t-92 21.5q-81 -32 -122.5 -97t-41.5 -151
q0 -47 14 -82.5t37 -60t54 -37.5t65 -16q29 12 47.5 22.5t38.5 29.5l47 82h42l-30 -130z" />
    <glyph glyph-name="D.sc" horiz-adv-x="562" 
d="M244 472l-76 -427h141q31 15 59 38t50 53t35 67.5t13 82.5q0 43 -12.5 77.5t-34 58.5t-50.5 37t-61 13h-64zM122 1l-103 -2l-1 31l71 10l77 431l-71 8l8 29l104 -2l134 2q49 1 88 -14.5t66 -43.5t41.5 -67t14.5 -86q0 -41 -12 -82t-39 -77.5t-69.5 -67t-103.5 -51.5
l-64 -20z" />
    <glyph glyph-name="Dcaron.002" horiz-adv-x="664" 
d="M533 850l-124 -100h-75l-91 100h50l86 -55l104 55h50zM265 662l-96 -606h186q41 21 78.5 53t66.5 74.5t46.5 94.5t17.5 111q0 69 -16.5 119t-45.5 83t-67.5 50.5t-82.5 20.5h-87zM118 2l-127 -3l-2 31l94 13l98 620l-95 8l9 30l126 -3l173 3q61 1 110 -19.5t83 -59.5
t52 -94.5t18 -124.5q0 -54 -15.5 -110.5t-49.5 -107.5t-87 -93t-129 -67l-81 -26z" />
    <glyph glyph-name="Dcaron.sc" horiz-adv-x="562" 
d="M415 656l-87 -98h-64l-50 98h37l54 -48l73 48h37zM218 472l-76 -427h141q31 15 59 38t50 53t35 67.5t13 82.5q0 43 -12.5 77.5t-34.5 58.5t-50.5 37t-60.5 13h-64zM96 1l-103 -2l-2 31l72 10l77 431l-71 8l8 29l103 -2l135 2q49 1 87.5 -14.5t65.5 -43.5t41.5 -67
t14.5 -86q0 -41 -12 -82t-39 -77.5t-69.5 -67t-102.5 -51.5l-65 -20z" />
    <glyph glyph-name="Dcroat.sc" horiz-adv-x="562" 
d="M96 1l-103 -2l-2 31l72 10l36 204h-69l7 40h69l34 187l-71 8l8 29l103 -2l135 2q49 1 87.5 -14.5t65.5 -43.5t41.5 -67t14.5 -86q0 -41 -12 -82t-39 -77.5t-69.5 -67t-102.5 -51.5l-65 -20zM218 472l-34 -188h97l-7 -40h-97l-35 -199h141q31 15 59 38t50 53t35 67.5
t13 82.5q0 43 -12.5 77.5t-34.5 58.5t-50.5 37t-60.5 13h-64z" />
    <glyph glyph-name="E.sc" horiz-adv-x="505" 
d="M504 508v-132h-26l-34 91l-198 2l-34 -183l112 3l48 76h23l-27 -99l-7 -98h-24l-18 77l-112 3l-39 -209l216 2l61 97h30l-35 -139l-313 2l-108 -2v31l72 10l78 430l-70 8l7 30l110 -2z" />
    <glyph glyph-name="Eacute.002" horiz-adv-x="582" 
d="M338 750l84 100h104l-136 -100h-52zM597 701v-165h-28l-42 119l-261 3l-42 -273l148 4l61 105h25l-35 -128l-9 -126h-25l-23 104l-149 4l-49 -306l280 3l76 135h33l-40 -181l-389 3l-138 -3l-1 31l95 13l98 615l-91 13l9 30l139 -3z" />
    <glyph glyph-name="Eacute.sc" horiz-adv-x="505" 
d="M305 558l49 98h93l-110 -98h-32zM504 508v-132h-26l-34 91l-198 2l-34 -183l112 3l48 76h23l-27 -99l-7 -98h-24l-18 77l-112 3l-39 -209l216 2l61 97h30l-35 -139l-313 2l-108 -2v31l72 10l78 430l-70 8l7 30l110 -2z" />
    <glyph glyph-name="Ebreve.002" horiz-adv-x="582" 
d="M380 827q22 0 41 6.5t34 16.5t26.5 21t20.5 20l19 -20q-7 -8 -16 -22t-24.5 -30t-38.5 -32.5t-59 -30.5q-32 0 -53.5 12t-36 30t-23.5 38t-15 35l27 20q6 -9 13.5 -20t18.5 -21t27 -16.5t39 -6.5zM597 701v-165h-28l-42 119l-261 3l-42 -273l148 4l61 105h25l-35 -128
l-9 -126h-25l-23 104l-149 4l-49 -306l280 3l76 135h33l-40 -181l-389 3l-138 -3l-1 31l95 13l98 615l-91 13l9 30l139 -3z" />
    <glyph glyph-name="Ebreve.sc" horiz-adv-x="505" 
d="M329 610q35 0 58.5 13.5t37.5 22.5l16 -18q-7 -11 -14 -20.5t-18.5 -19t-30 -18.5t-47.5 -19q-25 0 -42.5 7.5t-29.5 18.5t-19.5 25t-12.5 27l23 18q9 -9 26.5 -23t52.5 -14zM504 508v-132h-26l-34 91l-198 2l-34 -183l112 3l48 76h23l-27 -99l-7 -98h-24l-18 77l-112 3
l-39 -209l216 2l61 97h30l-35 -139l-313 2l-108 -2v31l72 10l78 430l-70 8l7 30l110 -2z" />
    <glyph glyph-name="Ecaron.002" horiz-adv-x="582" 
d="M536 850l-124 -100h-75l-91 100h50l86 -55l104 55h50zM597 701v-165h-28l-42 119l-261 3l-42 -273l148 4l61 105h25l-35 -128l-9 -126h-25l-23 104l-149 4l-49 -306l280 3l76 135h33l-40 -181l-389 3l-138 -3l-1 31l95 13l98 615l-91 13l9 30l139 -3z" />
    <glyph glyph-name="Ecaron.sc" horiz-adv-x="505" 
d="M441 655l-86 -98h-65l-51 98h38l54 -48l72 48h38zM504 508v-132h-26l-34 91l-198 2l-34 -183l112 3l48 76h23l-27 -99l-7 -98h-24l-18 77l-112 3l-39 -209l216 2l61 97h30l-35 -139l-313 2l-108 -2v31l72 10l78 430l-70 8l7 30l110 -2z" />
    <glyph glyph-name="Ecircumflex.002" horiz-adv-x="582" 
d="M229 750l123 100h75l89 -100h-50l-83 55l-104 -55h-50zM597 701v-165h-28l-42 119l-261 3l-42 -273l148 4l61 105h25l-35 -128l-9 -126h-25l-23 104l-149 4l-49 -306l280 3l76 135h33l-40 -181l-389 3l-138 -3l-1 31l95 13l98 615l-91 13l9 30l139 -3z" />
    <glyph glyph-name="Ecircumflex.sc" horiz-adv-x="505" 
d="M222 557l86 98h66l49 -98h-36l-55 50l-73 -50h-37zM504 508v-132h-26l-34 91l-198 2l-34 -183l112 3l48 76h23l-27 -99l-7 -98h-24l-18 77l-112 3l-39 -209l216 2l61 97h30l-35 -139l-313 2l-108 -2v31l72 10l78 430l-70 8l7 30l110 -2z" />
    <glyph glyph-name="Edieresis.002" horiz-adv-x="582" 
d="M274 851l61 -4l1 -44l-16 -45l-16 -4l-63 4l4 52l17 37zM471 851l61 -4l1 -44l-16 -45l-16 -4l-64 4l5 52l17 37zM597 701v-165h-28l-42 119l-261 3l-42 -273l148 4l61 105h25l-35 -128l-9 -126h-25l-23 104l-149 4l-49 -306l280 3l76 135h33l-40 -181l-389 3l-138 -3
l-1 31l95 13l98 615l-91 13l9 30l139 -3z" />
    <glyph glyph-name="Edieresis.sc" horiz-adv-x="505" 
d="M253 640l45 -4l-1 -38l-13 -35l-21 -5l-45 5l3 41l14 32zM413 640l45 -4l-1 -38l-12 -35l-21 -5l-46 5l3 41l14 32zM504 508v-132h-26l-34 91l-198 2l-34 -183l112 3l48 76h23l-27 -99l-7 -98h-24l-18 77l-112 3l-39 -209l216 2l61 97h30l-35 -139l-313 2l-108 -2v31
l72 10l78 430l-70 8l7 30l110 -2z" />
    <glyph glyph-name="Edotaccent.002" horiz-adv-x="582" 
d="M384 851l61 -4v-47l-15 -43l-17 -4l-69 4l4 49l17 41zM597 701v-165h-28l-42 119l-261 3l-42 -273l148 4l61 105h25l-35 -128l-9 -126h-25l-23 104l-149 4l-49 -306l280 3l76 135h33l-40 -181l-389 3l-138 -3l-1 31l95 13l98 615l-91 13l9 30l139 -3z" />
    <glyph glyph-name="Edotaccent.sc" horiz-adv-x="505" 
d="M300 634l21 4l45 -5v-41l-14 -36l-19 -5l-49 5l2 42zM504 508v-132h-26l-34 91l-198 2l-34 -183l112 3l48 76h23l-27 -99l-7 -98h-24l-18 77l-112 3l-39 -209l216 2l61 97h30l-35 -139l-313 2l-108 -2v31l72 10l78 430l-70 8l7 30l110 -2z" />
    <glyph glyph-name="Egrave.002" horiz-adv-x="582" 
d="M376 750l-66 100h82l19 -100h-35zM597 701v-165h-28l-42 119l-261 3l-42 -273l148 4l61 105h25l-35 -128l-9 -126h-25l-23 104l-149 4l-49 -306l280 3l76 135h33l-40 -181l-389 3l-138 -3l-1 31l95 13l98 615l-91 13l9 30l139 -3z" />
    <glyph glyph-name="Egrave.sc" horiz-adv-x="505" 
d="M320 558l-72 98h86l19 -98h-33zM504 508v-132h-26l-34 91l-198 2l-34 -183l112 3l48 76h23l-27 -99l-7 -98h-24l-18 77l-112 3l-39 -209l216 2l61 97h30l-35 -139l-313 2l-108 -2v31l72 10l78 430l-70 8l7 30l110 -2z" />
    <glyph glyph-name="Emacron.002" horiz-adv-x="582" 
d="M266 828h276l-8 -52h-276zM597 701v-165h-28l-42 119l-261 3l-42 -273l148 4l61 105h25l-35 -128l-9 -126h-25l-23 104l-149 4l-49 -306l280 3l76 135h33l-40 -181l-389 3l-138 -3l-1 31l95 13l98 615l-91 13l9 30l139 -3z" />
    <glyph glyph-name="Emacron.sc" horiz-adv-x="505" 
d="M223 624h222l-7 -46h-222zM504 508v-132h-26l-34 91l-198 2l-34 -183l112 3l48 76h23l-27 -99l-7 -98h-24l-18 77l-112 3l-39 -209l216 2l61 97h30l-35 -139l-313 2l-108 -2v31l72 10l78 430l-70 8l7 30l110 -2z" />
    <glyph glyph-name="Eng.001" horiz-adv-x="708" 
d="M139 43l83 -13l-9 -31l-105 3l-118 -3l-1 31l94 13l96 605l-87 22l10 31l95 -3l56 3l259 -511l18 -66l80 533l-87 13l10 31l110 -3l119 3v-31l-96 -13l-103 -657l-97 -170h-119l15 81h80l39 54l50 35h-14l-275 551l-10 74z" />
    <glyph glyph-name="Eng.sc" horiz-adv-x="592" 
d="M138 40l65 -10l-7 -31l-86 2l-91 -2v31l72 10l74 427l-66 10l9 31l73 -2l53 2l199 -326l14 -61l60 347l-66 9l7 31l87 -2l92 2l1 -31l-74 -9l-81 -468l-108 -172h-98l12 66h60l70 86l39 20h-18l-213 369l-10 62z" />
    <glyph glyph-name="Eogonek.001" horiz-adv-x="582" 
d="M597 701v-165h-28l-42 119l-261 3l-42 -273l148 4l61 105h25l-35 -128l-9 -126h-25l-23 104l-149 4l-49 -306l280 3l76 135h33l-40 -181l-49 1l-63 -80l-3 -13q-5 -20 1 -32t19.5 -19t32.5 -9.5t39 -2.5l-6 -30q-94 0 -132.5 27t-24.5 76l5 16l96 67l-304 2l-138 -3
l-1 31l95 13l98 615l-91 13l9 30l139 -3z" />
    <glyph glyph-name="Eogonek.sc" horiz-adv-x="505" 
d="M402 -176q-77 0 -106 17.5t-21 54.5l6 45l85 59l-239 1l-108 -2v31l72 10l78 430l-70 8l7 30l110 -2l288 2v-132h-26l-34 91l-198 2l-34 -183l112 3l48 76h23l-27 -99l-7 -98h-24l-18 77l-112 3l-39 -209l216 2l61 97h30l-35 -139l-47 1l-54 -77l-5 -25q-5 -20 15 -33.5
t57 -13.5z" />
    <glyph glyph-name="Eth.sc" horiz-adv-x="562" 
d="M96 1l-103 -2l-2 31l72 10l37 206h-70l7 38h70l33 187l-71 8l8 29l103 -2l135 2q49 1 87.5 -14.5t65.5 -43.5t41.5 -67t14.5 -86q0 -41 -12 -82t-39 -77.5t-69.5 -67t-102.5 -51.5l-65 -20zM218 472l-34 -188h97l-7 -38h-96l-36 -201h141q31 15 59 38t50 53t35 67.5
t13 82.5q0 43 -12.5 77.5t-34.5 58.5t-50.5 37t-60.5 13h-64z" />
    <glyph glyph-name="Euro.sc" horiz-adv-x="477" 
d="M361 475q-62 -14 -110 -54t-74 -94h261l-30 -48h-241q-2 -13 -4 -25t-3 -26h212l-31 -47h-177q8 -66 47 -98.5t93 -32.5q40 0 77 14t59 25l15 -29q-16 -14 -57.5 -36t-103.5 -36q-92 0 -148.5 51.5t-64.5 141.5h-59l7 47h51q0 25 6 51h-45l7 48h50q30 60 91.5 105
t161.5 71l55 18q16 -2 32.5 -8t31 -14.5t27 -17t20.5 -15.5l-42 -57q-9 8 -23.5 18t-30.5 20t-32 17.5t-28 10.5z" />
    <glyph glyph-name="Euro.tlf" 
d="M431 666q-41 -7 -78.5 -27t-69.5 -50t-57.5 -67t-42.5 -79h342l-35 -51h-320q-9 -41 -9 -84h283l-36 -51h-244q5 -43 20.5 -80.5t39.5 -65t55.5 -43.5t68.5 -16q25 0 50 6.5t47.5 16t42 20t34.5 18.5l17 -25q-10 -7 -26.5 -19.5t-40.5 -27.5t-56 -31t-72 -29
q-57 0 -104.5 19.5t-82 55.5t-55.5 87t-26 114h-75l8 51h64q2 44 9 84h-57l8 51h62q37 94 117.5 159.5t210.5 98.5l68 17q19 -7 38.5 -16.5t36 -20t30.5 -20t23 -15.5l-51 -69q-12 11 -29.5 24.5t-36.5 26t-38 23t-33 15.5z" />
    <glyph glyph-name="Euro.tlf.sc" 
d="M402 475q-62 -14 -110 -54t-74 -94h261l-31 -48h-240q-5 -23 -7 -51h212l-31 -47h-178q8 -66 47 -98.5t94 -32.5q40 0 76.5 14t59.5 25l15 -29q-16 -14 -57.5 -36t-103.5 -36q-92 0 -148.5 51.5t-64.5 141.5h-59l7 47h50q2 28 7 51h-46l7 48h51q29 60 90.5 105t161.5 71
l56 18q16 -2 32.5 -8t31 -14.5t27 -17t20.5 -15.5l-42 -57q-9 8 -23.5 18t-30.5 20t-32 17.5t-28 10.5z" />
    <glyph glyph-name="F.sc" horiz-adv-x="463" 
d="M266 30l-8 -31l-130 2l-109 -2v31l72 10l78 430l-70 8l7 30l110 -2l288 2v-134h-26l-34 93l-198 2l-36 -195l112 3l48 77h23l-27 -99l-7 -98h-23l-19 77l-112 3l-37 -198z" />
    <glyph glyph-name="G.sc" horiz-adv-x="547" 
d="M419 197l-66 10l8 31l97 -1l93 2v-32l-55 -10l-28 -156l-188 -54q-51 0 -92 14.5t-70 42.5t-45 68t-16 91q0 43 13 87t42 84t75.5 73t113.5 53l60 21q54 0 96 -17t63 -35l-2 -112h-42l-18 68q-8 10 -22 19.5t-31.5 16.5t-37.5 11.5t-41 4.5q-82 -32 -132.5 -93.5
t-50.5 -158.5q0 -48 13 -83t35.5 -58t52 -35.5t63.5 -15.5q26 5 48.5 11t39.5 13z" />
    <glyph glyph-name="Gbreve.002" horiz-adv-x="652" 
d="M417 797q22 0 41 6t34 15t26.5 19t20.5 18l18 -8q-7 -8 -16 -21t-24 -28t-38.5 -31t-59.5 -29q-32 0 -52.5 11.5t-34 28.5t-22 35.5t-14.5 33.5l23 8l13.5 -18t18.5 -19t27 -15t39 -6zM491 284l-85 13l9 26l117 1l115 3v-30l-72 -13l-36 -233l-231 -69q-64 0 -116 19.5
t-88.5 57.5t-56.5 93.5t-20 127.5q0 58 16 120.5t52.5 120t95.5 104t144 72.5l73 21q33 0 63.5 -7t56 -18.5t45.5 -25.5t33 -27l-2 -128h-50l-23 93q-9 11 -26 22.5t-39 21.5t-47.5 16t-51.5 6q-55 -23 -100.5 -55t-78 -76.5t-50.5 -103t-18 -134.5q0 -68 17.5 -118.5
t48 -84.5t71 -51t86.5 -19q35 12 66 28t51 31z" />
    <glyph glyph-name="Gbreve.sc" horiz-adv-x="547" 
d="M373 610q35 0 58.5 13.5t37.5 22.5l16 -18q-7 -11 -14 -20.5t-18.5 -19t-29.5 -18.5t-47 -19q-26 0 -43.5 7.5t-29.5 18.5t-19.5 25t-12.5 27l23 18q8 -9 26 -23t53 -14zM419 197l-66 10l8 31l97 -1l93 2v-32l-55 -10l-28 -156l-188 -54q-51 0 -92 14.5t-70 42.5t-45 68
t-16 91q0 43 13 87t42 84t75.5 73t113.5 53l60 21q54 0 96 -17t63 -35l-2 -112h-42l-18 68q-8 10 -22 19.5t-31.5 16.5t-37.5 11.5t-41 4.5q-82 -32 -132.5 -93.5t-50.5 -158.5q0 -48 13 -83t35.5 -58t52 -35.5t63.5 -15.5q26 5 48.5 11t39.5 13z" />
    <glyph glyph-name="Gcircumflex.002" horiz-adv-x="652" 
d="M290 750l124 100h75l89 -100h-50l-84 55l-104 -55h-50zM491 284l-85 13l9 26l117 1l115 3v-30l-72 -13l-36 -233l-231 -69q-64 0 -116 19.5t-88.5 57.5t-56.5 93.5t-20 127.5q0 58 16 120.5t52.5 120t95.5 104t144 72.5l73 21q33 0 63.5 -7t56 -18.5t45.5 -25.5t33 -27
l-2 -128h-50l-23 93q-9 11 -26 22.5t-39 21.5t-47.5 16t-51.5 6q-55 -23 -100.5 -55t-78 -76.5t-50.5 -103t-18 -134.5q0 -68 17.5 -118.5t48 -84.5t71 -51t86.5 -19q35 12 66 28t51 31z" />
    <glyph glyph-name="Gcircumflex.sc" horiz-adv-x="547" 
d="M266 557l87 98h64l51 -98h-38l-54 50l-73 -50h-37zM419 197l-66 10l8 31l97 -1l93 2v-32l-55 -10l-28 -156l-188 -54q-51 0 -92 14.5t-70 42.5t-45 68t-16 91q0 43 13 87t42 84t75.5 73t113.5 53l60 21q54 0 96 -17t63 -35l-2 -112h-42l-18 68q-8 10 -22 19.5t-31.5 16.5
t-37.5 11.5t-41 4.5q-82 -32 -132.5 -93.5t-50.5 -158.5q0 -48 13 -83t35.5 -58t52 -35.5t63.5 -15.5q26 5 48.5 11t39.5 13z" />
    <glyph glyph-name="Gcommaaccent.001" horiz-adv-x="652" 
d="M277 -92l-29 23l6 35h92l-10 -60l-75 -79l-25 13zM491 284l-85 13l9 26l117 1l115 3v-30l-72 -13l-36 -233l-231 -69q-64 0 -116 19.5t-88.5 57.5t-56.5 93.5t-20 127.5q0 58 16 120.5t52.5 120t95.5 104t144 72.5l73 21q33 0 63.5 -7t56 -18.5t45.5 -25.5t33 -27
l-2 -128h-50l-23 93q-9 11 -26 22.5t-39 21.5t-47.5 16t-51.5 6q-55 -23 -100.5 -55t-78 -76.5t-50.5 -103t-18 -134.5q0 -68 17.5 -118.5t48 -84.5t71 -51t86.5 -19q35 12 66 28t51 31z" />
    <glyph glyph-name="Gcommaaccent.sc" horiz-adv-x="547" 
d="M229 -63l4 30h79l-11 -59l-64 -87l-27 7l31 84zM307 33q26 5 48.5 11t39.5 13l24 140l-66 10l8 31l97 -1l93 2v-32l-55 -10l-28 -156l-188 -54q-51 0 -92 14.5t-70 42.5t-45 68t-16 91q0 43 13 87t42 84t75.5 73t113.5 53l60 21q54 0 96 -17t63 -35l-2 -112h-42l-18 68
q-8 10 -22 19.5t-31.5 16.5t-37.5 11.5t-41 4.5q-82 -32 -132.5 -93.5t-50.5 -158.5q0 -48 13 -83t35.5 -58t52 -35.5t63.5 -15.5z" />
    <glyph glyph-name="Gdotaccent.002" horiz-adv-x="652" 
d="M444 851l61 -4v-47l-15 -43l-17 -4l-69 4l4 49l17 41zM491 284l-85 13l9 26l117 1l115 3v-30l-72 -13l-36 -233l-231 -69q-64 0 -116 19.5t-88.5 57.5t-56.5 93.5t-20 127.5q0 58 16 120.5t52.5 120t95.5 104t144 72.5l73 21q33 0 63.5 -7t56 -18.5t45.5 -25.5t33 -27
l-2 -128h-50l-23 93q-9 11 -26 22.5t-39 21.5t-47.5 16t-51.5 6q-55 -23 -100.5 -55t-78 -76.5t-50.5 -103t-18 -134.5q0 -68 17.5 -118.5t48 -84.5t71 -51t86.5 -19q35 12 66 28t51 31z" />
    <glyph glyph-name="Gdotaccent.sc" horiz-adv-x="547" 
d="M362 640l21 4l44 -5l1 -41l-14 -36l-19 -5l-51 5l4 41zM419 197l-66 10l8 31l97 -1l93 2v-32l-55 -10l-28 -156l-188 -54q-51 0 -92 14.5t-70 42.5t-45 68t-16 91q0 43 13 87t42 84t75.5 73t113.5 53l60 21q54 0 96 -17t63 -35l-2 -112h-42l-18 68q-8 10 -22 19.5
t-31.5 16.5t-37.5 11.5t-41 4.5q-82 -32 -132.5 -93.5t-50.5 -158.5q0 -48 13 -83t35.5 -58t52 -35.5t63.5 -15.5q26 5 48.5 11t39.5 13z" />
    <glyph glyph-name="H.sc" horiz-adv-x="578" 
d="M98 478l8 30l105 -2l103 2l1 -30l-70 -10l-35 -186h224l33 186l-68 10l7 30l108 -2l99 2l1 -30l-69 -10l-78 -428l66 -10l-7 -31l-100 2l-108 -2l1 31l71 10l37 203h-222l-37 -203l66 -10l-9 -31l-101 2l-105 -2v31l72 10l76 428z" />
    <glyph glyph-name="Hbar.sc" horiz-adv-x="578" 
d="M98 478l8 30l105 -2l103 2l1 -30l-70 -10l-19 -101h223l18 101l-68 10l7 30l108 -2l99 2l1 -30l-69 -10l-78 -428l66 -10l-7 -31l-100 2l-108 -2l1 31l71 10l37 203h-222l-37 -203l66 -10l-9 -31l-101 2l-105 -2v31l72 10l76 428zM434 282l9 52h-223l-10 -52h224z" />
    <glyph glyph-name="Hcircumflex.002" horiz-adv-x="682" 
d="M286 750l124 100h75l89 -100h-50l-84 55l-104 -55h-50zM89 670l9 31l131 -3l126 3l1 -31l-92 -13l-44 -270h297l42 270l-91 13l9 31l134 -3l120 3l1 -31l-90 -13l-98 -614l86 -13l-9 -31l-121 3l-134 -3l-1 31l96 13l48 296h-296l-47 -296l88 -13l-9 -31l-127 3l-128 -3
l-1 31l94 13l98 614z" />
    <glyph glyph-name="Hcircumflex.sc" horiz-adv-x="578" 
d="M266 557l86 98h65l50 -98h-36l-56 50l-72 -50h-37zM98 478l8 30l105 -2l103 2l1 -30l-70 -10l-35 -186h224l33 186l-68 10l7 30l108 -2l99 2l1 -30l-69 -10l-78 -428l66 -10l-7 -31l-100 2l-108 -2l1 31l71 10l37 203h-222l-37 -203l66 -10l-9 -31l-101 2l-105 -2v31
l72 10l76 428z" />
    <glyph glyph-name="I.sc" horiz-adv-x="278" 
d="M168 40l66 -10l-8 -31l-104 2l-103 -2v31l71 10l77 428l-70 9l8 31l104 -2l104 2l1 -31l-70 -9z" />
    <glyph glyph-name="IJ.sc" horiz-adv-x="502" 
d="M153 -126l13 69h83q22 22 30.5 47.5t16.5 62.5l73 417l-42 9l8 30l75 -2l105 2v-30l-69 -9l-72 -403q-4 -21 -7.5 -38.5t-9.5 -33t-15.5 -30.5t-24.5 -30l-96 -61h-68zM169 40l62 -10l-8 -31l-100 2l-103 -2v31l71 10l78 430l-71 9l8 30l105 -2l79 2v-30l-44 -9z" />
    <glyph glyph-name="Iacute.002" horiz-adv-x="304" 
d="M193 750l84 100h104l-136 -100h-52zM166 43l86 -13l-9 -31l-128 3l-126 -3l-1 31l94 13l98 614l-92 13l9 31l127 -3l129 3l1 -31l-90 -13z" />
    <glyph glyph-name="Iacute.sc" horiz-adv-x="278" 
d="M198 558l49 98h95l-110 -98h-34zM168 40l66 -10l-8 -31l-104 2l-103 -2v31l71 10l77 428l-70 9l8 31l104 -2l104 2l1 -31l-70 -9z" />
    <glyph glyph-name="Ibreve.002" horiz-adv-x="304" 
d="M242 797q22 0 41 6t34 15t27 19t21 18l18 -8q-7 -8 -16 -21t-24 -28t-38.5 -31t-59.5 -29q-32 0 -52.5 11.5t-34 28.5t-22 35.5t-14.5 33.5l23 8q5 -8 12.5 -18t18.5 -19t27 -15t39 -6zM166 43l86 -13l-9 -31l-128 3l-126 -3l-1 31l94 13l98 614l-92 13l9 31l127 -3
l129 3l1 -31l-90 -13z" />
    <glyph glyph-name="Ibreve.sc" horiz-adv-x="278" 
d="M231 610q35 0 58.5 13.5t36.5 22.5l17 -18q-7 -11 -14 -20.5t-18.5 -19t-30 -18.5t-47.5 -19q-26 0 -43.5 7.5t-29.5 18.5t-19.5 25t-12.5 27l23 18q9 -9 26.5 -23t53.5 -14zM168 40l66 -10l-8 -31l-104 2l-103 -2v31l71 10l77 428l-70 9l8 31l104 -2l104 2l1 -31l-70 -9
z" />
    <glyph glyph-name="Icircumflex.002" horiz-adv-x="304" 
d="M86 750l124 100h75l89 -100h-50l-84 55l-104 -55h-50zM166 43l86 -13l-9 -31l-128 3l-126 -3l-1 31l94 13l98 614l-92 13l9 31l127 -3l129 3l1 -31l-90 -13z" />
    <glyph glyph-name="Icircumflex.sc" horiz-adv-x="278" 
d="M117 557l87 98h65l49 -98h-36l-56 50l-72 -50h-37zM168 40l66 -10l-8 -31l-104 2l-103 -2v31l71 10l77 428l-70 9l8 31l104 -2l104 2l1 -31l-70 -9z" />
    <glyph glyph-name="Idieresis.002" horiz-adv-x="304" 
d="M145 851l55 -4v-44l-15 -39l-11 -4l-63 4l4 46l18 37zM322 851l54 -4l1 -44l-16 -39l-10 -4l-63 4l4 46l17 37zM166 43l86 -13l-9 -31l-128 3l-126 -3l-1 31l94 13l98 614l-92 13l9 31l127 -3l129 3l1 -31l-90 -13z" />
    <glyph glyph-name="Idieresis.sc" horiz-adv-x="278" 
d="M184 506l68 7l-95 -471l80 -1l16 -42l-103 2l-68 -6l96 472l-83 -1l-19 43zM294 640l41 -4v-38l-13 -34l-17 -5l-46 5l3 40l14 32zM149 640l41 -4v-38l-14 -34l-16 -5l-46 5l3 40l14 32zM8 28l38 -37l-28 -3zM259 546l29 -30l-36 -3zM46 -9l36 4l-6 -33zM288 516l26 3
l12 -40z" />
    <glyph glyph-name="Idotaccent.002" horiz-adv-x="304" 
d="M240 851l61 -4v-47l-15 -43l-17 -4l-69 4l4 49l17 41zM166 43l86 -13l-9 -31l-128 3l-126 -3l-1 31l94 13l98 614l-92 13l9 31l127 -3l129 3l1 -31l-90 -13z" />
    <glyph glyph-name="Idotaccent.sc" horiz-adv-x="278" 
d="M200 634l21 4l44 -5l1 -41l-13 -36l-20 -5l-50 5l3 42zM168 40l66 -10l-8 -31l-104 2l-103 -2v31l71 10l77 428l-70 9l8 31l104 -2l104 2l1 -31l-70 -9z" />
    <glyph glyph-name="Igrave.002" horiz-adv-x="304" 
d="M221 750l-66 100h82l19 -100h-35zM166 43l86 -13l-9 -31l-128 3l-126 -3l-1 31l94 13l98 614l-92 13l9 31l127 -3l129 3l1 -31l-90 -13z" />
    <glyph glyph-name="Igrave.sc" horiz-adv-x="278" 
d="M201 558l-72 98h86l19 -98h-33zM168 40l66 -10l-8 -31l-104 2l-103 -2v31l71 10l77 428l-70 9l8 31l104 -2l104 2l1 -31l-70 -9z" />
    <glyph glyph-name="Imacron.002" horiz-adv-x="304" 
d="M106 828h276l-8 -52h-276zM166 43l86 -13l-9 -31l-128 3l-126 -3l-1 31l94 13l98 614l-92 13l9 31l127 -3l129 3l1 -31l-90 -13z" />
    <glyph glyph-name="Imacron.sc" horiz-adv-x="278" 
d="M120 624h220l-6 -46h-221zM168 40l66 -10l-8 -31l-104 2l-103 -2v31l71 10l77 428l-70 9l8 31l104 -2l104 2l1 -31l-70 -9z" />
    <glyph glyph-name="Iogonek.001" horiz-adv-x="304" 
d="M166 43l86 -13l-9 -31l-91 2l-66 -81l-3 -13q-5 -20 1.5 -32t20 -19t32.5 -9.5t39 -2.5l-6 -30q-94 0 -132.5 27t-24.5 76l4 16l100 69h-2l-126 -3l-1 31l94 13l98 614l-92 13l9 31l127 -3l129 3l1 -31l-90 -13z" />
    <glyph glyph-name="Iogonek.sc" horiz-adv-x="278" 
d="M168 40l66 -10l-8 -31l-95 2l-41 -79l-6 -25q-5 -20 15.5 -33t58.5 -13l-6 -29q-76 0 -104.5 18.5t-22.5 55.5l8 44l65 60l-79 -1v31l71 10l77 428l-70 9l8 31l104 -2l104 2l1 -31l-70 -9z" />
    <glyph glyph-name="Itilde.002" horiz-adv-x="304" 
d="M127 829l67 19l129 -59l51 60h16l-43 -89l-65 -13l-130 58l-50 -60h-16zM166 43l86 -13l-9 -31l-128 3l-126 -3l-1 31l94 13l98 614l-92 13l9 31l127 -3l129 3l1 -31l-90 -13z" />
    <glyph glyph-name="Itilde.sc" horiz-adv-x="278" 
d="M134 635l54 16l109 -40l39 39h15l-32 -78l-53 -13l-110 41l-37 -39h-16zM168 40l66 -10l-8 -31l-104 2l-103 -2v31l71 10l77 428l-70 9l8 31l104 -2l104 2l1 -31l-70 -9z" />
    <glyph glyph-name="J.sc" horiz-adv-x="255" 
d="M-57 -126l14 69h75q23 22 31.5 47.5t16.5 62.5l72 415l-70 9l8 31l105 -2l104 2v-31l-69 -9l-72 -401q-3 -21 -7 -38.5t-10 -33t-15.5 -30.5t-24.5 -30l-95 -61h-63z" />
    <glyph glyph-name="Jcircumflex.002" horiz-adv-x="295" 
d="M92 750l124 100h75l89 -100h-50l-84 55l-104 -55h-50zM-79 -175l16 74h99q14 19 23 36.5t15 39t10.5 48.5t9.5 64l90 570l-88 13l9 31l125 -3l127 3l1 -31l-90 -13l-89 -570q-5 -32 -9.5 -56.5t-11 -43.5t-15.5 -33t-22 -26l-124 -103h-76z" />
    <glyph glyph-name="Jcircumflex.sc" horiz-adv-x="255" 
d="M94 557l86 98h65l49 -98h-36l-54 50l-74 -50h-36zM-57 -126l14 69h75q23 22 31.5 47.5t16.5 62.5l72 415l-70 9l8 31l105 -2l104 2v-31l-69 -9l-72 -401q-3 -21 -7 -38.5t-10 -33t-15.5 -30.5t-24.5 -30l-95 -61h-63z" />
    <glyph glyph-name="K.sc" horiz-adv-x="564" 
d="M213 279l19 11l218 178l-49 11l4 29l91 -2l76 2v-27l-68 -19l-232 -180l19 -13l199 -231l42 -10l-9 -29l-59 2l-53 -2l-190 239l-10 25l-42 -223l58 -10l-8 -31l-96 2l-104 -2v31l73 10l76 428l-69 9l8 31l103 -2l96 2v-31l-60 -9z" />
    <glyph glyph-name="Kcommaaccent.001" horiz-adv-x="659" 
d="M292 -92l-29 23l8 47h92l-13 -72l-75 -79l-24 13zM224 390l23 16l280 251l-61 13l4 31l114 -3l90 3v-31l-86 -13l-295 -266l20 -15l259 -330l51 -16l-9 -31l-73 3l-56 -3l-251 347l-13 28l-52 -331l76 -13l-10 -31l-117 3l-128 -3v31l95 13l96 614l-91 13l9 31l126 -3
l119 3l1 -31l-79 -13z" />
    <glyph glyph-name="Kcommaaccent.sc" horiz-adv-x="564" 
d="M238 -63l6 30h77l-11 -59l-64 -87l-27 7l33 84zM213 279l19 11l218 178l-49 11l4 29l91 -2l76 2v-27l-68 -19l-232 -180l19 -13l199 -231l42 -10l-9 -29l-59 2l-53 -2l-190 239l-10 25l-42 -223l58 -10l-8 -31l-96 2l-104 -2v31l73 10l76 428l-69 9l8 31l103 -2l96 2v-31
l-60 -9z" />
    <glyph glyph-name="L.sc" horiz-adv-x="468" 
d="M210 506l108 2v-31l-73 -9l-78 -429l184 2l75 102h29l-48 -144l-281 2l-107 -2v31l71 10l78 428l-71 9l8 31z" />
    <glyph glyph-name="Lacute.002" horiz-adv-x="546" 
d="M195 750l84 100h104l-136 -100h-52zM231 698l129 3l1 -31l-96 -13l-98 -615l236 3l97 134h33l-61 -180l-346 3l-136 -3l-1 31l93 13l99 614l-92 13l9 31z" />
    <glyph glyph-name="Lacute.sc" horiz-adv-x="468" 
d="M195 558l49 98h94l-110 -98h-33zM210 506l108 2v-31l-73 -9l-78 -429l184 2l75 102h29l-48 -144l-281 2l-107 -2v31l71 10l78 428l-71 9l8 31z" />
    <glyph glyph-name="Lcaron.sc" horiz-adv-x="468" 
d="M465 514l29 -4l-4 -45l-9 -39l-72 -110l-26 13q6 10 13 23t13.5 26.5t11.5 25.5t7 19l-30 3l3 46l15 38zM210 506l108 2v-31l-73 -9l-78 -429l184 2l75 102h29l-48 -144l-281 2l-107 -2v31l71 10l78 428l-71 9l8 31z" />
    <glyph glyph-name="Lcommaaccent.001" horiz-adv-x="546" 
d="M232 -92l-29 23l8 47h92l-12 -72l-76 -79l-24 13zM231 698l129 3l1 -31l-96 -13l-98 -615l236 3l97 134h33l-61 -180l-346 3l-136 -3l-1 31l93 13l99 614l-92 13l9 31z" />
    <glyph glyph-name="Lcommaaccent.sc" horiz-adv-x="468" 
d="M182 -63l5 30h79l-11 -59l-65 -87l-27 7l32 84zM210 506l108 2v-31l-73 -9l-78 -429l184 2l75 102h29l-48 -144l-281 2l-107 -2v31l71 10l78 428l-71 9l8 31z" />
    <glyph glyph-name="Ldot.sc" horiz-adv-x="468" 
d="M351 341l22 -6l-3 -45l-12 -42l-59 -4l-24 4l5 47l11 40zM210 506l108 2v-31l-73 -9l-78 -429l184 2l75 102h29l-48 -144l-281 2l-107 -2v31l71 10l78 428l-71 9l8 31z" />
    <glyph glyph-name="Lslash.sc" horiz-adv-x="468" 
d="M210 506l108 2v-31l-73 -9l-27 -149l83 39l-7 -49l-85 -39l-42 -231l184 2l75 102h29l-48 -144l-281 2l-107 -2v31l71 10l35 192l-72 -33l7 48l74 34l34 187l-71 9l8 31z" />
    <glyph glyph-name="M.sc" horiz-adv-x="714" 
d="M135 40l65 -10l-8 -31l-85 2l-88 -2v31l64 10l75 425l-72 12l8 31l98 -2l74 2l90 -369l-3 -54l238 423l68 -2l90 2l-1 -31l-68 -9l-78 -428l62 -10l-8 -31l-91 2l-109 -2l-1 31l74 10l63 352l24 83l-261 -475h-49l-92 388l-7 84z" />
    <glyph glyph-name="N.sc" horiz-adv-x="592" 
d="M138 40l65 -10l-7 -31l-86 2l-91 -2v31l72 10l74 427l-66 10l9 31l73 -2l53 2l199 -326l14 -61l60 347l-66 9l7 31l87 -2l92 2l1 -31l-74 -9l-81 -468h-43l-213 369l-10 62z" />
    <glyph glyph-name="Nacute.002" horiz-adv-x="708" 
d="M380 750l84 100h104l-136 -100h-52zM139 43l83 -13l-9 -31l-105 3l-118 -3l-1 31l94 13l96 605l-87 22l10 31l95 -3l56 3l259 -511l18 -66l80 533l-87 13l10 31l110 -3l119 3v-31l-96 -13l-103 -657h-46l-275 551l-10 74z" />
    <glyph glyph-name="Nacute.sc" horiz-adv-x="592" 
d="M333 558l49 98h93l-110 -98h-32zM138 40l65 -10l-7 -31l-86 2l-91 -2v31l72 10l74 427l-66 10l9 31l73 -2l53 2l199 -326l14 -61l60 347l-66 9l7 31l87 -2l92 2l1 -31l-74 -9l-81 -468h-43l-213 369l-10 62z" />
    <glyph glyph-name="Ncaron.002" horiz-adv-x="708" 
d="M578 850l-124 -100h-75l-91 100h50l86 -55l104 55h50zM139 43l83 -13l-9 -31l-105 3l-118 -3l-1 31l94 13l96 605l-87 22l10 31l95 -3l56 3l259 -511l18 -66l80 533l-87 13l10 31l110 -3l119 3v-31l-96 -13l-103 -657h-46l-275 551l-10 74z" />
    <glyph glyph-name="Ncaron.sc" horiz-adv-x="592" 
d="M475 655l-86 -98h-65l-49 98h36l54 -48l74 48h36zM138 40l65 -10l-7 -31l-86 2l-91 -2v31l72 10l74 427l-66 10l9 31l73 -2l53 2l199 -326l14 -61l60 347l-66 9l7 31l87 -2l92 2l1 -31l-74 -9l-81 -468h-43l-213 369l-10 62z" />
    <glyph glyph-name="Ncommaaccent.001" horiz-adv-x="708" 
d="M295 -92l-29 23l8 47h92l-13 -72l-75 -79l-24 13zM139 43l83 -13l-9 -31l-105 3l-118 -3l-1 31l94 13l96 605l-87 22l10 31l95 -3l56 3l259 -511l18 -66l80 533l-87 13l10 31l110 -3l119 3v-31l-96 -13l-103 -657h-46l-275 551l-10 74z" />
    <glyph glyph-name="Ncommaaccent.sc" horiz-adv-x="592" 
d="M232 -63l6 30h78l-11 -59l-64 -87l-28 7l33 84zM138 40l65 -10l-7 -31l-86 2l-91 -2v31l72 10l74 427l-66 10l9 31l73 -2l53 2l199 -326l14 -61l60 347l-66 9l7 31l87 -2l92 2l1 -31l-74 -9l-81 -468h-43l-213 369l-10 62z" />
    <glyph glyph-name="Ntilde.002" horiz-adv-x="708" 
d="M336 829l67 19l129 -59l51 60h16l-43 -89l-65 -13l-130 58l-50 -60h-16zM139 43l83 -13l-9 -31l-105 3l-118 -3l-1 31l94 13l96 605l-87 22l10 31l95 -3l56 3l259 -511l18 -66l80 533l-87 13l10 31l110 -3l119 3v-31l-96 -13l-103 -657h-46l-275 551l-10 74z" />
    <glyph glyph-name="Ntilde.sc" horiz-adv-x="592" 
d="M284 635l53 16l110 -40l38 39h15l-33 -78l-52 -13l-110 41l-38 -39h-15zM138 40l65 -10l-7 -31l-86 2l-91 -2v31l72 10l74 427l-66 10l9 31l73 -2l53 2l199 -326l14 -61l60 347l-66 9l7 31l87 -2l92 2l1 -31l-74 -9l-81 -468h-43l-213 369l-10 62z" />
    <glyph glyph-name="O.sc" horiz-adv-x="572" 
d="M270 -13q-49 0 -88.5 16.5t-67 47t-42.5 73t-15 94.5q0 40 12 82.5t39 81t69.5 70t104.5 49.5l66 20q49 0 88.5 -16.5t67 -47t42.5 -73t15 -94.5q0 -41 -12.5 -83t-39.5 -80.5t-70 -69.5t-104 -50zM316 478q-80 -32 -126 -98t-46 -154q0 -42 12.5 -76t34 -58.5t50 -40.5
t61.5 -22q80 33 126 99t46 154q0 42 -12.5 76t-34 59t-50.5 40.5t-61 20.5z" />
    </font>
</defs>
</svg>
