<?xml version="1.0" encoding="UTF-8"?>
<svg width="1216px" height="256px" viewBox="0 0 1216 256" version="1.1" xmlns="http://www.w3.org/2000/svg" xmlns:xlink="http://www.w3.org/1999/xlink">
    <!-- Generator: Sketch 46.1 (44463) - http://www.bohemiancoding.com/sketch -->
    <title>Artboard</title>
    <desc>Created with Sketch.</desc>
    <defs></defs>
    <g id="Page-1" stroke="none" stroke-width="1" fill="none" fill-rule="evenodd">
        <g id="Artboard" fill-rule="nonzero">
            <g id="a-link" fill="#331A10">
                <rect id="a" x="0" y="0" width="76" height="64"></rect>
            </g>
            <g id="a-link" fill="#FFFFFF" fill-opacity="0">
                <rect id="a" x="0" y="0" width="76" height="64"></rect>
            </g>
            <g id="b-link" transform="translate(76.000000, 0.000000)" fill="#331A10">
                <rect id="b" x="0" y="0" width="76" height="64"></rect>
            </g>
            <g id="b-link" transform="translate(76.000000, 0.000000)" fill="#FFFFFF" fill-opacity="0.25">
                <rect id="b" x="0" y="0" width="76" height="64"></rect>
            </g>
            <g id="c-link" transform="translate(152.000000, 0.000000)" fill="#331A10">
                <rect id="c" x="0" y="0" width="76" height="64"></rect>
            </g>
            <g id="c-link" transform="translate(152.000000, 0.000000)" fill="#FFFFFF" fill-opacity="0.38">
                <rect id="c" x="0" y="0" width="76" height="64"></rect>
            </g>
            <g id="d-link" transform="translate(228.000000, 0.000000)" fill="#331A10">
                <rect id="d" x="0" y="0" width="76" height="64"></rect>
            </g>
            <g id="d-link" transform="translate(228.000000, 0.000000)" fill="#FFFFFF" fill-opacity="0.5">
                <rect id="d" x="0" y="0" width="76" height="64"></rect>
            </g>
            <g id="Group" transform="translate(0.000000, 64.000000)">
                <g id="e-link" fill="#331A10">
                    <rect id="e" x="0" y="0" width="76" height="64"></rect>
                </g>
                <g id="e-link" fill="#FFFFFF" fill-opacity="0.62">
                    <rect id="e" x="0" y="0" width="76" height="64"></rect>
                </g>
            </g>
            <g id="Group" transform="translate(76.000000, 64.000000)">
                <g id="f-link" fill="#331A10">
                    <rect id="f" x="0" y="0" width="76" height="64"></rect>
                </g>
                <g id="f-link" fill="#FFFFFF" fill-opacity="0.75">
                    <rect id="f" x="0" y="0" width="76" height="64"></rect>
                </g>
            </g>
            <g id="Group" transform="translate(152.000000, 64.000000)">
                <g id="g-link" fill="#331A10">
                    <rect id="g" x="0" y="0" width="76" height="64"></rect>
                </g>
                <g id="g-link" fill="#FFFFFF" fill-opacity="0.88">
                    <rect id="g" x="0" y="0" width="76" height="64"></rect>
                </g>
            </g>
            <g id="Group" transform="translate(228.000000, 64.000000)">
                <g id="h-link" fill="#331A10">
                    <rect id="h" x="0" y="0" width="76" height="64"></rect>
                </g>
                <g id="h-link" fill="#FFFFFF" fill-opacity="0.95">
                    <rect id="h" x="0" y="0" width="76" height="64"></rect>
                </g>
            </g>
            <g id="Group" transform="translate(0.000000, 128.000000)">
                <g id="i-link" fill="#D46A43">
                    <rect id="i" x="0" y="0" width="76" height="64"></rect>
                </g>
                <g id="i-link" fill="#FFFFFF" fill-opacity="0">
                    <rect id="i" x="0" y="0" width="76" height="64"></rect>
                </g>
                <g id="j-link" transform="translate(76.000000, 0.000000)" fill="#D46A43">
                    <rect id="j" x="0" y="0" width="76" height="64"></rect>
                </g>
                <g id="j-link" transform="translate(76.000000, 0.000000)" fill="#FFFFFF" fill-opacity="0.25">
                    <rect id="j" x="0" y="0" width="76" height="64"></rect>
                </g>
                <g id="k-link" transform="translate(152.000000, 0.000000)" fill="#D46A43">
                    <rect id="k" x="0" y="0" width="76" height="64"></rect>
                </g>
                <g id="k-link" transform="translate(152.000000, 0.000000)" fill="#FFFFFF" fill-opacity="0.38">
                    <rect id="k" x="0" y="0" width="76" height="64"></rect>
                </g>
                <g id="l-link" transform="translate(228.000000, 0.000000)" fill="#D46A43">
                    <rect id="l" x="0" y="0" width="76" height="64"></rect>
                </g>
                <g id="l-link" transform="translate(228.000000, 0.000000)" fill="#FFFFFF" fill-opacity="0.5">
                    <rect id="l" x="0" y="0" width="76" height="64"></rect>
                </g>
                <g transform="translate(0.000000, 64.000000)" id="m-link">
                    <g fill="#D46A43">
                        <rect id="m" x="0" y="0" width="76" height="64"></rect>
                    </g>
                    <g fill="#FFFFFF" fill-opacity="0.62">
                        <rect id="m" x="0" y="0" width="76" height="64"></rect>
                    </g>
                </g>
                <g transform="translate(76.000000, 64.000000)" id="n-link">
                    <g fill="#D46A43">
                        <rect id="n" x="0" y="0" width="76" height="64"></rect>
                    </g>
                    <g fill="#FFFFFF" fill-opacity="0.75">
                        <rect id="n" x="0" y="0" width="76" height="64"></rect>
                    </g>
                </g>
                <g transform="translate(152.000000, 64.000000)" id="o-link">
                    <g fill="#D46A43">
                        <rect id="o" x="0" y="0" width="76" height="64"></rect>
                    </g>
                    <g fill="#FFFFFF" fill-opacity="0.88">
                        <rect id="o" x="0" y="0" width="76" height="64"></rect>
                    </g>
                </g>
                <g transform="translate(228.000000, 64.000000)" id="p-link">
                    <g fill="#D46A43">
                        <rect id="p" x="0" y="0" width="76" height="64"></rect>
                    </g>
                    <g fill="#FFFFFF" fill-opacity="0.95">
                        <rect id="p" x="0" y="0" width="76" height="64"></rect>
                    </g>
                </g>
            </g>
            <g id="Group" transform="translate(304.000000, 0.000000)">
                <g id="q-link" fill="#172618">
                    <rect id="q" x="0" y="0" width="76" height="64"></rect>
                </g>
                <g id="q-link" fill="#FFFFFF" fill-opacity="0">
                    <rect id="q" x="0" y="0" width="76" height="64"></rect>
                </g>
                <g id="r-link" transform="translate(76.000000, 0.000000)" fill="#172618">
                    <rect id="r" x="0" y="0" width="76" height="64"></rect>
                </g>
                <g id="r-link" transform="translate(76.000000, 0.000000)" fill="#FFFFFF" fill-opacity="0.25">
                    <rect id="r" x="0" y="0" width="76" height="64"></rect>
                </g>
                <g id="s-link" transform="translate(152.000000, 0.000000)" fill="#172618">
                    <rect id="s" x="0" y="0" width="76" height="64"></rect>
                </g>
                <g id="s-link" transform="translate(152.000000, 0.000000)" fill="#FFFFFF" fill-opacity="0.38">
                    <rect id="s" x="0" y="0" width="76" height="64"></rect>
                </g>
                <g id="t-link" transform="translate(228.000000, 0.000000)" fill="#172618">
                    <rect id="t" x="0" y="0" width="76" height="64"></rect>
                </g>
                <g id="t-link" transform="translate(228.000000, 0.000000)" fill="#FFFFFF" fill-opacity="0.5">
                    <rect id="t" x="0" y="0" width="76" height="64"></rect>
                </g>
                <g transform="translate(0.000000, 64.000000)" id="u-link">
                    <g fill="#172618">
                        <rect id="u" x="0" y="0" width="76" height="64"></rect>
                    </g>
                    <g fill="#FFFFFF" fill-opacity="0.62">
                        <rect id="u" x="0" y="0" width="76" height="64"></rect>
                    </g>
                </g>
                <g transform="translate(76.000000, 64.000000)" id="v-link">
                    <g fill="#172618">
                        <rect id="v" x="0" y="0" width="76" height="64"></rect>
                    </g>
                    <g fill="#FFFFFF" fill-opacity="0.75">
                        <rect id="v" x="0" y="0" width="76" height="64"></rect>
                    </g>
                </g>
                <g transform="translate(152.000000, 64.000000)" id="w-link">
                    <g fill="#172618">
                        <rect id="w" x="0" y="0" width="76" height="64"></rect>
                    </g>
                    <g fill="#FFFFFF" fill-opacity="0.88">
                        <rect id="w" x="0" y="0" width="76" height="64"></rect>
                    </g>
                </g>
                <g transform="translate(228.000000, 64.000000)" id="x-link">
                    <g fill="#172618">
                        <rect id="x" x="0" y="0" width="76" height="64"></rect>
                    </g>
                    <g fill="#FFFFFF" fill-opacity="0.95">
                        <rect id="x" x="0" y="0" width="76" height="64"></rect>
                    </g>
                </g>
                <g transform="translate(0.000000, 128.000000)">
                    <g id="y-link" fill="#5F985F">
                        <rect id="y" x="0" y="0" width="76" height="64"></rect>
                    </g>
                    <g id="y-link" fill="#FFFFFF" fill-opacity="0">
                        <rect id="y" x="0" y="0" width="76" height="64"></rect>
                    </g>
                    <g id="z-link" transform="translate(76.000000, 0.000000)" fill="#5F985F">
                        <rect id="z" x="0" y="0" width="76" height="64"></rect>
                    </g>
                    <g id="z-link" transform="translate(76.000000, 0.000000)" fill="#FFFFFF" fill-opacity="0.25">
                        <rect id="z" x="0" y="0" width="76" height="64"></rect>
                    </g>
                    <g id="A-link" transform="translate(152.000000, 0.000000)" fill="#5F985F">
                        <rect id="A" x="0" y="0" width="76" height="64"></rect>
                    </g>
                    <g id="A-link" transform="translate(152.000000, 0.000000)" fill="#FFFFFF" fill-opacity="0.38">
                        <rect id="A" x="0" y="0" width="76" height="64"></rect>
                    </g>
                    <g id="B-link" transform="translate(228.000000, 0.000000)" fill="#5F985F">
                        <rect id="B" x="0" y="0" width="76" height="64"></rect>
                    </g>
                    <g id="B-link" transform="translate(228.000000, 0.000000)" fill="#FFFFFF" fill-opacity="0.5">
                        <rect id="B" x="0" y="0" width="76" height="64"></rect>
                    </g>
                    <g transform="translate(0.000000, 64.000000)" id="C-link">
                        <g fill="#5F985F">
                            <rect id="C" x="0" y="0" width="76" height="64"></rect>
                        </g>
                        <g fill="#FFFFFF" fill-opacity="0.62">
                            <rect id="C" x="0" y="0" width="76" height="64"></rect>
                        </g>
                    </g>
                    <g transform="translate(76.000000, 64.000000)" id="D-link">
                        <g fill="#5F985F">
                            <rect id="D" x="0" y="0" width="76" height="64"></rect>
                        </g>
                        <g fill="#FFFFFF" fill-opacity="0.75">
                            <rect id="D" x="0" y="0" width="76" height="64"></rect>
                        </g>
                    </g>
                    <g transform="translate(152.000000, 64.000000)" id="E-link">
                        <g fill="#5F985F">
                            <rect id="E" x="0" y="0" width="76" height="64"></rect>
                        </g>
                        <g fill="#FFFFFF" fill-opacity="0.88">
                            <rect id="E" x="0" y="0" width="76" height="64"></rect>
                        </g>
                    </g>
                    <g transform="translate(228.000000, 64.000000)" id="F-link">
                        <g fill="#5F985F">
                            <rect id="F" x="0" y="0" width="76" height="64"></rect>
                        </g>
                        <g fill="#FFFFFF" fill-opacity="0.95">
                            <rect id="F" x="0" y="0" width="76" height="64"></rect>
                        </g>
                    </g>
                </g>
            </g>
            <g id="Group" transform="translate(608.000000, 0.000000)">
                <g id="G-link" fill="#321316">
                    <rect id="G" x="0" y="0" width="76" height="64"></rect>
                </g>
                <g id="G-link" fill="#FFFFFF" fill-opacity="0">
                    <rect id="G" x="0" y="0" width="76" height="64"></rect>
                </g>
                <g id="H-link" transform="translate(76.000000, 0.000000)" fill="#321316">
                    <rect id="H" x="0" y="0" width="76" height="64"></rect>
                </g>
                <g id="H-link" transform="translate(76.000000, 0.000000)" fill="#FFFFFF" fill-opacity="0.25">
                    <rect id="H" x="0" y="0" width="76" height="64"></rect>
                </g>
                <g id="I-link" transform="translate(152.000000, 0.000000)" fill="#321316">
                    <rect id="I" x="0" y="0" width="76" height="64"></rect>
                </g>
                <g id="I-link" transform="translate(152.000000, 0.000000)" fill="#FFFFFF" fill-opacity="0.38">
                    <rect id="I" x="0" y="0" width="76" height="64"></rect>
                </g>
                <g id="J-link" transform="translate(228.000000, 0.000000)" fill="#321316">
                    <rect id="J" x="0" y="0" width="76" height="64"></rect>
                </g>
                <g id="J-link" transform="translate(228.000000, 0.000000)" fill="#FFFFFF" fill-opacity="0.5">
                    <rect id="J" x="0" y="0" width="76" height="64"></rect>
                </g>
                <g transform="translate(0.000000, 64.000000)" id="K-link">
                    <g fill="#321316">
                        <rect id="K" x="0" y="0" width="76" height="64"></rect>
                    </g>
                    <g fill="#FFFFFF" fill-opacity="0.62">
                        <rect id="K" x="0" y="0" width="76" height="64"></rect>
                    </g>
                </g>
                <g transform="translate(76.000000, 64.000000)" id="L-link">
                    <g fill="#321316">
                        <rect id="L" x="0" y="0" width="76" height="64"></rect>
                    </g>
                    <g fill="#FFFFFF" fill-opacity="0.75">
                        <rect id="L" x="0" y="0" width="76" height="64"></rect>
                    </g>
                </g>
                <g transform="translate(152.000000, 64.000000)" id="M-link">
                    <g fill="#321316">
                        <rect id="M" x="0" y="0" width="76" height="64"></rect>
                    </g>
                    <g fill="#FFFFFF" fill-opacity="0.88">
                        <rect id="M" x="0" y="0" width="76" height="64"></rect>
                    </g>
                </g>
                <g transform="translate(228.000000, 64.000000)" id="N-link">
                    <g fill="#321316">
                        <rect id="N" x="0" y="0" width="76" height="64"></rect>
                    </g>
                    <g fill="#FFFFFF" fill-opacity="0.95">
                        <rect id="N" x="0" y="0" width="76" height="64"></rect>
                    </g>
                </g>
                <g transform="translate(0.000000, 128.000000)">
                    <g id="O-link" fill="#D04E59">
                        <rect id="O" x="0" y="0" width="76" height="64"></rect>
                    </g>
                    <g id="O-link" fill="#FFFFFF" fill-opacity="0">
                        <rect id="O" x="0" y="0" width="76" height="64"></rect>
                    </g>
                    <g id="P-link" transform="translate(76.000000, 0.000000)" fill="#D04E59">
                        <rect id="P" x="0" y="0" width="76" height="64"></rect>
                    </g>
                    <g id="P-link" transform="translate(76.000000, 0.000000)" fill="#FFFFFF" fill-opacity="0.25">
                        <rect id="P" x="0" y="0" width="76" height="64"></rect>
                    </g>
                    <g id="Q-link" transform="translate(152.000000, 0.000000)" fill="#D04E59">
                        <rect id="Q" x="0" y="0" width="76" height="64"></rect>
                    </g>
                    <g id="Q-link" transform="translate(152.000000, 0.000000)" fill="#FFFFFF" fill-opacity="0.38">
                        <rect id="Q" x="0" y="0" width="76" height="64"></rect>
                    </g>
                    <g id="R-link" transform="translate(228.000000, 0.000000)" fill="#D04E59">
                        <rect id="R" x="0" y="0" width="76" height="64"></rect>
                    </g>
                    <g id="R-link" transform="translate(228.000000, 0.000000)" fill="#FFFFFF" fill-opacity="0.5">
                        <rect id="R" x="0" y="0" width="76" height="64"></rect>
                    </g>
                    <g transform="translate(0.000000, 64.000000)" id="S-link">
                        <g fill="#D04E59">
                            <rect id="S" x="0" y="0" width="76" height="64"></rect>
                        </g>
                        <g fill="#FFFFFF" fill-opacity="0.62">
                            <rect id="S" x="0" y="0" width="76" height="64"></rect>
                        </g>
                    </g>
                    <g transform="translate(76.000000, 64.000000)" id="T-link">
                        <g fill="#D04E59">
                            <rect id="T" x="0" y="0" width="76" height="64"></rect>
                        </g>
                        <g fill="#FFFFFF" fill-opacity="0.75">
                            <rect id="T" x="0" y="0" width="76" height="64"></rect>
                        </g>
                    </g>
                    <g transform="translate(152.000000, 64.000000)" id="U-link">
                        <g fill="#D04E59">
                            <rect id="U" x="0" y="0" width="76" height="64"></rect>
                        </g>
                        <g fill="#FFFFFF" fill-opacity="0.88">
                            <rect id="U" x="0" y="0" width="76" height="64"></rect>
                        </g>
                    </g>
                    <g transform="translate(228.000000, 64.000000)" id="V-link">
                        <g fill="#D04E59">
                            <rect id="V" x="0" y="0" width="76" height="64"></rect>
                        </g>
                        <g fill="#FFFFFF" fill-opacity="0.95">
                            <rect id="V" x="0" y="0" width="76" height="64"></rect>
                        </g>
                    </g>
                </g>
            </g>
            <g id="Group" transform="translate(912.000000, 0.000000)">
                <g id="W-link" fill="#071D32">
                    <rect id="W" x="0" y="0" width="76" height="64"></rect>
                </g>
                <g id="W-link" fill="#FFFFFF" fill-opacity="0">
                    <rect id="W" x="0" y="0" width="76" height="64"></rect>
                </g>
                <g id="X-link" transform="translate(76.000000, 0.000000)" fill="#071D32">
                    <rect id="X" x="0" y="0" width="76" height="64"></rect>
                </g>
                <g id="X-link" transform="translate(76.000000, 0.000000)" fill="#FFFFFF" fill-opacity="0.25">
                    <rect id="X" x="0" y="0" width="76" height="64"></rect>
                </g>
                <g id="Y-link" transform="translate(152.000000, 0.000000)" fill="#071D32">
                    <rect id="Y" x="0" y="0" width="76" height="64"></rect>
                </g>
                <g id="Y-link" transform="translate(152.000000, 0.000000)" fill="#FFFFFF" fill-opacity="0.38">
                    <rect id="Y" x="0" y="0" width="76" height="64"></rect>
                </g>
                <g id="Z-link" transform="translate(228.000000, 0.000000)" fill="#071D32">
                    <rect id="Z" x="0" y="0" width="76" height="64"></rect>
                </g>
                <g id="Z-link" transform="translate(228.000000, 0.000000)" fill="#FFFFFF" fill-opacity="0.5">
                    <rect id="Z" x="0" y="0" width="76" height="64"></rect>
                </g>
                <g transform="translate(0.000000, 64.000000)" id="aa-link">
                    <g fill="#071D32">
                        <rect id="aa" x="0" y="0" width="76" height="64"></rect>
                    </g>
                    <g fill="#FFFFFF" fill-opacity="0.62">
                        <rect id="aa" x="0" y="0" width="76" height="64"></rect>
                    </g>
                </g>
                <g transform="translate(76.000000, 64.000000)" id="ab-link">
                    <g fill="#071D32">
                        <rect id="ab" x="0" y="0" width="76" height="64"></rect>
                    </g>
                    <g fill="#FFFFFF" fill-opacity="0.75">
                        <rect id="ab" x="0" y="0" width="76" height="64"></rect>
                    </g>
                </g>
                <g transform="translate(152.000000, 64.000000)" id="ac-link">
                    <g fill="#071D32">
                        <rect id="ac" x="0" y="0" width="76" height="64"></rect>
                    </g>
                    <g fill="#FFFFFF" fill-opacity="0.88">
                        <rect id="ac" x="0" y="0" width="76" height="64"></rect>
                    </g>
                </g>
                <g transform="translate(228.000000, 64.000000)" id="ad-link">
                    <g fill="#071D32">
                        <rect id="ad" x="0" y="0" width="76" height="64"></rect>
                    </g>
                    <g fill="#FFFFFF" fill-opacity="0.95">
                        <rect id="ad" x="0" y="0" width="76" height="64"></rect>
                    </g>
                </g>
                <g transform="translate(0.000000, 128.000000)">
                    <g id="ae-link" fill="#2993FC">
                        <rect id="ae" x="0" y="0" width="76" height="64"></rect>
                    </g>
                    <g id="ae-link" fill="#FFFFFF" fill-opacity="0">
                        <rect id="ae" x="0" y="0" width="76" height="64"></rect>
                    </g>
                    <g id="af-link" transform="translate(76.000000, 0.000000)" fill="#2993FC">
                        <rect id="af" x="0" y="0" width="76" height="64"></rect>
                    </g>
                    <g id="af-link" transform="translate(76.000000, 0.000000)" fill="#FFFFFF" fill-opacity="0.25">
                        <rect id="af" x="0" y="0" width="76" height="64"></rect>
                    </g>
                    <g id="ag-link" transform="translate(152.000000, 0.000000)" fill="#2993FC">
                        <rect id="ag" x="0" y="0" width="76" height="64"></rect>
                    </g>
                    <g id="ag-link" transform="translate(152.000000, 0.000000)" fill="#FFFFFF" fill-opacity="0.38">
                        <rect id="ag" x="0" y="0" width="76" height="64"></rect>
                    </g>
                    <g id="ah-link" transform="translate(228.000000, 0.000000)" fill="#2993FC">
                        <rect id="ah" x="0" y="0" width="76" height="64"></rect>
                    </g>
                    <g id="ah-link" transform="translate(228.000000, 0.000000)" fill="#FFFFFF" fill-opacity="0.5">
                        <rect id="ah" x="0" y="0" width="76" height="64"></rect>
                    </g>
                    <g transform="translate(0.000000, 64.000000)" id="ai-link">
                        <g fill="#2993FC">
                            <rect id="ai" x="0" y="0" width="76" height="64"></rect>
                        </g>
                        <g fill="#FFFFFF" fill-opacity="0.62">
                            <rect id="ai" x="0" y="0" width="76" height="64"></rect>
                        </g>
                    </g>
                    <g transform="translate(76.000000, 64.000000)" id="aj-link">
                        <g fill="#2993FC">
                            <rect id="aj" x="0" y="0" width="76" height="64"></rect>
                        </g>
                        <g fill="#FFFFFF" fill-opacity="0.75">
                            <rect id="aj" x="0" y="0" width="76" height="64"></rect>
                        </g>
                    </g>
                    <g transform="translate(152.000000, 64.000000)" id="ak-link">
                        <g fill="#2993FC">
                            <rect id="ak" x="0" y="0" width="76" height="64"></rect>
                        </g>
                        <g fill="#FFFFFF" fill-opacity="0.88">
                            <rect id="ak" x="0" y="0" width="76" height="64"></rect>
                        </g>
                    </g>
                    <g transform="translate(228.000000, 64.000000)" id="al-link">
                        <g fill="#2993FC">
                            <rect id="al" x="0" y="0" width="76" height="64"></rect>
                        </g>
                        <g fill="#FFFFFF" fill-opacity="0.95">
                            <rect id="al" x="0" y="0" width="76" height="64"></rect>
                        </g>
                    </g>
                </g>
            </g>
        </g>
    </g>
</svg>