<svg height="64" width="64" xmlns="http://www.w3.org/2000/svg" viewBox="0 0 96 96"><path d="M0 0h96v96h-96v-96z" fill="#ffb600"/><path d="M84.74 45.41l-2.26-1.13-2.61-1.69s6-5.26 3.56-6.2l-6.17-2.07s4.44-6.11 2.74-6.58l-1.74-.47-4.87-.38s3.82-6.39.78-6.39h-5.25s1.82-9.31-2.78-5.64l-7.47 5.64-3 2.44c-3 2.44-5.21 11.85-5.91 14.1a1.9 1.9 0 0 1-.52 1 7.13 7.13 0 0 1-2.87 3.38 5.91 5.91 0 0 1-4.17.94l-.35-.47a6.8 6.8 0 0 0 4.17-1 8 8 0 0 0 2-1.79c-.78.28-1.74.47-2.78.85-2.17.75-2.26 0-2.26 0-9.56-10.91-20.33-12-20.33-12s-11.21-2.35-7.3 4.14l2.52 2.44s-7.94 1.76-4.87 4.86l3 3.2s-6.86 3.67-5 5.08l1.82 1.41 3.11 1.92s-5.21 4.89-4 5.73l5.65 2.91s-4.87 6.58-1 6.67l3.91.09h.78s-2.69 8.27-1.22 8.08a4.14 4.14 0 0 1 1.56-.09l4.78-.47s-3.39 10.72 1.3 8.27l4.69-2.44s13.62-11.31 14.91-18.64c0 0 .52-5.83 2.52-6.39 0 0 1.65-1.41 5.13 3.76a23.36 23.36 0 0 0 18.16 7.61s10.77 1.5 8.78-1.69a30.7 30.7 0 0 0-4.43-5.83s8.34-1.79 6.52-3.76l-1.82-2-2.8-2.61c-.26.19 7.73-3.57 5.39-4.79zm-35.62 5.26a6.81 6.81 0 0 0-3.39 2.82l-.26-.66a6.25 6.25 0 0 1 3.39-2.83 5.63 5.63 0 0 1 4.26-.19l.26.66a6.13 6.13 0 0 0-4.26.2z" fill="#fff"/></svg>