<svg height="64" width="64" xmlns="http://www.w3.org/2000/svg" viewBox="0 0 96 96"><path d="M0 0h96v96h-96v-96z" fill="#B93CF6"/><path d="M11.8 54.91l-.46 1.76h14l.46-1.76c-2-.17-2.76-.38-2.76-1.5a5.49 5.49 0 0 1 .26-1.41l4.7-19a22.89 22.89 0 0 0 5.69.88c6.22-.04 10.31-4.18 10.31-8.58a3.62 3.62 0 0 0-3.68-3.81 3.53 3.53 0 0 0-3.43 3.44 5.7 5.7 0 0 0 .71 2.72 3.71 3.71 0 0 1 .4 1.46c0 1-.92 1.93-2.8 1.93s-3.91-1.04-6.25-2.38l-.42-.25c-3.3-1.8-7.11-3.93-11.5-3.93-6.48 0-12.09 4-12.09 10.22a6.46 6.46 0 0 0 6.65 6.82c3.18 0 5.56-1.84 5.56-4.48a3 3 0 0 0-3.05-3.18 4.07 4.07 0 0 0-3.1 1.5 2.19 2.19 0 0 1-1.54 1c-.92 0-1.59-.84-1.59-2.22 0-2.76 2.3-4.94 5.86-4.94a19.51 19.51 0 0 1 6 1.3l1.27.33-5.31 21.17c-.63 2.38-1.17 2.72-3.89 2.93zm73.56-2.55l-3.93-9.67c6.11-.75 9.74-3.18 9.74-8.84 0-5.07-4.55-6.49-12.8-6.49h-17.31c-7.78 0-13.93 4.19-13.93 10.93 0 5.07 3.26 7.62 7.11 7.62 4.52 0 7.7-3.18 7.7-7a3.56 3.56 0 0 0-3.64-3.73 3.42 3.42 0 0 0-3.43 3.64 4.48 4.48 0 0 0 .25 1.38 3.62 3.62 0 0 1 .25 1.22 1.52 1.52 0 0 1-1.67 1.5c-2 0-3.35-1.55-3.35-4.6 0-4.44 3.81-8.08 10.71-8.08h2.84c1.63 0 2.8.38 2.8 1.55a3.64 3.64 0 0 1-.08.59l-4.86 19.62c-.59 2.38-1.21 2.72-3.93 2.93l-.46 1.76h14l.46-1.76c-2-.17-2.72-.38-2.72-1.5a7.28 7.28 0 0 1 .23-1.43l2.18-8.92h2.13l5.35 13.59h9.28l.46-1.76a3.36 3.36 0 0 1-3.34-2.55zm-8.91-12.15h-4.23l2.18-8.75a1.52 1.52 0 0 1 1.5-1.26h2.1c3.3 0 5.18.8 5.18 3.81 0 4.56-2.55 6.2-6.73 6.2zm-7.63 26.07c-2.09 0-3 1.34-3.89 2.64s-1.63 2.35-3.3 2.35c-3.72 0-9.54-6.45-16-25.63l2.71-2a7.43 7.43 0 0 1-1.25-2.64l-9.39 7.1 2-8.2c.59-2.43 1.3-2.72 3.98-2.9l.42-1.76h-14l-.43 1.76c2 .17 2.72.38 2.72 1.51a7.51 7.51 0 0 1-.21 1.42l-4.94 19.9c-.59 2.38-1.21 2.72-3.93 2.93l-.46 1.76h14l.46-1.76c-2-.17-2.72-.38-2.72-1.5a7.28 7.28 0 0 1 .21-1.42l1.8-7.37 2.76-2.05c6.78 18.42 15 24.29 23.51 24.29 6.19 0 9-2.6 9-5.36a3 3 0 0 0-3.05-3.05z" fill="#fff"/></svg>