<svg xmlns="http://www.w3.org/2000/svg" height="279.7" width="675.8" viewBox="0 0 675.8 279.7"><path d="M219.4 188.9c.9-.9 1.6-1.6 2.2-2.1 3.9-3.8 8.8-6.2 14.2-8 8.1-2.7 17.1-4.1 24.5-7.3 3.7-1.6 7.1-3.6 9.7-6.6 2.2-2.4 3.8-5.5 4.7-9.3 1.6 3.6 4.4 11.4 4.4 20.5 0 3.5-.4 7.1-1.5 10.8l1.6.3c1.1-3.8 1.5-7.5 1.5-11.1 0-13-5.6-23.3-5.6-23.4l-.1-.2-.2-.1-1.1-.7-.2 1.3c-1 6.3-3.7 10.4-7.5 13.4-2.9 2.2-6.4 3.8-10.2 5.1-5.8 2-12.3 3.2-18.6 5.2-6.2 1.9-12.2 4.5-16.9 9-.5.5-1.4 1.2-2.3 2.2-.9 1-2 2.3-3 4 .8-.4 1.7-.8 2.7-1.2.8-.7 1.3-1.3 1.7-1.8zM245.2 252.9c.2-1.1.5-2.1.8-3.1-.3 0-.5-.1-.7-.1-1.1-.2-2.1-.5-2.8-.7-1.9-.8-3.8-1.7-5.1-2.5-.7-.4-1.3-.8-1.6-1-.2-.1-.3-.2-.4-.3l-.5-1c-.3-.4-.6-.7-1.1-1-.9-.5-1.9-.9-2.8-1.2-1.4-.5-2.8-1-4.3-1.8-1.5-.9-3.2-2.1-5-4.2-2.6-2.9-4.1-5.1-5-6.8-.9-1.7-1.3-2.9-1.5-4-.1-.5-.2-1.2-.3-2.1-.3-2.5-.4-5.9-.4-8 0-1.4.1-3.1.2-4.5 0-.7.1-1.3.1-1.7v-.7l.1-.6c1.3.7 2.7 1.3 4.3 1.8 4.3 1.5 9.7 2.8 15.8 3.6 6.1.9 13 1.3 20.3 1.3 12.7 0 24.1-1.5 32.6-3.8 3-.9 5.7-1.8 7.8-3l.1.6v.2c.1.8.4 4.3.4 6.8 0 .8 0 1.9-.1 3 1.2-2 2-4.4 2.3-7.3l.2-1.6.4.4c0-.4-.1-.7-.1-1l.1-.1.5-.6c.1-.1.2-.3.3-.5.1-.2.2-.4.2-.8s-.1-.7-.2-.9c-.1-.2-.2-.4-.4-.5.6-.5 1.2-1.1 1.7-1.8l.1-.1c.2-.2.3-.4.4-.7.1-.1.1-.2.1-.3l.3-.6c.1-.2.1-.3.1-.5l.1-.4c.1-.3.1-.6.1-.9 0-.7-.2-1.4-.4-2.1-.2-.5-.5-1-.8-1.4-.7-.9-1.5-1.7-2.6-2.5-.9-.7-2-1.3-3.2-1.9-1.2-.6-2.5-1.1-3.9-1.6-4.3-1.5-9.7-2.8-15.8-3.6-6.1-.9-13-1.3-20.3-1.3-12.7 0-24.1 1.5-32.6 3.8-4.2 1.2-7.7 2.6-10.2 4.3-1.3.8-2.3 1.8-3.1 2.8-.2.3-.4.5-.5.8-.5.8-.7 1.8-.7 2.7 0 .3 0 .6.1.9 0 .2.1.4.1.5 0 .1.1.2.1.4l.3.6c0 .1.1.2.1.2l.4.6.1.2.6.7.2.2.5.5c.1.1.2.2.3.2l.1.1-.1.1c-.1.1-.2.3-.3.5-.1.2-.2.4-.2.9 0 .4.1.6.2.8.1.3.3.5.4.7l.4.5c0 .4-.1 1.1-.1 1.8-.1 1.4-.2 3.2-.2 4.7s.1 3.5.2 5.5c.1 1 .1 2 .2 2.9.1.9.2 1.7.4 2.4.3 1.3.8 2.9 1.9 4.9 1.1 2 2.8 4.4 5.4 7.4 2.8 3.1 5.3 4.8 7.6 5.8 1.1.5 2.1.9 3 1.2.9.3 1.6.6 2.3 1l.4.7c.1.2.2.4.3.5l.6.6c.4.3.8.6 1.4 1 1.6 1 4 2.2 6.5 3.3 1 .4 2.2.7 3.4.9.1-.3.3-.2.4-.2zm-31-49.5c-1-.7-1.8-1.4-2.2-2l-.3-.5-.2-.4v-.1l-.1-.3v-.4c0-.5.2-1 .6-1.7.3-.4.7-.9 1.3-1.3l.6-.5c.6-.4 1.2-.8 1.9-1.2.5-.3 1-.5 1.6-.8.8-.4 1.8-.8 2.8-1.1.5-.2 1-.4 1.6-.5 1.1-.3 2.2-.7 3.4-1 1.2-.3 2.5-.6 3.8-.9 2-.4 4.1-.8 6.4-1.1 1.5-.2 3-.4 4.6-.6.8-.1 1.6-.2 2.4-.2 1.6-.1 3.3-.2 5-.3.8 0 1.7-.1 2.6-.1 1.7-.1 3.5-.1 5.3-.1 2.3 0 4.6 0 6.8.1 1.5.1 3 .2 4.4.3 4.3.3 8.4.8 12.1 1.4 3.1.5 5.9 1.2 8.4 1.9 4 1.1 7.2 2.5 9.3 3.9.8.5 1.4 1 1.8 1.5.2.2.3.3.4.5.5.6.6 1.2.6 1.7v.4c0 .1 0 .2-.1.2v.2c-.1.3-.3.6-.5.9-.1.1-.2.3-.4.5l-.1.1-.3.3-.2.2c-.1.1-.2.2-.4.3-.1.1-.2.1-.2.2l-.5.3c-1.5 1-3.5 2-6.1 2.9-4 1.4-9.2 2.6-15.2 3.5-6 .8-12.7 1.3-19.8 1.3-12.4 0-23.7-1.4-31.7-3.7-4.1-1-7.3-2.4-9.4-3.8zM253.6 279.7l-.8-.7c-.3-.2-6.7-6-7.8-17.1-1.3-13.1 4.7-18.7 7-20.8l.2-.2c5.7-6 14.1-8.4 22.2-10.7 11.5-3.3 22.4-6.4 24.1-19.5l.2-1.6 1.2 1.2c.2.2 12.6 22.1.2 40.8-1.8 2.6-4.1 4.8-7 6.7-.1 0-1.4.9-2.4 1.3-2.2 1.1-4.8 2.2-8.1 3.2-5.4 2-13.6 5.1-20.5 9.3-6.5 3.9-7.8 7.1-7.8 7.2l-.7.9zm45.9-66.5c-2.8 12.2-13.9 15.3-24.8 18.4-7.9 2.3-16.1 4.6-21.5 10.3l-.2.2c-2.1 2-7.7 7.2-6.5 19.5.8 8.4 4.9 13.6 6.6 15.4.9-1.4 3.1-4 7.9-6.9 7-4.3 15.3-7.4 20.8-9.5 3.2-1 5.7-2 7.9-3.1.9-.4 2.2-1.2 2.2-1.2 2.8-1.7 4.9-3.8 6.6-6.2 9.6-14.5 3.6-31.1 1-36.9zM640.1 27.5c1.5-3.8 2.5-7.7 2.5-11.7 0-4.2-1.1-8.6-3.5-13.1 3.2 1.5 9.1 4.5 15.1 9.5 4.2 3.4 8.4 7.8 11.8 13.1 1 1.5 1.9 3.2 2.7 4.9l1.4.6 1.1.5c-1.1-2.7-2.5-5.1-3.9-7.4-5.5-8.5-13-14.4-19-18.2-6.1-3.8-10.8-5.5-10.8-5.6l-.5-.1h-.2l-1.4.2.8 1.2c3.3 5.1 4.6 9.9 4.6 14.5 0 5-1.6 9.8-4 14.7-.5 1-1.1 2.1-1.7 3.1.7.1 1.3.3 1.8.4 1.2-2.2 2.3-4.4 3.2-6.6zM550.3 33.7zM647.4 58.6c.1.4.3.8.6 1.3.4.8 1 1.7 1.6 2.7.9 1.5 2 3 3 4.3.5.6.9 1.2 1.3 1.6.2.2.4.4.5.6l.2.2.3.3c.3.2.8.4 1.2.4.5 0 .9-.2 1.2-.4.5-.3.8-.7 1.1-1 .4-.5.9-1.1 1.4-1.9.5-.7 1.2-1.6 2-2.4 1.7-1.9 2.6-4.1 3.3-6.3.6-2.2.8-4.4.8-6.2 0-2-.5-3.9-1.2-5.4-.7-1.6-1.5-2.9-2.3-3.8-.4-.5-.9-.7-1.3-.8-.4-.1-.8-.2-1.2-.2-1 0-1.9.2-3 .4-1.3.3-2.5.9-3.5 1.7-1 .8-1.7 1.8-2.2 2.9-.2.4-.3.8-.3 1.1-.1.6-.1 1.3-.1 1.9 0 .9-.1 1.9-.2 2.7-.1.4-.2.7-.3 1-.1.2-.2.4-.4.5-.5.4-.8.7-1.1 1l-.6.5c-.1.1-.3.3-.4.5-.1.2-.2.4-.3.5-.1.3-.1.5-.1.7v.8c-.1.3 0 .5 0 .8zm3.4-1.2l.3-.2 1.1-1c.8-.8 1.2-1.7 1.5-2.6.4-1.3.4-2.6.4-3.7 0-.5 0-1 .1-1.4 0-.2 0-.3.1-.4v-.1c.2-.5.7-1.1 1.2-1.6.6-.5 1.3-.8 1.9-1 1-.2 1.9-.3 2.4-.3h.1c.5.6 1.1 1.6 1.6 2.7.6 1.3.9 2.7.9 4 0 1.5-.2 3.4-.7 5.3-.5 1.8-1.3 3.6-2.5 4.9-1.3 1.5-2.3 2.9-2.9 3.8 0 0 0 .1-.1.1-.9-1.2-2.3-3.1-3.4-4.8-.6-.9-1.2-1.8-1.5-2.5-.2-.3-.3-.6-.4-.8v-.1c-.1-.2-.1-.2-.1-.3zM647.3 57.5zM675.6 52.5l-1.7.2 1.7-.2c0-.4-.1-.8-.2-1.2-.3-1.7-.9-4.2-1.4-6.5-.3-1.2-.5-2.3-.7-3.2-.1-.4-.2-.8-.2-1.1-.1-.3-.1-.6-.1-.6v-.6c0-.4.1-.8.2-1.2.1-.4.3-.9.5-1.4.2-.5.3-.9.3-1.4 0-.4-.1-.8-.2-1.1-.2-.5-.5-.9-.8-1.2-.3-.3-.5-.5-.8-.7l-.7-.5c-.4-.2-.9-.5-1.4-.7l-2.4-1-2-.7c-.4-.1-.8-.2-1.2-.2-.5 0-1.1.1-1.5.3-.4.2-.6.3-.9.5-.7.4-1 .9-1.2 1.3-.4.6-.6 1.2-.7 1.6 0 0 0 .1-.1.1-.7.1-1.9.1-3.3.2s-3 .3-4.5.6c-1.9.5-3.4 1.4-4.8 2.3-1.2.8-2.2 1.7-3.2 2.4h-.2l-1.2-1.2c-.7-.6-1.6-1.4-2.6-2-.3-.2-.6-.3-.8-.4-.5-.2-1.2-.4-1.9-.5-2.6-.6-6.5-1.2-10-1.8-1.8-.3-3.4-.5-4.7-.8-.6-.1-1.2-.2-1.6-.3-.2 0-.4-.1-.5-.1h-.1c-.3-.1-.5-.3-.7-.3l-.1-.1v-.1c0-.1-.1-.3-.1-.5-.1-.3-.2-.8-.3-1.4-.2-.8-.5-1.9-.8-2.9-.3-1-.6-2-1-2.8-1-2.2-2.7-3.8-4.8-4.6-.8-.3-1.5-.4-2.2-.4-1 0-2.1.2-3 .4-.5.1-.9.2-1.3.4-.4.1-.7.3-1.1.5-.5.3-.9.7-1.2 1.2-.3.5-.6 1.1-.6 1.9 0 .4.1.8.3 1.2.3.6.7 1.1 1.3 1.4.6.3 1.2.6 1.9.7.6.1.9.3 1 .3l.1.1s.1.2.2.6c.1.4.1 1 .3 1.8l.1.5c0 .5-.2.9-.4 1.3-.3.4-.7.7-1 .9 0 0-.1 0-.3.1-.6.2-1.8.5-3.3.8-2.2.5-5.1 1-7.6 1.5s-4.7.8-5.5 1c-.9.1-1.7.5-2.5.9-1.2.7-2.3 1.6-3.2 2.6-1 1-1.9 2.1-2.6 3.3-.3.5-.6 1-.8 1.6-.4 1-.8 2.2-1.1 3.4-.5 1.8-1 3.8-1.3 5.3-.1.3-.1.6-.2.8-.1-.5-.2-1.1-.4-1.7-.2-.8-.3-1.7-.5-2.4s-.4-1.5-.8-2.5c-.5-1.4-1.3-3.2-1.9-4.7-.7-1.6-1.3-3-1.7-3.8-.3-.6-.7-1.3-1.2-2-1.5-2.1-3.9-4.5-6.4-6.5-2.3-1.9-4.3-2.3-5.6-2.3-.7 0-1.1.1-1.3.2l-.5.2-.3.4-.9 1.1c-.5.5-1.1 1.2-1.6 1.6-.2.1-.5.3-.9.5-.6.3-1.3.5-1.9.7-.3.1-.7.3-1 .5-.2.1-.4.3-.6.6-.2.3-.4.7-.4 1.2v.3c0 .3.1.6.2.8.2.4.4.6.7.8.4.3.7.5 1.1.7.6.3 1.2.5 1.7.8.5.2 1 .4 1.3.5 0 0 .3.2.6.5.4.4 1 1.1 1.6 1.8.6.7 1.2 1.6 1.8 2.4.2.2.4.7.6 1.4.1.7.2 1.5.2 2.4 0 1.8-.2 3.7-.5 5.3-.3 1.6-.8 3.3-1.3 5.1-.5 1.8-1 3.6-1.3 5.5-.1.7-.1 1.3-.1 2 0 1.7.2 3.5.5 4.9.1.7.3 1.4.4 1.9.1.5.2.9.2 1v.2l.9 1.8c.8 1.7 1.7 3.1 2.7 4.4l.1-.6c.2-.6.2-1.2.2-1.7 0-.9-.1-1.8-.2-2.6s-.2-1.6-.3-2c0-.4-.1-.8-.2-1.3-.3-1.5-.8-4-.8-6.1 0-.5 0-1 .1-1.5.2-1.6.7-3.3 1.2-5 .5-1.8 1-3.6 1.4-5.4.3-1.7.6-3.9.6-5.9 0-1.1-.1-2.2-.3-3.2-.2-1-.6-2-1.2-2.8-.8-1.1-1.8-2.3-2.6-3.3-.4-.5-.9-1-1.3-1.4-.4-.4-.8-.8-1.4-1-.3-.2-.7-.3-1.1-.5.6-.2 1.1-.5 1.7-1 .9-.7 1.6-1.5 2.2-2.2.2-.2.3-.4.5-.5.5 0 1.6.3 3.2 1.5 1.5 1.2 3 2.6 4.2 4 .6.7 1.1 1.3 1.6 1.9.4.6.8 1.1.9 1.4.2.4.6 1.2 1 2.1.6 1.4 1.3 3.1 1.9 4.6.3.8.6 1.5.8 2.1.2.6.4 1.1.4 1.4.2.9.5 2.3.8 3.6.1.6.3 1.2.5 1.8l.3.8c.2.3.3.6.8.9.7.5 1.4.7 2.2.7.4 0 .8-.1 1.2-.2.4-.2.8-.5 1.1-.9.1-.2.2-.3.2-.4l.2-.5c.2-.6.4-1.4.6-2.4.4-1.5.8-3.5 1.4-5.3.3-.9.5-1.7.8-2.4.3-.7.5-1.3.7-1.6.8-1.2 1.9-2.5 3-3.5.5-.5 1.1-.9 1.6-1.2.5-.3 1-.5 1.4-.5 1.3-.2 5.3-.9 9.1-1.6 1.9-.4 3.8-.7 5.3-1.1.8-.2 1.4-.3 1.9-.5.3-.1.5-.1.7-.2l.6-.2c.8-.4 1.7-1.1 2.3-2 .6-.9 1.1-2 1.1-3.3 0-.4 0-.8-.1-1.2l-.2-1.3c-.1-.4-.1-.7-.2-1.2-.1-.3-.2-.7-.5-1-.3-.5-.8-1-1.4-1.3-.6-.3-1.2-.5-2-.7l-.4-.1.3-.1c.8-.3 2.1-.6 3.1-.6.4 0 .8.1.9.1 1.3.5 2.3 1.5 2.9 2.8.2.4.4.9.5 1.5.3.9.6 1.9.8 2.8.2.9.4 1.7.5 2 0 .3.1.6.2.9l.3.8c.2.4.6.8 1 1.1.4.3.9.6 1.4.8.3.1.5.2.7.2.5.1 1 .2 1.7.4 2.5.5 6.4 1 9.9 1.6 1.8.3 3.4.6 4.7.9.6.1 1.2.3 1.6.4.2.1.4.1.5.2h.1c.8.5 1.5 1.1 2.1 1.6.6.5 1 1 1.1 1.1.3.4.7.6.9.7.4.2.8.2 1.1.3h1.9l.4-.3c1.3-.9 2.4-1.8 3.6-2.6 1.2-.8 2.4-1.5 3.7-1.8 1.4-.4 3.2-.5 4.8-.6.8 0 1.5-.1 2.2-.1l.9-.1.4-.1c.2 0 .3-.1.6-.2.4-.2.6-.5.8-.7.3-.4.4-.7.6-1 .2-.5.4-.9.5-1.2.1-.1.1-.2.1-.2.3-.2.5-.3.5-.3s.1 0 .4.1c.2 0 .6.2 1.1.4.8.3 1.7.6 2.5 1 .4.2.8.3 1 .5l.3.2.1.1c.3.3.5.4.5.5 0 0 0 .1-.1.2-.2.6-.4 1.1-.6 1.8-.2.6-.3 1.3-.3 2.1 0 .3 0 .7.1 1 0 .3.1.6.2 1 .3 1.5.9 3.9 1.4 6.3.3 1.2.5 2.3.7 3.3.2.9.3 1.7.4 2 .1 1.3.2 2 .2 2.7 0 .5 0 1-.2 1.8-.2 1-.5 2.6-1 4.3-.2.8-.5 1.6-.7 2.3-.3.7-.5 1.3-.8 1.6-.6 1-1.6 2.6-2.6 4.1-.5.8-.9 1.5-1.3 2.3-.4.7-.7 1.4-1 2-.2.6-.4 1.3-.6 2l-.8 3.5c-.1.5-.3 1-.4 1.4-.1.2-.1.3-.2.4l-.1.1c-.1.2-.4.5-.7.8-.5.5-1.1 1-1.6 1.4-.2.2-.5.4-.6.4l-.1.1c-.2.1-.3.1-.4.2-.3.2-.5.4-.6.5-.2.3-.3.5-.4.8-.2.4-.4.9-.6 1.4-.3.8-.6 1.7-1 2.6-.4.9-.8 1.7-1.3 2.4-.4.5-1 1.2-1.7 1.9-1 1-2.2 2-3.1 2.8-.5.4-.9.7-1.2 1-.2.1-.3.2-.4.3l-.1.1-.2.1c-.7.4-2.7 1.8-4.5 3-1.9 1.2-3.6 2.4-3.6 2.4l-.8.5v3.5c-.1.2-.3.4-.5.7-.4.5-1 1-1.7 1.4-.4.2-1.3.6-2.6 1-1.1.4-2.6.8-4.3 1.2.1 1.3.1 2.5.1 3.6 2.1-.5 3.9-1 5.3-1.4 1.4-.5 2.4-.9 3.1-1.2 1.4-.7 2.3-1.6 3-2.4.6-.8 1-1.4 1-1.5l.2-.4v-3.1l.4-.3c1.1-.7 2.8-1.8 4.2-2.8.7-.5 1.4-.9 1.9-1.2.2-.2.5-.3.6-.4l.2-.1h.1c.1-.1.2-.1.2-.2.3-.2.7-.5 1.3-1 .9-.7 2-1.6 3.1-2.6s2.2-2.1 3-3.2c1.2-1.6 1.9-3.5 2.5-5 .3-.7.5-1.4.7-1.8v-.1l.3-.2c.3-.2.6-.4 1-.7.5-.4 1.1-.9 1.6-1.4.5-.5 1-1 1.4-1.6.2-.3.4-.6.5-1 .2-.6.4-1.2.6-1.9.3-1 .5-2.1.7-3.1.2-1 .5-1.9.6-2.3.1-.3.4-.9.7-1.5.5-1 1.2-2.1 1.9-3.2s1.4-2.2 1.9-3c.4-.7.7-1.4 1.1-2.3.9-2.5 1.6-5.5 1.9-7.1.2-.9.3-1.7.3-2.5-1-1-1.1-1.8-1.2-3zM626.9 128l-.8-.9c-.1-.1-2.6-2.8-10.2-4.6-8.3-1.9-17.6-2.3-23.8-2.5h-1.6c-2.9 0-5.4-.2-7.6-.5-1.1-.1-2.7-.5-2.8-.5-3.6-.9-6.7-2.3-9.3-4.4-18.6-14.6-13.6-40.6-13.6-40.9l.5-2.6 1.1 2.4c4.7 9.8 12.6 11.8 23.1 11.8 2.5 0 5-.1 7.5-.2 2.6-.1 5.2-.2 7.9-.2 5.3 0 12.1.4 18 3.5l.2.1c3 1.4 10.9 5 14 18.6 2.6 11.6-2 19.5-2.2 19.8l-.4 1.1zm-34.7-9.8c6.3.3 15.7.6 24.1 2.6 5.8 1.3 8.8 3.2 10.2 4.3 1.1-2.4 3.4-9 1.5-17.6-2.9-12.8-10.3-16.2-13-17.4l-.2-.1c-5.7-3-12.2-3.4-17.3-3.4-2.6 0-5.2.1-7.8.2-2.5.1-5.1.2-7.6.2-8.9 0-17.9-1.3-23.4-10.4-.7 6.8-1.1 25.3 13.3 36.6 2.4 1.9 5.3 3.2 8.6 4 0 0 1.6.4 2.6.5 2.2.3 4.7.5 7.4.5h1.6zM415.9 185.9zM390.2 202.9c-.4-1.1-.7-2.1-.8-2.7-.7-2.1-.9-4.3-.9-6.5 0-4.4 1.1-9.1 2.1-13.7 1.1-4.6 2.2-9.2 2.2-13.5 0-2.7-.4-5.3-1.6-7.8-.9-1.9-2.2-3.7-4-5.3 2.2.2 5.9.7 10 2 3.1 1 6.4 2.6 9.4 4.8 1.4 1.1 2.8 2.3 4 3.7.5-.1 1.1-.2 1.7-.2-1.5-1.8-3.1-3.3-4.8-4.6-4.8-3.6-10.1-5.4-14.3-6.3-4.3-.9-7.4-1-8-1h-.30000000000000004l-.2.1-1 .5.9.7c2.6 1.9 4.3 4 5.3 6.2s1.4 4.6 1.4 7.2c0 4.1-1.1 8.6-2.1 13.2-1.1 4.6-2.2 9.3-2.2 14 0 2.3.3 4.6 1 6.9.2.9.6 2.7 1.7 4.7 0-.1.1-.4.2-.8.1-.5.2-1 .3-1.6zM409.7 185.5zM420.7 264.5zM416.6 202zM414.3 184.1zM416.6 202zM409.7 185.5zM409.8 186.1c.1.2.1.2.2.3 0 .1.1.1.1.3.1.3.3.6.5.8.4.2.7.3 1.1.3.4 0 .8.1 1.3.1h.6c.5 0 1-.1 1.4-.2.4-.2.7-.4.8-.6.2-.2.3-.5.3-.7 0-.3-.1-.5-.1-.6l.1-.3-.1-.5c-.1-.2-.3-.3-.4-.4l-.6-.3c-.2-.1-.4-.1-.6-.1h-.2l-.9.1c-.3.1-.5.1-.8.1h-.2l-1-.1c-.2 0-.4 0-.7.1h-.1l-.1.1s-.1.1-.3.2c-.1.1-.1.1-.2.3-.1.1-.2.2-.2.4v.2c0 .3.1.4.1.5zm6.1-.2zm-1.3-.7zm-2.4.6h.3c.4 0 .8-.1 1.1-.2.3-.1.5-.1.5-.1.1 0 .2 0 .4.1v.1c0 .2.1.4.1.5 0 0-.1.1-.2.1-.2.1-.4.1-.8.1h-.5c-.7-.1-1.2-.1-1.5-.2h-.2c-.1-.2-.1-.4-.2-.5.2.1.6.1 1 .1zM420.7 264.5zM405.4 201.2c.2.3.2.6.2 1v.1l-.1.7c-.1.3-.1.6-.1.9 0 .3.1.6.2 1 .2.3.4.6.7 1 .6.6 1.3 1.3 2 1.9.3.3.7.6 1 .8.4.2.7.4 1.1.4l1.2.1h.1l.2.2c.4.5.9.7 1.1.8.1.1.1.1.2.1 0 0 .1.1.1.3.1.4.3.8.5 1 .4.4.8.6 1.1.8.1.1.3.2.3.2s0 .1.1.1l.3.2.3.1c.2 0 .3-.1.4-.1.1-.1.2-.1.2-.2.1-.1.2-.2.2-.3.3-.3.6-.9.9-1.3.2-.2.3-.4.4-.6.1-.1.1-.1.1-.2l.3-.3c.2-.3.2-.5.3-.9.1-.3.1-.8.2-1.5v-.6c0-1.1-.3-2.1-.5-3-.1-.5-.3-.9-.4-1.2-.1-.3-.1-.6-.1-.6 0-.4.1-.6.1-.7.1-.2.2-.4.4-.6.2-.3.5-.7.9-1.3.4-.6.9-1.3 1.3-2 .6-1.2.9-2.3.9-3.6 0-.4 0-.9-.1-1.4-.1-1.1-.5-2-1-2.5-.2-.3-.4-.5-.6-.7l-.2-.2v-.1c-.1-.3-.2-.9-.3-1.5-.1-.3-.1-.6-.2-.8-.1-.3-.1-.5-.2-.7-.1-.4-.4-.9-.6-1.5-.3-.5-.5-1-.7-1.4-.3-.5-.7-.7-1.1-.9-.4-.2-.8-.3-1.1-.3h-.2c-.2 0-.4 0-.5.1-.4.1-.5.2-1.1.2-.3 0-.7-.1-1.1-.2-.4-.1-.9-.2-1.5-.2h-.5c-.4.1-.9.1-1.5.4-.6.2-1.1.7-1.4 1.5-.1.4-.3.8-.4 1.3l-.6 2.2c-.1.3-.2.6-.2.8 0 .1-.1.2-.1.2l-.5.9c-.4 1.1-.8 2.6-.9 3.8 0 .3-.1.5-.1.7-.1.2-.2.4-.4.6-.1.1-.2.3-.3.5-.1.2-.1.4-.1.7v.7c0 .3 0 .6-.1 1s-.1.8-.1 1.2c0 .6.1 1.2.5 1.7.6.5.9.9 1.1 1.2zm.1-3.9c0-.4.1-.7.1-1.2v-.7c0-.1 0-.1.1-.2s.2-.3.4-.7c.2-.4.4-.9.4-1.5s.2-1.5.4-2.2c.1-.4.2-.7.4-1 .1-.3.3-.5.3-.7.1-.1.1-.2.1-.2.1-.2.2-.5.3-.9.1-.6.3-1.3.5-2s.4-1.3.5-1.7c.2-.4.4-.6.7-.8.3-.1.7-.2 1.1-.3l-.1-.7.1.7h.3c.3 0 .8.1 1.2.2.4.1.9.2 1.4.2.5 0 .9-.1 1.2-.2l.3-.1h.1c.2 0 .5.1.7.2.2.1.4.2.5.3.1.2.4.7.6 1.2l.6 1.3c0 .1.1.4.2.7l.3 1.5.2.7.1.3c0 .1.1.2.2.3l.2.2c.2.2.5.4.7.8.3.4.5.9.6 1.7 0 .5.1.9.1 1.2 0 1.1-.2 1.9-.7 3-.4.7-.8 1.3-1.2 1.8-.4.5-.7 1-1 1.3-.2.3-.4.6-.5 1-.1.3-.2.7-.2 1.1v.1c0 .3.1.6.2 1 .2.6.4 1.2.5 1.9.2.7.3 1.4.3 2v.4c-.1 1-.2 1.5-.2 1.7v.1c-.1.1-.1.1-.2.1-.1.1-.2.2-.2.3-.3.4-.6.9-.9 1.4l-.2.3s-.1 0-.1-.1c-.2-.1-.5-.3-.6-.5-.2-.2-.2-.3-.3-.4l-.3-.9c-.1-.2-.3-.3-.4-.4-.2-.2-.4-.2-.5-.3-.1-.1-.2-.2-.4-.3-.2-.2-.4-.4-.6-.5-.2-.1-.3-.2-.5-.2h-1.2999999999999998c-.1 0-.3-.1-.6-.2-.4-.2-.8-.6-1.3-1.1l-1.5-1.4c-.3-.2-.4-.4-.5-.6-.1-.1-.1-.2-.1-.3 0-.1 0-.3.1-.6s.1-.6.2-1v-.2c0-.6-.1-1.2-.4-1.7-.3-.5-.6-.9-1-1.4-.2-.2-.2-.5-.2-.9-.3-.2-.3-.6-.2-.9zM401.2 261.2c-.5-.1-.9-.1-1.2-.1h-.2s-.1 0-.1-.1c-.4-.3-1-.7-1.9-1-.3-.1-.8-.3-1.2-.5l-.5-.3-.2-.2c-.1-.2-.2-.5-.2-.8v-.4l.2-.2c.1-.2.3-.4.5-.6.2-.3.4-.6.5-1 .5-1.1.9-2.5 1.2-3.5.2-.8.3-1.4.3-2.1 0-.3 0-.6-.1-1-.1-.2-.1-.4-.3-.6l-.4-.4c0-.1-.1-.2-.2-.3-.1-.2-.3-.5-.5-.9-.3-.4-.5-.8-.7-1.1-.2-.3-.4-.6-.7-.9-.2-.3-.5-.4-.7-.6v-.2c0-.2.1-.5.1-.9v-.8c0-.8-.1-2.1-.1-3.3-.1-1.3-.1-2.6-.2-3.5 0-.6-.1-1.5-.2-2.6l-.6-5.1c-.1-.8-.2-1.5-.2-2.1-.1-.6-.1-.9-.1-1.1v-.4c-.1-.8-.2-2.4-.2-3.8-.1-1.4-.1-2.5-.1-2.5v-.3l-.1-.2c-.1-.2-.4-1-.6-1.6-.2-.8-.5-1.7-.8-3-.1-.5-.3-1.3-.4-2.1-.1-.8-.2-1.6-.2-2.1v-.3c0-.2.1-.5.3-.9l.3-.6c.1-.2.2-.4.4-.6.3-.6.4-1.1.6-1.7.1-.6.3-1.3.5-2.1.2-.9.5-2.1.8-3.2.1-.6.3-1.1.4-1.5.1-.4.2-.8.3-.9.1-.2.1-.3.2-.6.2-.7.6-2 1.2-3.2.6-1.2 1.4-2.4 2.3-3 1.2-.9 2.8-1.6 4-2.2.6-.3 1.2-.5 1.6-.7l.6-.3c.1 0 .2-.1.3-.2.1-.1.2-.1.3-.3l.2-.3c.1-.1.1-.4.1-.6v-.5c0-.2 0-.5.1-.8 0-.3.1-.5.1-.5.5-.9.6-1.7.6-2.5 0-.5 0-1-.1-1.5-.1-.6-.1-1-.1-1.4 0-.3 0-.5.1-.7.1-.6.2-1.4.2-2.3 0-.5 0-1-.1-1.5-.1-.4-.1-.7-.1-1.1 0-.8.1-1.7.7-3.1.4-1 .8-1.6 1.3-2 .5-.4 1.1-.8 2-1.2.8-.4 1.5-.6 2.8-.6h.2c1.3 0 2 .2 2.8.6.9.4 1.5.8 2 1.2.5.4.9 1 1.3 2 .6 1.5.7 2.4.7 3.1 0 .4 0 .7-.1 1.1-.1.5-.1 1.1-.1 1.5 0 .9.1 1.7.2 2.3.1.2.1.5.1.7 0 .3 0 .8-.1 1.4 0 .4-.1.9-.1 1.5 0 .8.1 1.6.6 2.5 0 0 .1.3.1.5 0 .3.1.6.1.8v.5c0 .3.1.5.1.6.1.3.3.4.4.5.2.2.3.2.4.3.2.1.3.2.5.2l2.6 1.1c1 .5 2.2 1.1 3.2 1.8.5.4 1 .9 1.5 1.5.7.9 1.2 2.1 1.5 3 .2.5.3.9.5 1.3.1.4.2.7.3.9 0 .1.1.5.3.9.3 1.3.8 3.4 1.1 4.8.2.8.3 1.5.5 2.1.1.6.2 1.1.6 1.7.1.2.2.4.4.6.2.3.4.6.5.8.1.3.2.5.2.6v.3c0 .5-.1 1.3-.2 2.1s-.2 1.6-.4 2.1c-.4 1.3-.6 2.2-.8 3-.1.3-.2.8-.4 1.1-.1.2-.1.3-.2.4v.1l-.1.2v.3s0 .4-.1 1c0 .9-.1 2.2-.2 3.4 0 .6-.1 1.1-.1 1.6v.8c0 .2-.1.8-.2 1.7-.2 1.3-.4 3.2-.6 4.9l-.2 1.5c.1-.1.1-.2.2-.2 2-2.3 3.2-4.9 3.2-8.5 0-.6 0-1.2-.1-1.8l-.1-1.1.8.3v-.6c.1-1 .1-1.9.1-2.3 0-.1.1-.3.2-.4.1-.4.3-.9.5-1.4.2-.8.5-1.7.8-3 .2-.7.3-1.6.5-2.5.1-.9.2-1.8.2-2.5v-.5c-.1-.9-.4-1.5-.7-2.1-.2-.3-.3-.5-.4-.7-.1-.2-.2-.4-.3-.4l-.3-.9c-.1-.5-.3-1.3-.5-2.2-.2-.8-.5-2.1-.8-3.2-.1-.6-.3-1.1-.4-1.6-.1-.5-.2-.8-.3-1.2 0-.1-.1-.2-.1-.4-.2-.8-.7-2.1-1.4-3.6-.7-1.4-1.7-3-3.2-4.1-1.5-1.1-3.2-1.9-4.6-2.5-.5-.2-1-.4-1.3-.6 0-.3 0-.6-.1-.9-.1-.5-.2-1-.5-1.5-.1-.2-.2-.6-.2-1.1 0-.3 0-.8.1-1.2.1-.6.1-1.1.1-1.6 0-.4 0-.9-.1-1.3s-.2-1-.2-1.7c0-.4 0-.7.1-1.1.1-.5.1-1 .1-1.5 0-1.2-.3-2.5-.9-4.2-.5-1.3-1.2-2.3-2-3.1-.8-.8-1.8-1.2-2.8-1.7-1.1-.5-2.3-.8-4-.8h-.1c-1.6 0-2.9.3-4 .8-1 .4-1.9.9-2.8 1.7-.8.8-1.5 1.8-2 3.1-.7 1.7-.9 3-.9 4.2l.1 1.5c.1.4.1.7.1 1.1 0 .7-.1 1.2-.2 1.7-.1.4-.1.9-.1 1.3 0 .5.1 1 .1 1.6l.1 1.2c0 .5-.1.8-.2 1.1-.3.5-.4 1-.5 1.5-.1.3-.1.6-.1.9-.6.2-1.4.6-2.4 1-1.1.5-2.4 1.2-3.5 2-.9.6-1.6 1.4-2.1 2.2-.9 1.2-1.4 2.5-1.9 3.6-.2.5-.4 1-.5 1.4-.1.4-.2.7-.3.8-.1.3-.2.7-.3 1.2-.4 1.4-.8 3.5-1.1 4.8-.2.9-.4 1.6-.5 2.2-.1.5-.2.9-.3.9 0 .1-.1.2-.3.4-.2.3-.4.7-.7 1.1-.2.5-.4 1-.5 1.6v.5c0 .7.1 1.6.2 2.5.1.9.3 1.8.5 2.5.4 1.3.6 2.2.8 3 .1.5.3 1 .5 1.4.1.2.1.3.2.4 0 .5.1 1.7.2 2.9 0 .8.1 1.6.1 2.3 0 .3 0 .6.1.9 0 .3 0 .4.1.6 0 .1.1.8.2 1.6.2 1.3.4 3.1.6 4.9.2 1.7.3 3.3.4 4.1 0 1 .1 2.3.2 3.5.1 1.2.1 2.5.1 3.2v.5c0 .3-.1.6-.1.8v1.2999999999999998l.1.5c.1.3.4.6.6.7.1.1.3.2.3.2.2.1.2.1.3.2.2.2.3.4.5.7.2.2.3.5.6 1 .2.4.4.7.5 1 .1.2.2.3.4.5l.2.2c0 .2-.1.7-.2 1.2-.2.6-.4 1.4-.7 2.2-.1.4-.3.7-.4 1-.1.3-.2.5-.3.6l-.6.8c-.1.1-.2.3-.3.6-.1.2-.2.5-.2.8v.8c0 .6.1 1.4.6 2.3.2.4.5.7.8.9.4.4.9.7 1.4.9.5.2 1 .4 1.4.5.2 0 .4.2.7.3.1.1.2.2.4.3l.2.2c.1.1.2.1.5.2h.2c.1 0 .3 0 .5.1.7.1 1.9.2 3 .4.6.1 1.1.1 1.6.2h.1c-.2-1-.3-2-.3-2.9-1.5-.1-2.5-.2-3.3-.3zM414.3 184.1zM444.4 242.7c0-5.9-2.1-11.1-4.2-14.8-2.1-3.7-4.2-5.9-4.2-6l-.1-.1-.2-.1-1.1-.4.1 1.1c.1.6.1 1.3.1 1.8 0 3.6-1.2 6.3-3.2 8.5-3 3.4-7.8 5.9-12.6 8.6-4.8 2.7-9.5 5.7-12.3 10.4-.4.6-1.1 1.7-1.8 3.2-.6 1.5-1.1 3.5-1.1 6 0 2.1.4 4.5 1.3 7.2 1.4 3.9 3.5 6.7 5.3 8.4 1.8 1.8 3.3 2.5 3.3 2.6l.9.5.1-1s.4-2.5 4.3-6.4c4-4 8.9-7.3 13.1-10.1 1.9-1.1 3.7-2.3 5.3-3.7.3-.3.7-.6 1-.8l.5-.5c1.7-1.7 3.1-3.7 3.9-6 1.2-2.9 1.6-5.7 1.6-8.4zm-6.5 13.4l-.1.1c-.2.2-.8.8-1.2 1.1-1.5 1.3-3.3 2.5-5.1 3.5-4.2 2.8-9.2 6.2-13.3 10.3-2.8 2.8-4 5-4.4 6.2-.6-.4-1.4-1-2.4-2-1.6-1.6-3.5-4.1-4.8-7.7-.9-2.6-1.2-4.9-1.2-6.8 0-2.3.5-4 1-5.4.6-1.4 1.2-2.3 1.6-2.9 1.7-2.9 4.3-5.1 7.2-7.1 4.4-3 9.6-5.3 13.8-8.3 2.1-1.5 3.9-3.2 5.2-5.3 1.3-2 2.1-4.5 2.1-7.3.8 1 1.8 2.5 2.9 4.4 2 3.5 3.8 8.4 3.8 13.8 0 2.5-.4 5.2-1.4 7.9-.8 2.2-2.1 3.9-3.7 5.5zM2 67.3c0-.9.1-1.7.2-2.5-1.3-7.3 1-11.9 2.1-14l.1-.3c3.4-7.9 10.9-13.3 18.1-18.6 9.9-7.3 20.1-14.7 18.3-28.2 3.9 3.9 12.5 14 13.7 27.3l1.8-.1c-1.6-18.1-16.4-30.5-16.6-30.5l-1.4-.4.3 1.4c3.3 14-6.6 21.3-17.2 29-7.4 5.5-15.1 11.1-18.6 19.4l-.1.2c-1.4 2.8-5.1 10.1-.2 21.8-.3-1.5-.5-3-.5-4.5zM82.7 48c0-5-9.9-8.7-22.9-8.7s-23 3.7-23 8.7 9.9 8.7 22.9 8.7 23-3.7 23-8.7zm-23 7c-12.5 0-21.2-3.7-21.2-7s8.7-7 21.2-7 21.2 3.7 21.2 7-8.7 7-21.2 7zM59.7 100.4c-23 0-43.1-8.9-50.9-21.7 12.8 8.3 31.2 13.1 50.9 13.1 3.2 0 6.3-.1 9.3-.4.5-.6.9-1.1 1.3-1.5l.1-.2c.6-.8 1.3-1.5 2-2.2-4.1.4-8.4.7-12.8.7-21.3 0-41.8-6.1-53.5-15.9-.4-1.7-.7-3.4-.7-5.1 0-18.2 24.3-33 54.2-33 26.2 0 48.1 11.4 53.1 26.5.4-1.4.6-2.8.6-4.4v-1.2l.7.2c-7.6-14.2-29-24.5-54.3-24.5-31.8 0-57.7 16.4-57.7 36.5 0 2.3.3 4.6 1 6.9 0 .2.1.4.1.4 5.4 16.9 29.1 29.2 56.5 29.2 1.7 0 3.3 0 4.9-.1.1-1.3.2-2.4.4-3.5-1.6.1-3.4.2-5.2.2zM75.3 128l-1-.7c-.3-.2-7.1-5.4-9.1-16.2-2.3-12.8 3.1-18.8 5.2-21.1l.1-.2c5.1-6.4 13.2-9.4 21-12.3 11-4.2 21.5-8.1 22-21.1v-1.2l1.1.4c.8.3 3.3 5.2 4.7 8.8 3.1 8 5.5 19.9-.9 31.6-1.5 2.7-3.6 5.1-6.4 7.2 0 0-1.3 1-2.3 1.5-2.1 1.3-4.6 2.5-7.7 3.8-5.1 2.4-13 6.2-19.4 10.8-5.9 4.3-7 7.6-7 7.6l-.3 1.1zm39.7-68.9c-1.8 12-12.5 16-22.9 20-7.6 2.9-15.4 5.8-20.3 11.8l-.2.2c-1.9 2.1-6.9 7.7-4.8 19.6 1.5 8 5.8 12.7 7.6 14.4.8-1.5 2.8-4.2 7.2-7.4 6.5-4.8 14.5-8.5 19.7-11 3.1-1.2 5.5-2.4 7.5-3.7.9-.5 2.1-1.4 2.1-1.4 2.6-1.9 4.5-4.1 5.9-6.6 8.2-14.7 1.3-30.2-1.8-35.9zM383.1 35.9c0-2.2-.3-4.3-.9-6.5-1.7-6.1-4.8-10.9-8.3-14.8-5.4-5.8-11.9-9.4-17.1-11.6-5.2-2.2-9.1-2.9-9.1-2.9h-.2l-.2.1-1.2.4.9.9c4.2 4.6 5.7 9.1 5.7 13.8 0 3-.6 6.1-1.7 9.3.6 0 1.1 0 1.6.1 1-3.1 1.6-6.2 1.6-9.3 0-4.4-1.3-8.8-4.5-13 2.7.7 7.5 2.3 12.6 5.2 3.7 2.1 7.5 4.9 10.7 8.6 3.3 3.7 6.1 8.2 7.7 13.8.6 2 .8 4.1.8 6.1 0 1.3-.1 2.7-.3 4v.3c-.1.5-.3 1.7-.5 2.5-.5 2.2-1.3 4.5-2.1 6.7.1 1.1.2 2.3.3 3.6.1-.2.2-.5.3-.8 1.3-3 2.4-6.1 3.1-9.1.2-.6.3-1.3.4-1.9.1-.6.2-1.1.2-1.1.1-1.6.2-3 .2-4.4zM378.9 54.3c-.3-5.2-.7-9.1-.8-10.4l-1.6.1 1.6-.1c-.2-2.2-.8-4.2-2.1-6.2-1.2-1.9-3-3.7-5.3-5.5-1.4-1.1-2.7-1.8-3.6-2.3-.3-.1-.5-.3-.7-.4 0-.1.1-.3.2-.5.1-.3.3-.7.4-1.2v-.2l-.1-.7c-.2-.4-.4-.6-.6-.7-.3-.3-.6-.4-.9-.5-.5-.2-1-.3-1.6-.4-1.8-.3-4.3-.5-6.7-.7-3.2-.3-5.3-.4-9.1-.5h-5.2c-3.8.1-6 .2-9.1.5-2 .2-4.1.3-5.8.5-.8.1-1.6.2-2.2.4-.3.1-.6.2-.9.4-.2.1-.4.2-.6.5-.1.1-.2.3-.3.5-.1.2-.1.4-.1.7v.2c0 .4.2.7.3.9l.4.8h-.1l-1.8.9c-.7.4-1.6 1-2.5 1.7-2.4 1.8-4.1 3.6-5.3 5.5-1.2 1.9-1.9 4-2.1 6.2-.1 1.3-.5 5.2-.8 10.4-.1 2.1-.3 4.3-.4 6.7l.2-.1.1 1.3c.4 3.1 1.3 5.6 2.6 7.7.1-5.4.3-10.8.6-15.3.3-5.1.7-9 .8-10.3.2-1.8.6-3.2 1.6-4.7.9-1.5 2.4-3 4.6-4.7 1.2-.9 2.3-1.5 3.1-2 .4-.2.8-.4 1.1-.6l.5-.3.3-.3c.1-.1.2-.3.3-.6.1-.4.2-.8.2-1.2 0-.4-.1-.8-.2-1.1v-.1c.7-.1 1.7-.2 2.8-.3 1.2-.1 2.4-.2 3.7-.3 3.6-.3 5.7-.4 10.5-.5h2c4.8 0 6.9.2 10.5.5 2 .2 4.1.3 5.6.5.3 0 .6.1.8.1-.1.3-.2.7-.2 1.2 0 .4.1.8.2 1.2.1.3.2.4.3.6l.5.5c.3.2.5.3.9.5.9.5 2.2 1.1 3.7 2.2 2.2 1.7 3.6 3.2 4.6 4.7.9 1.5 1.4 3 1.6 4.7.1 1.3.5 5.2.8 10.3.3 5.1.6 11.5.6 17.6 0 3.3-.1 6.6-.3 9.5-.2 2.9-.6 5.6-1.1 7.6-1.1 4.7-2.2 7.7-3.3 9.9-1.2 2.2-2.4 3.5-4.3 4.9l-1.3 1 1 1.3c0 .1.2.3.4.6-1.6.9-3.3 1.5-4.8 2 0 .7-.1 1.5-.2 2.3 0 .4-.1.7-.2 1.1 2.5-.6 5.2-1.6 7.9-3.2.3-.2.6-.5.7-.8.1-.3.2-.5.2-.7 0-.3-.1-.6-.1-.8l-.4-.9-.1-.2c1.6-1.3 2.9-2.9 4-4.9 1.4-2.6 2.5-5.9 3.6-10.6.6-2.3.9-5.1 1.1-8.1.2-3 .3-6.4.3-9.7.2-6.5-.1-12.9-.4-18.1zM317.4 106.1l.4-.7c-2.4-1.5-4.6-3.4-6.2-5.9-3.7-5.6-4.9-11.5-4.9-16.9 0-5.5 1.3-10.6 2.6-14.2.7-1.8 1.3-3.3 1.8-4.3.2-.5.4-.9.6-1.2l.2-.3v-.1l-.7-.4.4.7-.4-.7-.8.1c.7 5.6 3 9.6 6.4 12.4 2.5 2.1 5.6 3.6 8.9 4.9 4.9 1.9 10.4 3.1 15.5 4.9 5.1 1.8 9.9 4 13.4 7.7l.5-.6-.5.6c.9.8 2.4 2.3 3.8 4.7 1.4 2.4 2.6 5.8 2.6 10.6 0 1.1-.1 2.2-.2 3.4-.5 5-2.3 8.8-3.9 11.4-.8 1.3-1.6 2.2-2.2 2.9-.3.3-.5.6-.7.7l-.2.2.5.6.7-.3c-.1-.2-1.5-3.6-8-7.6-6.4-3.9-13.7-6.8-19.7-9.1-2.6-.8-5.1-1.8-7.5-3l-1.3-.7c-.2-.1-.4-.2-.5-.3-.1-.1-.2-.1-.2-.1l-.4.6-.4.7s.3.2.8.5c.4.3 1 .6 1.5.8l.3-.7-.4.7c2.4 1.3 5 2.2 7.7 3.1l.2-.8-.3.7c6 2.3 13.2 5.2 19.4 9 3.1 1.9 5 3.7 6 4.9.5.6.9 1.1 1.1 1.5.1.2.2.3.2.4v.1l.3-.1-.3.1.3-.1-.3.1.4 1 .8-.7s1.6-1.4 3.4-4.1c1.7-2.7 3.6-6.8 4.2-12.1.1-1.2.2-2.4.2-3.5 0-5.1-1.3-8.8-2.8-11.4-1.5-2.6-3.2-4.2-4.1-5l-.5.6.6-.5c-3.4-3.6-7.7-5.8-12.3-7.5-6.9-2.6-14.4-4-20.3-6.8-3-1.4-5.5-3.1-7.5-5.4-1.9-2.3-3.3-5.3-3.7-9.2l-.1-1.3-1.2.8-.1.2c0 .1-5.4 9.3-5.4 20.9 0 5.6 1.3 11.9 5.2 17.8 1.8 2.7 4.1 4.8 6.7 6.4l.4-1.1-.4.7.4-.7zM478.1 19.3c1.1-1.4 2.2-2.8 3-4.3 1.3-2.4 2.1-5.1 2.1-8.1 0-1.3-.2-2.6-.5-4 1.6 1.3 4 3.5 6.3 6.5 2.1 2.7 4.2 6.1 5.6 9.9h1.6c-1.5-4.5-4-8.4-6.4-11.4-4-5-8-7.7-8-7.7l-.1-.1h-.2l-1.2-.1.4 1.1c.7 2.1 1 4 1 5.8 0 3.6-1.3 6.7-3.3 9.6-.7.9-1.4 1.9-2.2 2.8h1.9000000000000001zM460.4 65c-.6-.8-1.2-1.6-1.7-2.5-2.9-4.7-3.7-8.6-3.7-11.7 0-1.6.2-3 .5-4.2.3-1.1.6-2 .9-2.6 1.2-3.6 3.4-6.8 6.1-9.7.9-1 2-2 3-3-.2-.5-.5-.9-.8-1.3-4.1 3.9-7.9 8.2-9.7 13.5-.2.6-.6 1.6-.9 2.8-.3 1.2-.6 2.8-.6 4.6 0 3.3.9 7.5 3.9 12.4.6 1 1.3 2 2 2.8.1-.1.1-.2.2-.2.2-.3.5-.6.8-.9zM496.1 24.6c.2 1.4.4 2.9.4 4.4 0 1.3-.1 2.6-.3 3.9-.4 2.8-1.4 5.2-2.9 7.5 0 0 0 .1-.1.2-.2.4-.8 1.2-1.2 1.6-1.1 1.5-2.4 2.9-3.8 4.3 0 .7.1 1.3.1 1.9 1.8-1.7 3.4-3.4 4.9-5.3.3-.4.7-.9.9-1.3.3-.4.5-.7.5-.7 1.6-2.4 2.7-5.1 3.1-8.1.2-1.4.3-2.8.3-4.1 0-1.9-.2-3.7-.5-5.5l-.1.1c-.4.4-.9.8-1.3 1.1zM489.1 108.4c-.1.5-.2 1.1-.2 1.8 0 .6.1 1.3.3 1.9.1.3.3.7.5 1 .2.3.6.6.9.8.2.1.4.3.6.6.2.2.2.5.2.6v.2c0 .2 0 .5-.1.7-.1.3-.2.5-.2.5l-.3.3c-.6.5-2 1.3-4.8 1.8-1.8.3-3.9.5-5.4.6-.8.1-1.5.1-1.9.1h-1.5999999999999999c-.9 1.1-1.7 2-2.2 2.9 1.8.1 3 .1 3 .1s4.6-.1 8.6-.8c2.2-.4 3.7-1 4.9-1.6.6-.3 1-.6 1.3-.9.3-.3.6-.5.8-.8.4-.5.6-1.1.7-1.6.1-.5.2-1 .2-1.5v-.4c-.1-.7-.3-1.3-.7-1.9-.4-.6-.9-1.1-1.6-1.5 0 0-.1-.1-.1-.3-.1-.2-.1-.5-.1-.9 0-.5.1-1 .1-1.4 0-.2.1-.4.1-.5v-.1c.6-1.3.9-2.1 1.1-2.6.1-.3.2-.4.3-.6l-1.9 1.4c-.9.8-1.7 1.4-2.5 2.1zM461.1 97.3l-.4-.7c-.7-1.2-1.3-2.3-1.8-3.4s-1-2.1-1.2-2.8c-.9-3-1.7-6.3-1.6-8.9 0-.7.1-1.4.2-2 .6-3.2 2.1-7.8 5.5-11.5 1.8-2 3.2-3.5 4.3-5 1.1-1.5 2-3 2.6-4.9 1.1-3.3 2.2-7.8 2.2-12.5v-1.6c-.1-2.5-.3-5.4-.8-8.2-.3-1.4-.6-2.8-1-4-.5-1.3-1-2.4-1.8-3.5-1.3-1.7-2.1-2.7-2.8-3.6-.7-.8-1.4-1.4-2.3-2.1l-.3-.2h32.5l-.3.2c-.9.7-1.6 1.3-2.3 2.1-.7.8-1.5 1.8-2.8 3.6-.8 1-1.3 2.2-1.8 3.5-.7 1.9-1.1 4-1.4 6.1-.3 2.1-.4 4.2-.5 6.1v1.6c0 4.7 1 9.2 2.2 12.5.6 1.9 1.5 3.4 2.6 4.9.5.7 1.1 1.4 1.8 2.2 0-.4.1-.8.1-1.3 0-1-.1-2.1-.3-3.3l-.2-1c-.4-.8-.8-1.6-1.1-2.6-1-3-2-7.3-2-11.6v-1.4c.1-2.5.3-5.3.8-7.8.2-1.3.5-2.5.9-3.6s.8-2 1.4-2.7c1.3-1.7 2-2.7 2.6-3.4.6-.7 1-1 1.9-1.6.6-.5 1.2-.9 1.6-1.3.4-.4.8-.7 1-.8.2-.2.4-.3.5-.6.2-.2.3-.6.3-1 0-.2-.1-.5-.2-.7-.2-.3-.4-.6-.7-.8-.3-.2-.5-.2-.7-.3h-.4c-.4 0-1.1-.1-2-.1-2.6-.1-7.1-.1-10.8-.1h-21.1c-1.2 0-2.3 0-3.2.1h-1.9c-.3.1-.6.2-1 .5-.2.1-.3.3-.4.6-.1.2-.2.5-.2.7 0 .4.1.8.3 1l.5.6c.2.1.5.4 1 .8s1 .9 1.6 1.3c.8.6 1.3 1 1.9 1.6.6.7 1.3 1.7 2.6 3.4.5.7 1 1.6 1.4 2.7.6 1.6 1 3.5 1.2 5.5.3 2 .4 4 .5 5.9v1.4c0 4.2-1 8.5-2 11.6-.6 1.6-1.2 2.8-2.2 4.1-1 1.3-2.3 2.8-4.1 4.7-4 4.3-5.6 9.5-6.2 13-.2.8-.2 1.7-.2 2.6 0 3.2.8 6.7 1.8 9.8.3 1.1.9 2.4 1.6 3.8 1 1.9 2.1 4 3.2 5.7l.2-.6c.4-1.1.9-2 1.2-2.7zM504.1 85.1c0-7.3-2.9-13.6-5.7-18.1-2.8-4.5-5.7-7.1-5.7-7.1l-.1-.1-.2-.1-1.2-.4.2 1.2c.2 1.2.3 2.3.3 3.3 0 3.9-1.4 6.9-3.6 9.6-3.3 4-8.6 7.1-13.7 10.6-5.1 3.4-10.2 7.2-12.9 12.7-.4.7-1 1.8-1.6 3.3-.6 1.6-1 3.6-1 6 0 2.7.6 5.9 2.1 9.6 1.9 4.4 4.5 7.4 6.7 9.3 2.2 1.9 3.9 2.6 4 2.7l1 .4.1-1.1s.3-3 4.5-7.7c4.3-4.9 9.7-9.2 14.3-12.7 2.1-1.4 4-2.9 5.8-4.6.4-.3.7-.7 1-1 .3-.3.5-.6.5-.6 1.8-2.1 3.2-4.4 4-7.2.9-2.9 1.2-5.5 1.2-8zm-2.6 7.4c-.7 2.5-2.1 4.7-3.7 6.7 0 0-.1.1-.1.2-.3.3-.9 1-1.3 1.4-1.7 1.6-3.6 3.1-5.6 4.5-4.6 3.6-10.1 7.9-14.5 13-3.1 3.5-4.2 6.2-4.6 7.6-.7-.4-1.8-1.1-3-2.2-2-1.8-4.4-4.5-6.1-8.6-1.5-3.5-2-6.5-2-9 0-2.2.4-4.1.9-5.5.5-1.4 1.1-2.4 1.5-3.1 1.7-3.4 4.4-6.2 7.5-8.6 4.7-3.7 10.3-6.7 14.9-10.4 2.3-1.8 4.3-3.9 5.7-6.2 1.4-2.4 2.3-5.1 2.3-8.3v-1.3c1.1 1.2 2.7 3.2 4.2 5.6 2.7 4.3 5.2 10.1 5.2 16.8-.2 2.3-.5 4.8-1.3 7.4zM528.3 214.1l.2.2-.1-.4c-.1 0-.1.1-.1.2zM527.7 208.8c.1-.4 0-.9 0-1.4 0-4.3 1-7.5 2.1-9.8 1.2-2.4 2.5-3.9 3.3-4.8 3.1-4.2 7.5-7.2 12.3-9.7 7.3-3.8 15.6-6.4 22.2-10.5 3.3-2.1 6.2-4.5 8.2-7.7 1.7-2.7 2.8-5.8 3.2-9.7 2.5 3.9 7.7 13.6 7.7 24.9 0 2.9-.4 6-1.2 9.1l1.5.3c.9-3.2 1.2-6.3 1.2-9.4 0-7.7-2.3-14.6-4.6-19.6-2.3-5-4.6-8-4.6-8.1l-.1-.1-.2-.1-1.1-.5v1.3c0 6.1-2 10.4-5.2 13.8-2.4 2.5-5.5 4.6-8.9 6.4-5.2 2.7-11.2 4.9-16.9 7.6-5.6 2.7-10.9 6-14.6 11-.8.9-2.2 2.6-3.5 5.2-1.2 2.6-2.3 6-2.3 10.5v1h.1c.6-.1 1 0 1.4.3zM512.9 217zM526.2 208.4zM512.9 217zM629.1 214.7c-.3-.5-.6-.8-.8-1-.4-.4-.9-.6-1.2-.6l-.6-.1c-.1-.5-.3-1.1-.7-1.5-.5-.5-1.2-.9-2-1.2-.8-.2-1.5-.2-2.1-.2h-1.9s-.2 0-.4-.2c-.3-.2-.7-.4-1.2-.7l-.7-.4c-.3-.1-.6-.3-1-.3h-.2c-.5 0-.9.2-1.3.4-.5.4-.8.8-1 1.3-.2.5-.2.9-.3 1.4v.6c.1.7.3 1.2.4 1.6.1.2.1.3.1.4l-.2.2-.9.7c-.2.1-.3.2-.4.2-.1.1-.2.1-.2.1h-.2c-1-1.4-1.9-2.4-2.4-2.9-.3-.3-.8-.8-1.3-1.2-1.1-.9-2.4-2-3-2.6l-.1-.9c0-.4-.1-.9-.2-1.4-.1-.5-.2-.9-.3-1.3-.1-.2-.2-.7-.5-1.3-.7-1.9-2.2-5.3-5.3-8.4-2.2-2.2-4.7-3.5-7.3-4.5-2.5-.9-5.1-1.4-7.3-1.9-2.4-.5-5-.8-6.9-.9l.5-.3c.4-.4.6-.9.7-1.3.1-.4.2-.9.2-1.3v-.6c0-.6-.1-1.5-.1-2.3v-1.6c0-.4-.1-.7-.2-1-.2-.4-.4-.6-.6-.8l-.4-.4c-.3-.3-.4-.4-.6-.5-.3-.2-.7-.4-1.2-.6-.6-.3-1.4-.5-2.2-.7-.8-.2-1.6-.3-2.3-.4h-.5c-1.1.1-2.3.3-3.4.7-.6.2-1.1.4-1.5.6l-.6.3c-.2.1-.4.2-.6.5-.1.1-.3.3-.5.6-.1.1-.3.3-.4.6-.1.3-.2.6-.2 1v1.6c0 .8 0 1.7-.1 2.3v.6c0 .6.1 1.2.3 1.8.1.3.3.6.6.9.1.1.3.2.5.3-1.9.2-4.5.5-6.9.9-2.2.4-4.7.9-7.3 1.9-2.5.9-5.1 2.3-7.3 4.5-2.1 2.1-3.5 4.3-4.3 6.1-.4.9-.8 1.7-1 2.3-.2.6-.4 1.1-.5 1.3-.2.4-.3.9-.3 1.3-.1.8-.2 1.7-.3 2.3-.4.3-.9.7-1.4 1.2-.5.4-1.1.9-1.6 1.4-.5.5-1 .9-1.3 1.2-.5.5-1.5 1.5-2.4 2.9h-.2l-.4-.2-1.1-.7-.3-.3c0-.2.1-.4.2-.6.1-.4.3-.8.4-1.4v-.6c0-.7-.1-1.3-.5-1.9-.2-.3-.4-.6-.8-.8-.3-.2-.8-.4-1.3-.4h-.2c-.3 0-.5.1-.7.2-.4.1-.6.3-.9.5-.4.3-.8.5-1.1.7-.3.2-.6.3-.6.3h-1.9c-.6 0-1.3 0-2.1.2s-1.5.6-2 1.2c-.4.4-.7 1-.7 1.5-.2 0-.4 0-.6.1-.4.1-.8.2-1.2.6-.2.2-.6.6-.8 1-.3.5-.5 1.1-.5 1.8v.5c.1.5.2 1.1.5 1.7.1.3.3.6.6.9.3.3.7.5 1.2.7l.5.1s0 .1.1.1c.2.4.5 1 1.1 1.4.3.2.6.4 1 .5.4.1.8.2 1.2.2.6 0 1.2-.1 1.7-.3.7-.3 1.2-.7 1.6-.9.1-.1.2-.2.3-.2h.3v.4c-.1.8-.3 2-.6 3.3l.4.6.1.1c.1.1.1.2.3.3.3.3.7.7 1.3 1.2.1.1.3.2.5.3l.3-1.4c.2-1.1.4-2.1.6-3l.2-1.2.1-.9v-.3c0-.4-.1-.7-.3-1.1-.1-.3-.3-.5-.5-.7-.3-.3-.7-.5-1-.5-.3-.1-.6-.1-.8-.1h-.7c-.3 0-.6.1-.8.2-.4.2-.7.3-.9.5-.3.2-.6.5-.9.6-.3.1-.5.2-.8.2-.3 0-.4 0-.4-.1h-.1s-.1-.1-.1-.2c-.1-.1-.1-.3-.2-.6s-.4-.7-.7-.9c-.3-.2-.6-.3-.8-.3-.3-.1-.5-.1-.6-.1l-.1-.2c-.1-.2-.1-.4-.1-.6 0 0 0-.1.1-.3l.3-.3h.8c.4 0 .6-.1.8-.2.3-.2.5-.4.6-.6.2-.3.3-.5.4-.8.1-.3.1-.5.1-.9 0 0 .2-.2.6-.3.4-.1.8-.1 1.3-.1h1.2c.3 0 .7 0 1-.1.6-.1 1-.3 1.4-.5.5-.3 1-.6 1.3-.8 0 .2-.1.6-.3 1-.1.2-.2.4-.2.7-.1.3-.1.5-.1.9 0 .3 0 .6.2 1 .1.2.2.4.4.5.2.3.4.5.7.7l1.3 1c.2.1.5.3.8.4l.8.3c.2.1.5.1.8.1.3 0 .6 0 .9-.1.3-.1.5-.2.8-.4l.3-.2.2-.3c.9-1.4 1.8-2.3 2.3-2.8.3-.3.7-.7 1.2-1.1.7-.6 1.5-1.3 2.2-1.8.9 1.2 2.2 2.3 3.6 3.3 3.1 2.1 7.4 3.7 12.4 4.9 5 1.2 10.8 1.8 17 1.8 8.3 0 15.8-1.2 21.8-3.1 3-1 5.6-2.2 7.7-3.5 1.5-1 2.7-2.1 3.6-3.3.4.4.9.8 1.4 1.2.8.7 1.6 1.4 1.9 1.7.5.5 1.4 1.4 2.3 2.8l.2.3.3.2c.2.1.5.3.8.4.3.1.6.1.9.1.3 0 .6 0 .8-.1.5-.1.9-.3 1.2-.5.6-.3 1.1-.7 1.6-1.1l.6-.6c.2-.2.4-.4.5-.7.2-.4.2-.7.2-1 0-.4-.1-.6-.1-.9-.1-.4-.2-.7-.3-1-.1-.3-.2-.5-.2-.7l.9.6c.5.3 1.1.6 1.8.7.4 0 .7.1 1 .1h1.2c.5 0 .9 0 1.3.1s.6.3.6.3c0 .5.1.9.3 1.3.1.2.2.4.4.6l.4.4c.2.1.5.2.8.2h.8l.3.3c.1.2.1.3.1.3 0 .3-.1.6-.2.8h-.3c-.1 0-.3 0-.4.1-.3.1-.6.2-.9.5-.3.2-.4.5-.6.8-.1.2-.2.4-.2.6-.1.2-.1.2-.2.3h-.5c-.2 0-.4 0-.6-.1-.3-.1-.6-.3-1-.6-.2-.1-.4-.3-.7-.4-.3-.1-.6-.3-1.2-.3h-.7c-.2 0-.4 0-.7.1-.2 0-.4.1-.7.2-.4.2-.7.5-.9.9-.2.4-.3.8-.4 1.2v.7c0 1 .1 2.3.4 3.6.2.6.3 1.2.6 1.8.1.3.3.6.6.8l.6.5c.1.4.2 1.2.2 1.9s-.1 1.3-.1 1.8v.2l-.2.1-.8.9c-.4.5-.7 1-1 1.5-.2.2-.3.4-.4.6-.1.1-.1.1-.1.2v.1c-.3.4-.5.7-.6 1.1-.1.4-.2.7-.2 1.1 0 .3 0 .5.2.9.1.2.2.4.5.7.3.2.7.4 1.1.4.3 0 .6-.1.8-.2h.1c.2 0 .4 0 .5.1.1.1.1.1.2.1 0 .1.1.4.1.6 0 .4-.1.7-.2 1-.1.1-.1.2-.2.2l-.1.1c-.7.2-1.4.3-2.1.3-.3 0-.7 0-.9-.1-.2-.1-.4-.2-.5-.3-.5-.5-.9-1-1.1-1.3-.2-.3-.2-.5-.2-.6v-.1c.1-.4.2-.9.3-1.5l-2.8-.9c-.4 1-.8 1.8-1.3 2.5-.4.7-.9 1.2-1.2 1.5-3.2 2.6-4.6 4.1-4.7 4.2l-.8.8.6 1s.3.5.6 1.2.5 1.6.5 2.4c0 .4-.1.8-.2 1.1-.5 1.2-1 1.9-1.4 2.3-.5.5-.9.7-1.5 1-.5.2-1.3.5-2 .7-.3.1-.6.2-.9.2h-.2c-.2 0-.3 0-.6.1-.1 0-.3.1-.6.2-.1.1-.3.2-.5.4s-.3.6-.3.9c0 .4.2.7.3.9.1.2.2.3.4.4.2.2.4.3.5.4.1.1.1.1.2.1v1.3c0 .3-.1.5-.2.5h-.2c-.7 0-1.7-.2-2.6-.5-.4-.2-.8-.4-1.1-.6-.3-.2-.5-.4-.6-.6-.2-.3-.4-.9-.4-1.6-.1-.6-.1-1.3-.1-1.8v-.7l-.1-4.1-1.9.7h-.1c-.4.1-2.1.7-4.3 1.3-2.2.6-4.8 1.3-6.9 1.5l-1.3.2c.3 1 .6 1.9.8 2.9l.9-.1c2.5-.3 5.5-1 7.8-1.7.8-.2 1.6-.5 2.2-.6v.8c0 .6 0 1.4.1 2.2.1.8.3 1.7.8 2.6.4.7.9 1.2 1.5 1.6.9.6 1.8 1 2.8 1.2.9.2 1.9.4 2.7.4.6 0 1.2-.2 1.7-.5.4-.2.7-.5.9-.9.3-.5.5-1 .6-1.5.1-.5.1-.9.1-1.3v-.6c0-.3-.1-.7-.2-1 .7-.2 1.4-.4 2.1-.7.7-.3 1.6-.8 2.4-1.6.8-.8 1.5-1.9 2.1-3.4.3-.7.4-1.5.4-2.2 0-1.4-.4-2.7-.8-3.6-.1-.2-.2-.4-.2-.5.7-.7 1.9-1.7 3.7-3.2.4-.3.8-.7 1.1-1.2l1.2 1.4c.5.5 1.1.8 1.7 1 .6.2 1.2.3 1.8.3 1 0 2-.2 2.8-.4.5-.1 1-.4 1.3-.7.5-.5.9-1.1 1.1-1.6.2-.6.3-1.2.3-1.8 0-.6-.1-1.2-.4-1.8-.3-.8-1-1.3-1.6-1.6l-.8-.3.9-1.2c.2-.3.4-.5.6-.7l.2-.2c.1-.1.3-.2.3-.2.2-.2.3-.4.4-.6l.3-.8c.1-.4.2-.8.2-1.3l.1-1.5c0-.8-.1-1.7-.2-2.5-.1-.4-.2-.8-.4-1.1-.1-.2-.3-.4-.5-.6-.1-.1-.3-.2-.6-.3-.1-.1-.1-.3-.2-.5-.2-.5-.3-1.2-.4-1.8-.1-.7-.1-1.3-.1-1.8v-.1h.3l.3.2c.3.2.7.5 1.2.8.5.3 1.3.5 2.1.5.6 0 1.1-.1 1.6-.3.4-.2.7-.4.9-.6.4-.4.6-.8.7-1.1 0-.1.1-.2.1-.2.1 0 .3 0 .5-.1.5-.1.9-.4 1.2-.7.4-.4.6-.9.8-1.3.2-.4.3-.9.3-1.3v-.5c-.4-1.2-.7-1.8-1-2.3zm-65.5-33.7zm35.5 31.4c-2.7 1.8-6.7 3.4-11.5 4.4-4.8 1.1-10.4 1.7-16.4 1.7-8 0-15.3-1.1-20.9-3-2.8-.9-5.2-2-7-3.2-1.6-1.1-2.8-2.2-3.4-3.3 0-.3.1-.8.1-1.3 0-.4.1-.7.2-1 .1-.3.1-.6.2-.7.1-.4.3-.8.5-1.4.6-1.7 1.9-4.6 4.7-7.4 1.8-1.8 3.9-2.9 6.2-3.8 2.3-.8 4.6-1.3 6.8-1.7 2.1-.4 4.4-.7 6.2-.9.9-.1 1.7-.1 2.2-.2h.8l1.3-.1.1-1.3v-1c0-.2-.1-.5-.2-.8-.1-.3-.2-.4-.3-.6-.2-.3-.4-.5-.6-.6-.3-.3-.6-.5-1-.7l-.7-.3v-.8c.1-.7.1-1.7.1-2.5v-1.4000000000000001l.4-.4c.1-.1.3-.2.6-.3.5-.2 1.2-.4 1.8-.6.7-.2 1.3-.3 1.8-.3.7 0 1.8.3 2.8.6.5.1.9.3 1.2.4.1.1.2.1.3.1l.4.4v1.3c0 .8 0 1.8.1 2.5v.8c-.2.1-.3.1-.4.2-.4.2-.8.4-1.2.7-.2.1-.4.3-.5.5-.2.2-.3.4-.5.8l-.2.8v1l.1 1.3 1.3.1h.2c1 .1 5.4.4 9.1 1.1 2.2.4 4.6.9 6.8 1.7 2.3.8 4.4 2 6.2 3.8 1.8 1.8 3 3.7 3.8 5.3.4.8.7 1.5.9 2.1.2.6.4 1 .5 1.4 0 .1.1.4.2.8.1.6.2 1.2.2 1.7v.5c-.5 1.4-1.6 2.5-3.3 3.6zm17.5 24.1zM526.2 208.4zM578 253.9c-1.5-4.3-3.9-8.7-7.8-12.5-2.3-2.2-4.9-3.7-7.8-4.7 0 0-.4-.1-.8-.3-.5-.2-1.1-.3-1.6-.4-2.6-.7-5.3-1-8-1.3-6.3-.9-13.8-2.1-20.6-4.4-3.4-1.2-5.6-2.5-6.9-3.4-.6-.5-1.1-.9-1.3-1.2l-.3-.3-.1-.1-.6-.9-.6.8c-.1.1-3.9 5.3-3.9 13.8 0 1.1.1 2.2.2 3.4.7 6.2 2.8 10.3 5 13 1.1 1.4 2.2 2.4 3.3 3.1 1 .8 1.9 1.3 2.4 1.6 4 2.7 8.6 3.9 13.4 4.5 7.2 1 14.7.7 21 2.1 3.2.7 6 1.8 8.4 3.6 2.4 1.8 4.3 4.4 5.6 8.1l.4 1.1 1-1 .1-.2s1.6-5.2 1.6-12.3c-.2-3.5-.7-7.8-2.1-12.1zm-.4 20.8c-.1.4-.2.8-.2 1.2-1.9-4-4.7-6.7-8-8.4-2.9-1.5-6.1-2.3-9.6-2.7-5.1-.7-10.7-.7-16-1.3-5.3-.6-10.4-1.7-14.5-4.5-.6-.3-1.4-.8-2.3-1.5-1.4-1-3-2.6-4.5-5-1.4-2.4-2.7-5.7-3.2-10.1-.1-1.1-.2-2.2-.2-3.2 0-4 .9-7.3 1.8-9.5.5-1.1.9-2 1.3-2.6v-.1c1.1 1.1 3.6 3 8.6 4.8 7 2.4 14.6 3.6 20.9 4.5 2.7.2 5.3.6 7.8 1.2.4.1 1 .2 1.4.4l.6.2c.1.1.2.1.2.1 2.7.9 5.1 2.3 7.2 4.3 3.8 3.6 6.1 7.7 7.5 11.9 1.4 4.1 1.9 8.3 1.8 11.9.2 3.4-.2 6.3-.6 8.4zM61.6 228c-.9-1.1-1.7-2.3-2.5-3.6-6.6-11.3-3.6-18.8-2.4-21.6l.1-.3c2.7-7.9 9.5-13.7 16.1-19.4 9.5-8.1 18.4-15.8 15.4-28.7 3.7 3.2 12.3 11.5 15.1 23.3.5.1 1 .1 1.6.2-1.7-7.8-5.8-14.2-9.7-18.7-3.5-4.1-7.7-7.6-8.3-7.6h-1l.3 1c4.3 13.3-4.8 21.1-14.4 29.4-6.7 5.8-13.7 11.8-16.5 20l-.1.2c-1.2 3-4.5 11 2.5 22.9 1.5 2.6 3.3 4.8 5 6.5l-1.2-3.6zM69.6 216.9c0-16.4 13.4-29.8 29.8-29.8s29.8 13.4 29.8 29.8c0 1.4-.1 2.8-.3 4.2.9-.6 1.7-1.2 2.4-1.9.1-.7.1-1.5.1-2.2 0-17.7-14.4-32-32-32-17.7 0-32 14.4-32 32 0 13.4 8.2 24.8 19.9 29.6.3-.7.7-1.4 1-2-10.9-4.4-18.7-15.1-18.7-27.7zM62.9 216.9c0-20.1 16.4-36.5 36.5-36.5 18.8 0 34.2 14.2 36.3 32.4.8-1.9 1.2-4 1.4-6.5l.1-1c-4.9-16.1-20-27.9-37.7-27.9-21.7 0-39.4 17.7-39.4 39.4 0 16.8 10.6 31.2 25.5 36.9.1-1.1.3-2 .5-3-13.6-5.3-23.2-18.4-23.2-33.8zM95.7 279.7l-.8-.6c-.3-.2-7.2-5.7-9.1-16.9-2.1-13.3 3.6-19.4 5.8-21.7l.2-.2c5.5-6.5 13.9-9.4 22-12.3 11.6-4.1 22.6-8 23.4-21.6l.1-1.1 1.2.6.1.2c.1.2 14 21.7 2.6 41.4-1.6 2.8-3.8 5.2-6.7 7.2 0 0-1.4 1-2.4 1.5-2.2 1.3-4.8 2.5-8.1 3.8-5.4 2.4-13.6 6.1-20.4 10.9-6.3 4.4-7.5 7.8-7.5 7.9l-.4.9zm42.6-71c-1.9 12.7-13.2 16.7-24.1 20.6-7.9 2.8-16.2 5.7-21.4 11.9l-.2.2c-2 2.2-7.4 7.9-5.4 20.4 1.4 8.6 6.1 13.7 7.8 15.4.8-1.4 2.8-4.3 7.6-7.7 6.9-4.8 15.2-8.5 20.6-11 3.2-1.2 5.7-2.4 7.9-3.7.9-.5 2.2-1.4 2.2-1.4 2.8-2 4.8-4.2 6.3-6.8 9.2-15.5 1.7-32.3-1.3-37.9zM260.6 42.7c-3.1-30.8-34.9-42.7-35.2-42.7h-1.5l.8 1.3c4.9 7.9 5.1 15 2.7 22 .5.2 1.1.3 1.6.6 2.3-6.7 2.4-13.6-1.6-21.2 7.2 3.4 29.1 15.9 31.5 40.2.4 4.4-2.3 14.5-2.9 15.5-.6 1.4-1.3 2.8-2.2 4.3.2 1 .2 2 .2 3 1.4-2.3 2.5-4.5 3.5-6.6.7-1.4 3.5-11.9 3.1-16.4zM252.7 58.9c-2.2-4.8-7.8-9.1-11-10.4l-.5-.2c.9-.2 1.8-.5 2.6-.8 1.8-.7 4.6-1.3 5.6-1.4l.6-.1c.7-.1 2.4-.2 2.6-2 .1-1.5-1.1-2.8-1.8-3.2l-.6-.6c-.5-.5-1-1-1.5-1.4-1.1-.8-3.8-2.5-6.3-3-1.2-.2-2.1-.3-2.9-.4-.4-1.5-1.2-3.8-2.5-5.4-3.3-4-6.9-6.4-11-7.2-5-1-5.7-1.2-9.6-1.5-1.9-.1-4.6-.2-7.5-.2-2.9 0-5.6.1-7.5.2-3.9.3-4.6.4-9.6 1.5-4 .8-7.6 3.2-11 7.2-1.3 1.6-2.1 3.9-2.5 5.4-.7 0-1.7.1-2.9.4-2.5.5-5.2 2.2-6.3 3-.5.4-1.1.9-1.5 1.4l-.6.6c-.6.4-1.9 1.7-1.8 3.2.2 1.8 1.9 2 2.6 2 .2 0 .4 0 .6.1 1 .1 3.8.7 5.6 1.4.8.3 1.7.6 2.6.8-.1.1-.3.1-.5.2-3.2 1.3-8.7 5.6-11 10.4-1.5 3.3-1.5 6.5-1.1 9.2l.1.4c1 5.6 3.8 9 7.6 11.2-1.3-2.2-3.3-5.7-3.8-8.6l-.2-.9c-.6-3-1.3-6.4.4-10 1.9-4.1 6.9-7.8 9.2-8.7 1-.4 4.1-1.7 3.8-4.1l-.2-1.5-1.1-.3s-2.8-.6-4.7-1.3c-1.8-.7-4.2-1.2-5.6-1.5l.4-.4c.4-.4.8-.8 1.2-1.1.6-.5 2.9-2 5-2.4 1.2-.2 2.2-.3 2.8-.3h.5l1.5.2.3-1.5c.2-1 .9-3.7 2.2-5.2 2.9-3.4 5.8-5.4 9.1-6.1 4.9-1 5.5-1.1 9.2-1.4 1.8-.1 4.4-.2 7.2-.2s5.4.1 7.2.2c3.8.3 4.4.4 9.2 1.4 3.3.7 6.3 2.7 9.1 6.1 1.2 1.5 2 4.3 2.2 5.2l.3 1.5 1.5-.1h.5c.6 0 1.6.1 2.8.3 2 .4 4.3 1.9 5 2.4.3.3.8.7 1.2 1.1l.4.4c-1.4.2-3.8.8-5.6 1.5-1.8.7-4.6 1.3-4.7 1.3l-1.1.3-.2 1.5c-.3 2.4 2.8 3.7 3.8 4.1 2.3.9 7.3 4.6 9.2 8.7 1.7 3.5 1 7 .4 10l-.2.9c-.6 3.2-2.9 7.1-4.2 9.2-1 1.5-5.2 6.4-8.3 10-1.9 2.2-3.4 4-4 4.7-2 2.5-1.9 5.5-1.8 7.5 0 1.7.9 2.9 1.5 3.7.3.4.5.7.7 1.1.2.6.1 1 0 1.5-.1.2-.1.4-.1.5 0 .2-.4.9-1.4 1.6-1.7 1.3-10.3 2.8-17.9 3.4-.2 1.2-.4 2.3-.7 3.3 7.4-.5 17.7-2 20.5-4.1 1.8-1.4 2.6-2.9 2.7-3.8v-.2c.2-.6.5-1.9-.1-3.5-.3-.7-.7-1.3-1.1-1.8-.6-.7-.9-1.2-.9-1.8 0-1.7-.1-3.7 1.1-5.3.5-.7 2.1-2.5 3.9-4.6 4.2-4.9 7.5-8.8 8.6-10.4 1.4-2.3 4-6.6 4.7-10.4l.2-.8c.7-3.3 1.5-7.6-.6-12.1zM207.8 128l-.5-1c0-.1-1.5-2.9-7.3-5.9-6.4-3.4-13.9-5.7-18.9-7.2-2.9-.7-5.3-1.5-7.4-2.4-.9-.3-2.1-1-2.2-1-2.8-1.5-5-3.3-6.7-5.6-12.1-16-2.3-36.3-2.2-36.5l1.1-2.2.5 2.4c2.2 11.6 12 13.8 22.5 16.1 7.4 1.6 15 3.3 20.5 8.4l.1.1c2.2 1.8 7.9 6.5 7.4 18.4-.4 10-5.9 15.6-6.1 15.8l-.8.6zm-44.6-56.8c-2.1 5.6-6.2 20.4 3 32.5 1.6 2.1 3.6 3.8 6.2 5.2 0 0 1.2.7 2 1 2.1.9 4.4 1.6 7.3 2.3 5.1 1.6 12.7 3.9 19.2 7.4 4.3 2.3 6.5 4.5 7.4 5.7 1.4-1.8 4.7-6.6 4.9-13.9.4-11-4.9-15.4-6.8-17l-.2-.2c-5.2-4.8-12.6-6.4-19.8-8-9.9-2.2-20-4.5-23.2-15z"/></svg>