<svg xmlns="http://www.w3.org/2000/svg">
<defs>
<font id="fd29eb1cefd91006638dcbde6a7ac5bd" horiz-adv-x='1024' >
  <font-face 
    font-family="GTSectra-Bold"
    font-weight="700"
    font-stretch="normal"
    units-per-em="1000"
    panose-1="2 0 8 3 0 0 0 2 0 3"
    ascent="750"
    descent="-250"
    x-height="479"
    cap-height="701"
    bbox="-160 -252 2177 991"
    underline-thickness="50"
    underline-position="-50"
    unicode-range="U+000D-FB04"
  />
<missing-glyph horiz-adv-x="625" 
d="M605 460l-3 -41l-8 -35l-12 -31l-3 -156l-21 -7l-50 70l-27 -7l-19 -140l-32 4l-7 -4l-4 -94l30 -19l16 -14l-3 -15l-30 1l-24 18h-14l-8 8l7 76l-4 47l-61 1l-3 -52l-2 -56v-20l-15 -6l-8 6l-30 -10h-32l-1 11l11 11l50 21l-6 96l-98 -6l-147 140l-4 115l-13 10l-10 36
v26l15 8l-3 78l92 -62l9 47l10 36l22 35l28 35l39 29l40 15l38 14h22l-68 22l4 17h7l79 -20l-4 51l16 12h32l19 -5l29 -25l32 -8l32 -10l15 -13v-20l-20 -31l30 -28l28 -32l18 -34l15 -41zM495 399l-4 7h-205l-66 -3l-7 -9l-6 -44l-48 20l-11 -4l57 -27l1 -45l-5 -73v-91
l18 4l2 40l41 -3l3 9l-44 6v16l48 -6l1 9l-47 7l1 22l43 -3l3 6l-45 9l3 94h74l11 10h-79l2 9h74l8 7h-82l2 22l117 4l140 -4v11zM176 569l29 12l13 -15l-17 -20l-10 -3l17 -3h5l36 24h32l18 -12l8 3l4 14l7 5l10 -4v-18h8l10 22l11 8l-5 6l-3 8l1 21l-30 -10l-10 -8l-8 5
l4 21l14 10l11 11l38 -2l12 13l-4 8h-49l-45 -13l-53 -26l-29 -23zM586 465l-8 37l-19 50l-20 36l-23 28l-34 21h-11l17 -19l25 -10l11 -11l3 -33l-25 13l-15 -29l12 -8v-19l15 3l-12 26l15 -5l10 -20l-5 -12l-8 -7h-23l-3 11l-12 2l1 -22h-14l14 -18l-7 -10l-21 5l-3 -27
l41 6l8 17l22 -2l6 -28l-16 -13v-15l8 -6l18 12h23l6 11l-18 6l-5 9l9 42h7l14 -20zM72 434l57 -32l7 10l-68 38v18l59 -34l43 -28l28 -14l3 10l-103 64l-13 7l-41 33l2 -78l19 -17v-5h-21l19 -14l1 -11l-20 7l18 -18l-4 -7l3 -97l11 -12v180zM481 331l-54 1l-1 -24v-6
l-2 -31l19 -3l-8 -61l-48 3l-8 -6l51 -5l-2 -9h-49l-4 -5l53 -7l-6 -35l27 -1l12 79l4 36l-15 3l-1 8l20 1l5 3l-28 16l2 5l30 -6l-30 15l5 5l21 -5l4 10zM176 331l-66 39v-7l-2 -13l1 -27v-48l64 -44l-1 60zM350 214l-64 4v-51l64 -6v53zM502 306l8 -6l8 2l20 15l13 13

<glyph glyph-name="ff" unicode="ff" horiz-adv-x="716" 
d="M274 596l-15 -23q-10 -17 -13 -40.5t-3 -58.5v-13h194v16q0 41 15 72t46 61l102 101h138v-100h-130l-14 -23q-11 -17 -14 -40.5t-3 -60.5v-26h129v-58h-129v-346l103 -10l-5 -48l-188 3l-95 -3l-5 47l50 11v346h-194v-346l79 -10l-5 -48l-164 3l-103 -3l-5 47l58 11v346
h-81v22l35 41h46v5q0 42 17 70t47 58l99 96h208l-100 -99h-100z" />
    <glyph glyph-name="fi" unicode="fi" horiz-adv-x="649" 
d="M569 481v-424l60 -11l-5 -47l-124 3l-116 -3l-5 48l50 10v311l6 44l-40 -9h-152v-346l69 -10l-5 -47l-152 2l-105 -3l-5 47l58 11v346h-81v22l35 41h46v11q0 41 15 72t45 61l103 101h306v-124h-31l-86 24h-181l-15 -23q-10 -17 -13 -40.5t-3 -60.5v-26h152l113 19z" />
    <glyph glyph-name="fl" unicode="fl" horiz-adv-x="656" 
d="M437 461v171l-57 -21h-106l-15 -23q-10 -17 -13 -40.5t-3 -60.5v-26h194zM103 477q0 41 15 72t45 61l103 101h176l83 2h52v-656l60 -11l-5 -47l-124 3l-120 -3l-5 47l54 11v346h-194v-346l79 -10l-5 -48l-164 3l-103 -3l-5 47l58 11v346h-81v22l35 41h46v11z" />
    <glyph glyph-name="ffi" unicode="ffi" horiz-adv-x="984" 
d="M379 46l58 11v346h-194v-346l79 -10l-5 -48l-164 3l-103 -3l-5 47l58 11v346h-81v22l35 41h46v5q0 42 17 70t47 58l99 96h208l-100 -99h-100l-15 -23q-10 -17 -13 -40.5t-3 -58.5v-13h194v16q0 41 15 72t46 61l102 101h307v-124h-31l-86 24h-181l-15 -23
q-10 -17 -13 -40.5t-3 -60.5v-26h152l113 19l61 1v-424l60 -11l-5 -47l-124 3l-116 -3l-5 48l50 10v311l6 44l-40 -9h-152v-346l69 -10l-5 -48l-152 3l-106 -3z" />
    <glyph glyph-name="ffl" unicode="ffl" horiz-adv-x="991" 
d="M577 57l79 -10l-5 -48l-164 3l-95 -3l-5 47l50 11v346h-194v-346l79 -10l-5 -48l-164 3l-103 -3l-5 47l58 11v346h-81v22l35 41h46v5q0 42 17 70t47 58l99 96h208l-100 -99h-100l-15 -23q-10 -17 -13 -40.5t-3 -58.5v-13h194v16q0 41 15 72t46 61l102 100h177l83 3h52
v-656l60 -11l-5 -47l-124 3l-120 -3l-5 47l54 11v346h-195v-346zM772 461v170l-58 -20h-105l-15 -23q-11 -17 -14 -40.5t-3 -60.5v-26h195z" />
    <glyph glyph-name="Th" unicode="Th" horiz-adv-x="1120" 
d="M974 2l-110 -3l-5 47l41 12v274q0 30 -14 44.5t-39 14.5q-20 0 -42.5 -11.5t-45.5 -26.5l-22 -14v-281l43 -12l-5 -47l-107 3l-120 -3l-5 47l54 12v594l-46 -12l-160 3v-584l106 -13l-5 -47l-177 3l-180 -3l-5 47l108 13v584l-123 -3l-49 -140h-51v201l305 -2l234 2
l127 11l56 1v-313l151 94q44 0 73.5 -7.5t47.5 -26t26 -49t8 -76.5v-277l60 -12l-5 -47z" />
    <glyph glyph-name="fb" unicode="fb" horiz-adv-x="931" 
d="M631 -15q-65 0 -114.5 13.5t-83.5 29.5v604l-57 -21h-102l-15 -24q-10 -17 -13 -41t-3 -61v-24h129v-58h-129v-345l103 -11l-5 -48l-188 3l-103 -3l-5 47l58 12v345h-81v22l35 41h46v11q0 41 15 72t45 61l103 101h172l83 2h52v-315l134 96q36 0 71 -15.5t62 -44.5
t43.5 -70.5t16.5 -93.5q0 -243 -269 -285zM645 43q48 0 77.5 46.5t29.5 135.5q0 86 -25 124t-57 38q-19 0 -38 -9t-38 -23l-21 -16v-262q29 -34 72 -34z" />
    <glyph glyph-name="ffb" unicode="ffb" horiz-adv-x="1265" 
d="M437 461v16q0 41 15 72t46 61l102 101h173l83 2h52v-315l133 96q37 0 71.5 -15.5t61.5 -44.5t43.5 -70.5t16.5 -93.5q0 -243 -268 -285q-66 0 -115.5 13.5t-82.5 29.5v604l-58 -21h-102l-15 -24q-10 -17 -13 -41t-3 -61v-24h129v-58h-129v-345l103 -11l-5 -48l-188 3
l-95 -3l-5 47l50 11v346h-194v-346l79 -10l-5 -49l-164 3l-103 -3l-5 48l58 11v346h-81v22l35 41h46v5q0 42 17 70t47 58l99 96h208l-100 -99h-100l-15 -23q-10 -17 -13 -40.5t-3 -58.5v-13h194zM908 77q28 -34 72 -34q47 0 76.5 46.5t29.5 135.5q0 43 -7 73.5t-18 50
t-25.5 29t-30.5 9.5q-19 0 -38.5 -9t-37.5 -23l-21 -16v-262z" />
    <glyph glyph-name="ffh" unicode="ffh" horiz-adv-x="1294" 
d="M437 477q0 41 15 72t46 61l102 101h177l83 2h52v-313l150 94q44 0 74 -7.5t48 -26t25.5 -49t7.5 -76.5v-277l60 -12l-5 -47l-124 3l-109 -3l-5 47l40 12v274q0 59 -52 59q-20 0 -42.5 -11.5t-45.5 -26.5l-22 -14v-281l43 -12l-5 -47l-107 3l-120 -3l-5 47l54 12v574
l-58 -21h-106l-15 -24q-10 -17 -13 -41t-3 -61v-24h129v-58h-129v-345l79 -11l-5 -48l-164 3l-95 -3l-5 47l50 11v346h-194v-346l79 -10l-5 -49l-164 3l-103 -3l-5 48l58 11v346h-81v22l35 41h46v5q0 42 17 70t47 58l99 96h208l-100 -99h-100l-15 -23q-10 -17 -13 -40.5
t-3 -58.5v-13h194v16z" />
    <glyph glyph-name="ffj" unicode="ffj" horiz-adv-x="962" 
d="M637 -235v114h105l7 22q5 17 9 45.5t4 81.5v341l7 43l-40 -9h-151v-346l73 -10l-5 -49l-141 3l-112 -3l-5 48l50 11v346h-195v-346l79 -10l-5 -49l-164 3l-103 -3l-5 48l58 11v346h-81v22l35 41h46v5q0 42 17 70t47 58l99 96h208l-100 -99h-100l-15 -23
q-10 -17 -13 -40.5t-3 -58.5v-13h195v16q0 41 15 72t45 61l103 101h304v-124h-30l-87 24h-179l-15 -23q-10 -17 -13 -40.5t-3 -60.5v-26h150l113 18l61 3v-436q0 -37 -9 -66.5t-22.5 -53.5t-29.5 -42.5t-31 -33.5l-86 -85h-87z" />
    <glyph glyph-name="ffk" unicode="ffk" horiz-adv-x="1268" 
d="M912 276l27 13l160 132l-53 12v47l103 -3l91 3l5 -47l-58 -12l-175 -137l33 -19l176 -207l42 -12l-8 -47l-97 3l-67 -3l-164 223l-15 39v-203l40 -12l-5 -47l-115 3l-113 -3l-5 47l58 12v574l-58 -21h-106l-15 -24q-10 -17 -13 -41t-3 -61v-24h129v-58h-129v-345l79 -11
l-5 -49l-164 3l-103 -3l-5 48l58 12v345h-194v-346l79 -10l-5 -49l-164 3l-103 -3l-5 48l58 11v346h-81v22l35 41h46v5q0 42 17 70t47 58l99 96h208l-100 -99h-100l-15 -23q-10 -17 -13 -40.5t-3 -58.5v-13h194v16q0 41 15 72t46 61l102 101h177l135 2v-437z" />
    <glyph glyph-name="fh" unicode="fh" horiz-adv-x="960" 
d="M814 2l-110 -3l-5 47l41 12v274q0 30 -14 44.5t-39 14.5q-20 0 -42.5 -11.5t-45.5 -26.5l-22 -14v-281l43 -12l-5 -47l-107 3l-120 -3l-5 47l54 12v574l-57 -21h-106l-15 -24q-10 -17 -13 -41t-3 -61v-24h129v-58h-129v-345l79 -11l-5 -48l-164 3l-103 -3l-5 47l58 12
v345h-81v22l35 41h46v11q0 41 15 72t45 61l103 101h176l83 2h52v-313l151 94q44 0 73.5 -7.5t47.5 -26t26 -49t8 -76.5v-277l60 -12l-5 -47z" />
    <glyph glyph-name="fj" unicode="fj" horiz-adv-x="627" 
d="M389 -235h-87v114h105l7 22q5 17 9 45.5t4 81.5v341l7 43l-40 -9h-151v-347l73 -10l-5 -47l-139 3l-122 -3l-5 45l58 12v347h-81v22l35 41h46v11q0 41 15 72t45 61l103 100h304v-123h-30l-87 24h-179l-15 -23q-10 -17 -13 -40.5t-3 -60.5v-26h150l113 18l61 3v-436
q0 -37 -9 -66.5t-22.5 -53.5t-29.5 -42.5t-31 -33.5z" />
    <glyph glyph-name="fk" unicode="fk" horiz-adv-x="933" 
d="M824 2l-68 -3l-163 223l-16 39v-203l40 -12l-5 -47l-114 3l-114 -3l-5 47l58 12v574l-57 -21h-106l-15 -24q-10 -17 -13 -41t-3 -61v-24h129v-58h-129v-345l79 -11l-5 -48l-164 3l-103 -3l-5 47l58 12v345h-81v22l35 41h46v11q0 41 15 72t45 61l103 101l176 -2l135 3
v-436l28 13l160 132l-54 12v47l103 -3l91 3l6 -47l-58 -12l-175 -137l33 -19l176 -207l41 -12l-8 -47z" />
    <glyph glyph-name="ft" unicode="ft" horiz-adv-x="730" 
d="M582 -15q-33 0 -62 6.5t-50 22.5t-33.5 42.5t-12.5 66.5v280h-181v-345l99 -11l-5 -49l-182 3l-105 -3l-5 48l58 12v345h-81v22l35 41h46v11q0 41 15 72t45 61l103 101h211l-96 -100h-107l-15 -24q-10 -17 -13 -41t-3 -61v-24h182v72l92 74h46v-147h135v-54h-134v-268
q0 -27 13 -44.5t38 -17.5q22 0 42 7.5t41 18.5l21 -44l-137 -73v0z" />
    <glyph glyph-name="fu" unicode="fu" horiz-adv-x="914" 
d="M699 77l-140 -92q-46 0 -77 7.5t-50 25.5t-27 47.5t-8 73.5v237l13 41l-46 -14h-121v-345l103 -11l-5 -48l-186 3l-105 -3l-5 47l58 12v345h-81v22l35 41h46v11q0 41 15 72t45 61l103 100h138v-99h-130l-15 -24q-10 -17 -13 -41t-3 -61v-24h122l103 18l72 4v-329
q0 -32 14.5 -48t46.5 -16q16 0 35 9t39 23l17 12v271l-51 -5l-5 49l124 30l72 4v-349q0 -29 3.5 -44t10.5 -26h42l4 -47l-164 -28z" />
    <glyph glyph-name="fy" unicode="fy" horiz-adv-x="866" 
d="M385 -235v134h117l100 136l-88 -29l-162 412h-109v-360l103 -11l-5 -49l-186 3l-105 -3l-5 48l58 12v345h-81v22l35 41h46v11q0 41 15 72t45 61l103 101h138v-100h-130l-15 -24q-10 -17 -13 -39.5t-3 -59.5v-9h309l5 -46l-54 -10l98 -260l12 -85l108 344l-48 10l5 48
l94 -3l84 3l5 -48l-59 -10l-148 -397l-115 -260h-154z" />
    <glyph glyph-name="gg" unicode="gg" horiz-adv-x="1049" 
d="M262 494q50 0 89.5 -15.5t65.5 -41.5l43 57h100l-37 -84h-49l-29 -13q14 -28 14 -60q0 -37 -14.5 -65t-41.5 -49.5t-67.5 -38t-92.5 -30.5q-14 0 -26.5 1t-24.5 3l-32 -35q0 -39 41 -39h146q85 0 120.5 -28.5t35.5 -75.5q0 -40 -20 -73.5t-55.5 -61.5t-83.5 -51t-104 -42
q-48 0 -88.5 8.5t-70.5 25.5t-47 42.5t-17 60.5v14l112 77q-38 15 -61.5 38.5t-23.5 72.5v18l100 65q-46 20 -72.5 57t-26.5 85q0 72 55.5 112t161.5 66zM178 -32q-22 -24 -30 -38t-8 -30q0 -28 30 -48.5t86 -20.5q30 0 53.5 8t40 21.5t25 30.5t8.5 36q0 20 -17 30.5
t-55 10.5h-133zM328 306q0 27 -5 51.5t-15.5 42.5t-26.5 29t-38 11q-35 0 -51 -28.5t-16 -73.5q0 -27 5 -50.5t15.5 -41t26.5 -28t38 -10.5q35 0 51 27.5t16 70.5zM770 494q49 0 89 -15.5t66 -41.5l45 57h74v-84h-61l-31 -13q7 -14 11 -29t4 -31q-1 -37 -15 -65t-41.5 -49.5
t-67.5 -38t-93 -30.5q-14 0 -26.5 1t-23.5 3l-32 -35q0 -39 41 -39h168q85 0 120.5 -28t35.5 -76q0 -40 -21 -73.5t-58.5 -61.5t-88 -51t-110.5 -42q-47 0 -88 8.5t-71 25.5t-47 42.5t-17 60.5v14l110 77q-45 15 -67.5 38.5t-22.5 72.5v18l100 65q-46 20 -73 57t-27 85
q1 72 56.5 112t161.5 66zM691 -32q-21 -24 -28.5 -38t-7.5 -30q0 -28 30 -48.5t86 -20.5q33 0 59.5 8t44.5 21.5t27.5 30.5t9.5 36q0 20 -17 30.5t-55 10.5h-149zM835 306q0 27 -5 51.5t-15.5 42.5t-26.5 29t-38 11q-35 0 -51 -28.5t-16 -73.5q0 -27 5 -50.5t15.5 -41
t27 -28t38.5 -10.5q35 0 50.5 27.5t15.5 70.5z" />
    <glyph glyph-name="ky" unicode="ky" horiz-adv-x="1057" 
d="M576 -235v134h117l100 136l-89 -29l-163 419l-34 -1l-171 -140l31 -19l176 -208l41 -10l-8 -48l-97 2l-67 -2l-163 223l-16 34v-200l40 -10l-5 -47l-114 3l-114 -3l-5 47l58 10v582l-58 -2l-5 47l140 27l63 3v-434l31 13l154 133l-51 17v37h376l5 -46l-54 -10l98 -260
l12 -85l107 344l-47 10l5 48l94 -3l84 3l5 -48l-59 -10l-149 -397l-115 -260h-153z" />
    <glyph glyph-name="tt" unicode="tt" horiz-adv-x="735" 
d="M587 -15q-33 0 -62 6.5t-50 22.5t-33.5 42.5t-12.5 66.5v283h-194v-268q0 -27 13.5 -44.5t37.5 -17.5q20 0 38 6.5t38 16.5l21 -45l-129 -69q-33 0 -62 6.5t-50.5 22.5t-34 42.5t-12.5 66.5v283h-90v18l39 39h53v70l92 74h45v-147h196v73l92 74h46v-147h144v-54h-143
v-268q0 -27 13 -44.5t38 -17.5q22 0 42 7.5t41 18.5l21 -44l-137 -73v0z" />
    <glyph glyph-name="ty" unicode="ty" horiz-adv-x="876" 
d="M394 -235v134h118l100 136l-89 -29l-162 416h-126v-284q0 -27 13.5 -44.5t37.5 -17.5q20 0 39 7t38 16l21 -44l-130 -70q-33 0 -62 6.5t-50.5 22.5t-34 42.5t-12.5 66.5v294h-90v18l39 39h53v59l92 74h46v-128h327l5 -46l-54 -10l98 -260l12 -85l107 344l-47 10l5 48
l93 -3l85 3l5 -48l-59 -10l-149 -397l-115 -260h-154z" />
    <glyph glyph-name="www" unicode="www" horiz-adv-x="2182" 
d="M1104 249l-6 70l-111 -305l-108 -29l-112 289l-3 62l-107 -322l-108 -29l-101 264l-6 70l-111 -305l-108 -29l-169 437l-49 12l5 46l128 -3l108 3l5 -46l-49 -12l87 -261l8 -77l104 286l-20 52l-42 12l5 46l120 -3l108 3l5 -46l-49 -12l88 -261l8 -77l100 301l-14 37
l-49 12l5 46l128 -3l107 3l5 -46l-48 -12l87 -261l8 -77l104 286l-21 52l-41 12l5 46l120 -3l108 3l5 -46l-49 -12l87 -261l8 -77l101 302l-13 36l-50 12l5 46l128 -3l108 3l5 -46l-49 -12l88 -261l8 -77l103 286l-20 52l-42 12l5 46l120 -3l108 3l5 -46l-49 -12l88 -261
l8 -77l113 338l-46 12l5 46l82 -3l82 3l5 -46l-57 -12l-151 -408l-108 -29l-101 264l-5 70l-112 -305l-108 -29l-111 289l-3 62l-108 -322l-108 -29z" />
    <glyph glyph-name=".notdef" horiz-adv-x="625" 
d="M605 460l-3 -41l-8 -35l-12 -31l-3 -156l-21 -7l-50 70l-27 -7l-19 -140l-32 4l-7 -4l-4 -94l30 -19l16 -14l-3 -15l-30 1l-24 18h-14l-8 8l7 76l-4 47l-61 1l-3 -52l-2 -56v-20l-15 -6l-8 6l-30 -10h-32l-1 11l11 11l50 21l-6 96l-98 -6l-147 140l-4 115l-13 10l-10 36
v26l15 8l-3 78l92 -62l9 47l10 36l22 35l28 35l39 29l40 15l38 14h22l-68 22l4 17h7l79 -20l-4 51l16 12h32l19 -5l29 -25l32 -8l32 -10l15 -13v-20l-20 -31l30 -28l28 -32l18 -34l15 -41zM495 399l-4 7h-205l-66 -3l-7 -9l-6 -44l-48 20l-11 -4l57 -27l1 -45l-5 -73v-91
l18 4l2 40l41 -3l3 9l-44 6v16l48 -6l1 9l-47 7l1 22l43 -3l3 6l-45 9l3 94h74l11 10h-79l2 9h74l8 7h-82l2 22l117 4l140 -4v11zM176 569l29 12l13 -15l-17 -20l-10 -3l17 -3h5l36 24h32l18 -12l8 3l4 14l7 5l10 -4v-18h8l10 22l11 8l-5 6l-3 8l1 21l-30 -10l-10 -8l-8 5
l4 21l14 10l11 11l38 -2l12 13l-4 8h-49l-45 -13l-53 -26l-29 -23zM586 465l-8 37l-19 50l-20 36l-23 28l-34 21h-11l17 -19l25 -10l11 -11l3 -33l-25 13l-15 -29l12 -8v-19l15 3l-12 26l15 -5l10 -20l-5 -12l-8 -7h-23l-3 11l-12 2l1 -22h-14l14 -18l-7 -10l-21 5l-3 -27
l41 6l8 17l22 -2l6 -28l-16 -13v-15l8 -6l18 12h23l6 11l-18 6l-5 9l9 42h7l14 -20zM72 434l57 -32l7 10l-68 38v18l59 -34l43 -28l28 -14l3 10l-103 64l-13 7l-41 33l2 -78l19 -17v-5h-21l19 -14l1 -11l-20 7l18 -18l-4 -7l3 -97l11 -12v180zM481 331l-54 1l-1 -24v-6
l-2 -31l19 -3l-8 -61l-48 3l-8 -6l51 -5l-2 -9h-49l-4 -5l53 -7l-6 -35l27 -1l12 79l4 36l-15 3l-1 8l20 1l5 3l-28 16l2 5l30 -6l-30 15l5 5l21 -5l4 10zM176 331l-66 39v-7l-2 -13l1 -27v-48l64 -44l-1 60zM350 214l-64 4v-51l64 -6v53zM502 306l8 -6l8 2l20 15l13 13
l11 18l-7 5h-14l-10 3l-14 7l-17 -3q-2 -13 -3 -24q-2 -9 -2.5 -17t-0.5 -7zM398 585l5 -6l19 11l8 -2l6 -24h13l6 6l-9 18l17 28l-15 9v5l-25 7v-20l-13 -5v-9l-9 -6zM403 336l4 30l-54 5l-3 -35h53zM336 455l-7 -11h-12l-5 7l11 8l-15 2v6l-23 4l3 -17l8 -14l20 -9l13 -1
l18 10l6 9l5 20l-30 2l7 -5zM559 312l-6 -3l-33 -27l39 -48v78zM214 454l1 4l14 2l-13 6l2 7l-20 -1l3 -19l14 -15l12 -6l11 5l16 12l6 12l2 13l-22 -4l6 -10l-12 -13l-14 -1zM364 281l-72 7l-6 -13l78 -4v10zM176 203l-74 50l20 -23l50 -41zM364 312h-73v-10h73v10z
M354 256l-68 4v-10h68v6zM485 359h-48v-13l44 4zM321 520l-4 -12l49 -17l3 4zM184 498l59 12l-4 12zM384 642l-8 -9v-19l12 -6l3 17zM461 530l-8 -4v-9l8 -3l2 7zM534 386l5 7v7l-10 -4v-10h5z" />
    <glyph glyph-name=".null" horiz-adv-x="0" 
 />
    <glyph glyph-name=".null" horiz-adv-x="0" 
 />
    <glyph glyph-name="nonmarkingreturn" unicode="&#xd;" horiz-adv-x="320" 
 />
    <glyph glyph-name="space" unicode=" " horiz-adv-x="237" 
 />
    <glyph glyph-name="exclam" unicode="!" horiz-adv-x="311" 
d="M216 397l-19 -162h-83l-19 161l-11 314h143zM88 133l97 8l35 -8l7 -70l-7 -62l-97 -6l-35 6l-6 72z" />
    <glyph glyph-name="quotedbl" unicode="&#x22;" horiz-adv-x="432" 
d="M248 570l-6 71l6 62l97 7l35 -7l7 -71l-7 -62l-76 -159l-47 19q6 13 13 32t13.5 38.5t11 37t4.5 27.5zM56 570l-6 71l6 62l97 7l35 -7l8 -71l-8 -62l-76 -159l-47 19q6 13 13 32t13.5 38.5t11 37t4.5 27.5z" />
    <glyph glyph-name="numbersign" unicode="#" horiz-adv-x="629" 
d="M238 257h133l18 141h-133zM493 655l-24 -195h120l-7 -62h-120l-18 -141h118l-7 -62h-119l-23 -195h-73l23 195h-133l-23 -195h-73l23 195h-117l7 62h118l18 141h-116l7 62h116l24 195h73l-24 -195h133l24 195h73z" />
    <glyph glyph-name="dollar" unicode="$" horiz-adv-x="601" 
d="M164 121q20 -24 50 -42.5t66 -23.5v237l-81 40q-62 30 -100 71t-38 106q0 64 51 115.5t168 83.5v73h55v-63q51 -2 102 -17.5t91 -40.5v-156h-71l-29 92q-17 17 -39 31.5t-54 19.5v-211l70 -34q42 -20 71 -40.5t46.5 -43t25.5 -48.5t8 -58q0 -77 -55 -129t-166 -86v-77
h-55v62q-61 0 -114.5 18.5t-98.5 49.5l-22 162h85zM411 159q0 66 -76 106v-207q35 9 55.5 35.5t20.5 65.5zM198 562q0 -34 20 -56.5t58 -40.5l4 -2v183q-41 -7 -61.5 -29.5t-20.5 -54.5z" />
    <glyph glyph-name="percent" unicode="%" horiz-adv-x="811" 
d="M208 -5h-91l495 710h91zM192 353q-33 0 -61 12t-48 34t-31.5 53t-11.5 69q0 42 13.5 73t37.5 53t58 35.5t75 21.5q34 0 62 -12t48.5 -34t32 -53t11.5 -68q0 -42 -13.5 -73t-38 -53t-58.5 -36t-76 -22zM201 665q-26 0 -40 -28t-14 -85q0 -79 18.5 -119t48.5 -40
q26 0 40 28t14 85q0 79 -18.5 119t-48.5 40zM585 -2q-33 0 -61 12t-48 33.5t-31.5 52.5t-11.5 69q0 42 13.5 73.5t37.5 53t57.5 35.5t74.5 22q34 0 62.5 -12t49 -34t32 -53t11.5 -69q0 -42 -13.5 -73t-38 -52.5t-58.5 -35.5t-76 -22zM594 309q-26 0 -40 -27.5t-14 -85.5
q0 -79 18.5 -118.5t48.5 -39.5q26 0 40 27.5t14 85.5q0 78 -18.5 118t-48.5 40z" />
    <glyph glyph-name="ampersand" unicode="&#x26;" horiz-adv-x="745" 
d="M634 313l-91 -128l120 -129l46 -10l-8 -47l-84 2l-75 -2l-76 84q-24 -24 -66 -51.5t-113 -49.5q-51 0 -95 13.5t-77 37.5t-51.5 58t-18.5 76q0 40 13 70.5t34.5 54.5t49 44t57.5 41q-26 28 -44.5 50t-31.5 41.5t-19 37.5t-6 38q0 31 12.5 56.5t39 46t68.5 38t102 33.5
q39 0 71.5 -10t55 -27t35 -39t12.5 -46q0 -33 -13 -59.5t-34 -49t-49 -43t-58 -40.5l160 -174l54 86l-44 7l5 44l95 -3l84 3l6 -44zM318 71q34 0 61 16.5t47 38.5l-185 205q-26 -25 -38.5 -56t-12.5 -76q0 -26 9.5 -49t27 -40.5t41 -28t50.5 -10.5zM227 580q0 -16 7 -33.5
t18 -34.5t24.5 -34t26.5 -32q34 27 51 57t17 75q0 35 -17.5 58t-50.5 23q-30 0 -53 -19.5t-23 -59.5z" />
    <glyph glyph-name="quotesingle" unicode="'" horiz-adv-x="236" 
d="M56 570l-6 71l6 62l97 7l35 -7l8 -71l-8 -62l-76 -159l-47 19q6 13 13 32t13.5 38.5t11 37t4.5 27.5z" />
    <glyph glyph-name="parenleft" unicode="(" horiz-adv-x="292" 
d="M154 247q0 -69 7 -130t23 -116.5t40 -107t59 -102.5l-31 -29q-58 64 -98.5 117.5t-66 108t-37 116.5t-11.5 142t11.5 142.5t37 117t66 107t98.5 113.5l31 -29q-35 -51 -59 -100t-40 -102.5t-23 -114t-7 -133.5z" />
    <glyph glyph-name="parenright" unicode=")" horiz-adv-x="292" 
d="M138 247q0 73 -7 133.5t-23 114t-40.5 102.5t-58.5 100l31 29q58 -60 98.5 -112t66 -107t37 -118t11.5 -143t-11.5 -142.5t-37 -117.5t-66 -108t-98.5 -116l-31 29q34 51 58.5 102.5t40.5 107t23 116.5t7 130z" />
    <glyph glyph-name="asterisk" unicode="*" horiz-adv-x="442" 
d="M167 383l-89 66l87 83l-120 16l35 105l107 -57l-22 119h111l-21 -119l107 57l35 -105l-121 -16l88 -83l-89 -66l-55 110z" />
    <glyph glyph-name="plus" unicode="+" 
d="M271 0v215h-219v77h219v223h77v-223h219v-77h-219v-215h-77z" />
    <glyph glyph-name="comma" unicode="," horiz-adv-x="238" 
d="M68 1l-6 72l6 61l97 7l35 -7l8 -71l-8 -62l-76 -159l-47 19q6 13 13 32t13.5 38.5t11 37t4.5 27.5z" />
    <glyph glyph-name="hyphen" unicode="-" horiz-adv-x="385" 
d="M40 319h305v-77h-305v77z" />
    <glyph glyph-name="period" unicode="." horiz-adv-x="250" 
d="M76 133l97 8l35 -8l8 -70l-8 -62l-96 -6l-36 6l-6 72z" />
    <glyph glyph-name="slash" unicode="/" horiz-adv-x="503" 
d="M62 -230h-72l453 948h70z" />
    <glyph glyph-name="zero" unicode="0" horiz-adv-x="603" 
d="M319 494q51 0 95.5 -18t77.5 -50.5t52 -78t19 -101.5q0 -59 -21.5 -103t-59.5 -75.5t-89 -51.5t-109 -31q-51 0 -95.5 18t-77.5 50.5t-52 78t-19 101.5q0 59 21.5 103t59.5 75.5t88.5 51.5t109.5 31zM190 275q0 -107 34.5 -163.5t88.5 -56.5q46 0 72 37.5t26 111.5
q0 108 -34 164t-88 56q-46 0 -72.5 -37.5t-26.5 -111.5z" />
    <glyph glyph-name="one" unicode="1" horiz-adv-x="478" 
d="M180 376l-42 -20l-95 -18l-21 45l225 101h73v-421l143 -17l-5 -47l-209 3l-212 -3l-5 47l143 17v295z" />
    <glyph glyph-name="two" unicode="2" horiz-adv-x="551" 
d="M282 114h239v-42l-32 -72h-447l-22 47l172 130q33 24 59 45.5t45 43t29 45.5t10 53q0 28 -16.5 47t-53.5 19q-18 0 -34 -5.5t-27 -10.5l-32 -120h-98v127l210 73q98 0 149 -37t51 -100q0 -34 -15.5 -61.5t-43 -51.5t-65.5 -46t-83 -45l-149 -75z" />
    <glyph glyph-name="three" unicode="3" horiz-adv-x="503" 
d="M253 -116q33 23 46.5 53t13.5 65q0 25 -9.5 47t-28.5 38.5t-48 26t-68 9.5l-10 37l38 17q50 23 75 58t25 91q0 48 -20 75t-49 27q-17 0 -30 -4.5t-23 -10.5l-32 -119h-101v127l207 73q51 0 87 -11t58.5 -30t32.5 -44t10 -53q0 -62 -39.5 -103t-110.5 -67q48 -3 83 -18.5
t58 -38t34 -49.5t11 -54q0 -51 -19 -84t-50.5 -56.5t-73 -40.5t-85.5 -36l-92 -39h-118v114h228z" />
    <glyph glyph-name="four" unicode="4" horiz-adv-x="570" 
d="M431 61h124v-95h-124v-196h-128v196h-252l-41 63l327 450h119v-54l-346 -383l47 19h146v100l99 83h29v-183z" />
    <glyph glyph-name="five" unicode="5" horiz-adv-x="504" 
d="M137 365l-26 -191l127 66q56 0 100 -15.5t74 -42t46 -60t16 -69.5q0 -53 -17 -89.5t-46.5 -63.5t-68.5 -47t-83 -40l-95 -43h-118v114h220q31 22 44.5 56t13.5 66q0 27 -7 51.5t-22 43t-37.5 29.5t-52.5 11q-29 0 -50.5 -6t-47.5 -17l-33 -15l-28 22l46 354h369v-42
l-31 -72h-293z" />
    <glyph glyph-name="six" unicode="6" horiz-adv-x="584" 
d="M539 237q0 -59 -21 -101t-57 -71t-84 -48t-103 -32q-53 0 -94.5 20t-70 57t-44 89t-15.5 116q0 71 22 136.5t70 123t123.5 106.5t183.5 88l15 -50q-77 -33 -125.5 -69t-76.5 -76.5t-39.5 -86t-15.5 -96.5l133 107q52 0 89.5 -18.5t62 -48.5t36 -68.5t11.5 -77.5zM392 202
q0 70 -22 107t-54 37q-21 0 -40 -11.5t-38 -27.5l-33 -27q0 -48 5 -91t16 -75t30 -51t46 -19q41 0 65.5 40t24.5 118z" />
    <glyph glyph-name="seven" unicode="7" horiz-adv-x="513" 
d="M20 479h446l30 -33l-303 -676h-119v56l299 537l-17 -4h-336v120z" />
    <glyph glyph-name="eight" unicode="8" horiz-adv-x="577" 
d="M373 549q0 20 -5 39.5t-15.5 34.5t-26 24t-36.5 9q-35 0 -55.5 -24.5t-20.5 -67.5q0 -44 30.5 -78.5t72.5 -62.5q26 23 41 52t15 74zM193 178q0 -29 7.5 -53.5t20.5 -42.5t30.5 -28t38.5 -10q37 0 64.5 28t27.5 83q0 29 -12.5 53t-32 43.5t-43.5 35t-47 29.5
q-25 -21 -39.5 -58.5t-14.5 -79.5zM533 196q0 -42 -17 -74.5t-50 -57t-80.5 -44t-108.5 -35.5q-50 0 -92 14t-73 38.5t-48 57t-17 70.5q0 28 7.5 53t24.5 47.5t46 42.5t73 38q-68 35 -100 83t-32 99q0 68 59 114t174 73q50 0 90.5 -11.5t69 -31.5t44 -47.5t15.5 -59.5
q0 -63 -41.5 -104.5t-111.5 -70.5q76 -37 122 -84.5t46 -109.5z" />
    <glyph glyph-name="nine" unicode="9" horiz-adv-x="582" 
d="M191 275q0 -66 22 -103.5t52 -37.5q22 0 40.5 11t38.5 28l33 26q0 49 -5 92.5t-16 75t-30 50t-46 18.5q-41 0 -65 -39.5t-24 -120.5zM43 242q0 59 20.5 100.5t56 70.5t84 48t104.5 33q53 0 94.5 -20t70.5 -57t44 -89.5t15 -116.5q0 -70 -22 -134.5t-69.5 -122t-123 -106
t-182.5 -87.5l-15 50q76 33 124 69t76 76t39.5 84.5t15.5 95.5l-133 -107q-52 0 -89.5 18.5t-62 49t-36 68.5t-11.5 77z" />
    <glyph glyph-name="colon" unicode=":" horiz-adv-x="271" 
d="M81 133l97 8l35 -8l8 -70l-8 -62l-96 -6l-36 6l-6 72zM81 473l97 7l35 -7l8 -70l-8 -62l-96 -7l-36 7l-6 71z" />
    <glyph glyph-name="semicolon" unicode=";" horiz-adv-x="291" 
d="M81 473l97 7l35 -7l8 -70l-8 -62l-96 -7l-36 7l-6 71zM82 1l-6 72l6 61l96 7l36 -7l7 -71l-7 -62l-76 -159l-47 19q6 13 13 32t13.5 38.5t11 37t4.5 27.5z" />
    <glyph glyph-name="less" unicode="&#x3c;" 
d="M570 548v-88l-418 -173l418 -173v-89l-520 231v60z" />
    <glyph glyph-name="equal" unicode="=" 
d="M567 304h-515v77h515v-77zM567 109h-515v77h515v-77z" />
    <glyph glyph-name="greater" unicode="&#x3e;" 
d="M570 316v-60l-520 -231v89l418 173l-418 173v88z" />
    <glyph glyph-name="question" unicode="?" horiz-adv-x="457" 
d="M212 332l-7 -104h-63l-6 136l39 22q31 17 54 56.5t23 88.5q0 57 -21 89t-63 32l-19 -73h-84v119l117 11q110 -14 167.5 -62.5t57.5 -123.5q0 -38 -14.5 -66t-37.5 -49t-51.5 -36t-56.5 -26zM108 131l97 8l35 -8l7 -70l-7 -62l-97 -6l-35 6l-6 72z" />
    <glyph glyph-name="at" unicode="@" horiz-adv-x="923" 
d="M601 131q30 4 63 23.5t60.5 52.5t45 79.5t17.5 104.5t-19.5 105t-55.5 80.5t-86.5 51.5t-112.5 18q-65 0 -128.5 -26t-114 -74t-81.5 -116.5t-31 -154.5t30.5 -147.5t79 -100.5t110 -57.5t124.5 -18.5q58 0 102.5 16.5t73.5 29.5l18 -33q-28 -14 -59.5 -27t-63.5 -23.5
t-61.5 -17.5t-53.5 -10q-92 0 -167 27.5t-128.5 77t-83 117t-29.5 147.5q0 72 25.5 137t72 119t111.5 95t144 65l92 28q93 0 164.5 -23t120 -63t73.5 -94.5t25 -117.5q0 -64 -25 -120.5t-67 -99t-96 -67t-111 -24.5l-59 62l42 113q-1 -2 -8 -11t-23 -29.5t-43.5 -54
t-69.5 -82.5q-29 0 -56.5 10t-48.5 28.5t-33.5 45t-12.5 58.5q0 85 49.5 152.5t130.5 104.5l109 49l126 -68zM578 417l-72 53q-38 -18 -64 -43.5t-42 -54.5t-22.5 -58t-6.5 -54q0 -41 17.5 -61.5t47.5 -20.5l112 129z" />
    <glyph glyph-name="A" unicode="A" horiz-adv-x="740" 
d="M205 226l-56 -167l78 -13l-5 -47l-109 3l-101 -3l-5 47l63 12l231 628l127 28l236 -657l69 -11l-5 -47l-178 3l-120 -3l-5 47l73 13l-57 167h-236zM333 544l-3 57l-106 -320h198z" />
    <glyph glyph-name="B" unicode="B" horiz-adv-x="658" 
d="M161 2l-126 -3l-5 47l78 13v583l-78 13l5 46l126 -3l251 3q46 0 80.5 -13.5t57 -35.5t33.5 -50t11 -57q0 -62 -47.5 -107.5t-128.5 -61.5q106 -5 160.5 -53t54.5 -122q0 -47 -20 -81.5t-55.5 -58.5t-84 -39t-105.5 -23zM261 645v-253h65q26 0 47 11t36 30t23 44.5t8 54.5
q0 52 -25.5 85.5t-84.5 33.5zM327 49q43 0 72 14t46.5 36t25 48.5t7.5 51.5q0 31 -9.5 57.5t-27 46t-43 30.5t-58.5 11h-79v-288z" />
    <glyph glyph-name="C" unicode="C" horiz-adv-x="708" 
d="M685 233l-20 -179q-46 -20 -111.5 -40t-148.5 -32q-73 0 -140 22.5t-118.5 67t-82 110.5t-30.5 152q0 88 28 154t80 112.5t127 75t168 42.5q37 0 70.5 -6.5t63.5 -16t55 -21.5t44 -23v-171h-69l-32 98q-10 13 -24 26.5t-32.5 24t-42.5 17t-55 6.5q-47 0 -86 -19t-68 -56
t-45 -90.5t-16 -122.5q0 -64 15.5 -121t45 -100t71.5 -68.5t95 -25.5q49 0 82 20.5t60 46.5l49 117h67z" />
    <glyph glyph-name="D" unicode="D" horiz-adv-x="761" 
d="M161 698l224 3q79 1 142.5 -20.5t108 -64t68 -104.5t23.5 -143q0 -75 -20.5 -138.5t-63 -112t-108 -79.5t-155.5 -40l-222 3l-123 -3l-5 47l78 13v583l-78 13l5 46zM261 645v-586l105 -8q46 -2 82.5 21.5t62 65t39 98t13.5 119.5q0 65 -15 120t-43.5 94.5t-70 61
t-94.5 19.5z" />
    <glyph glyph-name="E" unicode="E" horiz-adv-x="646" 
d="M595 701l11 -192h-52l-59 130l-234 3v-246l116 4l40 107h50l-10 -137l10 -141h-50l-40 106l-116 4v-281l245 3l68 135h53l-33 -197l-421 3l-138 -3l-5 47l78 13v583l-78 13l5 46l138 -3z" />
    <glyph glyph-name="F" unicode="F" horiz-adv-x="621" 
d="M35 -1l-5 47l78 13v583l-78 13l5 46l138 -3l422 3l11 -198h-52l-59 136l-234 3v-262l116 4l40 107h50l-10 -137l10 -141h-50l-40 107l-116 4v-265l120 -13l-5 -47l-203 3z" />
    <glyph glyph-name="G" unicode="G" horiz-adv-x="753" 
d="M679 60q-45 -22 -117 -43.5t-166 -34.5q-71 0 -136.5 23t-115.5 67t-80 108.5t-30 148.5q0 91 27.5 157.5t79.5 113t126.5 75t167.5 43.5q37 0 72 -6.5t65.5 -17t56 -22.5t44.5 -24v-167h-67l-33 95q-22 32 -61.5 54t-94.5 22q-100 0 -158.5 -74t-58.5 -214
q0 -65 16 -122.5t45 -100.5t71 -67.5t95 -24.5q37 0 61 11.5t38 23.5v184l-90 13l5 50l162 -3l124 3l7 -50l-55 -13v-208v0z" />
    <glyph glyph-name="H" unicode="H" horiz-adv-x="792" 
d="M30 655l5 46l150 -3l141 3l5 -46l-70 -13v-249h272v249l-72 13l5 46l143 -3l148 3l5 -46l-76 -13v-583l76 -13l-5 -47l-148 3l-143 -3l-5 47l72 13v272h-272v-272l70 -13l-5 -47l-141 3l-150 -3l-5 47l78 13v583z" />
    <glyph glyph-name="I" unicode="I" horiz-adv-x="371" 
d="M186 2l-150 -3l-5 47l78 13v583l-78 13l5 46l150 -3l149 3l5 -46l-78 -13v-583l78 -13l-5 -47z" />
    <glyph glyph-name="J" unicode="J" horiz-adv-x="390" 
d="M292 139q0 -40 -10.5 -74t-26.5 -62t-35 -51t-37 -41l-80 -86h-100v120h114l8 21q9 25 11.5 54.5t2.5 74.5v547l-110 13l5 46l182 -4l144 4l5 -46l-73 -13v-503z" />
    <glyph glyph-name="K" unicode="K" horiz-adv-x="749" 
d="M291 392l263 250l-73 13l5 46l110 -3l120 3l5 -46l-76 -14l-277 -259l44 -19l277 -305l53 -12l-5 -47l-85 3l-114 -3l-259 316l-18 38v-294l69 -13l-5 -47l-140 3l-150 -3l-5 47l78 13v583l-78 13l5 46l150 -3l140 3l5 -46l-69 -13v-265z" />
    <glyph glyph-name="L" unicode="L" horiz-adv-x="607" 
d="M173 3l-138 -4l-5 47l78 13v583l-78 13l5 46l138 -3l161 3l5 -46l-78 -13v-584l224 3l77 141h47l-36 -203z" />
    <glyph glyph-name="M" unicode="M" horiz-adv-x="967" 
d="M684 701l137 -3l111 3l5 -46l-76 -13v-583l74 -13l-5 -47l-141 3l-148 -3l-5 47l78 13v459l14 120l-230 -639h-94l-192 511l-29 122v-573l75 -13l-4 -47l-109 3l-108 -3l-5 47l74 13v582l-76 14l5 46l94 -3l163 3l187 -498l-1 -81z" />
    <glyph glyph-name="N" unicode="N" horiz-adv-x="739" 
d="M185 59l74 -13l-3 -47l-109 3l-112 -3l-5 47l78 13v580l-76 16l5 46l82 -3l106 3l322 -412l27 -86v439l-74 13l3 46l109 -3l112 3l5 -46l-78 -13v-645h-75l-368 489l-23 92v-519z" />
    <glyph glyph-name="O" unicode="O" horiz-adv-x="807" 
d="M415 718q82 0 148 -26.5t112.5 -73.5t72 -111t25.5 -139q0 -84 -21 -147.5t-67 -110t-118.5 -78t-174.5 -50.5q-82 0 -148 26.5t-112.5 73.5t-72 111t-25.5 139q0 84 21 147.5t67 110t118.5 78t174.5 50.5zM200 367q0 -57 12.5 -114t39 -102t67.5 -73.5t98 -28.5
q50 0 86 21t59 59t34 90t11 114q0 56 -12 112.5t-38.5 102.5t-67 74.5t-97.5 28.5q-50 0 -86 -21t-59.5 -58.5t-35 -90t-11.5 -114.5z" />
    <glyph glyph-name="P" unicode="P" horiz-adv-x="630" 
d="M30 655l5 46l147 -3l228 3q45 0 83.5 -11t67.5 -33.5t45.5 -56.5t16.5 -78q0 -50 -23.5 -86t-62 -62.5t-87 -44.5t-97.5 -32h-92v-238l120 -13l-5 -47l-191 3l-150 -3l-5 47l78 13v583zM261 359h68q26 0 50 10t42 29.5t28.5 47.5t10.5 64q0 66 -37.5 104t-96.5 38l-65 -7
v-286z" />
    <glyph glyph-name="Q" unicode="Q" horiz-adv-x="807" 
d="M415 718q82 0 148 -26.5t112.5 -73.5t72 -111t25.5 -139t-17 -134t-53 -104t-93 -77t-137 -53l95 -34l99 -71l69 -16l-4 -46h-183l-157 149q-82 0 -148 26.5t-112.5 73.5t-72 111t-25.5 139q0 84 21 147.5t67 110t118.5 78t174.5 50.5zM200 367q0 -57 12.5 -114t39 -102
t67.5 -73.5t98 -28.5q50 0 86 21t59 59t34 90t11 114q0 56 -12 112.5t-38.5 102.5t-67 74.5t-97.5 28.5q-50 0 -86 -21t-59.5 -58.5t-35 -90t-11.5 -114.5z" />
    <glyph glyph-name="R" unicode="R" horiz-adv-x="713" 
d="M261 319v-260l76 -13l-5 -47l-147 3l-150 -3l-5 47l78 13v583l-78 13l5 46l148 -3l223 3q45 0 85 -11t69 -33t46 -54.5t17 -75.5q0 -40 -17.5 -71t-47.5 -54t-70 -38.5t-84 -24.5l106 -49l150 -229l48 -16l-4 -46l-109 3l-82 -3l-194 309l-13 11h-45zM261 376h65
q28 0 52.5 10t42.5 28.5t28.5 45t10.5 59.5q0 66 -35.5 99t-87.5 34l-76 -7v-269z" />
    <glyph glyph-name="S" unicode="S" horiz-adv-x="578" 
d="M150 121q23 -27 57.5 -47t76.5 -20q51 0 82 28t31 77q0 71 -89 113l-123 60q-62 30 -100 71t-38 106q0 35 14.5 66.5t46 58t81 48t118.5 36.5q54 0 109.5 -15.5t97.5 -42.5v-156h-71l-29 92q-20 21 -48 37t-70 16q-55 0 -83.5 -25t-28.5 -62q0 -34 20 -56.5t58 -40.5
l129 -63q42 -20 71 -40.5t46.5 -43t25.5 -48.5t8 -58q0 -86 -68.5 -141t-206.5 -89q-61 0 -115 18.5t-99 49.5l-22 162h85z" />
    <glyph glyph-name="T" unicode="T" horiz-adv-x="629" 
d="M492 -1l-177 3l-180 -3l-5 47l108 13v584l-123 -3l-49 -141h-51v202l305 -3l294 3v-202h-51l-49 141l-123 3v-584l106 -13z" />
    <glyph glyph-name="U" unicode="U" horiz-adv-x="746" 
d="M479 655l5 46l128 -3l114 3l5 -46l-79 -13v-390q0 -50 -11.5 -91.5t-40.5 -75.5t-77.5 -59.5t-123.5 -43.5q-85 0 -143.5 19t-94.5 54t-52 84t-16 109v394l-78 13l5 46l135 -3l161 3l5 -46l-73 -13v-394q0 -90 39 -140t119 -50q77 0 117 50.5t40 141.5v392z" />
    <glyph glyph-name="V" unicode="V" horiz-adv-x="721" 
d="M310 -17l-239 659l-66 13l5 46l173 -3l119 3l5 -46l-73 -13l160 -462v-69l182 531l-78 13l5 46l108 -3l100 3l5 -46l-63 -13l-232 -630z" />
    <glyph glyph-name="W" unicode="W" horiz-adv-x="1032" 
d="M667 -17l-139 424l-3 68l-144 -464l-93 -28l-220 659l-61 13l5 46l164 -3l119 3l5 -46l-75 -13l135 -420l1 -73l121 395l-32 98l-51 13l5 46l154 -3l116 3l5 -46l-73 -13l135 -422l4 -72l144 494l-81 13l5 46l102 -3l105 3l5 -46l-64 -13l-199 -631z" />
    <glyph glyph-name="X" unicode="X" horiz-adv-x="741" 
d="M731 46l-5 -47l-126 3l-175 -3l-5 47l73 13l-130 191l-16 45l-162 -236l70 -13l-5 -47l-129 3l-106 -3l-5 47l78 13l208 282l-204 302l-66 12l5 46l125 -3l178 3l5 -46l-73 -13l118 -182l13 -43l154 225l-75 13l5 46l129 -3l99 3l5 -46l-72 -13l-194 -265l222 -318z" />
    <glyph glyph-name="Y" unicode="Y" horiz-adv-x="724" 
d="M441 275v-216l109 -13l-5 -47l-180 3l-183 -3l-5 47l111 13v217l-216 367l-67 12l5 46l147 -3l147 3l5 -46l-73 -13l161 -270l1 -49l175 319l-75 13l5 46l110 -3l101 3l5 -46l-66 -12z" />
    <glyph glyph-name="Z" unicode="Z" horiz-adv-x="593" 
d="M518 202h60l-36 -202h-512l-13 52l349 555l49 35l-258 -5l-49 -128h-56v191h499l11 -47l-352 -562l-49 -34l283 5z" />
    <glyph glyph-name="bracketleft" unicode="[" horiz-adv-x="333" 
d="M298 -184v-47l-142 3l-83 -3v946l83 -3l142 3v-47l-121 -10q-2 -59 -3 -121q-1 -54 -1.5 -119t-0.5 -130q0 -78 0.5 -159t1.5 -149q1 -79 3 -154z" />
    <glyph glyph-name="backslash" unicode="\" horiz-adv-x="443" 
d="M-40 718h70l453 -948h-72z" />
    <glyph glyph-name="bracketright" unicode="]" horiz-adv-x="333" 
d="M156 -174q1 75 2 154q1 68 2 149t1 159q0 65 -1 130t-2 119q-1 62 -2 121l-121 10v47l142 -3l83 3v-946l-83 3l-142 -3v47z" />
    <glyph glyph-name="asciicircum" unicode="^" horiz-adv-x="391" 
d="M145 460h-95l123 245h45l123 -245h-95l-50 121z" />
    <glyph glyph-name="underscore" unicode="_" horiz-adv-x="565" 
d="M5 -69h555v-67h-555v67z" />
    <glyph glyph-name="grave" unicode="`" horiz-adv-x="500" 
d="M263 557l-114 176h134l42 -176h-62z" />
    <glyph glyph-name="a" unicode="a" horiz-adv-x="513" 
d="M297 247l-105 -43q-12 -12 -17.5 -30.5t-5.5 -35.5q0 -36 16.5 -52t34.5 -16q15 0 28 7t23 13l26 18v139zM253 494q52 0 88 -7.5t58 -25.5t31.5 -47.5t9.5 -73.5v-194q0 -30 3 -46t10 -29h48l7 -47l-173 -35l-32 80l-115 -84q-35 0 -64 9.5t-50 27t-32.5 42t-11.5 55.5
q0 32 12.5 57t32.5 45l222 71v57q0 46 -12.5 62.5t-38.5 16.5q-17 0 -32.5 -4t-28.5 -11l-15 -98h-125v94z" />
    <glyph glyph-name="b" unicode="b" horiz-adv-x="570" 
d="M539 270q0 -243 -268 -285q-65 0 -114.5 13.5t-83.5 29.5v610l-58 -2l-5 47l142 27l61 3v-315l134 96q36 0 70.5 -15.5t61.5 -44.5t43.5 -70.5t16.5 -93.5zM391 225q0 86 -24.5 124t-56.5 38q-19 0 -38 -9t-38 -23l-21 -16v-262q28 -34 72 -34q48 0 77 46.5t29 135.5z
" />
    <glyph glyph-name="c" unicode="c" horiz-adv-x="480" 
d="M306 419q-8 6 -15.5 8.5t-20.5 2.5q-37 0 -64 -43t-27 -121q0 -38 10.5 -71t30 -57t47 -38t62.5 -14q29 0 54.5 11t45.5 25l26 -45q-37 -29 -80 -52t-102 -40q-53 0 -97.5 17t-76.5 48t-50 75t-18 99q0 58 20.5 102t55 77t81 55t98.5 36q50 0 91 -14t67 -37v-127h-116z
" />
    <glyph glyph-name="d" unicode="d" horiz-adv-x="579" 
d="M498 132q0 -31 4 -43.5t12 -23.5h44l4 -48l-166 -28l-31 84l-121 -88q-49 0 -88 17.5t-66.5 48.5t-42.5 74.5t-15 96.5q0 62 17.5 108.5t49 79.5t76 53.5t97.5 30.5q7 0 19 -2.5t24.5 -6.5t24 -8.5t18.5 -8.5v166l-58 -2l-5 47l132 31l71 4v-582zM268 90q20 0 37 7.5
t32 19.5l21 16v261q-11 14 -30.5 23t-42.5 9q-49 0 -77 -46.5t-28 -130.5q0 -76 25 -117.5t63 -41.5z" />
    <glyph glyph-name="e" unicode="e" horiz-adv-x="492" 
d="M173 248q1 -35 11 -64.5t28.5 -51.5t44 -34t58.5 -12q35 0 69 13t56 27l22 -45q-41 -34 -85.5 -55.5t-104.5 -40.5q-52 0 -96.5 17t-77 48t-51 75.5t-18.5 98.5q0 45 12 86.5t39.5 76t73.5 62t115 45.5q52 0 89 -15t60.5 -41.5t34 -61.5t10.5 -74v-54h-290zM323 305
q0 57 -14.5 91.5t-55.5 34.5q-36 0 -57 -36t-24 -99z" />
    <glyph glyph-name="f" unicode="f" horiz-adv-x="385" 
d="M243 461h129v-58h-129v-345l103 -11l-5 -48l-186 3l-105 -3l-5 47l58 12v345h-81v22l35 41h46v11q0 41 15 72t45 61l103 100h138v-99h-130l-15 -24q-10 -16 -13 -40.5t-3 -61.5v-24z" />
    <glyph glyph-name="g" unicode="g" horiz-adv-x="554" 
d="M326 307q0 27 -5 51t-15 42.5t-25.5 29t-37.5 10.5q-35 0 -52 -29.5t-17 -74.5q0 -27 5 -50t15 -40.5t26 -27.5t38 -10q35 0 51.5 28t16.5 71zM179 -29q-23 -22 -30 -36.5t-7 -26.5q0 -31 29.5 -54.5t97.5 -23.5q32 0 56 7.5t40.5 20t25 28.5t8.5 32q0 24 -18 38.5
t-56 14.5h-146zM261 494q70 0 109.5 -23t64.5 -59l45 82h69v-104h-79l-19 -12q3 -10 5 -20t2 -21q0 -37 -14.5 -65t-41.5 -49.5t-67.5 -38t-93.5 -30.5q-14 0 -28.5 1t-26.5 5l-33 -41q0 -19 13 -27t36 -8h185q65 0 101 -32t36 -83q0 -36 -21 -67t-58.5 -57t-88 -48.5
t-110.5 -41.5q-49 0 -91 7t-72.5 22t-48 38.5t-17.5 57.5v23l118 73q-52 14 -73 44t-21 68v20l106 64q-48 20 -76 58t-28 86q1 72 56.5 112t161.5 66z" />
    <glyph glyph-name="h" unicode="h" horiz-adv-x="615" 
d="M232 58l43 -12l-5 -47l-107 3l-124 -3l-5 47l58 12v578l-60 -2l-5 48l143 28l62 3v-313l151 94q44 0 73.5 -7.5t47.5 -26t26 -49t8 -76.5v-277l60 -12l-5 -47l-124 3l-109 -3l-5 47l40 12v274q0 30 -14 44.5t-38 14.5q-20 0 -43 -11.5t-45 -26.5l-23 -14v-281z" />
    <glyph glyph-name="i" unicode="i" horiz-adv-x="313" 
d="M164 2l-124 -3l-5 47l58 12v350l-58 -4l-5 47l142 28l61 3v-424l60 -12l-5 -47zM105 695l94 6l33 -6l7 -68l-14 -56l-93 -7l-33 7l-6 67z" />
    <glyph glyph-name="j" unicode="j" horiz-adv-x="298" 
d="M107 695l94 6l33 -6l7 -68l-14 -56l-93 -7l-33 7l-7 67zM83 -99q5 17 9 45.5t4 81.5v380l-58 -4l-5 47l142 28l61 3v-436q0 -37 -9 -66.5t-22.5 -53.5t-30 -42.5t-31.5 -33.5l-85 -85h-87v114h105z" />
    <glyph glyph-name="k" unicode="k" horiz-adv-x="592" 
d="M482 2l-67 -3l-164 223l-16 39v-203l40 -12l-5 -47l-114 3l-114 -3l-5 47l58 12v578l-60 -2l-5 48l143 28l62 3v-437l28 13l160 132l-53 12v47l102 -3l92 3l5 -47l-58 -12l-175 -137l33 -19l176 -207l42 -12l-8 -47z" />
    <glyph glyph-name="l" unicode="l" horiz-adv-x="307" 
d="M163 2l-124 -3l-5 47l58 12v578l-60 -2l-5 48l143 28l62 3v-655l60 -12l-5 -47z" />
    <glyph glyph-name="m" unicode="m" horiz-adv-x="905" 
d="M763 2l-112 -3l-6 47l39 12v274q0 60 -47 60q-20 0 -41 -11t-43 -25l-22 -16v-282l37 -12l-5 -47l-106 3l-100 -3l-5 47l36 12v274q0 30 -12.5 45t-34.5 15q-20 0 -40.5 -11t-42.5 -25l-23 -16v-282l39 -12l-5 -47l-110 3l-117 -3l-5 47l58 12v347l-60 -3l-5 48l137 29
l60 3l6 -82l137 94q73 0 109.5 -21t46.5 -75l143 96q45 0 75 -7.5t48.5 -26t26.5 -49t8 -76.5v-277l61 -12l-5 -47z" />
    <glyph glyph-name="n" unicode="n" horiz-adv-x="619" 
d="M166 2l-124 -3l-5 47l58 12v347l-60 -3l-5 48l143 29l60 3l2 -83l151 95q44 0 73.5 -7.5t47.5 -25t26 -47.5t8 -75v-281l61 -12l-5 -47l-124 3l-111 -3l-5 47l41 12v274q0 59 -53 59q-22 0 -44 -11.5t-43 -26.5l-23 -15v-280l43 -12l-5 -47z" />
    <glyph glyph-name="o" unicode="o" horiz-adv-x="549" 
d="M294 494q49 0 90.5 -17.5t71.5 -49t47 -76.5t17 -99q0 -62 -21 -107.5t-57 -77t-84.5 -51.5t-104.5 -31q-48 0 -89 17.5t-71 49.5t-47 76.5t-17 98.5q0 62 20.5 107.5t56.5 77t84 51.5t104 31zM177 271q0 -111 31.5 -169t75.5 -58q39 0 61.5 39.5t22.5 124.5
q0 58 -8.5 100.5t-23 70.5t-34 42t-41.5 14q-39 0 -61.5 -39.5t-22.5 -124.5z" />
    <glyph glyph-name="p" unicode="p" horiz-adv-x="570" 
d="M280 -15q-31 0 -62 13v-171l93 -11l-5 -47l-159 3l-122 -3l-5 47l58 11v580l-58 -4l-5 47l137 27l58 3l7 -81l132 95q38 0 73 -15.5t62 -44.5t43.5 -70.5t16.5 -92.5q0 -128 -66.5 -198t-197.5 -88zM396 226q0 45 -7.5 76.5t-19.5 51t-27.5 28.5t-32.5 9t-34 -10t-35 -24
l-22 -16v-258q31 -40 80 -40q43 0 70.5 47.5t27.5 135.5z" />
    <glyph glyph-name="q" unicode="q" horiz-adv-x="562" 
d="M275 87q16 0 29.5 6.5t22.5 11.5l32 22v260q-10 18 -26 29.5t-43 11.5q-52 0 -81.5 -46t-29.5 -127q0 -78 27.5 -123t68.5 -45zM467 488h32v-662l58 -10l-5 -47l-119 3l-162 -3l-5 47l93 10v245l-111 -86q-50 0 -89.5 17t-68 48.5t-43.5 75t-15 97.5q0 60 17.5 106.5
t49 79.5t76.5 54t100 31q44 0 82.5 -11.5t71.5 -28.5z" />
    <glyph glyph-name="r" unicode="r" horiz-adv-x="436" 
d="M226 327l106 162h92v-137h-101q-19 -8 -38 -25.5t-39 -40.5l-13 -15v-212l107 -12l-5 -48l-170 3l-125 -3l-5 47l59 12v347l-59 -3l-5 48l131 29l54 3z" />
    <glyph glyph-name="s" unicode="s" horiz-adv-x="448" 
d="M320 401q-11 11 -30 22t-46 11q-32 0 -50.5 -14t-18.5 -35q0 -22 16 -37t58 -35l74 -36q46 -22 70.5 -53.5t24.5 -78.5q0 -36 -13.5 -61t-39.5 -43.5t-64.5 -31.5t-88.5 -24q-35 0 -80 12t-80 27l-19 142h66l27 -77q18 -17 42 -29t48 -12q32 0 49.5 14.5t17.5 41.5
q0 23 -13 37.5t-49 32.5l-74 38q-43 22 -70.5 52t-27.5 76q0 27 10 49.5t33 41.5t61.5 34t95.5 29q63 0 99 -12.5t53 -23.5v-127h-58z" />
    <glyph glyph-name="t" unicode="t" horiz-adv-x="393" 
d="M5 406v18l39 40h53v69l92 74h45v-147h136v-54h-135v-268q0 -27 13.5 -44.5t37.5 -17.5q23 0 41 7t39 18l21 -45l-133 -71q-33 0 -62 6.5t-50.5 22.5t-34 42.5t-12.5 66.5v283h-90z" />
    <glyph glyph-name="u" unicode="u" horiz-adv-x="590" 
d="M509 134q0 -29 3.5 -44t9.5 -26h42l4 -47l-164 -28l-29 88l-140 -92q-46 0 -77 7.5t-49.5 25.5t-26.5 47.5t-8 73.5v266l-56 -5l-5 49l131 30l73 4v-329q0 -32 14 -48t46 -16q16 0 35 9t39 23l18 12v271l-52 -5l-5 49l124 30l73 4v-349z" />
    <glyph glyph-name="v" unicode="v" horiz-adv-x="560" 
d="M309 83l111 339l-47 12l5 46l93 -2l79 2l5 -46l-59 -12l-154 -409l-108 -28l-179 437l-50 12l5 46l133 -3l114 3l5 -46l-54 -12l93 -259z" />
    <glyph glyph-name="w" unicode="w" horiz-adv-x="870" 
d="M448 249l-6 70l-111 -305l-108 -29l-169 437l-49 12l5 46l128 -3l108 3l5 -46l-49 -12l87 -261l8 -77l104 286l-20 52l-42 12l5 46l120 -3l108 3l5 -46l-49 -12l88 -261l8 -77l112 338l-46 12l5 46l83 -3l82 3l5 -46l-58 -12l-150 -408l-108 -29z" />
    <glyph glyph-name="x" unicode="x" horiz-adv-x="578" 
d="M208 46l-5 -47l-102 3l-86 -3l-5 47l56 10l151 168l-145 199l-58 10l5 47l118 -3l137 3l5 -47l-40 -10l62 -90l8 -35l101 125l-37 10l5 47l89 -3l87 3l5 -47l-58 -10l-138 -154l160 -213l50 -10l-6 -47l-107 3l-140 -3l-5 47l42 10l-78 100l-12 34l-106 -134z" />
    <glyph glyph-name="y" unicode="y" horiz-adv-x="567" 
d="M87 -235v134h118l100 136l-89 -29l-161 417l-50 10l5 47l133 -3l114 3l5 -47l-54 -10l96 -260l12 -85l105 344l-47 10l5 48l93 -3l85 3l5 -48l-59 -10l-147 -397l-115 -260h-154z" />
    <glyph glyph-name="z" unicode="z" horiz-adv-x="495" 
d="M42 0l-16 36l249 365l41 30l-174 -9l-33 -98h-52v155h394l17 -34l-246 -365l-40 -31l181 10l50 113h57l-28 -172h-400z" />
    <glyph glyph-name="braceleft" unicode="{" horiz-adv-x="348" 
d="M44 269q24 8 37.5 19.5t20 26t7.5 32.5t1 38l-1 190q0 32 12.5 58t34 44t50 28t60.5 10h48v-47h-36q-13 0 -25 -5t-21 -17.5t-14 -32.5t-4 -50l6 -178q0 -17 -1.5 -34t-9 -32.5t-23 -30t-41.5 -26.5l75 -52l-6 -288q-1 -30 4 -50t14 -32.5t21 -17.5t25 -5h36v-47h-54
q-32 0 -59.5 10t-48 28t-32 44t-11.5 58l1 285l-66 60v14z" />
    <glyph glyph-name="bar" unicode="|" horiz-adv-x="287" 
d="M110 718h67v-963h-67v963z" />
    <glyph glyph-name="braceright" unicode="}" horiz-adv-x="343" 
d="M123 135q0 17 1.5 34t9 32.5t23 30t41.5 26.5l-76 52l7 253q1 30 -4 50t-14 32.5t-21 17.5t-25 5h-36v47h48q32 0 60.5 -10t50 -28t34 -44t12.5 -58l-1 -250l66 -60v-14q-24 -8 -37.5 -19.5t-20 -26t-7.5 -32.5t-1 -38l1 -225q0 -32 -11.5 -58t-32 -44t-48 -28t-59.5 -10
h-54v47h36q13 0 25 5t21 17.5t14 32.5t4 50l-6 213v0z" />
    <glyph glyph-name="asciitilde" unicode="~" horiz-adv-x="669" 
d="M572 317h47l-39 -91l-93 -34l-347 56l-43 -47h-47l37 86l98 39l344 -56z" />
    <glyph glyph-name="exclamdown" unicode="&#xa1;" horiz-adv-x="301" 
d="M90 79l19 162h83l19 -161l11 -314h-143zM218 343l-97 -8l-35 8l-7 70l7 62l97 6l35 -6l6 -72z" />
    <glyph glyph-name="cent" unicode="&#xa2;" horiz-adv-x="495" 
d="M470 77q-33 -27 -72.5 -48t-91.5 -38v-71h-74v70q-42 8 -77.5 27.5t-61 49t-39.5 69.5t-14 88t15 87t41 69t61.5 52.5t76.5 38.5v79h74v-56q48 -2 87 -15.5t64 -35.5v-127h-116l-22 103q-14 11 -38 11q-19 0 -36.5 -11t-30.5 -32t-20.5 -51.5t-7.5 -69.5q0 -38 11 -71
t31 -57t48.5 -38t64.5 -14q29 0 55 11t46 25l26 -45v0z" />
    <glyph glyph-name="sterling" unicode="&#xa3;" horiz-adv-x="585" 
d="M425 634q-11 11 -25 17.5t-38 6.5q-30 0 -47 -14t-25.5 -35.5t-11 -47t-2.5 -47.5v-138h150v-64h-150v-133q0 -36 -5 -59t-11.5 -36.5t-12 -19l-6.5 -6.5l197 3l47 93h60l-25 -155l-332 3l-138 -3l-5 35l88 45v233h-88v17l51 47h37v132q0 44 19 77.5t52 58t77.5 42
t95.5 29.5q53 0 86.5 -13t51.5 -36v-103h-74z" />
    <glyph glyph-name="currency" unicode="&#xa4;" 
d="M155 350q0 -32 12.5 -60.5t34 -50t50 -34t60.5 -12.5t60.5 12.5t50 34t34 50t12.5 60.5t-12.5 60.5t-34 50t-50 34t-60.5 12.5t-60.5 -12.5t-50 -34t-34 -50t-12.5 -60.5zM92 350q0 38 12 72.5t35 63.5l-60 60l46 46l61 -62q27 19 59 29.5t67 10.5t66.5 -10.5t58.5 -28.5
l59 59l47 -47l-58 -58q22 -28 34.5 -62.5t12.5 -72.5q0 -35 -10.5 -67t-29.5 -59l53 -52l-46 -46l-51 51q-29 -23 -63.5 -35t-72.5 -12t-72.5 12t-63.5 34l-54 -54l-47 47l56 56q-19 26 -29 58t-10 67z" />
    <glyph glyph-name="yen" unicode="&#xa5;" horiz-adv-x="696" 
d="M279 275l-192 368l-67 12l5 47l147 -3l147 3l5 -47l-73 -13l130 -273l6 -60l143 334l-75 12l5 47l110 -3l101 3l5 -46l-66 -12l-178 -369h141v-51h-144v-49h144v-51h-144v-65l109 -13l-5 -47l-177 3l-180 -3l-5 47l111 13v65h-138v51h138v49h-138v51h135z" />
    <glyph glyph-name="brokenbar" unicode="&#xa6;" horiz-adv-x="287" 
d="M110 718h67v-430h-67v430zM110 185h67v-430h-67v430z" />
    <glyph glyph-name="section" unicode="&#xa7;" horiz-adv-x="564" 
d="M40 248q0 30 9.5 53.5t25.5 41t35 30.5t39 22q-23 27 -40.5 57.5t-17.5 68.5q0 81 58.5 128t167.5 68q51 0 89 -13t56 -36v-109h-72l-13 73q-8 13 -25.5 22t-45.5 9q-34 0 -61.5 -22t-27.5 -69q0 -46 29 -84t92 -80l186 -120v-46q0 -41 -9 -73t-23.5 -56.5t-33.5 -42.5
t-38 -30q23 -25 36 -48t13 -55q0 -72 -52 -116t-167 -66q-27 0 -52 5t-46.5 12.5t-38.5 17.5t-27 20v115h72l13 -73q8 -12 29.5 -27.5t51.5 -15.5q42 0 67.5 23.5t25.5 65.5q0 24 -12 43.5t-31.5 36.5t-43 32t-47.5 31q-29 19 -59.5 41.5t-55.5 48t-40.5 54.5t-15.5 63z
M243 314q-15 11 -28 21t-29 24q-15 -11 -23.5 -27.5t-8.5 -39.5q0 -41 34.5 -74t102.5 -79l88 -59q15 17 26 41t11 61v15z" />
    <glyph glyph-name="dieresis" unicode="&#xa8;" horiz-adv-x="500" 
d="M103 701l73 6l30 -6l7 -57l-13 -50l-71 -6l-30 6l-6 59zM296 701l72 6l30 -6l7 -57l-12 -50l-72 -6l-30 6l-6 59z" />
    <glyph glyph-name="copyright" unicode="&#xa9;" horiz-adv-x="832" 
d="M415 37q58 0 111.5 20.5t94.5 60t65 96.5t24 130q0 82 -29 142t-73 99.5t-95 58.5t-96 19q-59 0 -112 -20.5t-94 -60t-65 -96.5t-24 -130q0 -82 29 -142t73 -99.5t95 -58.5t96 -19zM417 -15q-74 1 -140.5 26t-116.5 72.5t-80 116t-30 156.5q0 79 26 140.5t74 106
t115.5 72.5t149.5 40q73 -1 140 -26t117 -72.5t80 -116t30 -156.5q0 -79 -26 -140.5t-74 -106t-115.5 -72.5t-149.5 -40zM587 285l-10 -103q-27 -11 -64.5 -22.5t-85.5 -18.5q-42 0 -80.5 13t-68 38t-47 62.5t-17.5 85.5q0 51 16 88.5t46 63.5t72.5 42.5t96.5 24.5
q42 0 77 -12.5t57 -25.5v-98h-41l-18 55q-11 15 -31.5 28.5t-55.5 13.5q-52 0 -86.5 -42t-34.5 -120q0 -36 9 -68t25.5 -56.5t40 -38.5t52.5 -14q28 0 47 11t34 26l28 67h39z" />
    <glyph glyph-name="ordfeminine" unicode="&#xaa;" horiz-adv-x="452" 
d="M251 519l-84 -34q-9 -9 -13 -23.5t-4 -28.5q0 -29 12.5 -41t26.5 -12q13 0 23.5 5.5t17.5 10.5l21 14v109zM216 715q41 0 69 -6t45.5 -20t25 -37.5t7.5 -58.5v-154q0 -23 3 -35.5t8 -23.5h39l4 -37l-135 -27l-26 63l-91 -67q-55 0 -90 28.5t-35 77.5q0 26 10 45.5
t25 35.5l176 56v45q0 37 -9.5 50t-31.5 13q-12 0 -24.5 -3t-22.5 -8l-12 -78h-99v74z" />
    <glyph glyph-name="guillemotleft" unicode="&#xab;" horiz-adv-x="531" 
d="M416 15l-181 220l182 220h84l-127 -221l127 -219h-85zM196 15l-181 220l182 220h84l-127 -221l127 -219h-85z" />
    <glyph glyph-name="logicalnot" unicode="&#xac;" 
d="M567 180h-77v118h-438v77h515v-195z" />
    <glyph glyph-name="softhyphen" unicode="&#xad;" horiz-adv-x="365" 
d="M34 319h297v-68h-297v68z" />
    <glyph glyph-name="registered" unicode="&#xae;" horiz-adv-x="598" 
d="M298 215q41 0 78.5 14.5t66 42.5t45.5 68t17 91q0 58 -20.5 100t-51 69.5t-66.5 41t-67 13.5q-41 0 -78.5 -14.5t-66 -42.5t-45.5 -68t-17 -91q0 -57 20.5 -99.5t51 -70t66.5 -41t67 -13.5zM266 424v-97l29 -5l-2 -21l-60 2l-62 -2l-2 21l29 5v220l-29 4l2 22l61 -2l95 2
q35 0 60 -18t25 -50q0 -29 -26 -46t-64 -25l48 -20l57 -86l18 -6l-1 -21l-49 2l-34 -2l-75 119l-5 4h-15zM300 185q-51 0 -97.5 17.5t-81.5 50t-55.5 79.5t-20.5 107q0 54 18 96t51.5 72.5t80 50t103.5 27.5q51 0 97.5 -17.5t81.5 -49.5t55.5 -79.5t20.5 -107.5
q0 -54 -18 -96t-51.5 -72.5t-80 -50t-103.5 -27.5zM266 449h26q19 0 33 14t14 40q0 24 -13 36t-33 12l-27 -2v-100z" />
    <glyph glyph-name="macron" unicode="&#xaf;" horiz-adv-x="500" 
d="M104 682h292v-70h-292v70z" />
    <glyph glyph-name="degree" unicode="&#xb0;" horiz-adv-x="415" 
d="M117 594q0 -45 27 -71t64 -26q38 0 64.5 26t26.5 71t-26.5 72t-64.5 27q-37 0 -64 -27t-27 -72zM208 438q-36 0 -65 12.5t-49.5 34t-32 50.5t-11.5 61q0 65 39.5 101t118.5 56q36 0 65 -12.5t49.5 -34t31.5 -50t11 -60.5q0 -66 -37 -103t-120 -55z" />
    <glyph glyph-name="plusminus" unicode="&#xb1;" 
d="M269 134v215h-219v77h219v223h77v-223h219v-77h-219v-215h-77zM50 77h513v-77h-513v77z" />
    <glyph glyph-name="twosuperior" unicode="&#xb2;" horiz-adv-x="373" 
d="M85 449l83 25h165v-28l-21 -46h-277l-15 27l110 111q48 47 67.5 84t19.5 71q0 28 -10.5 44.5t-30.5 16.5q-11 0 -19.5 -2t-16.5 -4l-18 -75h-80v78l146 42q62 0 100 -28t38 -75q0 -51 -35.5 -90t-99.5 -82z" />
    <glyph glyph-name="threesuperior" unicode="&#xb3;" horiz-adv-x="338" 
d="M189 480q8 13 11 25.5t3 22.5q0 27 -19 44.5t-61 17.5l-6 25l19 8q26 11 39 28.5t13 46.5q0 26 -9.5 39.5t-26.5 13.5q-5 0 -12 -1t-12 -4l-17 -73h-81v78l147 42q33 0 54.5 -6t34 -16.5t18 -23.5t5.5 -28q0 -32 -23.5 -52.5t-72.5 -34.5q64 -5 92 -30t28 -57
q0 -24 -14.5 -41t-36.5 -30t-48 -23.5t-50 -22.5l-55 -28h-73v80h153z" />
    <glyph glyph-name="acute" unicode="&#xb4;" horiz-adv-x="500" 
d="M149 557l42 176h134l-114 -176h-62z" />
    <glyph glyph-name="uni00B5" unicode="&#xb5;" 
d="M494 479v-345q0 -25 4.5 -41t12.5 -26t20.5 -15.5t27.5 -9.5l-8 -42h-144l-48 73l-106 -88q-15 0 -31.5 2t-31.5 6.5t-27.5 12t-21.5 18.5v-60l72 -194h-152v709h140v-316q0 -38 16.5 -56.5t46.5 -18.5q16 0 34.5 10t38.5 23l17 12v346h140z" />
    <glyph glyph-name="paragraph" unicode="&#xb6;" horiz-adv-x="526" 
d="M189 380q-33 0 -62 10t-50.5 28.5t-34 45.5t-12.5 60q0 27 12.5 50t34 44t51 41t62.5 41h296v-56l-54 -10v-794h-74v794h-95v-794h-74v540z" />
    <glyph glyph-name="periodcentered" unicode="&#xb7;" horiz-adv-x="250" 
d="M61 465l91 8l35 -8l8 -67l-8 -59l-90 -6l-36 6l-6 69z" />
    <glyph glyph-name="cedilla" unicode="&#xb8;" horiz-adv-x="500" 
d="M282 26l37 -16l-38 -57q35 0 58 -17t23 -50q0 -25 -10 -43.5t-25.5 -32t-33.5 -22.5t-34 -15l-51 -19h-61l29 46h68q14 10 20.5 26.5t6.5 33.5t-6.5 28.5t-16 18.5t-21.5 10t-24 3z" />
    <glyph glyph-name="onesuperior" unicode="&#xb9;" horiz-adv-x="319" 
d="M124 727l-29 -20l-51 -7l-14 29l135 59h58v-347l81 -10l-3 -32l-129 2l-133 -2l-3 32l81 10v267z" />
    <glyph glyph-name="ordmasculine" unicode="&#xba;" horiz-adv-x="455" 
d="M242 715q38 0 70.5 -13.5t56.5 -38.5t37.5 -60t13.5 -78q0 -49 -16 -84.5t-44.5 -60t-66.5 -40t-82 -24.5q-38 0 -70 13.5t-55.5 38.5t-37 60t-13.5 78q0 49 16 84t44 60t66 40.5t81 24.5zM217 669q-31 0 -48.5 -31.5t-17.5 -97.5q0 -88 24.5 -133t59.5 -45
q31 0 48.5 31.5t17.5 97.5q0 91 -24.5 134.5t-59.5 43.5z" />
    <glyph glyph-name="guillemotright" unicode="&#xbb;" horiz-adv-x="531" 
d="M30 15l127 219l-127 221h84l182 -220l-181 -220h-85zM250 15l127 219l-127 221h84l182 -220l-181 -220h-85z" />
    <glyph glyph-name="onequarter" unicode="&#xbc;" horiz-adv-x="850" 
d="M269 -50h-70l387 760h68zM134 642l-29 -20l-51 -7l-14 29l135 59h58v-347l81 -10l-3 -32l-129 2l-133 -2l-3 32l81 10v267zM743 155h67v-67h-67v-88h-91v88h-144l-27 47l196 250h79v-38l-209 -205l31 13h74v49l72 57h19v-106z" />
    <glyph glyph-name="onehalf" unicode="&#xbd;" horiz-adv-x="859" 
d="M269 -50h-70l387 760h68zM134 642l-29 -20l-51 -7l-14 29l135 59h58v-347l81 -10l-3 -32l-129 2l-133 -2l-3 32l81 10v267zM571 49l82 25h166v-28l-22 -46h-277l-15 27l111 111q47 47 67 84t20 71q0 28 -11 44.5t-31 16.5q-11 0 -19.5 -2t-16.5 -4l-17 -75h-81v78l147 42
q61 0 99.5 -28t38.5 -75q0 -51 -35.5 -90t-99.5 -82z" />
    <glyph glyph-name="threequarters" unicode="&#xbe;" horiz-adv-x="848" 
d="M267 -50h-70l387 760h68zM741 155h67v-67h-67v-88h-91v88h-144l-27 47l196 250h79v-38l-209 -205l31 13h74v49l72 57h19v-106zM199 395q8 13 11 25.5t3 22.5q0 27 -19 44.5t-61 17.5l-6 25l19 8q26 11 39 28.5t13 46.5q0 26 -9.5 39.5t-26.5 13.5q-5 0 -12 -1t-12 -4
l-17 -73h-81v78l147 42q33 0 54.5 -6t34 -16.5t18 -23.5t5.5 -28q0 -32 -23.5 -52.5t-72.5 -34.5q64 -5 92 -30t28 -57q0 -24 -14.5 -41t-36.5 -30t-48 -23.5t-50 -22.5l-55 -28h-73v80h153z" />
    <glyph glyph-name="questiondown" unicode="&#xbf;" horiz-adv-x="422" 
d="M215 141l7 104h63l6 -136l-39 -22q-31 -17 -54 -56.5t-23 -87.5q0 -57 21 -89t63 -32l19 73h84v-119l-117 -11q-110 14 -167.5 62t-57.5 123q0 37 14.5 65.5t37.5 49.5t51.5 36t56.5 26zM319 342l-97 -7l-35 7l-7 70l7 62l97 6l35 -6l6 -71z" />
    <glyph glyph-name="Agrave" unicode="&#xc0;" horiz-adv-x="740" 
d="M323 769l-115 136h140l51 -136h-76zM205 226l-56 -167l78 -13l-5 -47l-109 3l-101 -3l-5 47l63 12l231 628l127 28l236 -657l69 -11l-5 -47l-178 3l-120 -3l-5 47l73 13l-57 167h-236zM333 544l-3 57l-106 -320h198z" />
    <glyph glyph-name="Aacute" unicode="&#xc1;" horiz-adv-x="740" 
d="M321 769l51 136h140l-115 -136h-76zM205 226l-56 -167l78 -13l-5 -47l-109 3l-101 -3l-5 47l63 12l231 628l127 28l236 -657l69 -11l-5 -47l-178 3l-120 -3l-5 47l73 13l-57 167h-236zM333 544l-3 57l-106 -320h198z" />
    <glyph glyph-name="Acircumflex" unicode="&#xc2;" horiz-adv-x="740" 
d="M201 769l115 136h96l115 -136h-82l-63 53l-18 23l-18 -23l-63 -53h-82zM205 226l-56 -167l78 -13l-5 -47l-109 3l-101 -3l-5 47l63 12l231 628l127 28l236 -657l69 -11l-5 -47l-178 3l-120 -3l-5 47l73 13l-57 167h-236zM333 544l-3 57l-106 -320h198z" />
    <glyph glyph-name="Atilde" unicode="&#xc3;" horiz-adv-x="740" 
d="M223 879l75 22l174 -50l32 50h34l-29 -112l-74 -19l-175 51l-31 -51h-34zM205 226l-56 -167l78 -13l-5 -47l-109 3l-101 -3l-5 47l63 12l231 628l127 28l236 -657l69 -11l-5 -47l-178 3l-120 -3l-5 47l73 13l-57 167h-236zM333 544l-3 57l-106 -320h198z" />
    <glyph glyph-name="Adieresis" unicode="&#xc4;" horiz-adv-x="740" 
d="M205 882l72 6l30 -6l7 -58l-12 -49l-71 -6l-31 6l-6 58zM437 882l72 6l31 -6l6 -58l-12 -49l-71 -6l-30 6l-7 58zM205 226l-56 -167l78 -13l-5 -47l-109 3l-101 -3l-5 47l63 12l231 628l127 28l236 -657l69 -11l-5 -47l-178 3l-120 -3l-5 47l73 13l-57 167h-236zM333 544
l-3 57l-106 -320h198z" />
    <glyph glyph-name="Aring" unicode="&#xc5;" horiz-adv-x="740" 
d="M477 840q0 -28 -9 -45.5t-25 -28.5t-36.5 -17.5t-42.5 -12.5q-21 0 -42 5t-37.5 17t-27 31.5t-10.5 48.5q0 26 10 43.5t26 29.5t36.5 19.5t42.5 13.5q23 0 44 -5.5t36.5 -17.5t25 -32t9.5 -49zM304 839q0 -26 16.5 -41.5t42.5 -15.5t42.5 15.5t16.5 41.5q0 25 -16.5 42
t-42.5 17t-42.5 -17t-16.5 -42zM205 226l-56 -167l78 -13l-5 -47l-109 3l-101 -3l-5 47l63 12l231 628l127 28l236 -657l69 -11l-5 -47l-178 3l-120 -3l-5 47l73 13l-57 167h-236zM333 544l-3 57l-106 -320h198z" />
    <glyph glyph-name="AE" unicode="&#xc6;" horiz-adv-x="1038" 
d="M514 362v285l-173 -285h173zM157 58l71 -13l-5 -45l-112 3l-101 -3l-5 45l66 11l418 645l97 -2l396 3l10 -183h-45l-60 121l-226 3v-277l111 4l40 107h44l-10 -137l10 -141h-44l-40 106l-111 4v-251l234 3l71 126h47l-36 -188l-398 2l-138 -2l-5 47l78 13v250h-203z" />
    <glyph glyph-name="Ccedilla" unicode="&#xc7;" horiz-adv-x="708" 
d="M352 -15q-65 7 -122.5 33t-101 70t-69 105.5t-25.5 140.5q0 88 28 154t80 112.5t127 75t168 42.5q37 0 70.5 -6.5t63.5 -16t55 -21.5t44 -23l1 -171h-70l-32 98q-10 13 -24 26.5t-32.5 24t-42.5 17t-55 6.5q-47 0 -86 -19t-68 -56t-45 -90.5t-16 -122.5q0 -64 15.5 -121
t45 -100t71.5 -68.5t95 -25.5q49 0 82 20.5t60 46.5l49 117h67l-20 -179q-46 -20 -111.5 -40t-148.5 -32h-5l-24 -29q35 0 58 -17t23 -50q0 -25 -10 -43.5t-25.5 -32t-33.5 -22.5t-34 -15l-51 -19h-61l29 46h68q14 10 20.5 26.5t6.5 33.5t-6.5 28.5t-16 18.5t-21.5 10t-24 3
z" />
    <glyph glyph-name="Egrave" unicode="&#xc8;" horiz-adv-x="646" 
d="M308 769l-115 136h140l51 -136h-76zM595 701l11 -192h-52l-59 130l-234 3v-246l116 4l40 107h50l-10 -137l10 -141h-50l-40 106l-116 4v-281l245 3l68 135h53l-33 -197l-421 3l-138 -3l-5 47l78 13v583l-78 13l5 46l138 -3z" />
    <glyph glyph-name="Eacute" unicode="&#xc9;" horiz-adv-x="646" 
d="M286 769l51 136h140l-115 -136h-76zM595 701l11 -192h-52l-59 130l-234 3v-246l116 4l40 107h50l-10 -137l10 -141h-50l-40 106l-116 4v-281l245 3l68 135h53l-33 -197l-421 3l-138 -3l-5 47l78 13v583l-78 13l5 46l138 -3z" />
    <glyph glyph-name="Ecircumflex" unicode="&#xca;" horiz-adv-x="646" 
d="M172 769l114 136h96l115 -136h-82l-63 53l-18 23l-17 -23l-63 -53h-82zM595 701l11 -192h-52l-59 130l-234 3v-246l116 4l40 107h50l-10 -137l10 -141h-50l-40 106l-116 4v-281l245 3l68 135h53l-33 -197l-421 3l-138 -3l-5 47l78 13v583l-78 13l5 46l138 -3z" />
    <glyph glyph-name="Edieresis" unicode="&#xcb;" horiz-adv-x="646" 
d="M175 882l72 6l30 -6l7 -58l-13 -49l-71 -6l-30 6l-6 58zM407 882l72 6l31 -6l6 -58l-12 -49l-72 -6l-29 6l-7 58zM595 701l11 -192h-52l-59 130l-234 3v-246l116 4l40 107h50l-10 -137l10 -141h-50l-40 106l-116 4v-281l245 3l68 135h53l-33 -197l-421 3l-138 -3l-5 47
l78 13v583l-78 13l5 46l138 -3z" />
    <glyph glyph-name="Igrave" unicode="&#xcc;" horiz-adv-x="371" 
d="M157 769l-115 136h140l51 -136h-76zM187 2l-150 -3l-5 47l78 13v583l-78 13l5 46l150 -3l149 3l5 -46l-78 -13v-583l78 -13l-5 -47z" />
    <glyph glyph-name="Iacute" unicode="&#xcd;" horiz-adv-x="371" 
d="M147 769l51 136h140l-115 -136h-76zM187 2l-150 -3l-5 47l78 13v583l-78 13l5 46l150 -3l149 3l5 -46l-78 -13v-583l78 -13l-5 -47z" />
    <glyph glyph-name="Icircumflex" unicode="&#xce;" horiz-adv-x="371" 
d="M24 769l115 136h96l114 -136h-82l-63 53l-17 23l-18 -23l-63 -53h-82zM187 2l-150 -3l-5 47l78 13v583l-78 13l5 46l150 -3l149 3l5 -46l-78 -13v-583l78 -13l-5 -47z" />
    <glyph glyph-name="Idieresis" unicode="&#xcf;" horiz-adv-x="371" 
d="M37 882l73 6l29 -6l7 -58l-12 -49l-71 -6l-31 6l-6 58zM238 882l72 6l30 -6l6 -58l-12 -49l-71 -6l-30 6l-7 58zM187 2l-150 -3l-5 47l78 13v583l-78 13l5 46l150 -3l149 3l5 -46l-78 -13v-583l78 -13l-5 -47z" />
    <glyph glyph-name="Eth" unicode="&#xd0;" horiz-adv-x="761" 
d="M161 698l224 3q79 1 142.5 -20.5t108 -64t68 -104.5t23.5 -143q0 -75 -20.5 -138.5t-63 -112t-108 -79.5t-155.5 -40l-222 3l-123 -3l-5 47l78 13v278h-71v52h71v253l-78 13l5 46zM261 645v-256h110v-52h-110v-278l105 -8q46 -2 82.5 21.5t62 65t39 98t13.5 119.5
q0 65 -15 120t-43.5 94.5t-70 61t-94.5 19.5z" />
    <glyph glyph-name="Ntilde" unicode="&#xd1;" horiz-adv-x="739" 
d="M243 879l75 22l174 -50l32 50h34l-29 -112l-74 -19l-175 51l-31 -51h-34zM185 59l74 -13l-3 -47l-109 3l-112 -3l-5 47l78 13v580l-76 16l5 46l82 -3l106 3l322 -412l27 -86v439l-74 13l3 46l109 -3l112 3l5 -46l-78 -13v-645h-75l-368 489l-23 92v-519z" />
    <glyph glyph-name="Ograve" unicode="&#xd2;" horiz-adv-x="807" 
d="M379 769l-115 136h140l51 -136h-76zM415 718q82 0 148 -26.5t112.5 -73.5t72 -111t25.5 -139q0 -84 -21 -147.5t-67 -110t-118.5 -78t-174.5 -50.5q-82 0 -148 26.5t-112.5 73.5t-72 111t-25.5 139q0 84 21 147.5t67 110t118.5 78t174.5 50.5zM200 367q0 -57 12.5 -114
t39 -102t67.5 -73.5t98 -28.5q50 0 86 21t59 59t34 90t11 114q0 56 -12 112.5t-38.5 102.5t-67 74.5t-97.5 28.5q-50 0 -86 -21t-59.5 -58.5t-35 -90t-11.5 -114.5z" />
    <glyph glyph-name="Oacute" unicode="&#xd3;" horiz-adv-x="807" 
d="M365 769l51 136h140l-115 -136h-76zM415 718q82 0 148 -26.5t112.5 -73.5t72 -111t25.5 -139q0 -84 -21 -147.5t-67 -110t-118.5 -78t-174.5 -50.5q-82 0 -148 26.5t-112.5 73.5t-72 111t-25.5 139q0 84 21 147.5t67 110t118.5 78t174.5 50.5zM200 367q0 -57 12.5 -114
t39 -102t67.5 -73.5t98 -28.5q50 0 86 21t59 59t34 90t11 114q0 56 -12 112.5t-38.5 102.5t-67 74.5t-97.5 28.5q-50 0 -86 -21t-59.5 -58.5t-35 -90t-11.5 -114.5z" />
    <glyph glyph-name="Ocircumflex" unicode="&#xd4;" horiz-adv-x="807" 
d="M251 769l114 136h96l115 -136h-82l-63 53l-18 23l-17 -23l-63 -53h-82zM415 718q82 0 148 -26.5t112.5 -73.5t72 -111t25.5 -139q0 -84 -21 -147.5t-67 -110t-118.5 -78t-174.5 -50.5q-82 0 -148 26.5t-112.5 73.5t-72 111t-25.5 139q0 84 21 147.5t67 110t118.5 78
t174.5 50.5zM200 367q0 -57 12.5 -114t39 -102t67.5 -73.5t98 -28.5q50 0 86 21t59 59t34 90t11 114q0 56 -12 112.5t-38.5 102.5t-67 74.5t-97.5 28.5q-50 0 -86 -21t-59.5 -58.5t-35 -90t-11.5 -114.5z" />
    <glyph glyph-name="Otilde" unicode="&#xd5;" horiz-adv-x="807" 
d="M274 879l75 22l174 -50l32 50h34l-29 -112l-74 -19l-175 51l-31 -51h-34zM415 718q82 0 148 -26.5t112.5 -73.5t72 -111t25.5 -139q0 -84 -21 -147.5t-67 -110t-118.5 -78t-174.5 -50.5q-82 0 -148 26.5t-112.5 73.5t-72 111t-25.5 139q0 84 21 147.5t67 110t118.5 78
t174.5 50.5zM200 367q0 -57 12.5 -114t39 -102t67.5 -73.5t98 -28.5q50 0 86 21t59 59t34 90t11 114q0 56 -12 112.5t-38.5 102.5t-67 74.5t-97.5 28.5q-50 0 -86 -21t-59.5 -58.5t-35 -90t-11.5 -114.5z" />
    <glyph glyph-name="Odieresis" unicode="&#xd6;" horiz-adv-x="807" 
d="M245 882l72 6l30 -6l7 -58l-13 -49l-71 -6l-30 6l-6 58zM477 882l72 6l31 -6l6 -58l-12 -49l-72 -6l-29 6l-7 58zM415 718q82 0 148 -26.5t112.5 -73.5t72 -111t25.5 -139q0 -84 -21 -147.5t-67 -110t-118.5 -78t-174.5 -50.5q-82 0 -148 26.5t-112.5 73.5t-72 111
t-25.5 139q0 84 21 147.5t67 110t118.5 78t174.5 50.5zM200 367q0 -57 12.5 -114t39 -102t67.5 -73.5t98 -28.5q50 0 86 21t59 59t34 90t11 114q0 56 -12 112.5t-38.5 102.5t-67 74.5t-97.5 28.5q-50 0 -86 -21t-59.5 -58.5t-35 -90t-11.5 -114.5z" />
    <glyph glyph-name="multiply" unicode="&#xd7;" 
d="M467 6l-157 157l-157 -158l-55 55l158 157l-160 160l55 54l159 -159l158 158l55 -55l-158 -158l156 -156z" />
    <glyph glyph-name="Oslash" unicode="&#xd8;" horiz-adv-x="807" 
d="M415 718q60 0 112 -15t94 -42l45 54h74l-73 -89q51 -48 78.5 -114t27.5 -144q0 -84 -21 -147.5t-67 -110t-118.5 -78t-174.5 -50.5q-62 0 -114 15t-94 42l-45 -54h-76l75 91q-50 48 -77 113t-27 143q0 84 21 147.5t67 110t118.5 78t174.5 50.5zM607 333q0 46 -8.5 92
t-25.5 88l-311 -379q26 -38 64.5 -61.5t90.5 -23.5q50 0 86 21t59 59t34 90t11 114zM200 367q0 -46 7.5 -91.5t24.5 -85.5l312 377q-26 38 -63.5 61t-88.5 23q-50 0 -86 -21t-59.5 -58.5t-35 -90t-11.5 -114.5z" />
    <glyph glyph-name="Ugrave" unicode="&#xd9;" horiz-adv-x="746" 
d="M365 769l-115 136h140l51 -136h-76zM482 655l5 46l128 -3l114 3l5 -46l-79 -13v-390q0 -50 -11.5 -91.5t-40.5 -75.5t-77.5 -59.5t-123.5 -43.5q-85 0 -143.5 19t-94.5 54t-52 84t-16 109v394l-78 13l5 46l135 -3l161 3l5 -46l-73 -13v-394q0 -90 39 -140t119 -50
q77 0 117 50.5t40 141.5v392z" />
    <glyph glyph-name="Uacute" unicode="&#xda;" horiz-adv-x="746" 
d="M351 769l51 136h140l-115 -136h-76zM482 655l5 46l128 -3l114 3l5 -46l-79 -13v-390q0 -50 -11.5 -91.5t-40.5 -75.5t-77.5 -59.5t-123.5 -43.5q-85 0 -143.5 19t-94.5 54t-52 84t-16 109v394l-78 13l5 46l135 -3l161 3l5 -46l-73 -13v-394q0 -90 39 -140t119 -50
q77 0 117 50.5t40 141.5v392z" />
    <glyph glyph-name="Ucircumflex" unicode="&#xdb;" horiz-adv-x="746" 
d="M482 769l-63 53l-17 23l-18 -23l-63 -53h-82l115 136h96l114 -136h-82zM482 655l5 46l128 -3l114 3l5 -46l-79 -13v-390q0 -50 -11.5 -91.5t-40.5 -75.5t-77.5 -59.5t-123.5 -43.5q-85 0 -143.5 19t-94.5 54t-52 84t-16 109v394l-78 13l5 46l135 -3l161 3l5 -46l-73 -13
v-394q0 -90 39 -140t119 -50q77 0 117 50.5t40 141.5v392z" />
    <glyph glyph-name="Udieresis" unicode="&#xdc;" horiz-adv-x="746" 
d="M237 882l73 6l30 -6l6 -58l-12 -49l-71 -6l-30 6l-7 58zM470 882l72 6l30 -6l6 -58l-11 -49l-72 -6l-30 6l-7 58zM482 655l5 46l128 -3l114 3l5 -46l-79 -13v-390q0 -50 -11.5 -91.5t-40.5 -75.5t-77.5 -59.5t-123.5 -43.5q-85 0 -143.5 19t-94.5 54t-52 84t-16 109v394
l-78 13l5 46l135 -3l161 3l5 -46l-73 -13v-394q0 -90 39 -140t119 -50q77 0 117 50.5t40 141.5v392z" />
    <glyph glyph-name="Yacute" unicode="&#xdd;" horiz-adv-x="724" 
d="M357 769l51 136h140l-115 -136h-76zM441 275v-216l109 -13l-5 -47l-180 3l-183 -3l-5 47l111 13v217l-216 367l-67 12l5 46l147 -3l147 3l5 -46l-73 -13l161 -270l1 -49l175 319l-75 13l5 46l110 -3l101 3l5 -46l-66 -12z" />
    <glyph glyph-name="Thorn" unicode="&#xde;" horiz-adv-x="585" 
d="M15 654l5 47l150 -3l177 3l5 -47l-106 -13v-82l149 2q45 0 83.5 -11.5t67.5 -34t45.5 -56.5t16.5 -78q0 -50 -23.5 -86t-62 -62.5t-87 -44.5t-97.5 -32h-92v-97l118 -13l-5 -47l-189 3l-150 -3l-5 47l78 13v582zM246 218h68q26 0 50 10t42 29.5t28.5 47.5t10.5 64
q0 66 -37.5 104t-96.5 38l-65 -7v-286z" />
    <glyph glyph-name="germandbls" unicode="&#xdf;" horiz-adv-x="662" 
d="M413 409q0 -29 15 -49t58 -43l69 -37q42 -23 64.5 -53.5t22.5 -73.5q0 -35 -13 -60.5t-38.5 -45.5t-62 -35.5t-82.5 -29.5q-38 0 -75 13t-67 29l-8 120h56l24 -69q13 -12 29 -21t36 -9q29 0 49 16.5t20 46.5q0 22 -12 43t-43 42l-67 41q-46 28 -64.5 64.5t-18.5 93.5
l68 45q29 18 45.5 51t16.5 81q0 18 -5.5 34.5t-16.5 29t-26.5 20.5t-36.5 8q-54 0 -77.5 -44t-23.5 -120v-498l-93 3l-103 -3l-5 45l58 10v349h-81v22l35 41h46v32q0 24 8 48.5t26 48t46 45t68 39.5l88 39q52 0 96 -9.5t75.5 -27.5t49 -44.5t17.5 -60.5q0 -30 -12.5 -54
t-34.5 -44t-52.5 -37t-67.5 -32z" />
    <glyph glyph-name="agrave" unicode="&#xe0;" horiz-adv-x="513" 
d="M256 557l-115 176h134l43 -176h-62zM297 247l-105 -43q-12 -12 -17.5 -30.5t-5.5 -35.5q0 -36 16.5 -52t34.5 -16q15 0 28 7t23 13l26 18v139zM253 494q52 0 88 -7.5t58 -25.5t31.5 -47.5t9.5 -73.5v-194q0 -30 3 -46t10 -29h48l7 -47l-173 -35l-32 80l-115 -84
q-35 0 -64 9.5t-50 27t-32.5 42t-11.5 55.5q0 32 12.5 57t32.5 45l222 71v57q0 46 -12.5 62.5t-38.5 16.5q-17 0 -32.5 -4t-28.5 -11l-15 -98h-125v94z" />
    <glyph glyph-name="aacute" unicode="&#xe1;" horiz-adv-x="513" 
d="M225 557l43 176h134l-115 -176h-62zM297 247l-105 -43q-12 -12 -17.5 -30.5t-5.5 -35.5q0 -36 16.5 -52t34.5 -16q15 0 28 7t23 13l26 18v139zM253 494q52 0 88 -7.5t58 -25.5t31.5 -47.5t9.5 -73.5v-194q0 -30 3 -46t10 -29h48l7 -47l-173 -35l-32 80l-115 -84
q-35 0 -64 9.5t-50 27t-32.5 42t-11.5 55.5q0 32 12.5 57t32.5 45l222 71v57q0 46 -12.5 62.5t-38.5 16.5q-17 0 -32.5 -4t-28.5 -11l-15 -98h-125v94z" />
    <glyph glyph-name="acircumflex" unicode="&#xe2;" horiz-adv-x="513" 
d="M111 557l112 176h71l112 -176h-62l-68 76l-18 26l-17 -26l-68 -76h-62zM297 247l-105 -43q-12 -12 -17.5 -30.5t-5.5 -35.5q0 -36 16.5 -52t34.5 -16q15 0 28 7t23 13l26 18v139zM253 494q52 0 88 -7.5t58 -25.5t31.5 -47.5t9.5 -73.5v-194q0 -30 3 -46t10 -29h48l7 -47
l-173 -35l-32 80l-115 -84q-35 0 -64 9.5t-50 27t-32.5 42t-11.5 55.5q0 32 12.5 57t32.5 45l222 71v57q0 46 -12.5 62.5t-38.5 16.5q-17 0 -32.5 -4t-28.5 -11l-15 -98h-125v94z" />
    <glyph glyph-name="atilde" unicode="&#xe3;" horiz-adv-x="513" 
d="M116 694l75 22l175 -53l29 51h36l-29 -114l-74 -17l-176 53l-28 -51h-36zM297 247l-105 -43q-12 -12 -17.5 -30.5t-5.5 -35.5q0 -36 16.5 -52t34.5 -16q15 0 28 7t23 13l26 18v139zM253 494q52 0 88 -7.5t58 -25.5t31.5 -47.5t9.5 -73.5v-194q0 -30 3 -46t10 -29h48
l7 -47l-173 -35l-32 80l-115 -84q-35 0 -64 9.5t-50 27t-32.5 42t-11.5 55.5q0 32 12.5 57t32.5 45l222 71v57q0 46 -12.5 62.5t-38.5 16.5q-17 0 -32.5 -4t-28.5 -11l-15 -98h-125v94z" />
    <glyph glyph-name="adieresis" unicode="&#xe4;" horiz-adv-x="513" 
d="M116 701l73 6l30 -6l7 -57l-13 -50l-71 -6l-30 6l-6 59zM309 701l72 6l30 -6l7 -57l-12 -50l-72 -6l-30 6l-6 59zM297 247l-105 -43q-12 -12 -17.5 -30.5t-5.5 -35.5q0 -36 16.5 -52t34.5 -16q15 0 28 7t23 13l26 18v139zM253 494q52 0 88 -7.5t58 -25.5t31.5 -47.5
t9.5 -73.5v-194q0 -30 3 -46t10 -29h48l7 -47l-173 -35l-32 80l-115 -84q-35 0 -64 9.5t-50 27t-32.5 42t-11.5 55.5q0 32 12.5 57t32.5 45l222 71v57q0 46 -12.5 62.5t-38.5 16.5q-17 0 -32.5 -4t-28.5 -11l-15 -98h-125v94z" />
    <glyph glyph-name="aring" unicode="&#xe5;" horiz-adv-x="513" 
d="M378 650q0 -28 -9 -45.5t-25 -28.5t-36.5 -17.5t-42.5 -12.5q-21 0 -42 5t-37.5 17t-27 31.5t-10.5 48.5q0 26 9.5 43.5t25.5 29.5t37 19.5t43 13.5q23 0 44 -5.5t36.5 -17.5t25 -32t9.5 -49zM204 649q0 -26 16.5 -41.5t42.5 -15.5t43 15.5t17 41.5q0 25 -17 42t-43 17
t-42.5 -17t-16.5 -42zM297 247l-105 -43q-12 -12 -17.5 -30.5t-5.5 -35.5q0 -36 16.5 -52t34.5 -16q15 0 28 7t23 13l26 18v139zM253 494q52 0 88 -7.5t58 -25.5t31.5 -47.5t9.5 -73.5v-194q0 -30 3 -46t10 -29h48l7 -47l-173 -35l-32 80l-115 -84q-35 0 -64 9.5t-50 27
t-32.5 42t-11.5 55.5q0 32 12.5 57t32.5 45l222 71v57q0 46 -12.5 62.5t-38.5 16.5q-17 0 -32.5 -4t-28.5 -11l-15 -98h-125v94z" />
    <glyph glyph-name="ae" unicode="&#xe6;" horiz-adv-x="744" 
d="M422 248q0 -75 40 -120t109 -45q37 0 68 12t52 26l24 -44q-37 -29 -81 -52t-101 -40q-65 0 -118 24.5t-86 72.5l-141 -97q-34 0 -63 9.5t-50 26.5t-33 41.5t-12 54.5q0 35 12.5 59.5t32.5 44.5l219 70v58q0 45 -9.5 62t-33.5 17q-19 0 -36.5 -4.5t-31.5 -10.5l-14 -88
h-121v84l198 85q62 0 101.5 -10.5t60.5 -37.5q48 30 117 48q52 0 88 -16.5t58 -44t31.5 -64t9.5 -75.5v-46h-290zM583 308q0 59 -15 89.5t-57 30.5t-64.5 -37t-24.5 -92zM293 241l-101 -42q-11 -11 -17 -28t-6 -35q0 -32 15.5 -46.5t34.5 -14.5q14 0 27.5 7.5t22.5 13.5
l24 17v128z" />
    <glyph glyph-name="ccedilla" unicode="&#xe7;" horiz-adv-x="480" 
d="M306 419q-8 6 -15.5 8.5t-20.5 2.5q-37 0 -64 -43t-27 -121q0 -38 10.5 -71t30 -57t47 -38t62.5 -14q29 0 54.5 11t45.5 25l26 -45q-37 -29 -80 -52t-102 -40h-3l-21 -32q35 0 57 -17t22 -50q0 -25 -10 -43.5t-25.5 -32t-33.5 -22.5t-34 -15l-51 -19h-61l29 46h68
q14 10 20.5 26.5t6.5 33.5t-6 28.5t-15.5 18.5t-21 10t-23.5 3l51 69q-43 7 -78 26.5t-60 50t-39 70.5t-14 88q0 58 20.5 102t55 77t81 55t98.5 36q50 0 91 -14t67 -37v-127h-116z" />
    <glyph glyph-name="egrave" unicode="&#xe8;" horiz-adv-x="492" 
d="M246 557l-114 176h134l42 -176h-62zM173 248q1 -35 11 -64.5t28.5 -51.5t44 -34t58.5 -12q35 0 69 13t56 27l22 -45q-41 -34 -85.5 -55.5t-104.5 -40.5q-52 0 -96.5 17t-77 48t-51 75.5t-18.5 98.5q0 45 12 86.5t39.5 76t73.5 62t115 45.5q52 0 89 -15t60.5 -41.5
t34 -61.5t10.5 -74v-54h-290zM323 305q0 57 -14.5 91.5t-55.5 34.5q-36 0 -57 -36t-24 -99z" />
    <glyph glyph-name="eacute" unicode="&#xe9;" horiz-adv-x="492" 
d="M248 557l42 176h134l-114 -176h-62zM173 248q1 -35 11 -64.5t28.5 -51.5t44 -34t58.5 -12q35 0 69 13t56 27l22 -45q-41 -34 -85.5 -55.5t-104.5 -40.5q-52 0 -96.5 17t-77 48t-51 75.5t-18.5 98.5q0 45 12 86.5t39.5 76t73.5 62t115 45.5q52 0 89 -15t60.5 -41.5
t34 -61.5t10.5 -74v-54h-290zM323 305q0 57 -14.5 91.5t-55.5 34.5q-36 0 -57 -36t-24 -99z" />
    <glyph glyph-name="ecircumflex" unicode="&#xea;" horiz-adv-x="492" 
d="M121 557l112 176h71l112 -176h-62l-68 76l-17 26l-18 -26l-68 -76h-62zM173 248q1 -35 11 -64.5t28.5 -51.5t44 -34t58.5 -12q35 0 69 13t56 27l22 -45q-41 -34 -85.5 -55.5t-104.5 -40.5q-52 0 -96.5 17t-77 48t-51 75.5t-18.5 98.5q0 45 12 86.5t39.5 76t73.5 62
t115 45.5q52 0 89 -15t60.5 -41.5t34 -61.5t10.5 -74v-54h-290zM323 305q0 57 -14.5 91.5t-55.5 34.5q-36 0 -57 -36t-24 -99z" />
    <glyph glyph-name="edieresis" unicode="&#xeb;" horiz-adv-x="492" 
d="M122 701l73 6l30 -6l6 -57l-12 -50l-71 -6l-30 6l-7 59zM315 701l72 6l30 -6l6 -57l-11 -50l-72 -6l-30 6l-7 59zM173 248q1 -35 11 -64.5t28.5 -51.5t44 -34t58.5 -12q35 0 69 13t56 27l22 -45q-41 -34 -85.5 -55.5t-104.5 -40.5q-52 0 -96.5 17t-77 48t-51 75.5
t-18.5 98.5q0 45 12 86.5t39.5 76t73.5 62t115 45.5q52 0 89 -15t60.5 -41.5t34 -61.5t10.5 -74v-54h-290zM323 305q0 57 -14.5 91.5t-55.5 34.5q-36 0 -57 -36t-24 -99z" />
    <glyph glyph-name="igrave" unicode="&#xec;" horiz-adv-x="313" 
d="M149 557l-115 176h134l43 -176h-62zM164 2l-124 -3l-5 48l58 11v350l-58 -3l-5 47l142 27l61 4v-425l60 -11l-5 -48z" />
    <glyph glyph-name="iacute" unicode="&#xed;" horiz-adv-x="313" 
d="M126 557l42 176h134l-114 -176h-62zM164 2l-124 -3l-5 48l58 11v350l-58 -3l-5 47l142 27l61 4v-425l60 -11l-5 -48z" />
    <glyph glyph-name="icircumflex" unicode="&#xee;" horiz-adv-x="313" 
d="M12 557l112 176h71l112 -176h-62l-68 76l-17 26l-18 -26l-68 -76h-62zM164 2l-124 -3l-5 48l58 11v350l-58 -3l-5 47l142 27l61 4v-425l60 -11l-5 -48z" />
    <glyph glyph-name="idieresis" unicode="&#xef;" horiz-adv-x="311" 
d="M12 701l73 6l30 -6l6 -57l-12 -50l-71 -6l-30 6l-7 59zM205 701l72 6l30 -6l6 -57l-11 -50l-72 -6l-30 6l-7 59zM162 2l-124 -3l-5 48l58 11v350l-58 -3l-5 47l142 27l61 4v-425l60 -11l-5 -48z" />
    <glyph glyph-name="eth" unicode="&#xf0;" horiz-adv-x="557" 
d="M433 651l-66 -32q83 -69 119 -163t36 -211q0 -62 -21 -107.5t-57.5 -76.5t-85 -49.5t-102.5 -26.5q-48 0 -89 16.5t-70 47.5t-45.5 74.5t-16.5 96.5q0 60 21 103t57.5 72t85 46t102.5 25l85 -40q-11 43 -36 83.5t-60 72.5l-109 -54v55l66 32q-2 1 -11 7t-21.5 14.5
t-26.5 17t-25 14.5l28 52q58 -24 88 -40t46 -26l108 52v-55zM181 262q0 -109 30.5 -163.5t76.5 -54.5q39 0 62.5 33.5t23.5 111.5q0 109 -30.5 163.5t-76.5 54.5q-39 0 -62.5 -33.5t-23.5 -111.5z" />
    <glyph glyph-name="ntilde" unicode="&#xf1;" horiz-adv-x="619" 
d="M174 694l75 22l175 -53l29 51h36l-29 -114l-74 -17l-176 53l-28 -51h-36zM166 2l-124 -3l-5 47l58 12v347l-60 -3l-5 48l143 29l60 3l2 -83l151 95q44 0 73.5 -7.5t47.5 -25t26 -47.5t8 -75v-281l61 -12l-5 -47l-124 3l-111 -3l-5 47l41 12v274q0 59 -53 59
q-22 0 -44 -11.5t-43 -26.5l-23 -15v-280l43 -12l-5 -47z" />
    <glyph glyph-name="ograve" unicode="&#xf2;" horiz-adv-x="550" 
d="M265 557l-115 176h134l43 -176h-62zM294 494q49 0 90.5 -17.5t71.5 -49t47 -76.5t17 -99q0 -62 -21 -107.5t-57 -77t-84.5 -51.5t-104.5 -31q-48 0 -89 17.5t-71 49.5t-47 76.5t-17 98.5q0 62 20.5 107.5t56.5 77t84 51.5t104 31zM177 271q0 -111 31.5 -169t75.5 -58
q39 0 61.5 39.5t22.5 124.5q0 58 -8.5 100.5t-23 70.5t-34 42t-41.5 14q-39 0 -61.5 -39.5t-22.5 -124.5z" />
    <glyph glyph-name="oacute" unicode="&#xf3;" horiz-adv-x="550" 
d="M250 557l43 176h134l-115 -176h-62zM294 494q49 0 90.5 -17.5t71.5 -49t47 -76.5t17 -99q0 -62 -21 -107.5t-57 -77t-84.5 -51.5t-104.5 -31q-48 0 -89 17.5t-71 49.5t-47 76.5t-17 98.5q0 62 20.5 107.5t56.5 77t84 51.5t104 31zM177 271q0 -111 31.5 -169t75.5 -58
q39 0 61.5 39.5t22.5 124.5q0 58 -8.5 100.5t-23 70.5t-34 42t-41.5 14q-39 0 -61.5 -39.5t-22.5 -124.5z" />
    <glyph glyph-name="ocircumflex" unicode="&#xf4;" horiz-adv-x="550" 
d="M134 557l111 176h72l112 -176h-62l-68 76l-18 26l-17 -26l-68 -76h-62zM294 494q49 0 90.5 -17.5t71.5 -49t47 -76.5t17 -99q0 -62 -21 -107.5t-57 -77t-84.5 -51.5t-104.5 -31q-48 0 -89 17.5t-71 49.5t-47 76.5t-17 98.5q0 62 20.5 107.5t56.5 77t84 51.5t104 31z
M177 271q0 -111 31.5 -169t75.5 -58q39 0 61.5 39.5t22.5 124.5q0 58 -8.5 100.5t-23 70.5t-34 42t-41.5 14q-39 0 -61.5 -39.5t-22.5 -124.5z" />
    <glyph glyph-name="otilde" unicode="&#xf5;" horiz-adv-x="550" 
d="M139 694l75 22l175 -53l29 51h36l-30 -114l-74 -17l-176 53l-28 -51h-36zM294 494q49 0 90.5 -17.5t71.5 -49t47 -76.5t17 -99q0 -62 -21 -107.5t-57 -77t-84.5 -51.5t-104.5 -31q-48 0 -89 17.5t-71 49.5t-47 76.5t-17 98.5q0 62 20.5 107.5t56.5 77t84 51.5t104 31z
M177 271q0 -111 31.5 -169t75.5 -58q39 0 61.5 39.5t22.5 124.5q0 58 -8.5 100.5t-23 70.5t-34 42t-41.5 14q-39 0 -61.5 -39.5t-22.5 -124.5z" />
    <glyph glyph-name="odieresis" unicode="&#xf6;" horiz-adv-x="550" 
d="M134 701l73 6l30 -6l6 -57l-12 -50l-71 -6l-30 6l-7 59zM327 701l72 6l30 -6l6 -57l-11 -50l-72 -6l-30 6l-7 59zM294 494q49 0 90.5 -17.5t71.5 -49t47 -76.5t17 -99q0 -62 -21 -107.5t-57 -77t-84.5 -51.5t-104.5 -31q-48 0 -89 17.5t-71 49.5t-47 76.5t-17 98.5
q0 62 20.5 107.5t56.5 77t84 51.5t104 31zM177 271q0 -111 31.5 -169t75.5 -58q39 0 61.5 39.5t22.5 124.5q0 58 -8.5 100.5t-23 70.5t-34 42t-41.5 14q-39 0 -61.5 -39.5t-22.5 -124.5z" />
    <glyph glyph-name="divide" unicode="&#xf7;" 
d="M248 126l90 7l36 -7l7 -67l-7 -59l-91 -6l-35 6l-7 68zM248 499l90 7l36 -7l7 -67l-7 -59l-91 -6l-35 6l-7 68zM47 294h525v-77h-525v77z" />
    <glyph glyph-name="oslash" unicode="&#xf8;" horiz-adv-x="565" 
d="M299 494q40 0 74 -12t63 -33l33 37h63l-62 -70q26 -31 40.5 -72.5t14.5 -91.5q0 -62 -21 -107.5t-57 -77t-84.5 -51.5t-104.5 -31q-38 0 -71 10.5t-61 30.5l-32 -36h-65l62 70q-27 32 -42 74t-15 93q0 62 20.5 107.5t56.5 77t84 51.5t104 31zM182 271q0 -53 8 -99
l162 182q-15 42 -37.5 61.5t-48.5 19.5q-39 0 -61.5 -39.5t-22.5 -124.5zM373 208q0 26 -2 48t-5 42l-160 -181q15 -36 36.5 -54.5t46.5 -18.5q39 0 61.5 39.5t22.5 124.5z" />
    <glyph glyph-name="ugrave" unicode="&#xf9;" horiz-adv-x="590" 
d="M268 557l-115 176h134l43 -176h-62zM509 134q0 -29 3.5 -44t9.5 -26h42l4 -47l-164 -28l-29 88l-140 -92q-46 0 -77 7.5t-49.5 25.5t-26.5 47.5t-8 73.5v266l-56 -5l-5 49l131 30l73 4v-329q0 -32 14 -48t46 -16q16 0 35 9t39 23l18 12v271l-52 -5l-5 49l124 30l73 4
v-349z" />
    <glyph glyph-name="uacute" unicode="&#xfa;" horiz-adv-x="590" 
d="M262 557l43 176h134l-115 -176h-62zM509 134q0 -29 3.5 -44t9.5 -26h42l4 -47l-164 -28l-29 88l-140 -92q-46 0 -77 7.5t-49.5 25.5t-26.5 47.5t-8 73.5v266l-56 -5l-5 49l131 30l73 4v-329q0 -32 14 -48t46 -16q16 0 35 9t39 23l18 12v271l-52 -5l-5 49l124 30l73 4
v-349z" />
    <glyph glyph-name="ucircumflex" unicode="&#xfb;" horiz-adv-x="590" 
d="M379 557l-68 76l-18 26l-17 -26l-68 -76h-62l112 176h71l112 -176h-62zM509 134q0 -29 3.5 -44t9.5 -26h42l4 -47l-164 -28l-29 88l-140 -92q-46 0 -77 7.5t-49.5 25.5t-26.5 47.5t-8 73.5v266l-56 -5l-5 49l131 30l73 4v-329q0 -32 14 -48t46 -16q16 0 35 9t39 23l18 12
v271l-52 -5l-5 49l124 30l73 4v-349z" />
    <glyph glyph-name="udieresis" unicode="&#xfc;" horiz-adv-x="590" 
d="M152 701l73 6l30 -6l6 -57l-12 -50l-71 -6l-30 6l-7 59zM345 701l72 6l30 -6l6 -57l-11 -50l-72 -6l-30 6l-7 59zM509 134q0 -29 3.5 -44t9.5 -26h42l4 -47l-164 -28l-29 88l-140 -92q-46 0 -77 7.5t-49.5 25.5t-26.5 47.5t-8 73.5v266l-56 -5l-5 49l131 30l73 4v-329
q0 -32 14 -48t46 -16q16 0 35 9t39 23l18 12v271l-52 -5l-5 49l124 30l73 4v-349z" />
    <glyph glyph-name="yacute" unicode="&#xfd;" horiz-adv-x="567" 
d="M285 557l43 176h134l-115 -176h-62zM87 -235v134h118l100 136l-89 -29l-161 417l-50 10l5 47l133 -3l114 3l5 -47l-54 -10l96 -260l12 -85l105 344l-47 10l5 48l93 -3l85 3l5 -48l-59 -10l-147 -397l-115 -260h-154z" />
    <glyph glyph-name="thorn" unicode="&#xfe;" horiz-adv-x="572" 
d="M280 -15q-31 0 -62 13v-171l92 -11l-4 -47l-159 3l-122 -3l-5 47l58 11v812l-58 -3l-5 47l142 27l61 3v-314l131 95q38 0 73 -15.5t62 -44.5t43.5 -70.5t16.5 -92.5q0 -128 -66.5 -198t-197.5 -88zM396 226q0 45 -7.5 76.5t-19.5 51t-27.5 28.5t-32.5 9t-34 -10t-35 -24
l-22 -16v-258q31 -40 80 -40q43 0 70.5 47.5t27.5 135.5z" />
    <glyph glyph-name="ydieresis" unicode="&#xff;" horiz-adv-x="567" 
d="M162 701l73 6l30 -6l6 -57l-12 -50l-71 -6l-30 6l-7 59zM355 701l72 6l30 -6l6 -57l-11 -50l-72 -6l-30 6l-7 59zM87 -235v134h118l100 136l-89 -29l-161 417l-50 10l5 47l133 -3l114 3l5 -47l-54 -10l96 -260l12 -85l105 344l-47 10l5 48l93 -3l85 3l5 -48l-59 -10
l-147 -397l-115 -260h-154z" />
    <glyph glyph-name="Amacron" unicode="&#x100;" horiz-adv-x="740" 
d="M214 863h292v-70h-292v70zM205 226l-56 -167l78 -13l-5 -47l-109 3l-101 -3l-5 47l63 12l231 628l127 28l236 -657l69 -11l-5 -47l-178 3l-120 -3l-5 47l73 13l-57 167h-236zM333 544l-3 57l-106 -320h198z" />
    <glyph glyph-name="amacron" unicode="&#x101;" horiz-adv-x="513" 
d="M113 682h292v-70h-292v70zM297 247l-105 -43q-12 -12 -17.5 -30.5t-5.5 -35.5q0 -36 16.5 -52t34.5 -16q15 0 28 7t23 13l26 18v139zM253 494q52 0 88 -7.5t58 -25.5t31.5 -47.5t9.5 -73.5v-194q0 -30 3 -46t10 -29h48l7 -47l-173 -35l-32 80l-115 -84q-35 0 -64 9.5
t-50 27t-32.5 42t-11.5 55.5q0 32 12.5 57t32.5 45l222 71v57q0 46 -12.5 62.5t-38.5 16.5q-17 0 -32.5 -4t-28.5 -11l-15 -98h-125v94z" />
    <glyph glyph-name="Abreve" unicode="&#x102;" horiz-adv-x="740" 
d="M367 834q22 0 40.5 6.5t33 16t25 20.5t17.5 20l33 -26q-9 -16 -18.5 -30.5t-24 -28t-36.5 -26.5t-55 -26q-32 0 -57.5 10t-46 25.5t-35.5 35.5t-25 40l35 26q7 -9 17.5 -20t24.5 -20.5t31.5 -16t40.5 -6.5zM205 226l-56 -167l78 -13l-5 -47l-109 3l-101 -3l-5 47l63 12
l231 628l127 28l236 -657l69 -11l-5 -47l-178 3l-120 -3l-5 47l73 13l-57 167h-236zM333 544l-3 57l-106 -320h198z" />
    <glyph glyph-name="abreve" unicode="&#x103;" horiz-adv-x="513" 
d="M265 636q22 0 39.5 6.5t31.5 16.5t24.5 21.5t17.5 22.5l35 -26q-19 -37 -49 -65t-84 -50q-32 0 -58.5 10t-47.5 26.5t-36 37t-23 41.5l35 26q7 -11 17.5 -22.5t24.5 -21.5t32 -16.5t41 -6.5zM297 247l-105 -43q-12 -12 -17.5 -30.5t-5.5 -35.5q0 -36 16.5 -52t34.5 -16
q15 0 28 7t23 13l26 18v139zM253 494q52 0 88 -7.5t58 -25.5t31.5 -47.5t9.5 -73.5v-194q0 -30 3 -46t10 -29h48l7 -47l-173 -35l-32 80l-115 -84q-35 0 -64 9.5t-50 27t-32.5 42t-11.5 55.5q0 32 12.5 57t32.5 45l222 71v57q0 46 -12.5 62.5t-38.5 16.5q-17 0 -32.5 -4
t-28.5 -11l-15 -98h-125v94z" />
    <glyph glyph-name="Aogonek" unicode="&#x104;" horiz-adv-x="740" 
d="M205 226l-56 -167l78 -13l-5 -47l-109 3l-101 -3l-5 47l63 12l231 628l127 28l236 -657l69 -11l-5 -47l-193 2l-38 -105v-33q0 -13 3.5 -25.5t14.5 -22t30 -15t51 -5.5v-41q-110 0 -155.5 25.5t-45.5 75.5v66l110 116l-64 189h-236zM333 544l-3 57l-106 -320h198z" />
    <glyph glyph-name="aogonek" unicode="&#x105;" horiz-adv-x="513" 
d="M253 494q52 0 88 -7.5t58 -25.5t31.5 -47.5t9.5 -73.5v-194q0 -30 3 -46t10 -29h48l7 -47l-105 -22l-67 -110v-29q0 -13 3.5 -25.5t14 -22t30 -15t51.5 -5.5v-41q-110 0 -155.5 25.5t-45.5 75.5v62l99 78l-30 74l-115 -84q-35 0 -64 9.5t-50 27t-32.5 42t-11.5 55.5
q0 32 12.5 57t32.5 45l222 71v57q0 46 -12.5 62.5t-38.5 16.5q-17 0 -32.5 -4t-28.5 -11l-15 -98h-125v94zM297 247l-105 -43q-12 -12 -17.5 -30.5t-5.5 -35.5q0 -36 16.5 -52t34.5 -16q15 0 28 7t23 13l26 18v139z" />
    <glyph glyph-name="Cacute" unicode="&#x106;" horiz-adv-x="708" 
d="M378 769l51 136h140l-115 -136h-76zM685 233l-20 -179q-46 -20 -111.5 -40t-148.5 -32q-73 0 -140 22.5t-118.5 67t-82 110.5t-30.5 152q0 88 28 154t80 112.5t127 75t168 42.5q37 0 70.5 -6.5t63.5 -16t55 -21.5t44 -23v-171h-69l-32 98q-10 13 -24 26.5t-32.5 24
t-42.5 17t-55 6.5q-47 0 -86 -19t-68 -56t-45 -90.5t-16 -122.5q0 -64 15.5 -121t45 -100t71.5 -68.5t95 -25.5q49 0 82 20.5t60 46.5l49 117h67z" />
    <glyph glyph-name="cacute" unicode="&#x107;" horiz-adv-x="480" 
d="M240 557l43 176h134l-115 -176h-62zM306 419q-8 6 -15.5 8.5t-20.5 2.5q-37 0 -64 -43t-27 -121q0 -38 10.5 -71t30 -57t47 -38t62.5 -14q29 0 54.5 11t45.5 25l26 -45q-37 -29 -80 -52t-102 -40q-53 0 -97.5 17t-76.5 48t-50 75t-18 99q0 58 20.5 102t55 77t81 55
t98.5 36q50 0 91 -14t67 -37v-127h-116z" />
    <glyph glyph-name="Ccircumflex" unicode="&#x108;" horiz-adv-x="708" 
d="M262 769l114 136h96l115 -136h-82l-63 53l-18 23l-17 -23l-63 -53h-82zM685 233l-20 -179q-46 -20 -111.5 -40t-148.5 -32q-73 0 -140 22.5t-118.5 67t-82 110.5t-30.5 152q0 88 28 154t80 112.5t127 75t168 42.5q37 0 70.5 -6.5t63.5 -16t55 -21.5t44 -23v-171h-69
l-32 98q-10 13 -24 26.5t-32.5 24t-42.5 17t-55 6.5q-47 0 -86 -19t-68 -56t-45 -90.5t-16 -122.5q0 -64 15.5 -121t45 -100t71.5 -68.5t95 -25.5q49 0 82 20.5t60 46.5l49 117h67z" />
    <glyph glyph-name="ccircumflex" unicode="&#x109;" horiz-adv-x="480" 
d="M132 557l112 176h72l112 -176h-62l-69 76l-17 26l-17 -26l-69 -76h-62zM306 419q-8 6 -15.5 8.5t-20.5 2.5q-37 0 -64 -43t-27 -121q0 -38 10.5 -71t30 -57t47 -38t62.5 -14q29 0 54.5 11t45.5 25l26 -45q-37 -29 -80 -52t-102 -40q-53 0 -97.5 17t-76.5 48t-50 75
t-18 99q0 58 20.5 102t55 77t81 55t98.5 36q50 0 91 -14t67 -37v-127h-116z" />
    <glyph glyph-name="Cdotaccent" unicode="&#x10a;" horiz-adv-x="708" 
d="M367 899l71 5l44 -6l6 -65l-13 -55l-67 -7l-46 7l-7 65zM685 233l-20 -179q-46 -20 -111.5 -40t-148.5 -32q-73 0 -140 22.5t-118.5 67t-82 110.5t-30.5 152q0 88 28 154t80 112.5t127 75t168 42.5q37 0 70.5 -6.5t63.5 -16t55 -21.5t44 -23v-171h-69l-32 98
q-10 13 -24 26.5t-32.5 24t-42.5 17t-55 6.5q-47 0 -86 -19t-68 -56t-45 -90.5t-16 -122.5q0 -64 15.5 -121t45 -100t71.5 -68.5t95 -25.5q49 0 82 20.5t60 46.5l49 117h67z" />
    <glyph glyph-name="cdotaccent" unicode="&#x10b;" horiz-adv-x="480" 
d="M223 717l71 5l44 -6l7 -65l-13 -55l-68 -7l-46 7l-6 65zM306 419q-8 6 -15.5 8.5t-20.5 2.5q-37 0 -64 -43t-27 -121q0 -38 10.5 -71t30 -57t47 -38t62.5 -14q29 0 54.5 11t45.5 25l26 -45q-37 -29 -80 -52t-102 -40q-53 0 -97.5 17t-76.5 48t-50 75t-18 99
q0 58 20.5 102t55 77t81 55t98.5 36q50 0 91 -14t67 -37v-127h-116z" />
    <glyph glyph-name="Ccaron" unicode="&#x10c;" horiz-adv-x="708" 
d="M340 905l63 -52l17 -23l18 23l63 52h82l-115 -136h-96l-114 136h82zM685 233l-20 -179q-46 -20 -111.5 -40t-148.5 -32q-73 0 -140 22.5t-118.5 67t-82 110.5t-30.5 152q0 88 28 154t80 112.5t127 75t168 42.5q37 0 70.5 -6.5t63.5 -16t55 -21.5t44 -23v-171h-69l-32 98
q-10 13 -24 26.5t-32.5 24t-42.5 17t-55 6.5q-47 0 -86 -19t-68 -56t-45 -90.5t-16 -122.5q0 -64 15.5 -121t45 -100t71.5 -68.5t95 -25.5q49 0 82 20.5t60 46.5l49 117h67z" />
    <glyph glyph-name="ccaron" unicode="&#x10d;" horiz-adv-x="480" 
d="M194 737l69 -76l17 -26l17 26l69 76h62l-112 -176h-72l-112 176h62zM306 419q-8 6 -15.5 8.5t-20.5 2.5q-37 0 -64 -43t-27 -121q0 -38 10.5 -71t30 -57t47 -38t62.5 -14q29 0 54.5 11t45.5 25l26 -45q-37 -29 -80 -52t-102 -40q-53 0 -97.5 17t-76.5 48t-50 75t-18 99
q0 58 20.5 102t55 77t81 55t98.5 36q50 0 91 -14t67 -37v-127h-116z" />
    <glyph glyph-name="Dcaron" unicode="&#x10e;" horiz-adv-x="761" 
d="M521 905l-114 -136h-96l-115 136h82l63 -52l18 -23l17 23l63 52h82zM161 698l224 3q79 1 142.5 -20.5t108 -64t68 -104.5t23.5 -143q0 -75 -20.5 -138.5t-63 -112t-108 -79.5t-155.5 -40l-222 3l-123 -3l-5 47l78 13v583l-78 13l5 46zM261 645v-586l105 -8
q46 -2 82.5 21.5t62 65t39 98t13.5 119.5q0 65 -15 120t-43.5 94.5t-70 61t-94.5 19.5z" />
    <glyph glyph-name="dcaron" unicode="&#x10f;" horiz-adv-x="672" 
d="M561 656l-23 35v40h124v-80l-75 -122l-49 10zM498 132q0 -31 4 -43.5t12 -23.5h44l4 -48l-166 -28l-31 84l-121 -88q-49 0 -88 17.5t-66.5 48.5t-42.5 74.5t-15 96.5q0 62 17.5 108.5t49 79.5t76 53.5t97.5 30.5q7 0 19 -2.5t24.5 -6.5t24 -8.5t18.5 -8.5v166l-58 -2
l-5 47l132 31l71 4v-582zM268 90q20 0 37 7.5t32 19.5l21 16v261q-11 14 -30.5 23t-42.5 9q-49 0 -77 -46.5t-28 -130.5q0 -76 25 -117.5t63 -41.5z" />
    <glyph glyph-name="Dcroat" unicode="&#x110;" horiz-adv-x="761" 
d="M161 698l224 3q79 1 142.5 -20.5t108 -64t68 -104.5t23.5 -143q0 -75 -20.5 -138.5t-63 -112t-108 -79.5t-155.5 -40l-222 3l-123 -3l-5 47l78 13v276h-71v56h71v251l-78 13l5 46zM261 645v-254h110v-56h-110v-276l105 -8q46 -2 82.5 21.5t62 65t39 98t13.5 119.5
q0 65 -15 120t-43.5 94.5t-70 61t-94.5 19.5z" />
    <glyph glyph-name="dcroat" unicode="&#x111;" horiz-adv-x="579" 
d="M498 594h66v-46h-66v-416q0 -31 4 -43.5t12 -23.5h44l4 -48l-166 -28l-31 84l-121 -88q-49 0 -88 17.5t-66.5 48.5t-42.5 74.5t-15 96.5q0 62 17.5 108.5t49 79.5t76 53.5t97.5 30.5q7 0 19 -2.5t24.5 -6.5t24 -8.5t18.5 -8.5v80h-117v46h117v40l-58 -2l-5 47l132 31
l71 4v-120zM268 90q20 0 37 7.5t32 19.5l21 16v261q-11 14 -30.5 23t-42.5 9q-49 0 -77 -46.5t-28 -130.5q0 -76 25 -117.5t63 -41.5z" />
    <glyph glyph-name="Emacron" unicode="&#x112;" horiz-adv-x="646" 
d="M190 863h292v-70h-292v70zM595 701l11 -192h-52l-59 130l-234 3v-246l116 4l40 107h50l-10 -137l10 -141h-50l-40 106l-116 4v-281l245 3l68 135h53l-33 -197l-421 3l-138 -3l-5 47l78 13v583l-78 13l5 46l138 -3z" />
    <glyph glyph-name="emacron" unicode="&#x113;" horiz-adv-x="492" 
d="M125 682h292v-70h-292v70zM173 248q1 -35 11 -64.5t28.5 -51.5t44 -34t58.5 -12q35 0 69 13t56 27l22 -45q-41 -34 -85.5 -55.5t-104.5 -40.5q-52 0 -96.5 17t-77 48t-51 75.5t-18.5 98.5q0 45 12 86.5t39.5 76t73.5 62t115 45.5q52 0 89 -15t60.5 -41.5t34 -61.5
t10.5 -74v-54h-290zM323 305q0 57 -14.5 91.5t-55.5 34.5q-36 0 -57 -36t-24 -99z" />
    <glyph glyph-name="Ebreve" unicode="&#x114;" horiz-adv-x="646" 
d="M332 834q22 0 40.5 6.5t33 16t25 20.5t17.5 20l33 -26q-9 -16 -18.5 -30.5t-24 -28t-36.5 -26.5t-55 -26q-32 0 -57.5 10t-46 25.5t-35.5 35.5t-25 40l34 26q7 -9 17.5 -20t24.5 -20.5t32 -16t41 -6.5zM595 701l11 -192h-52l-59 130l-234 3v-246l116 4l40 107h50
l-10 -137l10 -141h-50l-40 106l-116 4v-281l245 3l68 135h53l-33 -197l-421 3l-138 -3l-5 47l78 13v583l-78 13l5 46l138 -3z" />
    <glyph glyph-name="ebreve" unicode="&#x115;" horiz-adv-x="492" 
d="M267 636q22 0 39.5 6.5t31 16.5t24 21.5t17.5 22.5l35 -26q-19 -37 -49 -64.5t-84 -50.5q-32 0 -58 10t-47 26.5t-36 37t-24 41.5l35 26q7 -11 17.5 -22.5t25 -21.5t32.5 -16.5t41 -6.5zM173 248q1 -35 11 -64.5t28.5 -51.5t44 -34t58.5 -12q35 0 69 13t56 27l22 -45
q-41 -34 -85.5 -55.5t-104.5 -40.5q-52 0 -96.5 17t-77 48t-51 75.5t-18.5 98.5q0 45 12 86.5t39.5 76t73.5 62t115 45.5q52 0 89 -15t60.5 -41.5t34 -61.5t10.5 -74v-54h-290zM323 305q0 57 -14.5 91.5t-55.5 34.5q-36 0 -57 -36t-24 -99z" />
    <glyph glyph-name="Edotaccent" unicode="&#x116;" horiz-adv-x="646" 
d="M285 887l70 5l45 -6l6 -65l-13 -55l-67 -7l-47 7l-6 65zM595 701l11 -192h-52l-59 130l-234 3v-246l116 4l40 107h50l-10 -137l10 -141h-50l-40 106l-116 4v-281l245 3l68 135h53l-33 -197l-421 3l-138 -3l-5 47l78 13v583l-78 13l5 46l138 -3z" />
    <glyph glyph-name="edotaccent" unicode="&#x117;" horiz-adv-x="492" 
d="M215 717l71 5l44 -6l6 -65l-13 -55l-67 -7l-46 7l-7 65zM173 248q1 -35 11 -64.5t28.5 -51.5t44 -34t58.5 -12q35 0 69 13t56 27l22 -45q-41 -34 -85.5 -55.5t-104.5 -40.5q-52 0 -96.5 17t-77 48t-51 75.5t-18.5 98.5q0 45 12 86.5t39.5 76t73.5 62t115 45.5
q52 0 89 -15t60.5 -41.5t34 -61.5t10.5 -74v-54h-290zM323 305q0 57 -14.5 91.5t-55.5 34.5q-36 0 -57 -36t-24 -99z" />
    <glyph glyph-name="Eogonek" unicode="&#x118;" horiz-adv-x="646" 
d="M595 701l11 -192h-52l-59 130l-234 3v-246l116 4l40 107h50l-10 -137l10 -141h-50l-40 106l-116 4v-281l245 3l68 135h53l-33 -197l-72 1l-36 -108v-29q0 -13 3.5 -25.5t14.5 -22t30 -15t51 -5.5v-41q-110 0 -155.5 25.5t-45.5 75.5v62l87 83l-298 2l-138 -3l-5 47l78 13
v583l-78 13l5 46l138 -3z" />
    <glyph glyph-name="eogonek" unicode="&#x119;" horiz-adv-x="492" 
d="M173 248q1 -35 11 -64.5t28.5 -51.5t44 -34t58.5 -12q35 0 69 13t56 27l22 -45q-48 -39 -104 -64l-60 -117v-37q0 -13 4 -25.5t15 -22t31 -15t53 -5.5v-41q-56 0 -95 6.5t-63.5 19t-35.5 31.5t-11 44v62l75 68q-51 0 -95.5 17t-77 48t-51 75.5t-18.5 98.5q0 45 12 86.5
t39.5 76t73.5 62t115 45.5q52 0 89 -15t60.5 -41.5t34 -61.5t10.5 -74v-54h-290zM323 305q0 57 -14.5 91.5t-55.5 34.5q-36 0 -57 -36t-24 -99z" />
    <glyph glyph-name="Ecaron" unicode="&#x11a;" horiz-adv-x="646" 
d="M250 905l63 -52l17 -23l18 23l63 52h82l-115 -136h-96l-114 136h82zM595 701l11 -192h-52l-59 130l-234 3v-246l116 4l40 107h50l-10 -137l10 -141h-50l-40 106l-116 4v-281l245 3l68 135h53l-33 -197l-421 3l-138 -3l-5 47l78 13v583l-78 13l5 46l138 -3z" />
    <glyph glyph-name="ecaron" unicode="&#x11b;" horiz-adv-x="492" 
d="M179 737l68 -76l18 -26l17 26l68 76h62l-112 -176h-71l-112 176h62zM173 248q1 -35 11 -64.5t28.5 -51.5t44 -34t58.5 -12q35 0 69 13t56 27l22 -45q-41 -34 -85.5 -55.5t-104.5 -40.5q-52 0 -96.5 17t-77 48t-51 75.5t-18.5 98.5q0 45 12 86.5t39.5 76t73.5 62t115 45.5
q52 0 89 -15t60.5 -41.5t34 -61.5t10.5 -74v-54h-290zM323 305q0 57 -14.5 91.5t-55.5 34.5q-36 0 -57 -36t-24 -99z" />
    <glyph glyph-name="Gcircumflex" unicode="&#x11c;" horiz-adv-x="753" 
d="M262 769l115 136h96l114 -136h-82l-63 53l-17 23l-18 -23l-63 -53h-82zM679 60q-45 -22 -117 -43.5t-166 -34.5q-71 0 -136.5 23t-115.5 67t-80 108.5t-30 148.5q0 91 27.5 157.5t79.5 113t126.5 75t167.5 43.5q37 0 72 -6.5t65.5 -17t56 -22.5t44.5 -24v-167h-67l-33 95
q-22 32 -61.5 54t-94.5 22q-100 0 -158.5 -74t-58.5 -214q0 -65 16 -122.5t45 -100.5t71 -67.5t95 -24.5q37 0 61 11.5t38 23.5v184l-90 13l5 50l162 -3l124 3l7 -50l-55 -13v-208z" />
    <glyph glyph-name="gcircumflex" unicode="&#x11d;" horiz-adv-x="554" 
d="M135 557l111 176h72l112 -176h-62l-68 76l-18 26l-17 -26l-68 -76h-62zM326 307q0 27 -5 51t-15 42.5t-25.5 29t-37.5 10.5q-35 0 -52 -29.5t-17 -74.5q0 -27 5 -50t15 -40.5t26 -27.5t38 -10q35 0 51.5 28t16.5 71zM179 -29q-23 -22 -30 -36.5t-7 -26.5
q0 -31 29.5 -54.5t97.5 -23.5q32 0 56 7.5t40.5 20t25 28.5t8.5 32q0 24 -18 38.5t-56 14.5h-146zM261 494q70 0 109.5 -23t64.5 -59l45 82h69v-104h-79l-19 -12q3 -10 5 -20t2 -21q0 -37 -14.5 -65t-41.5 -49.5t-67.5 -38t-93.5 -30.5q-14 0 -28.5 1t-26.5 5l-33 -41
q0 -19 13 -27t36 -8h185q65 0 101 -32t36 -83q0 -36 -21 -67t-58.5 -57t-88 -48.5t-110.5 -41.5q-49 0 -91 7t-72.5 22t-48 38.5t-17.5 57.5v23l118 73q-52 14 -73 44t-21 68v20l106 64q-48 20 -76 58t-28 86q1 72 56.5 112t161.5 66z" />
    <glyph glyph-name="Gbreve" unicode="&#x11e;" horiz-adv-x="753" 
d="M413 834q22 0 40.5 6.5t33 16t25 20.5t17.5 20l33 -26q-9 -16 -18.5 -30.5t-24 -28t-36.5 -26.5t-55 -26q-32 0 -57.5 10t-46 25.5t-35.5 35.5t-25 40l34 26q7 -9 17.5 -20t24.5 -20.5t32 -16t41 -6.5zM679 60q-45 -22 -117 -43.5t-166 -34.5q-71 0 -136.5 23t-115.5 67
t-80 108.5t-30 148.5q0 91 27.5 157.5t79.5 113t126.5 75t167.5 43.5q37 0 72 -6.5t65.5 -17t56 -22.5t44.5 -24v-167h-67l-33 95q-22 32 -61.5 54t-94.5 22q-100 0 -158.5 -74t-58.5 -214q0 -65 16 -122.5t45 -100.5t71 -67.5t95 -24.5q37 0 61 11.5t38 23.5v184l-90 13
l5 50l162 -3l124 3l7 -50l-55 -13v-208z" />
    <glyph glyph-name="gbreve" unicode="&#x11f;" horiz-adv-x="554" 
d="M274 636q22 0 39.5 6.5t31.5 16.5t24.5 21.5t17.5 22.5l35 -26q-19 -37 -49 -64.5t-84 -50.5q-32 0 -58.5 10t-47.5 26.5t-36 37t-23 41.5l35 26q7 -11 17.5 -22.5t24.5 -21.5t32 -16.5t41 -6.5zM326 307q0 27 -5 51t-15 42.5t-25.5 29t-37.5 10.5q-35 0 -52 -29.5
t-17 -74.5q0 -27 5 -50t15 -40.5t26 -27.5t38 -10q35 0 51.5 28t16.5 71zM179 -29q-23 -22 -30 -36.5t-7 -26.5q0 -31 29.5 -54.5t97.5 -23.5q32 0 56 7.5t40.5 20t25 28.5t8.5 32q0 24 -18 38.5t-56 14.5h-146zM261 494q70 0 109.5 -23t64.5 -59l45 82h69v-104h-79l-19 -12
q3 -10 5 -20t2 -21q0 -37 -14.5 -65t-41.5 -49.5t-67.5 -38t-93.5 -30.5q-14 0 -28.5 1t-26.5 5l-33 -41q0 -19 13 -27t36 -8h185q65 0 101 -32t36 -83q0 -36 -21 -67t-58.5 -57t-88 -48.5t-110.5 -41.5q-49 0 -91 7t-72.5 22t-48 38.5t-17.5 57.5v23l118 73q-52 14 -73 44
t-21 68v20l106 64q-48 20 -76 58t-28 86q1 72 56.5 112t161.5 66z" />
    <glyph glyph-name="Gdotaccent" unicode="&#x120;" horiz-adv-x="753" 
d="M372 893l70 5l45 -6l6 -65l-13 -55l-67 -7l-47 7l-6 65zM679 60q-45 -22 -117 -43.5t-166 -34.5q-71 0 -136.5 23t-115.5 67t-80 108.5t-30 148.5q0 91 27.5 157.5t79.5 113t126.5 75t167.5 43.5q37 0 72 -6.5t65.5 -17t56 -22.5t44.5 -24v-167h-67l-33 95
q-22 32 -61.5 54t-94.5 22q-100 0 -158.5 -74t-58.5 -214q0 -65 16 -122.5t45 -100.5t71 -67.5t95 -24.5q37 0 61 11.5t38 23.5v184l-90 13l5 50l162 -3l124 3l7 -50l-55 -13v-208z" />
    <glyph glyph-name="gdotaccent" unicode="&#x121;" horiz-adv-x="554" 
d="M218 717l71 5l44 -6l6 -65l-13 -55l-67 -7l-46 7l-7 65zM326 307q0 27 -5 51t-15 42.5t-25.5 29t-37.5 10.5q-35 0 -52 -29.5t-17 -74.5q0 -27 5 -50t15 -40.5t26 -27.5t38 -10q35 0 51.5 28t16.5 71zM179 -29q-23 -22 -30 -36.5t-7 -26.5q0 -31 29.5 -54.5t97.5 -23.5
q32 0 56 7.5t40.5 20t25 28.5t8.5 32q0 24 -18 38.5t-56 14.5h-146zM261 494q70 0 109.5 -23t64.5 -59l45 82h69v-104h-79l-19 -12q3 -10 5 -20t2 -21q0 -37 -14.5 -65t-41.5 -49.5t-67.5 -38t-93.5 -30.5q-14 0 -28.5 1t-26.5 5l-33 -41q0 -19 13 -27t36 -8h185
q65 0 101 -32t36 -83q0 -36 -21 -67t-58.5 -57t-88 -48.5t-110.5 -41.5q-49 0 -91 7t-72.5 22t-48 38.5t-17.5 57.5v23l118 73q-52 14 -73 44t-21 68v20l106 64q-48 20 -76 58t-28 86q1 72 56.5 112t161.5 66z" />
    <glyph glyph-name="Gcommaaccent" unicode="&#x122;" horiz-adv-x="753" 
d="M358 -125l-23 35v40h124v-80l-75 -122l-49 10zM679 60q-45 -22 -117 -43.5t-166 -34.5q-71 0 -136.5 23t-115.5 67t-80 108.5t-30 148.5q0 91 27.5 157.5t79.5 113t126.5 75t167.5 43.5q37 0 72 -6.5t65.5 -17t56 -22.5t44.5 -24v-167h-67l-33 95q-22 32 -61.5 54
t-94.5 22q-100 0 -158.5 -74t-58.5 -214q0 -65 16 -122.5t45 -100.5t71 -67.5t95 -24.5q37 0 61 11.5t38 23.5v184l-90 13l5 50l162 -3l124 3l7 -50l-55 -13v-208z" />
    <glyph glyph-name="gcommaaccent" unicode="&#x123;" horiz-adv-x="554" 
d="M310 641l23 -35v-40h-124v80l75 134l49 -10zM326 307q0 27 -5 51t-15 42.5t-25.5 29t-37.5 10.5q-35 0 -52 -29.5t-17 -74.5q0 -27 5 -50t15 -40.5t26 -27.5t38 -10q35 0 51.5 28t16.5 71zM179 -29q-23 -22 -30 -36.5t-7 -26.5q0 -31 29.5 -54.5t97.5 -23.5q32 0 56 7.5
t40.5 20t25 28.5t8.5 32q0 24 -18 38.5t-56 14.5h-146zM261 494q70 0 109.5 -23t64.5 -59l45 82h69v-104h-79l-19 -12q3 -10 5 -20t2 -21q0 -37 -14.5 -65t-41.5 -49.5t-67.5 -38t-93.5 -30.5q-14 0 -28.5 1t-26.5 5l-33 -41q0 -19 13 -27t36 -8h185q65 0 101 -32t36 -83
q0 -36 -21 -67t-58.5 -57t-88 -48.5t-110.5 -41.5q-49 0 -91 7t-72.5 22t-48 38.5t-17.5 57.5v23l118 73q-52 14 -73 44t-21 68v20l106 64q-48 20 -76 58t-28 86q1 72 56.5 112t161.5 66z" />
    <glyph glyph-name="Hcircumflex" unicode="&#x124;" horiz-adv-x="792" 
d="M234 769l115 136h95l115 -136h-82l-63 53l-18 23l-17 -23l-63 -53h-82zM30 655l5 46l150 -3l141 3l5 -46l-70 -13v-249h272v249l-72 13l5 46l143 -3l148 3l5 -46l-76 -13v-583l76 -13l-5 -47l-148 3l-143 -3l-5 47l72 13v272h-272v-272l70 -13l-5 -47l-141 3l-150 -3
l-5 47l78 13v583z" />
    <glyph glyph-name="hcircumflex" unicode="&#x125;" horiz-adv-x="615" 
d="M2 769l115 136h95l115 -136h-82l-63 53l-18 23l-17 -23l-63 -53h-82zM232 58l43 -12l-5 -47l-107 3l-124 -3l-5 47l58 12v578l-60 -2l-5 48l143 28l62 3v-313l151 94q44 0 73.5 -7.5t47.5 -26t26 -49t8 -76.5v-277l60 -12l-5 -47l-124 3l-109 -3l-5 47l40 12v274
q0 30 -14 44.5t-38 14.5q-20 0 -43 -11.5t-45 -26.5l-23 -14v-281z" />
    <glyph glyph-name="Hbar" unicode="&#x126;" horiz-adv-x="792" 
d="M30 655l5 46l150 -3l141 3l5 -46l-70 -13v-126h272v126l-72 13l5 46l143 -3l148 3l5 -46l-76 -13v-583l76 -13l-5 -47l-148 3l-143 -3l-5 47l72 13v272h-272v-272l70 -13l-5 -47l-141 3l-150 -3l-5 47l78 13v583zM533 393v77h-272v-77h272z" />
    <glyph glyph-name="hbar" unicode="&#x127;" horiz-adv-x="614" 
d="M231 58l43 -12l-5 -47l-107 3l-124 -3l-5 47l58 12v487h-63v46h63v45l-60 -2l-5 48l143 28l62 3v-122h102v-46h-102v-145l151 94q44 0 73.5 -7.5t47.5 -26t26 -49t8 -76.5v-277l60 -12l-5 -47l-124 3l-109 -3l-5 47l40 12v274q0 30 -14 44.5t-38 14.5q-20 0 -43 -11.5
t-45 -26.5l-23 -14v-281z" />
    <glyph glyph-name="Itilde" unicode="&#x128;" horiz-adv-x="371" 
d="M46 879l75 22l174 -50l32 50h34l-29 -112l-74 -19l-175 51l-31 -51h-34zM187 2l-150 -3l-5 47l78 13v583l-78 13l5 46l150 -3l149 3l5 -46l-78 -13v-583l78 -13l-5 -47z" />
    <glyph glyph-name="itilde" unicode="&#x129;" horiz-adv-x="313" 
d="M20 694l75 22l175 -53l29 51h36l-29 -114l-74 -17l-176 53l-28 -51h-36zM164 2l-124 -3l-5 48l58 11v350l-58 -3l-5 47l142 27l61 4v-425l60 -11l-5 -48z" />
    <glyph glyph-name="Imacron" unicode="&#x12a;" horiz-adv-x="371" 
d="M40 863h292v-70h-292v70zM187 2l-150 -3l-5 47l78 13v583l-78 13l5 46l150 -3l149 3l5 -46l-78 -13v-583l78 -13l-5 -47z" />
    <glyph glyph-name="imacron" unicode="&#x12b;" horiz-adv-x="313" 
d="M15 682h292v-70h-292v70zM164 2l-124 -3l-5 48l58 11v350l-58 -3l-5 47l142 27l61 4v-425l60 -11l-5 -48z" />
    <glyph glyph-name="Ibreve" unicode="&#x12c;" horiz-adv-x="371" 
d="M184 834q22 0 40.5 6.5t33 16t25 20.5t17.5 20l33 -26q-9 -16 -18.5 -30.5t-24 -28t-36.5 -26.5t-55 -26q-32 0 -57.5 10t-46 25.5t-35.5 35.5t-25 40l34 26q7 -9 17.5 -20t24.5 -20.5t32 -16t41 -6.5zM187 2l-150 -3l-5 47l78 13v583l-78 13l5 46l150 -3l149 3l5 -46
l-78 -13v-583l78 -13l-5 -47z" />
    <glyph glyph-name="ibreve" unicode="&#x12d;" horiz-adv-x="313" 
d="M163 636q22 0 39.5 6.5t31.5 16.5t24.5 21.5t17.5 22.5l35 -26q-19 -37 -49 -64.5t-85 -50.5q-32 0 -58 10t-47 26.5t-36 37t-23 41.5l35 26q7 -11 17.5 -22.5t24.5 -21.5t32 -16.5t41 -6.5zM164 2l-124 -3l-5 48l58 11v350l-58 -3l-5 47l142 27l61 4v-425l60 -11l-5 -48
z" />
    <glyph glyph-name="Iogonek" unicode="&#x12e;" horiz-adv-x="371" 
d="M213 1l-37 -109v-29q0 -13 3.5 -25.5t14.5 -22t30 -15t51 -5.5v-41q-55 0 -93 6.5t-62 19t-35 31.5t-11 44v56l87 90l-124 -2l-5 47l78 13v583l-78 13l5 47l150 -3l147 3l5 -47l-76 -13v-583l76 -13l-5 -47z" />
    <glyph glyph-name="iogonek" unicode="&#x12f;" horiz-adv-x="313" 
d="M191 1l-37 -109v-29q0 -13 3.5 -25.5t14.5 -22t30 -15t51 -5.5v-41q-110 0 -155.5 25.5t-45.5 75.5v56l87 90l-99 -1l-5 47l58 11v350l-58 -3l-5 47l142 27l61 4v-425l60 -11l-5 -47zM105 695l94 6l33 -6l7 -68l-14 -56l-93 -7l-33 7l-6 67z" />
    <glyph glyph-name="Idotaccent" unicode="&#x130;" horiz-adv-x="371" 
d="M136 893l71 5l44 -6l6 -65l-12 -55l-68 -7l-46 7l-7 65zM187 2l-150 -3l-5 47l78 13v583l-78 13l5 46l150 -3l149 3l5 -46l-78 -13v-583l78 -13l-5 -47z" />
    <glyph glyph-name="dotlessi" unicode="&#x131;" horiz-adv-x="313" 
d="M164 2l-124 -3l-5 48l58 11v350l-58 -3l-5 47l142 27l61 4v-425l60 -11l-5 -48z" />
    <glyph glyph-name="IJ" unicode="&#x132;" horiz-adv-x="669" 
d="M571 139q0 -44 -9.5 -78t-24.5 -61t-33.5 -49t-35.5 -40l-81 -86h-105v108h100l12 20q14 25 19 55.5t5 80.5v553l-60 14l5 45l132 -3l144 3l5 -46l-73 -13v-503zM187 2l-150 -3l-5 47l78 13v583l-78 13l5 46l150 -3l123 3l5 -46l-52 -13v-583l64 -13l-5 -47z" />
    <glyph glyph-name="ij" unicode="&#x133;" horiz-adv-x="552" 
d="M107 695l94 6l33 -6l7 -68l-14 -56l-93 -7l-33 7l-6 67zM361 695l95 6l32 -6l7 -68l-13 -56l-93 -7l-33 7l-7 67zM338 -102q4 17 8.5 45.5t4.5 81.5v383l-58 -4l-5 47l141 28l62 3v-439q0 -37 -9 -66.5t-22.5 -53.5t-30 -42.5t-31.5 -33.5l-85 -85h-87v114h105zM166 2
l-124 -2l-5 47l58 11v350l-58 -3l-5 47l142 27l61 4v-425l60 -11l-5 -47z" />
    <glyph glyph-name="Jcircumflex" unicode="&#x134;" horiz-adv-x="393" 
d="M43 769l115 136h96l114 -136h-82l-63 53l-17 23l-18 -23l-63 -53h-82zM292 139q0 -40 -10.5 -74t-26.5 -62t-35 -51t-37 -41l-80 -86h-100v120h114l8 21q9 25 11.5 54.5t2.5 74.5v547l-110 13l5 46l182 -4l144 4l5 -46l-73 -13v-503z" />
    <glyph glyph-name="jcircumflex" unicode="&#x135;" horiz-adv-x="298" 
d="M10 557l112 176h72l111 -176h-62l-68 76l-17 26l-18 -26l-68 -76h-62zM81 -102q3 9 6 18.5t5 23t3 33.5t1 50v384l-58 -3l-5 47l142 27l61 3v-440q0 -37 -9 -66.5t-22.5 -53t-30 -42t-31.5 -33.5l-82 -85h-90v114h100z" />
    <glyph glyph-name="Kcommaaccent" unicode="&#x136;" horiz-adv-x="749" 
d="M336 -125l-23 35v40h124v-80l-75 -122l-49 10zM291 392l263 250l-73 13l5 46l110 -3l120 3l5 -46l-76 -14l-277 -259l44 -19l277 -305l53 -12l-5 -47l-85 3l-114 -3l-259 316l-18 38v-294l69 -13l-5 -47l-140 3l-150 -3l-5 47l78 13v583l-78 13l5 46l150 -3l140 3l5 -46
l-69 -13v-265z" />
    <glyph glyph-name="kcommaaccent" unicode="&#x137;" horiz-adv-x="592" 
d="M257 -125l-23 35v40h124v-80l-75 -122l-49 10zM482 2l-67 -3l-164 223l-16 39v-203l40 -12l-5 -47l-114 3l-114 -3l-5 47l58 12v578l-60 -2l-5 48l143 28l62 3v-437l28 13l160 132l-53 12v47l102 -3l92 3l5 -47l-58 -12l-175 -137l33 -19l176 -207l42 -12l-8 -47z" />
    <glyph glyph-name="kgreenlandic" unicode="&#x138;" horiz-adv-x="592" 
d="M482 2l-67 -3l-164 223l-16 39v-203l40 -12l-5 -47l-114 3l-114 -3l-5 47l58 12v347l-60 -3l-5 48l143 28l62 3v-205l28 13l160 132l-53 12v47l102 -3l92 3l5 -47l-58 -12l-175 -137l33 -19l176 -207l42 -12l-8 -47z" />
    <glyph glyph-name="Lacute" unicode="&#x139;" horiz-adv-x="607" 
d="M147 769l51 136h140l-115 -136h-76zM173 3l-138 -4l-5 47l78 13v583l-78 13l5 46l138 -3l161 3l5 -46l-78 -13v-584l224 3l77 141h47l-36 -203z" />
    <glyph glyph-name="lacute" unicode="&#x13a;" horiz-adv-x="307" 
d="M118 761l43 152h140l-115 -152h-68zM163 2l-124 -3l-5 47l58 12v578l-60 -2l-5 48l143 28l62 3v-655l60 -12l-5 -47z" />
    <glyph glyph-name="Lcommaaccent" unicode="&#x13b;" horiz-adv-x="607" 
d="M272 -125l-23 35v40h124v-80l-75 -122l-49 10zM173 3l-138 -4l-5 47l78 13v583l-78 13l5 46l138 -3l161 3l5 -46l-78 -13v-584l224 3l77 141h47l-36 -203z" />
    <glyph glyph-name="lcommaaccent" unicode="&#x13c;" horiz-adv-x="307" 
d="M115 -125l-23 35v40h124v-80l-75 -122l-49 10zM163 2l-124 -3l-5 47l58 12v578l-60 -2l-5 48l143 28l62 3v-655l60 -12l-5 -47z" />
    <glyph glyph-name="Lcaron" unicode="&#x13d;" horiz-adv-x="610" 
d="M478 577l-6 68l6 58l91 7l35 -7l8 -67l-8 -59l-72 -160l-48 19q6 13 13 32t13.5 38.5t11 37t4.5 27.5zM173 3l-138 -4l-5 47l78 13v583l-78 13l5 46l138 -3l161 3l5 -46l-78 -13v-584l224 3l77 141h47l-36 -203z" />
    <glyph glyph-name="lcaron" unicode="&#x13e;" horiz-adv-x="408" 
d="M297 656l-23 35v40h124v-80l-75 -122l-49 10zM163 2l-124 -3l-5 47l58 12v578l-60 -2l-5 48l143 28l62 3v-655l60 -12l-5 -47z" />
    <glyph glyph-name="Ldot" unicode="&#x13f;" horiz-adv-x="607" 
d="M358 465l89 8l35 -8l7 -67l-9 -58l-89 -7l-35 7l-6 68zM173 3l-138 -4l-5 47l78 13v583l-78 13l5 46l138 -3l161 3l5 -46l-78 -13v-584l224 3l77 141h47l-36 -203z" />
    <glyph glyph-name="ldot" unicode="&#x140;" horiz-adv-x="427" 
d="M291 465l89 8l35 -8l7 -67l-10 -58l-89 -7l-34 7l-6 68zM163 2l-124 -3l-5 47l58 12v578l-60 -2l-5 48l143 28l62 3v-655l60 -12l-5 -47z" />
    <glyph glyph-name="Lslash" unicode="&#x141;" horiz-adv-x="607" 
d="M173 3l-138 -4l-5 47l78 13v247l-70 -34v68l70 34v268l-78 13l5 46l138 -3l161 3l5 -46l-78 -13v-192l88 44v-68l-88 -44v-324l224 3l77 141h47l-36 -203z" />
    <glyph glyph-name="lslash" unicode="&#x142;" horiz-adv-x="307" 
d="M163 2l-124 -3l-5 47l58 12v260l-78 -38v66l78 38v252l-60 -2l-5 48l143 28l62 3v-259l78 39v-66l-78 -39v-330l60 -12l-5 -47z" />
    <glyph glyph-name="Nacute" unicode="&#x143;" horiz-adv-x="739" 
d="M326 769l51 136h140l-115 -136h-76zM185 59l74 -13l-3 -47l-109 3l-112 -3l-5 47l78 13v580l-76 16l5 46l82 -3l106 3l322 -412l27 -86v439l-74 13l3 46l109 -3l112 3l5 -46l-78 -13v-645h-75l-368 489l-23 92v-519z" />
    <glyph glyph-name="nacute" unicode="&#x144;" horiz-adv-x="619" 
d="M275 557l43 176h134l-115 -176h-62zM166 2l-124 -3l-5 47l58 12v347l-60 -3l-5 48l143 29l60 3l2 -83l151 95q44 0 73.5 -7.5t47.5 -25t26 -47.5t8 -75v-281l61 -12l-5 -47l-124 3l-111 -3l-5 47l41 12v274q0 59 -53 59q-22 0 -44 -11.5t-43 -26.5l-23 -15v-280l43 -12
l-5 -47z" />
    <glyph glyph-name="Ncommaaccent" unicode="&#x145;" horiz-adv-x="739" 
d="M336 -125l-23 35v40h124v-80l-75 -122l-49 10zM185 59l74 -13l-3 -47l-109 3l-112 -3l-5 47l78 13v580l-76 16l5 46l82 -3l106 3l322 -412l27 -86v439l-74 13l3 46l109 -3l112 3l5 -46l-78 -13v-645h-75l-368 489l-23 92v-519z" />
    <glyph glyph-name="ncommaaccent" unicode="&#x146;" horiz-adv-x="619" 
d="M274 -125l-23 35v40h124v-80l-75 -122l-49 10zM166 2l-124 -3l-5 47l58 12v347l-60 -3l-5 48l143 29l60 3l2 -83l151 95q44 0 73.5 -7.5t47.5 -25t26 -47.5t8 -75v-281l61 -12l-5 -47l-124 3l-111 -3l-5 47l41 12v274q0 59 -53 59q-22 0 -44 -11.5t-43 -26.5l-23 -15
v-280l43 -12l-5 -47z" />
    <glyph glyph-name="Ncaron" unicode="&#x147;" horiz-adv-x="739" 
d="M296 905l63 -52l17 -23l18 23l63 52h82l-115 -136h-96l-114 136h82zM185 59l74 -13l-3 -47l-109 3l-112 -3l-5 47l78 13v580l-76 16l5 46l82 -3l106 3l322 -412l27 -86v439l-74 13l3 46l109 -3l112 3l5 -46l-78 -13v-645h-75l-368 489l-23 92v-519z" />
    <glyph glyph-name="ncaron" unicode="&#x148;" horiz-adv-x="619" 
d="M227 737l68 -76l17 -26l18 26l68 76h62l-112 -176h-71l-112 176h62zM166 2l-124 -3l-5 47l58 12v347l-60 -3l-5 48l143 29l60 3l2 -83l151 95q44 0 73.5 -7.5t47.5 -25t26 -47.5t8 -75v-281l61 -12l-5 -47l-124 3l-111 -3l-5 47l41 12v274q0 59 -53 59q-22 0 -44 -11.5
t-43 -26.5l-23 -15v-280l43 -12l-5 -47z" />
    <glyph glyph-name="napostrophe" unicode="&#x149;" horiz-adv-x="619" 
d="M116 656l-23 35v40h124v-80l-75 -122l-49 10zM166 2l-124 -3l-5 47l58 12v347l-60 -3l-5 48l143 29l60 3l2 -83l151 95q44 0 73.5 -7.5t47.5 -25t26 -47.5t8 -75v-281l61 -12l-5 -47l-124 3l-111 -3l-5 47l41 12v274q0 59 -53 59q-22 0 -44 -11.5t-43 -26.5l-23 -15v-280
l43 -12l-5 -47z" />
    <glyph glyph-name="Eng" unicode="&#x14a;" horiz-adv-x="739" 
d="M185 59l85 -13l-5 -47l-114 3l-116 -3l-5 47l78 13v581l-75 14l5 47l81 -3l100 3l328 -412l27 -71v424l-73 13l5 47l101 -3l117 3l5 -47l-78 -13v-645l-94 -232h-135v95h70l67 107l48 30h-25l-374 489l-23 74v-501z" />
    <glyph glyph-name="eng" unicode="&#x14b;" horiz-adv-x="601" 
d="M273 -235v114h105l7 22q5 17 9 45.5t4 81.5v304q0 59 -53 59q-22 0 -43.5 -12.5t-43.5 -26.5l-23 -14v-280l43 -12l-5 -47l-107 3l-124 -3l-5 47l58 12v347l-60 -3l-5 48l143 29l60 3l2 -83l151 95q44 0 73.5 -7.5t47.5 -25t26 -47.5t8 -75v-293q0 -37 -9 -66.5
t-22.5 -53.5t-30 -42.5t-31.5 -33.5l-85 -85h-90z" />
    <glyph glyph-name="Omacron" unicode="&#x14c;" horiz-adv-x="807" 
d="M266 863h292v-70h-292v70zM415 718q82 0 148 -26.5t112.5 -73.5t72 -111t25.5 -139q0 -84 -21 -147.5t-67 -110t-118.5 -78t-174.5 -50.5q-82 0 -148 26.5t-112.5 73.5t-72 111t-25.5 139q0 84 21 147.5t67 110t118.5 78t174.5 50.5zM200 367q0 -57 12.5 -114t39 -102
t67.5 -73.5t98 -28.5q50 0 86 21t59 59t34 90t11 114q0 56 -12 112.5t-38.5 102.5t-67 74.5t-97.5 28.5q-50 0 -86 -21t-59.5 -58.5t-35 -90t-11.5 -114.5z" />
    <glyph glyph-name="omacron" unicode="&#x14d;" horiz-adv-x="550" 
d="M129 682h292v-70h-292v70zM294 494q49 0 90.5 -17.5t71.5 -49t47 -76.5t17 -99q0 -62 -21 -107.5t-57 -77t-84.5 -51.5t-104.5 -31q-48 0 -89 17.5t-71 49.5t-47 76.5t-17 98.5q0 62 20.5 107.5t56.5 77t84 51.5t104 31zM177 271q0 -111 31.5 -169t75.5 -58
q39 0 61.5 39.5t22.5 124.5q0 58 -8.5 100.5t-23 70.5t-34 42t-41.5 14q-39 0 -61.5 -39.5t-22.5 -124.5z" />
    <glyph glyph-name="Obreve" unicode="&#x14e;" horiz-adv-x="807" 
d="M411 834q22 0 40.5 6.5t33 16t25 20.5t17.5 20l33 -26q-9 -16 -18.5 -30.5t-24 -28t-36.5 -26.5t-55 -26q-32 0 -57.5 10t-46 25.5t-35.5 35.5t-25 40l35 26q7 -9 17.5 -20t24.5 -20.5t31.5 -16t40.5 -6.5zM415 718q82 0 148 -26.5t112.5 -73.5t72 -111t25.5 -139
q0 -84 -21 -147.5t-67 -110t-118.5 -78t-174.5 -50.5q-82 0 -148 26.5t-112.5 73.5t-72 111t-25.5 139q0 84 21 147.5t67 110t118.5 78t174.5 50.5zM200 367q0 -57 12.5 -114t39 -102t67.5 -73.5t98 -28.5q50 0 86 21t59 59t34 90t11 114q0 56 -12 112.5t-38.5 102.5
t-67 74.5t-97.5 28.5q-50 0 -86 -21t-59.5 -58.5t-35 -90t-11.5 -114.5z" />
    <glyph glyph-name="obreve" unicode="&#x14f;" horiz-adv-x="550" 
d="M278 636q22 0 39.5 6.5t31 16.5t24 21.5t17.5 22.5l35 -26q-19 -37 -49 -64.5t-84 -50.5q-32 0 -58 10t-47 26.5t-36 37t-24 41.5l35 26q7 -11 17.5 -22.5t25 -21.5t32.5 -16.5t41 -6.5zM294 494q49 0 90.5 -17.5t71.5 -49t47 -76.5t17 -99q0 -62 -21 -107.5t-57 -77
t-84.5 -51.5t-104.5 -31q-48 0 -89 17.5t-71 49.5t-47 76.5t-17 98.5q0 62 20.5 107.5t56.5 77t84 51.5t104 31zM177 271q0 -111 31.5 -169t75.5 -58q39 0 61.5 39.5t22.5 124.5q0 58 -8.5 100.5t-23 70.5t-34 42t-41.5 14q-39 0 -61.5 -39.5t-22.5 -124.5z" />
    <glyph glyph-name="Ohungarumlaut" unicode="&#x150;" horiz-adv-x="807" 
d="M286 769l51 136h140l-115 -136h-76zM470 769l51 136h140l-115 -136h-76zM415 718q82 0 148 -26.5t112.5 -73.5t72 -111t25.5 -139q0 -84 -21 -147.5t-67 -110t-118.5 -78t-174.5 -50.5q-82 0 -148 26.5t-112.5 73.5t-72 111t-25.5 139q0 84 21 147.5t67 110t118.5 78
t174.5 50.5zM200 367q0 -57 12.5 -114t39 -102t67.5 -73.5t98 -28.5q50 0 86 21t59 59t34 90t11 114q0 56 -12 112.5t-38.5 102.5t-67 74.5t-97.5 28.5q-50 0 -86 -21t-59.5 -58.5t-35 -90t-11.5 -114.5z" />
    <glyph glyph-name="ohungarumlaut" unicode="&#x151;" horiz-adv-x="550" 
d="M158 557l43 170h134l-115 -170h-62zM339 557l43 170h134l-115 -170h-62zM294 494q49 0 90.5 -17.5t71.5 -49t47 -76.5t17 -99q0 -62 -21 -107.5t-57 -77t-84.5 -51.5t-104.5 -31q-48 0 -89 17.5t-71 49.5t-47 76.5t-17 98.5q0 62 20.5 107.5t56.5 77t84 51.5t104 31z
M177 271q0 -111 31.5 -169t75.5 -58q39 0 61.5 39.5t22.5 124.5q0 58 -8.5 100.5t-23 70.5t-34 42t-41.5 14q-39 0 -61.5 -39.5t-22.5 -124.5z" />
    <glyph glyph-name="OE" unicode="&#x152;" horiz-adv-x="1006" 
d="M482 58v582l-104 11q-48 0 -82.5 -22.5t-56 -61.5t-32 -91t-10.5 -110q0 -66 17.5 -124t48 -100.5t71 -67.5t86.5 -25zM389 -15q-81 0 -146.5 26t-112 72.5t-71.5 110t-25 138.5q0 83 20 146t65 108.5t117 77t176 51.5l137 -15l408 2l11 -183h-46l-59 121l-228 3v-247
l111 4l40 107h44l-10 -137l10 -141h-44l-40 106l-111 4v-281l234 3l71 126h47l-36 -188l-404 2z" />
    <glyph glyph-name="oe" unicode="&#x153;" horiz-adv-x="831" 
d="M510 248q0 -75 40 -120t109 -45q36 0 67 12t53 26l23 -44q-36 -29 -80 -52t-101 -40q-57 0 -104.5 19t-80.5 56q-35 -30 -82 -48t-101 -27q-48 0 -89 18t-71 50.5t-47 78t-17 101.5q0 61 20.5 106t56.5 76.5t84 50.5t104 28q51 0 93 -20t72 -56q57 53 154 76
q52 0 87.5 -16.5t57.5 -44t32 -64t10 -75.5v-46h-290zM175 271q0 -56 8.5 -98t23.5 -71t35 -43.5t42 -14.5q41 0 63.5 39.5t22.5 124.5q0 58 -8.5 100.5t-23.5 70.5t-35 42t-42 14q-41 0 -63.5 -39.5t-22.5 -124.5zM670 308q0 59 -15 89.5t-57 30.5q-41 0 -63.5 -37
t-25.5 -92z" />
    <glyph glyph-name="Racute" unicode="&#x154;" horiz-adv-x="713" 
d="M295 769l51 136h140l-115 -136h-76zM261 319v-260l76 -13l-5 -47l-147 3l-150 -3l-5 47l78 13v583l-78 13l5 46l148 -3l223 3q45 0 85 -11t69 -33t46 -54.5t17 -75.5q0 -40 -17.5 -71t-47.5 -54t-70 -38.5t-84 -24.5l106 -49l150 -229l48 -16l-4 -46l-109 3l-82 -3
l-194 309l-13 11h-45zM261 376h65q28 0 52.5 10t42.5 28.5t28.5 45t10.5 59.5q0 66 -35.5 99t-87.5 34l-76 -7v-269z" />
    <glyph glyph-name="racute" unicode="&#x155;" horiz-adv-x="436" 
d="M210 557l42 176h134l-114 -176h-62zM226 327l106 162h92v-137h-101q-19 -8 -38 -25.5t-39 -40.5l-13 -15v-212l107 -12l-5 -48l-170 3l-125 -3l-5 47l59 12v347l-59 -3l-5 48l131 29l54 3z" />
    <glyph glyph-name="Rcommaaccent" unicode="&#x156;" horiz-adv-x="713" 
d="M323 -125l-23 35v40h124v-80l-75 -122l-49 10zM261 319v-260l76 -13l-5 -47l-147 3l-150 -3l-5 47l78 13v583l-78 13l5 46l148 -3l223 3q45 0 85 -11t69 -33t46 -54.5t17 -75.5q0 -40 -17.5 -71t-47.5 -54t-70 -38.5t-84 -24.5l106 -49l150 -229l48 -16l-4 -46l-109 3
l-82 -3l-194 309l-13 11h-45zM261 376h65q28 0 52.5 10t42.5 28.5t28.5 45t10.5 59.5q0 66 -35.5 99t-87.5 34l-76 -7v-269z" />
    <glyph glyph-name="rcommaaccent" unicode="&#x157;" horiz-adv-x="436" 
d="M124 -125l-23 35v40h124v-80l-75 -122l-49 10zM226 327l106 162h92v-137h-101q-19 -8 -38 -25.5t-39 -40.5l-13 -15v-212l107 -12l-5 -48l-170 3l-125 -3l-5 47l59 12v347l-59 -3l-5 48l131 29l54 3z" />
    <glyph glyph-name="Rcaron" unicode="&#x158;" horiz-adv-x="713" 
d="M260 905l63 -52l17 -23l18 23l63 52h82l-115 -136h-96l-114 136h82zM261 319v-260l76 -13l-5 -47l-147 3l-150 -3l-5 47l78 13v583l-78 13l5 46l148 -3l223 3q45 0 85 -11t69 -33t46 -54.5t17 -75.5q0 -40 -17.5 -71t-47.5 -54t-70 -38.5t-84 -24.5l106 -49l150 -229
l48 -16l-4 -46l-109 3l-82 -3l-194 309l-13 11h-45zM261 376h65q28 0 52.5 10t42.5 28.5t28.5 45t10.5 59.5q0 66 -35.5 99t-87.5 34l-76 -7v-269z" />
    <glyph glyph-name="rcaron" unicode="&#x159;" horiz-adv-x="436" 
d="M156 737l68 -76l17 -26l18 26l68 76h62l-112 -176h-71l-112 176h62zM226 327l106 162h92v-137h-101q-19 -8 -38 -25.5t-39 -40.5l-13 -15v-212l107 -12l-5 -48l-170 3l-125 -3l-5 47l59 12v347l-59 -3l-5 48l131 29l54 3z" />
    <glyph glyph-name="Sacute" unicode="&#x15a;" horiz-adv-x="578" 
d="M266 769l51 136h140l-115 -136h-76zM150 121q23 -27 57.5 -47t76.5 -20q51 0 82 28t31 77q0 71 -89 113l-123 60q-62 30 -100 71t-38 106q0 35 14.5 66.5t46 58t81 48t118.5 36.5q54 0 109.5 -15.5t97.5 -42.5v-156h-71l-29 92q-20 21 -48 37t-70 16q-55 0 -83.5 -25
t-28.5 -62q0 -34 20 -56.5t58 -40.5l129 -63q42 -20 71 -40.5t46.5 -43t25.5 -48.5t8 -58q0 -86 -68.5 -141t-206.5 -89q-61 0 -115 18.5t-99 49.5l-22 162h85z" />
    <glyph glyph-name="sacute" unicode="&#x15b;" horiz-adv-x="448" 
d="M196 557l43 176h134l-115 -176h-62zM320 401q-11 11 -30 22t-46 11q-32 0 -50.5 -14t-18.5 -35q0 -22 16 -37t58 -35l74 -36q46 -22 70.5 -53.5t24.5 -78.5q0 -36 -13.5 -61t-39.5 -43.5t-64.5 -31.5t-88.5 -24q-35 0 -80 12t-80 27l-19 142h66l27 -77q18 -17 42 -29
t48 -12q32 0 49.5 14.5t17.5 41.5q0 23 -13 37.5t-49 32.5l-74 38q-43 22 -70.5 52t-27.5 76q0 27 10 49.5t33 41.5t61.5 34t95.5 29q63 0 99 -12.5t53 -23.5v-127h-58z" />
    <glyph glyph-name="Scircumflex" unicode="&#x15c;" horiz-adv-x="578" 
d="M145 769l115 136h96l115 -136h-82l-63 53l-18 23l-18 -23l-63 -53h-82zM150 121q23 -27 57.5 -47t76.5 -20q51 0 82 28t31 77q0 71 -89 113l-123 60q-62 30 -100 71t-38 106q0 35 14.5 66.5t46 58t81 48t118.5 36.5q54 0 109.5 -15.5t97.5 -42.5v-156h-71l-29 92
q-20 21 -48 37t-70 16q-55 0 -83.5 -25t-28.5 -62q0 -34 20 -56.5t58 -40.5l129 -63q42 -20 71 -40.5t46.5 -43t25.5 -48.5t8 -58q0 -86 -68.5 -141t-206.5 -89q-61 0 -115 18.5t-99 49.5l-22 162h85z" />
    <glyph glyph-name="scircumflex" unicode="&#x15d;" horiz-adv-x="448" 
d="M95 557l111 176h72l112 -176h-62l-68 76l-18 26l-17 -26l-68 -76h-62zM320 401q-11 11 -30 22t-46 11q-32 0 -50.5 -14t-18.5 -35q0 -22 16 -37t58 -35l74 -36q46 -22 70.5 -53.5t24.5 -78.5q0 -36 -13.5 -61t-39.5 -43.5t-64.5 -31.5t-88.5 -24q-35 0 -80 12t-80 27
l-19 142h66l27 -77q18 -17 42 -29t48 -12q32 0 49.5 14.5t17.5 41.5q0 23 -13 37.5t-49 32.5l-74 38q-43 22 -70.5 52t-27.5 76q0 27 10 49.5t33 41.5t61.5 34t95.5 29q63 0 99 -12.5t53 -23.5v-127h-58z" />
    <glyph glyph-name="Scedilla" unicode="&#x15e;" horiz-adv-x="578" 
d="M150 121q23 -27 57.5 -47t76.5 -20q51 0 82 28t31 77q0 71 -89 113l-123 60q-62 30 -100 71t-38 106q0 35 14.5 66.5t46 58t81 48t118.5 36.5q54 0 109.5 -15.5t97.5 -42.5v-156h-71l-29 92q-20 21 -48 37t-70 16q-55 0 -83.5 -25t-28.5 -62q0 -34 20 -56.5t58 -40.5
l129 -63q42 -20 71 -40.5t46.5 -43t25.5 -48.5t8 -58q0 -81 -60.5 -134.5t-184.5 -87.5l-23 -37q35 0 58 -17t23 -50q0 -25 -10 -43.5t-25.5 -32t-33.5 -22.5t-34 -15l-51 -19h-61l29 46h68q14 10 20.5 26.5t6.5 33.5t-6.5 28.5t-16 18.5t-21.5 10t-24 3l46 64
q-54 3 -101.5 20.5t-87.5 45.5l-22 162h85z" />
    <glyph glyph-name="scedilla" unicode="&#x15f;" horiz-adv-x="448" 
d="M320 401q-11 11 -30 22t-46 11q-32 0 -50.5 -14t-18.5 -35q0 -22 16 -37t58 -35l74 -36q46 -22 70.5 -53.5t24.5 -78.5q0 -65 -43.5 -98.5t-128.5 -53.5l-25 -40q35 0 58 -17t23 -50q0 -25 -10 -43.5t-25.5 -32t-33.5 -22.5t-34 -15l-51 -19h-61l29 46h68
q14 10 20.5 26.5t6.5 33.5t-6.5 28.5t-16 18.5t-21.5 10t-24 3l48 66q-35 3 -73 14t-66 24l-19 142h66l27 -77q18 -17 42 -29t48 -12q32 0 49.5 14.5t17.5 41.5q0 23 -13 37.5t-49 32.5l-74 38q-43 22 -70.5 52t-27.5 76q0 27 10 49.5t33 41.5t61.5 34t95.5 29
q63 0 99 -12.5t53 -23.5v-127h-58z" />
    <glyph glyph-name="Scaron" unicode="&#x160;" horiz-adv-x="578" 
d="M221 905l63 -52l17 -23l18 23l63 52h82l-115 -136h-96l-114 136h82zM150 121q23 -27 57.5 -47t76.5 -20q51 0 82 28t31 77q0 71 -89 113l-123 60q-62 30 -100 71t-38 106q0 35 14.5 66.5t46 58t81 48t118.5 36.5q54 0 109.5 -15.5t97.5 -42.5v-156h-71l-29 92
q-20 21 -48 37t-70 16q-55 0 -83.5 -25t-28.5 -62q0 -34 20 -56.5t58 -40.5l129 -63q42 -20 71 -40.5t46.5 -43t25.5 -48.5t8 -58q0 -86 -68.5 -141t-206.5 -89q-61 0 -115 18.5t-99 49.5l-22 162h85z" />
    <glyph glyph-name="scaron" unicode="&#x161;" horiz-adv-x="448" 
d="M156 737l69 -76l17 -26l17 26l69 76h62l-112 -176h-72l-112 176h62zM320 401q-11 11 -30 22t-46 11q-32 0 -50.5 -14t-18.5 -35q0 -22 16 -37t58 -35l74 -36q46 -22 70.5 -53.5t24.5 -78.5q0 -36 -13.5 -61t-39.5 -43.5t-64.5 -31.5t-88.5 -24q-35 0 -80 12t-80 27
l-19 142h66l27 -77q18 -17 42 -29t48 -12q32 0 49.5 14.5t17.5 41.5q0 23 -13 37.5t-49 32.5l-74 38q-43 22 -70.5 52t-27.5 76q0 27 10 49.5t33 41.5t61.5 34t95.5 29q63 0 99 -12.5t53 -23.5v-127h-58z" />
    <glyph glyph-name="Tcommaaccent" unicode="&#x162;" horiz-adv-x="629" 
d="M275 -125l-23 35v40h124v-80l-75 -122l-49 10zM492 -1l-177 3l-180 -3l-5 47l108 13v584l-123 -3l-49 -141h-51v202l305 -3l294 3v-202h-51l-49 141l-123 3v-584l106 -13z" />
    <glyph glyph-name="tcommaaccent" unicode="&#x163;" horiz-adv-x="393" 
d="M159 -125l-23 35v40h124v-80l-75 -122l-49 10zM5 406v18l39 40h53v69l92 74h45v-147h136v-54h-135v-268q0 -27 13.5 -44.5t37.5 -17.5q23 0 41 7t39 18l21 -45l-133 -71q-33 0 -62 6.5t-50.5 22.5t-34 42.5t-12.5 66.5v283h-90z" />
    <glyph glyph-name="Tcaron" unicode="&#x164;" horiz-adv-x="629" 
d="M234 905l63 -52l17 -23l18 23l63 52h82l-115 -136h-95l-115 136h82zM492 -1l-177 3l-180 -3l-5 47l108 13v584l-123 -3l-49 -141h-51v202l305 -3l294 3v-202h-51l-49 141l-123 3v-584l106 -13z" />
    <glyph glyph-name="tcaron" unicode="&#x165;" horiz-adv-x="413" 
d="M306 656l-23 35v40h124v-80l-75 -122l-49 10zM5 406v18l39 40h53v69l92 74h45v-147h136v-54h-135v-268q0 -27 13.5 -44.5t37.5 -17.5q23 0 41 7t39 18l21 -45l-133 -71q-33 0 -62 6.5t-50.5 22.5t-34 42.5t-12.5 66.5v283h-90z" />
    <glyph glyph-name="Tbar" unicode="&#x166;" horiz-adv-x="629" 
d="M492 -1l-177 3l-180 -3l-5 47l108 13v352h-89v52h89v180l-123 -3l-49 -141h-51v202l305 -3l294 3v-202h-51l-49 141l-123 3v-180h90v-52h-90v-352l106 -13z" />
    <glyph glyph-name="tbar" unicode="&#x167;" horiz-adv-x="393" 
d="M5 406v18l39 40h53v69l92 74h45v-147h136v-54h-135v-76h108v-49h-108v-143q0 -27 13.5 -44.5t37.5 -17.5q23 0 41 7t39 18l21 -45l-133 -71q-33 0 -62 6.5t-50.5 22.5t-34 42.5t-12.5 66.5v158h-75v49h75v76h-90z" />
    <glyph glyph-name="Utilde" unicode="&#x168;" horiz-adv-x="746" 
d="M250 879l75 22l174 -50l32 50h34l-29 -112l-74 -19l-175 51l-31 -51h-34zM482 655l5 46l128 -3l114 3l5 -46l-79 -13v-390q0 -50 -11.5 -91.5t-40.5 -75.5t-77.5 -59.5t-123.5 -43.5q-85 0 -143.5 19t-94.5 54t-52 84t-16 109v394l-78 13l5 46l135 -3l161 3l5 -46
l-73 -13v-394q0 -90 39 -140t119 -50q77 0 117 50.5t40 141.5v392z" />
    <glyph glyph-name="utilde" unicode="&#x169;" horiz-adv-x="590" 
d="M154 694l75 22l175 -53l29 51h36l-29 -114l-74 -17l-176 53l-28 -51h-36zM509 134q0 -29 3.5 -44t9.5 -26h42l4 -47l-164 -28l-29 88l-140 -92q-46 0 -77 7.5t-49.5 25.5t-26.5 47.5t-8 73.5v266l-56 -5l-5 49l131 30l73 4v-329q0 -32 14 -48t46 -16q16 0 35 9t39 23
l18 12v271l-52 -5l-5 49l124 30l73 4v-349z" />
    <glyph glyph-name="Umacron" unicode="&#x16a;" horiz-adv-x="746" 
d="M252 863h292v-70h-292v70zM482 655l5 46l128 -3l114 3l5 -46l-79 -13v-390q0 -50 -11.5 -91.5t-40.5 -75.5t-77.5 -59.5t-123.5 -43.5q-85 0 -143.5 19t-94.5 54t-52 84t-16 109v394l-78 13l5 46l135 -3l161 3l5 -46l-73 -13v-394q0 -90 39 -140t119 -50q77 0 117 50.5
t40 141.5v392z" />
    <glyph glyph-name="umacron" unicode="&#x16b;" horiz-adv-x="590" 
d="M153 682h292v-70h-292v70zM509 134q0 -29 3.5 -44t9.5 -26h42l4 -47l-164 -28l-29 88l-140 -92q-46 0 -77 7.5t-49.5 25.5t-26.5 47.5t-8 73.5v266l-56 -5l-5 49l131 30l73 4v-329q0 -32 14 -48t46 -16q16 0 35 9t39 23l18 12v271l-52 -5l-5 49l124 30l73 4v-349z" />
    <glyph glyph-name="Ubreve" unicode="&#x16c;" horiz-adv-x="746" 
d="M394 834q22 0 40.5 6.5t33 16t25 20.5t17.5 20l33 -26q-9 -16 -18.5 -30.5t-24 -28t-36.5 -26.5t-55 -26q-32 0 -57.5 10t-46 25.5t-35.5 35.5t-25 40l35 26q7 -9 17.5 -20t24.5 -20.5t31.5 -16t40.5 -6.5zM482 655l5 46l128 -3l114 3l5 -46l-79 -13v-390
q0 -50 -11.5 -91.5t-40.5 -75.5t-77.5 -59.5t-123.5 -43.5q-85 0 -143.5 19t-94.5 54t-52 84t-16 109v394l-78 13l5 46l135 -3l161 3l5 -46l-73 -13v-394q0 -90 39 -140t119 -50q77 0 117 50.5t40 141.5v392z" />
    <glyph glyph-name="ubreve" unicode="&#x16d;" horiz-adv-x="590" 
d="M300 636q22 0 39.5 6.5t31.5 16.5t24.5 21.5t17.5 22.5l35 -26q-19 -37 -49 -64.5t-85 -50.5q-32 0 -58 10t-47 26.5t-36 37t-23 41.5l35 26q7 -11 17.5 -22.5t24.5 -21.5t32 -16.5t41 -6.5zM509 134q0 -29 3.5 -44t9.5 -26h42l4 -47l-164 -28l-29 88l-140 -92
q-46 0 -77 7.5t-49.5 25.5t-26.5 47.5t-8 73.5v266l-56 -5l-5 49l131 30l73 4v-329q0 -32 14 -48t46 -16q16 0 35 9t39 23l18 12v271l-52 -5l-5 49l124 30l73 4v-349z" />
    <glyph glyph-name="Uring" unicode="&#x16e;" horiz-adv-x="746" 
d="M513 846q0 -28 -9 -45.5t-25 -28.5t-36.5 -17.5t-42.5 -12.5q-21 0 -42 5t-37.5 17t-27 31.5t-10.5 48.5q0 26 9.5 43.5t25.5 29.5t37 19.5t43 13.5q23 0 44 -5.5t36.5 -17.5t25 -32t9.5 -49zM339 845q0 -26 16.5 -41.5t42.5 -15.5t43 15.5t17 41.5q0 25 -17 42t-43 17
t-42.5 -17t-16.5 -42zM482 655l5 46l128 -3l114 3l5 -46l-79 -13v-390q0 -50 -11.5 -91.5t-40.5 -75.5t-77.5 -59.5t-123.5 -43.5q-85 0 -143.5 19t-94.5 54t-52 84t-16 109v394l-78 13l5 46l135 -3l161 3l5 -46l-73 -13v-394q0 -90 39 -140t119 -50q77 0 117 50.5t40 141.5
v392z" />
    <glyph glyph-name="uring" unicode="&#x16f;" horiz-adv-x="590" 
d="M412 648q0 -28 -9 -45t-24 -27.5t-35.5 -16.5t-43.5 -13q-21 0 -42.5 5t-38 17t-27 31.5t-10.5 48.5q0 26 9.5 43.5t25.5 29.5t37 19.5t43 13.5q24 0 45 -5t36.5 -17.5t24.5 -33t9 -50.5zM239 648q0 -25 17 -40t42 -15t41.5 15t16.5 40q0 24 -16.5 41.5t-41.5 17.5
t-42 -17.5t-17 -41.5zM509 134q0 -29 3.5 -44t9.5 -26h42l4 -47l-164 -28l-29 88l-140 -92q-46 0 -77 7.5t-49.5 25.5t-26.5 47.5t-8 73.5v266l-56 -5l-5 49l131 30l73 4v-329q0 -32 14 -48t46 -16q16 0 35 9t39 23l18 12v271l-52 -5l-5 49l124 30l73 4v-349z" />
    <glyph glyph-name="Uhungarumlaut" unicode="&#x170;" horiz-adv-x="746" 
d="M256 769l51 136h140l-115 -136h-76zM440 769l51 136h140l-115 -136h-76zM482 655l5 46l128 -3l114 3l5 -46l-79 -13v-390q0 -50 -11.5 -91.5t-40.5 -75.5t-77.5 -59.5t-123.5 -43.5q-85 0 -143.5 19t-94.5 54t-52 84t-16 109v394l-78 13l5 46l135 -3l161 3l5 -46l-73 -13
v-394q0 -90 39 -140t119 -50q77 0 117 50.5t40 141.5v392z" />
    <glyph glyph-name="uhungarumlaut" unicode="&#x171;" horiz-adv-x="590" 
d="M165 557l43 170h134l-115 -170h-62zM346 557l43 170h134l-115 -170h-62zM509 134q0 -29 3.5 -44t9.5 -26h42l4 -47l-164 -28l-29 88l-140 -92q-46 0 -77 7.5t-49.5 25.5t-26.5 47.5t-8 73.5v266l-56 -5l-5 49l131 30l73 4v-329q0 -32 14 -48t46 -16q16 0 35 9t39 23
l18 12v271l-52 -5l-5 49l124 30l73 4v-349z" />
    <glyph glyph-name="Uogonek" unicode="&#x172;" horiz-adv-x="746" 
d="M479 655l5 46l128 -3l114 3l5 -46l-79 -13v-390q0 -73 -27 -128.5t-98 -92.5l-86 -139v-29q0 -13 3 -25.5t12 -22t25.5 -15t43.5 -5.5v-41q-101 0 -143.5 25.5t-42.5 75.5v56l116 90q-4 -2 -12 -4.5l-16 -5l-16 -5t-12 -3.5q-85 0 -143.5 19t-94.5 54t-52 84t-16 108v394
l-78 13l5 46l135 -3l161 3l5 -46l-73 -13v-394q0 -89 39 -139t119 -50q77 0 117 50t40 141v392z" />
    <glyph glyph-name="uogonek" unicode="&#x173;" horiz-adv-x="590" 
d="M405 -137q0 -13 3.5 -25.5t14.5 -22t30 -15t51 -5.5v-41q-110 0 -155.5 25.5t-45.5 75.5v62l99 78l-27 82l-140 -92q-46 0 -77 7.5t-49.5 25.5t-26.5 47.5t-8 73.5v266l-56 -5l-5 49l131 30l73 4v-329q0 -32 14 -48t46 -16q16 0 35 9t39 23l18 12v271l-52 -5l-5 49
l124 30l73 4v-349q0 -29 3.5 -44t9.5 -26h42l4 -47l-97 -16l-66 -109v-29z" />
    <glyph glyph-name="Wcircumflex" unicode="&#x174;" horiz-adv-x="1032" 
d="M612 769l-63 53l-18 23l-18 -23l-63 -53h-82l115 136h96l115 -136h-82zM667 -17l-139 424l-3 68l-144 -464l-93 -28l-220 659l-61 13l5 46l164 -3l119 3l5 -46l-75 -13l135 -420l1 -73l121 395l-32 98l-51 13l5 46l154 -3l116 3l5 -46l-73 -13l135 -422l4 -72l144 494
l-81 13l5 46l102 -3l105 3l5 -46l-64 -13l-199 -631z" />
    <glyph glyph-name="wcircumflex" unicode="&#x175;" horiz-adv-x="870" 
d="M303 557l112 176h71l112 -176h-62l-68 76l-17 26l-18 -26l-68 -76h-62zM448 249l-6 70l-111 -305l-108 -29l-169 437l-49 12l5 46l128 -3l108 3l5 -46l-49 -12l87 -261l8 -77l104 286l-20 52l-42 12l5 46l120 -3l108 3l5 -46l-49 -12l88 -261l8 -77l112 338l-46 12l5 46
l83 -3l82 3l5 -46l-58 -12l-150 -408l-108 -29z" />
    <glyph glyph-name="Ycircumflex" unicode="&#x176;" horiz-adv-x="724" 
d="M470 769l-63 53l-18 23l-17 -23l-63 -53h-82l115 136h95l115 -136h-82zM441 275v-216l109 -13l-5 -47l-180 3l-183 -3l-5 47l111 13v217l-216 367l-67 12l5 46l147 -3l147 3l5 -46l-73 -13l161 -270l1 -49l175 319l-75 13l5 46l110 -3l101 3l5 -46l-66 -12z" />
    <glyph glyph-name="ycircumflex" unicode="&#x177;" horiz-adv-x="567" 
d="M164 557l112 176h72l112 -176h-62l-69 76l-17 26l-17 -26l-69 -76h-62zM87 -235v134h118l100 136l-89 -29l-161 417l-50 10l5 47l133 -3l114 3l5 -47l-54 -10l96 -260l12 -85l105 344l-47 10l5 48l93 -3l85 3l5 -48l-59 -10l-147 -397l-115 -260h-154z" />
    <glyph glyph-name="Ydieresis" unicode="&#x178;" horiz-adv-x="724" 
d="M224 882l73 6l29 -6l7 -58l-12 -49l-71 -6l-31 6l-6 58zM457 882l72 6l30 -6l6 -58l-12 -49l-71 -6l-30 6l-7 58zM441 275v-216l109 -13l-5 -47l-180 3l-183 -3l-5 47l111 13v217l-216 367l-67 12l5 46l147 -3l147 3l5 -46l-73 -13l161 -270l1 -49l175 319l-75 13l5 46
l110 -3l101 3l5 -46l-66 -12z" />
    <glyph glyph-name="Zacute" unicode="&#x179;" horiz-adv-x="593" 
d="M267 769l51 136h140l-115 -136h-76zM518 202h60l-36 -202h-512l-13 52l349 555l49 35l-258 -5l-49 -128h-56v191h499l11 -47l-352 -562l-49 -34l283 5z" />
    <glyph glyph-name="zacute" unicode="&#x17a;" horiz-adv-x="495" 
d="M218 557l43 176h134l-115 -176h-62zM42 0l-16 36l249 365l41 30l-174 -9l-33 -98h-52v155h394l17 -34l-246 -365l-40 -31l181 10l50 113h57l-28 -172h-400z" />
    <glyph glyph-name="Zdotaccent" unicode="&#x17b;" horiz-adv-x="593" 
d="M252 887l70 5l45 -6l6 -65l-13 -55l-67 -7l-47 7l-6 65zM518 202h60l-36 -202h-512l-13 52l349 555l49 35l-258 -5l-49 -128h-56v191h499l11 -47l-352 -562l-49 -34l283 5z" />
    <glyph glyph-name="zdotaccent" unicode="&#x17c;" horiz-adv-x="495" 
d="M210 717l71 5l44 -6l6 -65l-13 -55l-67 -7l-46 7l-7 65zM42 0l-16 36l249 365l41 30l-174 -9l-33 -98h-52v155h394l17 -34l-246 -365l-40 -31l181 10l50 113h57l-28 -172h-400z" />
    <glyph glyph-name="Zcaron" unicode="&#x17d;" horiz-adv-x="593" 
d="M474 905l-115 -136h-95l-115 136h82l63 -52l17 -23l18 23l63 52h82zM518 202h60l-36 -202h-512l-13 52l349 555l49 35l-258 -5l-49 -128h-56v191h499l11 -47l-352 -562l-49 -34l283 5z" />
    <glyph glyph-name="zcaron" unicode="&#x17e;" horiz-adv-x="495" 
d="M176 731l68 -76l18 -26l17 26l68 76h62l-111 -176h-72l-112 176h62zM42 0l-16 36l249 365l41 30l-174 -9l-33 -98h-52v155h394l17 -34l-246 -365l-40 -31l181 10l50 113h57l-28 -172h-400z" />
    <glyph glyph-name="longs" unicode="&#x17f;" horiz-adv-x="387" 
d="M243 58l103 -11l-5 -48l-186 2l-105 -2l-5 47l58 12v345h-81v22l35 41h46v11q0 41 15 72t45 61l103 100h138v-99h-130l-15 -24q-10 -16 -13 -40.5t-3 -61.5v-427z" />
    <glyph glyph-name="florin" unicode="&#x192;" horiz-adv-x="384" 
d="M102 403h-81v22l36 41h45v11q0 41 15 72t45 61l103 101h138v-98h-128l-16 -25q-11 -17 -14 -40.5t-3 -60.5v-26h129v-58h-129v-357q0 -37 -9 -66.5t-22.5 -53.5t-30 -42.5t-31.5 -33.5l-82 -85h-84v112h91l11 24q4 9 7.5 18t5.5 23t3 34t1 50v377z" />
    <glyph glyph-name="Aringacute" unicode="&#x1fa;" horiz-adv-x="740" 
d="M364 735q-21 0 -42 5t-37.5 17t-27 31.5t-10.5 48.5q0 26 10 43.5t26.5 29t37.5 19.5t44 14l30 48h108l-79 -61q23 -11 38 -33t15 -59q0 -27 -9 -44.5t-25 -28.5t-36.5 -17.5t-42.5 -12.5zM302 838q0 -26 17.5 -42t43.5 -16t43 16t17 42q0 25 -17 42.5t-43 17.5
t-43.5 -17.5t-17.5 -42.5zM205 226l-56 -167l78 -13l-5 -47l-109 3l-101 -3l-5 47l63 12l231 628l127 28l236 -657l69 -11l-5 -47l-178 3l-120 -3l-5 47l73 13l-57 167h-236zM333 544l-3 57l-106 -320h198z" />
    <glyph glyph-name="aringacute" unicode="&#x1fb;" horiz-adv-x="513" 
d="M378 650q0 -28 -9 -45.5t-25 -28.5t-36.5 -17.5t-42.5 -12.5q-21 0 -42 5t-37.5 17t-27 31.5t-10.5 48.5q0 26 9.5 43.5t26 29.5t38 19.5t44.5 13.5l19 44h120l-74 -59q21 -11 34 -32.5t13 -56.5zM204 649q0 -26 16.5 -41.5t42.5 -15.5t43 15.5t17 41.5q0 25 -17 42
t-43 17t-42.5 -17t-16.5 -42zM297 247l-105 -43q-12 -12 -17.5 -30.5t-5.5 -35.5q0 -36 16.5 -52t34.5 -16q15 0 28 7t23 13l26 18v139zM253 494q52 0 88 -7.5t58 -25.5t31.5 -47.5t9.5 -73.5v-194q0 -30 3 -46t10 -29h48l7 -47l-173 -35l-32 80l-115 -84q-35 0 -64 9.5
t-50 27t-32.5 42t-11.5 55.5q0 32 12.5 57t32.5 45l222 71v57q0 46 -12.5 62.5t-38.5 16.5q-17 0 -32.5 -4t-28.5 -11l-15 -98h-125v94z" />
    <glyph glyph-name="AEacute" unicode="&#x1fc;" horiz-adv-x="1038" 
d="M563 769l51 136h140l-115 -136h-76zM514 362v285l-173 -285h173zM157 58l71 -13l-5 -45l-112 3l-101 -3l-5 45l66 11l418 645l97 -2l396 3l10 -183h-45l-60 121l-226 3v-277l111 4l40 107h44l-10 -137l10 -141h-44l-40 106l-111 4v-251l234 3l71 126h47l-36 -188l-398 2
l-138 -2l-5 47l78 13v250h-203z" />
    <glyph glyph-name="aeacute" unicode="&#x1fd;" horiz-adv-x="744" 
d="M361 557l42 176h134l-114 -176h-62zM422 248q0 -75 40 -120t109 -45q37 0 68 12t52 26l24 -44q-37 -29 -81 -52t-101 -40q-65 0 -118 24.5t-86 72.5l-141 -97q-34 0 -63 9.5t-50 26.5t-33 41.5t-12 54.5q0 35 12.5 59.5t32.5 44.5l219 70v58q0 45 -9.5 62t-33.5 17
q-19 0 -36.5 -4.5t-31.5 -10.5l-14 -88h-121v84l198 85q62 0 101.5 -10.5t60.5 -37.5q48 30 117 48q52 0 88 -16.5t58 -44t31.5 -64t9.5 -75.5v-46h-290zM583 308q0 59 -15 89.5t-57 30.5t-64.5 -37t-24.5 -92zM293 241l-101 -42q-11 -11 -17 -28t-6 -35q0 -32 15.5 -46.5
t34.5 -14.5q14 0 27.5 7.5t22.5 13.5l24 17v128z" />
    <glyph glyph-name="Oslashacute" unicode="&#x1fe;" horiz-adv-x="807" 
d="M415 718q60 0 112 -15t94 -42l45 54h74l-73 -89q51 -48 78.5 -114t27.5 -144q0 -84 -21 -147.5t-67 -110t-118.5 -78t-174.5 -50.5q-62 0 -114 15t-94 42l-45 -54h-76l75 91q-50 48 -77 113t-27 143q0 84 21 147.5t67 110t118.5 78t174.5 50.5zM607 333q0 46 -8.5 92
t-25.5 88l-311 -379q26 -38 64.5 -61.5t90.5 -23.5q50 0 86 21t59 59t34 90t11 114zM200 367q0 -46 7.5 -91.5t24.5 -85.5l312 377q-26 38 -63.5 61t-88.5 23q-50 0 -86 -21t-59.5 -58.5t-35 -90t-11.5 -114.5zM365 769l51 136h140l-115 -136h-76z" />
    <glyph glyph-name="oslashacute" unicode="&#x1ff;" horiz-adv-x="565" 
d="M299 494q40 0 74 -12t63 -33l33 37h63l-62 -70q26 -31 40.5 -72.5t14.5 -91.5q0 -62 -21 -107.5t-57 -77t-84.5 -51.5t-104.5 -31q-38 0 -71 10.5t-61 30.5l-32 -36h-65l62 70q-27 32 -42 74t-15 93q0 62 20.5 107.5t56.5 77t84 51.5t104 31zM182 271q0 -53 8 -99
l162 182q-15 42 -37.5 61.5t-48.5 19.5q-39 0 -61.5 -39.5t-22.5 -124.5zM373 208q0 26 -2 48t-5 42l-160 -181q15 -36 36.5 -54.5t46.5 -18.5q39 0 61.5 39.5t22.5 124.5zM261 557l42 176h134l-114 -176h-62z" />
    <glyph glyph-name="Scommaaccent" unicode="&#x218;" horiz-adv-x="578" 
d="M242 -125l-23 35v40h124v-80l-75 -122l-49 10zM150 121q23 -27 57.5 -47t76.5 -20q51 0 82 28t31 77q0 71 -89 113l-123 60q-62 30 -100 71t-38 106q0 35 14.5 66.5t46 58t81 48t118.5 36.5q54 0 109.5 -15.5t97.5 -42.5v-156h-71l-29 92q-20 21 -48 37t-70 16
q-55 0 -83.5 -25t-28.5 -62q0 -34 20 -56.5t58 -40.5l129 -63q42 -20 71 -40.5t46.5 -43t25.5 -48.5t8 -58q0 -86 -68.5 -141t-206.5 -89q-61 0 -115 18.5t-99 49.5l-22 162h85z" />
    <glyph glyph-name="scommaaccent" unicode="&#x219;" horiz-adv-x="448" 
d="M178 -125l-23 35v40h124v-80l-75 -122l-49 10zM320 401q-11 11 -30 22t-46 11q-32 0 -50.5 -14t-18.5 -35q0 -22 16 -37t58 -35l74 -36q46 -22 70.5 -53.5t24.5 -78.5q0 -36 -13.5 -61t-39.5 -43.5t-64.5 -31.5t-88.5 -24q-35 0 -80 12t-80 27l-19 142h66l27 -77
q18 -17 42 -29t48 -12q32 0 49.5 14.5t17.5 41.5q0 23 -13 37.5t-49 32.5l-74 38q-43 22 -70.5 52t-27.5 76q0 27 10 49.5t33 41.5t61.5 34t95.5 29q63 0 99 -12.5t53 -23.5v-127h-58z" />
    <glyph glyph-name="uni021A" unicode="&#x21a;" horiz-adv-x="629" 
d="M275 -125l-23 35v40h124v-80l-75 -122l-49 10zM492 -1l-177 3l-180 -3l-5 47l108 13v584l-123 -3l-49 -141h-51v202l305 -3l294 3v-202h-51l-49 141l-123 3v-584l106 -13z" />
    <glyph glyph-name="uni021B" unicode="&#x21b;" horiz-adv-x="393" 
d="M159 -125l-23 35v40h124v-80l-75 -122l-49 10zM5 406v18l39 40h53v69l92 74h45v-147h136v-54h-135v-268q0 -27 13.5 -44.5t37.5 -17.5q23 0 41 7t39 18l21 -45l-133 -71q-33 0 -62 6.5t-50.5 22.5t-34 42.5t-12.5 66.5v283h-90z" />
    <glyph glyph-name="hsuperior" unicode="&#x2b0;" horiz-adv-x="414" 
d="M174 438l20 -7l-3 -32l-69 2l-78 -2l-3 32l29 7v307l-32 -1l-3 33l96 14l43 1v-168l92 52q50 0 73 -15.5t23 -64.5v-158l30 -7l-3 -32l-78 2l-74 -2l-3 32l21 7v146q0 25 -26 25q-12 0 -23 -5.5t-22 -12.5l-10 -6v-147z" />
    <glyph glyph-name="jsuperior" unicode="&#x2b2;" horiz-adv-x="205" 
d="M71 784l66 5l22 -5l5 -42l-9 -35l-66 -5l-22 5l-4 42zM55 359q2 9 3.5 27t1.5 50v187h-30l-3 32l95 13l42 1v-222q0 -27 -7.5 -48.5t-19 -38t-24 -28t-21.5 -19.5l-52 -42h-55v75h67z" />
    <glyph glyph-name="wsuperior" unicode="&#x2b7;" horiz-adv-x="540" 
d="M280 527l-4 40l-64 -161l-77 -14l-106 238l-24 7l3 31l85 -2l70 2l3 -31l-26 -7l47 -125l5 -52l58 143l-16 34l-24 7l3 31l85 -2l70 2l3 -31l-26 -7l48 -125l5 -52l62 177l-28 7l3 31l54 -2l43 2l3 -31l-32 -7l-85 -224l-77 -14z" />
    <glyph glyph-name="ysuperior" unicode="&#x2b8;" horiz-adv-x="355" 
d="M55 271v90h84l61 67l-74 -24l-96 227l-25 6l3 31l88 -2l72 2l3 -31l-27 -6l53 -127l9 -55l57 181l-29 6l3 32l59 -2l51 2l3 -32l-33 -6l-85 -212l-69 -147h-108z" />
    <glyph glyph-name="apostrophemod" unicode="&#x2bc;" horiz-adv-x="227" 
d="M48 570l-6 71l6 62l97 7l35 -7l8 -71l-8 -62l-76 -159l-47 19q6 13 13 32t13.5 38.5t11 37t4.5 27.5z" />
    <glyph glyph-name="circumflex" unicode="&#x2c6;" horiz-adv-x="500" 
d="M100 557l102 176h90l103 -176h-62l-86 88l-85 -88h-62z" />
    <glyph glyph-name="caron" unicode="&#x2c7;" horiz-adv-x="500" 
d="M162 731l85 -82l86 82h62l-103 -170h-90l-102 170h62z" />
    <glyph glyph-name="breve" unicode="&#x2d8;" horiz-adv-x="500" 
d="M249 651q22 0 40 7.5t32 18t24.5 22t17.5 20.5l35 -26q-9 -18 -18.5 -35t-24 -33t-36.5 -31.5t-55 -31.5q-32 0 -57.5 11.5t-46 30.5t-35.5 42t-25 47l35 26q7 -9 17.5 -20.5t24.5 -22t31.5 -18t40.5 -7.5z" />
    <glyph glyph-name="dotaccent" unicode="&#x2d9;" horiz-adv-x="500" 
d="M196 715l69 5l43 -6l6 -63l-12 -54l-65 -6l-46 6l-6 64z" />
    <glyph glyph-name="ring" unicode="&#x2da;" horiz-adv-x="500" 
d="M365 648q0 -28 -9 -44t-24 -26t-35.5 -16.5t-43.5 -15.5q-21 0 -42.5 5t-38 17t-27 31.5t-10.5 48.5q0 26 9.5 43.5t25.5 29.5t37 19.5t43 13.5q24 0 45 -5t36.5 -17.5t24.5 -33t9 -50.5zM192 648q0 -25 17 -40t42 -15q24 0 41 15t17 40q0 24 -17 41.5t-41 17.5
q-25 0 -42 -17.5t-17 -41.5z" />
    <glyph glyph-name="ogonek" unicode="&#x2db;" horiz-adv-x="500" 
d="M255 -104v-33q0 -13 3.5 -25.5t14.5 -22t30 -15t51 -5.5v-41q-110 0 -155.5 25.5t-45.5 75.5v66l112 118h41z" />
    <glyph glyph-name="tilde" unicode="&#x2dc;" horiz-adv-x="500" 
d="M106 694l75 22l175 -53l29 51h36l-29 -114l-74 -17l-176 53l-28 -51h-36z" />
    <glyph glyph-name="hungarumlaut" unicode="&#x2dd;" horiz-adv-x="500" 
d="M54 557l43 170h134l-115 -170h-62zM235 557l43 170h134l-115 -170h-62z" />
    <glyph glyph-name="xsuperior" unicode="&#x2e3;" horiz-adv-x="380" 
d="M138 431l-3 -32l-72 2l-44 -2l-3 32l28 6l91 85l-87 109l-32 5l3 32l71 -2l101 2l3 -32l-25 -5l32 -40l6 -22l63 62l-17 5l3 32l58 -2l45 2l3 -32l-29 -5l-84 -81l96 -113l25 -6l-4 -32l-61 2l-103 -2l-3 32l25 6l-41 40l-9 24l-65 -64z" />
    <glyph glyph-name="Delta" unicode="&#x394;" horiz-adv-x="676" 
d="M20 0v62l303 633l45 20l288 -652v-63h-636zM100 62h381l-168 389l-7 55z" />
    <glyph glyph-name="Omega" unicode="&#x3a9;" horiz-adv-x="720" 
d="M30 0v172h46l24 -60l155 -28v46q-40 9 -78.5 29.5t-69 54t-49 81t-18.5 110.5q0 59 18.5 107t58.5 86t102.5 67t150.5 50q69 0 126 -22.5t98 -61.5t63.5 -90.5t22.5 -109.5q0 -67 -15.5 -112.5t-44.5 -78t-70 -56.5t-92 -48v-52l162 28l24 60h46v-172h-302v172
q19 4 42.5 16.5t43.5 40t34 72t14 112.5q0 55 -12.5 99.5t-35 76t-52.5 48.5t-65 17q-38 0 -67.5 -17t-49.5 -47t-31 -71t-11 -90q0 -60 12.5 -106.5t32 -79t43 -50.5t46.5 -21v-172h-302z" />
    <glyph glyph-name="mu" unicode="&#x3bc;" 
d="M494 479v-345q0 -25 4.5 -41t12.5 -26t20.5 -15.5t27.5 -9.5l-8 -42h-144l-48 73l-106 -88q-15 0 -31.5 2t-31.5 6.5t-27.5 12t-21.5 18.5v-60l72 -194h-152v709h140v-316q0 -38 16.5 -56.5t46.5 -18.5q16 0 34.5 10t38.5 23l17 12v346h140z" />
    <glyph glyph-name="pi" unicode="&#x3c0;" 
d="M500 150q0 -51 16.5 -75.5t48.5 -32.5l-8 -42h-151l-43 74v329h-98v-403h-137v403h-42l-30 -83h-44v157h596v-74h-108v-253z" />
    <glyph glyph-name="Wgrave" unicode="&#x1e80;" horiz-adv-x="1032" 
d="M493 769l-115 136h140l51 -136h-76zM667 -17l-139 424l-3 68l-144 -464l-93 -28l-220 659l-61 13l5 46l164 -3l119 3l5 -46l-75 -13l135 -420l1 -73l121 395l-32 98l-51 13l5 46l154 -3l116 3l5 -46l-73 -13l135 -422l4 -72l144 494l-81 13l5 46l102 -3l105 3l5 -46
l-64 -13l-199 -631z" />
    <glyph glyph-name="wgrave" unicode="&#x1e81;" horiz-adv-x="870" 
d="M433 557l-115 176h134l43 -176h-62zM448 249l-6 70l-111 -305l-108 -29l-169 437l-49 12l5 46l128 -3l108 3l5 -46l-49 -12l87 -261l8 -77l104 286l-20 52l-42 12l5 46l120 -3l108 3l5 -46l-49 -12l88 -261l8 -77l112 338l-46 12l5 46l83 -3l82 3l5 -46l-58 -12
l-150 -408l-108 -29z" />
    <glyph glyph-name="Wacute" unicode="&#x1e82;" horiz-adv-x="1032" 
d="M477 769l51 136h140l-115 -136h-76zM667 -17l-139 424l-3 68l-144 -464l-93 -28l-220 659l-61 13l5 46l164 -3l119 3l5 -46l-75 -13l135 -420l1 -73l121 395l-32 98l-51 13l5 46l154 -3l116 3l5 -46l-73 -13l135 -422l4 -72l144 494l-81 13l5 46l102 -3l105 3l5 -46
l-64 -13l-199 -631z" />
    <glyph glyph-name="wacute" unicode="&#x1e83;" horiz-adv-x="870" 
d="M434 557l43 176h134l-115 -176h-62zM448 249l-6 70l-111 -305l-108 -29l-169 437l-49 12l5 46l128 -3l108 3l5 -46l-49 -12l87 -261l8 -77l104 286l-20 52l-42 12l5 46l120 -3l108 3l5 -46l-49 -12l88 -261l8 -77l112 338l-46 12l5 46l83 -3l82 3l5 -46l-58 -12
l-150 -408l-108 -29z" />
    <glyph glyph-name="Wdieresis" unicode="&#x1e84;" horiz-adv-x="1032" 
d="M372 882l72 6l30 -6l7 -58l-12 -49l-71 -6l-31 6l-6 58zM604 882l72 6l31 -6l6 -58l-12 -49l-71 -6l-30 6l-7 58zM667 -17l-139 424l-3 68l-144 -464l-93 -28l-220 659l-61 13l5 46l164 -3l119 3l5 -46l-75 -13l135 -420l1 -73l121 395l-32 98l-51 13l5 46l154 -3l116 3
l5 -46l-73 -13l135 -422l4 -72l144 494l-81 13l5 46l102 -3l105 3l5 -46l-64 -13l-199 -631z" />
    <glyph glyph-name="wdieresis" unicode="&#x1e85;" horiz-adv-x="870" 
d="M313 701l72 6l30 -6l7 -57l-12 -50l-71 -6l-31 6l-6 59zM505 701l72 6l31 -6l6 -57l-12 -50l-71 -6l-30 6l-7 59zM448 249l-6 70l-111 -305l-108 -29l-169 437l-49 12l5 46l128 -3l108 3l5 -46l-49 -12l87 -261l8 -77l104 286l-20 52l-42 12l5 46l120 -3l108 3l5 -46
l-49 -12l88 -261l8 -77l112 338l-46 12l5 46l83 -3l82 3l5 -46l-58 -12l-150 -408l-108 -29z" />
    <glyph glyph-name="Ygrave" unicode="&#x1ef2;" horiz-adv-x="724" 
d="M363 769l-115 136h140l51 -136h-76zM441 275v-216l109 -13l-5 -47l-180 3l-183 -3l-5 47l111 13v217l-216 367l-67 12l5 46l147 -3l147 3l5 -46l-73 -13l161 -270l1 -49l175 319l-75 13l5 46l110 -3l101 3l5 -46l-66 -12z" />
    <glyph glyph-name="ygrave" unicode="&#x1ef3;" horiz-adv-x="567" 
d="M289 557l-115 176h134l43 -176h-62zM87 -235v134h118l100 136l-89 -29l-161 417l-50 10l5 47l133 -3l114 3l5 -47l-54 -10l96 -260l12 -85l105 344l-47 10l5 48l93 -3l85 3l5 -48l-59 -10l-147 -397l-115 -260h-154z" />
    <glyph glyph-name="endash" unicode="&#x2013;" horiz-adv-x="535" 
d="M40 308h455v-62h-455v62z" />
    <glyph glyph-name="emdash" unicode="&#x2014;" horiz-adv-x="990" 
d="M586 266h-182v22h182v-22z" />
    <glyph glyph-name="quoteleft" unicode="&#x2018;" horiz-adv-x="210" 
d="M179 559l7 -71l-7 -61l-96 -8l-36 8l-7 70l7 62l76 160l47 -19q-6 -13 -13 -32t-13 -38.5t-10.5 -37t-4.5 -27.5z" />
    <glyph glyph-name="quoteright" unicode="&#x2019;" horiz-adv-x="227" 
d="M48 570l-6 71l6 62l97 7l35 -7l8 -71l-8 -62l-76 -159l-47 19q6 13 13 32t13.5 38.5t11 37t4.5 27.5z" />
    <glyph glyph-name="quotesinglbase" unicode="&#x201a;" horiz-adv-x="230" 
d="M62 1l-6 71l6 61l97 8l35 -8l8 -70l-8 -62l-76 -160l-47 20q6 13 13 32t13.5 38.5t11 37t4.5 27.5z" />
    <glyph glyph-name="quotedblleft" unicode="&#x201c;" horiz-adv-x="401" 
d="M179 559l7 -71l-7 -61l-96 -8l-36 8l-7 70l7 62l76 160l47 -19q-6 -13 -13 -32t-13 -38.5t-10.5 -37t-4.5 -27.5zM371 559l6 -71l-6 -61l-96 -8l-36 8l-7 70l7 62l76 160l47 -19q-6 -13 -13 -32t-13.5 -38.5t-11 -37t-4.5 -27.5z" />
    <glyph glyph-name="quotedblright" unicode="&#x201d;" horiz-adv-x="418" 
d="M246 570l-6 71l6 62l97 7l35 -7l7 -71l-7 -62l-76 -159l-47 19q6 13 13 32t13.5 38.5t11 37t4.5 27.5zM54 570l-6 71l6 62l97 7l35 -7l8 -71l-8 -62l-76 -159l-47 19q6 13 13 32t13.5 38.5t11 37t4.5 27.5z" />
    <glyph glyph-name="quotedblbase" unicode="&#x201e;" horiz-adv-x="421" 
d="M254 1l-6 71l6 61l97 8l35 -8l7 -70l-7 -62l-76 -160l-47 20q6 13 13 32t13.5 38.5t11 37t4.5 27.5zM62 1l-6 71l6 61l97 8l35 -8l8 -70l-8 -62l-76 -160l-47 20q6 13 13 32t13.5 38.5t11 37t4.5 27.5z" />
    <glyph glyph-name="dagger" unicode="&#x2020;" horiz-adv-x="430" 
d="M19 556l158 -30l-30 184h130l-30 -184l164 30v-117l-164 30l10 -99l30 -41l-30 -103l-29 -286h-31l-29 286l-30 103l30 41l10 99l-159 -30v117z" />
    <glyph glyph-name="daggerdbl" unicode="&#x2021;" horiz-adv-x="452" 
d="M179 370l10 99l-159 -30v117l158 -30l-30 184h130l-30 -184l164 30v-117l-164 30l10 -99l30 -41l-30 -41l-10 -99l164 30v-117l-164 30l30 -184h-130l30 184l-158 -30v117l159 -30l-10 99l-30 41z" />
    <glyph glyph-name="bullet" unicode="&#x2022;" horiz-adv-x="253" 
d="M56 374l95 6l46 -6l6 -74l-6 -67l-95 -6l-46 6l-6 75z" />
    <glyph glyph-name="ellipsis" unicode="&#x2026;" horiz-adv-x="838" 
d="M81 127l91 8l35 -8l8 -67l-8 -59l-90 -6l-36 6l-6 69zM355 127l90 8l36 -8l7 -67l-7 -59l-91 -6l-35 6l-7 69zM629 127l91 8l35 -8l8 -67l-8 -59l-90 -6l-36 6l-6 69z" />
    <glyph glyph-name="perthousand" unicode="&#x2030;" horiz-adv-x="1187" 
d="M208 -5h-91l495 710h91zM192 353q-33 0 -61 12t-48 34t-31.5 53t-11.5 69q0 42 13.5 73t37.5 53t58 35.5t75 21.5q34 0 62 -12t48.5 -34t32 -53t11.5 -68q0 -42 -13.5 -73t-38 -53t-58.5 -36t-76 -22zM201 665q-26 0 -40 -28t-14 -85q0 -79 18.5 -119t48.5 -40
q26 0 40 28t14 85q0 79 -18.5 119t-48.5 40zM962 -2q-33 0 -61.5 12t-48.5 33.5t-31.5 52.5t-11.5 69q0 42 13.5 73.5t38 53t58 35.5t74.5 22q34 0 62.5 -12t48.5 -34t31.5 -53t11.5 -69q0 -42 -13.5 -73t-38 -52.5t-58.5 -35.5t-75 -22zM585 -2q-33 0 -61 12t-48 33.5
t-31.5 52.5t-11.5 69q0 42 13.5 73.5t37.5 53t57.5 35.5t74.5 22q34 0 62.5 -12t49 -34t32 -53t11.5 -69q0 -42 -13.5 -73t-38 -52.5t-58.5 -35.5t-76 -22zM971 309q-55 0 -55 -113q0 -79 19 -118.5t48 -39.5q26 0 40 27.5t14 85.5q0 78 -18.5 118t-47.5 40zM594 309
q-26 0 -40 -27.5t-14 -85.5q0 -79 18.5 -118.5t48.5 -39.5q26 0 40 27.5t14 85.5q0 78 -18.5 118t-48.5 40z" />
    <glyph glyph-name="guilsinglleft" unicode="&#x2039;" horiz-adv-x="311" 
d="M196 15l-181 220l183 220h83l-127 -221l127 -219h-85z" />
    <glyph glyph-name="guilsinglright" unicode="&#x203a;" horiz-adv-x="311" 
d="M30 15l127 219l-127 221h84l182 -220l-181 -220h-85z" />
    <glyph glyph-name="fraction" unicode="&#x2044;" horiz-adv-x="135" 
d="M-90 -50h-70l387 760h68z" />
    <glyph glyph-name="zerosuperior" unicode="&#x2070;" horiz-adv-x="427" 
d="M382 598q0 -86 -41 -137.5t-139 -68.5q-37 0 -66 14.5t-49.5 40.5t-31 61.5t-10.5 78.5q0 85 41.5 137t139.5 69q37 0 66 -14.5t49 -40.5t30.5 -61.5t10.5 -78.5zM220 431q13 0 22 12t15 32.5t9 48t3 58.5q0 36 -3.5 67.5t-11 55t-19 36.5t-27.5 13q-14 0 -23.5 -12
t-15.5 -32.5t-8.5 -47.5t-2.5 -58q0 -37 3.5 -68.5t11 -55t19 -36.5t28.5 -13z" />
    <glyph glyph-name="foursuperior" unicode="&#x2074;" horiz-adv-x="359" 
d="M277 555h67v-67h-67v-88h-91v88h-144l-27 47l196 250h79v-38l-209 -205l31 13h74v49l72 57h19v-106z" />
    <glyph glyph-name="fivesuperior" unicode="&#x2075;" horiz-adv-x="352" 
d="M97 711l-14 -97l102 45q24 0 47 -5.5t41 -17t28.5 -29.5t10.5 -43q0 -24 -10 -42t-27.5 -33t-40.5 -28t-50 -26l-66 -35h-72v80h137q11 14 15 30t4 30q0 26 -14 43t-46 17q-17 0 -30.5 -4t-29.5 -11l-20 -9l-17 15l26 194h238v-29l-22 -45h-190z" />
    <glyph glyph-name="sixsuperior" unicode="&#x2076;" horiz-adv-x="385" 
d="M350 534q0 -36 -14.5 -61t-38 -41t-54 -25t-63.5 -15q-66 0 -103 41t-37 113q0 39 14 75t44 68t78.5 59.5t117.5 48.5l9 -32q-46 -16 -74 -35t-44 -40.5t-22.5 -46.5t-8.5 -53l76 59q31 0 53.5 -10t37.5 -26.5t22 -37t7 -41.5zM240 508q0 35 -8.5 54t-24.5 19
q-13 0 -22.5 -6.5t-17.5 -12.5l-14 -11q0 -54 11 -88.5t37 -34.5q18 0 28.5 18.5t10.5 61.5z" />
    <glyph glyph-name="sevensuperior" unicode="&#x2077;" horiz-adv-x="334" 
d="M20 785h270l24 -24l-184 -361h-83v42l187 278l-29 -15h-185v80z" />
    <glyph glyph-name="eightsuperior" unicode="&#x2078;" horiz-adv-x="371" 
d="M336 508q0 -47 -41 -74.5t-118 -41.5q-31 0 -57 7.5t-45 21t-29.5 31.5t-10.5 39q0 31 18 54t73 43q-43 20 -62 47t-19 54q0 38 37 63t109 41q63 0 100 -24t37 -60q0 -33 -24 -53.5t-68 -36.5q48 -23 74 -49.5t26 -61.5zM227 702q0 21 -10 38.5t-32 17.5q-14 0 -23 -13
t-9 -34q0 -24 12.5 -40t34.5 -30q13 10 20 24t7 37zM142 501q0 -30 13 -52t33 -22q17 0 29 13.5t12 42.5q0 32 -20 52.5t-45 32.5q-11 -9 -16.5 -28t-5.5 -39z" />
    <glyph glyph-name="ninesuperior" unicode="&#x2079;" horiz-adv-x="360" 
d="M129 678q0 -35 8.5 -53.5t25.5 -18.5q12 0 21.5 6t17.5 11l15 11q0 54 -11.5 88.5t-36.5 34.5q-18 0 -29 -18.5t-11 -60.5zM20 652q0 36 14.5 60.5t38 40.5t54 25.5t63.5 14.5q66 0 103 -40.5t37 -112.5q0 -39 -14 -75t-44 -68t-78.5 -59.5t-117.5 -48.5l-9 33
q46 15 74 34t43.5 41t22 47t8.5 52l-75 -59q-31 0 -53.5 10t-37.5 26.5t-22 37t-7 41.5z" />
    <glyph glyph-name="plussuperior" unicode="&#x207a;" horiz-adv-x="409" 
d="M179 442v116h-129v48h129v119h51v-119h129v-48h-129v-116h-51z" />
    <glyph glyph-name="minussuperior" unicode="&#x207b;" horiz-adv-x="415" 
d="M50 622h315v-48h-315v48z" />
    <glyph glyph-name="equalsuperior" unicode="&#x207c;" horiz-adv-x="409" 
d="M359 606h-309v49h309v-49zM359 499h-309v48h309v-48z" />
    <glyph glyph-name="parenleftsuperior" unicode="&#x207d;" horiz-adv-x="230" 
d="M132 576q0 -40 4.5 -72.5t14 -61.5t24 -56t35.5 -56l-22 -19q-37 32 -63 61.5t-42.5 60.5t-24.5 65.5t-8 77.5t8 77.5t24.5 65t42.5 60t63 62.5l22 -19q-21 -29 -35.5 -56t-24 -56.5t-14 -62t-4.5 -71.5z" />
    <glyph glyph-name="parenrightsuperior" unicode="&#x207e;" horiz-adv-x="200" 
d="M97 576q0 39 -4.5 71.5t-13.5 62t-23.5 56.5t-35.5 56l21 19q37 -32 63.5 -61t43 -60t24.5 -66t8 -78t-8 -78t-24.5 -66t-43 -60.5t-63.5 -60.5l-21 19q21 29 35.5 56t23.5 56t13.5 61.5t4.5 72.5z" />
    <glyph glyph-name="nsuperior" unicode="&#x207f;" horiz-adv-x="406" 
d="M117 401l-79 -2l-3 32l30 7v183l-32 -1l-3 34l96 14l43 1v-44l92 51q49 0 72.5 -16t23.5 -65v-157l29 -7l-3 -32l-78 2l-72 -2l-3 32l20 7v146q0 25 -26 25q-11 0 -22.5 -5.5t-22.5 -12.5l-10 -6v-147l20 -7l-3 -32z" />
    <glyph glyph-name="zeroinferior" unicode="&#x2080;" horiz-adv-x="427" 
d="M382 48q0 -86 -41 -137.5t-139 -68.5q-37 0 -66 14.5t-49.5 40.5t-31 61.5t-10.5 78.5q0 85 41.5 137t139.5 69q37 0 66 -14.5t49 -40.5t30.5 -61.5t10.5 -78.5zM220 -119q13 0 22 12t15 32.5t9 48t3 58.5q0 36 -3.5 67.5t-11 55t-19 36.5t-27.5 13q-14 0 -23.5 -12
t-15.5 -32.5t-8.5 -47.5t-2.5 -58q0 -37 3.5 -68.5t11 -55t19 -36.5t28.5 -13z" />
    <glyph glyph-name="oneinferior" unicode="&#x2081;" horiz-adv-x="319" 
d="M124 177l-29 -20l-51 -7l-14 29l135 59h58v-347l81 -10l-3 -32l-129 2l-133 -2l-3 32l81 10v267z" />
    <glyph glyph-name="twoinferior" unicode="&#x2082;" horiz-adv-x="373" 
d="M85 -101l83 25h165v-28l-21 -46h-277l-15 27l110 110q48 48 67.5 85t19.5 71q0 28 -10.5 44.5t-30.5 16.5q-11 0 -19.5 -2t-16.5 -4l-18 -75h-80v78l146 42q62 0 100 -28t38 -75q0 -51 -35.5 -90t-99.5 -82z" />
    <glyph glyph-name="threeinferior" unicode="&#x2083;" horiz-adv-x="338" 
d="M189 -70q8 13 11 25.5t3 22.5q0 27 -19 44.5t-61 17.5l-6 25l19 8q26 11 39 28.5t13 46.5q0 26 -9.5 39.5t-26.5 13.5q-5 0 -12 -1t-12 -4l-17 -73h-81v78l147 42q33 0 54.5 -6t34 -16.5t18 -23.5t5.5 -28q0 -32 -23.5 -52.5t-72.5 -34.5q64 -5 92 -30t28 -57
q0 -24 -14.5 -41t-36.5 -30t-48 -23.5t-50 -22.5l-55 -28h-73v80h153z" />
    <glyph glyph-name="fourinferior" unicode="&#x2084;" horiz-adv-x="359" 
d="M277 5h67v-67h-67v-88h-91v88h-144l-27 47l196 250h79v-38l-209 -205l31 13h74v49l72 57h19v-106z" />
    <glyph glyph-name="fiveinferior" unicode="&#x2085;" horiz-adv-x="352" 
d="M97 161l-14 -97l102 45q24 0 47 -5.5t41 -17t28.5 -29.5t10.5 -43q0 -24 -10 -42t-27.5 -33t-40.5 -28t-50 -26l-66 -35h-72v80h138q10 15 14 30.5t4 29.5q0 26 -14 43t-46 17q-17 0 -30.5 -4t-29.5 -11l-20 -9l-17 15l26 194h238v-29l-22 -45h-190z" />
    <glyph glyph-name="sixinferior" unicode="&#x2086;" horiz-adv-x="385" 
d="M240 -42q0 35 -8.5 54t-24.5 19q-13 0 -22.5 -6.5t-17.5 -12.5l-14 -11q0 -54 11 -88.5t37 -34.5q18 0 28.5 18.5t10.5 61.5zM350 -16q0 -36 -14.5 -61t-38 -41t-54 -25t-63.5 -15q-66 0 -103 41t-37 113q0 39 14 75t44 68t78.5 59.5t117.5 48.5l9 -32q-46 -16 -74 -35
t-44 -40.5t-22.5 -46.5t-8.5 -53l76 59q31 0 53.5 -10t37.5 -26.5t22 -37t7 -41.5z" />
    <glyph glyph-name="seveninferior" unicode="&#x2087;" horiz-adv-x="334" 
d="M20 235h270l24 -24l-184 -361h-83v42l187 278l-29 -15h-185v80z" />
    <glyph glyph-name="eightinferior" unicode="&#x2088;" horiz-adv-x="371" 
d="M142 -49q0 -30 13 -52t33 -22q17 0 29 13.5t12 42.5q0 32 -20 52.5t-45 32.5q-11 -9 -16.5 -28t-5.5 -39zM336 -42q0 -47 -41 -74.5t-118 -41.5q-31 0 -57 7.5t-45 21t-29.5 31.5t-10.5 39q0 31 18 54t73 43q-43 20 -62 47t-19 54q0 38 37 63t109 41q63 0 100 -24t37 -60
q0 -33 -24 -53.5t-68 -36.5q48 -23 74 -49.5t26 -61.5zM227 152q0 21 -10 38.5t-32 17.5q-14 0 -23 -13t-9 -34q0 -24 12.5 -40t34.5 -30q13 10 20 24t7 37z" />
    <glyph glyph-name="nineinferior" unicode="&#x2089;" horiz-adv-x="360" 
d="M129 128q0 -35 8.5 -53.5t25.5 -18.5q12 0 21.5 6t17.5 11l15 11q0 54 -11.5 88.5t-36.5 34.5q-18 0 -29 -18.5t-11 -60.5zM20 102q0 36 14.5 60.5t38 40.5t54 25.5t63.5 14.5q66 0 103 -40.5t37 -112.5q0 -39 -14 -75t-44 -68t-78.5 -59.5t-117.5 -48.5l-9 33
q46 15 74 34t43.5 41t22 47t8.5 52l-75 -59q-31 0 -53.5 10t-37.5 26.5t-22 37t-7 41.5z" />
    <glyph glyph-name="parenleftinferior" unicode="&#x208d;" horiz-adv-x="230" 
d="M132 22q0 -40 4.5 -72.5t14 -61.5t24 -56t35.5 -56l-22 -19q-37 32 -63 61.5t-42.5 60.5t-24.5 65.5t-8 77.5t8 77.5t24.5 65t42.5 60t63 62.5l22 -19q-21 -29 -35.5 -56t-24 -56.5t-14 -62t-4.5 -71.5z" />
    <glyph glyph-name="parenrightinferior" unicode="&#x208e;" horiz-adv-x="200" 
d="M97 22q0 39 -4.5 71.5t-13.5 62t-23.5 56.5t-35.5 56l21 19q37 -32 63.5 -61t43 -60t24.5 -66t8 -78t-8 -78t-24.5 -66t-43 -60.5t-63.5 -60.5l-21 19q21 29 35.5 56t23.5 56t13.5 61.5t4.5 72.5z" />
    <glyph glyph-name="Euro" unicode="&#x20ac;" horiz-adv-x="702" 
d="M275 249q20 -80 69 -128.5t126 -48.5q59 0 99 15.5t63 28.5l25 -46q-12 -8 -34 -19t-50 -23t-60.5 -23.5t-65.5 -19.5q-63 0 -118 16t-99 49t-75 82.5t-44 116.5h-66v67h58q-1 3 -1 13.5v14.5v20t2 20h-59v67h68q13 57 41 100t70 75t98.5 53.5t127.5 35.5q37 0 68 -7.5
t57.5 -19.5t48 -26.5t38.5 -27.5v-147h-65l-27 101q-19 26 -51 43t-82 17q-57 0 -103.5 -48.5t-63.5 -148.5h270l-42 -67h-235v-20q0 -12 0.5 -24t1.5 -24h203l-42 -67h-151z" />
    <glyph glyph-name="afii61289" unicode="&#x2113;" horiz-adv-x="484" 
d="M113 5v215l-73 -30v74q4 2 14.5 6t21.5 9t21.5 9.5t15.5 7.5v306l179 117q43 -1 72 -19.5t47 -45t25.5 -56t7.5 -53.5q0 -54 -15 -93.5t-42 -71t-64.5 -57.5t-82.5 -51v-189l152 44l27 -35l-207 -109zM240 357q35 25 58 62t23 101q0 11 -2.5 29t-8.5 35.5t-17 30
t-27 12.5l-26 -10v-260z" />
    <glyph glyph-name="afii61352" unicode="&#x2116;" horiz-adv-x="1010" 
d="M551 0h-85l-258 468l-27 94v-562h-139l-5 42q12 4 26 11.5t25 22.5t18.5 39.5t7.5 62.5v456l-80 20l5 47l87 -3l104 3l226 -391l28 -92v483h141l5 -42q-15 -5 -29.5 -12.5t-25.5 -22.5t-17.5 -39.5t-6.5 -62.5v-522zM810 485q35 0 63.5 -12.5t48.5 -35.5t31 -55t11 -70
q0 -46 -14 -78t-39 -54t-60.5 -35t-77.5 -20q-38 0 -68 12.5t-51.5 35.5t-33 55t-11.5 70q0 46 14.5 78.5t41 54t63.5 34.5t82 20zM780 423q-25 0 -38.5 -24.5t-13.5 -69.5q0 -61 18.5 -101.5t56.5 -40.5q20 0 31 24.5t11 69.5q0 61 -16.5 101.5t-48.5 40.5zM609 77h356v-77
h-356v77z" />
    <glyph glyph-name="trademark" unicode="&#x2122;" horiz-adv-x="1058" 
d="M842 702l89 -2l74 2l3 -36l-42 -7v-302l42 -7l-3 -37l-93 2l-90 -2l-3 37l41 7v237l9 68l-129 -348h-69l-112 273l-15 73v-303l41 -7l-2 -37l-66 2l-63 -2l-3 37l42 7v302l-42 7l3 36l53 -2l120 2l102 -250l-2 -61zM358 313l-116 2l-118 -2l-3 37l63 7v303l-66 -2
l-32 -89h-36v133l197 -2l185 2v-133h-36l-32 89l-65 2v-303l62 -7z" />
    <glyph glyph-name="uni2126" unicode="&#x2126;" horiz-adv-x="720" 
d="M30 0v172h46l24 -60l155 -28v46q-40 9 -78.5 29.5t-69 54t-49 81t-18.5 110.5q0 59 18.5 107t58.5 86t102.5 67t150.5 50q69 0 126 -22.5t98 -61.5t63.5 -90.5t22.5 -109.5q0 -67 -15.5 -112.5t-44.5 -78t-70 -56.5t-92 -48v-52l162 28l24 60h46v-172h-302v172
q19 4 42.5 16.5t43.5 40t34 72t14 112.5q0 55 -12.5 99.5t-35 76t-52.5 48.5t-65 17q-38 0 -67.5 -17t-49.5 -47t-31 -71t-11 -90q0 -60 12.5 -106.5t32 -79t43 -50.5t46.5 -21v-172h-302z" />
    <glyph glyph-name="estimated" unicode="&#x212e;" horiz-adv-x="830" 
d="M756 220q-18 -51 -48 -87.5t-73 -63.5t-100 -47t-130 -37q-79 0 -144.5 26.5t-112 73.5t-72.5 111t-26 139q0 82 20 141t64.5 102.5t116 76t174.5 60.5q77 0 141 -25.5t110.5 -70.5t73.5 -106t30 -133v-48h-573v-87q21 -94 82 -143.5t147 -49.5q36 0 67 13.5t55 36.5
t40 53.5t22 64.5h136zM207 392h413v83q-23 82 -82.5 127.5t-143.5 45.5q-36 0 -67 -11t-55 -30.5t-41 -47t-24 -59.5v-108z" />
    <glyph glyph-name="arrowleft" unicode="&#x2190;" horiz-adv-x="610" 
d="M560 337v-84h-382l45 -19l97 -94v-115l-270 270l270 270v-115l-97 -93l-45 -20h382z" />
    <glyph glyph-name="arrowup" unicode="&#x2191;" horiz-adv-x="640" 
d="M278 422l-20 -45l-93 -97h-115l270 270l270 -270h-115l-94 97l-19 45v-382h-84v382z" />
    <glyph glyph-name="arrowright" unicode="&#x2192;" horiz-adv-x="610" 
d="M432 337l-45 20l-97 93v115l270 -270l-270 -270v115l97 94l45 19h-382v84h382z" />
    <glyph glyph-name="arrowdown" unicode="&#x2193;" horiz-adv-x="640" 
d="M278 550h84v-382l19 45l94 97h115l-270 -270l-270 270h115l93 -97l20 -45v382z" />
    <glyph glyph-name="uni2196" unicode="&#x2196;" horiz-adv-x="490" 
d="M110 356l18 -46l3 -135l-81 -82v382h382l-82 -81l-135 3l-46 18l271 -271l-59 -59z" />
    <glyph glyph-name="uni2197" unicode="&#x2197;" horiz-adv-x="490" 
d="M110 85l-60 59l271 271l-46 -18l-135 -3l-82 81h382v-382l-80 82l2 135l18 46z" />
    <glyph glyph-name="uni2198" unicode="&#x2198;" horiz-adv-x="490" 
d="M380 204l-18 46l-2 135l80 82v-382h-382l82 80l135 -2l46 -18l-271 270l60 60z" />
    <glyph glyph-name="uni2199" unicode="&#x2199;" horiz-adv-x="490" 
d="M381 475l59 -60l-271 -270l46 18l135 2l82 -80h-382v382l81 -82l-3 -135l-18 -46z" />
    <glyph glyph-name="partialdiff" unicode="&#x2202;" 
d="M553 244q0 -63 -21 -108.5t-57.5 -76t-85 -48.5t-102.5 -26q-48 0 -88.5 16.5t-70 47.5t-46 74.5t-16.5 96.5q0 60 21 103t57.5 72t85 46t102.5 25l67 -27q-14 57 -49.5 106t-88.5 81l-67 42l28 52l66 -32q142 -71 203.5 -181t61.5 -263zM212 262q0 -109 30.5 -163.5
t76.5 -54.5q40 0 63 33.5t23 111.5q0 109 -30 163.5t-76 54.5q-40 0 -63.5 -33.5t-23.5 -111.5z" />
    <glyph glyph-name="uni2206" unicode="&#x2206;" horiz-adv-x="676" 
d="M20 0v62l303 633l45 20l288 -652v-63h-636zM100 62h381l-168 389l-7 55z" />
    <glyph glyph-name="product" unicode="&#x220f;" horiz-adv-x="740" 
d="M20 654l5 47l126 -3h420l144 3l5 -47l-73 -13v-741l73 -13l-5 -47l-144 3l-138 -3l-5 47l66 13v736h-243v-736l61 -13l-5 -47l-132 3l-150 -3l-5 47l78 13v741z" />
    <glyph glyph-name="summation" unicode="&#x2211;" 
d="M62 -160l-22 40l281 355l-271 425l22 40h481v-180h-46l-46 118l-220 5l209 -322v-30l-276 -340l306 15l49 77h50l-35 -203h-482z" />
    <glyph glyph-name="minus" unicode="&#x2212;" 
d="M47 318h525v-77h-525v77z" />
    <glyph glyph-name="radical" unicode="&#x221a;" 
d="M159 -18l-171 436l-66 10l6 42h194l108 -304l9 -74l267 794h232l-20 -68h-161l-282 -804z" />
    <glyph glyph-name="infinity" unicode="&#x221e;" horiz-adv-x="825" 
d="M360 200q-14 -15 -32 -28t-37.5 -22.5t-39 -15t-37.5 -5.5q-36 0 -64.5 12.5t-48.5 34t-30.5 51t-10.5 63.5q0 26 8.5 52t27.5 49.5t50 43.5t76 35q33 0 63 -11t57 -27.5t50 -36.5t43 -38l31 36q28 32 67.5 54.5t75.5 22.5q37 0 66.5 -13t49 -35t30 -52t10.5 -64
q0 -62 -36 -104.5t-126 -72.5q-32 0 -61.5 10t-56 25.5t-50 34.5t-41.5 37zM217 218q27 0 54 8t51 25l31 26q-13 12 -29.5 24t-35.5 22t-39 16.5t-40 6.5q-17 0 -33.5 -3t-29 -10.5t-20 -19t-7.5 -27.5q0 -28 25 -48t73 -20zM477 316q13 -12 30 -23.5t35.5 -20.5t38 -14.5
t36.5 -5.5q15 0 30.5 4t28 11.5t21 19t8.5 27.5q0 27 -23.5 42.5t-73.5 15.5q-25 0 -51.5 -7t-46.5 -23z" />
    <glyph glyph-name="integral" unicode="&#x222b;" 
d="M361 46q0 -37 -9 -66.5t-22.5 -53.5t-30 -42.5t-31.5 -33.5l-82 -85h-84v112h91l12 24q4 9 7 18t5 23t3 34t1 50v469q0 41 22.5 74.5t56.5 61.5l97 79h120v-96h-124l-15 -25q-8 -14 -12.5 -33.5t-4.5 -57.5v-452z" />
    <glyph glyph-name="approxequal" unicode="&#x2248;" 
d="M548 211h47l-39 -91l-93 -34l-347 56l-43 -47h-47l37 86l98 39l344 -56zM547 401h47l-39 -91l-93 -34l-347 56l-43 -47h-47l37 86l98 39l344 -56z" />
    <glyph glyph-name="notequal" unicode="&#x2260;" 
d="M249 109l-91 -109h-85l92 109h-113v77h178l99 118h-277v77h342l83 99h83l-83 -99h90v-77h-155l-98 -118h253v-77h-318z" />
    <glyph glyph-name="lessequal" unicode="&#x2264;" 
d="M55 77h511v-77h-511v77zM570 621v-88l-418 -173l418 -173v-89l-520 231v60z" />
    <glyph glyph-name="greaterequal" unicode="&#x2265;" 
d="M53 77h511v-77h-511v77zM570 389v-60l-520 -231v89l418 173l-418 173v88z" />
    <glyph glyph-name="lozenge" unicode="&#x25ca;" 
d="M289 695l45 20l239 -346l-242 -365l-45 -20l-239 346zM287 551l-7 35l-117 -180l171 -245l7 -35l115 180z" />
    <glyph glyph-name="commaaccent" unicode="&#xf6c3;" horiz-adv-x="500" 
d="M211 -125l-23 35v40h124v-80l-75 -122l-49 10z" />
    <glyph glyph-name="asuperior" unicode="&#xf6e9;" horiz-adv-x="349" 
d="M193 539l-46 -15q-7 -7 -10.5 -19t-3.5 -23q0 -19 9 -27.5t18 -8.5q13 0 24 8l9 5v80zM175 676q68 0 96.5 -19t28.5 -64v-105q0 -16 1 -25t5 -17h29l4 -31l-122 -24l-20 45l-67 -44q-45 0 -72.5 20.5t-27.5 55.5q0 21 8.5 36.5t22.5 25.5l132 37v34q0 26 -8.5 31t-17.5 5
q-17 0 -28 -10l-8 -51h-92v51z" />
    <glyph glyph-name="bsuperior" unicode="&#xf6ea;" horiz-adv-x="366" 
d="M346 555q0 -63 -39.5 -106t-129.5 -57q-35 0 -71.5 6.5t-57.5 15.5v333l-30 -1l-3 31l95 14l41 1v-169l84 53q20 0 40 -8.5t35.5 -24.5t25.5 -38.5t10 -49.5zM236 524q0 48 -12.5 64.5t-26.5 16.5q-11 0 -20 -4.5l-17 -8.5l-9 -6v-143q15 -16 31 -16q23 0 38.5 24
t15.5 73z" />
    <glyph glyph-name="dsuperior" unicode="&#xf6eb;" horiz-adv-x="376" 
d="M318 474q0 -17 2 -23t7 -12h21l3 -31l-114 -17l-19 50l-69 -49q-60 0 -94.5 36.5t-34.5 95.5q0 34 10.5 60t29.5 44t45 30t57 18q9 0 27 -4.5t25 -9.5v81l-29 -1l-3 31l84 18l52 2v-319zM176 462q11 0 17.5 2.5t11.5 4.5l9 6v142q-5 5 -13.5 9t-19.5 4q-24 0 -37.5 -24
t-13.5 -67q0 -38 13 -57.5t33 -19.5z" />
    <glyph glyph-name="esuperior" unicode="&#xf6ec;" horiz-adv-x="314" 
d="M127 533q2 -31 21.5 -52t52.5 -21q24 0 44.5 7t30.5 14l17 -28q-26 -23 -53 -35.5t-69 -25.5q-33 0 -61 10t-48 27t-31 41t-11 52q0 20 5 41.5t21 42t46 39t79 31.5q33 0 56 -8.5t38 -23t22 -34t7 -41.5v-36h-167zM194 568q0 31 -7 49.5t-25 18.5q-17 0 -27 -19t-9 -54z
" />
    <glyph glyph-name="isuperior" unicode="&#xf6ed;" horiz-adv-x="226" 
d="M119 401l-78 -2l-3 32l30 7v185h-30l-3 32l95 13l41 1v-231l30 -7l-3 -32zM80 784l67 5l21 -5l5 -42l-9 -35l-66 -5l-22 5l-4 42z" />
    <glyph glyph-name="lsuperior" unicode="&#xf6ee;" horiz-adv-x="223" 
d="M122 401l-78 -2l-3 32l29 7v307l-32 -1l-3 33l96 14l43 1v-354l29 -7l-3 -32z" />
    <glyph glyph-name="msuperior" unicode="&#xf6ef;" horiz-adv-x="584" 
d="M486 401l-74 -2l-4 32l18 7v146q0 25 -23 25q-11 0 -21 -4.5t-21 -10.5l-10 -7v-149l18 -7l-3 -32l-72 2l-65 -2l-3 32l18 7v146q0 25 -23 25q-12 0 -21 -4.5t-20 -10.5l-11 -7v-149l18 -7l-3 -32l-75 2l-71 -2l-3 32l30 7v183l-32 -1l-3 34l90 14l43 1l4 -44l82 51
q44 0 68 -10.5t31 -40.5l87 51q51 0 74.5 -15.5t23.5 -64.5v-158l31 -7l-3 -32z" />
    <glyph glyph-name="osuperior" unicode="&#xf6f0;" horiz-adv-x="345" 
d="M187 676q29 0 54 -9t44 -26.5t29.5 -42.5t10.5 -56q0 -37 -14.5 -62.5t-38 -42.5t-54 -27.5t-63.5 -17.5q-28 0 -52.5 9.5t-43 26.5t-29 42t-10.5 56q0 37 14 62.5t37.5 42.5t53.5 27.5t62 17.5zM130 562q0 -37 4 -62.5t11 -41.5t15 -23t16 -7q14 0 24 15.5t10 62.5
q0 73 -14.5 103t-30.5 30q-14 0 -24.5 -15t-10.5 -62z" />
    <glyph glyph-name="rsuperior" unicode="&#xf6f1;" horiz-adv-x="304" 
d="M163 574l59 99h62v-93h-73q-12 -6 -20 -13.5t-18 -18.5l-5 -6v-103l65 -8l-3 -32l-113 2l-81 -2l-3 32l31 7v183l-31 -1l-3 34l84 14l38 2z" />
    <glyph glyph-name="ssuperior" unicode="&#xf6f2;" horiz-adv-x="307" 
d="M214 614q-8 10 -19 17t-28 7q-19 0 -27.5 -7.5t-8.5 -15.5q0 -10 8.5 -17.5t37.5 -20.5l43 -18q25 -11 41 -28.5t16 -45.5q0 -41 -31 -60.5t-97 -32.5q-17 0 -45.5 4t-57.5 14l-11 83h41l13 -30q12 -14 28.5 -22.5t31.5 -8.5q14 0 23 4t9 18q0 9 -6 16.5t-26 16.5l-43 19
q-30 14 -48 31t-18 45q0 15 5 28t19 24.5t38.5 21.5t63.5 20q49 0 70.5 -6t29.5 -10v-76h-37z" />
    <glyph glyph-name="tsuperior" unicode="&#xf6f3;" horiz-adv-x="269" 
d="M10 620v10l25 25h26v40l67 45h37v-85h74v-35h-74v-136q0 -17 9 -25.5t21 -8.5q13 0 24 3.5t23 10.5l15 -30l-87 -42q-16 0 -35 3t-35.5 11.5t-27.5 24t-11 40.5v149h-51z" />
    <glyph glyph-name="apple" unicode="&#xf8ff;" horiz-adv-x="685" 
d="M635 460l-3 -41l-8 -35l-12 -31l-3 -156l-21 -7l-50 70l-27 -7l-19 -140l-32 4l-7 -4l-4 -94l30 -19l16 -14l-3 -15l-30 1l-24 18h-14l-8 8l7 76l-4 47l-61 1l-3 -52l-2 -56v-20l-15 -6l-8 6l-30 -10h-32l-1 11l11 11l50 21l-6 96l-98 -6l-147 140l-4 115l-13 10l-10 36
v26l15 8l-3 78l92 -62l9 47l10 36l22 35l28 35l39 29l40 15l38 14h22l-68 22l4 17h7l79 -20l-4 51l16 12h32l19 -5l29 -25l32 -8l32 -10l15 -13v-20l-20 -31l30 -28l28 -32l18 -34l15 -41zM525 399l-4 7h-205l-66 -3l-7 -9l-6 -44l-48 20l-11 -4l57 -27l1 -45l-5 -73v-91
l18 4l2 40l41 -3l3 9l-44 6v16l48 -6l1 9l-47 7l1 22l43 -3l3 6l-45 9l3 94h74l11 10h-79l2 9h74l8 7h-82l2 22l117 4l140 -4v11zM206 569l29 12l13 -15l-17 -20l-10 -3l17 -3h5l36 24h32l18 -12l8 3l4 14l7 5l10 -4v-18h8l10 22l11 8l-5 6l-3 8l1 21l-30 -10l-10 -8l-8 5
l4 21l14 10l11 11l38 -2l12 13l-4 8h-49l-45 -13l-53 -26l-29 -23zM616 465l-8 37l-19 50l-20 36l-23 28l-34 21h-11l17 -19l25 -10l11 -11l3 -33l-25 13l-15 -29l12 -8v-19l15 3l-12 26l15 -5l10 -20l-5 -12l-8 -7h-23l-3 11l-12 2l1 -22h-14l14 -18l-7 -10l-21 5l-3 -27
l41 6l8 17l22 -2l6 -28l-16 -13v-15l8 -6l18 12h23l6 11l-18 6l-5 9l9 42h7l14 -20zM102 434l57 -32l7 10l-68 38v18l59 -34l43 -28l28 -14l3 10l-103 64l-13 7l-41 33l2 -78l19 -17v-5h-21l19 -14l1 -11l-20 7l18 -18l-4 -7l3 -97l11 -12v180zM511 331l-54 1l-1 -24v-6
l-2 -31l19 -3l-8 -61l-48 3l-8 -6l51 -5l-2 -9h-49l-4 -5l53 -7l-6 -35l27 -1l12 79l4 36l-15 3l-1 8l20 1l5 3l-28 16l2 5l30 -6l-30 15l5 5l21 -5l4 10zM206 331l-66 39v-7l-2 -13l1 -27v-48l64 -44l-1 60zM380 214l-64 4v-51l64 -6v53zM532 306l8 -6l8 2l20 15l13 13
l11 18l-7 5h-14l-10 3l-14 7l-17 -3q-2 -13 -3 -24q-2 -9 -2.5 -17t-0.5 -7zM428 585l5 -6l19 11l8 -2l6 -24h13l6 6l-9 18l17 28l-15 9v5l-25 7v-20l-13 -5v-9l-9 -6zM433 336l4 30l-54 5l-3 -35h53zM366 455l-7 -11h-12l-5 7l11 8l-15 2v6l-23 4l3 -17l8 -14l20 -9l13 -1
l18 10l6 9l5 20l-30 2l7 -5zM589 312l-6 -3l-33 -27l39 -48v78zM244 454l1 4l14 2l-13 6l2 7l-20 -1l3 -19l14 -15l12 -6l11 5l16 12l6 12l2 13l-22 -4l6 -10l-12 -13l-14 -1zM394 281l-72 7l-6 -13l78 -4v10zM206 203l-74 50l20 -23l50 -41zM394 312h-73v-10h73v10z
M384 256l-68 4v-10h68v6zM515 359h-48v-13l44 4zM351 520l-4 -12l49 -17l3 4zM214 498l59 12l-4 12zM414 642l-8 -9v-19l12 -6l3 17zM491 530l-8 -4v-9l8 -3l2 7zM564 386l5 7v7l-10 -4v-10h5z" />
    <glyph glyph-name="AE.sc" horiz-adv-x="886" 
d="M431 272v200l-144 -200h144zM135 56l58 -10l-5 -45l-92 2l-83 -2l-4 45l51 8l346 461h91l335 1l8 -137h-41l-50 79l-182 2v-183l89 3l34 81h39l-8 -114l8 -111h-39l-34 81l-89 3v-164l188 2l60 83h41l-29 -142l-338 1l-115 -1l-4 48l61 10v165h-171z" />
    <glyph glyph-name="AEacute.002" horiz-adv-x="1038" 
d="M545 744l51 106h140l-115 -106h-76zM514 362v285l-173 -285h173zM157 58l71 -13l-5 -45l-112 3l-101 -3l-5 45l66 11l418 645l97 -2l396 3l10 -183h-45l-60 121l-226 3v-277l111 4l40 107h44l-10 -137l10 -141h-44l-40 106l-111 4v-251l234 3l71 126h47l-36 -188l-398 2
l-138 -2l-5 47l78 13v250h-203z" />
    <glyph glyph-name="AEacute.sc" horiz-adv-x="886" 
d="M431 272v200l-144 -200h144zM135 56l58 -10l-5 -45l-92 2l-83 -2l-4 45l51 8l346 461h91l335 1l8 -137h-41l-50 79l-182 2v-182l89 3l34 80h39l-8 -114l8 -111h-39l-34 81l-89 3v-164l188 2l60 83h41l-29 -142l-338 1l-115 -1l-4 48l61 10v165h-171zM478 569l37 102h126
l-94 -102h-69z" />
    <glyph glyph-name="Aacute.002" horiz-adv-x="740" 
d="M319 744l51 106h140l-115 -106h-76zM205 226l-56 -167l78 -13l-5 -47l-109 3l-101 -3l-5 47l63 12l231 628l127 28l236 -657l69 -11l-5 -47l-178 3l-120 -3l-5 47l73 13l-57 167h-236zM333 544l-3 57l-106 -320h198z" />
    <glyph glyph-name="Aacute.sc" horiz-adv-x="623" 
d="M262 569l37 102h127l-95 -102h-69zM168 158l-44 -101l63 -10l-5 -48l-86 2l-83 -2l-4 48l48 11l186 439l128 33l189 -475l54 -8l-4 -48l-161 2l-96 -2l-5 48l57 10l-44 101h-193zM274 400l-2 45l-87 -238h160z" />
    <glyph glyph-name="Abreve.002" horiz-adv-x="740" 
d="M367 800q22 0 40.5 6.5t33 15.5t25 19.5t17.5 19.5l33 -24q-9 -15 -18.5 -29t-24 -27t-36.5 -25.5t-55 -25.5q-32 0 -57.5 9.5t-46 25t-35.5 34.5t-25 38l35 24q7 -9 17.5 -19.5t24.5 -19.5t31.5 -15.5t40.5 -6.5zM205 226l-56 -167l78 -13l-5 -47l-109 3l-101 -3l-5 47
l63 12l231 628l127 28l236 -657l69 -11l-5 -47l-178 3l-120 -3l-5 47l73 13l-57 167h-236zM333 544l-3 57l-106 -320h198z" />
    <glyph glyph-name="Abreve.sc" horiz-adv-x="623" 
d="M310 633q38 0 62 14.5t35 25.5l31 -26q-8 -18 -16.5 -29.5t-21.5 -20t-31.5 -15.5t-46.5 -16q-53 0 -88 22t-52 59l31 26q12 -11 35.5 -25.5t61.5 -14.5zM168 158l-44 -101l63 -10l-5 -48l-86 2l-83 -2l-4 48l48 11l186 439l128 33l189 -475l54 -8l-4 -48l-161 2l-96 -2
l-5 48l57 10l-44 101h-193zM274 400l-2 45l-87 -238h160z" />
    <glyph glyph-name="Acircumflex.002" horiz-adv-x="740" 
d="M201 744l115 106h96l115 -106h-82l-63 43l-18 18l-18 -18l-63 -43h-82zM205 226l-56 -167l78 -13l-5 -47l-109 3l-101 -3l-5 47l63 12l231 628l127 28l236 -657l69 -11l-5 -47l-178 3l-120 -3l-5 47l73 13l-57 167h-236zM333 544l-3 57l-106 -320h198z" />
    <glyph glyph-name="Acircumflex.sc" horiz-adv-x="623" 
d="M167 569l98 102h84l98 -102h-76l-48 27l-16 25l-16 -25l-48 -27h-76zM168 158l-44 -101l63 -10l-5 -48l-86 2l-83 -2l-4 48l48 11l186 439l128 33l189 -475l54 -8l-4 -48l-161 2l-96 -2l-5 48l57 10l-44 101h-193zM274 400l-2 45l-87 -238h160z" />
    <glyph glyph-name="Adieresis.002" horiz-adv-x="740" 
d="M205 849l69 5l28 -5l7 -55l-12 -47l-67 -5l-29 5l-6 56zM427 849l68 5l29 -5l6 -55l-11 -47l-68 -5l-28 5l-7 56zM205 226l-56 -167l78 -13l-5 -47l-109 3l-101 -3l-5 47l63 12l231 628l127 28l236 -657l69 -11l-5 -47l-178 3l-120 -3l-5 47l73 13l-57 167h-236zM333 544
l-3 57l-106 -320h198z" />
    <glyph glyph-name="Adieresis.sc" horiz-adv-x="623" 
d="M171 660l65 6l27 -6l5 -53l-10 -46l-63 -5l-28 5l-5 54zM370 660l63 6l27 -6l6 -53l-11 -46l-64 -5l-26 5l-6 54zM168 158l-44 -101l63 -10l-5 -48l-86 2l-83 -2l-4 48l48 11l186 439l128 33l189 -475l54 -8l-4 -48l-161 2l-96 -2l-5 48l57 10l-44 101h-193zM274 400
l-2 45l-87 -238h160z" />
    <glyph glyph-name="Agrave.002" horiz-adv-x="740" 
d="M326 744l-115 106h140l51 -106h-76zM205 226l-56 -167l78 -13l-5 -47l-109 3l-101 -3l-5 47l63 12l231 628l127 28l236 -657l69 -11l-5 -47l-178 3l-120 -3l-5 47l73 13l-57 167h-236zM333 544l-3 57l-106 -320h198z" />
    <glyph glyph-name="Agrave.sc" horiz-adv-x="623" 
d="M272 569l-94 102h126l37 -102h-69zM168 158l-44 -101l63 -10l-5 -48l-86 2l-83 -2l-4 48l48 11l186 439l128 33l189 -475l54 -8l-4 -48l-161 2l-96 -2l-5 48l57 10l-44 101h-193zM274 400l-2 45l-87 -238h160z" />
    <glyph glyph-name="Amacron.002" horiz-adv-x="740" 
d="M214 832h292v-70h-292v70zM205 226l-56 -167l78 -13l-5 -47l-109 3l-101 -3l-5 47l63 12l231 628l127 28l236 -657l69 -11l-5 -47l-178 3l-120 -3l-5 47l73 13l-57 167h-236zM333 544l-3 57l-106 -320h198z" />
    <glyph glyph-name="Amacron.sc" horiz-adv-x="623" 
d="M178 643h247v-68h-247v68zM168 158l-44 -101l63 -10l-5 -48l-86 2l-83 -2l-4 48l48 11l186 439l128 33l189 -475l54 -8l-4 -48l-161 2l-96 -2l-5 48l57 10l-44 101h-193zM274 400l-2 45l-87 -238h160z" />
    <glyph glyph-name="Aogonek.001" horiz-adv-x="740" 
d="M333 544l-3 57l-106 -320h198zM428 714l236 -657l69 -11l-5 -47l-195 2l-37 -56v-16q0 -13 3.5 -25.5t14 -22.5t30 -16t51.5 -6v-39q-55 0 -93 6.5t-61.5 19t-34 31.5t-10.5 44v23l111 84l-66 198h-236l-56 -167l78 -13l-5 -47l-109 3l-101 -3l-5 47l63 12l231 628z" />
    <glyph glyph-name="Aogonek.sc" horiz-adv-x="623" 
d="M168 158l-44 -101l63 -10l-5 -48l-86 2l-83 -2l-4 48l48 11l186 439l128 33l189 -475l54 -8l-4 -48l-173 1l-28 -70v-24q0 -4 2 -13t10.5 -18t25 -15.5t46.5 -6.5v-40q-96 0 -135 18t-39 55v63l92 91l-50 118h-193zM274 400l-2 45l-87 -238h160z" />
    <glyph glyph-name="Aring.002" horiz-adv-x="740" 
d="M442 784q0 -19 -6.5 -31t-17.5 -19.5t-25.5 -12.5t-30.5 -9q-15 0 -30 3.5t-26.5 12t-19 22t-7.5 33.5q0 18 7 30t18 20t26 13.5t30 9.5q32 0 57 -15.5t25 -56.5zM320 784q0 -18 12 -28.5t29 -10.5q18 0 29.5 10.5t11.5 28.5q0 17 -11.5 28.5t-29.5 11.5q-17 0 -29 -11.5
t-12 -28.5zM205 226l-56 -167l78 -13l-5 -47l-109 3l-101 -3l-5 47l63 12l231 628l127 28l236 -657l69 -11l-5 -47l-178 3l-120 -3l-5 47l73 13l-57 167h-236zM333 544l-3 57l-106 -320h198z" />
    <glyph glyph-name="Aring.sc" horiz-adv-x="623" 
d="M259 636q0 -22 14 -33t34 -11q21 0 35 11t14 33q0 23 -14 35.5t-35 12.5q-20 0 -34 -12.5t-14 -35.5zM406 635q0 -25 -8 -40t-21.5 -24t-31 -14t-37.5 -9q-18 0 -36.5 4t-32.5 14t-23 27t-9 43q0 22 8.5 37t22 25.5t31.5 17t37 12.5q21 0 39 -4.5t31.5 -15t21.5 -28.5
t8 -45zM168 158l-44 -101l63 -10l-5 -48l-86 2l-83 -2l-4 48l48 11l186 439l128 33l189 -475l54 -8l-4 -48l-161 2l-96 -2l-5 48l57 10l-44 101h-193zM274 400l-2 45l-87 -238h160z" />
    <glyph glyph-name="Aringacute.002" horiz-adv-x="740" 
d="M441 782q0 -19 -6.5 -31t-17.5 -19.5t-25.5 -12t-30.5 -8.5q-15 0 -29.5 3.5t-26 12t-19 22t-7.5 33.5q0 18 7 29.5t18.5 20t26.5 13.5t31 9q5 0 13 -2l16 29h76l-55 -40q13 -8 21 -22t8 -37zM320 782q0 -17 11.5 -27.5t28.5 -10.5q18 0 29.5 10.5t11.5 27.5t-11.5 29
t-29.5 12q-17 0 -28.5 -12t-11.5 -29zM205 226l-56 -167l78 -13l-5 -47l-109 3l-101 -3l-5 47l63 12l231 628l127 28l236 -657l69 -11l-5 -47l-178 3l-120 -3l-5 47l73 13l-57 167h-236zM333 544l-3 57l-106 -320h198z" />
    <glyph glyph-name="Aringacute.sc" horiz-adv-x="623" 
d="M258 634q0 -22 14 -33.5t35 -11.5t35.5 11.5t14.5 33.5q0 23 -14.5 36t-35.5 13t-35 -13t-14 -36zM308 542q-18 0 -36.5 4.5t-32.5 15.5t-23 29t-9 46q0 22 8.5 37.5t22.5 26t32.5 17t39.5 11.5l19 28h100l-64 -45q19 -11 30 -29t11 -47q0 -27 -8 -43t-21.5 -26t-31 -15
t-37.5 -10zM168 158l-44 -101l63 -10l-5 -48l-86 2l-83 -2l-4 48l48 11l186 439l128 33l189 -475l54 -8l-4 -48l-161 2l-96 -2l-5 48l57 10l-44 101h-193zM274 400l-2 45l-87 -238h160z" />
    <glyph glyph-name="Atilde.002" horiz-adv-x="740" 
d="M224 834l75 19l174 -43l32 43h34l-29 -96l-74 -16l-175 43l-31 -43h-34zM205 226l-56 -167l78 -13l-5 -47l-109 3l-101 -3l-5 47l63 12l231 628l127 28l236 -657l69 -11l-5 -47l-178 3l-120 -3l-5 47l73 13l-57 167h-236zM333 544l-3 57l-106 -320h198z" />
    <glyph glyph-name="Atilde.sc" horiz-adv-x="623" 
d="M184 663l63 16l151 -38l25 35h31l-25 -102l-62 -11l-152 38l-24 -35h-31zM168 158l-44 -101l63 -10l-5 -48l-86 2l-83 -2l-4 48l48 11l186 439l128 33l189 -475l54 -8l-4 -48l-161 2l-96 -2l-5 48l57 10l-44 101h-193zM274 400l-2 45l-87 -238h160z" />
    <glyph glyph-name="B.sc" horiz-adv-x="574" 
d="M140 1l-101 -2l-4 48l61 10v402l-61 10l4 46l101 -2l227 2q38 0 66 -10.5t46 -27.5t27 -38.5t9 -43.5q0 -48 -41.5 -79.5t-111.5 -40.5q183 -9 183 -131q0 -30 -16.5 -55t-46 -43t-69.5 -30t-86 -17zM239 465v-175h48q39 0 61.5 27t22.5 64q0 38 -19 64.5t-67 26.5z
M286 44q33 0 55 9.5t35.5 24.5t19.5 32.5t6 33.5q0 47 -28.5 77t-79.5 30h-55v-200z" />
    <glyph glyph-name="C.sc" horiz-adv-x="616" 
d="M579 192l-14 -156q-27 -9 -51 -16t-49.5 -13t-55 -10.5t-66.5 -9.5q-62 0 -118 16t-99.5 47.5t-69 78t-25.5 108.5q0 67 22 115.5t63.5 82.5t101 56.5t135.5 36.5q66 0 119.5 -10.5t94.5 -27.5v-156h-63l-26 68q-17 25 -45.5 43.5t-79.5 18.5q-35 0 -66 -13.5t-53.5 -39
t-35.5 -62t-13 -82.5q0 -102 47 -160t127 -58q42 0 69.5 17t52.5 46l39 80h59z" />
    <glyph glyph-name="Cacute.002" horiz-adv-x="708" 
d="M370 744l51 106h140l-115 -106h-76zM685 233l-20 -179q-46 -20 -111.5 -40t-148.5 -32q-73 0 -140 22.5t-118.5 67t-82 110.5t-30.5 152q0 88 28 154t80 112.5t127 75t168 42.5q37 0 70.5 -6.5t63.5 -16t55 -21.5t44 -23v-171h-69l-32 98q-10 13 -24 26.5t-32.5 24
t-42.5 17t-55 6.5q-47 0 -86 -19t-68 -56t-45 -90.5t-16 -122.5q0 -64 15.5 -121t45 -100t71.5 -68.5t95 -25.5q49 0 82 20.5t60 46.5l49 117h67z" />
    <glyph glyph-name="Cacute.sc" horiz-adv-x="616" 
d="M579 192l-14 -156q-27 -9 -51 -16t-49.5 -13t-55 -10.5t-66.5 -9.5q-62 0 -118 16t-99.5 47.5t-69 78t-25.5 108.5q0 67 22 115.5t63.5 82.5t101 56.5t135.5 36.5q66 0 119.5 -10.5t94.5 -27.5v-156h-63l-26 68q-17 25 -45.5 43.5t-79.5 18.5q-35 0 -66 -13.5t-53.5 -39
t-35.5 -62t-13 -82.5q0 -102 47 -160t127 -58q42 0 69.5 17t52.5 46l39 80h59zM320 569l37 102h127l-95 -102h-69z" />
    <glyph glyph-name="Ccaron.002" horiz-adv-x="708" 
d="M403 807l17 -18l18 18l63 43h82l-115 -106h-96l-114 106h82zM685 233l-20 -179q-46 -20 -111.5 -40t-148.5 -32q-73 0 -140 22.5t-118.5 67t-82 110.5t-30.5 152q0 88 28 154t80 112.5t127 75t168 42.5q37 0 70.5 -6.5t63.5 -16t55 -21.5t44 -23v-171h-69l-32 98
q-10 13 -24 26.5t-32.5 24t-42.5 17t-55 6.5q-47 0 -86 -19t-68 -56t-45 -90.5t-16 -122.5q0 -64 15.5 -121t45 -100t71.5 -68.5t95 -25.5q49 0 82 20.5t60 46.5l49 117h67z" />
    <glyph glyph-name="Ccaron.sc" horiz-adv-x="616" 
d="M579 192l-14 -156q-27 -9 -51 -16t-49.5 -13t-55 -10.5t-66.5 -9.5q-62 0 -118 16t-99.5 47.5t-69 78t-25.5 108.5q0 67 22 115.5t63.5 82.5t101 56.5t135.5 36.5q66 0 119.5 -10.5t94.5 -27.5v-156h-63l-26 68q-17 25 -45.5 43.5t-79.5 18.5q-35 0 -66 -13.5t-53.5 -39
t-35.5 -62t-13 -82.5q0 -102 47 -160t127 -58q42 0 69.5 17t52.5 46l39 80h59zM296 671l47 -27l17 -25l16 25l48 27h76l-98 -102h-84l-98 102h76z" />
    <glyph glyph-name="Ccedilla.001" horiz-adv-x="708" 
d="M364 -15q-68 6 -128 31.5t-105 69.5t-71 106t-26 142q0 88 28 154t80 112.5t127 75t168 42.5q37 0 70.5 -6.5t63.5 -16t55 -21.5t44 -23l1 -171h-70l-32 98q-10 13 -24 26.5t-32.5 24t-42.5 17t-55 6.5q-47 0 -86 -19t-68 -56t-45 -90.5t-16 -122.5q0 -64 15.5 -121
t45 -100t71.5 -68.5t95 -25.5q49 0 82 20.5t60 46.5l49 117h67l-20 -179q-47 -20 -114.5 -41t-148.5 -31l-15 -17q33 -2 53 -14t20 -36q0 -15 -9.5 -26.5t-24.5 -20t-32 -15t-32 -10.5l-60 -18h-55l41 49h74q21 13 21 31q0 9 -6 15.5t-15.5 10t-21 5.5t-23.5 2z" />
    <glyph glyph-name="Ccedilla.sc" horiz-adv-x="616" 
d="M287 -148q11 8 16 20t5 24q0 26 -17 35.5t-35 9.5l39 49q-54 6 -102 24t-84 49t-57 74.5t-21 99.5q0 67 22 115.5t63.5 82.5t101 56.5t135.5 36.5q66 0 119.5 -10.5t94.5 -27.5v-156h-63l-26 68q-17 25 -45.5 43.5t-79.5 18.5q-35 0 -66 -13.5t-53.5 -39t-35.5 -62
t-13 -82.5q0 -102 47 -160t127 -58q42 0 69.5 17t52.5 46l39 80h59l-14 -156q-27 -9 -51 -16t-49.5 -13t-55 -10.5t-66.5 -9.5h-4l-15 -22q31 0 49.5 -12.5t18.5 -36.5q0 -20 -9 -34t-22.5 -24.5t-29 -17.5t-29.5 -12l-42 -16h-52l25 40h54v0z" />
    <glyph glyph-name="Ccircumflex.002" horiz-adv-x="708" 
d="M262 744l114 106h96l115 -106h-82l-63 43l-18 18l-17 -18l-63 -43h-82zM685 233l-20 -179q-46 -20 -111.5 -40t-148.5 -32q-73 0 -140 22.5t-118.5 67t-82 110.5t-30.5 152q0 88 28 154t80 112.5t127 75t168 42.5q37 0 70.5 -6.5t63.5 -16t55 -21.5t44 -23v-171h-69
l-32 98q-10 13 -24 26.5t-32.5 24t-42.5 17t-55 6.5q-47 0 -86 -19t-68 -56t-45 -90.5t-16 -122.5q0 -64 15.5 -121t45 -100t71.5 -68.5t95 -25.5q49 0 82 20.5t60 46.5l49 117h67z" />
    <glyph glyph-name="Ccircumflex.sc" horiz-adv-x="616" 
d="M579 192l-14 -156q-27 -9 -51 -16t-49.5 -13t-55 -10.5t-66.5 -9.5q-62 0 -118 16t-99.5 47.5t-69 78t-25.5 108.5q0 67 22 115.5t63.5 82.5t101 56.5t135.5 36.5q66 0 119.5 -10.5t94.5 -27.5v-156h-63l-26 68q-17 25 -45.5 43.5t-79.5 18.5q-35 0 -66 -13.5t-53.5 -39
t-35.5 -62t-13 -82.5q0 -102 47 -160t127 -58q42 0 69.5 17t52.5 46l39 80h59zM221 569l98 102h84l98 -102h-76l-47 27l-17 25l-16 -25l-48 -27h-76z" />
    <glyph glyph-name="Cdotaccent.002" horiz-adv-x="708" 
d="M372 850l62 5l38 -5l6 -56l-11 -48l-59 -6l-40 6l-6 57zM685 233l-20 -179q-46 -20 -111.5 -40t-148.5 -32q-73 0 -140 22.5t-118.5 67t-82 110.5t-30.5 152q0 88 28 154t80 112.5t127 75t168 42.5q37 0 70.5 -6.5t63.5 -16t55 -21.5t44 -23v-171h-69l-32 98
q-10 13 -24 26.5t-32.5 24t-42.5 17t-55 6.5q-47 0 -86 -19t-68 -56t-45 -90.5t-16 -122.5q0 -64 15.5 -121t45 -100t71.5 -68.5t95 -25.5q49 0 82 20.5t60 46.5l49 117h67z" />
    <glyph glyph-name="Cdotaccent.sc" horiz-adv-x="616" 
d="M579 192l-14 -156q-27 -9 -51 -16t-49.5 -13t-55 -10.5t-66.5 -9.5q-62 0 -118 16t-99.5 47.5t-69 78t-25.5 108.5q0 67 22 115.5t63.5 82.5t101 56.5t135.5 36.5q66 0 119.5 -10.5t94.5 -27.5v-156h-63l-26 68q-17 25 -45.5 43.5t-79.5 18.5q-35 0 -66 -13.5t-53.5 -39
t-35.5 -62t-13 -82.5q0 -102 47 -160t127 -58q42 0 69.5 17t52.5 46l39 80h59zM313 683l58 3l42 -5l6 -59l-11 -48l-56 -5l-44 5l-6 59z" />
    <glyph glyph-name="D.sc" horiz-adv-x="655" 
d="M141 513l194 2q67 1 121 -15t91 -47t57 -77t20 -106q0 -48 -16.5 -94t-52 -83.5t-90.5 -62.5t-132 -31l-196 2l-98 -2l-4 48l61 10v402l-61 10l4 46zM239 465v-416l81 -4q36 -1 64.5 16.5t48 47.5t29.5 68.5t10 80.5q0 101 -46 156.5t-127 53.5z" />
    <glyph glyph-name="Dcaron.002" horiz-adv-x="761" 
d="M339 807l18 -18l17 18l63 43h82l-114 -106h-96l-115 106h82zM161 698l224 3q79 1 142.5 -20.5t108 -64t68 -104.5t23.5 -143q0 -75 -20.5 -138.5t-63 -112t-108 -79.5t-155.5 -40l-222 3l-123 -3l-5 47l78 13v583l-78 13l5 46zM261 645v-586l105 -8q46 -2 82.5 21.5
t62 65t39 98t13.5 119.5q0 65 -15 120t-43.5 94.5t-70 61t-94.5 19.5z" />
    <glyph glyph-name="Dcaron.sc" horiz-adv-x="655" 
d="M239 465v-416l81 -4q36 -1 64.5 16.5t48 47.5t29.5 68.5t10 80.5q0 101 -46 156.5t-127 53.5zM141 513l194 2q67 1 121 -15t91 -47t57 -77t20 -106q0 -48 -16.5 -94t-52 -83.5t-90.5 -62.5t-132 -31l-196 2l-98 -2l-4 48l61 10v402l-61 10l4 46zM450 671l-98 -102h-83
l-99 102h77l47 -27l16 -25l17 25l48 27h75z" />
    <glyph glyph-name="Dcroat.sc" horiz-adv-x="655" 
d="M96 291v168l-61 10l4 46l102 -2l194 2q67 1 121 -15t91 -47t57 -77t20 -106q0 -48 -16.5 -94t-52 -83.5t-90.5 -62.5t-132 -31l-196 2l-98 -2l-4 48l61 10v186h-56v48h56zM239 465v-174h86v-48h-86v-194l81 -4q36 -1 64.5 16.5t48 47.5t29.5 68.5t10 80.5
q0 101 -46 156.5t-127 53.5z" />
    <glyph glyph-name="E.sc" horiz-adv-x="568" 
d="M514 515l8 -154h-48l-51 95l-184 2v-158l89 3l33 80h46l-8 -114l8 -110h-46l-33 80l-89 3v-186l194 2l56 100h49l-26 -159l-358 2l-115 -2l-4 48l61 10v402l-61 10l4 46l115 -2z" />
    <glyph glyph-name="Eacute.002" horiz-adv-x="646" 
d="M272 744l50 106h140l-114 -106h-76zM595 701l11 -192h-52l-59 130l-234 3v-246l116 4l40 107h50l-10 -137l10 -141h-50l-40 106l-116 4v-281l245 3l68 135h53l-33 -197l-421 3l-138 -3l-5 47l78 13v583l-78 13l5 46l138 -3z" />
    <glyph glyph-name="Eacute.sc" horiz-adv-x="568" 
d="M243 569l37 102h127l-95 -102h-69zM514 515l8 -154h-48l-51 95l-184 2v-158l89 3l33 80h46l-8 -114l8 -110h-46l-33 80l-89 3v-186l194 2l56 100h49l-26 -159l-358 2l-115 -2l-4 48l61 10v402l-61 10l4 46l115 -2z" />
    <glyph glyph-name="Ebreve.002" horiz-adv-x="646" 
d="M330 800q22 0 40.5 6.5t33 15.5t25 19.5t17.5 19.5l33 -24q-9 -15 -18.5 -29t-24 -27t-36.5 -25.5t-55 -25.5q-32 0 -57.5 9.5t-46 25t-35.5 34.5t-25 38l34 24q7 -9 17.5 -19.5t24.5 -19.5t32 -15.5t41 -6.5zM595 701l11 -192h-52l-59 130l-234 3v-246l116 4l40 107h50
l-10 -137l10 -141h-50l-40 106l-116 4v-281l245 3l68 135h53l-33 -197l-421 3l-138 -3l-5 47l78 13v583l-78 13l5 46l138 -3z" />
    <glyph glyph-name="Ebreve.sc" horiz-adv-x="568" 
d="M286 633q38 0 62 14.5t36 25.5l30 -26q-8 -18 -16.5 -29.5t-21.5 -20t-31.5 -15.5t-45.5 -16q-53 0 -88.5 22t-52.5 59l31 26q11 -11 35 -25.5t62 -14.5zM514 515l8 -154h-48l-51 95l-184 2v-158l89 3l33 80h46l-8 -114l8 -110h-46l-33 80l-89 3v-186l194 2l56 100h49
l-26 -159l-358 2l-115 -2l-4 48l61 10v402l-61 10l4 46l115 -2z" />
    <glyph glyph-name="Ecaron.002" horiz-adv-x="646" 
d="M315 807l17 -18l18 18l63 43h82l-115 -106h-96l-114 106h82zM595 701l11 -192h-52l-59 130l-234 3v-246l116 4l40 107h50l-10 -137l10 -141h-50l-40 106l-116 4v-281l245 3l68 135h53l-33 -197l-421 3l-138 -3l-5 47l78 13v583l-78 13l5 46l138 -3z" />
    <glyph glyph-name="Ecaron.sc" horiz-adv-x="568" 
d="M220 671l47 -27l17 -25l16 25l48 27h76l-98 -102h-85l-97 102h76zM514 515l8 -154h-48l-51 95l-184 2v-158l89 3l33 80h46l-8 -114l8 -110h-46l-33 80l-89 3v-186l194 2l56 100h49l-26 -159l-358 2l-115 -2l-4 48l61 10v402l-61 10l4 46l115 -2z" />
    <glyph glyph-name="Ecircumflex.002" horiz-adv-x="646" 
d="M170 744l114 106h96l115 -106h-82l-63 43l-18 18l-17 -18l-63 -43h-82zM595 701l11 -192h-52l-59 130l-234 3v-246l116 4l40 107h50l-10 -137l10 -141h-50l-40 106l-116 4v-281l245 3l68 135h53l-33 -197l-421 3l-138 -3l-5 47l78 13v583l-78 13l5 46l138 -3z" />
    <glyph glyph-name="Ecircumflex.sc" horiz-adv-x="568" 
d="M145 569l98 102h83l99 -102h-76l-47 27l-17 25l-16 -25l-48 -27h-76zM514 515l8 -154h-48l-51 95l-184 2v-158l89 3l33 80h46l-8 -114l8 -110h-46l-33 80l-89 3v-186l194 2l56 100h49l-26 -159l-358 2l-115 -2l-4 48l61 10v402l-61 10l4 46l115 -2z" />
    <glyph glyph-name="Edieresis.002" horiz-adv-x="646" 
d="M180 849l69 5l28 -5l7 -55l-12 -47l-67 -5l-29 5l-6 56zM402 849l68 5l29 -5l6 -55l-11 -47l-68 -5l-28 5l-7 56zM595 701l11 -192h-52l-59 130l-234 3v-246l116 4l40 107h50l-10 -137l10 -141h-50l-40 106l-116 4v-281l245 3l68 135h53l-33 -197l-421 3l-138 -3l-5 47
l78 13v583l-78 13l5 46l138 -3z" />
    <glyph glyph-name="Edieresis.sc" horiz-adv-x="568" 
d="M148 660l65 6l26 -6l7 -53l-12 -46l-62 -5l-27 5l-6 54zM346 660l64 6l27 -6l5 -53l-10 -46l-63 -5l-27 5l-6 54zM514 515l8 -154h-48l-51 95l-184 2v-158l89 3l33 80h46l-8 -114l8 -110h-46l-33 80l-89 3v-186l194 2l56 100h49l-26 -159l-358 2l-115 -2l-4 48l61 10v402
l-61 10l4 46l115 -2z" />
    <glyph glyph-name="Edotaccent.002" horiz-adv-x="646" 
d="M289 850l62 5l38 -5l6 -56l-11 -48l-59 -6l-40 6l-6 57zM595 701l11 -192h-52l-59 130l-234 3v-246l116 4l40 107h50l-10 -137l10 -141h-50l-40 106l-116 4v-281l245 3l68 135h53l-33 -197l-421 3l-138 -3l-5 47l78 13v583l-78 13l5 46l138 -3z" />
    <glyph glyph-name="Edotaccent.sc" horiz-adv-x="568" 
d="M244 660l59 4l41 -6l6 -58l-11 -49l-55 -5l-45 5l-5 59zM514 515l8 -154h-48l-51 95l-184 2v-158l89 3l33 80h46l-8 -114l8 -110h-46l-33 80l-89 3v-186l194 2l56 100h49l-26 -159l-358 2l-115 -2l-4 48l61 10v402l-61 10l4 46l115 -2z" />
    <glyph glyph-name="Egrave.002" horiz-adv-x="646" 
d="M322 744l-115 106h140l51 -106h-76zM595 701l11 -192h-52l-59 130l-234 3v-246l116 4l40 107h50l-10 -137l10 -141h-50l-40 106l-116 4v-281l245 3l68 135h53l-33 -197l-421 3l-138 -3l-5 47l78 13v583l-78 13l5 46l138 -3z" />
    <glyph glyph-name="Egrave.sc" horiz-adv-x="568" 
d="M265 569l-95 102h127l36 -102h-68zM514 515l8 -154h-48l-51 95l-184 2v-158l89 3l33 80h46l-8 -114l8 -110h-46l-33 80l-89 3v-186l194 2l56 100h49l-26 -159l-358 2l-115 -2l-4 48l61 10v402l-61 10l4 46l115 -2z" />
    <glyph glyph-name="Emacron.002" horiz-adv-x="646" 
d="M188 832h292v-70h-292v70zM595 701l11 -192h-52l-59 130l-234 3v-246l116 4l40 107h50l-10 -137l10 -141h-50l-40 106l-116 4v-281l245 3l68 135h53l-33 -197l-421 3l-138 -3l-5 47l78 13v583l-78 13l5 46l138 -3z" />
    <glyph glyph-name="Emacron.sc" horiz-adv-x="568" 
d="M166 643h247v-68h-247v68zM514 515l8 -154h-48l-51 95l-184 2v-158l89 3l33 80h46l-8 -114l8 -110h-46l-33 80l-89 3v-186l194 2l56 100h49l-26 -159l-358 2l-115 -2l-4 48l61 10v402l-61 10l4 46l115 -2z" />
    <glyph glyph-name="Eng.001" horiz-adv-x="739" 
d="M185 59l85 -13l-5 -47l-114 3l-116 -3l-5 47l78 13v581l-75 14l5 47l81 -3l100 3l328 -412l27 -71v424l-73 13l5 47l101 -3l117 3l5 -47l-78 -13v-645l-94 -172h-135v95h82l47 45l84 32h-53l-374 489l-23 74v-501z" />
    <glyph glyph-name="Eng.sc" horiz-adv-x="646" 
d="M488 -3l-303 334l-21 93v-367l59 -10l-3 -48l-90 2l-90 -2l-4 48l60 10v404l-60 8l4 46l65 -2l99 2l258 -255l24 -93v292l-57 10l1 46l92 -2l89 2l5 -46l-61 -10v-462l-78 -170h-116v84h59l55 58l44 28h-31z" />
    <glyph glyph-name="Eogonek.001" horiz-adv-x="646" 
d="M585 -180q-55 0 -93 6.5t-61.5 19t-34 31.5t-10.5 44v23l82 56l-295 2l-138 -3l-5 47l78 13v583l-78 13l5 46l138 -3l422 3l11 -192h-52l-59 130l-234 3v-246l116 4l40 107h50l-10 -137l10 -141h-50l-40 106l-116 4v-281l245 3l68 135h53l-33 -197l-72 1l-36 -59v-12
q0 -13 3.5 -25.5t14 -22.5t30 -16t51.5 -6v-39z" />
    <glyph glyph-name="Eogonek.sc" horiz-adv-x="568" 
d="M514 515l8 -154h-48l-51 95l-184 2v-158l89 3l33 80h46l-8 -114l8 -110h-46l-33 80l-89 3v-186l194 2l56 100h49l-26 -159l-63 1l-28 -66v-28q0 -4 2 -13t10.5 -18t25 -15.5t46.5 -6.5v-40q-95 0 -134.5 18t-39.5 55v66l71 48l-248 1l-115 -2l-4 48l61 10v402l-61 10
l4 46l115 -2z" />
    <glyph glyph-name="Eth.sc" horiz-adv-x="655" 
d="M96 293v166l-61 10l4 46l102 -2l194 2q67 1 121 -15t91 -47t57 -77t20 -106q0 -48 -16.5 -94t-52 -83.5t-90.5 -62.5t-132 -31l-195 2l-99 -2l-4 48l61 10v184h-56v52h56zM239 465v-172h87v-52h-87v-192l81 -4q36 -1 64.5 16.5t48 47.5t29.5 68.5t10 80.5
q0 101 -46 156.5t-127 53.5z" />
    <glyph glyph-name="Euro.sc" horiz-adv-x="626" 
d="M261 176q16 -54 52 -85t92 -31q31 0 54 3.5t40 8.5t29 10.5t23 9.5l23 -40q-11 -6 -29.5 -14.5t-42.5 -17.5t-51 -17t-55 -14q-52 0 -99 10.5t-85 33t-65 58t-39 85.5h-53v63h45v17v10t1 10h-46v62h55q23 80 95 123.5t195 64.5q57 0 100.5 -20.5t75.5 -46.5v-121h-59
l-23 80q-17 29 -46.5 39t-61.5 10q-20 0 -40 -6t-38 -21t-31.5 -40t-19.5 -62h210l-39 -62h-177v-9v-14t1 -14h151l-39 -63h-103z" />
    <glyph glyph-name="Euro.tlf" 
d="M225 249q18 -80 63 -128.5t117 -48.5q38 0 65.5 5t48 12t35.5 14.5t28 12.5l25 -46q-12 -8 -34.5 -19t-50.5 -23t-60 -23.5t-65 -19.5q-63 0 -118.5 16t-99.5 49t-74.5 82.5t-44.5 116.5h-66v67h58v28v20t1 20h-59v67h68q26 114 111 175t227 89q36 0 67.5 -7.5
t57.5 -19.5t48 -26.5t39 -27.5v-147h-65l-28 101q-18 26 -50.5 43t-79.5 17q-27 0 -53.5 -12t-49.5 -37t-40.5 -62t-26.5 -86h270l-42 -67h-234v-20v-24t1 -24h203l-42 -67h-150z" />
    <glyph glyph-name="Euro.tlf.sc" 
d="M255 176q15 -54 55.5 -85t100.5 -31q29 0 50 3.5t36.5 8.5t27 10.5t21.5 9.5l22 -40q-11 -6 -29.5 -14.5t-42.5 -17.5t-51 -17t-55 -14q-52 0 -99 10.5t-84.5 33t-64.5 58t-39 85.5h-53v63h45v17v10t1 10h-46v62h55q22 80 94.5 123.5t195.5 64.5q57 0 100.5 -20.5
t75.5 -46.5v-121h-60l-23 80q-16 29 -45.5 39t-61.5 10q-20 0 -40 -6t-38 -21t-31.5 -40t-20.5 -62h211l-39 -62h-178v-9v-14t2 -14h151l-39 -63h-104z" />
    <glyph glyph-name="F.sc" horiz-adv-x="542" 
d="M39 -1l-4 48l61 10v402l-61 10l4 46l115 -2l360 2l8 -166h-48l-51 107l-184 2v-172l89 3l33 81h46l-8 -114l8 -111h-46l-33 81l-89 3v-172l100 -10l-5 -48l-180 2z" />
    <glyph glyph-name="G.sc" horiz-adv-x="646" 
d="M577 56q-65 -29 -122 -44t-119 -25q-60 0 -115 16.5t-97.5 48t-67.5 76.5t-25 102q0 70 22.5 120.5t64.5 86t103 57t139 34.5q65 0 119 -12.5t91 -29.5v-150h-61l-28 66q-26 32 -55 47t-76 15q-77 0 -121 -50t-44 -148q0 -100 45 -158.5t125 -58.5q30 0 49 5t30 10v120
l-75 9l4 54l143 -3l107 3l6 -54l-42 -9v-128v0z" />
    <glyph glyph-name="Gbreve.002" horiz-adv-x="753" 
d="M413 800q22 0 40.5 6.5t33 15.5t25 19.5t17.5 19.5l33 -24q-9 -15 -18.5 -29t-24 -27t-36.5 -25.5t-55 -25.5q-32 0 -57.5 9.5t-46 25t-35.5 34.5t-25 38l34 24q7 -9 17.5 -19.5t24.5 -19.5t32 -15.5t41 -6.5zM679 60q-45 -22 -117 -43.5t-166 -34.5q-71 0 -136.5 23
t-115.5 67t-80 108.5t-30 148.5q0 91 27.5 157.5t79.5 113t126.5 75t167.5 43.5q37 0 72 -6.5t65.5 -17t56 -22.5t44.5 -24v-167h-67l-33 95q-22 32 -61.5 54t-94.5 22q-100 0 -158.5 -74t-58.5 -214q0 -65 16 -122.5t45 -100.5t71 -67.5t95 -24.5q37 0 61 11.5t38 23.5v184
l-90 13l5 50l162 -3l124 3l7 -50l-55 -13v-208z" />
    <glyph glyph-name="Gbreve.sc" horiz-adv-x="646" 
d="M577 56q-65 -29 -122 -44t-119 -25q-60 0 -115 16.5t-97.5 48t-67.5 76.5t-25 102q0 70 22.5 120.5t64.5 86t103 57t139 34.5q65 0 119 -12.5t91 -29.5v-150h-61l-28 66q-26 32 -55 47t-76 15q-77 0 -121 -50t-44 -148q0 -100 45 -158.5t125 -58.5q30 0 49 5t30 10v120
l-75 9l4 54l143 -3l107 3l6 -54l-42 -9v-128zM349 630q38 0 62 15t35 28l32 -26q-12 -17 -22.5 -28.5t-23.5 -21t-30 -17t-41 -14.5q-52 0 -86 22t-53 59l31 27q12 -13 35 -28.5t61 -15.5z" />
    <glyph glyph-name="Gcircumflex.002" horiz-adv-x="753" 
d="M262 744l115 106h96l114 -106h-82l-63 43l-17 18l-18 -18l-63 -43h-82zM679 60q-45 -22 -117 -43.5t-166 -34.5q-71 0 -136.5 23t-115.5 67t-80 108.5t-30 148.5q0 91 27.5 157.5t79.5 113t126.5 75t167.5 43.5q37 0 72 -6.5t65.5 -17t56 -22.5t44.5 -24v-167h-67l-33 95
q-22 32 -61.5 54t-94.5 22q-100 0 -158.5 -74t-58.5 -214q0 -65 16 -122.5t45 -100.5t71 -67.5t95 -24.5q37 0 61 11.5t38 23.5v184l-90 13l5 50l162 -3l124 3l7 -50l-55 -13v-208z" />
    <glyph glyph-name="Gcircumflex.sc" horiz-adv-x="646" 
d="M577 56q-65 -29 -122 -44t-119 -25q-60 0 -115 16.5t-97.5 48t-67.5 76.5t-25 102q0 70 22.5 120.5t64.5 86t103 57t139 34.5q65 0 119 -12.5t91 -29.5v-150h-61l-28 66q-26 32 -55 47t-76 15q-77 0 -121 -50t-44 -148q0 -100 45 -158.5t125 -58.5q30 0 49 5t30 10v120
l-75 9l4 54l143 -3l107 3l6 -54l-42 -9v-128zM222 569l98 102h84l98 -102h-76l-48 27l-17 25l-16 -25l-47 -27h-76z" />
    <glyph glyph-name="Gcommaaccent.001" horiz-adv-x="753" 
d="M387 -109l-52 28v39h124v-77l-75 -57l-41 11zM679 60q-45 -22 -117 -43.5t-166 -34.5q-71 0 -136.5 23t-115.5 67t-80 108.5t-30 148.5q0 91 27.5 157.5t79.5 113t126.5 75t167.5 43.5q37 0 72 -6.5t65.5 -17t56 -22.5t44.5 -24v-167h-67l-33 95q-22 32 -61.5 54
t-94.5 22q-100 0 -158.5 -74t-58.5 -214q0 -65 16 -122.5t45 -100.5t71 -67.5t95 -24.5q37 0 61 11.5t38 23.5v184l-90 13l5 50l162 -3l124 3l7 -50l-55 -13v-208z" />
    <glyph glyph-name="Gcommaaccent.sc" horiz-adv-x="646" 
d="M577 56q-65 -29 -122 -44t-119 -25q-60 0 -115 16.5t-97.5 48t-67.5 76.5t-25 102q0 70 22.5 120.5t64.5 86t103 57t139 34.5q65 0 119 -12.5t91 -29.5v-150h-61l-28 66q-26 32 -55 47t-76 15q-77 0 -121 -50t-44 -148q0 -100 45 -158.5t125 -58.5q30 0 49 5t30 10v120
l-75 9l4 54l143 -3l107 3l6 -54l-42 -9v-128zM301 -92l-19 25v30h111v-59l-66 -103l-45 7z" />
    <glyph glyph-name="Gdotaccent.002" horiz-adv-x="753" 
d="M378 850l62 5l38 -5l6 -56l-11 -48l-59 -6l-40 6l-6 57zM679 60q-45 -22 -117 -43.5t-166 -34.5q-71 0 -136.5 23t-115.5 67t-80 108.5t-30 148.5q0 91 27.5 157.5t79.5 113t126.5 75t167.5 43.5q37 0 72 -6.5t65.5 -17t56 -22.5t44.5 -24v-167h-67l-33 95
q-22 32 -61.5 54t-94.5 22q-100 0 -158.5 -74t-58.5 -214q0 -65 16 -122.5t45 -100.5t71 -67.5t95 -24.5q37 0 61 11.5t38 23.5v184l-90 13l5 50l162 -3l124 3l7 -50l-55 -13v-208z" />
    <glyph glyph-name="Gdotaccent.sc" horiz-adv-x="646" 
d="M577 56q-65 -29 -122 -44t-119 -25q-60 0 -115 16.5t-97.5 48t-67.5 76.5t-25 102q0 70 22.5 120.5t64.5 86t103 57t139 34.5q65 0 119 -12.5t91 -29.5v-150h-61l-28 66q-26 32 -55 47t-76 15q-77 0 -121 -50t-44 -148q0 -100 45 -158.5t125 -58.5q30 0 49 5t30 10v120
l-75 9l4 54l143 -3l107 3l6 -54l-42 -9v-128zM315 672l58 3l43 -6l5 -58l-11 -48l-55 -6l-45 6l-6 59z" />
    <glyph glyph-name="H.sc" horiz-adv-x="688" 
d="M35 469l4 46l129 -2l120 2l4 -46l-53 -10v-164h210v164l-54 10l4 46l122 -2l127 2l5 -46l-61 -10v-402l61 -10l-5 -48l-127 2l-122 -2l-4 48l54 10v179h-210v-179l53 -10l-4 -48l-120 2l-129 -2l-4 48l61 10v402z" />
    <glyph glyph-name="Hbar.sc" horiz-adv-x="688" 
d="M35 469l4 46l129 -2l120 2l4 -46l-53 -10v-73h210v73l-54 10l4 46l122 -2l127 2l5 -46l-61 -10v-402l61 -10l-5 -48l-127 2l-122 -2l-4 48l54 10v179h-210v-179l53 -10l-4 -48l-120 2l-129 -2l-4 48l61 10v402zM449 295v51h-210v-51h210z" />
    <glyph glyph-name="Hcircumflex.002" horiz-adv-x="792" 
d="M232 744l115 106h95l115 -106h-82l-63 43l-18 18l-17 -18l-63 -43h-82zM30 655l5 46l150 -3l141 3l5 -46l-70 -13v-249h272v249l-72 13l5 46l143 -3l148 3l5 -46l-76 -13v-583l76 -13l-5 -47l-148 3l-143 -3l-5 47l72 13v272h-272v-272l70 -13l-5 -47l-141 3l-150 -3
l-5 47l78 13v583z" />
    <glyph glyph-name="Hcircumflex.sc" horiz-adv-x="688" 
d="M204 569l98 102h84l98 -102h-76l-48 27l-16 25l-16 -25l-48 -27h-76zM35 469l4 46l129 -2l120 2l4 -46l-53 -10v-164h210v164l-54 10l4 46l122 -2l127 2l5 -46l-61 -10v-402l61 -10l-5 -48l-127 2l-122 -2l-4 48l54 10v179h-210v-179l53 -10l-4 -48l-120 2l-129 -2l-4 48
l61 10v402z" />
    <glyph glyph-name="I.sc" horiz-adv-x="335" 
d="M168 1l-129 -2l-4 48l61 10v402l-61 10l4 46l129 -2l128 2l4 -46l-61 -10v-402l61 -10l-4 -48z" />
    <glyph glyph-name="IJ.sc" horiz-adv-x="594" 
d="M507 146q0 -36 -11 -68.5t-27.5 -60.5t-36 -50t-36.5 -37l-61 -59h-86v104h101l6 15q6 15 7 30t1 35v404l-49 10l4 46l117 -3l124 3l4 -46l-57 -10v-313zM168 1l-129 -2l-4 48l61 10v402l-61 10l4 46l129 -2l109 2l4 -46l-42 -10v-402l46 -10l-4 -48z" />
    <glyph glyph-name="Iacute.002" horiz-adv-x="371" 
d="M136 744l51 106h140l-115 -106h-76zM185 2l-150 -3l-5 47l78 13v583l-78 13l5 46l150 -3l149 3l5 -46l-78 -13v-583l78 -13l-5 -47z" />
    <glyph glyph-name="Iacute.sc" horiz-adv-x="335" 
d="M131 569l38 102h126l-94 -102h-70zM168 1l-129 -2l-4 48l61 10v402l-61 10l4 46l129 -2l128 2l4 -46l-61 -10v-402l61 -10l-4 -48z" />
    <glyph glyph-name="Ibreve.002" horiz-adv-x="371" 
d="M182 800q22 0 40.5 6.5t33 15.5t25 19.5t17.5 19.5l33 -24q-9 -15 -18.5 -29t-24 -27t-36.5 -25.5t-55 -25.5q-32 0 -57.5 9.5t-46 25t-35.5 34.5t-25 38l34 24q7 -9 17.5 -19.5t24.5 -19.5t32 -15.5t41 -6.5zM185 2l-150 -3l-5 47l78 13v583l-78 13l5 46l150 -3l149 3
l5 -46l-78 -13v-583l78 -13l-5 -47z" />
    <glyph glyph-name="Ibreve.sc" horiz-adv-x="335" 
d="M166 633q38 0 61.5 13t36.5 27l30 -26q-9 -15 -18 -26.5t-22 -21t-31 -18t-44 -15.5q-54 0 -89 22t-52 59l30 26q12 -12 36 -26t62 -14zM168 1l-129 -2l-4 48l61 10v402l-61 10l4 46l129 -2l128 2l4 -46l-61 -10v-402l61 -10l-4 -48z" />
    <glyph glyph-name="Icircumflex.002" horiz-adv-x="371" 
d="M28 744l115 106h95l115 -106h-82l-63 43l-18 18l-17 -18l-63 -43h-82zM185 2l-150 -3l-5 47l78 13v583l-78 13l5 46l150 -3l149 3l5 -46l-78 -13v-583l78 -13l-5 -47z" />
    <glyph glyph-name="Icircumflex.sc" horiz-adv-x="335" 
d="M28 569l98 102h83l99 -102h-77l-47 27l-16 25l-17 -25l-47 -27h-76zM168 1l-129 -2l-4 48l61 10v402l-61 10l4 46l129 -2l128 2l4 -46l-61 -10v-402l61 -10l-4 -48z" />
    <glyph glyph-name="Idieresis.002" horiz-adv-x="371" 
d="M44 849l69 5l28 -5l6 -55l-11 -47l-67 -5l-29 5l-6 56zM240 849l68 5l29 -5l6 -55l-11 -47l-68 -5l-28 5l-7 56zM185 2l-150 -3l-5 47l78 13v583l-78 13l5 46l150 -3l149 3l5 -46l-78 -13v-583l78 -13l-5 -47z" />
    <glyph glyph-name="Idieresis.sc" horiz-adv-x="335" 
d="M41 660l64 6l26 -6l7 -53l-11 -46l-64 -5l-27 5l-5 54zM207 660l64 6l27 -6l6 -53l-10 -46l-64 -5l-26 5l-7 54zM168 1l-129 -2l-4 48l61 10v402l-61 10l4 46l129 -2l128 2l4 -46l-61 -10v-402l61 -10l-4 -48z" />
    <glyph glyph-name="Idotaccent.002" horiz-adv-x="371" 
d="M144 850l62 5l38 -5l6 -56l-11 -48l-59 -6l-40 6l-6 57zM185 2l-150 -3l-5 47l78 13v583l-78 13l5 46l150 -3l149 3l5 -46l-78 -13v-583l78 -13l-5 -47z" />
    <glyph glyph-name="Idotaccent.sc" horiz-adv-x="335" 
d="M120 672l59 3l42 -6l6 -58l-12 -48l-55 -6l-44 6l-6 59zM168 1l-129 -2l-4 48l61 10v402l-61 10l4 46l129 -2l128 2l4 -46l-61 -10v-402l61 -10l-4 -48z" />
    <glyph glyph-name="Igrave.002" horiz-adv-x="371" 
d="M163 744l-115 106h140l51 -106h-76zM185 2l-150 -3l-5 47l78 13v583l-78 13l5 46l150 -3l149 3l5 -46l-78 -13v-583l78 -13l-5 -47z" />
    <glyph glyph-name="Igrave.sc" horiz-adv-x="335" 
d="M139 569l-95 102h127l36 -102h-68zM168 1l-129 -2l-4 48l61 10v402l-61 10l4 46l129 -2l128 2l4 -46l-61 -10v-402l61 -10l-4 -48z" />
    <glyph glyph-name="Imacron.002" horiz-adv-x="371" 
d="M38 832h292v-70h-292v70zM185 2l-150 -3l-5 47l78 13v583l-78 13l5 46l150 -3l149 3l5 -46l-78 -13v-583l78 -13l-5 -47z" />
    <glyph glyph-name="Imacron.sc" horiz-adv-x="335" 
d="M43 643h247v-68h-247v68zM168 1l-129 -2l-4 48l61 10v402l-61 10l4 46l129 -2l128 2l4 -46l-61 -10v-402l61 -10l-4 -48z" />
    <glyph glyph-name="Iogonek.001" horiz-adv-x="371" 
d="M273 -180q-55 0 -93 6.5t-61.5 19t-34 31.5t-10.5 44v23l80 57l-119 -2l-5 47l78 13v583l-78 13l5 47l150 -3l147 3l5 -47l-76 -13v-583l76 -13l-5 -47l-120 2l-38 -58v-12q0 -13 3.5 -26t14.5 -23t30 -16.5t51 -6.5v-39z" />
    <glyph glyph-name="Iogonek.sc" horiz-adv-x="334" 
d="M193 1l-28 -67v-28q0 -4 2 -13t10.5 -18t25 -15.5t46.5 -6.5v-40q-96 0 -135 18t-39 55v55l69 60l-105 -2l-4 48l61 10v402l-61 10l4 47l129 -2l127 2l4 -47l-60 -10v-402l60 -10l-4 -48z" />
    <glyph glyph-name="Itilde.002" horiz-adv-x="371" 
d="M47 834l75 19l174 -43l32 43h34l-29 -96l-74 -16l-175 43l-31 -43h-34zM186 2l-150 -3l-5 47l78 13v583l-78 13l5 46l150 -3l149 3l5 -46l-78 -13v-583l78 -13l-5 -47z" />
    <glyph glyph-name="Itilde.sc" horiz-adv-x="335" 
d="M47 663l63 16l151 -38l25 35h31l-25 -102l-62 -11l-152 38l-24 -35h-31zM168 1l-129 -2l-4 48l61 10v402l-61 10l4 46l129 -2l128 2l4 -46l-61 -10v-402l61 -10l-4 -48z" />
    <glyph glyph-name="J.sc" horiz-adv-x="360" 
d="M273 146q0 -36 -11 -68.5t-27.5 -60.5t-36 -50t-36.5 -37l-61 -59h-86v122h101l6 15q6 15 7 30t1 35v386l-91 10l4 46l159 -3l124 3l4 -46l-57 -10v-313z" />
    <glyph glyph-name="Jcircumflex.002" horiz-adv-x="393" 
d="M43 744l115 106h96l114 -106h-82l-63 43l-17 18l-18 -18l-63 -43h-82zM292 139q0 -40 -10.5 -74t-26.5 -62t-35 -51t-37 -41l-80 -86h-100v120h114l8 21q9 25 11.5 54.5t2.5 74.5v547l-110 13l5 46l182 -4l144 4l5 -46l-73 -13v-503z" />
    <glyph glyph-name="Jcircumflex.sc" horiz-adv-x="363" 
d="M273 146q0 -36 -11 -68.5t-27.5 -60.5t-36 -50t-36.5 -37l-61 -59h-86v122h101l6 15q6 15 7 30t1 35v386l-91 10l4 46l159 -3l124 3l4 -46l-57 -10v-313zM54 569l98 102h83l99 -102h-76l-48 27l-16 25l-17 -25l-47 -27h-76z" />
    <glyph glyph-name="K.sc" horiz-adv-x="662" 
d="M264 292l216 167l-61 10l4 46l92 -2l107 2l4 -46l-63 -9l-229 -175l42 -19l222 -208l44 -11l-4 -48l-71 2l-106 -2l-206 221l-16 38v-201l55 -10l-4 -48l-122 2l-129 -2l-4 48l61 10v402l-61 10l4 46l129 -2l122 2l4 -46l-55 -10v-178z" />
    <glyph glyph-name="Kcommaaccent.001" horiz-adv-x="749" 
d="M363 -101l-50 28v39h124v-77l-75 -63l-41 11zM291 392l263 250l-73 13l5 46l110 -3l120 3l5 -46l-76 -14l-277 -259l44 -19l277 -305l53 -12l-5 -47l-85 3l-114 -3l-259 316l-18 38v-294l69 -13l-5 -47l-140 3l-150 -3l-5 47l78 13v583l-78 13l5 46l150 -3l140 3l5 -46
l-69 -13v-265z" />
    <glyph glyph-name="Kcommaaccent.sc" horiz-adv-x="662" 
d="M296 -92l-19 25v30h111v-59l-66 -103l-45 7zM264 292l216 167l-61 10l4 46l92 -2l107 2l4 -46l-63 -9l-229 -175l42 -19l222 -208l44 -11l-4 -48l-71 2l-106 -2l-206 221l-16 38v-201l55 -10l-4 -48l-122 2l-129 -2l-4 48l61 10v402l-61 10l4 46l129 -2l122 2l4 -46
l-55 -10v-178z" />
    <glyph glyph-name="L.sc" horiz-adv-x="541" 
d="M154 3l-115 -4l-4 48l61 10v402l-61 10l4 46l115 -2l141 2l5 -46l-61 -10v-403l178 2l67 111h42l-30 -170z" />
    <glyph glyph-name="Lacute.002" horiz-adv-x="607" 
d="M134 744l51 106h140l-115 -106h-76zM173 3l-138 -4l-5 47l78 13v583l-78 13l5 46l138 -3l161 3l5 -46l-78 -13v-584l224 3l77 141h47l-36 -203z" />
    <glyph glyph-name="Lacute.sc" horiz-adv-x="541" 
d="M132 569l37 102h127l-94 -102h-70zM154 3l-115 -4l-4 48l61 10v402l-61 10l4 46l115 -2l141 2l5 -46l-61 -10v-403l178 2l67 111h42l-30 -170z" />
    <glyph glyph-name="Lcaron.sc" horiz-adv-x="542" 
d="M409 398l-6 63l6 53l81 8l31 -8l6 -61l-6 -55l-64 -134l-42 19q4 10 10.5 25.5t12 31.5t9.5 30.5t4 21.5zM154 3l-115 -4l-4 48l61 10v402l-61 10l4 46l115 -2l141 2l5 -46l-61 -10v-403l178 2l67 111h42l-30 -170z" />
    <glyph glyph-name="Lcommaaccent.001" horiz-adv-x="607" 
d="M297 -103l-50 28v39h124v-77l-75 -63l-41 11zM173 3l-138 -4l-5 47l78 13v583l-78 13l5 46l138 -3l161 3l5 -46l-78 -13v-584l224 3l77 141h47l-36 -203z" />
    <glyph glyph-name="Lcommaaccent.sc" horiz-adv-x="541" 
d="M232 -92l-19 25v30h111v-59l-66 -103l-45 7zM154 3l-115 -4l-4 48l61 10v402l-61 10l4 46l115 -2l141 2l5 -46l-61 -10v-403l178 2l67 111h42l-30 -170z" />
    <glyph glyph-name="Ldot.sc" horiz-adv-x="541" 
d="M321 354l80 7l31 -7l6 -62l-7 -55l-80 -5l-31 5l-6 64zM154 3l-115 -4l-4 48l61 10v402l-61 10l4 46l115 -2l141 2l5 -46l-61 -10v-403l178 2l67 111h42l-30 -170z" />
    <glyph glyph-name="Lslash.sc" horiz-adv-x="541" 
d="M154 3l-115 -4l-4 48l61 10v148l-53 -25v70l53 25v184l-61 10l4 46l115 -2l141 2l5 -46l-61 -10v-115l73 36v-71l-73 -35v-218l178 2l67 111h42l-30 -170z" />
    <glyph glyph-name="M.sc" horiz-adv-x="835" 
d="M575 515l122 -2l98 2l4 -46l-61 -10v-402l60 -10l-4 -48l-124 2l-124 -2l-4 48l61 10v315l11 92l-183 -465h-89l-157 364l-21 97v-403l58 -10l-2 -48l-91 2l-89 -2l-4 48l60 10v403l-60 9l4 46l75 -2l154 2l147 -331l-1 -81z" />
    <glyph glyph-name="N.sc" horiz-adv-x="646" 
d="M164 57l59 -10l-3 -48l-90 2l-90 -2l-4 48l60 10v404l-60 8l4 46l65 -2l99 2l258 -255l24 -93v292l-57 10l1 46l92 -2l89 2l5 -46l-61 -10v-462h-67l-303 334l-21 93v-367z" />
    <glyph glyph-name="Nacute.002" horiz-adv-x="739" 
d="M316 744l51 106h140l-115 -106h-76zM185 59l74 -13l-3 -47l-109 3l-112 -3l-5 47l78 13v580l-76 16l5 46l82 -3l106 3l322 -412l27 -86v439l-74 13l3 46l109 -3l112 3l5 -46l-78 -13v-645h-75l-368 489l-23 92v-519z" />
    <glyph glyph-name="Nacute.sc" horiz-adv-x="646" 
d="M164 57l59 -10l-3 -48l-90 2l-90 -2l-4 48l60 10v404l-60 8l4 46l65 -2l99 2l258 -255l24 -93v292l-57 10l1 46l92 -2l89 2l5 -46l-61 -10v-462h-67l-303 334l-21 93v-367zM277 569l38 102h126l-94 -102h-70z" />
    <glyph glyph-name="Ncaron.002" horiz-adv-x="739" 
d="M359 807l17 -18l18 18l63 43h82l-115 -106h-96l-114 106h82zM185 59l74 -13l-3 -47l-109 3l-112 -3l-5 47l78 13v580l-76 16l5 46l82 -3l106 3l322 -412l27 -86v439l-74 13l3 46l109 -3l112 3l5 -46l-78 -13v-645h-75l-368 489l-23 92v-519z" />
    <glyph glyph-name="Ncaron.sc" horiz-adv-x="646" 
d="M164 57l59 -10l-3 -48l-90 2l-90 -2l-4 48l60 10v404l-60 8l4 46l65 -2l99 2l258 -255l24 -93v292l-57 10l1 46l92 -2l89 2l5 -46l-61 -10v-462h-67l-303 334l-21 93v-367zM260 671l48 -27l16 -25l17 25l47 27h76l-98 -102h-83l-99 102h76z" />
    <glyph glyph-name="Ncommaaccent.001" horiz-adv-x="739" 
d="M361 -101l-50 28v39h124v-77l-75 -63l-41 11zM185 59l74 -13l-3 -47l-109 3l-112 -3l-5 47l78 13v580l-76 16l5 46l82 -3l106 3l322 -412l27 -86v439l-74 13l3 46l109 -3l112 3l5 -46l-78 -13v-645h-75l-368 489l-23 92v-519z" />
    <glyph glyph-name="Ncommaaccent.sc" horiz-adv-x="646" 
d="M164 57l59 -10l-3 -48l-90 2l-90 -2l-4 48l60 10v404l-60 8l4 46l65 -2l99 2l258 -255l24 -93v292l-57 10l1 46l92 -2l89 2l5 -46l-61 -10v-462h-67l-303 334l-21 93v-367zM284 -92l-19 25v30h112v-59l-67 -103l-45 7z" />
    <glyph glyph-name="Ntilde.002" horiz-adv-x="739" 
d="M234 834l75 19l174 -43l32 43h34l-29 -96l-74 -16l-175 43l-31 -43h-34zM185 59l74 -13l-3 -47l-109 3l-112 -3l-5 47l78 13v580l-76 16l5 46l82 -3l106 3l322 -412l27 -86v439l-74 13l3 46l109 -3l112 3l5 -46l-78 -13v-645h-75l-368 489l-23 92v-519z" />
    <glyph glyph-name="Ntilde.sc" horiz-adv-x="646" 
d="M164 57l59 -10l-3 -48l-90 2l-90 -2l-4 48l60 10v404l-60 8l4 46l65 -2l99 2l258 -255l24 -93v292l-57 10l1 46l92 -2l89 2l5 -46l-61 -10v-462h-67l-303 334l-21 93v-367zM209 663l63 16l150 -38l26 35h31l-25 -102l-62 -11l-152 38l-25 -35h-31z" />
    <glyph glyph-name="O.sc" horiz-adv-x="690" 
d="M185 270q0 -39 9.5 -78.5t30 -71t52.5 -51.5t77 -20q39 0 67 14.5t46.5 41t27 62.5t8.5 78q0 39 -9.5 78t-30 70.5t-52 51.5t-75.5 20q-40 0 -68.5 -14.5t-47 -40.5t-27 -61.5t-8.5 -78.5zM354 528q70 0 126.5 -19.5t96 -53.5t61 -80.5t21.5 -100.5q0 -62 -17.5 -108
t-56.5 -80t-100.5 -57.5t-149.5 -41.5q-70 0 -126 19t-95.5 53t-61 80.5t-21.5 101.5q0 62 17.5 108t56 79.5t100 57.5t149.5 42z" />
    <glyph glyph-name="OE.sc" horiz-adv-x="873" 
d="M410 58v402l-88 14q-38 0 -64 -18t-43 -47t-24.5 -65.5t-7.5 -74.5q0 -48 14 -90t38 -72.5t55.5 -48t66.5 -17.5zM331 -16q-69 0 -124.5 19.5t-94.5 54t-60 81.5t-21 102q0 63 17 109.5t55 81t99 58.5t150 41l117 -16l349 1l9 -137h-41l-51 79l-182 2v-160l89 3l34 80h39
l-8 -114l8 -110h-39l-34 80l-89 3v-186l188 2l60 83h42l-30 -142l-345 2z" />
    <glyph glyph-name="Oacute.002" horiz-adv-x="807" 
d="M351 744l51 106h140l-115 -106h-76zM415 718q82 0 148 -26.5t112.5 -73.5t72 -111t25.5 -139q0 -84 -21 -147.5t-67 -110t-118.5 -78t-174.5 -50.5q-82 0 -148 26.5t-112.5 73.5t-72 111t-25.5 139q0 84 21 147.5t67 110t118.5 78t174.5 50.5zM200 367q0 -57 12.5 -114
t39 -102t67.5 -73.5t98 -28.5q50 0 86 21t59 59t34 90t11 114q0 56 -12 112.5t-38.5 102.5t-67 74.5t-97.5 28.5q-50 0 -86 -21t-59.5 -58.5t-35 -90t-11.5 -114.5z" />
    </font>
</defs>
</svg>
