<?xml version="1.0" encoding="UTF-8"?>
<svg width="960px" height="250px" viewBox="0 0 960 250" version="1.1" xmlns="http://www.w3.org/2000/svg" xmlns:xlink="http://www.w3.org/1999/xlink">
    <!-- Generator: Sketch 55.2 (78181) - https://sketchapp.com -->
    <title>Artboard</title>
    <desc>Created with Sketch.</desc>
    <g id="Artboard" stroke="none" stroke-width="1" fill="none" fill-rule="evenodd">
        <path d="M348.63084,163.947914 L326.555267,141.87234 L334.382979,141.87234 C337.606838,141.87234 340.349471,143.932716 341.365918,146.808511 L341.365918,148.457409 L344.609598,145.45867 C346.222378,143.967677 348.837211,143.967677 350.449989,145.45867 C351.224473,146.174671 351.659574,147.145774 351.659574,148.158351 L351.659574,160.267181 C351.659574,162.023264 350.377132,163.502436 348.63084,163.947914 Z M336.852645,166.131317 C336.080233,166.404523 335.248968,166.553191 334.382979,166.553191 L319.574468,166.553191 C315.485211,166.553191 312.170213,163.238193 312.170213,159.148936 L312.170213,149.276596 C312.170213,147.124248 313.088586,145.186397 314.554853,143.833525 L336.852645,166.131317 Z M260.340426,148.853139 L275.572393,164.085106 L275.148936,164.085106 L275.148936,169.021277 L280.085106,169.021277 C280.245019,169.021277 280.401379,169.036485 280.552821,169.065534 L282.508934,171.021647 C282.537983,171.173089 282.553191,171.32945 282.553191,171.489362 C282.553191,172.852447 281.448192,173.957447 280.085106,173.957447 L265.276596,173.957447 C263.913511,173.957447 262.808511,172.852447 262.808511,171.489362 C262.808511,170.126277 263.913511,169.021277 265.276596,169.021277 L270.212766,169.021277 L270.212766,164.085106 L267.744681,164.085106 C263.655424,164.085106 260.340426,160.770108 260.340426,156.680851 L260.340426,148.853139 Z M262.30161,136.852725 C263.654483,135.386458 265.592333,134.468085 267.744681,134.468085 L277.617021,134.468085 C281.706278,134.468085 285.021277,137.783084 285.021277,141.87234 L285.021277,156.680851 C285.021277,157.54684 284.872608,158.378105 284.599402,159.150517 L262.30161,136.852725 Z M677.328215,113.836021 C678.907931,114.410238 680.612984,114.723404 682.3912,114.723404 L692.247098,114.723404 C700.431939,114.723404 707.06383,108.089728 707.06383,99.9066726 L707.06383,90.0507743 C707.06383,81.8659335 700.430153,75.2340426 692.247098,75.2340426 L682.3912,75.2340426 C674.206358,75.2340426 667.574468,81.8677193 667.574468,90.0507743 L667.574468,99.9066726 C667.574468,104.155092 669.361732,107.985111 672.225236,110.686458 C682.503156,106.730287 688.18856,99.5448493 689.494471,88.8895457 L686.596264,91.787753 C685.632416,92.7516 684.069711,92.7516 683.105864,91.787753 C682.142017,90.8239058 682.142017,89.2612006 683.105864,88.2973534 L690.510119,80.8930981 C691.473967,79.929251 693.036672,79.929251 694.000519,80.8930981 L701.404775,88.2973534 C702.368621,89.2612006 702.368621,90.8239058 701.404775,91.787753 C700.440927,92.7516 698.878222,92.7516 697.914374,91.787753 L694.512935,88.3863129 L694.512935,88.3863129 C693.370333,100.243854 687.582775,108.794087 677.328215,113.836021 Z M35.7446809,89.7431243 L27.2560974,81.2545409 C25.8103267,79.8087701 23.466269,79.8087701 22.0204984,81.2545409 C20.5747275,82.7003116 20.5747275,85.0443693 22.0204984,86.49014 L30.5090817,94.9787234 L22.0204984,103.467307 C20.5747275,104.913078 20.5747275,107.257135 22.0204984,108.702906 C23.466269,110.148677 25.8103267,110.148677 27.2560974,108.702906 L35.7446809,100.214323 L44.2332643,108.702906 C45.679035,110.148677 48.0230927,110.148677 49.4688633,108.702906 C50.9146342,107.257135 50.9146342,104.913078 49.4688633,103.467307 L40.98028,94.9787234 L49.4688633,86.49014 C50.9146342,85.0443693 50.9146342,82.7003116 49.4688633,81.2545409 C48.0230927,79.8087701 45.679035,79.8087701 44.2332643,81.2545409 L35.7446809,89.7431243 Z M16,30.8167317 C16,22.6336767 22.6318909,16 30.8167317,16 L40.67263,16 C48.855685,16 55.4893617,22.6318909 55.4893617,30.8167317 L55.4893617,40.67263 C55.4893617,48.855685 48.8574708,55.4893617 40.67263,55.4893617 L30.8167317,55.4893617 C22.6336767,55.4893617 16,48.8574708 16,40.67263 L16,30.8167317 Z M38.212766,33.2765958 L38.212766,25.8609812 C38.212766,24.5126877 37.1077666,23.4042553 35.7446809,23.4042553 C34.3720918,23.4042553 33.2765957,24.5041689 33.2765957,25.8609812 L33.2765957,33.2765958 L25.8609812,33.2765958 C24.5126876,33.2765958 23.4042553,34.3815951 23.4042553,35.7446809 C23.4042553,37.1172699 24.5041689,38.212766 25.8609812,38.212766 L33.2765957,38.212766 L33.2765957,45.6283805 C33.2765957,46.9766741 34.3815951,48.0851064 35.7446809,48.0851064 C37.1172699,48.0851064 38.212766,46.9851928 38.212766,45.6283805 L38.212766,38.212766 L45.6283805,38.212766 C46.9766741,38.212766 48.0851064,37.1077666 48.0851064,35.7446809 C48.0851064,34.3720919 46.9851928,33.2765958 45.6283805,33.2765958 L38.212766,33.2765958 L38.212766,33.2765958 Z M92.5106383,42.1266219 L92.5106383,23.4042553 C92.5106383,22.0411696 93.6156376,20.9361702 94.9787234,20.9361702 C96.3418092,20.9361702 97.4468085,22.0411696 97.4468085,23.4042553 L97.4468085,42.1266219 L105.573949,33.9994811 C106.537796,33.035634 108.100501,33.035634 109.064349,33.9994811 C110.028196,34.9633283 110.028196,36.5260334 109.064349,37.4898806 L96.7239232,49.8303062 C96.2419996,50.3122298 95.6103614,50.5531915 94.9787234,50.5531915 C94.3470854,50.5531915 93.7154472,50.3122298 93.2335236,49.8303062 L80.8930981,37.4898806 C79.929251,36.5260334 79.929251,34.9633283 80.8930981,33.9994811 C81.8569453,33.035634 83.4196504,33.035634 84.3834976,33.9994811 L92.5106383,42.1266219 Z M155.957966,25.1494551 L147.830825,33.2765958 L166.553191,33.2765958 C167.916277,33.2765958 169.021277,34.3815951 169.021277,35.7446809 C169.021277,37.1077666 167.916277,38.212766 166.553191,38.212766 L147.830825,38.212766 L155.957966,46.3399066 C156.921813,47.3037538 156.921813,48.8664589 155.957966,49.8303062 C154.994119,50.7941532 153.431413,50.7941532 152.467566,49.8303062 L140.12714,37.4898806 C139.645217,37.007957 139.404255,36.3763189 139.404255,35.7446809 C139.404255,35.1130428 139.645217,34.4814047 140.12714,33.9994811 L152.467566,21.6590556 C153.431413,20.6952085 154.994119,20.6952085 155.957966,21.6590556 C156.921813,22.6229028 156.921813,24.1856079 155.957966,25.1494551 Z M211.701608,25.1494551 C210.737762,24.1856079 210.737762,22.6229028 211.701608,21.6590556 C212.665456,20.6952085 214.228161,20.6952085 215.192009,21.6590556 L227.532434,33.9994811 C228.014358,34.4814047 228.255319,35.1130428 228.255319,35.7446809 C228.255319,36.3763189 228.014358,37.007957 227.532434,37.4898806 L215.192009,49.8303062 C214.228161,50.7941532 212.665456,50.7941532 211.701608,49.8303062 C210.737762,48.8664589 210.737762,47.3037538 211.701608,46.3399066 L219.82875,38.212766 L201.106383,38.212766 C199.743298,38.212766 198.638298,37.1077666 198.638298,35.7446809 C198.638298,34.3815951 199.743298,33.2765958 201.106383,33.2765958 L219.82875,33.2765958 L211.701608,25.1494551 Z M262.085626,37.4898806 C261.121778,38.4537277 259.559073,38.4537277 258.595225,37.4898806 C257.631379,36.5260334 257.631379,34.9633283 258.595225,33.9994811 L270.935651,21.6590556 C271.417575,21.177132 272.049213,20.9361702 272.680851,20.9361702 C273.31249,20.9361702 273.944127,21.177132 274.426051,21.6590556 L286.766477,33.9994811 C287.730323,34.9633283 287.730323,36.5260334 286.766477,37.4898806 C285.802629,38.4537277 284.239924,38.4537277 283.276076,37.4898806 L275.148936,29.3627398 L275.148936,48.0851064 C275.148936,49.4481922 274.043936,50.5531915 272.680851,50.5531915 C271.317766,50.5531915 270.212766,49.4481922 270.212766,48.0851064 L270.212766,29.3627398 L262.085626,37.4898806 Z M344.249214,33.2765958 L319.580573,33.2765958 C318.213351,33.2765958 317.106383,32.1727665 317.106383,30.8111244 L317.106383,30.8040313 C317.106383,22.6279906 323.734581,16 331.914894,16 C340.093408,16 346.723404,22.6213193 346.723404,30.8040313 L346.723404,30.8111244 C346.723404,32.1704879 345.615672,33.2765958 344.249214,33.2765958 Z M318.340426,35.7446809 L345.489362,35.7446809 C348.897076,35.7446809 351.659574,38.5071793 351.659574,41.9148936 L351.659574,45.6170213 C351.659574,46.9801071 350.554575,48.0851064 349.191489,48.0851064 L314.638298,48.0851064 C313.275213,48.0851064 312.170213,46.9801071 312.170213,45.6170213 L312.170213,41.9148936 C312.170213,38.5071793 314.932711,35.7446809 318.340426,35.7446809 Z M324.931954,50.5531915 L324.931954,50.5531915 L338.897833,50.5531915 C337.881386,53.4289854 335.138753,55.4893617 331.914894,55.4893617 C328.691034,55.4893617 325.948402,53.4289854 324.931954,50.5531915 Z M405.957447,17.2226622 L405.957447,20.9361728 C408.684105,20.9390125 410.893617,23.1519356 410.893617,25.8684395 L410.893617,50.5570924 C410.893617,53.2811096 408.68588,55.4893617 405.952192,55.4893617 L376.34568,55.4893617 C373.616606,55.4893617 371.404255,53.2753409 371.404255,50.5570924 L371.404255,25.8684395 C371.404255,23.1461678 373.609164,20.9390003 376.340426,20.9361729 L376.340426,17.2226622 C376.340426,16.5474045 376.888174,16 377.574468,16 L380.030991,16 C380.71892,16 381.276596,16.5471167 381.276596,17.2456042 L381.276596,20.9361702 L380.042553,20.9361702 L402.255319,20.9361702 L401.021277,20.9361702 L401.021277,17.2456042 C401.021277,16.5576759 401.568393,16 402.266881,16 L404.711843,16 C405.404947,16 405.957447,16.5565226 405.957447,17.2226622 Z M376.340426,30.2088317 L376.340426,33.8762747 C376.340426,34.9240058 377.17694,35.7446809 378.208831,35.7446809 L381.876275,35.7446809 C382.924006,35.7446809 383.744681,34.9081669 383.744681,33.8762747 L383.744681,30.2088317 C383.744681,29.1611006 382.908167,28.3404255 381.876275,28.3404255 L378.208831,28.3404255 C377.161101,28.3404255 376.340426,29.1769396 376.340426,30.2088317 Z M387.446809,30.2088317 L387.446809,33.8762747 C387.446809,34.9240058 388.283323,35.7446809 389.315214,35.7446809 L392.982658,35.7446809 C394.030389,35.7446809 394.851064,34.9081669 394.851064,33.8762747 L394.851064,30.2088317 C394.851064,29.1611006 394.01455,28.3404255 392.982658,28.3404255 L389.315214,28.3404255 C388.267484,28.3404255 387.446809,29.1769396 387.446809,30.2088317 Z M387.446809,42.5492573 L387.446809,46.2167002 C387.446809,47.2644313 388.283323,48.0851064 389.315214,48.0851064 L392.982658,48.0851064 C394.030389,48.0851064 394.851064,47.2485924 394.851064,46.2167002 L394.851064,42.5492573 C394.851064,41.5015261 394.01455,40.6808511 392.982658,40.6808511 L389.315214,40.6808511 C388.267484,40.6808511 387.446809,41.5173651 387.446809,42.5492573 Z M398.553191,30.2088317 L398.553191,33.8762747 C398.553191,34.9240058 399.389706,35.7446809 400.421597,35.7446809 L404.089041,35.7446809 C405.136771,35.7446809 405.957447,34.9081669 405.957447,33.8762747 L405.957447,30.2088317 C405.957447,29.1611006 405.120933,28.3404255 404.089041,28.3404255 L400.421597,28.3404255 C399.373867,28.3404255 398.553191,29.1769396 398.553191,30.2088317 Z M376.340426,42.5492573 L376.340426,46.2167002 C376.340426,47.2644313 377.17694,48.0851064 378.208831,48.0851064 L381.876275,48.0851064 C382.924006,48.0851064 383.744681,47.2485924 383.744681,46.2167002 L383.744681,42.5492573 C383.744681,41.5015261 382.908167,40.6808511 381.876275,40.6808511 L378.208831,40.6808511 C377.161101,40.6808511 376.340426,41.5173651 376.340426,42.5492573 Z M430.638298,41.9077383 L430.638298,35.7446809 C430.638298,30.2923378 435.053284,25.8723404 440.501266,25.8723404 L460.264692,25.8723404 C465.711858,25.8723404 470.12766,30.3034322 470.12766,35.7518362 L470.12766,41.9077383 C470.12766,43.9563186 468.47204,45.6170213 466.429046,45.6170213 L459.017762,45.6170213 C456.975075,45.6170213 455.319149,43.9525251 455.319149,41.9077383 L455.319153,38.2159208 C455.319154,36.846512 454.215204,35.745481 452.853411,35.746468 L447.912553,35.7500491 C446.541043,35.7510432 445.446809,36.8569635 445.446809,38.220207 L445.446809,41.9077383 C445.446809,43.9563186 443.791189,45.6170213 441.748195,45.6170213 L434.336911,45.6170213 C432.294224,45.6170213 430.638298,43.9525251 430.638298,41.9077383 Z M528.177159,47.5968997 L523.430923,52.3431353 C519.232017,56.5420423 512.428102,56.5459019 508.232554,52.3503528 L493.012531,37.1303302 C488.81761,32.9354093 488.829386,26.1223233 493.025259,21.9264498 L497.765984,17.1857245 C499.343618,15.608091 501.897552,15.6041765 503.470883,17.1775075 L509.178392,22.885016 C510.751488,24.4581114 510.744887,27.0152033 509.170174,28.5899153 L506.327064,31.43302 C505.272467,32.4876151 505.274716,34.1856942 506.324206,35.2336651 L510.131972,39.0359152 C511.188952,40.0913638 512.883313,40.082364 513.933162,39.0325158 L516.772969,36.192709 C518.350602,34.6150755 520.904537,34.6111611 522.477868,36.184492 L528.185376,41.8920004 C529.758471,43.4650958 529.751872,46.0221877 528.177159,47.5968997 Z M549.106383,30.8167317 C549.106383,22.6336767 555.738273,16 563.923115,16 L573.779013,16 C581.962067,16 588.595745,22.6318909 588.595745,30.8167317 L588.595745,40.67263 C588.595745,48.855685 581.963854,55.4893617 573.779013,55.4893617 L563.923115,55.4893617 C555.74006,55.4893617 549.106383,48.8574708 549.106383,40.67263 L549.106383,30.8167317 Z M568.851064,32.2542815 L563.192009,26.5952258 C562.228161,25.6313787 560.665456,25.6313787 559.701608,26.5952258 C558.737762,27.559073 558.737762,29.1217781 559.701608,30.0856253 L565.360665,35.7446809 L559.701608,41.4037364 C558.737762,42.3675836 558.737762,43.9302887 559.701608,44.8941359 C560.665456,45.857983 562.228161,45.857983 563.192009,44.8941359 L568.851064,39.2350803 L574.510119,44.8941359 C575.473967,45.857983 577.036672,45.857983 578.000519,44.8941359 C578.964366,43.9302887 578.964366,42.3675836 578.000519,41.4037364 L572.341463,35.7446809 L578.000519,30.0856253 C578.964366,29.1217781 578.964366,27.559073 578.000519,26.5952258 C577.036672,25.6313787 575.473967,25.6313787 574.510119,26.5952258 L568.851064,32.2542815 Z M628.085106,44.3829787 C627.453468,44.3829787 626.821831,44.142017 626.339906,43.6600934 L613.999481,31.3196679 C613.035634,30.3558206 613.035634,28.7931155 613.999481,27.8292683 C614.963328,26.8654212 616.526033,26.8654212 617.489881,27.8292683 L628.085106,38.4244942 L638.680332,27.8292683 C639.644179,26.8654212 641.206884,26.8654212 642.170732,27.8292683 C643.134579,28.7931155 643.134579,30.3558206 642.170732,31.3196679 L629.830307,43.6600934 C629.348382,44.142017 628.716745,44.3829787 628.085106,44.3829787 Z M678.680851,35.7446809 C678.680851,35.1130428 678.921813,34.4814047 679.403736,33.9994811 L691.744161,21.6590556 C692.708009,20.6952085 694.270714,20.6952085 695.234562,21.6590556 C696.198408,22.6229028 696.198408,24.1856079 695.234562,25.1494551 L684.639335,35.7446809 L695.234562,46.3399066 C696.198408,47.3037538 696.198408,48.8664589 695.234562,49.8303062 C694.270714,50.7941532 692.708009,50.7941532 691.744161,49.8303062 L679.403736,37.4898806 C678.921813,37.007957 678.680851,36.3763189 678.680851,35.7446809 Z M755.191489,35.7446809 C755.191489,36.3763189 754.950528,37.007957 754.468605,37.4898806 L742.128179,49.8303062 C741.164331,50.7941532 739.601626,50.7941532 738.637778,49.8303062 C737.673932,48.8664589 737.673932,47.3037538 738.637778,46.3399066 L749.233005,35.7446809 L738.637778,25.1494551 C737.673932,24.1856079 737.673932,22.6229028 738.637778,21.6590556 C739.601626,20.6952085 741.164331,20.6952085 742.128179,21.6590556 L754.468605,33.9994811 C754.950528,34.4814047 755.191489,35.1130428 755.191489,35.7446809 Z M805.787234,27.106383 C806.418873,27.106383 807.05051,27.3473447 807.532434,27.8292683 L819.87286,40.1696939 C820.836706,41.1335411 820.836706,42.6962462 819.87286,43.6600934 C818.909012,44.6239405 817.346307,44.6239405 816.382459,43.6600934 L805.787234,33.0648675 L795.192009,43.6600934 C794.228161,44.6239405 792.665456,44.6239405 791.701608,43.6600934 C790.737762,42.6962462 790.737762,41.1335411 791.701608,40.1696939 L804.042034,27.8292683 C804.523958,27.3473447 805.155596,27.106383 805.787234,27.106383 Z M869.957447,18.4680851 L876.138655,18.4680851 C878.177211,18.4680851 879.829787,20.1307336 879.829787,22.1702363 L879.829787,51.7872105 C879.829787,53.8318522 878.173985,55.4893617 876.138655,55.4893617 L853.903898,55.4893617 C851.865343,55.4893617 850.212766,53.8267132 850.212766,51.7872105 L850.212766,22.1702363 C850.212766,20.1255947 851.868568,18.4680851 853.903898,18.4680851 L860.085106,18.4680851 C860.085106,17.1049994 860.644172,16 861.315484,16 L868.727069,16 C869.406587,16 869.957447,17.0954961 869.957447,18.4680851 Z M855.148936,49.3191489 C855.148936,50.0054434 855.975224,50.5531915 856.994502,50.5531915 L868.111881,50.5531915 C869.118848,50.5531915 869.957447,50.0006918 869.957447,49.3191489 C869.957447,48.6328544 869.131159,48.0851064 868.111881,48.0851064 L856.994502,48.0851064 C855.987535,48.0851064 855.148936,48.6376061 855.148936,49.3191489 Z M855.148936,34.5106383 C855.148936,35.1969328 855.701918,35.7446809 856.384055,35.7446809 L873.658498,35.7446809 C874.344923,35.7446809 874.893617,35.1921811 874.893617,34.5106383 C874.893617,33.8243438 874.340635,33.2765958 873.658498,33.2765958 L856.384055,33.2765958 C855.69763,33.2765958 855.148936,33.8290955 855.148936,34.5106383 Z M855.148936,41.9148936 C855.148936,42.6011881 855.701918,43.1489362 856.384055,43.1489362 L873.658498,43.1489362 C874.344923,43.1489362 874.893617,42.5964364 874.893617,41.9148936 C874.893617,41.2285991 874.340635,40.6808511 873.658498,40.6808511 L856.384055,40.6808511 C855.69763,40.6808511 855.148936,41.2333508 855.148936,41.9148936 Z M855.148936,27.106383 C855.148936,27.7926775 855.701918,28.3404255 856.384055,28.3404255 L873.658498,28.3404255 C874.344923,28.3404255 874.893617,27.7879258 874.893617,27.106383 C874.893617,26.4200885 874.340635,25.8723404 873.658498,25.8723404 L856.384055,25.8723404 C855.69763,25.8723404 855.148936,26.4248402 855.148936,27.106383 Z M921.08017,40.9083999 L932.202743,22.7078234 C933.268915,20.9631788 935.547532,20.4131679 937.292177,21.4793396 C939.036822,22.5455113 939.586832,24.8241279 938.520661,26.5687724 L924.946193,48.7815383 C923.696752,50.8260772 920.863725,51.1631539 919.169435,49.4688634 L910.531137,40.8305655 C909.085366,39.3847948 909.085366,37.0407371 910.531137,35.5949664 C911.976908,34.1491956 914.320964,34.1491956 915.766735,35.5949664 L921.08017,40.9083999 Z M94.9787234,114.723404 C84.0740373,114.723404 75.2340426,105.88341 75.2340426,94.9787234 C75.2340426,84.0740373 84.0740373,75.2340426 94.9787234,75.2340426 C105.88341,75.2340426 114.723404,84.0740373 114.723404,94.9787234 C114.723404,105.88341 105.88341,114.723404 94.9787234,114.723404 Z M97.4468085,92.5106383 L97.4468085,82.6382979 C97.4468085,81.2752121 96.3418092,80.1702128 94.9787234,80.1702128 C93.6156376,80.1702128 92.5106383,81.2752121 92.5106383,82.6382979 L92.5106383,94.9787234 C92.5106383,96.3418092 93.6156376,97.4468085 94.9787234,97.4468085 L107.319149,97.4468085 C108.682235,97.4468085 109.787234,96.3418092 109.787234,94.9787234 C109.787234,93.6156376 108.682235,92.5106383 107.319149,92.5106383 L97.4468085,92.5106383 Z M166.553191,107.319149 L166.553191,113.476896 C166.554633,113.609993 166.534635,113.743856 166.492409,113.872964 C166.384102,114.192109 166.163739,114.443944 165.87976,114.589009 C165.459295,114.794912 164.962472,114.764407 164.578723,114.476596 L155.035461,107.319149 L141.872558,107.319149 C137.78318,107.319149 134.468085,104.006326 134.468085,99.9178907 L134.468085,82.6353008 C134.468085,78.5476987 137.78393,75.2340426 141.872558,75.2340426 L166.552974,75.2340426 C170.642352,75.2340426 173.957447,78.5468651 173.957447,82.6353008 L173.957447,99.9178907 C173.957447,104.005421 170.641719,107.319032 166.553191,107.319149 L166.553191,107.319149 Z M143.106383,94.9787234 C145.151011,94.9787234 146.808511,93.3212243 146.808511,91.2765958 C146.808511,89.2319672 145.151011,87.5744681 143.106383,87.5744681 C141.061755,87.5744681 139.404255,89.2319672 139.404255,91.2765958 C139.404255,93.3212243 141.061755,94.9787234 143.106383,94.9787234 Z M154.212766,94.9787234 C156.257394,94.9787234 157.914894,93.3212243 157.914894,91.2765958 C157.914894,89.2319672 156.257394,87.5744681 154.212766,87.5744681 C152.168138,87.5744681 150.510638,89.2319672 150.510638,91.2765958 C150.510638,93.3212243 152.168138,94.9787234 154.212766,94.9787234 Z M165.319149,94.9787234 C167.363777,94.9787234 169.021277,93.3212243 169.021277,91.2765958 C169.021277,89.2319672 167.363777,87.5744681 165.319149,87.5744681 C163.274521,87.5744681 161.617021,89.2319672 161.617021,91.2765958 C161.617021,93.3212243 163.274521,94.9787234 165.319149,94.9787234 Z M193.702128,90.0507743 C193.702128,81.8677193 200.334018,75.2340426 208.518859,75.2340426 L218.374758,75.2340426 C226.557812,75.2340426 233.191489,81.8659335 233.191489,90.0507743 L233.191489,99.9066726 C233.191489,108.089728 226.559599,114.723404 218.374758,114.723404 L208.518859,114.723404 C200.335805,114.723404 193.702128,108.091513 193.702128,99.9066726 L193.702128,90.0507743 Z M210.793508,100.490635 L205.548936,93.4978724 C204.731084,92.4074037 203.184086,92.1864039 202.093617,93.0042553 C201.003148,93.8221068 200.782148,95.3691059 201.6,96.4595745 L208.97035,106.286708 C209.064283,106.418222 209.172021,106.541575 209.293025,106.654436 C209.29831,106.659321 209.303577,106.664212 209.308861,106.669078 C209.418849,106.769872 209.539573,106.862078 209.670641,106.943996 C209.788382,107.017584 209.90993,107.080031 210.03405,107.131621 C210.366421,107.268931 210.725183,107.332055 211.083474,107.317157 C211.441737,107.301619 211.793854,107.208298 212.113385,107.043298 C212.232683,106.981369 212.348497,106.90884 212.459574,106.825532 C212.57727,106.73726 212.684837,106.640495 212.782062,106.536726 C212.786996,106.531509 212.791876,106.526229 212.796737,106.520925 C212.913833,106.393731 213.015583,106.256269 213.101605,106.111228 L225.412081,86.4144655 C226.134515,85.258571 225.783126,83.7358851 224.627232,83.013451 C223.471337,82.291017 221.948651,82.6424061 221.226216,83.7983005 L210.793508,100.490635 Z M287.489362,83.8723404 C284.76319,83.8723404 282.553191,86.0823391 282.553191,88.8085106 L282.553191,90.0425532 L262.808511,90.0425532 L262.808511,88.8085106 C262.808511,86.0823391 260.598512,83.8723404 257.87234,83.8723404 L257.87234,82.6382979 C257.87234,78.5490406 261.187339,75.2340426 265.276596,75.2340426 L280.085106,75.2340426 C284.174363,75.2340426 287.489362,78.5490406 287.489362,82.6382979 L287.489362,83.8723404 Z M260.340426,92.5106383 L285.021277,92.5106383 L285.021277,88.8085106 C285.021277,87.4454249 286.126277,86.3404255 287.489362,86.3404255 L289.957447,86.3404255 C291.320532,86.3404255 292.425532,87.4454249 292.425532,88.8085106 L292.425532,102.382979 C292.425532,103.746064 291.320532,104.851064 289.957447,104.851064 L255.404255,104.851064 C254.04117,104.851064 252.93617,103.746064 252.93617,102.382979 L252.93617,88.8085106 C252.93617,87.4454249 254.04117,86.3404255 255.404255,86.3404255 L257.87234,86.3404255 C259.235426,86.3404255 260.340426,87.4454249 260.340426,88.8085106 L260.340426,92.5106383 Z M259.106383,107.319149 L264.042553,107.319149 L264.042553,112.255319 C264.042553,113.618405 262.937553,114.723404 261.574468,114.723404 C260.211383,114.723404 259.106383,113.618405 259.106383,112.255319 L259.106383,107.319149 Z M281.319149,107.319149 L286.255319,107.319149 L286.255319,112.255319 C286.255319,113.618405 285.150319,114.723404 283.787234,114.723404 C282.424149,114.723404 281.319149,113.618405 281.319149,112.255319 L281.319149,107.319149 Z M312.170213,90.0507743 C312.170213,81.8677193 318.802103,75.2340426 326.986945,75.2340426 L336.842843,75.2340426 C345.025897,75.2340426 351.659574,81.8659335 351.659574,90.0507743 L351.659574,99.9066726 C351.659574,108.089728 345.027684,114.723404 336.842843,114.723404 L326.986945,114.723404 C318.80389,114.723404 312.170213,108.091513 312.170213,99.9066726 L312.170213,90.0507743 Z M319.574468,94.9787234 C319.574468,96.3513124 320.674381,97.4468085 322.031194,97.4468085 L341.798593,97.4468085 C343.146887,97.4468085 344.255319,96.3418092 344.255319,94.9787234 C344.255319,93.6061344 343.155406,92.5106383 341.798593,92.5106383 L322.031194,92.5106383 C320.6829,92.5106383 319.574468,93.6156376 319.574468,94.9787234 Z M372.021277,83.8723404 C372.021277,79.1015403 375.898482,75.2340426 380.659574,75.2340426 C385.430374,75.2340426 389.297872,79.1112479 389.297872,83.8723404 C389.297872,88.6431406 385.420667,92.5106383 380.659574,92.5106383 C375.888775,92.5106383 372.021277,88.633433 372.021277,83.8723404 Z M393,88.8085106 C393,84.0377105 396.877205,80.1702128 401.638298,80.1702128 C406.409098,80.1702128 410.276596,84.0474181 410.276596,88.8085106 C410.276596,93.5793108 406.399391,97.4468085 401.638298,97.4468085 C396.867498,97.4468085 393,93.5696032 393,88.8085106 Z M392.382979,104.845913 C392.382979,102.122586 394.597408,99.9148936 397.319174,99.9148936 L405.957422,99.9148936 C408.683607,99.9148936 410.893617,102.131877 410.893617,104.845913 L410.893617,112.244793 C410.893617,113.613692 409.791127,114.723404 408.435547,114.723404 L394.841048,114.723404 C393.483494,114.723404 392.382979,113.610359 392.382979,112.244793 L392.382979,104.845913 Z M371.404255,99.9102076 C371.404255,97.1866241 373.618684,94.9787234 376.34045,94.9787234 L384.978699,94.9787234 C387.704884,94.9787234 389.914894,97.1862162 389.914894,99.9102076 L389.914894,112.262649 C389.914894,113.621687 388.812404,114.723404 387.456824,114.723404 L373.862325,114.723404 C372.504771,114.723404 371.404255,113.619536 371.404255,112.262649 L371.404255,99.9102076 Z M445.446809,99.9148946 L442.978723,99.9148946 C436.163295,99.9148946 430.638298,94.3898979 430.638298,87.5744691 C430.638298,80.7590403 436.163295,75.2340436 442.978723,75.2340436 L457.787234,75.2340436 C464.602662,75.2340436 470.12766,80.7590403 470.12766,87.5744691 C470.12766,94.3898979 464.602662,99.9148946 457.787234,99.9148946 L455.319149,99.9148946 L455.319149,85.1061217 C455.319149,82.3799502 453.10915,80.1699515 450.382979,80.1699515 C447.656807,80.1699515 445.446809,82.3799502 445.446809,85.1061217 L445.446809,99.9148946 Z M448.966606,114.276904 L448.966606,114.276904 L441.609938,109.372459 C440.475783,108.616355 440.169311,107.083996 440.925415,105.94984 C441.681519,104.815684 443.213878,104.509213 444.348033,105.265317 L447.915156,107.643399 L447.915156,85.1061217 C447.915156,83.743036 449.020155,82.6380366 450.383242,82.6380366 C451.746327,82.6380366 452.851327,83.743036 452.851327,85.1061217 L452.851327,107.643399 L456.418449,105.265317 C457.552606,104.509213 459.084963,104.815684 459.841067,105.94984 C460.597171,107.083996 460.290699,108.616355 459.156544,109.372459 L451.780365,114.289911 C451.578237,114.428958 451.354358,114.538668 451.113905,114.613185 C450.882709,114.684928 450.644943,114.721125 450.40824,114.723404 C450.399909,114.723404 450.391575,114.723404 450.383242,114.723404 C449.97832,114.723032 449.577298,114.623191 449.218428,114.431532 C449.206309,114.425033 449.194251,114.418435 449.182244,114.411816 C449.108381,114.370765 449.036388,114.325771 448.966606,114.276904 Z M495.468883,92.5106383 L495.468883,92.5106383 C496.32237,91.0352137 497.917601,90.0425532 499.744681,90.0425532 C501.571761,90.0425532 503.166992,91.0352137 504.020479,92.5106383 L526.893617,92.5106383 C528.256702,92.5106383 529.361702,93.6156376 529.361702,94.9787234 C529.361702,96.3418092 528.256702,97.4468085 526.893617,97.4468085 L504.020479,97.4468085 C503.166992,98.9222331 501.571761,99.9148936 499.744681,99.9148936 C497.917601,99.9148936 496.32237,98.9222331 495.468883,97.4468085 L492.340426,97.4468085 C490.97734,97.4468085 489.87234,96.3418092 489.87234,94.9787234 C489.87234,93.6156376 490.97734,92.5106383 492.340426,92.5106383 L495.468883,92.5106383 Z M515.213563,104.851064 L515.213563,104.851064 C516.067051,103.375639 517.662281,102.382979 519.489362,102.382979 C521.316442,102.382979 522.911673,103.375639 523.76516,104.851064 L526.893617,104.851064 C528.256702,104.851064 529.361702,105.956063 529.361702,107.319149 C529.361702,108.682235 528.256702,109.787234 526.893617,109.787234 L523.76516,109.787234 C522.911673,111.262659 521.316442,112.255319 519.489362,112.255319 C517.662281,112.255319 516.067051,111.262659 515.213563,109.787234 L492.340426,109.787234 C490.97734,109.787234 489.87234,108.682235 489.87234,107.319149 C489.87234,105.956063 490.97734,104.851064 492.340426,104.851064 L515.213563,104.851064 Z M515.213563,80.1702128 L515.213563,80.1702128 C516.067051,78.6947882 517.662281,77.7021277 519.489362,77.7021277 C521.316442,77.7021277 522.911673,78.6947882 523.76516,80.1702128 L526.893617,80.1702128 C528.256702,80.1702128 529.361702,81.2752121 529.361702,82.6382979 C529.361702,84.0013836 528.256702,85.106383 526.893617,85.106383 L523.76516,85.106383 C522.911673,86.5818076 521.316442,87.5744681 519.489362,87.5744681 C517.662281,87.5744681 516.067051,86.5818076 515.213563,85.106383 L492.340426,85.106383 C490.97734,85.106383 489.87234,84.0013836 489.87234,82.6382979 C489.87234,81.2752121 490.97734,80.1702128 492.340426,80.1702128 L515.213563,80.1702128 Z M557.744681,98.6808511 C555.700053,98.6808511 554.042553,97.023352 554.042553,94.9787234 C554.042553,92.9340948 555.700053,91.2765958 557.744681,91.2765958 C559.789309,91.2765958 561.446809,92.9340948 561.446809,94.9787234 C561.446809,97.023352 559.789309,98.6808511 557.744681,98.6808511 Z M568.851064,98.6808511 C566.806435,98.6808511 565.148936,97.023352 565.148936,94.9787234 C565.148936,92.9340948 566.806435,91.2765958 568.851064,91.2765958 C570.895692,91.2765958 572.553191,92.9340948 572.553191,94.9787234 C572.553191,97.023352 570.895692,98.6808511 568.851064,98.6808511 Z M579.957447,98.6808511 C577.912818,98.6808511 576.255319,97.023352 576.255319,94.9787234 C576.255319,92.9340948 577.912818,91.2765958 579.957447,91.2765958 C582.002075,91.2765958 583.659574,92.9340948 583.659574,94.9787234 C583.659574,97.023352 582.002075,98.6808511 579.957447,98.6808511 Z M608.340426,87.5674391 C608.340426,83.4820637 611.656271,80.1702128 615.744898,80.1702128 L640.425315,80.1702128 C644.514692,80.1702128 647.829787,83.481452 647.829787,87.5674391 L647.829787,102.390008 C647.829787,106.475383 644.513942,109.787234 640.425315,109.787234 L615.744898,109.787234 C611.65552,109.787234 608.340426,106.475995 608.340426,102.390008 L608.340426,87.5674391 Z M647.071211,84.3019127 L647.071211,84.3019127 C643.173146,90.70371 636.128367,94.9787234 628.085106,94.9787234 C620.041945,94.9787234 612.997243,90.7038168 609.099147,84.3021524 C608.61335,85.2869528 608.340426,86.3953618 608.340426,87.5674391 L608.340426,91.3996945 C613.290266,96.6427583 620.305563,99.9148936 628.085106,99.9148936 C635.86465,99.9148936 642.879946,96.6427583 647.829787,91.3996945 L647.829787,87.5674391 C647.829787,86.3951974 647.556929,85.2867235 647.071211,84.3019127 Z M761.356448,90.0425532 C764.085522,90.0425532 766.297872,92.2580992 766.297872,94.9787234 C766.297872,97.7048949 764.090136,99.9148936 761.356448,99.9148936 L760.930566,99.9148936 C759.571722,99.9148936 759.253393,100.698127 760.209931,101.654663 L760.511074,101.955807 C762.440821,103.885553 762.438561,107.016549 760.514789,108.940321 C758.587094,110.868016 755.463285,110.869615 753.530276,108.936606 L753.229131,108.635462 C752.268283,107.674614 751.489362,108.003352 751.489362,109.356098 L751.489362,109.78198 C751.489362,112.511053 749.273816,114.723404 746.553191,114.723404 C743.82702,114.723404 741.617021,112.515668 741.617021,109.78198 L741.617021,109.356098 C741.617021,107.997254 740.833788,107.678926 739.877252,108.635462 L739.576107,108.936606 C737.646361,110.866352 734.515366,110.864093 732.591594,108.940321 C730.663899,107.012627 730.6623,103.888817 732.595309,101.955807 L732.896452,101.654663 C733.857301,100.693815 733.528563,99.9148936 732.175817,99.9148936 L731.749935,99.9148936 C729.020861,99.9148936 726.808511,97.6993477 726.808511,94.9787234 C726.808511,92.2525519 729.016247,90.0425532 731.749935,90.0425532 L732.175817,90.0425532 C733.534661,90.0425532 733.852989,89.2593197 732.896452,88.3027836 L732.595309,88.0016398 C730.665562,86.0718936 730.667822,82.9408976 732.591594,81.0171257 C734.519289,79.0894313 737.643098,79.0878315 739.576107,81.020841 L739.877252,81.3219848 C740.8381,82.2828329 741.617021,81.9540948 741.617021,80.6013486 L741.617021,80.175467 C741.617021,77.4463936 743.832567,75.2340426 746.553191,75.2340426 C749.279363,75.2340426 751.489362,77.4417786 751.489362,80.175467 L751.489362,80.6013486 C751.489362,81.9601932 752.272595,82.2785208 753.229131,81.3219848 L753.530276,81.020841 C755.460022,79.0910946 758.591017,79.0933538 760.514789,81.0171257 C762.442484,82.9448201 762.444083,86.0686303 760.511074,88.0016398 L760.209931,88.3027836 C759.249082,89.2636318 759.57782,90.0425532 760.930566,90.0425532 L761.356448,90.0425532 Z M746.553191,104.851064 C752.005535,104.851064 756.425532,100.431066 756.425532,94.9787234 C756.425532,89.5263804 752.005535,85.106383 746.553191,85.106383 C741.100848,85.106383 736.680851,89.5263804 736.680851,94.9787234 C736.680851,100.431066 741.100848,104.851064 746.553191,104.851064 Z M746.553191,99.9148936 C743.82702,99.9148936 741.617021,97.7048949 741.617021,94.9787234 C741.617021,92.2525519 743.82702,90.0425532 746.553191,90.0425532 C749.279363,90.0425532 751.489362,92.2525519 751.489362,94.9787234 C751.489362,97.7048949 749.279363,99.9148936 746.553191,99.9148936 Z M790.978723,85.106383 C790.978723,83.7432972 792.085692,82.6382979 793.452913,82.6382979 L818.121555,82.6382979 C819.488013,82.6382979 820.595745,83.733794 820.595745,85.106383 C820.595745,86.4694688 819.488776,87.5744681 818.121555,87.5744681 L793.452913,87.5744681 C792.086456,87.5744681 790.978723,86.478972 790.978723,85.106383 Z M790.978723,94.9787234 C790.978723,93.6156376 792.085692,92.5106383 793.452913,92.5106383 L818.121555,92.5106383 C819.488013,92.5106383 820.595745,93.6061344 820.595745,94.9787234 C820.595745,96.3418092 819.488776,97.4468085 818.121555,97.4468085 L793.452913,97.4468085 C792.086456,97.4468085 790.978723,96.3513124 790.978723,94.9787234 Z M790.978723,104.851064 C790.978723,103.487978 792.085692,102.382979 793.452913,102.382979 L818.121555,102.382979 C819.488013,102.382979 820.595745,103.478475 820.595745,104.851064 C820.595745,106.21415 819.488776,107.319149 818.121555,107.319149 L793.452913,107.319149 C792.086456,107.319149 790.978723,106.223653 790.978723,104.851064 Z M845.276596,90.0507743 C845.276596,81.8677193 851.908486,75.2340426 860.093328,75.2340426 L869.949226,75.2340426 C878.13228,75.2340426 884.765957,81.8659335 884.765957,90.0507743 L884.765957,99.9066726 C884.765957,108.089728 878.134067,114.723404 869.949226,114.723404 L860.093328,114.723404 C851.910273,114.723404 845.276596,108.091513 845.276596,99.9066726 L845.276596,90.0507743 Z M862.553191,94.9787234 L862.553191,104.851064 C862.553191,106.21415 863.658191,107.319149 865.021277,107.319149 C866.384362,107.319149 867.489362,106.21415 867.489362,104.851064 L867.489362,94.9787234 C867.489362,93.6156376 866.384362,92.5106383 865.021277,92.5106383 C863.658191,92.5106383 862.553191,93.6156376 862.553191,94.9787234 Z M865.021277,90.0425532 C867.065905,90.0425532 868.723404,88.3850541 868.723404,86.3404255 C868.723404,84.295797 867.065905,82.6382979 865.021277,82.6382979 C862.976648,82.6382979 861.319149,84.295797 861.319149,86.3404255 C861.319149,88.3850541 862.976648,90.0425532 865.021277,90.0425532 Z M919.319149,87.5744681 C919.319149,80.7590393 924.844146,75.2340426 931.659574,75.2340426 C938.475003,75.2340426 944,80.7590393 944,87.5744681 C944,94.3898969 938.475003,99.9148936 931.659574,99.9148936 C930.296489,99.9148936 929.191489,98.8098943 929.191489,97.4468085 C929.191489,96.0837228 930.296489,94.9787234 931.659574,94.9787234 C935.748831,94.9787234 939.06383,91.6637254 939.06383,87.5744681 C939.06383,83.4852108 935.748831,80.1702128 931.659574,80.1702128 C927.570318,80.1702128 924.255319,83.4852108 924.255319,87.5744681 C924.255319,88.9375539 923.150319,90.0425532 921.787234,90.0425532 C920.424149,90.0425532 919.319149,88.9375539 919.319149,87.5744681 Z M929.191489,102.382979 C929.191489,109.198408 923.666492,114.723404 916.851064,114.723404 C910.035636,114.723404 904.510638,109.198408 904.510638,102.382979 C904.510638,95.5675499 910.035636,90.0425532 916.851064,90.0425532 C918.214149,90.0425532 919.319149,91.1475525 919.319149,92.5106383 C919.319149,93.8737241 918.214149,94.9787234 916.851064,94.9787234 C912.761807,94.9787234 909.446809,98.2937214 909.446809,102.382979 C909.446809,106.472236 912.761807,109.787234 916.851064,109.787234 C920.940321,109.787234 924.255319,106.472236 924.255319,102.382979 C924.255319,101.019893 925.360319,99.9148936 926.723404,99.9148936 C928.086489,99.9148936 929.191489,101.019893 929.191489,102.382979 Z M918.596264,104.128178 C917.632416,105.092026 916.069711,105.092026 915.105864,104.128178 C914.142017,103.164331 914.142017,101.601626 915.105864,100.637779 L929.914374,85.8292683 C930.878222,84.8654212 932.440927,84.8654212 933.404775,85.8292683 C934.368621,86.7931155 934.368621,88.3558206 933.404775,89.3196679 L918.596264,104.128178 Z M23.4042553,144.340426 L23.4042553,151.744681 L38.212766,151.744681 C39.5758517,151.744681 40.6808511,152.849681 40.6808511,154.212766 C40.6808511,155.575851 39.5758517,156.680851 38.212766,156.680851 L23.4042553,156.680851 L23.4042553,164.085106 L38.212766,164.085106 C39.5758517,164.085106 40.6808511,165.190106 40.6808511,166.553191 C40.6808511,167.916277 39.5758517,169.021277 38.212766,169.021277 L20.9361702,169.021277 C20.2546274,169.021277 19.6376061,168.745026 19.1909705,168.298392 C18.7443349,167.851756 18.4680851,167.234735 18.4680851,166.553191 L18.4680851,141.87234 C18.4680851,141.190797 18.7443349,140.573776 19.1909705,140.12714 C19.6376061,139.680506 20.2546274,139.404255 20.9361702,139.404255 L38.212766,139.404255 C39.5758517,139.404255 40.6808511,140.509255 40.6808511,141.87234 C40.6808511,143.235426 39.5758517,144.340426 38.212766,144.340426 L23.4042553,144.340426 Z M48.0851064,146.808511 C45.3589349,146.808511 43.1489362,144.598512 43.1489362,141.87234 C43.1489362,139.146169 45.3589349,136.93617 48.0851064,136.93617 C50.8112779,136.93617 53.0212766,139.146169 53.0212766,141.87234 C53.0212766,144.598512 50.8112779,146.808511 48.0851064,146.808511 Z M48.0851064,171.489362 C45.3589349,171.489362 43.1489362,169.279363 43.1489362,166.553191 C43.1489362,163.82702 45.3589349,161.617021 48.0851064,161.617021 C50.8112779,161.617021 53.0212766,163.82702 53.0212766,166.553191 C53.0212766,169.279363 50.8112779,171.489362 48.0851064,171.489362 Z M48.0851064,159.148936 C45.3589349,159.148936 43.1489362,156.938937 43.1489362,154.212766 C43.1489362,151.486594 45.3589349,149.276596 48.0851064,149.276596 C50.8112779,149.276596 53.0212766,151.486594 53.0212766,154.212766 C53.0212766,156.938937 50.8112779,159.148936 48.0851064,159.148936 Z M80.16943,138.772965 L86.5981795,137.050387 C88.3734296,136.574711 90.1981665,137.628223 90.6738433,139.403473 L92.3964215,145.832223 C92.8720984,147.607472 91.818586,149.432209 90.0433359,149.907886 L83.6145865,151.630464 C81.8393364,152.106141 80.0145995,151.052629 79.5389226,149.277378 L77.8163445,142.848629 C77.3406676,141.073379 78.39418,139.248643 80.16943,138.772965 Z M80.16943,158.517646 L86.5981795,156.795068 C88.3734296,156.319391 90.1981665,157.372903 90.6738433,159.148154 L92.3964215,165.576903 C92.8720984,167.352153 91.818586,169.176889 90.0433359,169.652567 L83.6145865,171.375145 C81.8393364,171.850821 80.0145995,170.797309 79.5389226,169.022059 L77.8163445,162.593309 C77.3406676,160.81806 78.39418,158.993323 80.16943,158.517646 Z M99.9141109,138.772965 L106.34286,137.050387 C108.11811,136.574711 109.942847,137.628223 110.418524,139.403473 L112.141102,145.832223 C112.616779,147.607472 111.563267,149.432209 109.788017,149.907886 L103.359267,151.630464 C101.584017,152.106141 99.7592804,151.052629 99.2836035,149.277378 L97.5610253,142.848629 C97.0853484,141.073379 98.1388608,139.248643 99.9141109,138.772965 Z M99.9141109,158.517646 L106.34286,156.795068 C108.11811,156.319391 109.942847,157.372903 110.418524,159.148154 L112.141102,165.576903 C112.616779,167.352153 111.563267,169.176889 109.788017,169.652567 L103.359267,171.375145 C101.584017,171.850821 99.7592804,170.797309 99.2836035,169.022059 L97.5610253,162.593309 C97.0853484,160.81806 98.1388608,158.993323 99.9141109,158.517646 Z M166.553191,149.276596 C170.642469,149.276713 173.957447,152.579628 173.957447,156.681664 L173.957447,166.552378 C173.957447,170.642084 170.641602,173.957447 166.552974,173.957447 L141.872558,173.957447 C137.78318,173.957447 134.468085,170.654487 134.468085,166.552378 L134.468085,156.681664 C134.468085,152.59203 137.783813,149.276713 141.87234,149.276596 L141.87234,141.873154 C141.87234,137.783448 145.1753,134.468085 149.277409,134.468085 L159.148123,134.468085 C163.237829,134.468085 166.553191,137.771044 166.553191,141.873154 L166.553191,149.276596 Z M152.361702,163.589827 L152.361702,164.700059 C152.361702,165.724916 153.190452,166.553191 154.212766,166.553191 C155.242208,166.553191 156.06383,165.723516 156.06383,164.700059 L156.06383,163.589827 C157.170398,162.949712 157.914894,161.753289 157.914894,160.382979 C157.914894,158.33835 156.257394,156.680851 154.212766,156.680851 C152.168138,156.680851 150.510638,158.33835 150.510638,160.382979 C150.510638,161.753289 151.255134,162.949712 152.361702,163.589827 L152.361702,163.589827 Z M161.617021,149.276596 L161.617021,141.873154 C161.617021,140.50278 160.517224,139.404255 159.148123,139.404255 L149.277409,139.404255 C147.907036,139.404255 146.808511,140.504053 146.808511,141.873154 L146.808511,149.276596 L161.617021,149.276596 Z M224.553191,150.510638 C226.59782,150.510638 228.255319,152.168138 228.255319,154.212766 C228.255319,156.257394 226.59782,157.914894 224.553191,157.914894 L202.340426,157.914894 C200.295797,157.914894 198.638298,156.257394 198.638298,154.212766 C198.638298,152.168138 200.295797,150.510638 202.340426,150.510638 L224.553191,150.510638 Z M253.659055,138.68137 C252.695209,137.717523 252.695209,136.154818 253.659055,135.19097 C254.622903,134.227123 256.185608,134.227123 257.149456,135.19097 L291.702647,169.744161 C292.666494,170.708009 292.666494,172.270714 291.702647,173.234562 C290.738799,174.198408 289.176094,174.198408 288.212247,173.234562 L253.659055,138.68137 Z M312.893098,138.68137 C311.929251,137.717523 311.929251,136.154818 312.893098,135.19097 C313.856945,134.227123 315.41965,134.227123 316.383498,135.19097 L350.93669,169.744161 C351.900536,170.708009 351.900536,172.270714 350.93669,173.234562 C349.972842,174.198408 348.410137,174.198408 347.446289,173.234562 L312.893098,138.68137 Z M371.885811,154.544368 C369.880736,147.061324 374.319873,139.370122 381.804549,137.364609 L390.817334,134.949641 C398.300378,132.944566 405.99158,137.383703 407.997093,144.868379 L410.412062,153.881164 C412.417136,161.364208 407.977999,169.05541 400.493324,171.060923 L391.480538,173.475891 C383.997494,175.480966 376.306292,171.041829 374.300779,163.557153 L371.885811,154.544368 Z M385.913511,165.533564 C387.44141,166.21383 389.18141,166.553191 391.132739,166.553191 C393.082527,166.553191 394.828697,166.212287 396.368165,165.533564 C397.906862,164.853298 399.202606,163.944734 400.253856,162.807872 C401.305106,161.670239 402.107234,160.355213 402.660239,158.86125 C403.211702,157.367287 403.489362,155.817021 403.489362,154.212766 C403.489362,152.607739 403.212473,151.058245 402.660239,149.564282 C402.107234,148.070319 401.305106,146.755293 400.253856,145.61766 C399.202606,144.480798 397.906862,143.572234 396.368165,142.891968 C394.828697,142.211702 393.084069,141.87234 391.132739,141.87234 C389.18141,141.87234 387.440638,142.213245 385.913511,142.891968 C384.38484,143.572234 383.094495,144.480798 382.044016,145.61766 C380.992766,146.755293 380.190638,148.070319 379.637633,149.564282 C379.084628,151.058245 378.808511,152.608511 378.808511,154.212766 C378.808511,155.817021 379.083856,157.367287 379.637633,158.86125 C380.190638,160.355213 380.992766,161.670239 382.044016,162.807872 C383.095266,163.944734 384.38484,164.853298 385.913511,165.533564 Z M393.758936,159.866223 C392.991516,160.210984 392.122287,160.382979 391.148165,160.382979 C390.174043,160.382979 389.304043,160.210984 388.537394,159.866223 C387.770745,159.522234 387.125957,159.067181 386.603032,158.504149 C386.080106,157.941117 385.678271,157.286303 385.398298,156.539707 C385.117553,155.79234 384.978723,155.017207 384.978723,154.212766 C384.978723,153.408324 385.118324,152.633963 385.399069,151.885824 C385.678271,151.14 386.080106,150.484415 386.602261,149.921383 C387.126729,149.358351 387.771516,148.904069 388.538165,148.559309 C389.305585,148.214548 390.174814,148.042553 391.148936,148.042553 C392.123059,148.042553 392.992287,148.214548 393.758165,148.559309 C394.525585,148.903298 395.171144,149.358351 395.694069,149.921383 C396.217766,150.484415 396.61883,151.139229 396.898803,151.885824 C397.178777,152.633191 397.319149,153.408324 397.319149,154.212766 C397.319149,155.017207 397.178777,155.791569 396.898032,156.539707 C396.61883,157.285532 396.217766,157.941117 395.69484,158.504149 C395.170372,159.067181 394.525585,159.521463 393.758936,159.866223 Z M453.574655,172.132661 C453.417808,172.399844 453.226123,172.649342 453.001373,172.873713 C452.773498,173.095403 452.559395,173.26295 452.323254,173.408267 C452.191891,173.489105 452.05746,173.560756 451.920713,173.623398 C451.438684,173.842941 450.913518,173.95746 450.382979,173.957965 C449.852439,173.95746 449.327274,173.842941 448.845244,173.623398 C448.708498,173.560756 448.574066,173.489105 448.442703,173.408267 C448.191259,173.253532 447.964801,173.073593 447.764585,172.873713 C447.519105,172.622176 447.339627,172.385326 447.191303,172.132661 L438.821016,158.530945 C436.789545,155.996123 435.574468,152.778586 435.574468,149.276596 C435.574468,141.098081 442.202666,134.468085 450.382979,134.468085 C458.561493,134.468085 465.191489,141.096283 465.191489,149.276596 C465.191489,152.778066 463.97657,155.9957 461.945074,158.530731 L453.574655,172.132661 Z M445.446809,149.276596 C445.446809,151.99722 447.656807,154.212766 450.382979,154.212766 C453.103603,154.212766 455.319149,152.002767 455.319149,149.276596 C455.319149,146.555971 453.10915,144.340426 450.382979,144.340426 C447.662354,144.340426 445.446809,146.550424 445.446809,149.276596 Z M513.319149,143.106383 L513.319149,150.510638 L520.723404,150.510638 C522.768033,150.510638 524.425532,152.168138 524.425532,154.212766 C524.425532,156.257394 522.768033,157.914894 520.723404,157.914894 L513.319149,157.914894 L513.319149,165.319149 C513.319149,167.363777 511.66165,169.021277 509.617021,169.021277 C507.572393,169.021277 505.914894,167.363777 505.914894,165.319149 L505.914894,157.914894 L498.510638,157.914894 C496.46601,157.914894 494.808511,156.257394 494.808511,154.212766 C494.808511,152.168138 496.46601,150.510638 498.510638,150.510638 L505.914894,150.510638 L505.914894,143.106383 C505.914894,141.061755 507.572393,139.404255 509.617021,139.404255 C511.66165,139.404255 513.319149,141.061755 513.319149,143.106383 Z M588.595745,138.1654 L588.595745,170.260132 C588.595745,172.310913 586.936394,173.957447 584.889482,173.957447 L575.027302,173.96011 C572.979346,173.960664 571.319149,172.308091 571.319149,170.255554 L571.319149,165.31594 C571.319149,164.636169 570.772032,164.085106 570.073545,164.085106 L567.628583,164.085106 C566.940655,164.085106 566.382979,164.644379 566.382979,165.31594 L566.382979,170.255554 C566.382979,172.302077 564.71899,173.960663 562.674825,173.96011 L552.812646,173.957447 C550.762936,173.957447 549.106383,172.302102 549.106383,170.260132 L549.106383,138.1654 C549.106383,136.114619 550.761728,134.468085 552.803698,134.468085 L584.89843,134.468085 C586.949211,134.468085 588.595745,136.12343 588.595745,138.1654 Z M576.255319,152.967343 L576.255319,157.926274 C576.255319,158.592414 576.802723,159.148936 577.477981,159.148936 L582.436912,159.148936 C583.103052,159.148936 583.659574,158.601532 583.659574,157.926274 L583.659574,152.967343 C583.659574,152.301203 583.11217,151.744681 582.436912,151.744681 L577.477981,151.744681 C576.811841,151.744681 576.255319,152.292085 576.255319,152.967343 Z M565.148936,152.967343 L565.148936,157.926274 C565.148936,158.592414 565.69634,159.148936 566.371598,159.148936 L571.330529,159.148936 C571.996669,159.148936 572.553191,158.601532 572.553191,157.926274 L572.553191,152.967343 C572.553191,152.301203 572.005787,151.744681 571.330529,151.744681 L566.371598,151.744681 C565.705459,151.744681 565.148936,152.292085 565.148936,152.967343 Z M554.042553,152.967343 L554.042553,157.926274 C554.042553,158.592414 554.589957,159.148936 555.265215,159.148936 L560.224146,159.148936 C560.890286,159.148936 561.446809,158.601532 561.446809,157.926274 L561.446809,152.967343 C561.446809,152.301203 560.899405,151.744681 560.224146,151.744681 L555.265215,151.744681 C554.599076,151.744681 554.042553,152.292085 554.042553,152.967343 Z M576.255319,141.86096 L576.255319,146.819891 C576.255319,147.486031 576.802723,148.042553 577.477981,148.042553 L582.436912,148.042553 C583.103052,148.042553 583.659574,147.495149 583.659574,146.819891 L583.659574,141.86096 C583.659574,141.19482 583.11217,140.638298 582.436912,140.638298 L577.477981,140.638298 C576.811841,140.638298 576.255319,141.185702 576.255319,141.86096 Z M554.042553,141.86096 L554.042553,146.819891 C554.042553,147.486031 554.589957,148.042553 555.265215,148.042553 L560.224146,148.042553 C560.890286,148.042553 561.446809,147.495149 561.446809,146.819891 L561.446809,141.86096 C561.446809,141.19482 560.899405,140.638298 560.224146,140.638298 L555.265215,140.638298 C554.599076,140.638298 554.042553,141.185702 554.042553,141.86096 Z M565.148936,141.86096 L565.148936,146.819891 C565.148936,147.486031 565.69634,148.042553 566.371598,148.042553 L571.330529,148.042553 C571.996669,148.042553 572.553191,147.495149 572.553191,146.819891 L572.553191,141.86096 C572.553191,141.19482 572.005787,140.638298 571.330529,140.638298 L566.371598,140.638298 C565.705459,140.638298 565.148936,141.185702 565.148936,141.86096 Z M618.212766,144.340426 C618.212766,138.888082 622.643857,134.468085 628.085106,134.468085 C633.537449,134.468085 637.957447,138.899177 637.957447,144.340426 C637.957447,149.792769 633.526355,154.212766 628.085106,154.212766 C622.632763,154.212766 618.212766,149.781675 618.212766,144.340426 Z M608.340426,164.082867 C608.340426,159.994846 611.656271,156.680851 615.744898,156.680851 L640.425315,156.680851 C644.514692,156.680851 647.829787,159.991511 647.829787,164.082867 L647.829787,171.482131 C647.829787,172.84921 646.7324,173.957447 645.359551,173.957447 L610.810662,173.957447 C609.446388,173.957447 608.340426,172.850437 608.340426,171.482131 L608.340426,164.082867 Z M699.412722,151.744681 C698.269331,146.111917 693.289343,141.87234 687.319149,141.87234 C680.503721,141.87234 674.978723,147.397338 674.978723,154.212766 C674.978723,161.028194 680.503721,166.553191 687.319149,166.553191 C688.682234,166.553191 689.787234,167.658191 689.787234,169.021277 C689.787234,170.384362 688.682234,171.489362 687.319149,171.489362 C677.777549,171.489362 670.042553,163.754366 670.042553,154.212766 C670.042553,144.671166 677.777549,136.93617 687.319149,136.93617 C693.603696,136.93617 699.10451,140.291734 702.12766,145.308935 L702.12766,144.340426 C702.12766,142.97734 703.23266,141.87234 704.595745,141.87234 C705.95883,141.87234 707.06383,142.97734 707.06383,144.340426 L707.06383,154.212766 C707.06383,154.894309 706.787579,155.51133 706.340945,155.957966 C705.894309,156.404601 705.277288,156.680851 704.595745,156.680851 L694.723404,156.680851 C693.360319,156.680851 692.255319,155.575851 692.255319,154.212766 C692.255319,152.849681 693.360319,151.744681 694.723404,151.744681 L699.412722,151.744681 Z M734.212766,144.340426 C734.844404,144.340426 735.476042,144.581387 735.957966,145.06331 L740.894136,149.999481 C741.857983,150.963328 741.857983,152.526033 740.894136,153.489881 C739.930289,154.453728 738.367584,154.453728 737.403736,153.489881 L736.772898,152.859042 C736.712208,153.301609 736.680851,153.753526 736.680851,154.212766 C736.680851,159.665109 741.100848,164.085106 746.553191,164.085106 C747.916277,164.085106 749.021277,165.190106 749.021277,166.553191 C749.021277,167.916277 747.916277,169.021277 746.553191,169.021277 C738.374677,169.021277 731.744681,162.391281 731.744681,154.212766 C731.744681,153.698506 731.770894,153.190369 731.822059,152.689617 L731.021796,153.489881 C730.057948,154.453728 728.495243,154.453728 727.531395,153.489881 C726.567549,152.526033 726.567549,150.963328 727.531395,149.999481 L732.467566,145.06331 C732.94949,144.581387 733.581127,144.340426 734.212766,144.340426 Z M746.553191,139.404255 C754.731706,139.404255 761.361702,146.034251 761.361702,154.212766 C761.361702,154.727026 761.335489,155.235163 761.284324,155.735915 L762.084587,154.935651 C763.048435,153.971804 764.61114,153.971804 765.574987,154.935651 C766.538834,155.899499 766.538834,157.462204 765.574987,158.426051 L760.638817,163.362222 C760.156893,163.844145 759.525256,164.085106 758.893617,164.085106 C758.261979,164.085106 757.630341,163.844145 757.148417,163.362222 L752.212247,158.426051 C751.2484,157.462204 751.2484,155.899499 752.212247,154.935651 C753.176094,153.971804 754.738799,153.971804 755.702647,154.935651 L756.333485,155.56649 C756.394175,155.123923 756.425532,154.672006 756.425532,154.212766 C756.425532,148.760423 752.005535,144.340426 746.553191,144.340426 C745.190106,144.340426 744.085106,143.235426 744.085106,141.87234 C744.085106,140.509255 745.190106,139.404255 746.553191,139.404255 Z M813.609266,156.799198 L824.447586,167.63752 C825.893357,169.083291 825.893357,171.427347 824.447586,172.873118 C823.001815,174.318889 820.657759,174.318889 819.211988,172.873118 L808.373666,162.034798 C806.169,163.337538 803.597334,164.085106 800.851064,164.085106 C792.672549,164.085106 786.042553,157.45511 786.042553,149.276596 C786.042553,141.098081 792.672549,134.468085 800.851064,134.468085 C809.029578,134.468085 815.659574,141.098081 815.659574,149.276596 C815.659574,152.022866 814.912006,154.594532 813.609266,156.799198 L813.609266,156.799198 Z M800.851064,159.148936 C806.303407,159.148936 810.723404,154.728939 810.723404,149.276596 C810.723404,143.824253 806.303407,139.404255 800.851064,139.404255 C795.398721,139.404255 790.978723,143.824253 790.978723,149.276596 C790.978723,154.728939 795.398721,159.148936 800.851064,159.148936 Z M845.276596,149.284817 C845.276596,141.101762 851.908486,134.468085 860.093328,134.468085 L869.949226,134.468085 C878.13228,134.468085 884.765957,141.099975 884.765957,149.284817 L884.765957,159.140715 C884.765957,167.32377 878.134067,173.957447 869.949226,173.957447 L860.093328,173.957447 C851.910273,173.957447 845.276596,167.325557 845.276596,159.140715 L845.276596,149.284817 Z M865.021277,161.617021 C865.652915,161.617021 866.284552,161.37606 866.766477,160.894136 L876.638817,151.021796 C877.602664,150.057948 877.602664,148.495243 876.638817,147.531395 C875.67497,146.567549 874.112264,146.567549 873.148417,147.531395 L865.021277,155.658537 L856.894136,147.531395 C855.930289,146.567549 854.367584,146.567549 853.403736,147.531395 C852.439889,148.495243 852.439889,150.057948 853.403736,151.021796 L863.276076,160.894136 C863.758001,161.37606 864.389638,161.617021 865.021277,161.617021 Z M904.510638,159.140715 L904.510638,149.284817 C904.510638,141.099975 911.144315,134.468085 919.32737,134.468085 L929.183268,134.468085 C937.36811,134.468085 944,141.101762 944,149.284817 L944,159.140715 C944,167.325557 937.366323,173.957447 929.183268,173.957447 L919.32737,173.957447 C911.142529,173.957447 904.510638,167.32377 904.510638,159.140715 Z M924.255319,146.808511 C923.623681,146.808511 922.992043,147.049472 922.510119,147.531395 L912.637778,157.403736 C911.673932,158.367584 911.673932,159.930289 912.637778,160.894136 C913.601626,161.857983 915.164331,161.857983 916.128179,160.894136 L924.255319,152.766995 L932.382459,160.894136 C933.346307,161.857983 934.909012,161.857983 935.87286,160.894136 C936.836706,159.930289 936.836706,158.367584 935.87286,157.403736 L926.000519,147.531395 C925.518595,147.049472 924.886958,146.808511 924.255319,146.808511 Z M23.4042553,203.574468 L23.4042553,201.107196 C23.4042553,197.01749 26.707215,193.702128 30.8093245,193.702128 L40.6800372,193.702128 C44.7697439,193.702128 48.0851064,197.005087 48.0851064,201.107196 L48.0851064,208.510638 C52.1743838,208.510756 55.4893617,211.81367 55.4893617,215.915707 L55.4893617,225.786421 C55.4893617,229.876127 52.1735166,233.191489 48.0848896,233.191489 L23.4044721,233.191489 C19.315095,233.191489 16,229.88853 16,225.786421 L16,215.915707 C16,211.826001 19.3158451,208.510638 23.4044721,208.510638 L48.0848896,208.510638 L43.1489362,208.510638 L43.1489362,201.107196 C43.1489362,199.736823 42.0491393,198.638298 40.6800372,198.638298 L30.8093245,198.638298 C29.4389501,198.638298 28.3404255,199.738095 28.3404255,201.107196 L28.3404255,203.574468 C28.3404255,204.937553 27.2354262,206.042553 25.8723404,206.042553 C24.5092547,206.042553 23.4042553,204.937553 23.4042553,203.574468 Z M33.893617,222.82387 L33.893617,222.82387 L33.893617,223.934102 C33.893617,224.958958 34.7223666,225.787234 35.7446809,225.787234 C36.7741226,225.787234 37.5957447,224.957559 37.5957447,223.934102 L37.5957447,222.82387 C38.7023132,222.183755 39.4468085,220.987332 39.4468085,219.617021 C39.4468085,217.572393 37.7893094,215.914894 35.7446809,215.914894 C33.7000523,215.914894 32.0425532,217.572393 32.0425532,219.617021 C32.0425532,220.987332 32.7870485,222.183755 33.893617,222.82387 Z M90.0425532,208.510638 L90.0425532,223.319412 C90.0425532,226.045583 92.2525519,228.255582 94.9787234,228.255582 C97.7048949,228.255582 99.9148936,226.045583 99.9148936,223.319412 L99.9148936,208.510638 L102.382979,208.510638 C109.198408,208.510638 114.723404,214.035636 114.723404,220.851064 C114.723404,227.666492 109.198408,233.191489 102.382979,233.191489 L87.5744681,233.191489 C80.7590393,233.191489 75.2340426,227.666492 75.2340426,220.851064 C75.2340426,214.035636 80.7590393,208.510638 87.5744681,208.510638 L90.0425532,208.510638 Z M93.5623517,194.148629 C93.6321325,194.099762 93.7041253,194.054768 93.7779884,194.013716 C93.7899958,194.007098 93.8020537,194.000501 93.8141723,193.994001 C94.1730427,193.802342 94.5740649,193.7025 94.9789856,193.702129 C94.9873202,193.702129 94.9956531,193.702129 95.0039839,193.702129 C95.2406866,193.704408 95.4784534,193.740605 95.7096494,193.812349 C95.9501021,193.886865 96.1739806,193.996575 96.3761102,194.135622 L103.752288,199.053074 C104.886444,199.809178 105.192916,201.341537 104.436812,202.475693 C103.680708,203.609848 102.14835,203.91632 101.014194,203.160216 L97.4470707,200.782135 L97.4470707,223.319412 C97.4470707,224.682497 96.3420714,225.787497 94.9789856,225.787497 C93.6158999,225.787497 92.5109005,224.682497 92.5109005,223.319412 L92.5109005,200.782135 L88.9437776,203.160216 C87.8096218,203.91632 86.2772634,203.609848 85.5211595,202.475693 C84.7650554,201.341537 85.0715272,199.809178 86.2056831,199.053074 L93.5623517,194.148629 L93.5623517,194.148629 Z M150.81334,196.429446 C152.692506,192.794114 155.738105,192.791929 157.6184,196.429446 L173.216319,226.604323 C175.095485,230.239653 173.305965,233.186672 169.220057,233.186672 L139.211683,233.186672 C135.125442,233.186672 133.335124,230.241839 135.21542,226.604323 L150.81334,196.429446 Z M154.215046,228.255319 C156.259675,228.255319 157.917174,226.59782 157.917174,224.553191 C157.917174,222.508563 156.259675,220.851064 154.215046,220.851064 C152.170418,220.851064 150.512919,222.508563 150.512919,224.553191 C150.512919,226.59782 152.170418,228.255319 154.215046,228.255319 Z M151.746961,206.042553 L151.746961,215.914894 C151.746961,217.277979 152.85196,218.382979 154.215046,218.382979 C155.578132,218.382979 156.683132,217.277979 156.683132,215.914894 L156.683132,206.042553 C156.683132,204.679468 155.578132,203.574468 154.215046,203.574468 C152.85196,203.574468 151.746961,204.679468 151.746961,206.042553 Z" id="icons-grouped" fill="#FFA07A" fill-rule="nonzero"></path>
    </g>
</svg>