<?xml version="1.0" encoding="UTF-8"?>
<svg width="784px" height="208px" viewBox="0 0 784 208" version="1.1" xmlns="http://www.w3.org/2000/svg" xmlns:xlink="http://www.w3.org/1999/xlink">
    <!-- Generator: Sketch 46 (44423) - http://www.bohemiancoding.com/sketch -->
    <title>otto-icons</title>
    <desc>Created with Sketch.</desc>
    <defs>
        <linearGradient x1="100%" y1="0%" x2="0%" y2="100%" id="linearGradient-1">
            <stop stop-color="#A595DD" offset="0%"></stop>
            <stop stop-color="#FFA07A" offset="100%"></stop>
        </linearGradient>
    </defs>
    <g id="Portfolio" stroke="none" stroke-width="1" fill="none" fill-rule="evenodd">
        <g id="otto-icons" fill="url(#linearGradient-1)">
            <path d="M285.545681,135.888827 L267.656854,118 L274,118 C276.612438,118 278.834916,119.669615 279.658589,122 L279.658589,123.336176 L282.287088,120.906164 C283.593996,119.697945 285.712912,119.697945 287.019819,120.906164 C287.647418,121.486371 288,122.2733 288,123.093836 L288,132.906164 C288,134.329197 286.960779,135.527836 285.545681,135.888827 Z M276.001281,137.658136 C275.375361,137.879527 274.70175,138 274,138 L262,138 C258.686292,138 256,135.313708 256,132 L256,124 C256,122.255856 256.744199,120.685529 257.932381,119.589236 L276.001281,137.658136 Z M214,123.656854 L226.343146,136 L226,136 L226,140 L230,140 C230.129584,140 230.25629,140.012324 230.37901,140.035864 L231.964136,141.62099 C231.987676,141.74371 232,141.870416 232,142 C232,143.104569 231.104569,144 230,144 L218,144 C216.895431,144 216,143.104569 216,142 C216,140.895431 216.895431,140 218,140 L222,140 L222,136 L220,136 C216.686292,136 214,133.313708 214,130 L214,123.656854 Z M215.589236,113.932381 C216.685529,112.744199 218.255856,112 220,112 L228,112 C231.313708,112 234,114.686292 234,118 L234,130 C234,130.70175 233.879527,131.375361 233.658136,132.001281 L215.589236,113.932381 Z M551.903898,95.2809139 C553.184013,95.746227 554.565694,96 556.006662,96 L563.993338,96 C570.625882,96 576,90.6244344 576,83.9933381 L576,76.0066619 C576,69.3741185 570.624434,64 563.993338,64 L556.006662,64 C549.374118,64 544,69.3755656 544,76.0066619 L544,83.9933381 C544,87.4360225 545.4483,90.5396586 547.768726,92.7286815 C556.097385,89.5228187 560.704523,83.7001365 561.762761,75.0656663 L559.414214,77.4142136 C558.633165,78.1952621 557.366835,78.1952621 556.585786,77.4142136 C555.804738,76.633165 555.804738,75.366835 556.585786,74.5857864 L562.585786,68.5857864 C563.366835,67.8047379 564.633165,67.8047379 565.414214,68.5857864 L571.414214,74.5857864 C572.195262,75.366835 572.195262,76.633165 571.414214,77.4142136 C570.633165,78.1952621 569.366835,78.1952621 568.585786,77.4142136 L565.829447,74.6578742 L565.829447,74.6578742 C564.903546,84.2665715 560.213628,91.1952087 551.903898,95.2809139 Z M32,75.7573593 L25.1213203,68.8786797 C23.9497475,67.7071068 22.0502525,67.7071068 20.8786797,68.8786797 C19.7071068,70.0502525 19.7071068,71.9497475 20.8786797,73.1213203 L27.7573593,80 L20.8786797,86.8786797 C19.7071068,88.0502525 19.7071068,89.9497475 20.8786797,91.1213203 C22.0502525,92.2928932 23.9497475,92.2928932 25.1213203,91.1213203 L32,84.2426407 L38.8786797,91.1213203 C40.0502525,92.2928932 41.9497475,92.2928932 43.1213203,91.1213203 C44.2928932,89.9497475 44.2928932,88.0502525 43.1213203,86.8786797 L36.2426407,80 L43.1213203,73.1213203 C44.2928932,71.9497475 44.2928932,70.0502525 43.1213203,68.8786797 C41.9497475,67.7071068 40.0502525,67.7071068 38.8786797,68.8786797 L32,75.7573593 Z M16,28.0066619 C16,21.3755656 21.3741185,16 28.0066619,16 L35.9933381,16 C42.6244344,16 48,21.3741185 48,28.0066619 L48,35.9933381 C48,42.6244344 42.6258815,48 35.9933381,48 L28.0066619,48 C21.3755656,48 16,42.6258815 16,35.9933381 L16,28.0066619 Z M34,30 L34,23.9907951 C34,22.8982124 33.1045695,22 32,22 C30.8877296,22 30,22.8913093 30,23.9907951 L30,30 L23.9907951,30 C22.8982124,30 22,30.8954305 22,32 C22,33.1122704 22.8913093,34 23.9907951,34 L30,34 L30,40.0092049 C30,41.1017876 30.8954305,42 32,42 C33.1122704,42 34,41.1086907 34,40.0092049 L34,34 L40.0092049,34 C41.1017876,34 42,33.1045695 42,32 C42,30.8877296 41.1086907,30 40.0092049,30 L34,30 L34,30 Z M78,37.1715729 L78,22 C78,20.8954305 78.8954305,20 80,20 C81.1045695,20 82,20.8954305 82,22 L82,37.1715729 L88.5857864,30.5857864 C89.366835,29.8047379 90.633165,29.8047379 91.4142136,30.5857864 C92.1952621,31.366835 92.1952621,32.633165 91.4142136,33.4142136 L81.4142136,43.4142136 C81.0236893,43.8047379 80.5118446,44 80,44 C79.4881554,44 78.9763107,43.8047379 78.5857864,43.4142136 L68.5857864,33.4142136 C67.8047379,32.633165 67.8047379,31.366835 68.5857864,30.5857864 C69.366835,29.8047379 70.633165,29.8047379 71.4142136,30.5857864 L78,37.1715729 Z M129.414214,23.4142136 L122.828427,30 L138,30 C139.104569,30 140,30.8954305 140,32 C140,33.1045695 139.104569,34 138,34 L122.828427,34 L129.414214,40.5857864 C130.195262,41.366835 130.195262,42.633165 129.414214,43.4142136 C128.633165,44.1952621 127.366835,44.1952621 126.585786,43.4142136 L116.585786,33.4142136 C116.195262,33.0236893 116,32.5118446 116,32 C116,31.4881554 116.195262,30.9763107 116.585786,30.5857864 L126.585786,20.5857864 C127.366835,19.8047379 128.633165,19.8047379 129.414214,20.5857864 C130.195262,21.366835 130.195262,22.633165 129.414214,23.4142136 Z M174.585786,23.4142136 C173.804738,22.633165 173.804738,21.366835 174.585786,20.5857864 C175.366835,19.8047379 176.633165,19.8047379 177.414214,20.5857864 L187.414214,30.5857864 C187.804738,30.9763107 188,31.4881554 188,32 C188,32.5118446 187.804738,33.0236893 187.414214,33.4142136 L177.414214,43.4142136 C176.633165,44.1952621 175.366835,44.1952621 174.585786,43.4142136 C173.804738,42.633165 173.804738,41.366835 174.585786,40.5857864 L181.171573,34 L166,34 C164.895431,34 164,33.1045695 164,32 C164,30.8954305 164.895431,30 166,30 L181.171573,30 L174.585786,23.4142136 Z M215.414214,33.4142136 C214.633165,34.1952621 213.366835,34.1952621 212.585786,33.4142136 C211.804738,32.633165 211.804738,31.366835 212.585786,30.5857864 L222.585786,20.5857864 C222.976311,20.1952621 223.488155,20 224,20 C224.511845,20 225.023689,20.1952621 225.414214,20.5857864 L235.414214,30.5857864 C236.195262,31.366835 236.195262,32.633165 235.414214,33.4142136 C234.633165,34.1952621 233.366835,34.1952621 232.585786,33.4142136 L226,26.8284271 L226,42 C226,43.1045695 225.104569,44 224,44 C222.895431,44 222,43.1045695 222,42 L222,26.8284271 L215.414214,33.4142136 Z M281.995053,30 L262.004947,30 C260.897026,30 260,29.1055177 260,28.002118 L260,27.9963702 C260,21.3709579 265.371126,16 272,16 C278.627417,16 284,21.3655518 284,27.9963702 L284,28.002118 C284,29.1036712 283.102355,30 281.995053,30 Z M261,32 L283,32 C285.761424,32 288,34.2385763 288,37 L288,40 C288,41.1045695 287.104569,42 286,42 L258,42 C256.895431,42 256,41.1045695 256,40 L256,37 C256,34.2385763 258.238576,32 261,32 Z M266.341411,44 L266.341411,44 L277.658589,44 C276.834916,46.3303847 274.612438,48 272,48 C269.387562,48 267.165084,46.3303847 266.341411,44 Z M332,16.990778 L332,20.0000021 C334.209533,20.0023032 336,21.795534 336,23.9968389 L336,44.0031611 C336,46.2105543 334.210972,48 331.995742,48 L308.004258,48 C305.792767,48 304,46.2058797 304,44.0031611 L304,23.9968389 C304,21.7908601 305.786736,20.0022933 308,20.0000022 L308,16.990778 C308,16.4435864 308.443865,16 309,16 L310.990631,16 C311.54809,16 312,16.4433532 312,17.0093689 L312,20 L311,20 L329,20 L328,20 L328,17.0093689 C328,16.4519098 328.443353,16 329.009369,16 L330.990631,16 C331.552285,16 332,16.4509752 332,16.990778 Z M308,27.5140533 L308,30.4859467 C308,31.3349702 308.677865,32 309.514053,32 L312.485947,32 C313.33497,32 314,31.3221352 314,30.4859467 L314,27.5140533 C314,26.6650298 313.322135,26 312.485947,26 L309.514053,26 C308.66503,26 308,26.6778648 308,27.5140533 Z M317,27.5140533 L317,30.4859467 C317,31.3349702 317.677865,32 318.514053,32 L321.485947,32 C322.33497,32 323,31.3221352 323,30.4859467 L323,27.5140533 C323,26.6650298 322.322135,26 321.485947,26 L318.514053,26 C317.66503,26 317,26.6778648 317,27.5140533 Z M317,37.5140533 L317,40.4859467 C317,41.3349702 317.677865,42 318.514053,42 L321.485947,42 C322.33497,42 323,41.3221352 323,40.4859467 L323,37.5140533 C323,36.6650298 322.322135,36 321.485947,36 L318.514053,36 C317.66503,36 317,36.6778648 317,37.5140533 Z M326,27.5140533 L326,30.4859467 C326,31.3349702 326.677865,32 327.514053,32 L330.485947,32 C331.33497,32 332,31.3221352 332,30.4859467 L332,27.5140533 C332,26.6650298 331.322135,26 330.485947,26 L327.514053,26 C326.66503,26 326,26.6778648 326,27.5140533 Z M308,37.5140533 L308,40.4859467 C308,41.3349702 308.677865,42 309.514053,42 L312.485947,42 C313.33497,42 314,41.3221352 314,40.4859467 L314,37.5140533 C314,36.6650298 313.322135,36 312.485947,36 L309.514053,36 C308.66503,36 308,36.6778648 308,37.5140533 Z M352,36.9942017 L352,32 C352,27.581722 355.577661,24 359.992405,24 L376.007595,24 C380.421678,24 384,27.5907123 384,32.0057983 L384,36.9942017 C384,38.6542582 382.658377,40 381.002848,40 L374.997152,40 C373.341871,40 372,38.6511841 372,36.9942017 L372.000003,34.0025565 C372.000004,32.8928632 371.105424,32.0006484 370.001902,32.0014482 L365.998103,32.0043501 C364.886707,32.0051557 364,32.9013325 364,34.0060298 L364,36.9942017 C364,38.6542582 362.658377,40 361.002848,40 L354.997152,40 C353.341871,40 352,38.6511841 352,36.9942017 Z M431.040112,41.6043842 L427.194024,45.4504717 C423.791462,48.8530343 418.277945,48.8561619 414.878104,45.4563204 L402.544637,33.1228538 C399.145305,29.7235213 399.154847,24.2025723 402.554951,20.8024679 L406.396573,16.9608457 C407.675001,15.6824186 409.744568,15.6792465 411.019509,16.9541871 L415.644559,21.5792371 C416.919309,22.8539868 416.91396,24.926113 415.6379,26.2021727 L413.334,28.5060679 C412.479413,29.3606536 412.481235,30.7366832 413.331684,31.585901 L416.417288,34.6670347 C417.273806,35.522312 418.646823,35.5150191 419.497562,34.66428 L421.798785,32.3630573 C423.077212,31.0846301 425.14678,31.0814581 426.421721,32.3563987 L431.04677,36.9814486 C432.32152,38.2561983 432.316172,40.3283245 431.040112,41.6043842 Z M448,28.0066619 C448,21.3755656 453.374118,16 460.006662,16 L467.993338,16 C474.624434,16 480,21.3741185 480,28.0066619 L480,35.9933381 C480,42.6244344 474.625882,48 467.993338,48 L460.006662,48 C453.375566,48 448,42.6258815 448,35.9933381 L448,28.0066619 Z M464,29.1715729 L459.414214,24.5857864 C458.633165,23.8047379 457.366835,23.8047379 456.585786,24.5857864 C455.804738,25.366835 455.804738,26.633165 456.585786,27.4142136 L461.171573,32 L456.585786,36.5857864 C455.804738,37.366835 455.804738,38.633165 456.585786,39.4142136 C457.366835,40.1952621 458.633165,40.1952621 459.414214,39.4142136 L464,34.8284271 L468.585786,39.4142136 C469.366835,40.1952621 470.633165,40.1952621 471.414214,39.4142136 C472.195262,38.633165 472.195262,37.366835 471.414214,36.5857864 L466.828427,32 L471.414214,27.4142136 C472.195262,26.633165 472.195262,25.366835 471.414214,24.5857864 C470.633165,23.8047379 469.366835,23.8047379 468.585786,24.5857864 L464,29.1715729 Z M512,39 C511.488155,39 510.976311,38.8047379 510.585786,38.4142136 L500.585786,28.4142136 C499.804738,27.633165 499.804738,26.366835 500.585786,25.5857864 C501.366835,24.8047379 502.633165,24.8047379 503.414214,25.5857864 L512,34.1715729 L520.585786,25.5857864 C521.366835,24.8047379 522.633165,24.8047379 523.414214,25.5857864 C524.195262,26.366835 524.195262,27.633165 523.414214,28.4142136 L513.414214,38.4142136 C513.023689,38.8047379 512.511845,39 512,39 Z M553,32 C553,31.4881554 553.195262,30.9763107 553.585786,30.5857864 L563.585786,20.5857864 C564.366835,19.8047379 565.633165,19.8047379 566.414214,20.5857864 C567.195262,21.366835 567.195262,22.633165 566.414214,23.4142136 L557.828427,32 L566.414214,40.5857864 C567.195262,41.366835 567.195262,42.633165 566.414214,43.4142136 C565.633165,44.1952621 564.366835,44.1952621 563.585786,43.4142136 L553.585786,33.4142136 C553.195262,33.0236893 553,32.5118446 553,32 Z M615,32 C615,32.5118446 614.804738,33.0236893 614.414214,33.4142136 L604.414214,43.4142136 C603.633165,44.1952621 602.366835,44.1952621 601.585786,43.4142136 C600.804738,42.633165 600.804738,41.366835 601.585786,40.5857864 L610.171573,32 L601.585786,23.4142136 C600.804738,22.633165 600.804738,21.366835 601.585786,20.5857864 C602.366835,19.8047379 603.633165,19.8047379 604.414214,20.5857864 L614.414214,30.5857864 C614.804738,30.9763107 615,31.4881554 615,32 Z M656,25 C656.511845,25 657.023689,25.1952621 657.414214,25.5857864 L667.414214,35.5857864 C668.195262,36.366835 668.195262,37.633165 667.414214,38.4142136 C666.633165,39.1952621 665.366835,39.1952621 664.585786,38.4142136 L656,29.8284271 L647.414214,38.4142136 C646.633165,39.1952621 645.366835,39.1952621 644.585786,38.4142136 C643.804738,37.633165 643.804738,36.366835 644.585786,35.5857864 L654.585786,25.5857864 C654.976311,25.1952621 655.488155,25 656,25 Z M708,18 L713.00891,18 C714.660843,18 716,19.3473186 716,21.0000191 L716,44.9999809 C716,46.6568457 714.658229,48 713.00891,48 L694.99109,48 C693.339157,48 692,46.6526814 692,44.9999809 L692,21.0000191 C692,19.3431543 693.341771,18 694.99109,18 L700,18 C700,16.8954305 700.453036,16 700.99703,16 L707.00297,16 C707.553614,16 708,16.8877296 708,18 Z M696,43 C696,43.5561352 696.669578,44 697.495545,44 L706.504455,44 C707.320446,44 708,43.5522847 708,43 C708,42.4438648 707.330422,42 706.504455,42 L697.495545,42 C696.679554,42 696,42.4477153 696,43 Z M696,31 C696,31.5561352 696.448106,32 697.000872,32 L710.999128,32 C711.555369,32 712,31.5522847 712,31 C712,30.4438648 711.551894,30 710.999128,30 L697.000872,30 C696.444631,30 696,30.4477153 696,31 Z M696,37 C696,37.5561352 696.448106,38 697.000872,38 L710.999128,38 C711.555369,38 712,37.5522847 712,37 C712,36.4438648 711.551894,36 710.999128,36 L697.000872,36 C696.444631,36 696,36.4477153 696,37 Z M696,25 C696,25.5561352 696.448106,26 697.000872,26 L710.999128,26 C711.555369,26 712,25.5522847 712,25 C712,24.4438648 711.551894,24 710.999128,24 L697.000872,24 C696.444631,24 696,24.4477153 696,25 Z M749.427034,36.184393 L758.440154,21.43565 C759.304121,20.0218863 761.150586,19.5761878 762.56435,20.4401545 C763.978114,21.3041212 764.423812,23.1505864 763.559846,24.56435 L752.559846,42.56435 C751.547368,44.2211315 749.251639,44.4942799 747.87868,43.1213203 L740.87868,36.1213203 C739.707107,34.9497475 739.707107,33.0502525 740.87868,31.8786797 C742.050253,30.7071068 743.949747,30.7071068 745.12132,31.8786797 L749.427034,36.184393 Z M80,96 C71.163444,96 64,88.836556 64,80 C64,71.163444 71.163444,64 80,64 C88.836556,64 96,71.163444 96,80 C96,88.836556 88.836556,96 80,96 Z M82,78 L82,70 C82,68.8954305 81.1045695,68 80,68 C78.8954305,68 78,68.8954305 78,70 L78,80 C78,81.1045695 78.8954305,82 80,82 L90,82 C91.1045695,82 92,81.1045695 92,80 C92,78.8954305 91.1045695,78 90,78 L82,78 Z M138,90 L138,94.9898987 C138.001168,95.0977533 137.984963,95.2062284 137.950745,95.3108499 C137.862979,95.569468 137.684409,95.7735412 137.454288,95.8910936 C137.113567,96.0579461 136.710969,96.0332265 136.4,95.8 L128.666667,90 L118.000176,90 C114.68637,90 112,87.3154714 112,84.0024287 L112,69.9975713 C112,66.6852041 114.686978,64 118.000176,64 L137.999824,64 C141.31363,64 144,66.6845286 144,69.9975713 L144,84.0024287 C144,87.3147373 141.313117,89.9999051 138,90 L138,90 Z M119,80 C120.656854,80 122,78.6568542 122,77 C122,75.3431458 120.656854,74 119,74 C117.343146,74 116,75.3431458 116,77 C116,78.6568542 117.343146,80 119,80 Z M128,80 C129.656854,80 131,78.6568542 131,77 C131,75.3431458 129.656854,74 128,74 C126.343146,74 125,75.3431458 125,77 C125,78.6568542 126.343146,80 128,80 Z M137,80 C138.656854,80 140,78.6568542 140,77 C140,75.3431458 138.656854,74 137,74 C135.343146,74 134,75.3431458 134,77 C134,78.6568542 135.343146,80 137,80 Z M160,76.0066619 C160,69.3755656 165.374118,64 172.006662,64 L179.993338,64 C186.624434,64 192,69.3741185 192,76.0066619 L192,83.9933381 C192,90.6244344 186.625882,96 179.993338,96 L172.006662,96 C165.375566,96 160,90.6258815 160,83.9933381 L160,76.0066619 Z M173.849912,84.4665489 L169.6,78.8 C168.937258,77.9163444 167.683656,77.7372583 166.8,78.4 C165.916344,79.0627417 165.737258,80.3163444 166.4,81.2 L172.372525,89.1633672 C172.448643,89.2699385 172.535948,89.3698967 172.634003,89.4613529 C172.638286,89.4653116 172.642554,89.4692756 172.646836,89.4732181 C172.735964,89.5548962 172.833792,89.6296153 172.940002,89.6959966 C173.035413,89.7556287 173.133909,89.806232 173.234489,89.8480373 C173.503824,89.9593059 173.794545,90.0104587 174.084884,89.9983861 C174.375201,89.9857946 174.660537,89.9101729 174.919467,89.7764654 C175.01614,89.7262816 175.109989,89.6675081 175.2,89.6 C175.295374,89.5284696 175.38254,89.4500562 175.461326,89.3659678 C175.465324,89.3617397 175.469279,89.3574617 175.473218,89.3531635 C175.568106,89.2500926 175.650559,89.1387004 175.720266,89.0211672 L185.695997,73.0599979 C186.281417,72.1233248 185.996671,70.8894241 185.059998,70.3040034 C184.123325,69.7185827 182.889424,70.0033291 182.304003,70.9400021 L173.849912,84.4665489 Z M236,71 C233.790861,71 232,72.790861 232,75 L232,76 L216,76 L216,75 C216,72.790861 214.209139,71 212,71 L212,70 C212,66.6862915 214.686292,64 218,64 L230,64 C233.313708,64 236,66.6862915 236,70 L236,71 Z M214,78 L234,78 L234,75 C234,73.8954305 234.895431,73 236,73 L238,73 C239.104569,73 240,73.8954305 240,75 L240,86 C240,87.1045695 239.104569,88 238,88 L210,88 C208.895431,88 208,87.1045695 208,86 L208,75 C208,73.8954305 208.895431,73 210,73 L212,73 C213.104569,73 214,73.8954305 214,75 L214,78 Z M213,90 L217,90 L217,94 C217,95.1045695 216.104569,96 215,96 C213.895431,96 213,95.1045695 213,94 L213,90 Z M231,90 L235,90 L235,94 C235,95.1045695 234.104569,96 233,96 C231.895431,96 231,95.1045695 231,94 L231,90 Z M256,76.0066619 C256,69.3755656 261.374118,64 268.006662,64 L275.993338,64 C282.624434,64 288,69.3741185 288,76.0066619 L288,83.9933381 C288,90.6244344 282.625882,96 275.993338,96 L268.006662,96 C261.375566,96 256,90.6258815 256,83.9933381 L256,76.0066619 Z M262,80 C262,81.1122704 262.891309,82 263.990795,82 L280.009205,82 C281.101788,82 282,81.1045695 282,80 C282,78.8877296 281.108691,78 280.009205,78 L263.990795,78 C262.898212,78 262,78.8954305 262,80 Z M304.5,71 C304.5,67.1340068 307.641873,64 311.5,64 C315.365993,64 318.5,67.1418733 318.5,71 C318.5,74.8659932 315.358127,78 311.5,78 C307.634007,78 304.5,74.8581267 304.5,71 Z M321.5,75 C321.5,71.1340068 324.641873,68 328.5,68 C332.365993,68 335.5,71.1418733 335.5,75 C335.5,78.8659932 332.358127,82 328.5,82 C324.634007,82 321.5,78.8581267 321.5,75 Z M321,87.9958262 C321,85.7889923 322.794451,84 325.00002,84 L331.99998,84 C334.20913,84 336,85.7965212 336,87.9958262 L336,93.9914698 C336,95.1007504 335.106603,96 334.008116,96 L322.991884,96 C321.891797,96 321,95.0980496 321,93.9914698 L321,87.9958262 Z M304,83.9962027 C304,81.7891609 305.794451,80 308.00002,80 L314.99998,80 C317.20913,80 319,81.7888304 319,83.9962027 L319,94.0059397 C319,95.1072288 318.106603,96 317.008116,96 L305.991884,96 C304.891797,96 304,95.1054862 304,94.0059397 L304,83.9962027 Z M364,84.0000008 L362,84.0000008 C356.477153,84.0000008 352,79.5228483 352,74.0000008 C352,68.4771533 356.477153,64.0000008 362,64.0000008 L374,64.0000008 C379.522847,64.0000008 384,68.4771533 384,74.0000008 C384,79.5228483 379.522847,84.0000008 374,84.0000008 L372,84.0000008 L372,71.9997883 C372,69.7906493 370.209139,67.9997883 368,67.9997883 C365.790861,67.9997883 364,69.7906493 364,71.9997883 L364,84.0000008 Z M366.85225,95.6381811 L366.85225,95.6381811 L360.890812,91.6638889 C359.971755,91.051184 359.723407,89.8094453 360.336112,88.8903879 C360.948817,87.9713305 362.190556,87.7229828 363.109613,88.3356877 L366.000213,90.2627541 L366.000213,71.9997883 C366.000213,70.8952188 366.895643,69.9997883 368.000213,69.9997883 C369.104782,69.9997883 370.000213,70.8952188 370.000213,71.9997883 L370.000213,90.2627541 L372.890812,88.3356877 C373.80987,87.7229828 375.051608,87.9713305 375.664313,88.8903879 C376.277018,89.8094453 376.02867,91.051184 375.109613,91.6638889 L369.132365,95.6487207 C368.968571,95.7613968 368.787152,95.8503 368.592302,95.9106842 C368.404954,95.9688211 368.212281,95.9981527 368.02047,95.999879 C368.013719,95.9999534 368.006966,95.9999938 368.000213,96 C367.672087,95.9996986 367.347121,95.9187929 367.056312,95.7634827 C367.046492,95.7582161 367.036721,95.7528699 367.026991,95.7475064 C366.967136,95.7142404 366.908797,95.6777802 366.85225,95.6381811 Z M404.535129,78 L404.535129,78 C405.226748,76.8043973 406.519435,76 408,76 C409.480565,76 410.773252,76.8043973 411.464871,78 L430,78 C431.104569,78 432,78.8954305 432,80 C432,81.1045695 431.104569,82 430,82 L411.464871,82 C410.773252,83.1956027 409.480565,84 408,84 C406.519435,84 405.226748,83.1956027 404.535129,82 L402,82 C400.895431,82 400,81.1045695 400,80 C400,78.8954305 400.895431,78 402,78 L404.535129,78 Z M420.535129,88 L420.535129,88 C421.226748,86.8043973 422.519435,86 424,86 C425.480565,86 426.773252,86.8043973 427.464871,88 L430,88 C431.104569,88 432,88.8954305 432,90 C432,91.1045695 431.104569,92 430,92 L427.464871,92 C426.773252,93.1956027 425.480565,94 424,94 C422.519435,94 421.226748,93.1956027 420.535129,92 L402,92 C400.895431,92 400,91.1045695 400,90 C400,88.8954305 400.895431,88 402,88 L420.535129,88 Z M420.535129,68 L420.535129,68 C421.226748,66.8043973 422.519435,66 424,66 C425.480565,66 426.773252,66.8043973 427.464871,68 L430,68 C431.104569,68 432,68.8954305 432,70 C432,71.1045695 431.104569,72 430,72 L427.464871,72 C426.773252,73.1956027 425.480565,74 424,74 C422.519435,74 421.226748,73.1956027 420.535129,72 L402,72 C400.895431,72 400,71.1045695 400,70 C400,68.8954305 400.895431,68 402,68 L420.535129,68 Z M455,83 C453.343146,83 452,81.6568542 452,80 C452,78.3431458 453.343146,77 455,77 C456.656854,77 458,78.3431458 458,80 C458,81.6568542 456.656854,83 455,83 Z M464,83 C462.343146,83 461,81.6568542 461,80 C461,78.3431458 462.343146,77 464,77 C465.656854,77 467,78.3431458 467,80 C467,81.6568542 465.656854,83 464,83 Z M473,83 C471.343146,83 470,81.6568542 470,80 C470,78.3431458 471.343146,77 473,77 C474.656854,77 476,78.3431458 476,80 C476,81.6568542 474.656854,83 473,83 Z M496,73.9943041 C496,70.6837413 498.686978,68 502.000176,68 L521.999824,68 C525.31363,68 528,70.6832456 528,73.9943041 L528,86.0056959 C528,89.3162587 525.313022,92 521.999824,92 L502.000176,92 C498.68637,92 496,89.3167544 496,86.0056959 L496,73.9943041 Z M527.385292,71.3481017 L527.385292,71.3481017 C524.226515,76.535765 518.517815,80 512,80 C505.482266,80 499.773628,76.5358515 496.614826,71.3482959 C496.221163,72.1463238 496,73.0445173 496,73.9943041 L496,77.0997524 C500.011078,81.3484421 505.695887,84 512,84 C518.304113,84 523.988922,81.3484421 528,77.0997524 L528,73.9943041 C528,73.0443841 527.778891,72.146138 527.385292,71.3481017 Z M619.995742,76 C622.207233,76 624,77.7953562 624,80 C624,82.209139 622.210972,84 619.995742,84 L619.650631,84 C618.549499,84 618.291543,84.6346892 619.066668,85.4098133 L619.310698,85.6538436 C620.874458,87.2176035 620.872627,89.7547899 619.313708,91.3137085 C617.751611,92.8758057 615.220248,92.8771021 613.653844,91.3106978 L613.409813,91.0666675 C612.631195,90.2880492 612,90.5544404 612,91.6506313 L612,91.9957423 C612,94.2072328 610.204644,96 608,96 C605.790861,96 604,94.2109725 604,91.9957423 L604,91.6506313 C604,90.5494986 603.365311,90.2915435 602.590187,91.0666675 L602.346156,91.3106978 C600.782396,92.8744578 598.24521,92.8726271 596.686292,91.3137085 C595.124194,89.7516113 595.122898,87.2202479 596.689302,85.6538436 L596.933332,85.4098133 C597.711951,84.6311949 597.44556,84 596.349369,84 L596.004258,84 C593.792767,84 592,82.2046438 592,80 C592,77.790861 593.789028,76 596.004258,76 L596.349369,76 C597.450501,76 597.708457,75.3653108 596.933332,74.5901867 L596.689302,74.3461564 C595.125542,72.7823965 595.127373,70.2452101 596.686292,68.6862915 C598.248389,67.1241943 600.779752,67.1228979 602.346156,68.6893022 L602.590187,68.9333325 C603.368805,69.7119508 604,69.4455596 604,68.3493687 L604,68.0042577 C604,65.7927672 605.795356,64 608,64 C610.209139,64 612,65.7890275 612,68.0042577 L612,68.3493687 C612,69.4505014 612.634689,69.7084565 613.409813,68.9333325 L613.653844,68.6893022 C615.217604,67.1255422 617.75479,67.1273729 619.313708,68.6862915 C620.875806,70.2483887 620.877102,72.7797521 619.310698,74.3461564 L619.066668,74.5901867 C618.288049,75.3688051 618.55444,76 619.650631,76 L619.995742,76 Z M608,88 C612.418278,88 616,84.418278 616,80 C616,75.581722 612.418278,72 608,72 C603.581722,72 600,75.581722 600,80 C600,84.418278 603.581722,88 608,88 Z M608,84 C605.790861,84 604,82.209139 604,80 C604,77.790861 605.790861,76 608,76 C610.209139,76 612,77.790861 612,80 C612,82.209139 610.209139,84 608,84 Z M644,72 C644,70.8954305 644.897026,70 646.004947,70 L665.995053,70 C667.102355,70 668,70.8877296 668,72 C668,73.1045695 667.102974,74 665.995053,74 L646.004947,74 C644.897645,74 644,73.1122704 644,72 Z M644,80 C644,78.8954305 644.897026,78 646.004947,78 L665.995053,78 C667.102355,78 668,78.8877296 668,80 C668,81.1045695 667.102974,82 665.995053,82 L646.004947,82 C644.897645,82 644,81.1122704 644,80 Z M644,88 C644,86.8954305 644.897026,86 646.004947,86 L665.995053,86 C667.102355,86 668,86.8877296 668,88 C668,89.1045695 667.102974,90 665.995053,90 L646.004947,90 C644.897645,90 644,89.1122704 644,88 Z M688,76.0066619 C688,69.3755656 693.374118,64 700.006662,64 L707.993338,64 C714.624434,64 720,69.3741185 720,76.0066619 L720,83.9933381 C720,90.6244344 714.625882,96 707.993338,96 L700.006662,96 C693.375566,96 688,90.6258815 688,83.9933381 L688,76.0066619 Z M702,80 L702,88 C702,89.1045695 702.895431,90 704,90 C705.104569,90 706,89.1045695 706,88 L706,80 C706,78.8954305 705.104569,78 704,78 C702.895431,78 702,78.8954305 702,80 Z M704,76 C705.656854,76 707,74.6568542 707,73 C707,71.3431458 705.656854,70 704,70 C702.343146,70 701,71.3431458 701,73 C701,74.6568542 702.343146,76 704,76 Z M748,74 C748,68.4771525 752.477153,64 758,64 C763.522847,64 768,68.4771525 768,74 C768,79.5228475 763.522847,84 758,84 C756.895431,84 756,83.1045695 756,82 C756,80.8954305 756.895431,80 758,80 C761.313708,80 764,77.3137085 764,74 C764,70.6862915 761.313708,68 758,68 C754.686292,68 752,70.6862915 752,74 C752,75.1045695 751.104569,76 750,76 C748.895431,76 748,75.1045695 748,74 Z M756,86 C756,91.5228475 751.522847,96 746,96 C740.477153,96 736,91.5228475 736,86 C736,80.4771525 740.477153,76 746,76 C747.104569,76 748,76.8954305 748,78 C748,79.1045695 747.104569,80 746,80 C742.686292,80 740,82.6862915 740,86 C740,89.3137085 742.686292,92 746,92 C749.313708,92 752,89.3137085 752,86 C752,84.8954305 752.895431,84 754,84 C755.104569,84 756,84.8954305 756,86 Z M747.414214,87.4142136 C746.633165,88.1952621 745.366835,88.1952621 744.585786,87.4142136 C743.804738,86.633165 743.804738,85.366835 744.585786,84.5857864 L756.585786,72.5857864 C757.366835,71.8047379 758.633165,71.8047379 759.414214,72.5857864 C760.195262,73.366835 760.195262,74.633165 759.414214,75.4142136 L747.414214,87.4142136 Z M22,120 L22,126 L34,126 C35.1045695,126 36,126.895431 36,128 C36,129.104569 35.1045695,130 34,130 L22,130 L22,136 L34,136 C35.1045695,136 36,136.895431 36,138 C36,139.104569 35.1045695,140 34,140 L20,140 C19.4477153,140 18.9477153,139.776142 18.5857864,139.414214 C18.2238576,139.052285 18,138.552285 18,138 L18,118 C18,117.447715 18.2238576,116.947715 18.5857864,116.585786 C18.9477153,116.223858 19.4477153,116 20,116 L34,116 C35.1045695,116 36,116.895431 36,118 C36,119.104569 35.1045695,120 34,120 L22,120 Z M42,122 C39.790861,122 38,120.209139 38,118 C38,115.790861 39.790861,114 42,114 C44.209139,114 46,115.790861 46,118 C46,120.209139 44.209139,122 42,122 Z M42,142 C39.790861,142 38,140.209139 38,138 C38,135.790861 39.790861,134 42,134 C44.209139,134 46,135.790861 46,138 C46,140.209139 44.209139,142 42,142 Z M42,132 C39.790861,132 38,130.209139 38,128 C38,125.790861 39.790861,124 42,124 C44.209139,124 46,125.790861 46,128 C46,130.209139 44.209139,132 42,132 Z M67.9993657,115.488437 L73.2088696,114.092555 C74.6474343,113.707093 76.1261004,114.560801 76.5115627,115.999366 L77.907445,121.20887 C78.2929073,122.647434 77.439199,124.1261 76.0006343,124.511563 L70.7911304,125.907445 C69.3525657,126.292907 67.8738996,125.439199 67.4884373,124.000634 L66.092555,118.79113 C65.7070927,117.352566 66.560801,115.8739 67.9993657,115.488437 Z M67.9993657,131.488437 L73.2088696,130.092555 C74.6474343,129.707093 76.1261004,130.560801 76.5115627,131.999366 L77.907445,137.20887 C78.2929073,138.647434 77.439199,140.1261 76.0006343,140.511563 L70.7911304,141.907445 C69.3525657,142.292907 67.8738996,141.439199 67.4884373,140.000634 L66.092555,134.79113 C65.7070927,133.352566 66.560801,131.8739 67.9993657,131.488437 Z M83.9993657,115.488437 L89.2088696,114.092555 C90.6474343,113.707093 92.1261004,114.560801 92.5115627,115.999366 L93.907445,121.20887 C94.2929073,122.647434 93.439199,124.1261 92.0006343,124.511563 L86.7911304,125.907445 C85.3525657,126.292907 83.8738996,125.439199 83.4884373,124.000634 L82.092555,118.79113 C81.7070927,117.352566 82.560801,115.8739 83.9993657,115.488437 Z M83.9993657,131.488437 L89.2088696,130.092555 C90.6474343,129.707093 92.1261004,130.560801 92.5115627,131.999366 L93.907445,137.20887 C94.2929073,138.647434 93.439199,140.1261 92.0006343,140.511563 L86.7911304,141.907445 C85.3525657,142.292907 83.8738996,141.439199 83.4884373,140.000634 L82.092555,134.79113 C81.7070927,133.352566 82.560801,131.8739 83.9993657,131.488437 Z M138,124 C141.313725,124.000095 144,126.676595 144,130.000659 L144,137.999341 C144,141.313413 141.313022,144 137.999824,144 L118.000176,144 C114.68637,144 112,141.323464 112,137.999341 L112,130.000659 C112,126.686645 114.686883,124.000095 118,124 L118,118.000659 C118,114.686587 120.676536,112 124.000659,112 L131.999341,112 C135.313413,112 138,114.676536 138,118.000659 L138,124 Z M126.5,135.598653 L126.5,136.498324 C126.5,137.328811 127.171573,138 128,138 C128.834203,138 129.5,137.327677 129.5,136.498324 L129.5,135.598653 C130.396702,135.079939 131,134.110424 131,133 C131,131.343146 129.656854,130 128,130 C126.343146,130 125,131.343146 125,133 C125,134.110424 125.603298,135.079939 126.5,135.598653 L126.5,135.598653 Z M134,124 L134,118.000659 C134,116.890184 133.108785,116 131.999341,116 L124.000659,116 C122.890184,116 122,116.891215 122,118.000659 L122,124 L134,124 Z M185,125 C186.656854,125 188,126.343146 188,128 C188,129.656854 186.656854,131 185,131 L167,131 C165.343146,131 164,129.656854 164,128 C164,126.343146 165.343146,125 167,125 L185,125 Z M208.585786,115.414214 C207.804738,114.633165 207.804738,113.366835 208.585786,112.585786 C209.366835,111.804738 210.633165,111.804738 211.414214,112.585786 L239.414214,140.585786 C240.195262,141.366835 240.195262,142.633165 239.414214,143.414214 C238.633165,144.195262 237.366835,144.195262 236.585786,143.414214 L208.585786,115.414214 Z M256.585786,115.414214 C255.804738,114.633165 255.804738,113.366835 256.585786,112.585786 C257.366835,111.804738 258.633165,111.804738 259.414214,112.585786 L287.414214,140.585786 C288.195262,141.366835 288.195262,142.633165 287.414214,143.414214 C286.633165,144.195262 285.366835,144.195262 284.585786,143.414214 L256.585786,115.414214 Z M304.390226,128.268712 C302.765424,122.204866 306.362656,115.97234 312.427824,114.347183 L319.731288,112.390226 C325.795134,110.765424 332.02766,114.362656 333.652817,120.427824 L335.609774,127.731288 C337.234576,133.795134 333.637344,140.02766 327.572176,141.652817 L320.268712,143.609774 C314.204866,145.234576 307.97234,141.637344 306.347183,135.572176 L304.390226,128.268712 Z M315.7575,137.17375 C316.995625,137.725 318.405625,138 319.986875,138 C321.566875,138 322.981875,137.72375 324.229375,137.17375 C325.47625,136.6225 326.52625,135.88625 327.378125,134.965 C328.23,134.043125 328.88,132.9775 329.328125,131.766875 C329.775,130.55625 330,129.3 330,128 C330,126.699375 329.775625,125.44375 329.328125,124.233125 C328.88,123.0225 328.23,121.956875 327.378125,121.035 C326.52625,120.11375 325.47625,119.3775 324.229375,118.82625 C322.981875,118.275 321.568125,118 319.986875,118 C318.405625,118 316.995,118.27625 315.7575,118.82625 C314.51875,119.3775 313.473125,120.11375 312.621875,121.035 C311.77,121.956875 311.12,123.0225 310.671875,124.233125 C310.22375,125.44375 310,126.7 310,128 C310,129.3 310.223125,130.55625 310.671875,131.766875 C311.12,132.9775 311.77,134.043125 312.621875,134.965 C313.47375,135.88625 314.51875,136.6225 315.7575,137.17375 Z M322.115,132.58125 C321.493125,132.860625 320.78875,133 319.999375,133 C319.21,133 318.505,132.860625 317.88375,132.58125 C317.2625,132.3025 316.74,131.93375 316.31625,131.4775 C315.8925,131.02125 315.566875,130.490625 315.34,129.885625 C315.1125,129.28 315,128.651875 315,128 C315,127.348125 315.113125,126.720625 315.340625,126.114375 C315.566875,125.51 315.8925,124.97875 316.315625,124.5225 C316.740625,124.06625 317.263125,123.698125 317.884375,123.41875 C318.50625,123.139375 319.210625,123 320,123 C320.789375,123 321.49375,123.139375 322.114375,123.41875 C322.73625,123.6975 323.259375,124.06625 323.683125,124.5225 C324.1075,124.97875 324.4325,125.509375 324.659375,126.114375 C324.88625,126.72 325,127.348125 325,128 C325,128.651875 324.88625,129.279375 324.65875,129.885625 C324.4325,130.49 324.1075,131.02125 323.68375,131.4775 C323.25875,131.93375 322.73625,132.301875 322.115,132.58125 Z M370.586358,142.521294 C370.459258,142.737805 370.303927,142.939984 370.121802,143.121802 C369.937145,143.301447 369.763648,143.437218 369.572292,143.554975 C369.465843,143.620482 369.356907,143.678544 369.246095,143.729305 C368.855485,143.907211 368.42992,144.000011 368,144.00042 C367.57008,144.000011 367.144515,143.907211 366.753905,143.729305 C366.643093,143.678544 366.534157,143.620482 366.427708,143.554975 C366.223951,143.429586 366.040442,143.283774 365.878198,143.121802 C365.679275,142.91797 365.533836,142.72604 365.413642,142.521294 L358.630823,131.499214 C356.984631,129.445134 356,126.83782 356,124 C356,117.372583 361.371126,112 368,112 C374.627417,112 380,117.371126 380,124 C380,126.837398 379.015496,129.444791 377.369284,131.499041 L370.586358,142.521294 Z M364,124 C364,126.204644 365.790861,128 368,128 C370.204644,128 372,126.209139 372,124 C372,121.795356 370.209139,120 368,120 C365.795356,120 364,121.790861 364,124 Z M419,119 L419,125 L425,125 C426.656854,125 428,126.343146 428,128 C428,129.656854 426.656854,131 425,131 L419,131 L419,137 C419,138.656854 417.656854,140 416,140 C414.343146,140 413,138.656854 413,137 L413,131 L407,131 C405.343146,131 404,129.656854 404,128 C404,126.343146 405.343146,125 407,125 L413,125 L413,119 C413,117.343146 414.343146,116 416,116 C417.656854,116 419,117.343146 419,119 Z M480,114.9961 L480,141.0039 C480,142.66574 478.655354,144 476.996649,144 L469.004883,144.002158 C467.345332,144.002607 466,142.663453 466,141.00019 L466,136.9974 C466,136.446551 465.556647,136 464.990631,136 L463.009369,136 C462.45191,136 462,136.453204 462,136.9974 L462,141.00019 C462,142.65858 460.651595,144.002606 458.995117,144.002158 L451.003351,144 C449.342379,144 448,142.6586 448,141.0039 L448,114.9961 C448,113.33426 449.3414,112 450.9961,112 L477.0039,112 C478.66574,112 480,113.3414 480,114.9961 Z M470,126.990778 L470,131.009222 C470,131.549025 470.443586,132 470.990778,132 L475.009222,132 C475.549025,132 476,131.556414 476,131.009222 L476,126.990778 C476,126.450975 475.556414,126 475.009222,126 L470.990778,126 C470.450975,126 470,126.443586 470,126.990778 Z M461,126.990778 L461,131.009222 C461,131.549025 461.443586,132 461.990778,132 L466.009222,132 C466.549025,132 467,131.556414 467,131.009222 L467,126.990778 C467,126.450975 466.556414,126 466.009222,126 L461.990778,126 C461.450975,126 461,126.443586 461,126.990778 Z M452,126.990778 L452,131.009222 C452,131.549025 452.443586,132 452.990778,132 L457.009222,132 C457.549025,132 458,131.556414 458,131.009222 L458,126.990778 C458,126.450975 457.556414,126 457.009222,126 L452.990778,126 C452.450975,126 452,126.443586 452,126.990778 Z M470,117.990778 L470,122.009222 C470,122.549025 470.443586,123 470.990778,123 L475.009222,123 C475.549025,123 476,122.556414 476,122.009222 L476,117.990778 C476,117.450975 475.556414,117 475.009222,117 L470.990778,117 C470.450975,117 470,117.443586 470,117.990778 Z M452,117.990778 L452,122.009222 C452,122.549025 452.443586,123 452.990778,123 L457.009222,123 C457.549025,123 458,122.556414 458,122.009222 L458,117.990778 C458,117.450975 457.556414,117 457.009222,117 L452.990778,117 C452.450975,117 452,117.443586 452,117.990778 Z M461,117.990778 L461,122.009222 C461,122.549025 461.443586,123 461.990778,123 L466.009222,123 C466.549025,123 467,122.556414 467,122.009222 L467,117.990778 C467,117.450975 466.556414,117 466.009222,117 L461.990778,117 C461.450975,117 461,117.443586 461,117.990778 Z M504,120 C504,115.581722 507.590712,112 512,112 C516.418278,112 520,115.590712 520,120 C520,124.418278 516.409288,128 512,128 C507.581722,128 504,124.409288 504,120 Z M496,135.998185 C496,132.685479 498.686978,130 502.000176,130 L521.999824,130 C525.31363,130 528,132.682776 528,135.998185 L528,141.994141 C528,143.101946 527.110738,144 525.998257,144 L498.001743,144 C496.896211,144 496,143.10294 496,141.994141 L496,135.998185 Z M569.799964,126 C568.873423,121.435519 564.837916,118 560,118 C554.477153,118 550,122.477153 550,128 C550,133.522847 554.477153,138 560,138 C561.104569,138 562,138.895431 562,140 C562,141.104569 561.104569,142 560,142 C552.268014,142 546,135.731986 546,128 C546,120.268014 552.268014,114 560,114 C565.09265,114 569.550206,116.719164 572,120.784827 L572,120 C572,118.895431 572.895431,118 574,118 C575.104569,118 576,118.895431 576,120 L576,128 C576,128.552285 575.776142,129.052285 575.414214,129.414214 C575.052285,129.776142 574.552285,130 574,130 L566,130 C564.895431,130 564,129.104569 564,128 C564,126.895431 564.895431,126 566,126 L569.799964,126 Z M598,120 C598.511845,120 599.023689,120.195262 599.414214,120.585786 L603.414214,124.585786 C604.195262,125.366835 604.195262,126.633165 603.414214,127.414214 C602.633165,128.195262 601.366835,128.195262 600.585786,127.414214 L600.07459,126.903017 C600.02541,127.261649 600,127.627857 600,128 C600,132.418278 603.581722,136 608,136 C609.104569,136 610,136.895431 610,138 C610,139.104569 609.104569,140 608,140 C601.372583,140 596,134.627417 596,128 C596,127.583272 596.021242,127.171506 596.062703,126.765724 L595.414214,127.414214 C594.633165,128.195262 593.366835,128.195262 592.585786,127.414214 C591.804738,126.633165 591.804738,125.366835 592.585786,124.585786 L596.585786,120.585786 C596.976311,120.195262 597.488155,120 598,120 Z M608,116 C614.627417,116 620,121.372583 620,128 C620,128.416728 619.978758,128.828494 619.937297,129.234276 L620.585786,128.585786 C621.366835,127.804738 622.633165,127.804738 623.414214,128.585786 C624.195262,129.366835 624.195262,130.633165 623.414214,131.414214 L619.414214,135.414214 C619.023689,135.804738 618.511845,136 618,136 C617.488155,136 616.976311,135.804738 616.585786,135.414214 L612.585786,131.414214 C611.804738,130.633165 611.804738,129.366835 612.585786,128.585786 C613.366835,127.804738 614.633165,127.804738 615.414214,128.585786 L615.92541,129.096983 C615.97459,128.738351 616,128.372143 616,128 C616,123.581722 612.418278,120 608,120 C606.895431,120 606,119.104569 606,118 C606,116.895431 606.895431,116 608,116 Z M662.338543,130.095902 L671.12132,138.87868 C672.292893,140.050253 672.292893,141.949747 671.12132,143.12132 C669.949747,144.292893 668.050253,144.292893 666.87868,143.12132 L658.095902,134.338543 C656.309362,135.394212 654.225426,136 652,136 C645.372583,136 640,130.627417 640,124 C640,117.372583 645.372583,112 652,112 C658.627417,112 664,117.372583 664,124 C664,126.225426 663.394212,128.309362 662.338543,130.095902 L662.338543,130.095902 Z M652,132 C656.418278,132 660,128.418278 660,124 C660,119.581722 656.418278,116 652,116 C647.581722,116 644,119.581722 644,124 C644,128.418278 647.581722,132 652,132 Z M688,124.006662 C688,117.375566 693.374118,112 700.006662,112 L707.993338,112 C714.624434,112 720,117.374118 720,124.006662 L720,131.993338 C720,138.624434 714.625882,144 707.993338,144 L700.006662,144 C693.375566,144 688,138.625882 688,131.993338 L688,124.006662 Z M704,134 C704.511845,134 705.023689,133.804738 705.414214,133.414214 L713.414214,125.414214 C714.195262,124.633165 714.195262,123.366835 713.414214,122.585786 C712.633165,121.804738 711.366835,121.804738 710.585786,122.585786 L704,129.171573 L697.414214,122.585786 C696.633165,121.804738 695.366835,121.804738 694.585786,122.585786 C693.804738,123.366835 693.804738,124.633165 694.585786,125.414214 L702.585786,133.414214 C702.976311,133.804738 703.488155,134 704,134 Z M736,131.993338 L736,124.006662 C736,117.374118 741.375566,112 748.006662,112 L755.993338,112 C762.625882,112 768,117.375566 768,124.006662 L768,131.993338 C768,138.625882 762.624434,144 755.993338,144 L748.006662,144 C741.374118,144 736,138.624434 736,131.993338 Z M752,122 C751.488155,122 750.976311,122.195262 750.585786,122.585786 L742.585786,130.585786 C741.804738,131.366835 741.804738,132.633165 742.585786,133.414214 C743.366835,134.195262 744.633165,134.195262 745.414214,133.414214 L752,126.828427 L758.585786,133.414214 C759.366835,134.195262 760.633165,134.195262 761.414214,133.414214 C762.195262,132.633165 762.195262,131.366835 761.414214,130.585786 L753.414214,122.585786 C753.023689,122.195262 752.511845,122 752,122 Z M22,168 L22,166.000659 C22,162.686587 24.6765363,160 28.0006595,160 L35.9993405,160 C39.3134132,160 42,162.676536 42,166.000659 L42,172 C45.3137248,172.000095 48,174.676595 48,178.000659 L48,185.999341 C48,189.313413 45.3130221,192 41.9998243,192 L22.0001757,192 C18.6863701,192 16,189.323464 16,185.999341 L16,178.000659 C16,174.686587 18.6869779,172 22.0001757,172 L41.9998243,172 L38,172 L38,166.000659 C38,164.890184 37.1087853,164 35.9993405,164 L28.0006595,164 C26.8901837,164 26,164.891215 26,166.000659 L26,168 C26,169.104569 25.1045695,170 24,170 C22.8954305,170 22,169.104569 22,168 Z M30.5,183.598653 L30.5,183.598653 L30.5,184.498324 C30.5,185.328811 31.1715729,186 32,186 C32.8342028,186 33.5,185.327677 33.5,184.498324 L33.5,183.598653 C34.3967021,183.079939 35,182.110424 35,181 C35,179.343146 33.6568542,178 32,178 C30.3431458,178 29,179.343146 29,181 C29,182.110424 29.6032979,183.079939 30.5,183.598653 Z M76,172 L76,184.000213 C76,186.209352 77.790861,188.000213 80,188.000213 C82.209139,188.000213 84,186.209352 84,184.000213 L84,172 L86,172 C91.5228475,172 96,176.477153 96,182 C96,187.522847 91.5228475,192 86,192 L74,192 C68.4771525,192 64,187.522847 64,182 C64,176.477153 68.4771525,172 74,172 L76,172 Z M78.8522505,160.36182 C78.908797,160.322221 78.967136,160.28576 79.0269906,160.252494 C79.0367207,160.247131 79.0464918,160.241785 79.056312,160.236518 C79.3471208,160.081208 79.6720871,160.000302 80.0002125,160.000001 C80.0069664,160.000007 80.0137189,160.000047 80.0204697,160.000122 C80.2122805,160.001848 80.4049536,160.03118 80.5923021,160.089317 C80.7871517,160.149701 80.9685705,160.238604 81.1323652,160.35128 L87.1096129,164.336112 C88.0286703,164.948817 88.2770181,166.190556 87.6643131,167.109613 C87.0516082,168.02867 85.8098695,168.277018 84.8908122,167.664313 L82.0002125,165.737247 L82.0002125,184.000213 C82.0002125,185.104782 81.104782,186.000213 80.0002125,186.000213 C78.895643,186.000213 78.0002125,185.104782 78.0002125,184.000213 L78.0002125,165.737247 L75.1096129,167.664313 C74.1905556,168.277018 72.9488169,168.02867 72.336112,167.109613 C71.723407,166.190556 71.9717548,164.948817 72.8908122,164.336112 L78.8522505,160.36182 L78.8522505,160.36182 Z M125.245293,162.210068 C126.768065,159.264196 129.236051,159.262425 130.759738,162.210068 L143.399431,186.662124 C144.922203,189.607995 143.472075,191.996096 140.161081,191.996096 L115.84395,191.996096 C112.532686,191.996096 111.081911,189.609766 112.605599,186.662124 L125.245293,162.210068 Z M128.001848,188 C129.658702,188 131.001848,186.656854 131.001848,185 C131.001848,183.343146 129.658702,182 128.001848,182 C126.344994,182 125.001848,183.343146 125.001848,185 C125.001848,186.656854 126.344994,188 128.001848,188 Z M126.001848,170 L126.001848,178 C126.001848,179.104569 126.897278,180 128.001848,180 C129.106417,180 130.001848,179.104569 130.001848,178 L130.001848,170 C130.001848,168.895431 129.106417,168 128.001848,168 C126.897278,168 126.001848,168.895431 126.001848,170 Z" id="icons-grouped"></path>
        </g>
    </g>
</svg>