<svg xmlns="http://www.w3.org/2000/svg" width="24" height="24" viewBox="0 0 16 16"><path fill="#E2EAE8" d="M8 0c2.798 0 5.384 1.523 6.785 4 .69 1.217 1.052 2.597 1.052 4h-2.613c0-1.907-.995-3.667-2.612-4.62C9.82 2.913 8.918 2.667 8 2.667V0z"/><path fill="#C5D6D0" d="M15.837 8c0 2.857-1.493 5.497-3.92 6.927C10.728 15.63 9.376 16 8 16v-2.667c1.868 0 3.592-1.016 4.526-2.666.457-.81.698-1.73.698-2.667h2.613z"/><path fill="#A9C2BA" d="M8 16c-2.798 0-5.384-1.523-6.785-4C.525 10.783.163 9.403.163 8h2.613c0 1.907.995 3.667 2.612 4.62.793.467 1.694.713 2.612.713V16z"/><path fill="#8CADA2" d="M.163 8c0-2.857 1.493-5.497 3.92-6.927C5.272.37 6.624 0 8 0v2.667c-1.868 0-3.592 1.016-4.526 2.666-.457.81-.698 1.73-.698 2.667H.163z"/></svg>