<svg xmlns="http://www.w3.org/2000/svg" width="64" height="64" viewBox="0 0 96 96">
  <defs>
    <linearGradient id="gradient" x1="101.5%" x2=".5%" y1="-.5%" y2="101.5%">
      <stop stop-color="#3023AE" offset="0%"/>
      <stop stop-color="#C86DD7" offset="100%"/>
    </linearGradient>
  </defs>
  <g fill="none" fill-rule="evenodd">
    <path fill="url(#gradient)" d="M0 0h96v96H0z"/>
    <path fill="#FFF" fill-rule="nonzero" d="M64 66.667C64 74.03 69.97 80 77.333 80v5.333c0 1.474-1.193 2.667-2.666 2.667h-16C57.193 88 56 86.807 56 85.333v-16c0-1.473 1.193-2.666 2.667-2.666H64zm24 0c0 5.89-4.775 10.666-10.667 10.666-5.89 0-10.666-4.775-10.666-10.666C66.667 60.775 71.442 56 77.333 56 83.225 56 88 60.775 88 66.667zm-18.667 0c0 4.418 3.582 8 8 8s8-3.582 8-8-3.582-8-8-8-8 3.582-8 8zM9 60h30c.553 0 1 .384 1 .857v22.286c0 .473-.447.857-1 .857H9c-.553 0-1-.384-1-.857V60.857c0-.473.447-.857 1-.857zm1 3v19h28V63H10zm8-55h12c1.105 0 2 .895 2 2v28c0 1.105-.895 2-2 2H18c-1.105 0-2-.895-2-2V10c0-1.105.895-2 2-2zm0 3v24h12V11H18zm6 28c.828 0 1.5-.672 1.5-1.5S24.828 36 24 36s-1.5.672-1.5 1.5.672 1.5 1.5 1.5zM62 8h20c1.105 0 2 .895 2 2v28c0 1.105-.895 2-2 2H62c-1.105 0-2-.895-2-2V10c0-1.105.895-2 2-2zm0 3v24h20V11H62zm10 28c.83 0 1.5-.672 1.5-1.5S72.83 36 72 36s-1.5.672-1.5 1.5.67 1.5 1.5 1.5z"/>
    <path fill="#FFF" fill-opacity=".25" d="M49 47V0h-1v47H0v1h48v48h1V48h47v-1"/>
  </g>
</svg>
