<svg xmlns="http://www.w3.org/2000/svg" width="64" height="64" viewBox="0 0 64 64"><path fill="#FFF" d="M21.714 16h20.572l-1.143-1.143v34.286L42.286 48H21.714l1.143 1.143V14.857L21.714 16"/><path fill="#FFF" d="M1.143 10.286h61.714l-1.143-1.143v45.714l1.143-1.143H1.143l1.143 1.143V9.143l-1.143 1.143"/><path fill="#C6D6D1" d="M42.286 18.286h14.857v27.428H42.286V18.286zm-35.43 0h14.858v27.428H6.857V18.286zM32 28.57c1.894 0 3.43-1.534 3.43-3.427 0-1.894-1.536-3.43-3.43-3.43-1.894 0-3.43 1.536-3.43 3.43 0 1.893 1.536 3.428 3.43 3.428z"/><path fill="#4E5250" d="M20.57 46.857v2.286c0 .63.513 1.143 1.144 1.143h20.572c.63 0 1.143-.512 1.143-1.143v-2.286h13.713c.63 0 1.143-.512 1.143-1.143V18.286c0-.63-.512-1.143-1.143-1.143H43.43v-2.286c0-.63-.513-1.143-1.144-1.143H21.714c-.63 0-1.143.512-1.143 1.143v2.286H6.858c-.63 0-1.143.512-1.143 1.143v27.428c0 .63.512 1.143 1.143 1.143H20.57zM1.144 8C.513 8 0 8.512 0 9.143v45.714C0 55.487.512 56 1.143 56h61.714c.63 0 1.143-.512 1.143-1.143V9.143C64 8.513 63.488 8 62.857 8H1.143zm0 2.286h61.714l-1.143-1.143v45.714l1.143-1.143H1.143l1.143 1.143V9.143l-1.143 1.143zM21.713 16h20.573l-1.143-1.143v34.286L42.286 48H21.714l1.143 1.143V14.857L21.714 16zm20.573 3.43h14.857L56 18.285v27.428l1.143-1.143H42.286l1.143 1.144V18.286l-1.144 1.143zm-35.43 0h14.858l-1.143-1.144v27.428l1.144-1.143H6.857L8 45.715V18.286L6.857 19.43zM32 29.713c2.525 0 4.57-2.046 4.57-4.57 0-2.526-2.045-4.573-4.57-4.573-2.525 0-4.57 2.048-4.57 4.573 0 2.525 2.045 4.57 4.57 4.57zm0-2.285c-1.262 0-2.286-1.025-2.286-2.287 0-1.263 1.024-2.286 2.286-2.286s2.286 1.023 2.286 2.286c0 1.262-1.024 2.286-2.286 2.286zm-3.43 14.856h8V40h-9.14v2.286h1.14zm-2.284-3.43H38.857v-2.285H25.143v2.287h1.143z"/></svg>