<svg xmlns="http://www.w3.org/2000/svg" width="24" height="24" viewBox="0 0 20 20"><path d="M5.114 5.726c.17.168.442.168.61 0 .17-.17.17-.442 0-.61l-1.83-1.834c-.17-.168-.443-.168-.61 0-.17.17-.17.442 0 .61l1.83 1.834zM3.954 10c0-.24-.192-.432-.43-.432H.93C.692 9.568.5 9.76.5 10s.193.432.432.432h2.59c.24 0 .433-.193.433-.432M10 3.955c.238 0 .432-.193.432-.432V.933c0-.24-.194-.433-.432-.433s-.432.193-.432.432v2.59c0 .24.194.433.432.433m4.886 1.77l1.832-1.832c.17-.168.17-.442 0-.61-.17-.17-.442-.17-.61 0l-1.833 1.832c-.17.168-.17.44 0 .61.168.17.442.17.61 0m-9.77 8.55L3.28 16.106c-.17.168-.17.44 0 .61.168.17.442.17.61 0l1.833-1.832c.168-.17.168-.442 0-.61-.168-.17-.442-.17-.61 0m13.953-4.707h-2.59c-.24 0-.434.193-.434.432s.194.432.433.432h2.59c.24 0 .433-.193.433-.432s-.193-.432-.432-.432m-4.182 4.706c-.17-.168-.442-.168-.61 0-.17.17-.17.442 0 .61l1.832 1.833c.168.17.44.17.61 0s.17-.442 0-.61l-1.832-1.833zM10 4.818c-2.86 0-5.182 2.32-5.182 5.182 0 2.862 2.32 5.182 5.182 5.182s5.182-2.32 5.182-5.182c0-2.86-2.32-5.182-5.182-5.182m0 9.5c-2.385 0-4.318-1.934-4.318-4.318 0-2.385 1.933-4.318 4.318-4.318 2.386 0 4.318 1.933 4.318 4.318S12.386 14.318 10 14.318m0 1.727c-.238 0-.432.193-.432.433v2.59c0 .24.194.433.432.433s.432-.192.432-.43v-2.592c0-.24-.194-.433-.432-.433" class="sun"/><path d="M10 .53C4.77.53.53 4.77.53 10s4.24 9.47 9.47 9.47 9.47-4.24 9.47-9.47S15.23.53 10 .53m1.128 17.995c-.37.05-.745.082-1.128.082-4.754 0-8.608-3.854-8.608-8.607S5.246 1.392 10 1.392c.383 0 .758.034 1.128.083 1.976 2.27 3.176 5.28 3.176 8.525s-1.2 6.257-3.176 8.525" class="moon"/></svg>