<?xml version="1.0" encoding="UTF-8" standalone="no"?>
<svg width="360px" height="104px" viewBox="0 0 360 104" version="1.1" xmlns="http://www.w3.org/2000/svg" xmlns:xlink="http://www.w3.org/1999/xlink" xmlns:sketch="http://www.bohemiancoding.com/sketch/ns">
    <!-- Generator: Sketch 3.4.4 (17249) - http://www.bohemiancoding.com/sketch -->
    <title>nokaoi-logo</title>
    <desc>Created with Sketch.</desc>
    <defs></defs>
    <g id="Page-1" stroke="none" stroke-width="1" fill="none" fill-rule="evenodd" sketch:type="MSPage">
        <g id="nokaoi-logo" sketch:type="MSArtboardGroup">
            <rect id="bg" sketch:type="MSShapeGroup" x="0" y="0" width="360" height="104"></rect>
            <g sketch:type="MSLayerGroup" transform="translate(67.000000, 4.000000)" fill="#524C45">
                <path d="M49.2124475,40.7370649 C48.9854245,40.9516256 48.7501624,41.1707014 48.5066602,41.3942929 C47.6554212,42.1759285 46.7584298,42.9023789 45.8156595,43.5736659 C44.8728893,44.2449529 43.9118272,44.8012852 42.9324445,45.2426794 C41.9530618,45.6840736 41.0240352,45.9047674 40.1453367,45.9047674 C39.5229252,45.9047674 38.9874764,45.7760293 38.538974,45.5185494 C38.0904717,45.2610694 37.7151998,44.9208332 37.4131472,44.4978304 C37.1110946,44.0748276 36.8731173,43.5966577 36.6992082,43.0633064 C36.5252992,42.5299551 36.3925811,41.9828184 36.30105,41.42188 C36.2095189,40.8609415 36.1500246,40.309207 36.1225652,39.76666 C36.0951059,39.2241129 36.0813765,38.7321497 36.0813765,38.2907555 C36.0813765,36.92979 36.1683297,35.481487 36.3422388,33.9458031 C36.5161479,32.4101191 36.7312427,30.8468714 36.9875297,29.2560131 C37.2438168,27.6651548 37.5275589,26.0651248 37.8387647,24.4558752 C38.1499704,22.8466255 38.4337125,21.2879756 38.6899996,19.7798787 C38.9462866,18.2717819 39.1613815,16.84187 39.3352905,15.4901003 C39.5091996,14.1383305 39.5961528,12.9107214 39.5961528,11.8072359 C39.5961528,10.8692732 39.4863172,9.91293341 39.2666426,8.93818786 C39.046968,7.96344235 38.6945785,7.07147162 38.2094637,6.26224889 C37.7243489,5.45302621 37.1065233,4.79094485 36.3559684,4.27598494 C35.6054134,3.76102504 34.6992692,3.50354895 33.6375085,3.50354895 C32.7221976,3.50354895 31.7748649,3.64148257 30.7954823,3.91735395 C29.8160996,4.19322532 28.8001197,4.68978635 27.7475121,5.40705191 C26.6949045,6.12431751 25.6148538,7.11284179 24.5073276,8.3726544 C23.3998014,9.63246701 22.2556799,11.2508881 21.0749288,13.2279663 C19.8941777,15.2050445 18.6905619,17.5866984 17.4640452,20.3729992 C16.2375286,23.1593001 14.9927244,26.4283269 13.7295953,30.1801776 L13.2627891,30.0146556 C13.7204445,28.4697759 14.1689401,26.9157238 14.6082894,25.3524527 C15.0476386,23.7891815 15.4412164,22.2581184 15.7890346,20.7592172 C16.1368528,19.2603161 16.4114419,17.8120131 16.6128103,16.4142648 C16.8141787,15.0165165 16.9148614,13.7107449 16.9148614,12.4969108 C16.9148614,11.2830768 16.7958728,10.1796078 16.557892,9.18647087 C16.3199111,8.19333393 15.9263333,7.34274329 15.3771467,6.63467341 C14.8279602,5.92660353 14.1094519,5.37486908 13.2216003,4.97945341 C12.3337487,4.58403779 11.2399685,4.38633294 9.94022701,4.38633294 C9.07983473,4.38633294 8.20114941,4.58863558 7.30414471,4.99324692 C6.40714,5.39785831 5.52387821,6.04614631 4.65433281,6.9381304 C3.78478743,7.83011454 2.96101994,8.99795247 2.18300565,10.4416793 C1.40499136,11.8854062 0.713941976,13.6463588 0.109836762,15.7245898 C0.036611888,15.7981555 0,15.8901112 0,16.0004598 C0,16.2027655 0.073223776,16.428057 0.219673525,16.6763413 C0.366123274,16.9246255 0.549182715,17.1591127 0.768857336,17.3798097 C0.988531962,17.6005069 1.22650923,17.7890161 1.48279629,17.9453432 C1.73908336,18.1016704 1.9862136,18.1798328 2.22419444,18.1798328 C2.51709394,18.1798328 2.78253013,18.1200615 3.02051096,18.0005173 C3.25849181,17.880973 3.43239828,17.6832681 3.54223559,17.4073968 C4.01819727,16.4510427 4.54449316,15.5590719 5.12113906,14.7314578 C5.69778494,13.9038437 6.26526918,13.1819911 6.82360885,12.5658784 C7.38194852,11.9497656 7.92197388,11.4669979 8.44370113,11.1175608 C8.96542833,10.7681238 9.40934748,10.5934079 9.77547186,10.5934079 C10.0500651,10.5934079 10.256007,10.676168 10.3933036,10.8416909 C10.5306003,11.0072137 10.6267065,11.2049185 10.6816251,11.4348113 C10.7365438,11.6647041 10.7640027,11.9083869 10.7640027,12.1658668 L10.7640027,12.8003678 C10.6358592,14.6395104 10.4894116,16.3682784 10.3246557,17.9867238 C10.1598997,19.6051692 9.96768729,21.1822102 9.74801266,22.7178942 C9.52833802,24.2535782 9.28578428,25.7800436 9.02034409,27.2973361 C8.75490395,28.8146287 8.45743238,30.3824742 8.12792042,32.0009196 C7.79840847,33.619365 7.43686607,35.3205463 7.0432824,37.1045145 C6.64969868,38.8884827 6.22408551,40.8287489 5.76643002,42.9253714 C5.61998028,43.5690713 5.51014461,44.2035659 5.43691972,44.8288744 C5.36369487,45.4541828 5.32708296,46.1530465 5.32708296,46.9254864 C5.32708296,47.6611435 5.42776565,48.3186268 5.62913407,48.8979567 C5.83050249,49.4772866 6.10509162,49.9646522 6.45290979,50.3600678 C6.80072795,50.7554833 7.19888221,51.0543398 7.64738456,51.2566452 C8.09588692,51.4589511 8.55811205,51.5601021 9.03407369,51.5601021 C9.85785355,51.5601021 10.6038208,51.3532019 11.2719977,50.9393948 C11.9401747,50.5255878 12.5305414,49.8221261 13.0431155,48.8289892 C13.6472208,46.9898468 14.2970817,45.0311895 14.9927181,42.9529584 C15.6883544,40.8747274 16.4068627,38.764343 17.1482645,36.621742 C17.8896664,34.479141 18.658516,32.3457677 19.4548366,30.2215581 C20.251157,28.0973485 21.0566186,26.0743221 21.8712453,24.1524182 C22.685872,22.2305143 23.5050631,20.4373772 24.3288429,18.7729532 C25.1526227,17.1085293 25.9718137,15.6694218 26.7864404,14.4555878 C27.6010672,13.2417537 28.3973757,12.2900118 29.17539,11.6003334 C29.9534043,10.9106549 30.7085245,10.5658208 31.4407732,10.5658208 C31.8801225,10.5658208 32.2279354,10.7221456 32.4842225,11.0347999 C32.7405096,11.3474541 32.9281455,11.7152771 33.0471359,12.1382799 C33.1661263,12.5612826 33.2439266,13.0026702 33.280539,13.4624558 C33.3171514,13.9222415 33.3354574,14.2900644 33.3354574,14.5659358 C33.3354574,15.614247 33.2210452,16.7039226 32.9922175,17.8349952 C32.7633898,18.9660679 32.4842241,20.1339059 32.1547122,21.3385442 C31.8252003,22.5431825 31.4590814,23.7799873 31.0563446,25.0489957 C30.6536078,26.318004 30.2874889,27.6191778 29.9579769,28.9525561 C29.628465,30.2859344 29.3492994,31.6422817 29.1204716,33.0216385 C28.8916439,34.4009954 28.7772318,35.8079184 28.7772318,37.2424495 C28.7772318,38.3275436 28.8367261,39.4494037 28.9557165,40.6080634 C29.0747069,41.7667232 29.2760723,42.9069745 29.5598187,44.0288514 C29.8435651,45.1507283 30.2234134,46.2128172 30.6993751,47.2151496 C31.1753368,48.2174824 31.7657035,49.0956598 32.4704929,49.8497082 C33.1752823,50.6037567 34.0127792,51.2014692 34.9830088,51.6428635 C35.9532384,52.0842574 37.079054,52.3049511 38.3604893,52.3049511 C39.3490251,52.3049511 40.3512755,52.1808108 41.3672706,51.9325266 C42.3832658,51.6842424 43.3946692,51.3394085 44.4015112,50.8980141 C45.4083532,50.4566202 46.3922977,49.9370701 47.3533741,49.3393487 C48.3144508,48.7416273 49.2251713,48.0933393 50.0855638,47.3944654 C50.565936,47.0042715 51.0291854,46.601182 51.4753158,46.1851929 C51.8133445,46.6811531 52.1830226,47.1532118 52.5843501,47.601368 C55.1289144,50.4428428 58.5338198,51.8635595 62.7991689,51.8635595 C67.2841925,51.8635595 70.8080866,50.465832 73.3709572,47.6703355 C75.9338278,44.8748387 77.2152438,41.0310886 77.2152438,36.1389695 C77.2152438,31.357199 75.9384042,27.5640245 73.3846871,24.7593322 C70.8309694,21.9546399 67.3665694,20.5523147 62.9913831,20.5523147 C58.6161972,20.5523147 55.1517972,21.9546399 52.5980795,24.7593322 C50.0443619,27.5640245 48.7675224,31.3755902 48.7675224,36.1941435 C48.7675224,37.8204741 48.9158306,39.3347797 49.2124475,40.7370649 L49.2124475,40.7370649 L49.2124475,40.7370649 L49.2124475,40.7370649 L49.2124475,40.7370649 L49.2124475,40.7370649 Z M62.8815464,47.7806833 C68.6113929,47.7806833 71.4762729,43.9001509 71.4762729,36.1389695 C71.4762729,28.4697453 68.6480047,24.6351907 62.9913831,24.6351907 C57.3530678,24.6351907 54.5339525,28.4881364 54.5339525,36.1941435 C54.5339525,43.918542 57.316456,47.7806833 62.8815464,47.7806833 L62.8815464,47.7806833 L62.8815464,47.7806833 L62.8815464,47.7806833 L62.8815464,47.7806833 L62.8815464,47.7806833 L62.8815464,47.7806833 Z M54.1769831,15.7797638 L54.1769831,11.6968879 L71.8057835,11.6968879 L71.8057835,15.7797638 L54.1769831,15.7797638 L54.1769831,15.7797638 L54.1769831,15.7797638 L54.1769831,15.7797638 L54.1769831,15.7797638 L54.1769831,15.7797638 Z M131.044761,45.0053065 C130.580481,45.2376537 130.114881,45.4501145 129.647958,45.6426909 C128.778413,46.0013237 127.92261,46.2771909 127.080524,46.4703009 C126.238438,46.6634108 125.469588,46.7599644 124.773952,46.7599644 C123.638967,46.7599644 122.613833,46.378348 121.698522,45.6151039 C120.783212,44.8518598 119.890797,43.7254018 119.021251,42.2356964 C118.151706,40.745991 117.263868,38.9022783 116.35771,36.704503 C115.451552,34.5067277 114.449302,31.9733469 113.350928,29.1042846 C115.987024,29.1042846 118.316456,28.9341665 120.339293,28.5939251 C122.36213,28.2536838 124.124077,27.7387316 125.625187,27.0490531 C127.126297,26.3593747 128.384831,25.4995885 129.400825,24.4696687 C130.416821,23.4397488 131.231435,22.2351286 131.844694,20.8557717 C132.457952,19.4764148 132.897295,17.9269605 133.162735,16.2073623 C133.428175,14.487764 133.560893,12.5888779 133.560893,10.5106469 C133.52428,9.92212127 133.510551,9.2830288 133.519704,8.5933504 C133.528857,7.90367195 133.515128,7.34733967 133.478515,6.92433689 C133.460209,6.74042264 133.409868,6.50593548 133.32749,6.22086842 C133.245112,5.93580132 133.080358,5.65533628 132.833224,5.37946494 C132.58609,5.10359355 132.238278,4.8691064 131.789775,4.67599644 C131.341273,4.48288648 130.760059,4.38633294 130.046117,4.38633294 C129.075887,4.47829007 128.348225,4.58863696 127.863111,4.71737694 C127.377996,4.84611689 127.039336,5.05761511 126.847121,5.35187793 C126.654905,5.64614071 126.554223,6.06453939 126.54507,6.6070864 C126.535917,7.14963346 126.53134,7.88068165 126.53134,8.80025289 C126.53134,11.0623982 126.36201,13.0026644 126.023345,14.6211098 C125.68468,16.2395552 125.181266,17.605098 124.513089,18.7177792 C123.844912,19.8304605 123.011992,20.7224312 122.014303,21.3937182 C121.016614,22.0650052 119.867916,22.5799574 118.568175,22.9385902 C117.268433,23.297223 115.817687,23.5317101 114.215893,23.6420587 C112.614099,23.7524072 110.861305,23.8075807 108.957458,23.8075807 C109.048989,22.3362667 109.158825,20.8098013 109.286968,19.2281387 C109.396806,17.8855647 109.520371,16.3912839 109.657667,14.7452513 C109.794964,13.0992188 109.955141,11.4761999 110.138203,9.87614588 C110.193122,9.34279454 110.225157,8.77726668 110.234311,8.17954541 C110.243464,7.58182409 110.24804,6.90594936 110.24804,6.15190089 C110.24804,5.85763812 110.202275,5.55418414 110.110744,5.24152993 C110.019213,4.92887572 109.845306,4.64381289 109.589019,4.38633294 C109.332732,4.12885299 108.980343,3.91735478 108.53184,3.75183195 C108.083338,3.58630912 107.502125,3.50354895 106.788182,3.50354895 C105.561665,3.50354895 104.129225,3.57251576 102.490819,3.71045145 C100.852412,3.84838714 99.154536,4.11965659 97.3971388,4.52426794 C95.6397421,4.92887929 93.8869478,5.50820047 92.138704,6.26224889 C90.3904598,7.01629736 88.7932664,8.00941939 87.3470753,9.24164489 C85.9008838,10.4738704 84.6789619,11.9865424 83.6812729,13.7797063 C82.6835845,15.5728703 82.0382998,17.7108414 81.7454,20.1936837 C81.7270941,20.2120752 81.7179412,20.2396619 81.7179412,20.2764447 L81.7179412,20.5247277 C81.7179412,20.708642 81.7637059,20.9385313 81.8552372,21.2144027 C81.946768,21.4902741 82.1435572,21.752348 82.4456094,22.0006322 C82.7476621,22.2489164 83.1961576,22.4650124 83.7911101,22.6489267 C84.3860621,22.8328409 85.1961002,22.9247967 86.2212485,22.9247967 C87.0084155,22.9247967 87.6262414,22.8374387 88.0747435,22.6627202 C88.5232461,22.4880016 88.8619059,22.285699 89.0907336,22.0558062 C89.3195614,21.8259134 89.4660089,21.6006218 89.5300809,21.3799247 C89.5941525,21.1592276 89.6261878,21.0029028 89.6261878,20.9109457 C89.6261878,20.0097659 89.7406,19.0580239 89.9694278,18.0556912 C90.1982555,17.0533586 90.5552216,16.0740299 91.0403365,15.1176758 C91.5254508,14.1613217 92.1387002,13.246362 92.8801021,12.3727693 C93.621504,11.4991767 94.5047656,10.7313462 95.5299139,10.0692549 C96.5550621,9.40716358 97.7174894,8.88301581 99.0172311,8.49679591 C100.316973,8.11057595 101.772295,7.91746889 103.383242,7.91746889 L103.053732,10.2071899 C102.760832,13.0762522 102.39929,15.9682604 101.969094,18.8833012 C101.538898,21.7983421 101.021755,24.612188 100.41765,27.3249232 C99.8135445,30.0376583 99.1041892,32.5756369 98.2895624,34.938935 C97.474936,37.3022331 96.5367562,39.357444 95.4749958,41.1046295 C94.4132348,42.8518148 93.2141953,44.231151 91.8778414,45.2426794 C90.5414875,46.2542078 89.0495529,46.7599644 87.4019934,46.7599644 C86.7978885,46.7599644 86.1709096,46.6726064 85.5210391,46.4978879 C84.871168,46.3231693 84.2258838,46.0886822 83.5851661,45.7944194 C83.5302475,45.776028 83.4478706,45.7668324 83.3380334,45.7668324 C83.0817464,45.7668324 82.8254631,45.8357992 82.569176,45.9737349 C82.3128889,46.1116706 82.0749115,46.2771909 81.8552372,46.4703009 C81.6355624,46.6634108 81.4433501,46.8611157 81.2785939,47.0634212 C81.1138381,47.2657271 80.9948494,47.4312475 80.9216245,47.5599873 C80.6836438,47.9829901 80.4456664,48.4013887 80.2076856,48.8151958 C79.9697049,49.2290028 79.8507162,49.684184 79.8507162,50.1807525 C79.8507162,50.695712 80.1619172,51.127904 80.7843285,51.4773412 C81.4067398,51.8267784 82.1618602,52.1118414 83.049712,52.3325384 C83.9375633,52.5532353 84.8665901,52.70956 85.8368198,52.8015172 C86.8070494,52.8934744 87.6491228,52.9394522 88.3630649,52.9394522 C90.4316678,52.9394522 92.3949802,52.5394447 94.2530616,51.7394179 C96.1111426,50.9393906 97.8410546,49.6841948 99.4428485,47.9737925 C101.044643,46.2633898 102.495389,44.0702453 103.79513,41.3942929 C105.094872,38.7183406 106.22984,35.5044873 107.20007,31.7526366 C107.968931,32.635425 108.655404,33.6147536 109.259509,34.690652 C109.863615,35.7665504 110.426522,36.8838127 110.948249,38.0424725 C111.469976,39.2011323 111.97339,40.373568 112.458505,41.5598149 C112.94362,42.7460618 113.45161,43.8909109 113.98249,44.9943964 C114.51337,46.0978819 115.090008,47.132384 115.712419,48.0979336 C116.334831,49.0634838 117.044186,49.9048786 117.840506,50.6221445 C118.636827,51.3394099 119.542971,51.9049379 120.558966,52.3187449 C121.574961,52.732552 122.741965,52.9394522 124.060013,52.9394522 C125.249917,52.9394522 126.416921,52.8199096 127.56106,52.5808212 C128.705199,52.3417327 129.789825,52.0382786 130.814974,51.6704504 C131.840122,51.3026216 132.778302,50.9118099 133.629541,50.4980028 C133.854542,50.3886245 134.071549,50.2811736 134.280562,50.1756508 C134.587671,50.3733562 134.910694,50.545176 135.249633,50.691112 C136.082566,51.0497445 136.938369,51.2290584 137.817067,51.2290584 C138.640847,51.2290584 139.464615,51.0911247 140.288395,50.8152532 C141.112175,50.5393821 141.903906,50.1853525 142.663615,49.7531539 C143.423323,49.3209553 144.123525,48.8381878 144.764243,48.3048362 C145.40496,47.7714852 145.944986,47.2473374 146.384335,46.7323774 C146.970134,48.2220828 147.66576,49.3577365 148.471233,50.1393718 C149.276707,50.9210075 150.283534,51.3118193 151.491744,51.3118193 C152.498586,51.3118193 153.505413,51.0635388 154.512256,50.5669704 C155.519097,50.0704019 156.461854,49.4634941 157.340552,48.7462282 C158.21925,48.0289628 159.010983,47.2749256 159.715772,46.4840944 C160.420561,45.6932631 160.227599,45.8866615 160.227599,45.8866615 C160.886008,45.075782 161.227461,43.5923944 161.009056,42.5775733 L160.481927,40.1282516 C160.264228,39.1167077 159.568129,38.953615 158.928723,39.7712937 C158.928723,39.7712937 158.265016,40.6632325 157.368011,41.6563695 C156.983581,42.0793722 156.576273,42.4885753 156.146077,42.8839909 C155.715881,43.2794065 155.285691,43.6334362 154.855495,43.9460904 C154.425299,44.2587446 153.999686,44.5116229 153.578643,44.7047329 C153.1576,44.8978429 152.754869,44.9943964 152.370439,44.9943964 C151.857864,44.9943964 151.523781,44.7507136 151.368178,44.2633409 C151.212575,43.7759681 151.134775,43.1000934 151.134775,42.2356964 C151.134775,41.224168 151.226304,40.1528836 151.409367,39.021811 C151.592429,37.8907384 151.793794,36.7596826 152.013469,35.62861 C152.233144,34.4975374 152.434509,33.3940684 152.617571,32.3181701 C152.800633,31.2422717 152.892163,30.262943 152.892163,29.3801546 C152.892163,28.8100204 152.841822,28.3594373 152.741137,28.0283916 C152.640453,27.697346 152.498582,27.4398699 152.31552,27.2559556 C152.132458,27.0720414 151.92194,26.9524989 151.683959,26.8973247 C151.445978,26.8421504 151.189695,26.8145636 150.915101,26.8145636 C150.713733,26.8145636 150.507791,26.8191614 150.29727,26.8283571 C150.086748,26.8375528 149.880806,26.8421506 149.679438,26.8421506 C149.441457,26.8421506 149.208056,26.8283573 148.979228,26.8007701 C148.7504,26.773183 148.526153,26.7134118 148.306478,26.6214546 C148.086804,26.5294975 147.903744,26.3823683 147.757295,26.1800626 C147.610845,25.977757 147.459821,25.7708566 147.304218,25.5593552 C147.148615,25.3478538 146.951826,25.1593445 146.713845,24.9938216 C146.475864,24.8282988 146.146357,24.7455387 145.725314,24.7455387 C144.462185,24.7455387 143.221958,25.0168081 142.004594,25.5593552 C140.787231,26.1019022 139.629379,26.8329504 138.531007,27.7525216 C137.432633,28.6720929 136.42123,29.7479751 135.496766,30.9802006 C134.572302,32.2124261 133.771417,33.5227954 133.094087,34.911348 C132.416757,36.2999006 131.885884,37.7206169 131.501454,39.1735395 C131.117023,40.6264621 130.924811,42.0425805 130.924811,43.4219374 C130.924811,43.9755531 130.964794,44.5033418 131.044761,45.0053065 L131.044761,45.0053065 L131.044761,45.0053065 L131.044761,45.0053065 L131.044761,45.0053065 L131.044761,45.0053065 Z M137.954363,42.2356964 C137.954363,42.6954821 137.986399,43.1414674 138.050471,43.5736659 C138.114542,44.0058644 138.228954,44.3920785 138.393711,44.7323199 C138.558466,45.0725613 138.778138,45.3484285 139.052731,45.5599299 C139.327324,45.7714313 139.675137,45.8771804 140.09618,45.8771804 C140.77351,45.8771804 141.38676,45.582922 141.935946,44.9943964 C142.485133,44.4058708 142.961087,43.6978115 143.363824,42.8701974 C143.766561,42.0425833 144.091491,41.1873949 144.338625,40.3046064 C144.585759,39.4218181 144.745936,38.6861721 144.819161,38.0976465 L146.494172,29.9870686 C145.743617,29.9870686 145.011379,30.1755779 144.297436,30.5526021 C143.583494,30.9296263 142.910751,31.4399807 142.279186,32.0836806 C141.647621,32.7273804 141.066408,33.4630264 140.535528,34.2906405 C140.004647,35.1182547 139.546999,35.9872365 139.162568,36.897612 C138.778137,37.8079875 138.480665,38.7229472 138.270144,39.6425184 C138.059623,40.5620897 137.954363,41.4264737 137.954363,42.2356964 L137.954363,42.2356964 L137.954363,42.2356964 L137.954363,42.2356964 L137.954363,42.2356964 L137.954363,42.2356964 L137.954363,42.2356964 Z M168.049636,2.70352596 C168.049636,3.03457161 168.035907,3.46676362 168.008448,4.00011495 C167.980988,4.53346627 167.948953,5.11738527 167.91234,5.75188941 C167.875728,6.3863936 167.829963,7.05767054 167.775044,7.76574038 C167.720126,8.47381026 167.665208,9.16807614 167.610289,9.84855887 C167.482146,11.4486128 167.335698,13.1589897 167.170942,14.9797408 C167.170942,15.5314835 167.033648,16.0280446 166.759054,16.4694388 C166.484461,16.910833 166.127495,17.2832537 165.688146,17.5867123 C165.248797,17.8901708 164.754536,18.1200601 164.20535,18.2763872 C163.656163,18.4327144 163.106985,18.5108768 162.557798,18.5108768 C162.100143,18.5108768 161.6608,18.4511055 161.239757,18.3315613 C160.818714,18.212017 160.443442,18.0327033 160.11393,17.7936148 C159.784418,17.5545262 159.523559,17.2464745 159.331343,16.8694503 C159.139128,16.4924261 159.043022,16.0372451 159.043022,15.5038938 C159.043022,15.2831967 159.061328,15.0579051 159.09794,14.8280123 C159.134552,14.5981195 159.189471,14.3544368 159.262696,14.0969568 C159.500676,13.2141684 159.775265,12.2440353 160.086471,11.1865283 C160.397677,10.1290214 160.713454,9.07612814 161.033813,8.02781689 C161.354172,6.97950565 161.665373,5.98178584 161.967425,5.03462744 C162.269478,4.08746904 162.539491,3.28285627 162.777472,2.62076496 C163.088678,1.73797656 163.532597,1.08049298 164.109242,0.648294489 C164.685888,0.216096003 165.267102,0 165.852901,0 C166.4387,0 166.951266,0.225291577 167.390616,0.675881492 C167.829965,1.1264714 168.049636,1.80234614 168.049636,2.70352596 L168.049636,2.70352596 L168.049636,2.70352596 L168.049636,2.70352596 L168.049636,2.70352596 L168.049636,2.70352596 L168.049636,2.70352596 Z M183.108256,56.4705882 C180.38063,56.4705882 177.923057,55.9096584 175.735464,54.7877812 C173.547871,53.6659045 171.685241,52.0980588 170.147519,50.0841976 C168.609796,48.0703369 167.429063,45.6702918 166.605283,42.8839909 C165.781503,40.09769 165.369619,37.0401615 165.369619,33.7113136 C165.369619,31.9457368 165.497761,30.1342086 165.754048,28.2766746 C166.010335,26.4191407 166.399336,24.5662324 166.921064,22.7178942 C167.442791,20.869556 168.092652,19.0580278 168.870666,17.2832552 C169.64868,15.5084827 170.554824,13.8302904 171.589126,12.2486278 C172.623427,10.6669653 173.781278,9.20946673 175.062713,7.87608838 C176.344149,6.54271007 177.758283,5.39326325 179.305159,4.42771344 C180.852034,3.46216362 182.517875,2.70812651 184.302731,2.16557947 C186.087588,1.62303243 188.005135,1.35176298 190.055432,1.35176298 C192.801364,1.35176298 195.258937,1.84832401 197.428224,2.84146096 C199.597511,3.83459792 201.428105,5.22312969 202.920063,7.00709788 C204.412019,8.79106612 205.556141,10.9198416 206.352461,13.3934883 C207.148782,15.867135 207.546936,18.5936229 207.546936,21.5730337 C207.546936,24.0374847 207.304382,26.6076478 206.819267,29.2836001 C206.334153,31.9595524 205.624797,34.5894868 204.69118,37.173482 C203.757563,39.7574772 202.595136,42.2172934 201.203863,44.5530044 C199.812591,46.8887154 198.21082,48.9393285 196.398504,50.7049054 C194.586189,52.4704819 192.567959,53.8728071 190.343753,54.9119228 C188.119548,55.9510381 185.707739,56.4705882 183.108256,56.4705882 L183.108256,56.4705882 L183.108256,56.4705882 L183.108256,56.4705882 L183.108256,56.4705882 L183.108256,56.4705882 L183.108256,56.4705882 Z M183.767277,49.7393605 C185.231775,49.7393605 186.595568,49.4542974 187.858696,48.8841633 C189.121825,48.3140292 190.279676,47.5324052 191.332284,46.5392684 C192.384892,45.5461314 193.345953,44.3828912 194.215499,43.0495129 C195.085044,41.7161346 195.858471,40.2862228 196.5358,38.7597345 C197.213131,37.2332462 197.803497,35.6516074 198.306919,34.0147705 C198.810339,32.3779337 199.2268,30.7595126 199.556312,29.1594586 C199.885824,27.5594046 200.128377,26.0191459 200.28398,24.5386362 C200.439583,23.0581264 200.517383,21.7109748 200.517383,20.4971407 C200.517383,18.7315639 200.325171,17.0717627 199.94074,15.5176873 C199.55631,13.9636119 198.975096,12.6118624 198.197082,11.4623984 C197.419067,10.3129343 196.439699,9.40717016 195.258948,8.74507887 C194.078197,8.08298758 192.700675,7.75194692 191.12634,7.75194692 C189.442168,7.75194692 187.812939,8.16114998 186.238604,8.97956838 C184.664269,9.79798678 183.181488,10.9014558 181.790215,12.2900083 C180.398943,13.6785609 179.12668,15.2877865 177.973388,17.1177333 C176.820096,18.94768 175.831575,20.8741529 175.007795,22.8972097 C174.184016,24.9202664 173.543307,26.9800752 173.085652,29.0766976 C172.627996,31.17332 172.399172,33.1779553 172.399172,35.0906635 C172.399172,37.1688945 172.660032,39.104563 173.181759,40.897727 C173.703486,42.6908909 174.45403,44.2403452 175.433413,45.5461364 C176.412795,46.8519276 177.602682,47.8772344 179.003107,48.6220871 C180.403533,49.3669398 181.991574,49.7393605 183.767277,49.7393605 L183.767277,49.7393605 L183.767277,49.7393605 L183.767277,49.7393605 L183.767277,49.7393605 L183.767277,49.7393605 L183.767277,49.7393605 Z M225.882353,43.4175019 C225.882353,44.4559913 225.231006,45.8399787 224.422299,46.4911163 C224.422299,46.4911163 224.404138,46.5530584 223.424755,47.2427369 C222.445373,47.9324155 221.388204,48.5669101 220.253219,49.14624 C219.118233,49.7255699 217.960383,50.2083374 216.779631,50.5945572 C215.59888,50.9807774 214.477641,51.1738842 213.41588,51.1738842 C212.463957,51.1738842 211.663072,51.0405487 211.013201,50.7738729 C210.36333,50.5071972 209.837034,50.1347765 209.434298,49.6565995 C209.031561,49.1784221 208.743242,48.5945031 208.569333,47.9048249 C208.395424,47.2151464 208.308471,46.4565115 208.308471,45.6288974 C208.308471,44.4702376 208.441189,43.1230859 208.706629,41.5874019 C208.972069,40.0517179 209.297,38.4608835 209.681431,36.814851 C210.065861,35.1688184 210.473168,33.5274084 210.903364,31.8905716 C211.33356,30.2537347 211.713409,28.7456605 212.042921,27.3663036 C212.171064,26.8881266 212.427348,26.4789235 212.811778,26.1386822 C213.196209,25.7984408 213.630975,25.5225736 214.11609,25.3110721 C214.601205,25.0995708 215.104618,24.943246 215.626345,24.8420932 C216.148072,24.7409403 216.61945,24.6903647 217.040494,24.6903647 C217.809355,24.6903647 218.331074,24.8328961 218.605667,25.1179632 C218.880261,25.4030303 219.017555,25.7846466 219.017555,26.2628236 C219.017555,26.667435 218.926025,27.251354 218.742963,28.0145981 C218.559901,28.7778423 218.331077,29.6422263 218.056484,30.6077761 C217.78189,31.5733259 217.488995,32.6124258 217.17779,33.7251071 C216.866584,34.8377882 216.573688,35.9504528 216.299096,37.063134 C216.024502,38.1758152 215.795678,39.260893 215.612616,40.3184 C215.429553,41.3759069 215.338024,42.3276488 215.338024,43.1736544 C215.338024,44.0012686 215.429553,44.6587521 215.612616,45.1461249 C215.795678,45.6334976 216.17095,45.8771804 216.738442,45.8771804 C217.397466,45.8771804 218.129704,45.647291 218.935178,45.1875054 C219.740651,44.7277198 220.555266,44.1713875 221.379046,43.5184919 C222.202825,42.8655963 223.008287,42.1897216 223.795455,41.4908474 C224.582622,40.7919733 224.448169,40.920537 224.448169,40.920537 C225.240247,40.2451786 225.882353,40.5360931 225.882353,41.578044 L225.882353,43.4175019 L225.882353,43.4175019 L225.882353,43.4175019 L225.882353,43.4175019 L225.882353,43.4175019 L225.882353,43.4175019 Z M213.608095,16.9384178 C213.608095,16.515415 213.699624,16.0372451 213.882687,15.5038938 C214.065749,14.9705424 214.36322,14.4693837 214.77511,14.0004023 C215.187,13.531421 215.736178,13.1360112 216.422662,12.8141613 C217.109145,12.4923114 217.964948,12.3313888 218.990096,12.3313888 C219.630814,12.3313888 220.23491,12.4049534 220.802403,12.5520848 C221.369896,12.6992162 221.864156,12.9245078 222.285199,13.2279663 C222.706242,13.5314248 223.040326,13.9314323 223.287459,14.4280008 C223.534593,14.9245693 223.658159,15.5130861 223.658159,16.1935688 C223.658159,16.8188772 223.557476,17.4257852 223.356107,18.0143108 C223.154739,18.6028364 222.834385,19.1269841 222.395036,19.5867697 C221.955687,20.0465553 221.401932,20.4189761 220.733755,20.7040432 C220.065578,20.9891103 219.264693,21.1316417 218.331075,21.1316417 C216.720128,21.1316417 215.530242,20.7500254 214.761381,19.9867812 C213.99252,19.2235371 213.608095,18.2074261 213.608095,16.9384178 L213.608095,16.9384178 L213.608095,16.9384178 L213.608095,16.9384178 L213.608095,16.9384178 L213.608095,16.9384178 L213.608095,16.9384178 Z" id="NōKa‘Oi" sketch:type="MSShapeGroup"></path>
                <path d="M53.1231529,62.3853407 L49.0695078,62.3853407 L45.2835566,83.7625812 C44.8246534,86.5160005 45.8189437,88.1221619 48.6870885,88.1221619 C49.4519275,88.1221619 50.2932499,87.9691939 50.9816047,87.7397426 L51.5934758,84.7568715 C51.1345722,84.8715972 50.7903948,84.9098395 50.4844593,84.9098395 C49.3372014,84.9098395 49.2989595,84.1067586 49.4519275,83.2654362 L53.1231529,62.3853407 L53.1231529,62.3853407 Z M63.3210019,70.2631788 L59.2673567,70.2631788 L56.8963572,83.7625812 C56.4374536,86.5160005 57.431744,88.1221619 60.2998889,88.1221619 C61.0647275,88.1221619 61.9060504,87.9691939 62.5944052,87.7397426 L63.2062762,84.7568715 C62.7473727,84.8715972 62.4031953,84.9098395 62.0972598,84.9098395 C60.9500019,84.9098395 60.91176,84.1067586 61.0647275,83.2654362 L63.3210019,70.2631788 L63.3210019,70.2631788 Z M59.5732922,64.6798565 C59.5732922,66.1712918 60.7205501,67.203824 62.1355016,67.203824 C63.5886955,67.203824 64.7741953,66.1712918 64.7741953,64.6798565 C64.7741953,63.1119374 63.5886955,62.1558889 62.1355016,62.1558889 C60.7205501,62.1558889 59.5732922,63.1119374 59.5732922,64.6798565 L59.5732922,64.6798565 L59.5732922,64.6798565 Z M68.0120122,91.2197581 C67.7443186,92.519984 67.2471736,92.9024033 66.2528833,92.9024033 C65.6027704,92.9024033 65.0291416,92.672952 64.3025449,92.0993228 L63.4612221,95.0821934 C64.3025449,95.6940645 65.4880447,96 66.8647544,96 C69.7711412,96 71.3390607,95.0057096 71.9891732,91.3727261 L75.1632536,73.3990174 L79.63756,73.3990174 L80.1729473,70.2631788 L75.6986409,70.2631788 L76.0810602,68.2363562 C76.4634795,66.2860179 77.3048019,65.4829374 78.9874471,65.4829374 C80.1347049,65.4829374 80.9377859,65.8271148 81.855592,66.4772273 L83.2323016,63.1501793 C81.855592,62.4235826 80.4788824,62.1176471 78.8727214,62.1176471 C75.4691892,62.1176471 72.830496,63.7620504 72.0656574,68.2363562 L71.6832381,70.2631788 L69.0445445,70.2631788 L68.4709153,73.3990174 L71.1478508,73.3990174 L68.0120122,91.2197581 L68.0120122,91.2197581 Z M89.338264,85.2922588 C86.5848447,85.2922588 85.4758287,82.6535652 85.8200061,79.861904 L96.8336828,79.861904 C97.3690696,78.7911299 97.5985214,77.4909045 97.5985214,76.1906786 C97.5985214,72.9018725 95.6099407,69.8425176 90.8296993,69.8425176 C86.2406673,69.8425176 81.7663609,73.7049529 81.7663609,80.8179525 C81.7663609,85.4069845 84.4050546,88.3898551 88.9940866,88.3898551 C93.0477313,88.3898551 95.5334569,87.0896296 96.7571991,83.494888 L92.9712475,82.5770814 C92.4358602,84.4126941 91.4415704,85.2922588 89.338264,85.2922588 L89.338264,85.2922588 L89.338264,85.2922588 Z M86.2789092,77.2614527 C86.8525384,74.9286946 88.2674899,72.9018725 90.6767313,72.9018725 C92.7417958,72.9018725 93.6213605,74.3933078 93.6213605,76.1524367 C93.6213605,76.534856 93.5831186,76.9172753 93.4683925,77.2614527 L86.2789092,77.2614527 L86.2789092,77.2614527 Z M100.645129,83.3036781 C100.798096,86.6689685 103.24558,88.3898551 107.146257,88.3898551 C111.199903,88.3898551 114.068048,86.7836941 114.068048,82.9977426 C114.068048,80.2060814 112.959031,78.7146461 109.746709,77.4909045 C107.146257,76.4966141 106.572628,75.9229849 106.572628,74.8139689 C106.572628,73.4372593 107.643402,72.6724207 109.17308,72.6724207 C110.970451,72.6724207 111.888257,73.6284692 111.888257,75.272872 L115.444757,74.6227591 C115.444757,71.5634047 113.456176,69.8425176 109.479016,69.8425176 C105.769548,69.8425176 102.824919,71.6016466 102.824919,75.3493558 C102.824919,78.0262913 104.278112,79.5559685 107.184499,80.5120169 C109.440774,81.2386136 110.129128,82.0034522 110.129128,83.3801619 C110.129128,85.0628071 108.943628,85.5981944 107.337467,85.5981944 C105.463612,85.5981944 104.163387,84.5274198 104.086903,82.3093878 L100.645129,83.3036781 L100.645129,83.3036781 Z M128.434267,84.0302748 C127.363493,84.6421459 126.445687,84.9098395 125.451396,84.9098395 C124.380622,84.9098395 123.654025,84.2979685 123.959961,82.5770814 L125.604364,73.3990174 L130.193396,73.3990174 L130.728783,70.2631788 L126.139751,70.2631788 L126.866348,66.0183242 L122.736219,66.5537115 L122.086106,70.2631788 L119.60038,70.2631788 L119.026752,73.3990174 L121.512477,73.3990174 L119.906316,82.4623558 C119.179719,86.6307261 120.938848,88.3898551 124.34238,88.3898551 C125.71909,88.3898551 127.325251,88.0456776 128.434267,87.4338071 L128.434267,84.0302748 L128.434267,84.0302748 Z M137.829035,70.2631788 L133.622423,70.2631788 L136.490568,88.9634842 C135.075616,91.6786616 133.851874,92.7876776 132.092745,92.7876776 C131.213181,92.7876776 130.486584,92.4817421 129.874713,92.0993228 L128.842181,95.3116452 C129.530536,95.6940645 130.563068,96 131.901536,96 C134.76968,96 137.064197,95.1204358 139.855858,89.8430489 L150.448873,70.2631788 L146.204019,70.2631788 L141.309051,79.7854202 C139.741132,82.8065332 139.167503,85.2540169 139.167503,85.2540169 L139.014535,85.2540169 C139.014535,85.2540169 139.205745,83.1507106 138.823326,79.8236621 L137.829035,70.2631788 L137.829035,70.2631788 Z M160.226061,62.3853407 L156.172416,62.3853407 L152.386464,83.7625812 C151.927561,86.5160005 152.921852,88.1221619 155.789997,88.1221619 C156.554835,88.1221619 157.396158,87.9691939 158.084512,87.7397426 L158.696384,84.7568715 C158.23748,84.8715972 157.893303,84.9098395 157.587368,84.9098395 C156.44011,84.9098395 156.401868,84.1067586 156.554835,83.2654362 L160.226061,62.3853407 L160.226061,62.3853407 Z M171.150506,85.2922588 C168.397088,85.2922588 167.288071,82.6535652 167.632248,79.861904 L178.645926,79.861904 C179.181312,78.7911299 179.410764,77.4909045 179.410764,76.1906786 C179.410764,72.9018725 177.422184,69.8425176 172.641942,69.8425176 C168.05291,69.8425176 163.578604,73.7049529 163.578604,80.8179525 C163.578604,85.4069845 166.217297,88.3898551 170.806329,88.3898551 C174.859974,88.3898551 177.3457,87.0896296 178.569441,83.494888 L174.78349,82.5770814 C174.248103,84.4126941 173.253813,85.2922588 171.150506,85.2922588 L171.150506,85.2922588 L171.150506,85.2922588 Z M168.091152,77.2614527 C168.664781,74.9286946 170.079732,72.9018725 172.488974,72.9018725 C174.554039,72.9018725 175.433603,74.3933078 175.433603,76.1524367 C175.433603,76.534856 175.395361,76.9172753 175.280635,77.2614527 L168.091152,77.2614527 L168.091152,77.2614527 Z" id="lifestyle" sketch:type="MSShapeGroup"></path>
            </g>
        </g>
    </g>
</svg>