<svg width="240" height="240" viewBox="0 0 240 240" xmlns="http://www.w3.org/2000/svg">
  <g fill="none" fill-rule="evenodd">
    <rect fill="#008BD6" width="240" height="240" />
    <path d="M190,208 L190,152.574586 L156.958042,152.574586 L153.041958,173.966851 C152.552448,176.39779 151.818182,176.640884 149.125874,176.640884 L116.328671,176.640884 L116.328671,136.287293 L168.951049,136.287293 L168.951049,103.469613 L116.328671,103.469613 L116.328671,63.6022099 L143.741259,63.6022099 C146.433566,63.6022099 147.412587,64.3314917 147.902098,66.7624309 L151.328671,85.2375691 L184.615385,86.4530387 L184.615385,32 L50,32 L50,54.8508287 L65.4195804,56.5524862 C68.8461538,56.7955801 69.3356643,57.7679558 69.3356643,61.4143646 L69.3356643,178.828729 C69.3356643,182.475138 68.8461538,183.20442 65.4195804,183.690608 L50,185.392265 L50,208 L190,208 Z" fill="#FFF" />
  </g>
</svg>