<svg width="240" height="240" viewBox="0 0 240 240" xmlns="http://www.w3.org/2000/svg" xmlns:xlink="http://www.w3.org/1999/xlink"><defs><linearGradient x1="84.722%" y1="0%" x2="15.278%" y2="100%" id="a"><stop stop-color="#5EC3E8" offset="0%"/><stop stop-color="#96E8D2" stop-opacity=".5" offset="50.527%"/><stop stop-color="#8C5EE8" offset="100%"/></linearGradient><filter x="-2%" y="-1.7%" width="104.1%" height="103.4%" filterUnits="objectBoundingBox" id="c"><feGaussianBlur stdDeviation="2" in="SourceAlpha" result="shadowBlurInner1"/><feOffset dy="2" in="shadowBlurInner1" result="shadowOffsetInner1"/><feComposite in="shadowOffsetInner1" in2="SourceAlpha" operator="arithmetic" k2="-1" k3="1" result="shadowInnerInner1"/><feColorMatrix values="0 0 0 0 0 0 0 0 0 0 0 0 0 0 0 0 0 0 0.25 0" in="shadowInnerInner1"/></filter><path d="M126.2,117.122847 C126.2,117.885915 126.489731,118.61773 127.005456,119.157301 C128.042366,120.242155 129.701312,120.279564 130.781121,119.269528 L130.894544,119.157301 L146.255456,103.086137 C147.292366,102.001283 148.951312,101.963874 150.031121,102.973911 L150.144544,103.086137 L165.505456,119.157301 C166.021181,119.696872 166.720655,120 167.45,120 C168.921321,120 170.122768,118.791106 170.196422,117.270905 L170.2,117.122847 L170.2,32 L182.666667,32 C188.741799,32 193.666667,36.9248678 193.666667,43 L193.666667,197 C193.666667,203.075132 188.741799,208 182.666667,208 L58,208 C51.9248678,208 47,203.075132 47,197 L47,43 C47,36.9248678 51.9248678,32 58,32 L126.2,32 L126.2,117.122847 Z" id="b"/></defs><g fill="none" fill-rule="evenodd"><rect fill="#FFF" width="240" height="240"/><use fill="url(#a)" xlink:href="#b"/><use fill="#000" filter="url(#c)" xlink:href="#b"/></g></svg>