<?xml version="1.0" encoding="UTF-8" standalone="no"?>
<svg width="360px" height="104px" viewBox="0 0 360 104" version="1.1" xmlns="http://www.w3.org/2000/svg" xmlns:xlink="http://www.w3.org/1999/xlink" xmlns:sketch="http://www.bohemiancoding.com/sketch/ns">
    <!-- Generator: Sketch 3.4.4 (17249) - http://www.bohemiancoding.com/sketch -->
    <title>hc-logo</title>
    <desc>Created with Sketch.</desc>
    <defs></defs>
    <g id="Page-1" stroke="none" stroke-width="1" fill="none" fill-rule="evenodd" sketch:type="MSPage">
        <g id="hc-logo" sketch:type="MSArtboardGroup">
            <rect id="bg" sketch:type="MSShapeGroup" x="0" y="0" width="360" height="104"></rect>
            <g sketch:type="MSLayerGroup" transform="translate(83.000000, 12.000000)" id="logo" fill="#24332B">
                <path d="M73,57.2333333 C71.9333333,57.3333333 71.6666667,56.7 71.7666667,55.1333333 C71.9333333,52.0666667 72.3,42.5666667 72.3,38.1 C72.3,30.9666667 66.6,25.5333333 60.7,25.5333333 C53.0333333,25.5333333 47.2666667,30.1 43.4666667,33.8 C44.0666667,35.0333333 45.5,36.5333333 46.7333333,36.9666667 C49.7,34.3333333 53.8333333,31.8666667 56.8333333,31.8666667 C61.6666667,31.8666667 62.9,36.1 62.7333333,42.7666667 L58.0666667,42.7666667 C46.3,42.6666667 40.5666667,49.4333333 40.5666667,53.9333333 C40.5666667,58.1666667 47,62.4666667 50.7666667,62.4666667 C54,62.4666667 57.6333333,61.2333333 62.5333333,58.1666667 L62.9,58.1666667 C64.2,60.2 65.2666667,61.7 66.3333333,62.4666667 C71.6,62.4666667 75.9333333,61.4 77.2333333,60.9666667 C77.4,59.9 77.3,58.2333333 77.2333333,57.2 L73,57.2333333 L73,57.2333333 Z M62.3666667,54.2333333 C60.1666667,55.9 57.4333333,56.8 55.5,56.8 C53.3,56.8 50.5666667,55.0333333 50.5666667,52.9333333 C50.5666667,49.5 53.4666667,46.5333333 59.3666667,46.5333333 C61.1333333,46.5333333 62.1,46.6333333 62.6333333,46.6333333 C62.7333333,48.8333333 62.7333333,51.7333333 62.7333333,53.5666667 C62.7,53.8 62.5333333,54.0666667 62.3666667,54.2333333 L62.3666667,54.2333333 Z M66.1333333,19.0666667 C66.4,17.9333333 66.4666667,16 66.1333333,14.6666667 C60.9333333,14.7666667 56.2,15.0333333 51,15.2 C50.7333333,16.4333333 50.8333333,18 51.1,18.8 C55.6,18.9 63.7666667,19.0666667 66.1333333,19.0666667 Z M76.6,9.06666667 C76.6,6.76666667 78.1666667,4.23333333 81.1666667,1.86666667 C80.7333333,1.16666667 79.7666667,0.3 78.7,0.0333333333 C74.5666667,2.13333333 70.1,7.5 70.1,13.6666667 C70.1,15.3333333 72.7333333,18.6666667 74.5666667,18.6666667 C78,18.6666667 79.9333333,15.6666667 79.7333333,12.3333333 C78.7333333,11.9666667 76.6,11.0666667 76.6,9.06666667 Z M89.1,18.7333333 C91.6666667,18.7333333 94.7333333,16.1666667 94.8,13.4666667 C94.8,10.5666667 92.7,7.83333333 89.5333333,7.83333333 C86.2,7.83333333 83.5666667,10.4 83.5666667,13.3666667 C83.5666667,16.1666667 86.1,18.7333333 89.1,18.7333333 Z M94.7333333,25.7666667 C94.7333333,25.6 94.7333333,25.5 94.5666667,25.5 C93.8666667,25.5 85.8666667,27.1 79.2,27.4333333 C79.0333333,28.4 78.8333333,30.3333333 78.9333333,31.3 L85.1,31.6666667 L85.1,56.6333333 C85.1,57.0666667 84.9333333,57.4333333 84.4,57.5 L79.8333333,57.9333333 C79.6666667,58.9 79.6666667,60.5666667 79.6666667,61.7 C81.8666667,61.7 86.3333333,61.5333333 89.0666667,61.5333333 L99.5333333,61.5333333 C99.8,60.4 99.8,59.0666667 99.8,57.6666667 L94.1,57.3 C94.0333333,52.9 94.5333333,32.1666667 94.7333333,25.7666667 Z M140.866667,36.8333333 C140.866667,35.3333333 140.333333,33.4 139.033333,31.4666667 C137,28.5666667 133.833333,25.5 130.066667,25.5 C126.733333,25.5 125.5,25.6666667 116.433333,30.8666667 L116,30.7666667 C115.733333,29.6333333 115.4,27.7 115.033333,25.9333333 C115.033333,25.8666667 114.933333,25.7666667 114.866667,25.7666667 C114.333333,25.7666667 106.766667,27.8 101.166667,28.2333333 C101,29.1 100.8,30.9666667 100.8,32 L106.7,32.1666667 L106.866667,56.7 C106.866667,57.1333333 106.7,57.4 106.166667,57.5 L102.133333,57.9333333 C102.033333,59 101.966667,60.7333333 101.966667,61.7 C103.8,61.7 108.2,61.5333333 110.933333,61.5333333 L120.666667,61.5333333 C120.933333,60.5666667 120.933333,58.8 120.933333,57.7666667 L115.933333,57.4 C115.933333,54.3333333 116.366667,39.3 116.733333,35.4333333 C119.8,33.0666667 123.166667,31.8333333 125.533333,31.8333333 C127.3,31.8333333 129.133333,32.3666667 130.266667,34.8333333 C130.966667,36.4 131.133333,38.4333333 131.233333,42.4 C131.333333,45.6666667 131.333333,53.6333333 131.066667,56.8 C131.066667,57.2333333 130.9,57.5 130.466667,57.6 L126.7,58.0333333 C126.533333,59 126.533333,60.8333333 126.533333,61.8 C127.866667,61.8 132.233333,61.5333333 135.133333,61.5333333 L144.533333,61.5333333 C144.8,60.5666667 144.9,58.7333333 144.9,57.6666667 L139.966667,57.4 C140.333333,52.0333333 140.866667,40.9666667 140.866667,36.8333333 Z M178,57.2333333 C176.966667,57.3333333 176.7,56.7 176.766667,55.1333333 C176.933333,52.0666667 177.3,42.5666667 177.3,38.1 C177.3,30.9666667 171.6,25.5333333 165.7,25.5333333 C158.033333,25.5333333 152.266667,30.1 148.466667,33.8 C149.066667,35.0333333 150.466667,36.5333333 151.7,36.9666667 C154.7,34.3333333 158.833333,31.8666667 161.8,31.8666667 C166.633333,31.8666667 167.866667,36.1 167.7,42.7666667 L163.033333,42.7666667 C151.266667,42.6666667 145.533333,49.4333333 145.533333,53.9333333 C145.533333,58.1666667 151.933333,62.4666667 155.733333,62.4666667 C159,62.4666667 162.6,61.2333333 167.5,58.1666667 L167.866667,58.1666667 C169.2,60.2 170.233333,61.7 171.3,62.4666667 C176.566667,62.4666667 180.9,61.4 182.2,60.9666667 C182.366667,59.9 182.3,58.2333333 182.2,57.2 L178,57.2333333 Z M167.366667,54.2333333 C165.166667,55.9 162.433333,56.8 160.5,56.8 C158.3,56.8 155.566667,55.0333333 155.566667,52.9333333 C155.566667,49.5 158.466667,46.5333333 164.366667,46.5333333 C166.133333,46.5333333 167.1,46.6333333 167.633333,46.6333333 C167.733333,48.8333333 167.733333,51.7333333 167.733333,53.5666667 C167.7,53.8 167.533333,54.0666667 167.366667,54.2333333 L167.366667,54.2333333 Z M189.7,52.3 C186.366667,52.3 184.433333,54.8666667 184.433333,57.4 C184.433333,60.0333333 186.8,62.2333333 189.433333,62.2333333 C192.6,62.2333333 194.433333,59.8666667 194.433333,57.4 C194.433333,54.6666667 192.866667,52.3 189.7,52.3 Z M34.9333333,57.7666667 C34.4333333,56.9 34.6666667,55.9 35.6,53.8333333 C40.5,43.5 41.4666667,37.2666667 38.1333333,31.4666667 C34.6,25.3666667 26.5666667,23.2333333 17.5,28.4333333 C16.8666667,28.8 16.2333333,29.2666667 15.5666667,29.7 C15.8333333,19.2 16.2666667,5.73333333 16.3666667,0.266666667 C16.3333333,0.1 16.2666667,0 16.1666667,0 C15.2,0 7.03333333,1.56666667 0.366666667,2.1 C0.166666667,3 0,4.83333333 0,6.06666667 L6.06666667,6.16666667 C6.06666667,17.7666667 5.96666667,44.8333333 5.9,56.8666667 C5.9,57.2333333 5.73333333,57.4 5.3,57.4666667 L1.53333333,57.9 C1.36666667,58.9666667 1.26666667,60.5333333 1.26666667,61.6666667 C3.2,61.5666667 7.6,61.4 9.9,61.4 L20.1666667,61.4 C20.5333333,60.3333333 20.5333333,58.7666667 20.5333333,57.7 L15.1666667,57.3333333 C15.1666667,54.4333333 15.5333333,41.7 15.7333333,36.5 C16.4,35.6666667 17.2,34.8666667 18.1333333,34.3333333 C22.7,31.7 27,33.3666667 29.4,37.4666667 C32.7666667,43.1333333 31.0666667,49 27.0333333,59.9333333 C28.9,62.8333333 33.6666667,65.9333333 35.6666667,66.8333333 C37.2333333,65.7 38.6666667,64.3 39.1666667,62.8666667 C37.6,61.3 35.7666667,59.2 34.9333333,57.7666667 Z M40.7,70.8666667 C37.9,72.5 37.3333333,75.5666667 38.6333333,77.8333333 C39.9666667,80.1 42.8666667,80.5666667 45.1333333,79.2333333 C47.9666667,77.6 48.5666667,74.8333333 47.3666667,72.7666667 C45.9666667,70.3666667 43.3666667,69.3333333 40.7,70.8666667 Z" sketch:type="MSShapeGroup"></path>
            </g>
        </g>
    </g>
</svg>