<?xml version="1.0" encoding="UTF-8"?>
<svg width="784px" height="266px" viewBox="0 0 784 266" version="1.1" xmlns="http://www.w3.org/2000/svg" xmlns:xlink="http://www.w3.org/1999/xlink">
    <!-- Generator: Sketch 46.1 (44463) - http://www.bohemiancoding.com/sketch -->
    <title>yodlerestaurants-logo</title>
    <desc>Created with Sketch.</desc>
    <defs></defs>
    <g id="Page-1" stroke="none" stroke-width="1" fill="none" fill-rule="evenodd">
        <g id="yodlerestaurants-logo" fill-rule="nonzero">
            <g id="Group" transform="translate(32.000000, 32.000000)">
                <path d="M233.256284,173.209328 L239.679368,173.209328 L239.679368,147.482846 C239.679368,146.274783 238.985454,145.58419 237.769328,145.58419 L232.823242,145.58419 L232.823242,137.382925 L244.36506,137.382925 C248.271462,137.382925 250.267352,139.023557 250.267352,142.735494 L250.267352,145.324743 C250.267352,146.96585 250.093754,148.087589 250.093754,148.087589 L250.267352,148.087589 C252.263716,141.786403 257.55747,136.778656 264.327272,136.778656 C265.368854,136.778656 266.323636,136.951779 266.323636,136.951779 L266.323636,147.742292 C266.323636,147.742292 265.195256,147.569644 263.63336,147.569644 C254.694072,147.569644 250.70087,155.339763 250.70087,163.627352 L250.70087,173.209328 L257.03668,173.209328 L257.03668,181.410593 L233.256284,181.410593 L233.256284,173.209328 L233.256284,173.209328 Z M293.402846,136.347036 C306.16079,136.347036 313.103242,145.58419 313.103242,157.238419 C313.103242,158.533755 312.84332,160.951304 312.84332,160.951304 L282.206798,160.951304 C282.902134,169.065771 288.803478,173.209328 295.486008,173.209328 C302.688854,173.209328 308.330276,168.547826 308.330276,168.547826 L312.582924,176.316522 C312.582924,176.316522 305.813596,182.446482 294.704822,182.446482 C280.037312,182.446482 270.924902,171.914466 270.924902,159.396996 C270.924902,145.843636 280.124584,136.347036 293.402846,136.347036 C293.402846,136.347036 280.124584,136.347036 293.402846,136.347036 L293.402846,136.347036 Z M301.734546,154.476522 C301.561422,148.433834 297.828616,144.807747 293.141976,144.807747 C287.501502,144.807747 283.508774,148.692332 282.467668,154.476522 L301.734546,154.476522 L301.734546,154.476522 Z M319.355098,166.734545 L328.72838,166.734545 L328.72838,169.324743 C328.72838,172.346561 332.80743,173.899921 337.407748,173.899921 C341.833518,173.899921 344.95826,172.346561 344.95826,169.411067 C344.95826,165.69913 340.791936,164.749091 334.889644,162.590988 C328.381186,160.345613 320.916996,157.325217 320.916996,148.95083 C320.916996,139.627352 330.290276,136.347036 338.361582,136.347036 C344.784664,136.347036 354.330592,138.850909 354.330592,145.49834 L354.330592,151.108933 L344.870988,151.108933 L344.870988,148.605534 C344.870988,146.361107 342.26751,144.980395 338.361582,144.980395 C334.889644,144.980395 331.939446,146.188933 331.939446,148.95083 C331.939446,152.576917 336.279368,154.044427 341.225454,155.512411 C347.994782,157.670514 355.979762,160.432411 355.979762,169.065771 C355.979762,177.957154 347.47494,182.446482 337.320474,182.446482 C329.24917,182.446482 319.355098,178.993518 319.355098,171.828617 L319.355098,166.734545 L319.355098,166.734545 Z M367.6117,145.58419 L360.841422,145.58419 L360.841422,137.382925 L367.958418,137.382925 L367.958418,125.383399 L378.633676,125.383399 L378.633676,137.382925 L388.701344,137.382925 L388.701344,145.58419 L378.633676,145.58419 L378.633676,164.144348 C378.633676,171.65502 384.361898,172.691383 387.48664,172.691383 C388.701344,172.691383 389.482056,172.605059 389.482056,172.605059 L389.482056,181.583241 C389.482056,181.583241 388.09328,181.841739 386.097392,181.841739 C379.848854,181.841739 367.6117,180.029407 367.6117,165.267036 L367.6117,145.58419 L367.6117,145.58419 Z M419.51336,154.217075 L422.28996,154.217075 L422.28996,152.749565 C422.28996,147.137549 418.7317,145.153043 414.131384,145.153043 C407.535652,145.153043 401.63336,149.382925 401.63336,149.382925 L397.554782,141.786403 C397.554782,141.786403 404.411384,136.347036 415.08664,136.347036 C426.9766,136.347036 433.312412,142.476996 433.312412,153.69913 L433.312412,171.310672 C433.312412,172.605059 434.006324,173.209328 435.221028,173.209328 L439.213754,173.209328 L439.213754,181.410593 L428.798418,181.410593 C424.719368,181.410593 423.15747,179.25249 423.15747,176.748617 L423.15747,176.230672 C423.15747,174.84996 423.41834,173.986719 423.41834,173.986719 L423.243794,173.986719 C423.243794,173.986719 419.51336,182.446482 409.271146,182.446482 C401.720632,182.446482 394.604584,178.043953 394.604584,169.065771 C394.604584,155.598261 412.39589,154.217075 419.51336,154.217075 C419.51336,154.217075 412.39589,154.217075 419.51336,154.217075 L419.51336,154.217075 Z M412.13502,174.245217 C418.12411,174.245217 422.377234,167.857233 422.377234,162.33249 L422.377234,160.864506 L420.553518,160.864506 C416.214072,160.864506 405.713834,161.555099 405.713834,168.20253 C405.713834,171.482372 408.056442,174.245217 412.13502,174.245217 L412.13502,174.245217 Z M449.370592,145.58419 L442.514466,145.58419 L442.514466,137.382925 L460.39257,137.382925 L460.39257,163.8 C460.39257,169.065771 461.781344,172.691383 467.335968,172.691383 C474.973754,172.691383 479.573122,164.921739 479.573122,156.979921 L479.573122,145.58419 L472.803794,145.58419 L472.803794,137.382925 L490.595574,137.382925 L490.595574,171.395573 C490.595574,172.605059 491.289486,173.296126 492.504664,173.296126 L496.756838,173.296126 L496.756838,181.410593 L485.82166,181.410593 C481.916206,181.410593 480.093914,179.597312 480.093914,176.48917 L480.093914,174.84996 C480.093914,173.727273 480.180712,172.777708 480.180712,172.777708 L480.00664,172.777708 C479.48585,174.245217 474.973754,182.446482 463.86498,182.446482 C455.011542,182.446482 449.370592,177.697708 449.370592,165.69913 L449.370592,145.58419 L449.370592,145.58419 Z M503.35494,173.209328 L509.778024,173.209328 L509.778024,147.482846 C509.778024,146.274783 509.082688,145.58419 507.868932,145.58419 L502.921422,145.58419 L502.921422,137.382925 L514.463716,137.382925 C518.369644,137.382925 520.366008,139.023557 520.366008,142.735494 L520.366008,145.324743 C520.366008,146.96585 520.192412,148.087589 520.192412,148.087589 L520.366008,148.087589 C522.362372,141.786403 527.655652,136.778656 534.42498,136.778656 C535.467036,136.778656 536.421818,136.951779 536.421818,136.951779 L536.421818,147.742292 C536.421818,147.742292 535.293438,147.569644 533.731542,147.569644 C524.791778,147.569644 520.799526,155.339763 520.799526,163.627352 L520.799526,173.209328 L527.135336,173.209328 L527.135336,181.410593 L503.35494,181.410593 L503.35494,173.209328 L503.35494,173.209328 Z M565.324744,154.217075 L568.101344,154.217075 L568.101344,152.749565 C568.101344,147.137549 564.543558,145.153043 559.943242,145.153043 C553.34751,145.153043 547.445218,149.382925 547.445218,149.382925 L543.36664,141.786403 C543.36664,141.786403 550.222766,136.347036 560.898024,136.347036 C572.787984,136.347036 579.123794,142.476996 579.123794,153.69913 L579.123794,171.310672 C579.123794,172.605059 579.818182,173.209328 581.032886,173.209328 L585.025138,173.209328 L585.025138,181.410593 L574.61075,181.410593 C570.531226,181.410593 568.969328,179.25249 568.969328,176.748617 L568.969328,176.230672 C568.969328,174.84996 569.230198,173.986719 569.230198,173.986719 L569.055652,173.986719 C569.055652,173.986719 565.324744,182.446482 555.083004,182.446482 C547.53249,182.446482 540.415494,178.043953 540.415494,169.065771 C540.415494,155.598261 558.207748,154.217075 565.324744,154.217075 C565.324744,154.217075 558.207748,154.217075 565.324744,154.217075 L565.324744,154.217075 Z M557.946878,174.245217 C563.936442,174.245217 568.187668,167.857233 568.187668,162.33249 L568.187668,160.864506 L566.36585,160.864506 C562.025928,160.864506 551.524744,161.555099 551.524744,168.20253 C551.524744,171.482372 553.8683,174.245217 557.946878,174.245217 L557.946878,174.245217 Z M591.014704,173.209328 L597.436838,173.209328 L597.436838,147.482846 C597.436838,146.274783 596.742924,145.58419 595.528222,145.58419 L590.581186,145.58419 L590.581186,137.382925 L602.21075,137.382925 C606.11668,137.382925 607.938498,139.196206 607.938498,142.303399 L607.938498,144.289802 C607.938498,145.238893 607.764902,146.188933 607.764902,146.188933 L607.938498,146.188933 C608.459288,144.807747 613.145928,136.347036 624.254704,136.347036 C633.715256,136.347036 639.09581,141.440158 639.09581,153.094862 L639.09581,173.209328 L645.517944,173.209328 L645.517944,181.410593 L628.160632,181.410593 L628.160632,155.339763 C628.160632,149.987194 626.68506,146.361107 621.13091,146.361107 C613.145928,146.361107 608.459288,153.958577 608.459288,161.641897 L608.459288,173.209328 L614.795098,173.209328 L614.795098,181.410593 L591.014704,181.410593 L591.014704,173.209328 L591.014704,173.209328 Z M655.415336,145.58419 L648.64506,145.58419 L648.64506,137.382925 L655.76253,137.382925 L655.76253,125.383399 L666.437786,125.383399 L666.437786,137.382925 L676.50498,137.382925 L676.50498,145.58419 L666.437786,145.58419 L666.437786,164.144348 C666.437786,171.65502 672.165534,172.691383 675.290276,172.691383 C676.50498,172.691383 677.285692,172.605059 677.285692,172.605059 L677.285692,181.583241 C677.285692,181.583241 675.896916,181.841739 673.901028,181.841739 C667.65249,181.841739 655.415336,180.029407 655.415336,165.267036 L655.415336,145.58419 L655.415336,145.58419 Z M683.016758,166.734545 L692.38909,166.734545 L692.38909,169.324743 C692.38909,172.346561 696.467668,173.899921 701.068458,173.899921 C705.49423,173.899921 708.618972,172.346561 708.618972,169.411067 C708.618972,165.69913 704.452648,164.749091 698.551304,162.590988 C692.042846,160.345613 684.577708,157.325217 684.577708,148.95083 C684.577708,139.627352 693.951936,136.347036 702.022292,136.347036 C708.445376,136.347036 717.992252,138.850909 717.992252,145.49834 L717.992252,151.108933 L708.532648,151.108933 L708.532648,148.605534 C708.532648,146.361107 705.928696,144.980395 702.022292,144.980395 C698.551304,144.980395 695.601106,146.188933 695.601106,148.95083 C695.601106,152.576917 699.939604,154.044427 704.887114,155.512411 C711.656442,157.670514 719.640948,160.432411 719.640948,169.065771 C719.640948,177.957154 711.135652,182.446482 700.98166,182.446482 C692.909882,182.446482 683.016758,178.993518 683.016758,171.828617 L683.016758,166.734545 L683.016758,166.734545 Z" id="restaraurants" fill="#0095DB"></path>
                <path d="M221.492016,136.273043 C221.323636,136.378814 221.02008,136.427194 220.56664,136.427194 L219.077786,136.427194 L219.077786,134.630988 L220.628774,134.630988 C221.094546,134.630988 221.4166,134.703557 221.582608,134.837787 C221.767114,134.990514 221.83826,135.216285 221.83826,135.523162 C221.83826,135.875099 221.72585,136.125534 221.492016,136.273043 L221.492016,136.273043 L221.492016,136.273043 Z M222.965218,139.669565 C222.81913,139.455178 222.750356,139.182925 222.750356,138.86087 L222.750356,138.179289 C222.750356,137.740079 222.695336,137.447905 222.601422,137.266245 C222.512252,137.086008 222.322056,136.935178 222.044584,136.800949 C222.352412,136.602688 222.5483,136.420553 222.64174,136.256443 C222.75415,136.030198 222.80917,135.772648 222.80917,135.457233 C222.80917,135.098656 222.732806,134.784664 222.560158,134.519051 C222.39747,134.24585 222.190672,134.058972 221.926482,133.937075 C221.671778,133.822292 221.244902,133.755415 220.646324,133.755415 L218.10166,133.755415 L218.10166,139.831304 L219.077786,139.831304 L219.077786,137.296126 L220.592728,137.296126 C220.977392,137.296126 221.224032,137.313676 221.364902,137.358735 C221.492016,137.412332 221.582608,137.490593 221.658024,137.606324 C221.72585,137.720632 221.767114,137.916047 221.785612,138.182134 L221.833518,138.93581 C221.861976,139.275415 221.909882,139.574704 221.985296,139.831304 L223.056758,139.831304 L222.965218,139.669565 L222.965218,139.669565 L222.965218,139.669565 Z M224.261502,139.11083 C223.854072,139.811383 223.295336,140.367747 222.594782,140.772806 C221.879526,141.184032 221.11826,141.39083 220.319052,141.39083 C219.512728,141.39083 218.747194,141.184032 218.031936,140.775652 C217.327114,140.367747 216.759368,139.818024 216.353834,139.11083 C215.952094,138.412174 215.747668,137.658972 215.747668,136.849328 C215.747668,136.030198 215.952094,135.276522 216.353834,134.559368 C216.759368,133.850277 217.327114,133.291542 218.031936,132.890751 C218.747194,132.481897 219.512728,132.27415 220.319052,132.27415 C221.131542,132.27415 221.879526,132.481897 222.594782,132.890751 C223.288696,133.291542 223.845534,133.850277 224.247748,134.559368 C224.665612,135.276522 224.8634,136.023083 224.8634,136.826087 C224.8634,137.649012 224.665612,138.408854 224.261502,139.11083 L224.261502,139.11083 L224.261502,139.11083 Z M224.884268,134.200791 C224.403794,133.376917 223.76585,132.738024 222.94577,132.271779 C222.138498,131.797945 221.250592,131.567905 220.304822,131.567905 C219.372806,131.567905 218.47494,131.797945 217.65913,132.271779 C216.85091,132.738024 216.198736,133.386877 215.718736,134.206482 C215.24253,135.035573 215.007272,135.914466 215.007272,136.855968 C215.007272,137.781818 215.24253,138.655494 215.718736,139.472253 C216.198736,140.281897 216.85091,140.927431 217.670988,141.39747 C218.481582,141.870356 219.372806,142.105613 220.304822,142.105613 C221.250592,142.105613 222.132806,141.870356 222.950988,141.395099 C223.76917,140.920791 224.42419,140.278577 224.89755,139.466087 C225.371384,138.655494 225.598578,137.774229 225.598578,136.826087 C225.598578,135.897866 225.371384,135.026087 224.884268,134.200791 L224.884268,134.200791 Z M185.312253,155.204585 C185.312253,155.204585 185.454545,143.975336 194.882372,143.975336 C203.72917,143.975336 204.303558,155.204585 204.303558,155.204585 L185.312253,155.204585 L185.312253,155.204585 Z M215.715416,158.305138 C215.73913,145.322846 207.19257,136.55004 195.003794,136.431462 C178.029723,136.264032 172.924743,149.307036 173.053755,160.167273 C173.189881,171.905929 180.866087,182.306087 196.919051,182.446482 C202.75589,182.487747 207.292174,181.994466 212.778972,179.882846 L210.283636,171.56253 C210.283636,171.56253 199.376917,176.426087 190.978814,171.60996 C185.710198,168.583399 185.120158,163.119368 185.120158,163.119368 L215.32838,163.135494 C215.32838,163.135494 215.715416,160.610277 215.715416,158.305138 L215.715416,158.305138 Z M153.264664,116.723478 L165.827194,116.723478 L165.827194,181.535336 L153.264664,181.535336 L153.264664,116.723478 L153.264664,116.723478 Z M130.203794,167.281897 C130.137391,170.099763 130.474625,171.840949 129.05834,172.281107 C125.761897,173.308933 114.42166,175.033992 110.658024,165.106719 C109.418182,161.839209 108.99083,153.903557 113.042846,149.260079 C116.273834,145.540553 119.730593,145.458972 121.017391,145.458972 C122.771383,145.458972 124.79668,145.76585 126.506561,147.120949 C128.267194,148.523004 129.589091,150.438261 130.051067,154.917628 C130.28253,157.116996 130.275889,164.241107 130.203794,167.281897 L130.203794,167.281897 Z M130.11083,116.703557 L130.11083,140.045217 C130.11083,140.045217 124.307194,135.072095 114.205375,136.648221 C101.838261,138.583874 97.1155732,150.1717 97.0202372,158.670356 C96.9011858,170.806957 103.442372,176.652806 109.533913,179.58166 C115.059605,182.246798 120.173123,182.6917 125.530435,182.448854 C134.94166,182.025296 142.588458,178.43668 142.588458,178.43668 L142.588458,116.703557 L130.11083,116.703557 L130.11083,116.703557 Z M69.3035574,174.266087 C62.104506,174.266087 58.8256126,167.500079 58.8256126,159.606166 C58.8256126,151.16253 62.3132016,144.68585 69.2371542,144.68585 C76.206166,144.68585 79.47083,151.214704 79.47083,159.348617 C79.47083,167.515257 76.1388142,174.266087 69.3035574,174.266087 L69.3035574,174.266087 Z M69.4956522,136.487431 C53.1543084,136.487431 45.9713834,146.459763 45.9713834,159.804427 C45.9713834,172.493123 53.8135968,182.470672 68.7713834,182.470672 C84.2490118,182.470672 92.3089328,173.613913 92.3089328,159.015652 C92.3089328,146.726798 84.8011068,136.487431 69.4956522,136.487431 L69.4956522,136.487431 Z M7.25644268,202.030672 L4.6624506,192.025138 C4.6624506,192.025138 8.166166,191.67415 13.5889328,187.450909 C17.9501976,184.053913 17.3710672,179.84585 17.3710672,179.84585 L0.231936758,137.454545 L14.12917,137.490593 L24.4083794,167.587826 L32.6935968,137.454545 L46.0069566,137.454545 C46.0069566,137.454545 42.139921,148.315257 37.4390514,161.312253 C34.2915416,169.956996 31.0358894,179.960158 27.0090118,186.999842 C23.9777076,192.301186 20.772332,195.731858 17.5588933,197.945455 C12.1864032,201.662134 7.25644268,202.030672 7.25644268,202.030672 L7.25644268,202.030672 Z" id="yodle" fill="#00598A"></path>
                <path d="M386.207602,113.805534 C386.211936,113.804607 386.216148,113.803658 386.220238,113.802688 C387.981344,113.386719 391.681898,109.144506 398.23257,94.458498 C404.780396,79.7696442 402.363794,78.5392886 399.974704,74.2425296 C398.45502,71.4991304 398.590198,69.3747036 398.888064,68.192253 C400.332332,64.1103558 402.946246,60.0317786 403.233202,57.7973122 C403.441422,56.1448222 403.142608,54.2191304 402.739446,52.5856126 C402.742766,52.5856126 410.776126,50.2439526 410.948774,48.2096442 C411.03747,47.2131226 405.959052,44.9658498 401.542766,43.2104348 C401.542766,43.2104348 399.802056,37.2773122 398.355416,35.7652174 C397.95415,35.3449802 397.37502,35.0836364 396.771226,34.924743 C395.054704,31.3925692 388.113202,17.3772332 383.773754,13.1449802 C380.665612,10.6079051 373.028774,13.8943874 368.133914,16.1198419 C368.133914,16.1198419 348.735178,6.08490118 342.350988,10.1886166 C340.110356,11.6305138 335.827352,21.529328 335.827352,21.529328 C334.33328,18.6488538 331.47415,15.1560474 325.9883,12.4918577 C314.792728,7.05391304 310.72411,1.55525692 310.004584,0.0839525696 C309.976814,0.0277226868 309.941868,0.000244208866 309.901476,0 L309.900388,4.14840126e-10 C309.579948,0.00193192215 308.9193,1.70870246 308.774704,4.36834022 L308.774704,6.4982344 C309.087628,12.4569176 312.115524,21.2809356 324.035574,27.5454546 C327.088222,29.1486166 329.62245,30.1086166 331.766798,30.6388932 C331.360316,31.6700396 331.12743,32.3022924 331.12743,32.3022924 C330.148458,32.4867984 330.204902,32.3132016 329.60253,32.6082214 C328.998736,32.9037154 326.972016,38.3032412 326.274308,40.4727272 C326.274308,40.4727272 314.88332,49.407747 313.24838,51.0241898 C309.93249,54.3007114 320.787036,58.1705928 326.763794,59.9943084 C325.064822,60.2267194 323.698814,62.0319368 325.104664,68.3426086 C326.83589,76.1397628 336.847588,83.0698814 336.847588,83.0698814 L336.851858,83.0698814 C338.137708,88.8090118 339.968538,95.3966798 341.201264,96.866087 C342.247114,98.1083004 344.659446,99.721423 348.604744,101.789407 C363.513796,110.30222 380.500388,113.479034 385.112658,113.805534 L386.207602,113.805534 L386.207602,113.805534 L386.207602,113.805534 Z M397.050592,86.4540712 L397.041582,86.4540712 C397.020712,86.4540712 396.991778,86.4564426 396.972806,86.4564426 C396.916364,86.4683004 396.865612,86.481581 396.813438,86.5024506 C396.299762,86.6978656 395.855336,86.803162 395.481106,86.8173914 C395.074624,86.8349408 394.774388,86.7391304 394.573754,86.5375494 C394.249328,86.2226086 394.187194,85.6695652 394.187194,85.4381028 C394.191936,85.413913 394.191936,85.3930434 394.191936,85.3712252 C394.197154,85.3598418 394.197154,85.356996 394.197154,85.352253 C394.312412,82.4162846 392.199368,80.0798418 389.281898,79.9176284 C389.113518,79.915257 388.951778,79.9109882 388.78672,79.9166798 C386.98245,79.9854546 385.397312,80.9520948 384.511304,82.4381028 C383.613914,81.346245 382.283952,80.6437944 380.701186,80.473992 C380.501502,80.4531226 380.203636,80.4232412 379.925692,80.4313044 L379.836048,80.4407906 L379.799526,80.4441106 C378.663084,80.4849012 374.76332,81.0203952 372.551146,86.083162 C371.031462,89.5451384 368.702134,90.0697234 366.849486,90.1408696 C365.769486,90.1835574 364.640632,90.0588142 363.556364,89.9302766 L363.305928,89.9084584 C363.271778,89.9003952 363.236206,89.9003952 363.202056,89.9003952 C362.915098,89.9103558 362.658972,90.1100396 362.579288,90.3889328 C362.492964,90.706245 362.648064,91.0463242 362.95162,91.1743874 C363.177392,91.2820554 368.549408,93.6564426 374.500554,93.4283004 C378.313992,93.2812648 381.49091,92.0898024 383.938814,89.8928064 C384.050276,89.7932016 384.170276,89.6812648 384.29834,89.5328064 C384.329644,89.5057708 384.42166,89.4023716 384.42166,89.4023716 C384.66166,89.1116206 384.880316,88.7933596 385.066246,88.4575494 C385.69423,89.1742292 386.514782,89.710672 387.441106,89.9971542 C387.484268,90.017075 387.526008,90.032253 387.570592,90.050751 C388.828932,90.3822924 390.046008,90.529328 391.2,90.4823716 C395.272886,90.3286956 397.327588,87.8803162 397.58751,87.5511462 C397.692806,87.4330434 397.75257,87.2670356 397.7483,87.0981818 C397.72838,86.7305928 397.421502,86.443162 397.050592,86.4540712 C397.050592,86.4540712 397.421502,86.443162 397.050592,86.4540712 L397.050592,86.4540712 L397.050592,86.4540712 Z" id="hans" fill="#00598A"></path>
            </g>
        </g>
    </g>
</svg>