<svg role="img" {% if include.alt %}aria-label="{{ include.alt}}" {% endif %}xmlns="http://www.w3.org/2000/svg" width="968" height="1290" viewBox="0 0 968 1290" xmlns:xlink="http://www.w3.org/1999/xlink">
  {% if include.alt %}<title>{{ include.alt}}</title>{% endif %}
  <defs>
    <rect id="tablet-shadow-shape" width="936" height="1258" x="16" rx="42"/>
    <filter id="tablet-shadow-effect" width="106%" height="104.5%" x="-3%" y="-1.6%" filterUnits="objectBoundingBox">
      <feOffset dy="8" in="SourceAlpha" result="shadowOffsetOuter1"/>
      <feGaussianBlur stdDeviation="8" in="shadowOffsetOuter1" result="shadowBlurOuter1"/>
      <feComposite in="shadowBlurOuter1" in2="SourceAlpha" operator="out" result="shadowBlurOuter1"/>
      <feColorMatrix values="0 0 0 0 0 0 0 0 0 0 0 0 0 0 0 0 0 0 0.25 0" in="shadowBlurOuter1"/>
    </filter>
  </defs>
  <g fill="none" fill-rule="evenodd">
    <g id="tablet-shadow">
      <use fill="#000" filter="url(#tablet-shadow-effect)" xlink:href="#tablet-shadow-shape"/>
      <use fill="#FFF" fill-opacity="0" xlink:href="#tablet-shadow-shape"/>
    </g>
    <g class="color__type--base-5">
    <path fill="currentColor" d="M42.002 0C18.805 0 0 18.806 0 41.99v1174.02C0 1239.2 18.794 1258 42.002 1258h883.996c23.197 0 42.002-18.806 42.002-41.99V41.99C968 18.8 949.206 0 925.998 0H42.002z"/>
    </g>
    <path fill="#FFF" d="M42.993 8C23.667 8 8 23.675 8 43.006v1171.988C8 1234.327 23.668 1250 42.993 1250h882.014c19.326 0 34.993-15.675 34.993-35.006V43.006C960 23.673 944.332 8 925.007 8H42.993z"/>
    <g class="color__type--base">
      <path fill="currentColor" d="M100 115v1024h768V115z"/>
      <image xlink:href="{{ site.baseurl }}/assets/img/projects/{{ include.url }}" x="100" y="115" height="1024" width="768"/>
    </g>
    <g class="color__type--base-12">
      <path fill="currentColor" d="M96 111l776 3.998v1024.004c0 2.2-1.786 3.998-3.99 3.998H99.99c-2.19 0-3.99-1.79-3.99-3.998V114.998 111z"/>
      <path fill="currentColor" d="M484 67c-4.418 0-8-3.358-8-7.5 0-4.142 3.582-7.5 8-7.5s8 3.358 8 7.5c0 4.142-3.582 7.5-8 7.5zm0 1160c-16.57 0-30-13.43-30-30s13.43-30 30-30 30 13.43 30 30-13.43 30-30 30zm0-4c14.36 0 26-11.64 26-26s-11.64-26-26-26-26 11.64-26 26 11.64 26 26 26z"/>
    </g>
  </g>
</svg>