<svg class="device--phone" role="img" {% if include.alt %}aria-label="{{ include.alt}}" {% endif %}xmlns="http://www.w3.org/2000/svg" width="434" height="912" viewBox="0 0 434 912" xmlns:xlink="http://www.w3.org/1999/xlink">
  {% if include.alt %}<title>{{ include.alt}}</title>{% endif %}
  <defs>
    <rect id="phone-shadow-shape" width="402" height="880" x="16" rx="58"/>
    <filter id="phone-shadow-effect" width="113.9%" height="106.4%" x="-7%" y="-2.3%" filterUnits="objectBoundingBox">
      <feOffset dy="8" in="SourceAlpha" result="shadowOffsetOuter1"/>
      <feGaussianBlur stdDeviation="8" in="shadowOffsetOuter1" result="shadowBlurOuter1"/>
      <feComposite in="shadowBlurOuter1" in2="SourceAlpha" operator="out" result="shadowBlurOuter1"/>
      <feColorMatrix values="0 0 0 0 0 0 0 0 0 0 0 0 0 0 0 0 0 0 0.25 0" in="shadowBlurOuter1"/>
    </filter>
  </defs>
  <g fill="none" fill-rule="evenodd">
    <g id="phone-shadow">
      <use fill="#000" filter="url(#phone-shadow-effect)" xlink:href="#phone-shadow-shape"/>
      <use fill="#FFF" fill-opacity="0" xlink:href="#phone-shadow-shape"/>
    </g>
    <g class="color__type--base-5">
      <path fill="currentColor" d="M3 112V65.006C3 29.093 32.103 0 68.004 0h297.992C401.896 0 431 29.104 431 65.006V187c-.553 0-1 .446-1 1v65c0 .553.443 1 1 1v561.994C431 851.907 401.897 881 365.996 881H242.43c-1.156-.49-3.968-.865-7.43-.97V880h-33c-4.354 0-8.058.417-9.43 1H68.003C32.104 881 3 851.896 3 815.994V335c.553 0 1-.45 1-1.004V188.004C4 187.45 3.557 187 3 187v-40H1v-.085c-.583-.206-1-.76-1-1.42v-31.99C0 112.672.68 112 1.5 112H3zM1 253v-.085c-.583-.204-1-.756-1-1.41v-62.01c0-.65.42-1.203 1-1.41V188h3v65H1zm0 81v-.085c-.583-.204-1-.756-1-1.41v-62.01c0-.65.42-1.203 1-1.41V269h3v65H1zm432-146v.086c.58.206 1 .76 1 1.41v62.01c0 .653-.417 1.205-1 1.41V253h-3v-65h3z"/>
    </g>
    <path fill="#FFF" d="M68 7C35.97 7 10 32.977 10 65v751c0 32.032 25.976 58 58 58h298c32.032 0 58-25.977 58-58V65c0-32.032-25.976-58-58-58H68z"/>
    <g class="color__type--base-12">
      <path fill="currentColor" d="M218 858c-18.778 0-34-15.222-34-34s15.222-34 34-34 34 15.222 34 34-15.222 34-34 34zm.5-4c16.845 0 30.5-13.43 30.5-30s-13.655-30-30.5-30-30.5 13.43-30.5 30 13.655 30 30.5 30zM183.992 55h68.016c1.652 0 2.992 1.344 2.992 3 0 1.663-1.336 3-2.992 3h-68.016C182.34 61 181 59.656 181 58c0-1.663 1.336-3 2.992-3zM218 35c-2.21 0-4-1.79-4-4s1.79-4 4-4 4 1.79 4 4-1.79 4-4 4zm-68 30c-3.866 0-7-3.134-7-7s3.134-7 7-7 7 3.134 7 7-3.134 7-7 7z"/>
      <path fill="currentColor" fill-rule="nonzero" d="M29 106v667h375V106H29zm-2 0c0-1.105.895-2 2-2h375c1.105 0 2 .895 2 2v667c0 1.105-.895 2-2 2H29c-1.105 0-2-.895-2-2V106z"/>
    </g>
    <g class="color__type--base">
      <path fill="currentColor" d="M29 106v667h375V106z"/>
      <image xlink:href="{{ site.baseurl }}/assets/img/projects/{{ include.url }}" x="29" y="106" height="667" width="375"/>
    </g>
  </g>
</svg>