<?xml version="1.0" encoding="UTF-8" standalone="no"?>
<svg width="360px" height="104px" viewBox="0 0 360 104" version="1.1" xmlns="http://www.w3.org/2000/svg" xmlns:xlink="http://www.w3.org/1999/xlink" xmlns:sketch="http://www.bohemiancoding.com/sketch/ns">
    <!-- Generator: Sketch 3.4.4 (17249) - http://www.bohemiancoding.com/sketch -->
    <title>e2w-logo</title>
    <desc>Created with Sketch.</desc>
    <defs></defs>
    <g id="Page-1" stroke="none" stroke-width="1" fill="none" fill-rule="evenodd" sketch:type="MSPage">
        <g id="e2w-logo" sketch:type="MSArtboardGroup">
            <rect id="bg" sketch:type="MSShapeGroup" x="0" y="0" width="360" height="104"></rect>
            <g sketch:type="MSLayerGroup" transform="translate(0.000000, 27.000000)">
                <path d="M242.408377,34.1151832 L260.858639,34.1151832 L260.858639,39.434555 L235.497382,39.434555 L235.497382,39.2879581 C235.497382,35.9581152 236.230366,33.1099476 237.717277,30.7643979 C239.204188,28.4188482 241.717277,26.1570681 245.277487,23.9790576 C245.759162,23.6858639 246.450262,23.2670157 247.39267,22.7225131 C252.376963,19.8115183 254.86911,16.8586387 254.86911,13.8848168 C254.86911,12.104712 254.282723,10.6387435 253.089005,9.5078534 C251.91623,8.37696335 250.366492,7.81151832 248.481675,7.81151832 C246.429319,7.81151832 244.816754,8.48167539 243.623037,9.80104712 C242.450262,11.1204188 241.842932,12.9633508 241.842932,15.2879581 L241.842932,15.8534031 L236.167539,15.8534031 L236.167539,15.6020942 C236.167539,11.539267 237.277487,8.37696335 239.497382,6.07329843 C241.717277,3.79057592 244.816754,2.63874346 248.774869,2.63874346 C252.418848,2.63874346 255.371728,3.66492147 257.591623,5.71727749 C259.832461,7.76963351 260.942408,10.4712042 260.942408,13.8219895 C260.942408,16.2722513 260.272251,18.4502618 258.910995,20.3560209 C257.549738,22.2617801 255.39267,24.0837696 252.418848,25.8219895 L251.39267,26.408377 C246.115183,29.486911 243.099476,32.0418848 242.408377,34.1151832 L242.408377,34.1151832 Z M290.387435,32 L285.612565,11.7068063 L279.246073,11.7068063 L274.513089,32 L269.235602,11.7068063 L263.183246,11.7068063 L271.308901,39.434555 L277.193717,39.434555 L282.366492,18.7434555 L287.643979,39.434555 L293.465969,39.434555 L301.612565,11.7068063 L295.769634,11.7068063 L290.387435,32 L290.387435,32 Z M316.460733,10.8062827 C312.418848,10.8062827 309.256545,12.104712 306.95288,14.7015707 C304.649215,17.2984293 303.518325,20.9005236 303.518325,25.4659686 C303.518325,30.0942408 304.649215,33.7172775 306.931937,36.3560209 C309.21466,38.9947644 312.335079,40.3141361 316.314136,40.3141361 C319.47644,40.3141361 322.198953,39.434555 324.481675,37.6753927 C326.743455,35.9162304 328.146597,33.591623 328.691099,30.6806283 L322.827225,30.6806283 C322.471204,32.104712 321.73822,33.2146597 320.670157,34.0104712 C319.581152,34.8062827 318.26178,35.2041885 316.691099,35.2041885 C314.471204,35.2041885 312.774869,34.513089 311.539267,33.1308901 C310.324607,31.7486911 309.696335,29.7591623 309.633508,27.1623037 L328.984293,27.1623037 C328.984293,27.1204188 328.984293,27.0575916 329.005236,26.973822 C329.04712,26.1151832 329.089005,25.486911 329.089005,25.0890052 C329.089005,20.6282723 327.958115,17.1308901 325.717277,14.5968586 C323.47644,12.0837696 320.376963,10.8062827 316.460733,10.8062827 L316.460733,10.8062827 Z M309.612565,22.9109948 C309.801047,20.6073298 310.471204,18.8272251 311.623037,17.6125654 C312.774869,16.3979058 314.34555,15.7905759 316.335079,15.7905759 C318.429319,15.7905759 320.041885,16.4188482 321.193717,17.6544503 C322.34555,18.8900524 322.931937,20.6492147 322.931937,22.9109948 L309.612565,22.9109948 L309.612565,22.9109948 Z M356.691099,14.8900524 C354.513089,12.1675393 351.643979,10.8062827 348.125654,10.8062827 C346.282723,10.8062827 344.628272,11.1832461 343.183246,11.9581152 C341.73822,12.7329843 340.502618,13.8638743 339.497382,15.3717277 L339.497382,1.57068063 L333.82199,1.57068063 L333.82199,39.4136126 L339.455497,39.4136126 L339.455497,35.7905759 C340.628272,37.3612565 341.905759,38.513089 343.287958,39.2251309 C344.649215,39.9371728 346.26178,40.3141361 348.08377,40.3141361 C351.643979,40.3141361 354.513089,38.973822 356.712042,36.2931937 C358.890052,33.6125654 360,30.0732984 360,25.6753927 C359.979058,21.2146597 358.890052,17.6125654 356.691099,14.8900524 L356.691099,14.8900524 Z M352.104712,32.6701571 C350.827225,34.3246073 349.04712,35.1623037 346.764398,35.1623037 C344.397906,35.1623037 342.575916,34.3455497 341.298429,32.6910995 C340.020942,31.0366492 339.39267,28.6701571 339.39267,25.5706806 C339.39267,22.408377 340.020942,20 341.256545,18.3874346 C342.492147,16.7748691 344.335079,15.9581152 346.764398,15.9581152 C349.04712,15.9581152 350.827225,16.8167539 352.104712,18.5340314 C353.382199,20.2513089 354.031414,22.6596859 354.031414,25.7591623 C354.031414,28.7120419 353.403141,31.0157068 352.104712,32.6701571 L352.104712,32.6701571 Z" id="2web" fill="#D30001" sketch:type="MSShapeGroup"></path>
                <path d="M75.3926702,10.8062827 C71.3507853,10.8062827 68.1884817,12.104712 65.8848168,14.7015707 C63.5811518,17.2984293 62.4502618,20.9005236 62.4502618,25.4659686 C62.4502618,30.0942408 63.5811518,33.7172775 65.8638743,36.3560209 C68.1465969,38.9947644 71.2670157,40.3141361 75.2460733,40.3141361 C78.408377,40.3141361 81.1308901,39.434555 83.4136126,37.6753927 C85.6753927,35.9162304 87.078534,33.591623 87.6230366,30.6806283 L81.7591623,30.6806283 C81.4031414,32.104712 80.6701571,33.2146597 79.6020942,34.0104712 C78.5340314,34.8062827 77.1937173,35.2041885 75.6230366,35.2041885 C73.4031414,35.2041885 71.7068063,34.513089 70.4921466,33.1308901 C69.2774869,31.7486911 68.6492147,29.7591623 68.5863874,27.1623037 L87.9371728,27.1623037 C87.9371728,27.1204188 87.9371728,27.0575916 87.9581152,26.973822 C88,26.1151832 88.0418848,25.486911 88.0418848,25.0890052 C88.0418848,20.6282723 86.9109948,17.1308901 84.6701571,14.5968586 C82.3874346,12.0837696 79.3089005,10.8062827 75.3926702,10.8062827 L75.3926702,10.8062827 Z M68.5235602,22.9109948 C68.7120419,20.6073298 69.382199,18.8272251 70.5340314,17.6125654 C71.6858639,16.3979058 73.2565445,15.7905759 75.2460733,15.7905759 C77.3403141,15.7905759 78.9528796,16.4188482 80.104712,17.6544503 C81.2565445,18.8900524 81.8429319,20.6492147 81.8429319,22.9109948 L68.5235602,22.9109948 L68.5235602,22.9109948 Z M114.743455,11.7068063 L108.104712,11.7068063 L102.282723,20.9424084 L96.3350785,11.7068063 L89.5287958,11.7068063 L98.6596859,25.2146597 L89.1727749,39.4136126 L95.895288,39.4136126 L102.010471,29.5706806 L108.376963,39.4136126 L115.308901,39.4136126 L105.675393,25.1099476 L114.743455,11.7068063 L114.743455,11.7068063 Z M132.52356,10.8062827 C130.659686,10.8062827 129.04712,11.1832461 127.664921,11.9371728 C126.303665,12.6910995 125.026178,13.9057592 123.895288,15.5811518 L123.895288,11.7068063 L118.26178,11.7068063 L118.26178,50.4712042 L123.937173,50.4712042 L123.937173,36 C124.921466,37.4240838 126.136126,38.4921466 127.581152,39.2251309 C129.026178,39.9581152 130.701571,40.3141361 132.565445,40.3141361 C136.08377,40.3141361 138.95288,38.9528796 141.13089,36.2094241 C143.308901,33.486911 144.397906,29.8848168 144.397906,25.4031414 C144.397906,21.0052356 143.308901,17.4659686 141.13089,14.7853403 C138.95288,12.1465969 136.08377,10.8062827 132.52356,10.8062827 L132.52356,10.8062827 Z M136.565445,32.6073298 C135.287958,34.3036649 133.507853,35.1623037 131.204188,35.1623037 C128.795812,35.1623037 126.95288,34.3664921 125.696335,32.7539267 C124.439791,31.1413613 123.811518,28.8167539 123.811518,25.7591623 C123.811518,22.5549738 124.439791,20.1256545 125.696335,18.4712042 C126.95288,16.8167539 128.774869,15.9790576 131.183246,15.9790576 C133.424084,15.9790576 135.204188,16.8167539 136.502618,18.4921466 C137.801047,20.1675393 138.450262,22.4921466 138.450262,25.4240838 C138.492147,28.5026178 137.842932,30.8900524 136.565445,32.6073298 L136.565445,32.6073298 Z M190.366492,11.0157068 C188.628272,11.0157068 187.015707,11.3926702 185.549738,12.1675393 C184.08377,12.921466 182.86911,14.0314136 181.884817,15.434555 L181.884817,11.7068063 L176.209424,11.7068063 L176.209424,39.434555 L182.094241,39.434555 L182.094241,23.3298429 C182.094241,21.026178 182.722513,19.2460733 183.958115,17.9685864 C185.193717,16.6910995 186.931937,16.0418848 189.151832,16.0418848 C190.78534,16.0418848 192.041885,16.4816754 192.900524,17.382199 C193.780105,18.2827225 194.219895,19.5602094 194.219895,21.2356021 L194.219895,39.4554974 L200.104712,39.4554974 L200.104712,21.8219895 C200.104712,17.8429319 199.350785,15.0366492 197.863874,13.4450262 C196.356021,11.8115183 193.863874,11.0157068 190.366492,11.0157068 L190.366492,11.0157068 Z M225.298429,1.57068063 L225.298429,15.0994764 C224.293194,13.6544503 223.057592,12.565445 221.633508,11.8534031 C220.209424,11.1413613 218.554974,10.7853403 216.691099,10.7853403 C213.172775,10.7853403 210.324607,12.1465969 208.146597,14.8900524 C205.947644,17.6125654 204.858639,21.2146597 204.858639,25.6753927 C204.858639,30.0732984 205.947644,33.6125654 208.146597,36.2931937 C210.34555,38.973822 213.21466,40.3141361 216.753927,40.3141361 C218.534031,40.3141361 220.125654,39.9581152 221.507853,39.2251309 C222.890052,38.4921466 224.188482,37.3612565 225.382199,35.7905759 L225.382199,39.4136126 L231.015707,39.4136126 L231.015707,1.57068063 L225.298429,1.57068063 L225.298429,1.57068063 Z M223.518325,32.6492147 C222.240838,34.3246073 220.418848,35.1623037 218.052356,35.1623037 C215.769634,35.1623037 213.989529,34.3246073 212.712042,32.6701571 C211.434555,31.0157068 210.78534,28.7120419 210.78534,25.7591623 C210.78534,22.6596859 211.434555,20.2513089 212.712042,18.5340314 C213.989529,16.8167539 215.769634,15.9581152 218.073298,15.9581152 C220.481675,15.9581152 222.324607,16.7539267 223.581152,18.3455497 C224.837696,19.9371728 225.445026,22.2827225 225.445026,25.3612565 C225.424084,28.565445 224.795812,30.973822 223.518325,32.6492147 L223.518325,32.6492147 Z M171.308901,18.9947644 C171.308901,16.2931937 170.366492,14.2408377 168.502618,12.8586387 C166.617801,11.4764398 163.853403,10.7853403 160.167539,10.7853403 C156.649215,10.7853403 153.884817,11.5811518 151.853403,13.1937173 C149.82199,14.7853403 148.816754,16.9633508 148.816754,19.7277487 L148.816754,20.1884817 L154.387435,20.1884817 L154.387435,19.9790576 C154.387435,18.5759162 154.86911,17.486911 155.832461,16.7329843 C156.795812,15.9790576 158.17801,15.6020942 159.958115,15.6020942 C161.884817,15.6020942 163.329843,15.9162304 164.251309,16.5445026 C165.172775,17.1727749 165.633508,18.1570681 165.633508,19.4973822 C165.633508,21.1518325 163.769634,22.1989529 160.062827,22.6806283 C159.811518,22.7225131 159.602094,22.7434555 159.47644,22.7643979 C155.015707,23.3298429 151.958115,24.3141361 150.26178,25.7382199 C148.565445,27.1623037 147.727749,29.2565445 147.727749,32.0628272 C147.727749,34.6387435 148.52356,36.6492147 150.094241,38.0942408 C151.685864,39.5602094 153.863874,40.2722513 156.649215,40.2722513 C158.471204,40.2722513 160.167539,39.8743455 161.759162,39.078534 C163.350785,38.2827225 164.712042,37.1518325 165.842932,35.7068063 C165.884817,37.1308901 166.324607,38.1780105 167.183246,38.8691099 C168.041885,39.5602094 169.486911,39.7696335 171.267016,39.7696335 C171.329843,39.7696335 171.308901,33.0471204 171.308901,32.6910995 L171.308901,18.9947644 L171.308901,18.9947644 Z M165.570681,28.9842932 C165.570681,30.9109948 164.858639,32.4816754 163.413613,33.7172775 C161.968586,34.9528796 160.167539,35.5602094 157.989529,35.5602094 C156.544503,35.5602094 155.434555,35.2041885 154.659686,34.513089 C153.863874,33.8219895 153.486911,32.8376963 153.486911,31.5811518 C153.486911,30.4502618 153.82199,29.5287958 154.492147,28.8376963 C155.162304,28.1465969 156.188482,27.6649215 157.549738,27.4136126 C158.010471,27.3298429 158.722513,27.2041885 159.706806,27.0575916 C162.387435,26.6596859 164.356021,26.1570681 165.591623,25.5078534 L165.591623,28.9842932 L165.570681,28.9842932 Z" id="expand" fill="#41484F" sketch:type="MSShapeGroup"></path>
                <path d="M0.691099476,42.2827225 C3.60209424,50.5549738 14.3036649,47.1204188 21.382199,43.7905759 L21.4659686,42.8900524 C15.0366492,45.382199 6.53403141,48.3141361 5.84293194,42.9109948 C5.2565445,38.2617801 13.9267016,26.4502618 21.6335079,17.7591623 L21.6125654,17.7591623 C21.3612565,17.5497382 10.6806283,8.02094241 6.21989529,8.81675393 C2.36649215,9.5078534 6.86910995,19.0157068 7.91623037,21.2984293 C2.70157068,28.6492147 -1.19371728,36.9633508 0.691099476,42.2827225 L0.691099476,42.2827225 Z M48.0837696,6.47120419 C45.1727749,-1.80104712 34.4712042,1.63350785 27.3926702,4.94240838 L27.3089005,5.84293194 C33.7382199,3.37172775 42.2408377,0.418848168 42.9319372,5.84293194 C43.5183246,10.4921466 34.8481675,22.3036649 27.1413613,30.9947644 L27.1623037,30.9947644 C27.4136126,31.2041885 38.0942408,40.7329843 42.5549738,39.9371728 C46.408377,39.2460733 41.9057592,29.7382199 40.8586387,27.4554974 C46.0732984,20.104712 49.947644,11.8115183 48.0837696,6.47120419 L48.0837696,6.47120419 Z" id="icon-gray" fill="#41484F" sketch:type="MSShapeGroup"></path>
                <path d="M6.47120419,0.691099476 C-1.80104712,3.60209424 1.63350785,14.3036649 4.96335079,21.382199 L5.86387435,21.4659686 C3.37172775,15.0366492 0.418848168,6.53403141 5.84293194,5.84293194 C10.4921466,5.2565445 22.3036649,13.9267016 30.9947644,21.6335079 L30.9947644,21.6125654 C31.2041885,21.3612565 40.7329843,10.6806283 39.9371728,6.21989529 C39.2460733,2.36649215 29.7382199,6.86910995 27.4554974,7.91623037 C20.104712,2.70157068 11.8115183,-1.19371728 6.47120419,0.691099476 L6.47120419,0.691099476 Z M42.2827225,48.0837696 C50.5549738,45.1727749 47.1204188,34.4712042 43.7905759,27.3926702 L42.8900524,27.3089005 C45.382199,33.7382199 48.3141361,42.2408377 42.9109948,42.9319372 C38.2617801,43.5183246 26.4502618,34.8481675 17.7591623,27.1413613 C17.5497382,27.3926702 8.02094241,38.0732984 8.81675393,42.5340314 C9.5078534,46.3874346 19.0157068,41.8848168 21.2984293,40.8376963 C28.6492147,46.0732984 36.9633508,49.947644 42.2827225,48.0837696 L42.2827225,48.0837696 Z" id="icon-red" fill="#D30001" sketch:type="MSShapeGroup"></path>
            </g>
        </g>
    </g>
</svg>