<svg xmlns="http://www.w3.org/2000/svg" width="513" height="120" viewBox="0 0 513 120"><path fill="#78787A" d="M168.35 38.788c-12 0-19.67 4.93-25.296 14.39V8.863c0-6.274-3.037-8.863-7.967-8.813h-.3c-4.928 0-7.965 2.54-7.965 8.813v103.17c10.107 4.282 20.663 7.22 31.717 7.22 23.85.448 42.87-11.85 43.717-39.983.498-27.834-16.78-40.482-33.908-40.482zm16.18 40.532c-.198 17.278-9.758 25.593-24.347 25.593-5.13 0-10.556-1.295-16.133-3.386V79.32c0-11.652 5.776-25.793 19.668-25.793 13.444 0 21.26 10.207 20.813 25.793zm71.155 34.456c-4.183-2.888-6.97-7.17-8.465-9.96-.35-.546-.896-.248-.896-.248-14.69 4.88-19.37-1.543-19.37-14.14V44.364h.05V9.46c0-6.72-3.236-9.46-8.514-9.46h-.3c-5.227 0-8.514 2.74-8.514 9.46v80.167c0 27.834 16.88 36.547 45.96 24.796.596-.2.05-.647.05-.647zm230.64-75.635c-11.055-.148-21.412 4.482-27.686 14.84-3.984-9.76-12.847-14.39-23.055-14.59-9.91-.15-19.52 5.08-24.697 14.09-1.643-9.708-8.216-14.24-17.527-14.44v-.098c-6.422-.35-14.09 1.643-21.71 6.573-.098.15-.347.497.1.946l7.67 8.565c.1.1.497.348.995.05l.1-.05c8.215-4.382 12.1-1.245 12.796 7.42v5.675l-.05.35v50.588c10.906.1 17.678-5.527 17.678-19.22V70.855c.747-11.204 8.216-18.125 18.473-18.274 10.856 0 14.94 7.818 14.79 19.868v9.81h.05v26.29c0 6.82 3.335 9.61 8.663 9.56h.348c5.33 0 8.665-2.788 8.665-9.56V72.996h-.05v-.647c0-12.2 7.768-19.87 18.474-20.018 10.206 0 15.036 8.017 14.887 19.52v1.94h-.15V108.5c0 6.822 3.336 9.61 8.664 9.56h.35c5.327 0 8.663-2.788 8.663-9.56v-40.98c-.946-15.833-7.17-29.377-26.44-29.377zm-393.263 0c-11.054-.148-21.41 4.482-27.684 14.84-3.984-9.76-12.847-14.39-23.054-14.59-9.91-.15-19.52 5.08-24.697 14.09C15.983 42.773 9.36 38.24 0 38.04v19.22c0 .748.05 1.495.05 2.292v48.996c0 6.82 3.336 9.61 8.664 9.56h.348c5.328 0 8.664-2.788 8.664-9.56v-35.85c0-12.3 7.668-20.018 18.573-20.167 10.854 0 14.937 7.82 14.787 19.868v24.697h.05v11.403c0 6.822 3.336 9.61 8.664 9.56h.35c5.327 0 8.663-2.788 8.663-9.56V72.946h-.1v-.597c0-12.2 7.768-19.87 18.474-20.018 10.207 0 15.037 8.017 14.888 19.52v27.036c0 13.693 6.722 19.32 17.477 19.22v-50.54c-.946-15.883-7.27-29.427-26.49-29.427z"/><path fill="#5EB6B1" d="M342.573 40.033c-13.743 0-26.888 9.61-33.61 20.714v.05l-.3.448c-.497.796-1.543 2.49-2.588 5.328-.448 1.244-.897 2.44-1.146 3.684-.45 1.743-.947 3.784-1.245 6.125-1.644 10.954-4.98 16.38-11.9 20.564-2.29 1.245-4.83 2.09-7.32 2.09-9.61 0-19.867-6.87-19.867-19.617 0-9.86 6.572-20.366 18.77-20.366 8.516 0 13.196 3.983 14.89 5.826.248.15.597.348.796-.25 1.892-6.92 5.975-12.398 8.813-15.535.548-.746.1-1.045.1-1.045-2.59-2.29-10.208-7.867-24.647-7.867-21.212 0-37.793 17.278-37.793 39.336 0 24.148 19.768 38.538 38.838 38.538 16.78 0 32.315-14.34 36.946-28.133 1.794-4.83 1.844-11.402 3.736-16.98 1.294-3.783 3.634-6.62 5.128-8.215 3.486-3.087 7.867-5.576 12.25-5.576 9.61 0 19.866 6.87 19.866 19.618 0 9.86-6.572 20.365-18.77 20.365-7.67 0-12.2-3.237-14.292-5.228-.348-.3-.548-.15-.647.05-1.343 4.08-4.082 9.808-9.758 15.484-.1.15-.25.498.2.846 2.638 2.29 10.306 7.818 24.546 7.818 21.212 0 37.793-17.278 37.793-39.336.1-24.35-19.667-38.74-38.787-38.74"/></svg>