<svg xmlns="http://www.w3.org/2000/svg" width="240" height="130" viewBox="0 0 240 130"><path d="M6.56 122.5h226.877V6.56H6.56V122.5zM240 129.06H0V0h239.998v129.06zM75.338 32.857h13.445V96.31H75.34V70.554H46.353V96.31h-13.55V32.858h13.55v25.758h28.93V32.857h.055zm68.618 62.056c-5.432 1.506-13.66 2.474-19.628 2.474-13.767 0-22.424-4.25-22.424-18.392v-30.33h12.906V77.92c0 6.077 2.688 8.873 9.41 8.873 1.83 0 4.464-.215 6.83-.645V48.666h12.906v46.247zm37.91-36.244c-6.936 0-11.937 5.215-11.937 13.765s5 13.766 11.937 13.766c6.937 0 11.938-5.215 11.938-13.765s-5-13.766-11.938-13.766zm13.875-31.89c0 9.626-5.645 15.164-13.873 15.164s-13.874-5.538-13.874-15.164h9.518c0 3.926 1.292 6.614 4.357 6.614 3.065 0 4.356-2.688 4.356-6.614h9.518zm-13.873 20.81c14.197 0 25.005 10.057 25.005 24.9 0 14.84-10.808 24.897-25.005 24.897S156.97 87.33 156.97 72.49c0-14.843 10.7-24.9 24.897-24.9z"/></svg>