<?xml version="1.0" encoding="UTF-8"?>
<svg width="784px" height="136px" viewBox="0 0 784 136" version="1.1" xmlns="http://www.w3.org/2000/svg" xmlns:xlink="http://www.w3.org/1999/xlink">
    <!-- Generator: Sketch 46 (44423) - http://www.bohemiancoding.com/sketch -->
    <title>otto-logo</title>
    <desc>Created with Sketch.</desc>
    <defs></defs>
    <g id="Portfolio" stroke="none" stroke-width="1" fill="none" fill-rule="evenodd">
        <g id="otto-logo">
            <path d="M66.7783045,101.0255 C62.3077661,99.041 58.5364542,96.3905 55.4621132,93.074 C52.3877723,89.75525 50.0419802,85.919 48.424737,81.56075 C46.8052382,77.2025 46,72.68 46,68 C46,63.32 46.8074938,58.7975 48.424737,54.43925 C50.0419802,50.081 52.3877723,46.24475 55.4621132,42.926 C58.5341986,39.6095 62.3077661,36.959 66.7783045,34.9745 C71.2443317,32.9945 76.3351516,32 82.041742,32 C87.7483323,32 92.8504301,32.99 97.3525464,34.9745 C101.852407,36.959 105.641764,39.6095 108.716105,42.926 C111.790446,46.24475 114.136238,50.081 115.753481,54.43925 C117.368468,58.7975 118.178218,63.31775 118.178218,68 C118.178218,72.68 117.366213,77.2025 115.753481,81.56075 C114.136238,85.919 111.790446,89.75525 108.716105,93.074 C105.641764,96.3905 101.852407,99.041 97.3525464,101.0255 C92.8504301,103.0055 87.7438212,104 82.041742,104 C76.3351516,104 71.2465873,103.01 66.7783045,101.0255 Z M89.7219554,84.4925 C91.9639913,83.48675 93.8496473,82.1615 95.3834344,80.519 C96.9127104,78.8765 98.0856064,76.964 98.9021225,74.78825 C99.7231498,72.60575 100.133663,70.34675 100.133663,68 C100.133663,65.65325 99.7231498,63.392 98.9043781,61.21175 C98.0856064,59.03375 96.9127104,57.1235 95.3811788,55.481 C93.8519028,53.8385 91.9639913,52.511 89.7196999,51.5075 C87.4799196,50.50175 84.9378929,50 82.0891089,50 C79.2403249,50 76.6982983,50.50175 74.4540068,51.5075 C72.2119709,52.51325 70.326315,53.8385 68.7925278,55.481 C67.2655074,57.1235 66.0903558,59.036 65.2738397,61.21175 C64.4528125,63.39425 64.0445545,65.65325 64.0445545,68 C64.0445545,70.34675 64.4505569,72.608 65.2715842,74.78825 C66.0903558,76.96625 67.2655074,78.8765 68.7947834,80.519 C70.3240594,82.1615 72.2097153,83.489 74.4517512,84.4925 C76.6937871,85.49825 79.2380693,86 82.0868533,86 C84.9356374,86 87.477664,85.49825 89.7219554,84.4925 Z M237.600087,101.0255 C233.129548,99.041 229.358236,96.3905 226.283895,93.074 C223.209554,89.75525 220.863762,85.919 219.246519,81.56075 C217.62702,77.2025 216.821782,72.68 216.821782,68 C216.821782,63.32 217.629276,58.7975 219.246519,54.43925 C220.863762,50.081 223.209554,46.24475 226.283895,42.926 C229.355981,39.6095 233.129548,36.959 237.600087,34.9745 C242.066114,32.9945 247.156934,32 252.863524,32 C258.570114,32 263.672212,32.99 268.174329,34.9745 C272.674189,36.959 276.463546,39.6095 279.537887,42.926 C282.612228,46.24475 284.95802,50.081 286.575263,54.43925 C288.190251,58.7975 289,63.31775 289,68 C289,72.68 288.187995,77.2025 286.575263,81.56075 C284.95802,85.919 282.612228,89.75525 279.537887,93.074 C276.463546,96.3905 272.674189,99.041 268.174329,101.0255 C263.672212,103.0055 258.565603,104 252.863524,104 C247.156934,104 242.068369,103.01 237.600087,101.0255 Z M260.543738,84.4925 C262.785774,83.48675 264.671429,82.1615 266.205217,80.519 C267.734493,78.8765 268.907389,76.964 269.723905,74.78825 C270.544932,72.60575 270.955446,70.34675 270.955446,68 C270.955446,65.65325 270.544932,63.392 269.72616,61.21175 C268.907389,59.03375 267.734493,57.1235 266.202961,55.481 C264.673685,53.8385 262.785774,52.511 260.541482,51.5075 C258.301702,50.50175 255.759675,50 252.910891,50 C250.062107,50 247.52008,50.50175 245.275789,51.5075 C243.033753,52.51325 241.148097,53.8385 239.61431,55.481 C238.08729,57.1235 236.912138,59.036 236.095622,61.21175 C235.274595,63.39425 234.866337,65.65325 234.866337,68 C234.866337,70.34675 235.272339,72.608 236.093366,74.78825 C236.912138,76.96625 238.08729,78.8765 239.616566,80.519 C241.145842,82.1615 243.031498,83.489 245.273533,84.4925 C247.515569,85.49825 250.059851,86 252.908636,86 C255.75742,86 258.299446,85.49825 260.543738,84.4925 Z M130.216191,50 L118.171451,50 C117.343657,50 116.673753,49.316 116.673753,48.497 L116.673753,33.503 C116.673753,32.6705 117.33689,32 118.162429,32 L164.812113,32 C165.630885,32 166.296278,32.684 166.296278,33.503 L166.296278,48.497 C166.296278,49.3295 165.610585,50 164.79858,50 L152.75384,50 C151.930557,50 151.258397,50.68175 151.258397,51.50075 L151.258397,102.49925 C151.258397,103.32725 150.559171,104 149.756188,104 L133.209332,104 C132.381538,104 131.709378,103.31825 131.709378,102.49925 L131.709378,51.50075 C131.711634,50.675 131.028196,50 130.216191,50 Z M182.84539,50 L170.80065,50 C169.977367,50 169.305207,49.316 169.305207,48.497 L169.305207,33.503 C169.305207,32.6705 169.968345,32 170.789372,32 L217.439056,32 C218.262339,32 218.927732,32.684 218.927732,33.503 L218.927732,48.497 C218.927732,49.3295 218.242039,50 217.430034,50 L205.385294,50 C204.559756,50 203.889851,50.68175 203.889851,51.50075 L203.889851,102.49925 C203.889851,103.32725 203.190625,104 202.387642,104 L185.843041,104 C185.012992,104 184.340832,103.31825 184.340832,102.49925 L184.340832,51.50075 C184.343088,50.67275 183.657395,50 182.84539,50 Z" id="logo" fill="#FFA07A"></path>
            <g id="logo-copy" transform="translate(334.000000, 32.000000)">
                <path d="M35.9525692,72 C30.2608411,72 25.185793,71.00814 20.7272727,69.0243902 C16.2687524,67.0406405 12.5059442,64.3902605 9.43873518,61.0731707 C6.37152617,57.756081 4.03162862,53.918721 2.41897233,49.5609756 C0.806316047,45.2032302 -2.27373675e-13,40.6829502 -2.27373675e-13,36 C-2.27373675e-13,31.3170498 0.806316047,26.7967698 2.41897233,22.4390244 C4.03162862,18.081279 6.37152617,14.243919 9.43873518,10.9268293 C12.5059442,7.60973951 16.2687524,4.95935951 20.7272727,2.97560976 C25.185793,0.99186 30.2608411,0 35.9525692,0 C41.6442972,0 46.7351554,0.99186 51.2252964,2.97560976 C55.7154375,4.95935951 59.4940558,7.60973951 62.5612648,10.9268293 C65.6284738,14.243919 67.9683714,18.081279 69.5810277,22.4390244 C71.193684,26.7967698 72,31.3170498 72,36 C72,40.6829502 71.193684,45.2032302 69.5810277,49.5609756 C67.9683714,53.918721 65.6284738,57.756081 62.5612648,61.0731707 C59.4940558,64.3902605 55.7154375,67.0406405 51.2252964,69.0243902 C46.7351554,71.00814 41.6442972,72 35.9525692,72 Z M36,54 C38.8402508,54 41.3786869,53.4972117 43.6153845,52.4916201 C45.852082,51.4860285 47.7337199,50.1620194 49.2603547,48.5195531 C50.7869896,46.8770868 51.9585755,44.9664913 52.7751476,42.7877095 C53.5917197,40.6089277 53.9999996,38.3463804 53.9999996,36 C53.9999996,33.6536196 53.5917197,31.3910723 52.7751476,29.2122905 C51.9585755,27.0335087 50.7869896,25.1229132 49.2603547,23.4804469 C47.7337199,21.8379806 45.852082,20.5139715 43.6153845,19.5083799 C41.3786869,18.5027883 38.8402508,18 36,18 C33.1597492,18 30.6213131,18.5027883 28.3846155,19.5083799 C26.147918,20.5139715 24.2662801,21.8379806 22.7396453,23.4804469 C21.2130104,25.1229132 20.0414245,27.0335087 19.2248524,29.2122905 C18.4082803,31.3910723 18.0000004,33.6536196 18.0000004,36 C18.0000004,38.3463804 18.4082803,40.6089277 19.2248524,42.7877095 C20.0414245,44.9664913 21.2130104,46.8770868 22.7396453,48.5195531 C24.2662801,50.1620194 26.147918,51.4860285 28.3846155,52.4916201 C30.6213131,53.4972117 33.1597492,54 36,54 Z M206.202569,72 C200.510841,72 195.435793,71.00814 190.977273,69.0243902 C186.518752,67.0406405 182.755944,64.3902605 179.688735,61.0731707 C176.621526,57.756081 174.281629,53.918721 172.668972,49.5609756 C171.056316,45.2032302 170.25,40.6829502 170.25,36 C170.25,31.3170498 171.056316,26.7967698 172.668972,22.4390244 C174.281629,18.081279 176.621526,14.243919 179.688735,10.9268293 C182.755944,7.60973951 186.518752,4.95935951 190.977273,2.97560976 C195.435793,0.99186 200.510841,0 206.202569,0 C211.894297,0 216.985155,0.99186 221.475296,2.97560976 C225.965437,4.95935951 229.744056,7.60973951 232.811265,10.9268293 C235.878474,14.243919 238.218371,18.081279 239.831028,22.4390244 C241.443684,26.7967698 242.25,31.3170498 242.25,36 C242.25,40.6829502 241.443684,45.2032302 239.831028,49.5609756 C238.218371,53.918721 235.878474,57.756081 232.811265,61.0731707 C229.744056,64.3902605 225.965437,67.0406405 221.475296,69.0243902 C216.985155,71.00814 211.894297,72 206.202569,72 Z M206.25,54 C209.090251,54 211.628687,53.4972117 213.865384,52.4916201 C216.102082,51.4860285 217.98372,50.1620194 219.510355,48.5195531 C221.03699,46.8770868 222.208575,44.9664913 223.025148,42.7877095 C223.84172,40.6089277 224.25,38.3463804 224.25,36 C224.25,33.6536196 223.84172,31.3910723 223.025148,29.2122905 C222.208575,27.0335087 221.03699,25.1229132 219.510355,23.4804469 C217.98372,21.8379806 216.102082,20.5139715 213.865384,19.5083799 C211.628687,18.5027883 209.090251,18 206.25,18 C203.409749,18 200.871313,18.5027883 198.634616,19.5083799 C196.397918,20.5139715 194.51628,21.8379806 192.989645,23.4804469 C191.46301,25.1229132 190.291425,27.0335087 189.474852,29.2122905 C188.65828,31.3910723 188.25,33.6536196 188.25,36 C188.25,38.3463804 188.65828,40.6089277 189.474852,42.7877095 C190.291425,44.9664913 191.46301,46.8770868 192.989645,48.5195531 C194.51628,50.1620194 196.397918,51.4860285 198.634616,52.4916201 C200.871313,53.4972117 203.409749,54 206.25,54 Z M85.5,18.6632775 C85.5,18.2969595 85.2003693,18 84.8361142,18 L71.1638858,18 C70.7972318,18 70.5,17.7025943 70.5,17.338023 L70.5,0.661976963 C70.5,0.296377182 70.7906948,0 71.1623162,0 L119.337684,0 C119.703471,0 120,0.29740575 120,0.661976963 L120,17.338023 C120,17.7036228 119.700369,18 119.336114,18 L105.663886,18 C105.297232,18 105,18.2905347 105,18.6632775 L105,71.3367225 C105,71.7030405 104.693702,72 104.328766,72 L86.1712341,72 C85.8005218,72 85.5,71.7094653 85.5,71.3367225 L85.5,18.6632775 Z M138,18.6632775 C138,18.2969595 137.700369,18 137.336114,18 L123.663886,18 C123.297232,18 123,17.7025943 123,17.338023 L123,0.661976963 C123,0.296377182 123.290695,0 123.662316,0 L171.837684,0 C172.203471,0 172.5,0.29740575 172.5,0.661976963 L172.5,17.338023 C172.5,17.7036228 172.200369,18 171.836114,18 L158.163886,18 C157.797232,18 157.5,18.2905347 157.5,18.6632775 L157.5,71.3367225 C157.5,71.7030405 157.193702,72 156.828766,72 L138.671234,72 C138.300522,72 138,71.7094653 138,71.3367225 L138,18.6632775 Z" id="OTTO" fill="#FFA07A"></path>
                <path d="M254.25,36.333398 C254.25,36.1492674 254.398315,36 254.589777,36 L259.910223,36 C260.097877,36 260.25,36.1484603 260.25,36.3414792 L260.25,50.6585208 C260.25,50.8471146 260.39846,51 260.591479,51 L274.908521,51 C275.097115,51 275.25,50.8515397 275.25,50.6585208 L275.25,36.3414792 C275.25,36.1528854 275.398315,36 275.589777,36 L280.910223,36 C281.097877,36 281.25,36.145048 281.25,36.333398 L281.25,71.666602 C281.25,71.8507326 281.101685,72 280.910223,72 L275.589777,72 C275.402123,72 275.25,71.8515397 275.25,71.6585208 L275.25,57.3414792 C275.25,57.1528854 275.10154,57 274.908521,57 L260.591479,57 C260.402885,57 260.25,57.1484603 260.25,57.3414792 L260.25,71.6585208 C260.25,71.8471146 260.101685,72 259.910223,72 L254.589777,72 C254.402123,72 254.25,71.854952 254.25,71.666602 L254.25,36.333398 Z M285.75,36.333398 C285.75,36.1492674 285.893681,36 286.085524,36 L307.914476,36 C308.099781,36 308.25,36.1483154 308.25,36.3397772 L308.25,41.6602228 C308.25,41.8478766 308.107357,42 307.920406,42 L292.079594,42 C291.897564,42 291.75,42.1562119 291.75,42.3418207 L291.75,50.6581793 C291.75,50.8469617 291.901611,51 292.08371,51 L304.91629,51 C305.100593,51 305.25,51.1483154 305.25,51.3397772 L305.25,56.6602228 C305.25,56.8478766 305.098389,57 304.91629,57 L292.08371,57 C291.899407,57 291.75,57.1562119 291.75,57.3418207 L291.75,65.6581793 C291.75,65.8469617 291.892643,66 292.079594,66 L307.920406,66 C308.102436,66 308.25,66.1483154 308.25,66.3397772 L308.25,71.6602228 C308.25,71.8478766 308.106319,72 307.914476,72 L286.085524,72 C285.900219,72 285.75,71.854952 285.75,71.666602 L285.75,36.333398 Z M332.356772,63.3203148 C332.297803,63.1434098 332.098276,63 331.916527,63 L320.583473,63 C320.399301,63 320.202877,63.1413685 320.143228,63.3203148 L317.356772,71.6796852 C317.297803,71.8565902 317.101685,72 316.910223,72 L311.589777,72 C311.402123,72 311.298349,71.854952 311.353741,71.6887779 L323.146259,36.3112221 C323.203554,36.1393389 323.398315,36 323.589777,36 L328.910223,36 C329.097877,36 329.298349,36.145048 329.353741,36.3112221 L341.146259,71.6887779 C341.203554,71.8606611 341.101685,72 340.910223,72 L335.589777,72 C335.402123,72 335.202877,71.8586315 335.143228,71.6796852 L332.356772,63.3203148 Z M330.408179,57 C330.596962,57 330.705462,56.8478282 330.656011,56.6788713 L326.343989,41.9461287 C326.29208,41.7687742 326.205462,41.7771718 326.156011,41.9461287 L321.843989,56.6788713 C321.79208,56.8562258 321.906212,57 322.091821,57 L330.408179,57 Z M344.25,36.333398 C344.25,36.1492674 344.398315,36 344.589777,36 L349.910223,36 C350.097877,36 350.25,36.1472653 350.25,36.3369141 L350.25,65.6630859 C350.25,65.8491584 350.39846,66 350.591479,66 L364.908521,66 C365.097115,66 365.25,66.1483154 365.25,66.3397772 L365.25,71.6602228 C365.25,71.8478766 365.09304,72 364.92014,72 L344.57986,72 C344.397683,72 344.25,71.854952 344.25,71.666602 L344.25,36.333398 Z M369.75,42.3369141 C369.75,42.1508416 369.601569,42 369.424242,42 L359.575758,42 C359.395847,42 359.25,41.8516846 359.25,41.6602228 L359.25,36.3397772 C359.25,36.1521234 359.395267,36 359.59138,36 L385.90862,36 C386.097159,36 386.25,36.1483154 386.25,36.3397772 L386.25,41.6602228 C386.25,41.8478766 386.101569,42 385.924242,42 L376.075758,42 C375.895847,42 375.75,42.1472653 375.75,42.3369141 L375.75,71.6630859 C375.75,71.8491584 375.601685,72 375.410223,72 L370.089777,72 C369.902123,72 369.75,71.8527347 369.75,71.6630859 L369.75,42.3369141 Z M390.75,36.333398 C390.75,36.1492674 390.898315,36 391.089777,36 L396.410223,36 C396.597877,36 396.75,36.1484603 396.75,36.3414792 L396.75,50.6585208 C396.75,50.8471146 396.89846,51 397.091479,51 L411.408521,51 C411.597115,51 411.75,50.8515397 411.75,50.6585208 L411.75,36.3414792 C411.75,36.1528854 411.898315,36 412.089777,36 L417.410223,36 C417.597877,36 417.75,36.145048 417.75,36.333398 L417.75,71.666602 C417.75,71.8507326 417.601685,72 417.410223,72 L412.089777,72 C411.902123,72 411.75,71.8515397 411.75,71.6585208 L411.75,57.3414792 C411.75,57.1528854 411.60154,57 411.408521,57 L397.091479,57 C396.902885,57 396.75,57.1484603 396.75,57.3414792 L396.75,71.6585208 C396.75,71.8471146 396.601685,72 396.410223,72 L391.089777,72 C390.902123,72 390.75,71.854952 390.75,71.666602 L390.75,36.333398 Z" id="Health" fill-opacity="0.5" fill="#545454"></path>
            </g>
        </g>
    </g>
</svg>