<?xml version="1.0" encoding="UTF-8"?>
<svg width="784px" height="192px" viewBox="0 0 784 192" version="1.1" xmlns="http://www.w3.org/2000/svg" xmlns:xlink="http://www.w3.org/1999/xlink">
    <!-- Generator: Sketch 46 (44423) - http://www.bohemiancoding.com/sketch -->
    <title>otto-colors</title>
    <desc>Created with Sketch.</desc>
    <defs></defs>
    <g id="Portfolio" stroke="none" stroke-width="1" fill="none" fill-rule="evenodd">
        <g id="otto-colors">
            <rect id="Rectangle-2" fill="#FFA07A" x="392" y="0" width="196" height="128"></rect>
            <rect id="Rectangle-2" fill="#4ADD8C" x="0" y="128" width="196" height="64"></rect>
            <rect id="Rectangle-2" fill="#F57A7A" x="196" y="128" width="196" height="64"></rect>
            <rect id="Rectangle-2" fill="#F2CA27" x="392" y="128" width="196" height="64"></rect>
            <rect id="Rectangle-2" fill="#19B5FE" x="588" y="128" width="196" height="64"></rect>
            <rect id="Rectangle-2" fill="#A595DD" x="588" y="0" width="196" height="128"></rect>
            <rect id="Rectangle-2" fill="#545454" x="0" y="0" width="196" height="128"></rect>
            <g id="secondary-grays" transform="translate(196.000000, 0.000000)">
                <rect id="Rectangle-2" fill="#7E7E7E" x="0.498727735" y="0" width="48.8753181" height="64"></rect>
                <rect id="Rectangle-2" fill="#D4D4D4" x="0.498727735" y="64" width="48.8753181" height="64"></rect>
                <rect id="Rectangle-2" fill="#959595" x="49.3740458" y="0" width="48.8753181" height="64"></rect>
                <rect id="Rectangle-2" fill="#EAEAEA" x="49.3740458" y="64" width="48.8753181" height="64"></rect>
                <rect id="Rectangle-2" fill="#A9A9A9" x="98.2493639" y="0" width="48.8753181" height="64"></rect>
                <rect id="Rectangle-2" fill="#F6F6F6" x="98.2493639" y="64" width="48.8753181" height="64"></rect>
                <rect id="Rectangle-2" fill="#BDBDBD" x="147.124682" y="0" width="48.8753181" height="64"></rect>
                <rect id="Rectangle-2" fill="#FBFBFB" x="147.124682" y="64" width="48.8753181" height="64"></rect>
            </g>
        </g>
    </g>
</svg>