<svg xmlns="http://www.w3.org/2000/svg" width="64" height="64" viewBox="0 0 64 64">
  <defs>
    <linearGradient id="a" x1="0%" y1="0%" y2="100%">
      <stop offset="0%" stop-color="#BC47FF"/>
      <stop offset="100%" stop-color="#59376C"/>
    </linearGradient>
  </defs>
  <g fill="none" fill-rule="evenodd">
    <path fill="#59376C" d="M0 0h64v64H0z"/>
    <path fill="url(#a)" d="M0 0h64v64H0z"/>
    <path fill="#FFF" d="M39.467 39.467c-3.556 3.566 3.76 7.419-1.573 12.767-3.556 3.566-16.492-2.274-21.336-7.131-7.855-7.878-7.855-20.65 0-28.528 7.856-7.878 20.592-7.878 28.448 0 5.855 5.872 10.668 17.83 7.112 21.396-5.334 5.349-9.095-2.07-12.651 1.496zm.075-15.01a2.667 2.667 0 1 0 3.772-3.77 2.667 2.667 0 0 0-3.772 3.77zM20.686 43.315a2.667 2.667 0 1 0 3.772-3.772 2.667 2.667 0 0 0-3.772 3.772zM42.666 32A2.667 2.667 0 1 0 48 32a2.667 2.667 0 0 0-5.333 0zM16 32a2.667 2.667 0 1 0 5.333 0A2.667 2.667 0 0 0 16 32zm4.686-11.314a2.667 2.667 0 1 0 3.772 3.772 2.667 2.667 0 0 0-3.772-3.772zM32 21.333A2.667 2.667 0 1 0 32 16a2.667 2.667 0 0 0 0 5.333zM32 48a2.667 2.667 0 1 0 0-5.333A2.667 2.667 0 0 0 32 48z"/>
  </g>
</svg>
