<svg xmlns="http://www.w3.org/2000/svg" width="64" height="64" viewBox="0 0 64 64"><path fill="#C6D6D1" d="M42.878 41.853c11.557 0 20.926-9.37 20.926-20.927S54.434 0 42.878 0C31.32 0 21.95 9.37 21.95 20.926c0 11.558 9.37 20.927 20.928 20.927zm0-4.783c8.915 0 16.143-7.228 16.143-16.144 0-8.915-7.227-16.143-16.142-16.143-8.916 0-16.143 7.228-16.143 16.143 0 8.916 7.227 16.144 16.143 16.144zm-31.73 12.556L1 59.772 5.228 64l10.146-10.147-4.227-4.227z"/><path fill="#4E5250" d="M14.965 51.122l13.26-13.54c3.79 3.16 8.697 5.07 14.06 5.07C54.276 42.65 64 33.1 64 21.324 64 9.548 54.277 0 42.284 0 30.29 0 20.567 9.548 20.567 21.325c0 5.684 2.264 10.848 5.955 14.67L13.304 49.49l-1.34-1.314c-.458-.45-1.2-.45-1.66 0l-9.96 9.78c-.46.45-.46 1.18 0 1.63l4.15 4.076c.458.45 1.202.45 1.66 0l9.96-9.78c.46-.45.46-1.18 0-1.63l-1.15-1.13zm27.32-10.777c-10.7 0-19.37-8.515-19.37-19.02 0-10.504 8.67-19.02 19.37-19.02 10.696 0 19.367 8.516 19.367 19.02 0 10.505-8.67 19.02-19.368 19.02zm0-2.305c9.4 0 17.02-7.484 17.02-16.715 0-9.23-7.62-16.714-17.02-16.714-9.402 0-17.022 7.484-17.022 16.715 0 9.23 7.62 16.715 17.02 16.715zm0-2.306c-8.105 0-14.675-6.45-14.675-14.41 0-7.957 6.57-14.408 14.674-14.408 8.103 0 14.673 6.45 14.673 14.41 0 7.957-6.57 14.408-14.673 14.408zm-31.98 14.072l4.15 4.075v-1.63l-9.96 9.782h1.66l-4.15-4.075v1.63l9.96-9.78h-1.66z"/><path fill="#FFF" d="M42.284 35.734c-8.104 0-14.674-6.45-14.674-14.41 0-7.957 6.57-14.408 14.674-14.408 8.103 0 14.673 6.45 14.673 14.41 0 7.957-6.57 14.408-14.673 14.408z"/><path fill="#4E5250" d="M38.177 14.313c.043-.034.143-.107.292-.207.255-.17.544-.344.857-.505 1.045-.535 2.078-.8 2.972-.674.59.083 1.115.335 1.594.8 2.167 2.1 3.933 2.475 4.872 1.026.183-.282.268-.552.302-.78.094-.625-.336-1.207-.96-1.3-.625-.095-1.207.336-1.3.96.01-.065.017-.087.04-.123.08-.123.267-.208.326-.195-.298-.064-.873-.44-1.69-1.23-.83-.806-1.803-1.273-2.867-1.423-1.44-.202-2.908.174-4.334.906-.682.35-1.207.702-1.524.953-.496.392-.58 1.11-.188 1.606.39.495 1.11.58 1.605.187zm15.01 5.023c-.18.068-.473.192-.84.372-.61.298-1.217.65-1.79 1.06-1.792 1.274-2.9 2.83-2.85 4.71.015.63.54 1.128 1.17 1.112.632-.016 1.13-.54 1.114-1.172-.024-.955.657-1.91 1.892-2.79.463-.33.967-.62 1.47-.867.3-.146.526-.243.643-.287.59-.223.888-.883.664-1.473-.224-.59-.884-.888-1.474-.664zM30.67 21.318c.097.044.3.15.57.32.462.287.925.636 1.354 1.046 1.33 1.27 2.038 2.804 1.86 4.66-.06.63.4 1.188 1.027 1.248.63.06 1.188-.4 1.248-1.028.253-2.628-.757-4.815-2.555-6.532-.945-.903-1.888-1.49-2.555-1.794-.574-.262-1.252-.01-1.514.566-.262.574-.008 1.252.566 1.514zm9.018 11.258c.557-.304 1.35-.837 2.153-1.574 2.14-1.967 3.034-4.284 1.673-6.698-.31-.55-1.007-.745-1.557-.435s-.745 1.006-.435 1.556c.72 1.274.223 2.56-1.226 3.893-.376.345-.782.658-1.19.93-.24.162-.42.27-.512.32-.554.304-.758.998-.455 1.552s.997.757 1.55.454z"/></svg>