<svg xmlns="http://www.w3.org/2000/svg" width="64" height="64" viewBox="0 0 64 64"><circle cx="42.085" cy="24.695" r="20.695" fill="#FFF"/><path fill="#C6D6D1" d="M44.765 58l-2.432-24.6L63 47.2l-10.333 1.2"/><ellipse cx="15.588" cy="24.4" fill="#C6D6D1" rx="14.588" ry="14.4"/><path fill="#4E5250" d="M25.686 12.486c-2.714-2.26-6.194-3.617-9.988-3.617C7.028 8.87 0 15.954 0 24.694c0 8.74 7.028 15.826 15.698 15.826 3.794 0 7.274-1.357 9.988-3.616 3.832 5.282 9.936 8.486 16.577 8.486.667 0 1.208-.545 1.208-1.217 0-.673-.54-1.218-1.207-1.218-5.974 0-11.452-2.936-14.82-7.76 2.46-2.793 3.953-6.47 3.953-10.5s-1.494-7.707-3.953-10.5c3.368-4.824 8.847-7.76 14.82-7.76 10.004 0 18.113 8.175 18.113 18.26 0 6.148-3.035 11.776-7.998 15.15-.553.376-.7 1.133-.326 1.69.373.558 1.124.705 1.677.33 5.62-3.824 9.06-10.204 9.06-17.17C62.79 13.265 53.6 4 42.264 4c-6.64 0-12.745 3.204-16.577 8.486zm-9.988 25.6c-7.336 0-13.283-5.995-13.283-13.39 0-7.397 5.947-13.392 13.283-13.392 7.336 0 13.283 5.995 13.283 13.39 0 7.397-5.946 13.392-13.282 13.392zM45.88 58.663l-2.415-24.956-1.878 1.127 20.528 14 .535-2.218-10.264 1.217c-.312.037-.598.196-.796.442l-7.85 9.738 2.14.65zm-2.403.236c.104 1.082 1.458 1.493 2.14.65l7.847-9.74-.796.44 10.264-1.216c1.112-.132 1.463-1.585.536-2.217l-20.528-14c-.847-.577-1.978.1-1.878 1.126L43.477 58.9z"/><path fill="#4E5250" d="M8.375 27c1.312 0 2.375-1.12 2.375-2.5S9.687 22 8.375 22 6 23.12 6 24.5 7.063 27 8.375 27zm7.125 0c1.312 0 2.375-1.12 2.375-2.5S16.812 22 15.5 22s-2.375 1.12-2.375 2.5S14.188 27 15.5 27zm7.125 0C23.937 27 25 25.88 25 24.5S23.937 22 22.625 22s-2.375 1.12-2.375 2.5 1.063 2.5 2.375 2.5z"/></svg>