<?xml version="1.0" encoding="UTF-8"?>
<svg width="180px" height="180px" viewBox="0 0 180 180" version="1.1" xmlns="http://www.w3.org/2000/svg" xmlns:xlink="http://www.w3.org/1999/xlink">
    <!-- Generator: Sketch 46 (44423) - http://www.bohemiancoding.com/sketch -->
    <title>otto-app-icon</title>
    <desc>Created with Sketch.</desc>
    <defs>
        <linearGradient x1="100%" y1="0%" x2="0%" y2="100%" id="linearGradient-1">
            <stop stop-color="#A595DD" offset="0%"></stop>
            <stop stop-color="#FFA07A" offset="100%"></stop>
        </linearGradient>
        <path d="M89.9110672,157.5 C79.2390771,157.5 69.723362,155.640263 61.3636364,151.920732 C53.0039108,148.201201 45.9486454,143.231738 40.1976285,137.012195 C34.4466116,130.792652 30.0593037,123.597602 27.0355731,115.426829 C24.0118426,107.256057 22.5,98.7805317 22.5,90 C22.5,81.2194683 24.0118426,72.7439433 27.0355731,64.5731707 C30.0593037,56.4023982 34.4466116,49.2073482 40.1976285,42.9878049 C45.9486454,36.7682616 53.0039108,31.7987991 61.3636364,28.0792683 C69.723362,24.3597375 79.2390771,22.5 89.9110672,22.5 C100.583057,22.5 110.128416,24.3597375 118.547431,28.0792683 C126.966445,31.7987991 134.051355,36.7682616 139.802372,42.9878049 C145.553388,49.2073482 149.940696,56.4023982 152.964427,64.5731707 C155.988157,72.7439433 157.5,81.2194683 157.5,90 C157.5,98.7805317 155.988157,107.256057 152.964427,115.426829 C149.940696,123.597602 145.553388,130.792652 139.802372,137.012195 C134.051355,143.231738 126.966445,148.201201 118.547431,151.920732 C110.128416,155.640263 100.583057,157.5 89.9110672,157.5 Z M90,123.750001 C95.3254704,123.750001 100.085038,122.807273 104.278846,120.921788 C108.472654,119.036304 112.000725,116.553787 114.863166,113.474163 C117.725606,110.394538 119.92233,106.812172 121.453402,102.726956 C122.984475,98.6417395 123.75,94.3994634 123.75,90 C123.75,85.6005366 122.984475,81.3582605 121.453402,77.2730444 C119.92233,73.1878284 117.725606,69.6054619 114.863166,66.5258375 C112.000725,63.4462131 108.472654,60.963696 104.278846,59.0782116 C100.085038,57.1927273 95.3254704,56.2499993 90,56.2499993 C84.6745296,56.2499993 79.9149618,57.1927273 75.7211538,59.0782116 C71.5273459,60.963696 67.9992747,63.4462131 65.1368343,66.5258375 C62.274394,69.6054619 60.0776704,73.1878284 58.5465976,77.2730444 C57.0155249,81.3582605 56.25,85.6005366 56.25,90 C56.25,94.3994634 57.0155249,98.6417395 58.5465976,102.726956 C60.0776704,106.812172 62.274394,110.394538 65.1368343,113.474163 C67.9992747,116.553787 71.5273459,119.036304 75.7211538,120.921788 C79.9149618,122.807273 84.6745296,123.750001 90,123.750001 Z" id="path-2"></path>
        <filter x="-3.3%" y="-3.3%" width="106.7%" height="106.7%" filterUnits="objectBoundingBox" id="filter-3">
            <feGaussianBlur stdDeviation="3" in="SourceAlpha" result="shadowBlurInner1"></feGaussianBlur>
            <feOffset dx="0" dy="3" in="shadowBlurInner1" result="shadowOffsetInner1"></feOffset>
            <feComposite in="shadowOffsetInner1" in2="SourceAlpha" operator="arithmetic" k2="-1" k3="1" result="shadowInnerInner1"></feComposite>
            <feColorMatrix values="0 0 0 0 0.329411765   0 0 0 0 0.329411765   0 0 0 0 0.329411765  0 0 0 0.25 0" type="matrix" in="shadowInnerInner1"></feColorMatrix>
        </filter>
    </defs>
    <g id="Portfolio" stroke="none" stroke-width="1" fill="none" fill-rule="evenodd">
        <g id="otto-app-icon">
            <path d="M137.109375,3.06819787e-15 C163.125,3.06819787e-15 180,16.875 180,42.890625 L180,137.109375 C180,163.125 163.125,180 137.109375,180 L42.890625,180 C16.875,180 0,163.125 0,137.109375 L0,42.890625 C0,16.875 16.875,3.06819788e-15 42.890625,3.06819788e-15 L137.109375,3.06819787e-15 Z" id="App-Icon-Shape" fill="#FFFFFF"></path>
            <g id="OTTO-Shape">
                <use fill="url(#linearGradient-1)" fill-rule="evenodd" xlink:href="#path-2"></use>
                <use fill="black" fill-opacity="1" filter="url(#filter-3)" xlink:href="#path-2"></use>
            </g>
        </g>
    </g>
</svg>