<?xml version="1.0" encoding="UTF-8" standalone="no"?>
<svg width="360px" height="104px" viewBox="0 0 360 104" version="1.1" xmlns="http://www.w3.org/2000/svg" xmlns:xlink="http://www.w3.org/1999/xlink" xmlns:sketch="http://www.bohemiancoding.com/sketch/ns">
    <!-- Generator: Sketch 3.4.4 (17249) - http://www.bohemiancoding.com/sketch -->
    <title>kipa-logo</title>
    <desc>Created with Sketch.</desc>
    <defs></defs>
    <g id="Page-1" stroke="none" stroke-width="1" fill="none" fill-rule="evenodd" sketch:type="MSPage">
        <g id="kipa-logo" sketch:type="MSArtboardGroup">
            <rect id="bg" sketch:type="MSShapeGroup" x="0" y="0" width="360" height="104"></rect>
            <g sketch:type="MSLayerGroup" transform="translate(110.000000, 12.000000)" id="kipa-7" fill="#8E44AD">
                <g sketch:type="MSShapeGroup">
                    <path d="M17.8615768,34.6227386 C18.8547718,33.3048963 19.906722,32.073029 21.0170954,30.9271369 L28.5550207,22.7628216 C29.606971,21.6169295 30.6439834,20.8149378 31.66639,20.3565145 C32.6891286,19.8980913 33.9014108,19.6690456 35.3039004,19.6690456 C36.8232365,19.6690456 38.0939419,19.9555187 39.1166805,20.5284647 C40.1394191,21.1014108 41.0887967,21.8463071 41.9651452,22.7628216 L26.9772614,39.0058091 L33.8137759,51.8111203 C34.3395851,52.7850622 35.0994191,54.0026556 36.0926141,55.4635685 C37.0858091,56.9244813 38.3422407,58.1420747 39.8615768,59.1160166 C39.0436515,59.9180083 37.8894606,60.620083 36.3993361,61.2215768 C34.9092116,61.8230705 33.3171784,62.1238174 31.6225726,62.1238174 C30.6293776,62.1238174 29.7234855,62.0378423 28.9055602,61.8658921 C28.0876349,61.6939419 27.3278008,61.393195 26.626722,60.9636515 C25.9256432,60.5337759 25.253444,59.9322822 24.6107884,59.1588382 C23.9681328,58.3853942 23.3251452,57.3682988 22.6824896,56.1078838 L18.0371784,47.3417427 C17.7450622,46.7113693 17.2776763,45.7663071 16.6346888,44.5055602 C15.9920332,43.2451452 15.6122822,41.9558506 15.4951037,40.6383402 L11.9890456,61.2643983 L0.331618257,61.2643983 L10.586556,0.675518672 C11.2876349,0.560995851 11.9890456,0.475020747 12.6901245,0.417593361 C13.3912033,0.360165975 14.0341909,0.331618257 14.6184232,0.331618257 C16.9556846,0.331618257 18.6210788,0.890290456 19.6142739,2.00763485 C20.6074689,3.12497925 21.1043983,4.51419087 21.1043983,6.17593361 C21.1043983,6.51983402 21.0897925,6.86340249 21.0605809,7.2073029 C21.0313693,7.55120332 20.9875519,7.89477178 20.9291286,8.2386722 L15.933278,37.7168465 C16.2838174,36.8574274 16.926473,35.8260581 17.8615768,34.6230705 L17.8615768,34.6227386 Z M47.9541909,20.6141079 C48.6552697,20.4995851 49.3712863,20.41361 50.1015768,20.3561826 C50.8318672,20.2987552 51.4894606,20.2702075 52.0736929,20.2702075 C54.4693776,20.2702075 56.1785892,20.8288797 57.2009959,21.9462241 C58.2237344,23.0635685 58.7349378,24.4527801 58.7349378,26.1145228 C58.7349378,26.4584232 58.720332,26.8019917 58.6911203,27.1458921 C58.6619087,27.4897925 58.6180913,27.833361 58.559668,28.1772614 L54.7030705,50.8660581 C54.5862241,51.4964315 54.4985892,52.1407469 54.440166,52.799668 C54.3817427,53.4585892 54.3525311,54.1317842 54.3525311,54.8192531 C54.3525311,55.9077178 54.4255602,56.9965145 54.5716183,58.0849793 C54.7176763,59.173444 54.9367635,60.1188382 55.2288797,60.9211618 C54.2356846,61.4941079 53.2567635,61.8951037 52.2927801,62.1244813 C51.3287967,62.353527 50.2914523,62.4683817 49.1814108,62.4683817 C46.7857261,62.4683817 45.0180913,62.0099585 43.8785062,61.093444 C42.7389212,60.1765975 42.1692946,58.486639 42.1692946,56.0229046 C42.1692946,55.7938589 42.1839004,55.4927801 42.213112,55.1206639 C42.2423237,54.7482158 42.2861411,54.4189212 42.3445643,54.1324481 L47.9541909,20.6151037 L47.9541909,20.6141079 Z M55.3168465,13.4808299 C53.446971,13.4808299 52.0152697,12.9078838 51.0220747,11.7619917 C50.0288797,10.6160996 49.5319502,9.26970954 49.5319502,7.72282158 C49.5319502,5.31651452 50.233029,3.48315353 51.6355187,2.22240664 C53.0380083,0.961991701 54.7030705,0.331618257 56.6313693,0.331618257 C58.5012448,0.331618257 59.9329461,0.904564315 60.9261411,2.05045643 C61.9193361,3.19634855 62.4162656,4.62871369 62.4162656,6.34755187 C62.4162656,8.58190871 61.7151867,10.3296266 60.3126971,11.5900415 C58.9102075,12.8504564 57.2451452,13.4808299 55.3168465,13.4808299 L55.3168465,13.4808299 Z M68.6038174,20.2702075 C70.0063071,20.2702075 71.2624066,20.5281328 72.3727801,21.0436515 C73.4831535,21.5591701 74.3595021,22.7339419 75.0021577,24.5673029 C76.1709544,23.306888 77.7045643,22.1324481 79.6036515,21.0436515 C81.5027386,19.9551867 83.766971,19.4107884 86.3963485,19.4107884 C88.73361,19.4107884 90.720332,19.840332 92.3565145,20.699751 C93.9926971,21.5591701 95.2926141,22.7478838 96.2569295,24.2662241 C97.2209129,25.7845643 97.9223237,27.5319502 98.3604979,29.5087137 C98.7986722,31.4854772 99.0177593,33.5910373 99.0177593,35.8253942 C99.0177593,39.3775934 98.506556,42.7724481 97.4838174,46.0096266 C96.4610788,49.246805 95.0151037,52.0829876 93.1452282,54.5178423 C91.2753527,56.953029 89.0257261,58.9009129 86.3963485,60.3618257 C83.766971,61.8227386 80.8743568,62.553361 77.7191701,62.553361 C75.8492946,62.553361 74.2423237,62.2954357 72.8985892,61.779917 C71.5545228,61.2643983 70.4152697,60.6914523 69.480166,60.0610788 L66.1493776,79.999668 L54.5795851,79.999668 L64.4839834,20.6137759 C65.1850622,20.4992531 65.9010788,20.413278 66.6313693,20.3558506 C67.3616598,20.2984232 68.0192531,20.2698755 68.6034855,20.2698755 L68.6038174,20.2702075 Z M75.6156017,53.9595021 C77.0765145,53.9595021 78.493278,53.5727801 79.866556,52.7993361 C81.239834,52.0258921 82.4375104,50.8657261 83.460249,49.3188382 C84.4829876,47.7719502 85.3009129,45.8526141 85.9143568,43.5608299 C86.5278008,41.2690456 86.8345228,38.6048133 86.8345228,35.5681328 C86.8345228,32.9898755 86.3087137,31.0990871 85.2567635,29.8960996 C84.2048133,28.6927801 82.8610788,28.0912863 81.2248963,28.0912863 C80.2317012,28.0912863 79.3112033,28.3349378 78.4640664,28.8219087 C77.6169295,29.3088797 76.8570954,29.9392531 76.1852282,30.7126971 C75.513361,31.4861411 74.9434025,32.3455602 74.4760166,33.2909544 C74.0086307,34.2363485 73.7165145,35.1674689 73.599668,36.0839834 L70.7073859,52.8424896 C71.3500415,53.3009129 72.0076349,53.6016598 72.6795021,53.7447303 C73.3513693,53.8881328 74.3302905,53.9595021 75.6156017,53.9595021 L75.6156017,53.9595021 Z M124.010622,56.7956846 C122.666556,58.5145228 121.074523,59.9040664 119.233859,60.9639834 C117.393195,62.0239004 115.187386,62.5540249 112.616432,62.5540249 C110.220747,62.5540249 108.248631,62.1673029 106.700083,61.3938589 C105.151535,60.6204149 103.924647,59.5604979 103.018755,58.2141079 C102.113195,56.8677178 101.470207,55.2491286 101.090456,53.3583402 C100.710705,51.4675519 100.52083,49.4051452 100.52083,47.1704564 C100.52083,43.6182573 101.090456,40.1805809 102.230041,36.8574274 C103.369627,33.5342739 105.005477,30.5835685 107.138257,28.0053112 C109.271037,25.4270539 111.827386,23.3500415 114.807635,21.7746058 C117.787552,20.1988382 121.11834,19.4111203 124.799668,19.4111203 C127.136929,19.4111203 129.707884,19.7692946 132.512863,20.4853112 C135.31751,21.2016598 137.976432,22.3043983 140.488963,23.7941909 L135.931286,50.8657261 C135.756017,51.7251452 135.668382,52.6705394 135.668382,53.7019087 C135.668382,54.9623237 135.770622,56.2373444 135.975104,57.5263071 C136.179585,58.8156017 136.486307,59.946888 136.89527,60.9211618 C135.902075,61.4941079 134.850124,61.8951037 133.739751,62.1244813 C132.629378,62.353527 131.519336,62.4683817 130.408963,62.4683817 C128.539087,62.4683817 127.048963,62.0242324 125.938921,61.1362656 C124.828548,60.2482988 124.185892,58.8016598 124.010622,56.7963485 L124.010622,56.7956846 Z M124.185892,28.0053112 C122.666556,28.0053112 121.205975,28.4494606 119.803485,29.3374274 C118.400996,30.2253942 117.144896,31.4858091 116.034523,33.1190041 C114.924149,34.7518672 114.033195,36.7429046 113.361328,39.0921162 C112.689461,41.4413278 112.353527,44.0766805 112.353527,46.9988382 C112.353527,51.5249793 113.931286,53.7882158 117.086473,53.7882158 C118.138423,53.7882158 119.102407,53.5445643 119.978755,53.0575934 C120.855104,52.5706224 121.644149,51.9259751 122.345228,51.1239834 C123.046307,50.3219917 123.630871,49.3908714 124.098257,48.3309544 C124.565643,47.2710373 124.886971,46.1394191 125.062241,44.9360996 L127.779253,29.0370124 C126.610456,28.3495436 125.41278,28.0056432 124.18556,28.0056432 L124.185892,28.0053112 Z" id="Shape"></path>
                </g>
            </g>
        </g>
    </g>
</svg>