<?xml version="1.0" encoding="UTF-8" standalone="no"?>
<svg width="360px" height="104px" viewBox="0 0 360 104" version="1.1" xmlns="http://www.w3.org/2000/svg" xmlns:xlink="http://www.w3.org/1999/xlink" xmlns:sketch="http://www.bohemiancoding.com/sketch/ns">
    <!-- Generator: Sketch 3.4.4 (17249) - http://www.bohemiancoding.com/sketch -->
    <title>gfs-logo</title>
    <desc>Created with Sketch.</desc>
    <defs></defs>
    <g id="Page-1" stroke="none" stroke-width="1" fill="none" fill-rule="evenodd" sketch:type="MSPage">
        <g id="gfs-logo" sketch:type="MSArtboardGroup">
            <rect id="bg" sketch:type="MSShapeGroup" x="0" y="0" width="360" height="104"></rect>
            <g sketch:type="MSLayerGroup" transform="translate(0.000000, 12.000000)">
                <path d="M44.9832402,12 L54.972067,32.2122905 L77.2625698,35.4301676 L61.1396648,51.1843575 L64.9273743,73.3743017 L44.9832402,62.8826816 L25.0391061,73.3743017 L28.8603352,51.1843575 L12.7039106,35.4301676 L35.027933,32.2122905 L44.9832402,12 Z M111.653631,12 L121.608939,32.2122905 L143.932961,35.4301676 L127.776536,51.1843575 L131.597765,73.3743017 L111.653631,62.8826816 L91.6759777,73.3743017 L95.4972067,51.1843575 L79.3743017,35.4301676 L101.664804,32.2122905 L111.653631,12 Z M178.290503,12 L188.27933,32.2122905 L210.569832,35.4301676 L194.413408,51.1843575 L198.234637,73.3743017 L178.290503,62.8826816 L158.346369,73.3743017 L162.167598,51.1843575 L146.011173,35.4301676 L168.301676,32.2122905 L178.290503,12 Z M244.927374,12 L254.916201,32.2122905 L277.206704,35.4301676 L261.083799,51.1843575 L264.905028,73.3743017 L244.927374,62.8826816 L224.98324,73.3743017 L228.804469,51.1843575 L212.648045,35.4301676 L234.972067,32.2122905 L244.927374,12 Z M311.597765,12 L321.553073,32.2122905 L343.877095,35.4301676 L327.72067,51.1843575 L331.541899,73.3743017 L311.597765,62.8826816 L291.653631,73.3743017 L295.441341,51.1843575 L279.318436,35.4301676 L301.608939,32.2122905 L311.597765,12 Z" id="stars" fill="#CEDCE1" sketch:type="MSShapeGroup"></path>
                <path d="M21.3184358,52.6927374 C21.2178771,52.8603352 20.9162011,53.1284916 20.4469274,53.5307263 C19.9776536,53.9329609 19.3407821,54.3351955 18.5363128,54.8044693 C17.7318436,55.2402235 16.7932961,55.6424581 15.6871508,55.9776536 C14.5810056,56.3128492 13.3743017,56.4804469 12,56.4804469 C9.11731844,56.4804469 6.80446927,55.575419 5.06145251,53.7653631 C3.31843575,51.9553073 2.44692737,49.575419 2.44692737,46.5586592 C2.44692737,44.4804469 2.78212291,42.4357542 3.41899441,40.424581 C4.05586592,38.4134078 5.09497207,36.603352 6.5027933,34.9944134 C7.91061453,33.3854749 9.68715084,32.0782123 11.8324022,31.1061453 C13.9776536,30.1340782 16.5586592,29.6312849 19.6089385,29.6312849 C20.7486034,29.6312849 21.6871508,29.7318436 22.4916201,29.8994413 C23.2960894,30.0670391 23.9664804,30.2681564 24.5363128,30.4357542 C25.1061453,30.6368715 25.575419,30.8044693 25.9776536,30.972067 C26.3798883,31.1396648 26.7486034,31.2402235 27.0837989,31.2402235 C27.9888268,31.2402235 29.0614525,30.972067 30.301676,30.4357542 C31.5418994,29.8994413 32.7486034,29.6312849 33.9553073,29.6312849 C34.7932961,29.6312849 35.2290503,30.0670391 35.2290503,30.9050279 C35.2290503,31.3072626 35.1284916,31.7765363 34.9608939,32.3128492 C34.7932961,32.849162 34.5251397,33.7541899 34.1899441,34.9608939 C33.8547486,36.2011173 33.452514,37.9106145 32.9497207,40.0893855 C32.4804469,42.2681564 31.9441341,45.150838 31.3743017,48.7709497 C31.0391061,50.9162011 30.6703911,53.1955307 30.2681564,55.575419 C29.8659218,57.9553073 29.3631285,60.3687151 28.6927374,62.7150838 C28.0558659,65.0949721 27.2513966,67.3407821 26.3798883,69.452514 C25.4748603,71.5642458 24.3351955,73.4413408 22.9608939,75.0837989 C21.5865922,76.726257 19.9441341,78 18.1005587,78.972067 C16.2234637,79.9441341 14.0446927,80.4134078 11.4972067,80.4134078 C9.98882682,80.4134078 8.51396648,80.2122905 7.10614525,79.7765363 C5.69832402,79.3407821 4.45810056,78.7374302 3.41899441,77.8994413 C2.37988827,77.0949721 1.54189944,76.0893855 0.938547486,74.8826816 C0.301675978,73.7094972 0,72.3687151 0,70.8938547 C0,69.2178771 0.301675978,67.7430168 0.87150838,66.5363128 C1.47486034,65.3296089 2.1452514,64.3240223 2.94972067,63.5865922 C3.75418994,62.8156425 4.55865922,62.2458101 5.36312849,61.9106145 C6.16759777,61.5418994 6.83798883,61.3743017 7.34078212,61.3743017 C7.97765363,61.3743017 8.27932961,61.6424581 8.27932961,62.1452514 C8.27932961,62.5810056 8.1452514,62.9832402 7.91061453,63.3184358 C7.6424581,63.6536313 7.54189944,64.2905028 7.54189944,65.2625698 C7.54189944,66.5027933 7.97765363,67.4748603 8.84916201,68.1787709 C9.72067039,68.8826816 10.8938547,69.2513966 12.3687151,69.2513966 C13.6089385,69.2513966 14.6815642,68.8826816 15.5865922,68.1452514 C16.4916201,67.4078212 17.2625698,66.4692737 17.8994413,65.3631285 C18.5363128,64.2234637 19.1061453,62.9832402 19.5418994,61.6424581 C19.9776536,60.301676 20.3463687,58.9944134 20.6145251,57.7877095 C20.8826816,56.5810056 21.0502793,55.5083799 21.150838,54.5698324 C21.2513966,53.6648045 21.3184358,53.027933 21.3184358,52.6927374 L21.3184358,52.6927374 Z M62.7102283,46.4414966 C62.5845802,46.5375269 62.4522368,46.6436202 62.3128492,46.7597765 C61.8435754,47.1620112 61.3407821,47.5977654 60.7039106,48.0670391 C60.0670391,48.5698324 59.396648,49.0391061 58.6256983,49.4748603 C57.8882682,49.9106145 57.0502793,50.3128492 56.1452514,50.6145251 C55.2402235,50.9162011 54.2681564,51.0837989 53.1955307,51.0837989 L53.1955307,51.0837989 C51.1843575,51.0837989 49.6089385,50.5810056 48.5363128,49.575419 C47.4301676,48.5698324 46.8938547,47.3296089 46.8938547,45.8547486 C49.0055866,45.6871508 50.9162011,45.3184358 52.6592179,44.6815642 C54.4022346,44.0782123 55.9106145,43.3072626 57.150838,42.3687151 C58.3910615,41.4636872 59.3631285,40.424581 60.0335196,39.2513966 C60.7039106,38.0782123 61.0391061,36.9050279 61.0391061,35.7318436 C61.0391061,33.9217877 60.3351955,32.4469274 58.9944134,31.273743 C57.6536313,30.1005587 55.5418994,29.5307263 52.6592179,29.5307263 C49.8100559,29.5307263 47.3296089,29.9664804 45.1173184,30.8044693 C42.9050279,31.6424581 41.027933,32.7821229 39.5195531,34.2234637 C37.9776536,35.6648045 36.8044693,37.3407821 36,39.2178771 C35.1620112,41.0949721 34.7597765,43.0391061 34.7597765,45.0837989 C34.7597765,49.1396648 36,52.0893855 38.5139665,53.9664804 C40.9944134,55.8100559 44.2793296,56.7486034 48.2681564,56.7486034 C50.3128492,56.7486034 52.122905,56.5139665 53.698324,56.0782123 C55.273743,55.6089385 56.6815642,55.0391061 57.8882682,54.3351955 C59.1284916,53.6312849 60.1675978,52.8603352 61.0726257,52.0223464 C61.7047383,51.4136454 62.2877957,50.8539995 62.8103772,50.3205673 C63.106784,51.749834 63.7379837,53.0060849 64.6927374,54.1005587 C66.0670391,55.6759777 68.2793296,56.4804469 71.3296089,56.4804469 C72.9050279,56.4804469 74.5139665,56.1117318 76.1564246,55.3407821 C77.7988827,54.603352 79.273743,53.698324 80.6145251,52.6927374 C81.9553073,51.6871508 83.027933,50.6480447 83.8324022,49.6089385 C84.6703911,48.5698324 85.0726257,47.7653631 85.0726257,47.1284916 C85.0726257,46.8603352 84.972067,46.6256983 84.7709497,46.424581 C84.5698324,46.2234637 84.301676,46.122905 83.9664804,46.122905 C83.698324,46.122905 83.2960894,46.2905028 82.8268156,46.6592179 C82.3575419,47.027933 81.8547486,47.4636872 81.3184358,47.8994413 C80.7821229,48.3687151 80.2122905,48.7709497 79.575419,49.1396648 C78.9385475,49.5083799 78.301676,49.6759777 77.698324,49.6759777 C76.6927374,49.6759777 75.8882682,49.4078212 75.2849162,48.9050279 C74.7150838,48.4022346 74.4134078,47.4972067 74.4134078,46.1899441 C74.4134078,44.7821229 74.6145251,43.1731844 75.0502793,41.2960894 C75.4860335,39.4189944 75.8547486,37.877095 76.1899441,36.6368715 C76.4916201,35.6312849 76.8938547,34.9273743 77.4301676,34.5251397 C77.9664804,34.122905 78.7709497,33.9217877 79.8435754,33.9217877 L79.8435754,33.9217877 C80.3463687,33.9217877 80.8156425,33.6536313 81.1173184,33.0837989 C81.5195531,32.547486 81.7206704,31.8435754 81.7206704,31.0055866 C81.7206704,30.3687151 81.3519553,30.0670391 80.547486,30.0670391 C79.2402235,30.0670391 78.4357542,29.8994413 78.1340782,29.6312849 C77.8324022,29.3296089 77.6648045,28.9273743 77.6648045,28.3575419 C77.6648045,28.0223464 77.7318436,27.5530726 77.8324022,26.9497207 C77.9664804,26.3798883 78.1005587,25.7765363 78.2681564,25.1396648 C78.4357542,24.5027933 78.603352,23.8659218 78.7039106,23.2290503 C78.8044693,22.5921788 78.8715084,22.0223464 78.8715084,21.5865922 C78.8715084,21.2513966 78.7709497,20.9162011 78.5363128,20.6480447 C78.3351955,20.3463687 77.9664804,20.2122905 77.5307263,20.2122905 C76.7932961,20.2122905 76.0558659,20.849162 75.2513966,22.0893855 C74.6815642,22.9944134 74.0446927,23.8994413 73.273743,24.8379888 C72.5027933,25.7765363 71.6648045,26.6145251 70.726257,27.3854749 C69.7877095,28.1564246 68.7821229,28.7932961 67.7094972,29.2960894 C66.6368715,29.7988827 65.5642458,30.0670391 64.424581,30.0670391 C63.9553073,30.0670391 63.6201117,30.3351955 63.3519553,30.9385475 C63.1173184,31.5418994 62.9832402,32.0782123 62.9832402,32.5139665 C62.9832402,32.9162011 63.0837989,33.1843575 63.3184358,33.3184358 C63.5530726,33.452514 63.8212291,33.5530726 64.122905,33.6536313 C64.424581,33.7541899 64.6927374,33.8212291 64.9273743,33.9217877 C65.1620112,33.9888268 65.2625698,34.1899441 65.2625698,34.4581006 C65.2625698,35.5307263 65.0949721,36.603352 64.8268156,37.6759777 C64.5586592,38.7486034 64.2569832,39.8212291 63.9553073,40.9608939 C63.6201117,42.1005587 63.3184358,43.273743 63.0502793,44.4804469 C62.8929067,45.1099374 62.7811425,45.7667929 62.7102283,46.4414966 Z M22.9273743,35.5977654 C22.9273743,33.9553073 21.9553073,33.150838 20.0446927,33.150838 C18.972067,33.150838 18.0335196,33.6536313 17.1955307,34.6592179 C16.3910615,35.6648045 15.6871508,36.8715084 15.1173184,38.3128492 C14.547486,39.7206704 14.1452514,41.1955307 13.8435754,42.7374302 C13.575419,44.2793296 13.4078212,45.5865922 13.4078212,46.6592179 C13.4078212,47.7988827 13.6759777,48.7374302 14.1787709,49.5083799 C14.6815642,50.2793296 15.4189944,50.6480447 16.3910615,50.6480447 C18.301676,50.6480447 19.7765363,49.3072626 20.7821229,46.6592179 C21.0167598,45.9888268 21.2513966,45.150838 21.4860335,44.1117318 C21.7541899,43.1061453 21.9888268,42.0670391 22.1899441,41.027933 C22.424581,39.9888268 22.5921788,38.9832402 22.6927374,37.9776536 C22.8603352,37.0391061 22.9273743,36.2346369 22.9273743,35.5977654 L22.9273743,35.5977654 Z M46.8603352,42.301676 C48.0335196,42.0670391 49.1396648,41.6648045 50.1117318,41.0614525 C51.0837989,40.4581006 51.9553073,39.8212291 52.6592179,39.1173184 C53.3631285,38.4134078 53.8994413,37.7094972 54.2681564,36.972067 C54.6368715,36.2346369 54.8044693,35.6312849 54.8044693,35.0949721 C54.8044693,33.7877095 54.1340782,33.150838 52.7597765,33.150838 C52.122905,33.150838 51.4860335,33.3854749 50.7821229,33.8547486 C50.0782123,34.3240223 49.4413408,34.9944134 48.8379888,35.8324022 C48.2346369,36.6703911 47.7653631,37.6424581 47.396648,38.7486034 C47.0614525,39.8882682 46.8603352,41.0614525 46.8603352,42.301676 L46.8603352,42.301676 Z" id="get" fill="#084F66" sketch:type="MSShapeGroup"></path>
                <path d="M157.798562,49.6186815 C157.713559,49.6936783 157.626187,49.7760478 157.536313,49.8659218 C156.96648,50.4357542 156.497207,50.8715084 156.061453,51.1731844 C155.625698,51.4748603 155.055866,51.6424581 154.318436,51.6424581 C153.547486,51.6424581 152.877095,51.3407821 152.340782,50.7374302 C151.804469,50.1340782 151.536313,49.2960894 151.536313,48.1564246 C151.536313,46.7486034 151.703911,45.4078212 151.972067,44.0670391 C152.273743,42.726257 152.575419,41.452514 152.910615,40.2122905 C153.24581,38.972067 153.581006,37.8324022 153.849162,36.7597765 C154.150838,35.6871508 154.284916,34.7150838 154.284916,33.877095 C154.284916,32.4022346 153.312849,31.6648045 151.402235,31.6648045 C150.162011,31.6648045 148.988827,31.7318436 147.849162,31.8659218 C146.709497,32 145.703911,32.2346369 144.832402,32.5027933 C143.960894,32.7709497 143.256983,33.1061453 142.75419,33.5083799 C142.251397,33.9106145 141.98324,34.3463687 141.98324,34.7821229 C141.98324,35.3519553 142.083799,35.7541899 142.251397,36.0223464 C142.418994,36.2569832 142.519553,36.7597765 142.519553,37.4972067 C142.519553,38.301676 142.351955,39.2067039 142.083799,40.2122905 C141.815642,41.2178771 141.480447,42.3575419 141.111732,43.5977654 C140.743017,44.8379888 140.407821,46.1117318 140.139665,47.452514 C139.837989,48.7932961 139.703911,50.1340782 139.703911,51.4748603 C139.703911,53.452514 140.407821,55.1284916 141.782123,56.4692737 C143.156425,57.8435754 145.268156,58.5139665 148.083799,58.5139665 L148.083799,58.5139665 C149.458101,58.5139665 150.664804,58.3128492 151.77095,57.9441341 C152.877095,57.575419 153.882682,57.1061453 154.787709,56.5363128 C155.692737,55.9664804 156.497207,55.3631285 157.167598,54.726257 C157.443281,54.464358 157.701959,54.2081274 157.9413,53.9575652 C158.206744,54.8813823 158.670438,55.7274607 159.346369,56.5027933 C160.452514,57.8100559 162.195531,58.4469274 164.575419,58.4469274 C167.458101,58.4469274 170.240223,57.7430168 172.955307,56.4022346 C175.670391,55.0614525 178.083799,53.3854749 180.195531,51.3407821 C182.307263,49.2960894 184.01676,47.0502793 185.324022,44.603352 C186.631285,42.1564246 187.268156,39.8435754 187.268156,37.6312849 C187.268156,35.7877095 186.832402,34.3128492 185.927374,33.2402235 C185.022346,32.1675978 183.748603,31.6312849 182.106145,31.6312849 C180.698324,31.6312849 179.49162,32.0670391 178.519553,32.9050279 C177.547486,33.7765363 177.044693,34.9497207 177.044693,36.4581006 C177.044693,37.1955307 177.145251,37.7988827 177.379888,38.2681564 C177.581006,38.7709497 177.815642,39.1731844 178.083799,39.5418994 C178.318436,39.9106145 178.553073,40.2458101 178.787709,40.547486 C179.022346,40.849162 179.122905,41.1843575 179.122905,41.5865922 C179.122905,42.6592179 178.854749,43.7988827 178.351955,44.972067 C177.849162,46.1452514 177.212291,47.2513966 176.407821,48.2234637 C175.636872,49.1955307 174.765363,50.0335196 173.793296,50.6703911 C172.854749,51.3072626 171.916201,51.6424581 171.011173,51.6424581 C169.73743,51.6424581 169.134078,51.0055866 169.134078,49.698324 C169.134078,48.424581 169.301676,47.0502793 169.603352,45.575419 C169.938547,44.1340782 170.273743,42.6927374 170.675978,41.2513966 C171.078212,39.8100559 171.446927,38.4692737 171.748603,37.1955307 C172.050279,35.9553073 172.217877,34.8156425 172.217877,33.877095 C172.217877,32.4357542 171.24581,31.698324 169.335196,31.698324 C168.094972,31.698324 166.921788,31.7653631 165.782123,31.8994413 C164.642458,32.0335196 163.636872,32.2681564 162.765363,32.5363128 C161.893855,32.8044693 161.189944,33.1396648 160.687151,33.5418994 C160.184358,33.9441341 159.916201,34.3798883 159.916201,34.8156425 C159.916201,35.3854749 160.01676,35.7877095 160.184358,36.0558659 C160.351955,36.2905028 160.452514,36.7932961 160.452514,37.5307263 L160.452514,37.5307263 C160.452514,38.3351955 160.318436,39.2402235 160.050279,40.2458101 C159.782123,41.3184358 159.446927,42.4916201 159.078212,43.7653631 C158.709497,45.0391061 158.374302,46.3798883 158.106145,47.7541899 C157.970976,48.3699628 157.869453,48.9924651 157.798562,49.6186815 Z M114.430168,59.0837989 C112.351955,59.0837989 110.441341,58.7821229 108.664804,58.2122905 C106.921788,57.6089385 105.379888,56.7709497 104.106145,55.6648045 C102.798883,54.5586592 101.793296,53.2513966 101.055866,51.7430168 C100.318436,50.2346369 99.9497207,48.4916201 99.9497207,46.5810056 C99.9497207,44.603352 100.318436,42.8603352 101.089385,41.2849162 C101.860335,39.7430168 102.832402,38.4357542 104.005587,37.396648 C105.178771,36.3575419 106.519553,35.5530726 107.994413,35.0167598 C109.469274,34.4804469 110.910615,34.2122905 112.385475,34.2122905 C113.692737,34.2122905 114.564246,34.3128492 115,34.547486 C115.435754,34.7821229 115.670391,35.0502793 115.670391,35.3854749 C115.670391,36.0223464 115.301676,36.3910615 114.564246,36.5586592 C113.592179,36.8268156 112.687151,37.4636872 111.815642,38.4692737 C110.944134,39.4413408 110.50838,40.6145251 110.50838,41.8882682 C110.50838,43.3631285 110.977654,44.5363128 111.949721,45.4748603 C112.921788,46.4134078 114.162011,46.8826816 115.670391,46.8826816 C117.312849,46.8826816 118.687151,46.4134078 119.860335,45.4748603 C121,44.5363128 121.972067,43.2960894 122.776536,41.7541899 C123.581006,40.2122905 124.217877,38.4357542 124.72067,36.424581 C125.223464,34.4134078 125.692737,32.3687151 126.061453,30.2905028 L122.407821,30.2905028 C121.670391,30.2905028 121.301676,29.9217877 121.301676,29.1843575 C121.301676,28.5810056 121.569832,27.8435754 122.106145,27.0391061 C122.642458,26.2346369 123.145251,25.7988827 123.581006,25.7988827 L126.798883,25.7988827 C127.134078,23.9888268 127.469274,22.2122905 127.804469,20.4692737 C128.139665,18.726257 128.541899,17.1173184 128.977654,15.6424581 C129.480447,14 130.150838,12.6592179 130.955307,11.6201117 C131.759777,10.5810056 132.664804,9.77653631 133.603352,9.20670391 C132.094972,8.63687151 130.653631,8.23463687 129.27933,8.03351955 C127.938547,7.79888268 126.195531,7.69832402 124.117318,7.69832402 C121.703911,7.69832402 119.726257,8.33519553 118.184358,9.60893855 C116.675978,10.8826816 115.905028,12.2905028 115.905028,13.8659218 C115.905028,15.1061453 116.240223,16.0446927 116.877095,16.6480447 C117.513966,17.2849162 118.385475,17.5865922 119.458101,17.5865922 C120.128492,17.5865922 120.664804,17.452514 121.03352,17.150838 C121.402235,16.8826816 121.73743,16.7150838 122.106145,16.7150838 C122.675978,16.7150838 122.944134,17.0167598 122.944134,17.6536313 C122.944134,18.4581006 122.709497,19.3296089 122.240223,20.301676 C121.77095,21.273743 121.067039,22.2122905 120.195531,23.0837989 C119.324022,23.9553073 118.251397,24.6927374 117.011173,25.2960894 C115.77095,25.8994413 114.430168,26.1675978 112.955307,26.1675978 C111.648045,26.1675978 110.407821,25.9329609 109.234637,25.4636872 C108.061453,24.9944134 107.022346,24.3240223 106.150838,23.4860335 C105.27933,22.6480447 104.575419,21.6089385 104.072626,20.4022346 C103.569832,19.1955307 103.301676,17.8547486 103.301676,16.3798883 C103.301676,14.1340782 103.804469,12.0893855 104.810056,10.2793296 C105.815642,8.46927374 107.189944,6.96089385 108.865922,5.72067039 C110.541899,4.48044693 112.519553,3.54189944 114.731844,2.87150838 C117.111732,2.33519553 119.424581,2 121.804469,2 C125.592179,2 128.675978,2.23463687 131.055866,2.70391061 C133.435754,3.17318436 135.379888,3.40782123 136.854749,3.40782123 C138.195531,3.40782123 139.335196,3.17318436 140.273743,2.70391061 C141.212291,2.23463687 141.916201,2 142.418994,2 C143.424581,2 143.927374,2.46927374 143.927374,3.44134078 C143.927374,3.87709497 143.625698,4.48044693 143.055866,5.21787709 C142.452514,5.95530726 141.581006,7.26256983 140.407821,9.20670391 C139.234637,11.1173184 138.363128,13.5307263 137.793296,16.4469274 C137.223464,19.3631285 136.72067,22.4804469 136.284916,25.8659218 L140.106145,25.8659218 C140.608939,25.8659218 140.877095,26.1340782 140.877095,26.7039106 C140.877095,27.3743017 140.608939,28.1452514 140.072626,29.0167598 C139.536313,29.8882682 138.96648,30.3240223 138.329609,30.3240223 L135.715084,30.3240223 C135.27933,33.7765363 134.675978,37.1955307 133.938547,40.6480447 C133.201117,44.1005587 132.061453,47.1843575 130.553073,49.8994413 C129.044693,52.6480447 127,54.8603352 124.418994,56.5363128 C121.804469,58.2458101 118.486034,59.0837989 114.430168,59.0837989 L114.430168,59.0837989 Z M144.731844,22.6480447 C144.731844,21.8100559 144.899441,20.972067 145.234637,20.1675978 C145.569832,19.3631285 146.039106,18.5921788 146.642458,17.9217877 C147.24581,17.2513966 147.916201,16.7150838 148.687151,16.3128492 C149.458101,15.9106145 150.22905,15.7094972 151,15.7094972 C152.50838,15.7094972 153.681564,16.1452514 154.519553,16.9832402 C155.324022,17.8212291 155.759777,18.8938547 155.759777,20.2011173 C155.759777,21.0391061 155.592179,21.877095 155.256983,22.7486034 C154.921788,23.5865922 154.452514,24.3575419 153.849162,24.9944134 C153.24581,25.6312849 152.575419,26.1675978 151.804469,26.603352 C151.03352,27.0391061 150.26257,27.2402235 149.49162,27.2402235 C148.184358,27.2402235 147.078212,26.8044693 146.139665,25.9329609 C145.167598,25.027933 144.731844,23.9217877 144.731844,22.6480447 Z M206.307263,53.0837989 C207.782123,53.0837989 209.022346,52.8156425 210.061453,52.3128492 C211.100559,51.8100559 211.972067,51.3407821 212.642458,50.8715084 C213.078212,50.603352 213.446927,50.3351955 213.748603,50.1675978 C214.01676,49.9664804 214.318436,49.8659218 214.586592,49.8659218 C214.921788,49.8659218 215.189944,49.9664804 215.391061,50.1675978 C215.592179,50.3687151 215.692737,50.603352 215.692737,50.8715084 C215.692737,51.3072626 215.558659,51.7430168 215.256983,52.1452514 C214.988827,52.547486 214.486034,53.0837989 213.815642,53.7541899 C213.379888,54.1899441 212.776536,54.726257 212.072626,55.3296089 C211.368715,55.9329609 210.530726,56.4692737 209.52514,56.972067 C208.553073,57.4748603 207.413408,57.9106145 206.173184,58.2458101 C204.932961,58.5810056 203.558659,58.7486034 202.01676,58.7486034 C200.039106,58.7486034 198.195531,58.5139665 196.519553,58.0782123 C194.843575,57.6424581 193.368715,56.9385475 192.128492,55.9664804 C190.888268,54.9944134 189.916201,53.7877095 189.24581,52.3128492 C188.575419,50.8379888 188.240223,49.0949721 188.240223,47.0837989 C188.240223,45.0391061 188.642458,43.0949721 189.480447,41.2178771 C190.284916,39.3407821 191.458101,37.6648045 193,36.2234637 C194.50838,34.7821229 196.385475,33.6424581 198.597765,32.8044693 C200.810056,31.9664804 203.290503,31.5307263 206.139665,31.5307263 C209.022346,31.5307263 211.134078,32.1005587 212.47486,33.273743 C213.815642,34.4469274 214.519553,35.9217877 214.519553,37.7318436 C214.519553,38.9050279 214.184358,40.0782123 213.513966,41.2513966 C212.843575,42.424581 211.871508,43.4636872 210.631285,44.3687151 C209.391061,45.3072626 207.882682,46.0782123 206.139665,46.6815642 C204.396648,47.3184358 202.486034,47.6871508 200.374302,47.8547486 C200.374302,49.3296089 200.944134,50.5698324 202.117318,51.575419 C203.256983,52.5810056 204.664804,53.0837989 206.307263,53.0837989 L206.307263,53.0837989 Z M200.374302,44.301676 C201.547486,44.0670391 202.653631,43.6648045 203.625698,43.0614525 C204.597765,42.4581006 205.469274,41.8212291 206.173184,41.1173184 C206.877095,40.4134078 207.413408,39.7094972 207.782123,38.972067 C208.150838,38.2346369 208.318436,37.6312849 208.318436,37.0949721 C208.318436,35.7877095 207.648045,35.150838 206.273743,35.150838 C205.636872,35.150838 205,35.3854749 204.296089,35.8547486 C203.592179,36.3240223 202.955307,36.9944134 202.351955,37.8324022 C201.748603,38.6703911 201.27933,39.6424581 200.910615,40.7486034 C200.541899,41.8882682 200.374302,43.0614525 200.374302,44.301676 L200.374302,44.301676 Z" id="five-gray" fill="#454545" sketch:type="MSShapeGroup"></path>
                <path d="M156.798562,47.6186815 C156.713559,47.6936783 156.626187,47.7760478 156.536313,47.8659218 C155.96648,48.4357542 155.497207,48.8715084 155.061453,49.1731844 C154.625698,49.4748603 154.055866,49.6424581 153.318436,49.6424581 C152.547486,49.6424581 151.877095,49.3407821 151.340782,48.7374302 C150.804469,48.1340782 150.536313,47.2960894 150.536313,46.1564246 C150.536313,44.7486034 150.703911,43.4078212 150.972067,42.0670391 C151.273743,40.726257 151.575419,39.452514 151.910615,38.2122905 C152.24581,36.972067 152.581006,35.8324022 152.849162,34.7597765 C153.150838,33.6871508 153.284916,32.7150838 153.284916,31.877095 C153.284916,30.4022346 152.312849,29.6648045 150.402235,29.6648045 C149.162011,29.6648045 147.988827,29.7318436 146.849162,29.8659218 C145.709497,30 144.703911,30.2346369 143.832402,30.5027933 C142.960894,30.7709497 142.256983,31.1061453 141.75419,31.5083799 C141.251397,31.9106145 140.98324,32.3463687 140.98324,32.7821229 C140.98324,33.3519553 141.083799,33.7541899 141.251397,34.0223464 C141.418994,34.2569832 141.519553,34.7597765 141.519553,35.4972067 C141.519553,36.301676 141.351955,37.2067039 141.083799,38.2122905 C140.815642,39.2178771 140.480447,40.3575419 140.111732,41.5977654 C139.743017,42.8379888 139.407821,44.1117318 139.139665,45.452514 C138.837989,46.7932961 138.703911,48.1340782 138.703911,49.4748603 C138.703911,51.452514 139.407821,53.1284916 140.782123,54.4692737 C142.156425,55.8435754 144.268156,56.5139665 147.083799,56.5139665 L147.083799,56.5139665 C148.458101,56.5139665 149.664804,56.3128492 150.77095,55.9441341 C151.877095,55.575419 152.882682,55.1061453 153.787709,54.5363128 C154.692737,53.9664804 155.497207,53.3631285 156.167598,52.726257 C156.443281,52.464358 156.701959,52.2081274 156.9413,51.9575652 C157.206744,52.8813823 157.670438,53.7274607 158.346369,54.5027933 C159.452514,55.8100559 161.195531,56.4469274 163.575419,56.4469274 C166.458101,56.4469274 169.240223,55.7430168 171.955307,54.4022346 C174.670391,53.0614525 177.083799,51.3854749 179.195531,49.3407821 C181.307263,47.2960894 183.01676,45.0502793 184.324022,42.603352 C185.631285,40.1564246 186.268156,37.8435754 186.268156,35.6312849 C186.268156,33.7877095 185.832402,32.3128492 184.927374,31.2402235 C184.022346,30.1675978 182.748603,29.6312849 181.106145,29.6312849 C179.698324,29.6312849 178.49162,30.0670391 177.519553,30.9050279 C176.547486,31.7765363 176.044693,32.9497207 176.044693,34.4581006 C176.044693,35.1955307 176.145251,35.7988827 176.379888,36.2681564 C176.581006,36.7709497 176.815642,37.1731844 177.083799,37.5418994 C177.318436,37.9106145 177.553073,38.2458101 177.787709,38.547486 C178.022346,38.849162 178.122905,39.1843575 178.122905,39.5865922 C178.122905,40.6592179 177.854749,41.7988827 177.351955,42.972067 C176.849162,44.1452514 176.212291,45.2513966 175.407821,46.2234637 C174.636872,47.1955307 173.765363,48.0335196 172.793296,48.6703911 C171.854749,49.3072626 170.916201,49.6424581 170.011173,49.6424581 C168.73743,49.6424581 168.134078,49.0055866 168.134078,47.698324 C168.134078,46.424581 168.301676,45.0502793 168.603352,43.575419 C168.938547,42.1340782 169.273743,40.6927374 169.675978,39.2513966 C170.078212,37.8100559 170.446927,36.4692737 170.748603,35.1955307 C171.050279,33.9553073 171.217877,32.8156425 171.217877,31.877095 C171.217877,30.4357542 170.24581,29.698324 168.335196,29.698324 C167.094972,29.698324 165.921788,29.7653631 164.782123,29.8994413 C163.642458,30.0335196 162.636872,30.2681564 161.765363,30.5363128 C160.893855,30.8044693 160.189944,31.1396648 159.687151,31.5418994 C159.184358,31.9441341 158.916201,32.3798883 158.916201,32.8156425 C158.916201,33.3854749 159.01676,33.7877095 159.184358,34.0558659 C159.351955,34.2905028 159.452514,34.7932961 159.452514,35.5307263 L159.452514,35.5307263 C159.452514,36.3351955 159.318436,37.2402235 159.050279,38.2458101 C158.782123,39.3184358 158.446927,40.4916201 158.078212,41.7653631 C157.709497,43.0391061 157.374302,44.3798883 157.106145,45.7541899 C156.970976,46.3699628 156.869453,46.9924651 156.798562,47.6186815 Z M113.430168,57.0837989 C111.351955,57.0837989 109.441341,56.7821229 107.664804,56.2122905 C105.921788,55.6089385 104.379888,54.7709497 103.106145,53.6648045 C101.798883,52.5586592 100.793296,51.2513966 100.055866,49.7430168 C99.3184358,48.2346369 98.9497207,46.4916201 98.9497207,44.5810056 C98.9497207,42.603352 99.3184358,40.8603352 100.089385,39.2849162 C100.860335,37.7430168 101.832402,36.4357542 103.005587,35.396648 C104.178771,34.3575419 105.519553,33.5530726 106.994413,33.0167598 C108.469274,32.4804469 109.910615,32.2122905 111.385475,32.2122905 C112.692737,32.2122905 113.564246,32.3128492 114,32.547486 C114.435754,32.7821229 114.670391,33.0502793 114.670391,33.3854749 C114.670391,34.0223464 114.301676,34.3910615 113.564246,34.5586592 C112.592179,34.8268156 111.687151,35.4636872 110.815642,36.4692737 C109.944134,37.4413408 109.50838,38.6145251 109.50838,39.8882682 C109.50838,41.3631285 109.977654,42.5363128 110.949721,43.4748603 C111.921788,44.4134078 113.162011,44.8826816 114.670391,44.8826816 C116.312849,44.8826816 117.687151,44.4134078 118.860335,43.4748603 C120,42.5363128 120.972067,41.2960894 121.776536,39.7541899 C122.581006,38.2122905 123.217877,36.4357542 123.72067,34.424581 C124.223464,32.4134078 124.692737,30.3687151 125.061453,28.2905028 L121.407821,28.2905028 C120.670391,28.2905028 120.301676,27.9217877 120.301676,27.1843575 C120.301676,26.5810056 120.569832,25.8435754 121.106145,25.0391061 C121.642458,24.2346369 122.145251,23.7988827 122.581006,23.7988827 L125.798883,23.7988827 C126.134078,21.9888268 126.469274,20.2122905 126.804469,18.4692737 C127.139665,16.726257 127.541899,15.1173184 127.977654,13.6424581 C128.480447,12 129.150838,10.6592179 129.955307,9.62011173 C130.759777,8.58100559 131.664804,7.77653631 132.603352,7.20670391 C131.094972,6.63687151 129.653631,6.23463687 128.27933,6.03351955 C126.938547,5.79888268 125.195531,5.69832402 123.117318,5.69832402 C120.703911,5.69832402 118.726257,6.33519553 117.184358,7.60893855 C115.675978,8.88268156 114.905028,10.2905028 114.905028,11.8659218 C114.905028,13.1061453 115.240223,14.0446927 115.877095,14.6480447 C116.513966,15.2849162 117.385475,15.5865922 118.458101,15.5865922 C119.128492,15.5865922 119.664804,15.452514 120.03352,15.150838 C120.402235,14.8826816 120.73743,14.7150838 121.106145,14.7150838 C121.675978,14.7150838 121.944134,15.0167598 121.944134,15.6536313 C121.944134,16.4581006 121.709497,17.3296089 121.240223,18.301676 C120.77095,19.273743 120.067039,20.2122905 119.195531,21.0837989 C118.324022,21.9553073 117.251397,22.6927374 116.011173,23.2960894 C114.77095,23.8994413 113.430168,24.1675978 111.955307,24.1675978 C110.648045,24.1675978 109.407821,23.9329609 108.234637,23.4636872 C107.061453,22.9944134 106.022346,22.3240223 105.150838,21.4860335 C104.27933,20.6480447 103.575419,19.6089385 103.072626,18.4022346 C102.569832,17.1955307 102.301676,15.8547486 102.301676,14.3798883 C102.301676,12.1340782 102.804469,10.0893855 103.810056,8.27932961 C104.815642,6.46927374 106.189944,4.96089385 107.865922,3.72067039 C109.541899,2.48044693 111.519553,1.54189944 113.731844,0.87150838 C116.111732,0.335195531 118.424581,3.7015704e-15 120.804469,3.7015704e-15 C124.592179,3.7015704e-15 127.675978,0.234636872 130.055866,0.703910615 C132.435754,1.17318436 134.379888,1.40782123 135.854749,1.40782123 C137.195531,1.40782123 138.335196,1.17318436 139.273743,0.703910615 C140.212291,0.234636872 140.916201,3.55271368e-15 141.418994,3.55271368e-15 C142.424581,3.55271368e-15 142.927374,0.469273743 142.927374,1.44134078 C142.927374,1.87709497 142.625698,2.48044693 142.055866,3.21787709 C141.452514,3.95530726 140.581006,5.26256983 139.407821,7.20670391 C138.234637,9.11731844 137.363128,11.5307263 136.793296,14.4469274 C136.223464,17.3631285 135.72067,20.4804469 135.284916,23.8659218 L139.106145,23.8659218 C139.608939,23.8659218 139.877095,24.1340782 139.877095,24.7039106 C139.877095,25.3743017 139.608939,26.1452514 139.072626,27.0167598 C138.536313,27.8882682 137.96648,28.3240223 137.329609,28.3240223 L134.715084,28.3240223 C134.27933,31.7765363 133.675978,35.1955307 132.938547,38.6480447 C132.201117,42.1005587 131.061453,45.1843575 129.553073,47.8994413 C128.044693,50.6480447 126,52.8603352 123.418994,54.5363128 C120.804469,56.2458101 117.486034,57.0837989 113.430168,57.0837989 L113.430168,57.0837989 Z M143.731844,20.6480447 C143.731844,19.8100559 143.899441,18.972067 144.234637,18.1675978 C144.569832,17.3631285 145.039106,16.5921788 145.642458,15.9217877 C146.24581,15.2513966 146.916201,14.7150838 147.687151,14.3128492 C148.458101,13.9106145 149.22905,13.7094972 150,13.7094972 C151.50838,13.7094972 152.681564,14.1452514 153.519553,14.9832402 C154.324022,15.8212291 154.759777,16.8938547 154.759777,18.2011173 C154.759777,19.0391061 154.592179,19.877095 154.256983,20.7486034 C153.921788,21.5865922 153.452514,22.3575419 152.849162,22.9944134 C152.24581,23.6312849 151.575419,24.1675978 150.804469,24.603352 C150.03352,25.0391061 149.26257,25.2402235 148.49162,25.2402235 C147.184358,25.2402235 146.078212,24.8044693 145.139665,23.9329609 C144.167598,23.027933 143.731844,21.9217877 143.731844,20.6480447 Z M205.307263,51.0837989 C206.782123,51.0837989 208.022346,50.8156425 209.061453,50.3128492 C210.100559,49.8100559 210.972067,49.3407821 211.642458,48.8715084 C212.078212,48.603352 212.446927,48.3351955 212.748603,48.1675978 C213.01676,47.9664804 213.318436,47.8659218 213.586592,47.8659218 C213.921788,47.8659218 214.189944,47.9664804 214.391061,48.1675978 C214.592179,48.3687151 214.692737,48.603352 214.692737,48.8715084 C214.692737,49.3072626 214.558659,49.7430168 214.256983,50.1452514 C213.988827,50.547486 213.486034,51.0837989 212.815642,51.7541899 C212.379888,52.1899441 211.776536,52.726257 211.072626,53.3296089 C210.368715,53.9329609 209.530726,54.4692737 208.52514,54.972067 C207.553073,55.4748603 206.413408,55.9106145 205.173184,56.2458101 C203.932961,56.5810056 202.558659,56.7486034 201.01676,56.7486034 C199.039106,56.7486034 197.195531,56.5139665 195.519553,56.0782123 C193.843575,55.6424581 192.368715,54.9385475 191.128492,53.9664804 C189.888268,52.9944134 188.916201,51.7877095 188.24581,50.3128492 C187.575419,48.8379888 187.240223,47.0949721 187.240223,45.0837989 C187.240223,43.0391061 187.642458,41.0949721 188.480447,39.2178771 C189.284916,37.3407821 190.458101,35.6648045 192,34.2234637 C193.50838,32.7821229 195.385475,31.6424581 197.597765,30.8044693 C199.810056,29.9664804 202.290503,29.5307263 205.139665,29.5307263 C208.022346,29.5307263 210.134078,30.1005587 211.47486,31.273743 C212.815642,32.4469274 213.519553,33.9217877 213.519553,35.7318436 C213.519553,36.9050279 213.184358,38.0782123 212.513966,39.2513966 C211.843575,40.424581 210.871508,41.4636872 209.631285,42.3687151 C208.391061,43.3072626 206.882682,44.0782123 205.139665,44.6815642 C203.396648,45.3184358 201.486034,45.6871508 199.374302,45.8547486 C199.374302,47.3296089 199.944134,48.5698324 201.117318,49.575419 C202.256983,50.5810056 203.664804,51.0837989 205.307263,51.0837989 L205.307263,51.0837989 Z M199.374302,42.301676 C200.547486,42.0670391 201.653631,41.6648045 202.625698,41.0614525 C203.597765,40.4581006 204.469274,39.8212291 205.173184,39.1173184 C205.877095,38.4134078 206.413408,37.7094972 206.782123,36.972067 C207.150838,36.2346369 207.318436,35.6312849 207.318436,35.0949721 C207.318436,33.7877095 206.648045,33.150838 205.273743,33.150838 C204.636872,33.150838 204,33.3854749 203.296089,33.8547486 C202.592179,34.3240223 201.955307,34.9944134 201.351955,35.8324022 C200.748603,36.6703911 200.27933,37.6424581 199.910615,38.7486034 C199.541899,39.8882682 199.374302,41.0614525 199.374302,42.301676 L199.374302,42.301676 Z" id="five-yellow" fill="#F3E946" sketch:type="MSShapeGroup"></path>
                <path d="M234.569832,45.0167598 C236.98324,45.0167598 238.223464,46.0558659 238.223464,48.1340782 C238.223464,49.2067039 238.391061,50.0782123 238.759777,50.7150838 C239.128492,51.3519553 239.698324,51.6871508 240.502793,51.6871508 C241.743017,51.6871508 242.379888,50.9162011 242.379888,49.4078212 C242.379888,48.1675978 241.944134,47.1284916 241.072626,46.3240223 C240.201117,45.5195531 239.22905,44.6815642 238.189944,43.877095 C237.150838,43.0726257 236.178771,42.1675978 235.307263,41.1620112 C234.435754,40.1899441 234,38.8826816 234,37.3072626 C234,35.9664804 234.301676,34.7932961 234.938547,33.7877095 C235.541899,32.8156425 236.413408,31.9776536 237.486034,31.3072626 C238.558659,30.6368715 239.798883,30.1340782 241.206704,29.7988827 C242.614525,29.4636872 244.122905,29.2960894 245.698324,29.2960894 C248.815642,29.2960894 251.061453,29.8324022 252.502793,30.9050279 C253.944134,31.9776536 254.648045,33.3854749 254.648045,35.1284916 C254.648045,36.2681564 254.346369,37.273743 253.709497,38.1452514 C253.072626,39.0167598 252.067039,39.452514 250.659218,39.452514 C249.854749,39.452514 249.150838,39.1843575 248.547486,38.6145251 C247.910615,38.0446927 247.608939,37.3743017 247.608939,36.5698324 C247.608939,35.9664804 247.709497,35.4636872 247.944134,35.1284916 C248.178771,34.7932961 248.27933,34.424581 248.27933,34.0223464 C248.27933,33.2178771 247.743017,32.849162 246.670391,32.849162 C246.100559,32.849162 245.564246,33.1173184 245.027933,33.6536313 C244.49162,34.1899441 244.223464,34.8603352 244.223464,35.6312849 C244.223464,36.8715084 244.692737,37.9106145 245.664804,38.7150838 C246.636872,39.5195531 247.709497,40.3240223 248.882682,41.1284916 C250.055866,41.9329609 251.128492,42.8044693 252.100559,43.7430168 C253.072626,44.7150838 253.541899,45.9553073 253.541899,47.4636872 C253.541899,50.2122905 252.502793,52.4581006 250.424581,54.1340782 C248.346369,55.8100559 245.430168,56.6815642 241.709497,56.6815642 C238.49162,56.6815642 235.843575,56.0446927 233.798883,54.7374302 C231.75419,53.4301676 230.715084,51.6201117 230.715084,49.3072626 C230.715084,47.9664804 231.117318,46.8938547 231.955307,46.122905 C232.726257,45.3854749 233.597765,45.0167598 234.569832,45.0167598 L234.569832,45.0167598 Z M311.782755,52.3993996 C311.669222,52.507353 311.551693,52.6163054 311.430168,52.726257 C310.759777,53.3631285 309.955307,53.9664804 309.050279,54.5363128 C308.145251,55.1061453 307.139665,55.575419 306.03352,55.9441341 C304.927374,56.3128492 303.72067,56.4804469 302.346369,56.4804469 C301.039106,56.4804469 300,56.2458101 299.162011,55.8100559 C298.357542,55.3743017 297.687151,54.8379888 297.184358,54.301676 C296.547486,53.698324 296.111732,52.9273743 295.843575,52.0223464 C294.871508,52.9273743 293.865922,53.698324 292.793296,54.301676 C291.821229,54.8715084 290.715084,55.3743017 289.407821,55.8100559 C288.100559,56.2458101 286.692737,56.4804469 285.184358,56.4804469 C282.636872,56.4804469 280.49162,55.6424581 278.748603,54 C277.796015,53.0840498 277.10373,51.9378318 276.671747,50.5504029 C275.997357,51.2732416 275.192436,51.9911477 274.256983,52.6927374 C272.916201,53.698324 271.441341,54.603352 269.798883,55.3407821 C268.156425,56.1117318 266.547486,56.4804469 264.972067,56.4804469 C261.921788,56.4804469 259.709497,55.6759777 258.335196,54.1005587 C256.960894,52.5251397 256.256983,50.6145251 256.256983,48.3351955 C256.256983,46.9944134 256.391061,45.6871508 256.692737,44.4804469 C256.960894,43.273743 257.26257,42.1005587 257.564246,40.9608939 C257.865922,39.8212291 258.167598,38.7486034 258.435754,37.6759777 C258.703911,36.603352 258.871508,35.5307263 258.871508,34.4581006 C258.871508,34.1899441 258.77095,33.9888268 258.536313,33.9217877 C258.301676,33.8212291 258.03352,33.7541899 257.731844,33.6536313 C257.430168,33.5530726 257.162011,33.452514 256.927374,33.3184358 C256.692737,33.1843575 256.592179,32.9162011 256.592179,32.5139665 C256.592179,32.0782123 256.726257,31.5418994 256.960894,30.9385475 C257.22905,30.3351955 257.564246,30.0670391 258,30.0670391 C259.139665,30.0670391 260.212291,29.7988827 261.284916,29.2960894 C262.357542,28.7932961 263.363128,28.1564246 264.301676,27.3854749 C265.240223,26.6145251 266.078212,25.7765363 266.849162,24.8379888 C267.620112,23.8994413 268.256983,22.9944134 268.826816,22.0893855 C269.597765,20.849162 270.368715,20.2122905 271.106145,20.2122905 C271.541899,20.2122905 271.910615,20.3463687 272.111732,20.6480447 C272.346369,20.9162011 272.446927,21.2513966 272.446927,21.5865922 C272.446927,22.0223464 272.379888,22.5921788 272.27933,23.2290503 C272.178771,23.8659218 272.011173,24.5027933 271.843575,25.1396648 C271.675978,25.7765363 271.541899,26.3798883 271.407821,26.9497207 C271.307263,27.5530726 271.240223,28.0223464 271.240223,28.3575419 C271.240223,28.9273743 271.407821,29.3296089 271.709497,29.6312849 C272.011173,29.8994413 272.815642,30.0670391 274.122905,30.0670391 C274.927374,30.0670391 275.296089,30.3687151 275.296089,31.0055866 C275.296089,31.8435754 275.094972,32.547486 274.692737,33.0837989 C274.424581,33.6536313 273.988827,33.9217877 273.486034,33.9217877 L273.486034,33.9217877 C272.413408,33.9217877 271.608939,34.122905 271.072626,34.5251397 C270.536313,34.9273743 270.134078,35.6312849 269.832402,36.6368715 C269.497207,37.877095 269.128492,39.4189944 268.692737,41.2960894 C268.256983,43.1731844 268.055866,44.7821229 268.055866,46.1899441 C268.055866,47.4972067 268.357542,48.4022346 268.927374,48.9050279 C269.530726,49.4078212 270.335196,49.6759777 271.340782,49.6759777 C271.944134,49.6759777 272.581006,49.5083799 273.217877,49.1396648 C273.821229,48.7709497 274.424581,48.3687151 274.960894,47.8994413 C275.372739,47.5648171 275.764818,47.2301929 276.13713,46.9259269 C276.135095,46.8156538 276.134078,46.7044054 276.134078,46.5921788 C276.134078,44.5139665 276.469274,42.4357542 277.106145,40.424581 C277.743017,38.3798883 278.782123,36.603352 280.189944,34.9944134 C281.597765,33.4189944 283.374302,32.1452514 285.519553,31.1396648 C287.664804,30.1675978 290.24581,29.6648045 293.296089,29.6648045 C294.435754,29.6648045 295.374302,29.7653631 296.145251,29.9329609 C296.916201,30.1005587 297.553073,30.301676 298.055866,30.4692737 C298.558659,30.6703911 298.994413,30.8379888 299.363128,31.0055866 C299.731844,31.1731844 300.067039,31.273743 300.435754,31.273743 C300.77095,31.273743 301.240223,31.1731844 301.843575,31.0055866 C302.446927,30.8379888 303.083799,30.6703911 303.75419,30.4692737 C304.424581,30.2681564 305.094972,30.1005587 305.731844,29.9329609 C306.368715,29.7653631 306.972067,29.6648045 307.47486,29.6648045 C308.312849,29.6648045 308.748603,30.1005587 308.748603,30.9385475 C308.748603,31.4413408 308.581006,32.2122905 308.27933,33.2513966 C307.977654,34.2905028 307.642458,35.4972067 307.273743,36.8379888 C306.905028,38.1787709 306.569832,39.6871508 306.268156,41.2625698 C305.96648,42.8715084 305.798883,44.4804469 305.798883,46.122905 C305.798883,47.2625698 306.067039,48.1005587 306.636872,48.7039106 C307.206704,49.3072626 307.877095,49.6089385 308.681564,49.6089385 C309.418994,49.6089385 309.988827,49.4413408 310.424581,49.1396648 C310.860335,48.8379888 311.329609,48.4022346 311.899441,47.8324022 C312.299058,47.432786 312.649219,47.1815352 312.961485,47.067089 C313.072772,46.6024481 313.187847,46.1312955 313.307263,45.6536313 C313.743017,43.7765363 314.178771,41.8994413 314.547486,40.0223464 C314.916201,38.1452514 315.083799,36.6703911 315.083799,35.5307263 C315.083799,34.7932961 314.98324,34.2905028 314.782123,34.0558659 C314.581006,33.7877095 314.480447,33.3854749 314.480447,32.8156425 C314.480447,32.3798883 314.748603,31.9441341 315.284916,31.5418994 C315.821229,31.1396648 316.52514,30.8044693 317.396648,30.5363128 C318.268156,30.2681564 319.273743,30.0335196 320.413408,29.8994413 C321.553073,29.7653631 322.726257,29.698324 323.96648,29.698324 C325.877095,29.698324 326.849162,30.4357542 326.849162,31.9106145 C326.849162,32.2458101 326.815642,32.6145251 326.748603,33.0502793 C326.681564,33.4860335 326.648045,33.8882682 326.581006,34.2905028 C326.480447,34.726257 326.379888,35.1620112 326.312849,35.5642458 C326.815642,34.5586592 327.418994,33.6536313 328.089385,32.849162 C328.726257,32.1787709 329.497207,31.5418994 330.402235,30.9385475 C331.340782,30.3351955 332.446927,30.0670391 333.75419,30.0670391 C334.927374,30.0670391 335.865922,30.4022346 336.603352,31.0726257 C337.307263,31.7430168 337.642458,32.7486034 337.642458,34.0223464 C337.642458,34.8268156 337.50838,35.5977654 337.273743,36.4022346 C337.005587,37.2067039 336.670391,37.9106145 336.201117,38.547486 C335.765363,39.1843575 335.162011,39.7206704 334.458101,40.122905 C333.75419,40.5251397 332.98324,40.726257 332.145251,40.726257 C330.972067,40.726257 330.067039,40.3910615 329.497207,39.7206704 C328.893855,39.0502793 328.625698,38.3128492 328.625698,37.5083799 C328.357542,37.6089385 327.955307,37.9441341 327.452514,38.5139665 C326.949721,39.0502793 326.379888,39.9217877 325.743017,41.0949721 L325.743017,41.0949721 C325.340782,41.8324022 324.938547,42.7709497 324.569832,43.9441341 C324.167598,45.1173184 323.798883,46.3240223 323.463687,47.5977654 C323.128492,48.8715084 322.860335,50.0782123 322.625698,51.2849162 C322.391061,52.4581006 322.290503,53.4972067 322.290503,54.3351955 C322.290503,55.0726257 322.122905,55.5418994 321.821229,55.7765363 C321.519553,56.0111732 321.050279,56.1117318 320.413408,56.1117318 C319.106145,56.1117318 317.765363,56.1787709 316.357542,56.3128492 C314.949721,56.4469274 313.944134,56.5139665 313.307263,56.5139665 C312.73743,56.5139665 312.301676,56.3798883 312,56.1452514 C311.698324,55.877095 311.530726,55.4078212 311.530726,54.6703911 C311.530726,54.1135345 311.61103,53.3639489 311.782755,52.3993996 Z M296.648045,35.8659218 C296.648045,34.2234637 295.810056,33.4189944 294.100559,33.4189944 C292.927374,33.4189944 291.888268,33.9217877 291.01676,34.8938547 C290.145251,35.8659218 289.407821,37.0726257 288.871508,38.4469274 C288.301676,39.8212291 287.899441,41.2960894 287.597765,42.8379888 C287.329609,44.3798883 287.162011,45.7541899 287.162011,46.9273743 C287.162011,48.0670391 287.396648,49.0055866 287.865922,49.7765363 C288.335196,50.547486 289.072626,50.9162011 290.011173,50.9162011 C290.815642,50.9162011 291.586592,50.5810056 292.391061,49.9106145 C293.162011,49.2402235 293.865922,48.2346369 294.435754,46.9608939 C294.670391,46.3910615 294.905028,45.6536313 295.206704,44.7486034 C295.47486,43.8435754 295.743017,42.8715084 295.910615,41.8324022 C296.111732,40.7932961 296.27933,39.7541899 296.413408,38.7150838 C296.581006,37.6424581 296.648045,36.7039106 296.648045,35.8659218 L296.648045,35.8659218 Z M339.888268,45.0167598 C342.301676,45.0167598 343.541899,46.0558659 343.541899,48.1340782 C343.541899,49.2067039 343.709497,50.0782123 344.078212,50.7150838 C344.446927,51.3519553 345.01676,51.6871508 345.821229,51.6871508 C347.061453,51.6871508 347.698324,50.9162011 347.698324,49.4078212 C347.698324,48.1675978 347.26257,47.1284916 346.391061,46.3240223 C345.519553,45.5195531 344.547486,44.6815642 343.50838,43.877095 C342.469274,43.0726257 341.497207,42.1675978 340.625698,41.1620112 C339.75419,40.1899441 339.318436,38.8826816 339.318436,37.3072626 C339.318436,35.9664804 339.620112,34.7932961 340.256983,33.7877095 C340.893855,32.8156425 341.731844,31.9776536 342.804469,31.3072626 C343.877095,30.6368715 345.117318,30.1340782 346.52514,29.7988827 C347.932961,29.4636872 349.441341,29.2960894 351.01676,29.2960894 C354.100559,29.2960894 356.379888,29.8324022 357.821229,30.9050279 C359.26257,31.9776536 359.96648,33.3854749 359.96648,35.1284916 C359.96648,36.2681564 359.664804,37.273743 359.027933,38.1452514 C358.391061,39.0167598 357.385475,39.452514 355.977654,39.452514 C355.173184,39.452514 354.469274,39.1843575 353.865922,38.6145251 C353.22905,38.0446927 352.927374,37.3743017 352.927374,36.5698324 C352.927374,35.9664804 353.027933,35.4636872 353.26257,35.1284916 C353.497207,34.7932961 353.597765,34.424581 353.597765,34.0223464 C353.597765,33.2178771 353.061453,32.849162 351.988827,32.849162 C351.418994,32.849162 350.882682,33.1173184 350.346369,33.6536313 C349.810056,34.1899441 349.541899,34.8603352 349.541899,35.6312849 C349.541899,36.8715084 350.011173,37.9106145 350.98324,38.7150838 C351.955307,39.5195531 353.027933,40.3240223 354.201117,41.1284916 C355.374302,41.9329609 356.446927,42.8044693 357.418994,43.7430168 C358.391061,44.7150838 358.860335,45.9553073 358.860335,47.4636872 C358.860335,50.2122905 357.821229,52.4581006 355.743017,54.1340782 C353.664804,55.8100559 350.748603,56.6815642 347.027933,56.6815642 C343.810056,56.6815642 341.162011,56.0446927 339.117318,54.7374302 C337.072626,53.4301676 336.03352,51.6201117 336.03352,49.3072626 C336.03352,47.9664804 336.435754,46.8938547 337.273743,46.122905 C338.044693,45.3854749 338.916201,45.0167598 339.888268,45.0167598 L339.888268,45.0167598 Z" id="stars" fill="#084F66" sketch:type="MSShapeGroup"></path>
            </g>
        </g>
    </g>
</svg>