<svg xmlns="http://www.w3.org/2000/svg">
<defs>
<font id="88326d828afa5917f40db70d2cbd1ae7" horiz-adv-x='1024' >
  <font-face 
    font-family="GTSectra-BoldItalic"
    font-weight="700"
    font-style="italic"
    font-stretch="normal"
    units-per-em="1000"
    panose-1="2 0 5 3 0 0 0 9 0 3"
    ascent="750"
    descent="-250"
    x-height="488"
    cap-height="701"
    bbox="-201 -252 1727 1000"
    underline-thickness="50"
    underline-position="-50"
    slope="-12"
    unicode-range="U+000D-FB04"
  />
<missing-glyph horiz-adv-x="633" 
d="M608 460l-3 -41l-8 -35l-12 -31l-3 -156l-21 -7l-50 70l-27 -7l-19 -140l-32 4l-7 -4l-4 -94l30 -19l16 -14l-3 -15l-30 1l-24 18h-14l-8 8l7 76l-4 47l-61 1l-3 -52l-2 -56v-20l-15 -6l-8 6l-30 -10h-32l-1 11l11 11l50 21l-6 96l-98 -6l-147 140l-4 115l-13 10l-10 36
v26l15 8l-3 78l92 -62l9 47l10 36l22 35l28 35l39 29l40 15l38 14h22l-68 22l4 17h7l79 -20l-4 51l16 12h32l19 -5l29 -25l32 -8l32 -10l15 -13v-20l-20 -31l30 -28l28 -32l18 -34l15 -41zM498 399l-4 7h-205l-66 -3l-7 -9l-6 -44l-48 20l-11 -4l57 -27l1 -45l-5 -73v-91
l18 4l2 40l41 -3l3 9l-44 6v16l48 -6l1 9l-47 7l1 22l43 -3l3 6l-45 9l3 94h74l11 10h-79l2 9h74l8 7h-82l2 22l117 4l140 -4v11zM179 569l29 12l13 -15l-17 -20l-10 -3l17 -3h5l36 24h32l18 -12l8 3l4 14l7 5l10 -4v-18h8l10 22l11 8l-5 6l-3 8l1 21l-30 -10l-10 -8l-8 5
l4 21l14 10l11 11l38 -2l12 13l-4 8h-49l-45 -13l-53 -26l-29 -23zM589 465l-8 37l-19 50l-20 36l-23 28l-34 21h-11l17 -19l25 -10l11 -11l3 -33l-25 13l-15 -29l12 -8v-19l15 3l-12 26l15 -5l10 -20l-5 -12l-8 -7h-23l-3 11l-12 2l1 -22h-14l14 -18l-7 -10l-21 5l-3 -27
l41 6l8 17l22 -2l6 -28l-16 -13v-15l8 -6l18 12h23l6 11l-18 6l-5 9l9 42h7l14 -20zM75 434l57 -32l7 10l-68 38v18l59 -34l43 -28l28 -14l3 10l-103 64l-13 7l-41 33l2 -78l19 -17v-5h-21l19 -14l1 -11l-20 7l18 -18l-4 -7l3 -97l11 -12v180zM484 331l-54 1l-1 -24v-6

<glyph glyph-name="ff" unicode="ff" horiz-adv-x="654" 
d="M430 461l7 40q7 41 27.5 81.5t58.5 62.5l122 70h106l-17 -95h-128q-14 -12 -22 -32t-10 -35l-16 -92h109l-11 -58h-108l-72 -412q-8 -46 -40.5 -83.5t-80.5 -69.5l-109 -73h-61l20 112h102q15 18 24.5 42.5t12.5 45.5l76 438h-176l-72 -412q-8 -46 -40 -83.5t-80 -69.5
l-110 -73h-73l21 112h113q15 18 24.5 42.5t12.5 45.5l77 438h-96l5 21l48 42h53l6 35q8 41 28 81.5t58 62.5l122 70h177l-146 -95h-70q-14 -12 -22 -32t-10 -35l-16 -92h176z" />
    <glyph glyph-name="fi" unicode="fi" horiz-adv-x="600" 
d="M244 403l-72 -412q-8 -46 -40 -83.5t-80 -69.5l-110 -73h-73l21 112h113q15 18 24.5 42.5t12.5 45.5l77 438h-96l5 21l48 42h53l6 35q8 41 28 81.5t58 62.5l122 70h258l-18 -95h-279q-14 -12 -22 -32t-10 -35l-16 -92h163l78 33l55 -50l-67 -376l81 50l20 -27l-150 -106
l-87 39l68 391l-52 -12h-119z" />
    <glyph glyph-name="fl" unicode="fl" horiz-adv-x="603" 
d="M422 461l32 181l-71 -22h-81q-14 -12 -22 -32t-10 -35l-16 -92h168zM-131 -235l21 112h113q15 18 24.5 42.5t12.5 45.5l77 438h-96l5 21l48 42h53l6 35q8 41 28 81.5t58 62.5l122 70h207l42 -34l-108 -614l83 51l20 -27l-151 -106l-89 39l67 379h-168l-72 -412
q-8 -46 -40 -83.5t-80 -69.5l-110 -73h-73z" />
    <glyph glyph-name="ffi" unicode="ffi" horiz-adv-x="904" 
d="M606 620q-14 -12 -22 -32t-10 -35l-16 -92h163l78 33l55 -50l-67 -376l81 50l20 -27l-151 -106l-87 39l69 391l-52 -12h-119l-72 -412q-8 -46 -40.5 -83.5t-80.5 -69.5l-109 -73h-61l20 112h102q15 18 24.5 42.5t12.5 45.5l76 438h-176l-72 -412q-8 -46 -40 -83.5
t-80 -69.5l-110 -73h-73l21 112h113q15 18 24.5 42.5t12.5 45.5l77 438h-96l5 21l48 42h53l6 35q8 41 28 81.5t58 62.5l122 70h177l-146 -95h-70q-14 -12 -22 -32t-10 -35l-16 -92h176l7 40q7 41 27.5 81.5t58.5 62.5l122 70h258l-18 -95h-279z" />
    <glyph glyph-name="ffl" unicode="ffl" horiz-adv-x="907" 
d="M726 461l32 181l-71 -22h-81q-14 -12 -22 -32t-10 -35l-16 -92h168zM-58 -235h-73l21 112h113q15 18 24.5 42.5t12.5 45.5l77 438h-96l5 21l48 42h53l6 35q8 41 28 81.5t58 62.5l122 70h177l-146 -95h-70q-14 -12 -22 -32t-10 -35l-16 -92h176l7 40q7 41 27.5 81.5
t58.5 62.5l122 70h206l43 -34l-108 -614l82 51l20 -27l-150 -106l-89 39l67 379h-168l-72 -412q-8 -46 -40.5 -83.5t-80.5 -69.5l-109 -73h-61l20 112h102q15 18 24.5 42.5t12.5 45.5l76 438h-176l-72 -412q-8 -46 -40 -83.5t-80 -69.5z" />
    <glyph glyph-name="Th" unicode="Th" horiz-adv-x="1056" 
d="M741 715l42 -34l-48 -273l-18 -37l181 123q128 0 104 -129l-54 -297l81 50l20 -27l-151 -106l-87 39l54 307q4 21 -1.5 36.5t-27.5 15.5q-16 0 -36 -9t-34 -18l-45 -28l-58 -328h-129l108 619l19 30l-78 -8l-143 3l-94 -585l92 -13l-12 -47l-165 3l-162 -3l2 47l97 13
l94 585l-117 -3l-65 -141h-51l28 201l292 -3l307 3z" />
    <glyph glyph-name="fb" unicode="fb" horiz-adv-x="832" 
d="M529 332l-41 -232q22 -13 55 -24.5t64 -11.5q19 15 32 37.5t21.5 48t12 52.5t3.5 51q0 53 -15 87.5t-38 47.5zM544 416l-24 -50l163 128q60 -14 96 -61t36 -125q0 -46 -12 -88t-34.5 -78.5t-56.5 -65.5t-77 -48l-95 -43q-50 2 -100.5 13t-91.5 36l106 608l-71 -22h-81
q-14 -12 -22 -32t-10 -35l-16 -92h109l-11 -58h-108l-72 -412q-8 -46 -40 -83.5t-80 -69.5l-110 -73h-73l21 112h113q15 18 24.5 42.5t12.5 45.5l77 438h-96l5 21l48 42h53l6 35q8 41 28 81.5t58 62.5l122 70h207l42 -34z" />
    <glyph glyph-name="ffb" unicode="ffb" horiz-adv-x="1136" 
d="M832 332l-40 -232q22 -13 55 -24.5t64 -11.5q19 15 32 37.5t21.5 48t12 52.5t3.5 51q0 53 -15 87.5t-38 47.5zM851 715l43 -34l-46 -265l-24 -50l162 128q61 -14 97 -61t36 -125q0 -46 -12 -88t-34.5 -78.5t-56.5 -65.5t-77 -48l-95 -43q-50 2 -100.5 13t-92.5 36
l107 608l-71 -22h-81q-14 -12 -22 -32t-10 -35l-16 -92h109l-11 -58h-108l-72 -412q-8 -46 -40.5 -83.5t-80.5 -69.5l-109 -73h-61l20 112h102q15 18 24.5 42.5t12.5 45.5l76 438h-176l-72 -412q-8 -46 -40 -83.5t-80 -69.5l-110 -73h-73l21 112h113q15 18 24.5 42.5
t12.5 45.5l77 438h-96l5 21l48 42h53l6 35q8 41 28 81.5t58 62.5l122 70h177l-146 -95h-70q-14 -12 -22 -32t-10 -35l-16 -92h176l7 40q7 41 27.5 81.5t58.5 62.5l122 70h206z" />
    <glyph glyph-name="ffh" unicode="ffh" horiz-adv-x="1167" 
d="M606 620q-14 -12 -22 -32t-10 -35l-16 -92h109l-11 -58h-108l-72 -412q-8 -46 -40.5 -83.5t-80.5 -69.5l-109 -73h-61l20 112h102q15 18 24.5 42.5t12.5 45.5l76 438h-176l-72 -412q-8 -46 -40 -83.5t-80 -69.5l-110 -73h-73l21 112h113q15 18 24.5 42.5t12.5 45.5
l77 438h-96l5 21l48 42h53l6 35q8 41 28 81.5t58 62.5l122 70h177l-146 -95h-70q-14 -12 -22 -32t-10 -35l-16 -92h176l7 40q7 41 27.5 81.5t58.5 62.5l122 70h206l43 -34l-48 -273l-18 -37l181 123q128 0 105 -129l-55 -297l81 50l20 -27l-150 -106l-87 39l54 307
q3 21 -2 36.5t-27 15.5q-17 0 -37 -9t-34 -18l-45 -28l-58 -328h-129l113 642l-71 -22h-81z" />
    <glyph glyph-name="ffj" unicode="ffj" horiz-adv-x="887" 
d="M799 494l55 -50l-78 -442q-9 -51 -40.5 -89t-79.5 -70l-116 -78h-64l20 110h107q18 25 26.5 54t13.5 54l76 432l-52 -12h-119l-72 -412q-8 -46 -40.5 -83.5t-80.5 -69.5l-109 -73h-61l20 112h102q15 18 24.5 42.5t12.5 45.5l76 438h-176l-72 -412q-8 -46 -40 -83.5
t-80 -69.5l-110 -73h-73l21 112h113q15 18 24.5 42.5t12.5 45.5l77 438h-96l5 21l48 42h53l6 35q8 41 28 81.5t58 62.5l122 70h177l-146 -95h-70q-14 -12 -22 -32t-10 -35l-16 -92h176l7 40q7 41 27.5 81.5t58.5 62.5l122 70h258l-18 -95h-279q-14 -12 -22 -32t-10 -35
l-16 -92h163z" />
    <glyph glyph-name="ffk" unicode="ffk" horiz-adv-x="1141" 
d="M606 620q-14 -12 -22 -32t-10 -35l-16 -92h109l-11 -58h-108l-72 -412q-8 -46 -40.5 -83.5t-80.5 -69.5l-109 -73h-61l20 112h102q15 18 24.5 42.5t12.5 45.5l76 438h-176l-72 -412q-8 -46 -40 -83.5t-80 -69.5l-110 -73h-73l21 112h113q15 18 24.5 42.5t12.5 45.5
l77 438h-96l5 21l48 42h53l6 35q8 41 28 81.5t58 62.5l122 70h177l-146 -95h-70q-14 -12 -22 -32t-10 -35l-16 -92h176l7 40q7 41 27.5 81.5t58.5 62.5l122 70h206l43 -34l-70 -396l21 4l169 195h122l-27 -127h-88q-50 -10 -93 -43l-41 -34l66 -22l97 -188l64 40l20 -27
l-146 -98l-69 29l-99 246l-46 -260h-129l113 642l-71 -22h-81z" />
    <glyph glyph-name="fh" unicode="fh" horiz-adv-x="863" 
d="M455 642l-72 -22h-81q-14 -12 -21.5 -32t-10.5 -35l-16 -92h109l-11 -58h-108l-72 -412q-8 -46 -40 -83.5t-80 -69.5l-110 -73h-73l21 112h113q15 18 24.5 42.5t12.5 45.5l77 438h-96l5 21l48 42h53l6 35q8 41 28 81.5t58 62.5l122 70h207l43 -34l-49 -273l-18 -37
l182 123q127 0 104 -129l-54 -297l80 50l20 -27l-150 -106l-87 39l54 307q3 21 -2 36.5t-27 15.5q-17 0 -37 -9t-34 -18l-45 -28l-58 -328h-129z" />
    <glyph glyph-name="fj" unicode="fj" horiz-adv-x="583" 
d="M473 2q-9 -51 -41 -89t-80 -70l-116 -78h-64l20 110h107q18 25 27 54t13 54l76 432l-52 -12h-119l-72 -412q-8 -46 -40 -83.5t-80 -69.5l-110 -73h-73l21 112h113q15 18 24.5 42.5t12.5 45.5l77 438h-96l5 21l48 42h53l6 35q8 41 28 81.5t58 62.5l122 70h258l-18 -95
h-279q-14 -12 -22 -32t-10 -35l-16 -92h163l78 33l55 -50z" />
    <glyph glyph-name="fk" unicode="fk" horiz-adv-x="838" 
d="M455 642l-72 -22h-81q-14 -12 -21.5 -32t-10.5 -35l-16 -92h109l-11 -58h-108l-72 -412q-8 -46 -40 -83.5t-80 -69.5l-110 -73h-73l21 112h113q15 18 24.5 42.5t12.5 45.5l77 438h-96l5 21l48 42h53l6 35q8 41 28 81.5t58 62.5l122 70h207l42 -34l-70 -396l21 4l169 195
h123l-28 -127h-88q-26 -5 -48 -15.5t-44 -27.5l-42 -34l66 -22l97 -188l64 40l20 -27l-145 -98l-70 29l-98 246l-47 -260h-129z" />
    <glyph glyph-name="ft" unicode="ft" horiz-adv-x="654" 
d="M409 461l12 60l108 90h36l-27 -150h116l-11 -59h-115l-58 -334l130 49l15 -28l-194 -104l-89 36l67 382h-155l-72 -412q-8 -46 -40 -83.5t-80 -69.5l-110 -73h-73l21 112h113q15 18 24.5 42.5t12.5 45.5l77 438h-96l5 21l48 42h53l6 35q8 41 28 81.5t58 62.5l122 70h191
l-137 -95h-93q-14 -12 -22 -32t-10 -35l-16 -92h155z" />
    <glyph glyph-name="fu" unicode="fu" horiz-adv-x="854" 
d="M244 403l-72 -412q-8 -46 -40 -83.5t-80 -69.5l-110 -73h-73l21 112h113q15 18 24.5 42.5t12.5 45.5l77 438h-96l5 21l48 42h53l6 35q8 41 28 81.5t58 62.5l122 70h107l-18 -95h-128q-14 -12 -22 -32t-10 -35l-16 -92h158l78 33l53 -49l-52 -298q-4 -23 3 -36.5t26 -13.5
q15 0 33.5 10.5t30.5 18.5l44 30l57 323h129l-73 -415l81 53l20 -28l-151 -104l-84 32l9 59l19 41l-174 -132q-63 0 -89.5 33.5t-15.5 93.5l53 303l-53 -12h-112z" />
    <glyph glyph-name="fy" unicode="fy" horiz-adv-x="764" 
d="M420 494l58 -45l46 -391l157 269l-83 100l110 67l51 -53l-23 -138l-328 -538h-148l22 127h101l120 126l-101 -18l-56 414l-50 -11h-52l-72 -412q-8 -46 -40 -83.5t-80 -69.5l-110 -73h-73l21 112h113q15 18 24.5 42.5t12.5 45.5l77 438h-96l5 21l48 42h53l6 35
q8 41 28 81.5t58 62.5l122 70h107l-18 -95h-128q-14 -12 -22 -32t-10 -35l-16 -92h88z" />
    <glyph glyph-name="ky" unicode="ky" horiz-adv-x="1014" 
d="M510 -235l22 127h101l120 126l-101 -18l-61 449h-40l-81 -92h-56q-26 -5 -48 -15.5t-44 -27.5l-42 -34l66 -22l98 -188l64 40l20 -27l-146 -98l-69 29l-99 246l-46 -260h-129l113 644l-89 -24l-13 35l194 60l44 -33l-70 -397l21 4l169 195h277l43 -32l46 -394l157 269
l-83 100l110 67l51 -53l-23 -138l-328 -538h-148z" />
    <glyph glyph-name="tt" unicode="tt" horiz-adv-x="699" 
d="M454 461l11 60l109 90h36l-27 -150h116l-11 -59h-115l-58 -334l130 49l14 -28l-193 -104l-89 36l67 381h-190l-58 -334l121 47l15 -28l-185 -102l-89 36l67 381h-94l4 21l48 41h53l11 57l108 90h36l-27 -150h190z" />
    <glyph glyph-name="ty" unicode="ty" horiz-adv-x="817" 
d="M319 78l-172 -93l-89 36l67 381h-94l4 21l48 41h53l11 57l108 90h36l-27 -150h132l77 33l58 -45l46 -391l157 269l-83 100l110 67l51 -53l-23 -138l-328 -538h-148l22 127h101l120 126l-102 -18l-55 414l-59 -12h-86l-58 -334l102 38z" />
    <glyph glyph-name="www" unicode="www" horiz-adv-x="1732" 
d="M1234 481v-360l-7 -56l130 199l-6 174l134 43v-364l-10 -56l172 266l-81 100l110 67l51 -53l-22 -138l-224 -316l-118 24l-4 124l13 69l-141 -217l-118 24l-5 162l-130 -186l-118 24l-4 124l13 69l-142 -217l-117 24l-6 165l-133 -189l-117 24l-5 124l14 69l-142 -217
l-118 24l-9 372l18 39l-102 -35l-13 31l176 76l52 -47v-326l-8 -56l130 199l-5 174l133 43v-364l-10 -56l137 212l-4 165l133 43v-360l-7 -56l129 199l-5 174l133 43v-364l-10 -56l135 208l-5 169z" />
    <glyph glyph-name=".notdef" horiz-adv-x="633" 
d="M608 460l-3 -41l-8 -35l-12 -31l-3 -156l-21 -7l-50 70l-27 -7l-19 -140l-32 4l-7 -4l-4 -94l30 -19l16 -14l-3 -15l-30 1l-24 18h-14l-8 8l7 76l-4 47l-61 1l-3 -52l-2 -56v-20l-15 -6l-8 6l-30 -10h-32l-1 11l11 11l50 21l-6 96l-98 -6l-147 140l-4 115l-13 10l-10 36
v26l15 8l-3 78l92 -62l9 47l10 36l22 35l28 35l39 29l40 15l38 14h22l-68 22l4 17h7l79 -20l-4 51l16 12h32l19 -5l29 -25l32 -8l32 -10l15 -13v-20l-20 -31l30 -28l28 -32l18 -34l15 -41zM498 399l-4 7h-205l-66 -3l-7 -9l-6 -44l-48 20l-11 -4l57 -27l1 -45l-5 -73v-91
l18 4l2 40l41 -3l3 9l-44 6v16l48 -6l1 9l-47 7l1 22l43 -3l3 6l-45 9l3 94h74l11 10h-79l2 9h74l8 7h-82l2 22l117 4l140 -4v11zM179 569l29 12l13 -15l-17 -20l-10 -3l17 -3h5l36 24h32l18 -12l8 3l4 14l7 5l10 -4v-18h8l10 22l11 8l-5 6l-3 8l1 21l-30 -10l-10 -8l-8 5
l4 21l14 10l11 11l38 -2l12 13l-4 8h-49l-45 -13l-53 -26l-29 -23zM589 465l-8 37l-19 50l-20 36l-23 28l-34 21h-11l17 -19l25 -10l11 -11l3 -33l-25 13l-15 -29l12 -8v-19l15 3l-12 26l15 -5l10 -20l-5 -12l-8 -7h-23l-3 11l-12 2l1 -22h-14l14 -18l-7 -10l-21 5l-3 -27
l41 6l8 17l22 -2l6 -28l-16 -13v-15l8 -6l18 12h23l6 11l-18 6l-5 9l9 42h7l14 -20zM75 434l57 -32l7 10l-68 38v18l59 -34l43 -28l28 -14l3 10l-103 64l-13 7l-41 33l2 -78l19 -17v-5h-21l19 -14l1 -11l-20 7l18 -18l-4 -7l3 -97l11 -12v180zM484 331l-54 1l-1 -24v-6
l-2 -31l19 -3l-8 -61l-48 3l-8 -6l51 -5l-2 -9h-49l-4 -5l53 -7l-6 -35l27 -1l12 79l4 36l-15 3l-1 8l20 1l5 3l-28 16l2 5l30 -6l-30 15l5 5l21 -5l4 10zM179 331l-66 39v-7l-2 -13l1 -27v-48l64 -44l-1 60zM353 214l-64 4v-51l64 -6v53zM505 306l8 -6l8 2l20 15l13 13
l11 18l-7 5h-14l-10 3l-14 7l-17 -3q-2 -13 -3 -24q-2 -9 -2.5 -17t-0.5 -7zM401 585l5 -6l19 11l8 -2l6 -24h13l6 6l-9 18l17 28l-15 9v5l-25 7v-20l-13 -5v-9l-9 -6zM406 336l4 30l-54 5l-3 -35h53zM339 455l-7 -11h-12l-5 7l11 8l-15 2v6l-23 4l3 -17l8 -14l20 -9l13 -1
l18 10l6 9l5 20l-30 2l7 -5zM562 312l-6 -3l-33 -27l39 -48v78zM217 454l1 4l14 2l-13 6l2 7l-20 -1l3 -19l14 -15l12 -6l11 5l16 12l6 12l2 13l-22 -4l6 -10l-12 -13l-14 -1zM367 281l-72 7l-6 -13l78 -4v10zM179 203l-74 50l20 -23l50 -41zM367 312h-73v-10h73v10z
M357 256l-68 4v-10h68v6zM488 359h-48v-13l44 4zM324 520l-4 -12l49 -17l3 4zM187 498l59 12l-4 12zM387 642l-8 -9v-19l12 -6l3 17zM464 530l-8 -4v-9l8 -3l2 7zM537 386l5 7v7l-10 -4v-10h5z" />
    <glyph glyph-name=".null" horiz-adv-x="0" 
 />
    <glyph glyph-name=".null" horiz-adv-x="0" 
 />
    <glyph glyph-name="nonmarkingreturn" unicode="&#xd;" horiz-adv-x="360" 
 />
    <glyph glyph-name="space" unicode=" " horiz-adv-x="240" 
 />
    <glyph glyph-name="exclam" unicode="!" horiz-adv-x="338" 
d="M260 422l-64 -187h-62l8 187l41 288h139zM178 135l34 -8l-4 -67l-18 -59l-92 -6l-34 6l6 69l16 57z" />
    <glyph glyph-name="quotedbl" unicode="&#x22;" horiz-adv-x="445" 
d="M312 645l19 58l87 7l37 -7l-5 -67l-18 -59l-101 -160l-43 19q8 13 18.5 32t20.5 38.5t17 37t9 27.5l-47 6zM121 645l19 58l87 7l37 -7l-4 -67l-18 -59l-101 -160l-44 19q8 13 19 32t20.5 38.5t17 37t9.5 27.5l-47 6z" />
    <glyph glyph-name="numbersign" unicode="#" horiz-adv-x="621" 
d="M245 257h133l43 141h-133zM570 655l-58 -195h120l-18 -62h-120l-43 -141h118l-18 -62h-119l-57 -195h-73l57 195h-133l-57 -195h-73l57 195h-117l18 62h118l43 141h-116l18 62h116l58 195h73l-58 -195h133l58 195h73z" />
    <glyph glyph-name="dollar" unicode="$" horiz-adv-x="595" 
d="M552 515h-63l-8 88q-38 33 -85 47l-37 -208l72 -60q19 -17 36.5 -33.5t31 -36t21 -44.5t7.5 -58q0 -60 -42.5 -110.5t-115.5 -79.5l-90 -34l-11 -66h-43l11 63q-59 5 -110.5 20t-81.5 38l26 157h73v-84q20 -20 47 -36t58 -24l41 231l-74 61q-42 35 -68.5 70.5t-26.5 85.5
q0 61 41 104t126 76l77 30l12 69h43l-11 -64q61 -3 103.5 -18.5t69.5 -35.5zM383 151q0 37 -16.5 60.5t-40.5 43.5l-36 -209h15q38 15 58 42.5t20 62.5zM261 570q0 -30 16.5 -51.5t44.5 -45.5l32 185q-3 1 -6.5 1h-6.5q-45 -14 -62.5 -37t-17.5 -52z" />
    <glyph glyph-name="percent" unicode="%" horiz-adv-x="823" 
d="M140 -5h-93l640 710h93zM211 350q-30 0 -54.5 10.5t-42 30t-25.5 47.5t-3 63q4 44 20.5 76.5t43 56.5t62 40.5t78.5 27.5q32 0 57 -11t42 -31.5t24.5 -48t3.5 -60.5q-10 -87 -64 -134.5t-142 -66.5zM267 659q-32 0 -50 -36.5t-24 -94.5q-10 -71 3.5 -102.5t39.5 -31.5
q29 0 46.5 36t24.5 94q9 71 -4 103t-36 32zM536 0q-30 0 -55 10.5t-42 30t-25 47.5t-4 63q5 44 21.5 76.5t42.5 56.5t61.5 40.5t79.5 27.5q32 0 57 -11t42 -31.5t24 -48t3 -60.5q-10 -87 -63.5 -134.5t-141.5 -66.5zM591 309q-32 0 -50 -36.5t-24 -94.5q-9 -71 4.5 -102.5
t39.5 -31.5q29 0 46.5 36t23.5 94q10 71 -3.5 103t-36.5 32z" />
    <glyph glyph-name="ampersand" unicode="&#x26;" horiz-adv-x="641" 
d="M513 575q-11 10 -29 23t-38 25.5t-41 23t-37 15.5q-34 -23 -53.5 -53.5t-19.5 -70.5q0 -27 6.5 -48t16 -36t20 -22.5t19.5 -7.5l-9 -48q-30 0 -58 -15.5t-50 -41.5t-35.5 -60.5t-13.5 -73.5q0 -32 7 -59.5t22 -48t37.5 -32.5t52.5 -12q54 18 80 58.5t39 108.5l11 64h-49
l-17 -23h-22l20 105h240l17 23h21l-19 -105h-60l-14 -74q-6 -32 -16 -58t-31 -48t-55.5 -40.5t-88.5 -34.5q-4 -2 -18 -5.5t-30 -8t-31 -8.5t-20 -5q-57 0 -99.5 14t-71 38.5t-43 58t-14.5 73.5q0 72 45.5 123t133.5 86l45 18q-19 3 -39 14t-36.5 28.5t-27.5 41t-11 51.5
q0 33 17 58.5t47 45.5t71 36t89 28l89 23q14 -1 31 -7t33 -14t30.5 -17t23.5 -16z" />
    <glyph glyph-name="quotesingle" unicode="'" horiz-adv-x="254" 
d="M121 645l19 58l87 7l37 -7l-4 -67l-18 -59l-101 -160l-44 19q8 13 19 32t20.5 38.5t17 37t9.5 27.5l-47 6z" />
    <glyph glyph-name="parenleft" unicode="(" horiz-adv-x="335" 
d="M380 701q-110 -137 -166.5 -288t-56.5 -323q0 -83 14 -157.5t40 -140.5l-32 -30q-30 51 -52 93t-37 81t-22.5 78.5t-7.5 84.5q0 68 6.5 123.5t20 104.5t36 94.5t54.5 92.5t74.5 98.5t96.5 113.5z" />
    <glyph glyph-name="parenright" unicode=")" horiz-adv-x="324" 
d="M-28 -213q109 136 166 287t57 324q0 83 -14 157.5t-40 140.5l32 30q30 -51 52 -93.5t37 -81.5t22.5 -78t7.5 -84q0 -68 -6.5 -123.5t-20 -105t-36 -94.5t-54.5 -92t-74.5 -99t-96.5 -113l-32 25v0z" />
    <glyph glyph-name="asterisk" unicode="*" horiz-adv-x="407" 
d="M169 383l-80 66l95 83l-119 16l49 105l100 -57l-9 119h111l-34 -119l114 57l21 -105l-122 -16l80 -83l-97 -66l-43 110z" />
    <glyph glyph-name="plus" unicode="+" 
d="M271 0v215h-219v77h219v223h77v-223h219v-77h-219v-215h-77z" />
    <glyph glyph-name="comma" unicode="," horiz-adv-x="257" 
d="M54 70l19 57l87 8l37 -8l-4 -67l-18 -59l-101 -159l-44 19q8 13 19 32t20.5 38.5t17 37t9.5 27.5l-47 5z" />
    <glyph glyph-name="hyphen" unicode="-" horiz-adv-x="400" 
d="M64 319h305l-14 -77h-305z" />
    <glyph glyph-name="period" unicode="." horiz-adv-x="274" 
d="M164 135l35 -8l-5 -67l-18 -59l-92 -6l-34 6l6 69l17 57z" />
    <glyph glyph-name="slash" unicode="/" horiz-adv-x="507" 
d="M-52 -230h-71l619 948h70z" />
    <glyph glyph-name="zero" unicode="0" horiz-adv-x="601" 
d="M345 494q51 0 93 -16t71.5 -43.5t45.5 -66t16 -83.5q0 -43 -11.5 -84.5t-38.5 -78.5t-71 -67t-110 -49l-69 -21q-51 0 -93 16t-71.5 44.5t-45.5 66.5t-16 83q0 43 11.5 85t38.5 78t71 65.5t110 49.5zM300 47q59 22 91 82t32 141q0 33 -9.5 60.5t-24.5 48.5t-34 34.5
t-39 18.5q-59 -22 -91 -81t-32 -141q0 -32 8.5 -59.5t22.5 -48.5t33.5 -35t42.5 -20z" />
    <glyph glyph-name="one" unicode="1" horiz-adv-x="484" 
d="M298 62l146 -16l-14 -47l-209 3l-216 -3l3 47l151 16l51 296l9 20l-44 -18l-107 -22l-11 43l244 105h71z" />
    <glyph glyph-name="two" unicode="2" horiz-adv-x="530" 
d="M173 316h-106l13 108l241 70q84 0 127 -31.5t43 -83.5q0 -40 -26.5 -76t-65 -66.5t-82.5 -54.5t-80 -41l-139 -64l199 37h207v-42l-42 -72h-448l-19 47l166 117q36 25 68.5 48.5t57 47.5t39.5 50.5t15 56.5q0 65 -62 65l-61 -17z" />
    <glyph glyph-name="three" unicode="3" horiz-adv-x="487" 
d="M-45 -235l20 112h225q74 55 74 134q0 48 -33 75.5t-106 27.5l-9 34l47 20q63 26 99.5 71.5t36.5 107.5q0 38 -17.5 60.5t-46.5 24.5l-58 -17l-44 -106h-105l13 115l235 70q45 0 77 -10t51.5 -28t28.5 -42t9 -52q0 -37 -16 -66t-42.5 -51.5t-60.5 -39t-69 -28.5
q42 -3 73 -15.5t50.5 -32t29 -44t9.5 -50.5q0 -54 -26 -91t-65 -63t-85.5 -44.5t-87.5 -34.5l-94 -37h-113z" />
    <glyph glyph-name="four" unicode="4" horiz-adv-x="576" 
d="M427 89h129l-17 -95h-129l-40 -224h-123l40 224h-252l-30 63l377 422h134l-9 -54l-421 -358l63 22h155l12 74l110 79h27z" />
    <glyph glyph-name="five" unicode="5" horiz-adv-x="508" 
d="M-20 -235l20 112h225q36 30 55.5 70.5t19.5 82.5q0 50 -23.5 81.5t-78.5 31.5q-28 0 -50 -6.5t-51 -19.5l-36 -19l-22 25l104 356h371l-8 -42l-43 -72h-293l-61 -198l142 71q49 0 86.5 -13t62.5 -35t38 -51t13 -62q0 -58 -22.5 -100.5t-58.5 -74.5t-80.5 -55t-88.5 -41
l-97 -41h-124z" />
    <glyph glyph-name="six" unicode="6" horiz-adv-x="561" 
d="M212 305q-5 -24 -8 -51.5t-3 -56.5q0 -66 22 -107.5t64 -51.5q27 12 46.5 34t32 49t18 56t5.5 55q0 67 -18 100.5t-43 33.5q-19 0 -38 -9t-45 -28zM553 677q-78 -20 -137 -56.5t-100 -81.5t-65 -92.5t-31 -89.5l156 107q35 0 64.5 -15t51 -40.5t33.5 -59.5t12 -71
q0 -51 -16 -94t-45 -77.5t-68.5 -60t-87.5 -41.5l-67 -22q-92 0 -147.5 62t-55.5 177q0 85 37.5 166.5t103 149t154.5 115t193 64.5z" />
    <glyph glyph-name="seven" unicode="7" horiz-adv-x="504" 
d="M392 374l-41 -21h-325l21 126h436l27 -33l-402 -676h-97l2 56z" />
    <glyph glyph-name="eight" unicode="8" horiz-adv-x="572" 
d="M348 423q38 27 58.5 61.5t20.5 76.5q0 41 -20.5 69t-65.5 35q-38 -16 -52 -49t-14 -70q0 -35 19 -65.5t54 -57.5zM187 166q0 -29 8.5 -52t22 -39.5t30 -26.5t32.5 -14q48 19 70 54.5t22 80.5q0 27 -8.5 48.5t-22 39.5t-31 34t-35.5 31q-39 -29 -63.5 -67.5t-24.5 -88.5z
M241 -19q-43 0 -79.5 12t-63.5 33t-42.5 50t-15.5 64q0 43 16 76t42 58t60.5 44t72.5 33q-54 36 -80 72.5t-26 82.5q0 34 13.5 63.5t37 52.5t55.5 41t69 30l80 24q44 0 79.5 -9.5t61 -26.5t39 -41t13.5 -52q0 -42 -15.5 -72.5t-41 -53.5t-58.5 -40t-68 -32q29 -20 54 -39
t43 -40t28 -44.5t10 -53.5q0 -43 -17 -76.5t-47 -59t-70.5 -44.5t-86.5 -33z" />
    <glyph glyph-name="nine" unicode="9" horiz-adv-x="561" 
d="M364 171q5 25 8 52t3 56q0 67 -22 108.5t-64 51.5q-27 -13 -46.5 -35.5t-32 -49.5t-18 -56t-5.5 -56q0 -66 18 -98.5t43 -32.5q19 0 38 9t45 28zM23 -200q78 19 137 56t100 81.5t64.5 92.5t31.5 89l-156 -107q-35 0 -64.5 15t-51 40.5t-33.5 59t-12 71.5q0 51 16 94
t45 77.5t68.5 60t87.5 41.5l67 22q92 0 147.5 -61.5t55.5 -176.5q0 -85 -37.5 -166.5t-103 -149t-155 -115.5t-192.5 -65z" />
    <glyph glyph-name="colon" unicode=":" horiz-adv-x="286" 
d="M222 482l34 -7l-4 -67l-18 -59l-92 -7l-34 7l5 68l17 58zM164 135l35 -8l-5 -67l-18 -59l-92 -6l-34 6l6 69l17 57z" />
    <glyph glyph-name="semicolon" unicode=";" horiz-adv-x="285" 
d="M221 482l34 -7l-4 -67l-19 -59l-91 -7l-35 7l6 68l17 58zM54 70l19 57l87 8l37 -8l-4 -67l-18 -59l-101 -159l-44 19q8 13 19 32t20.5 38.5t17 37t9.5 27.5l-47 5z" />
    <glyph glyph-name="less" unicode="&#x3c;" 
d="M570 548v-88l-418 -173l418 -173v-89l-520 231v60z" />
    <glyph glyph-name="equal" unicode="=" 
d="M567 304h-515v77h515v-77zM567 109h-515v77h515v-77z" />
    <glyph glyph-name="greater" unicode="&#x3e;" 
d="M55 77h511v-77h-511v77zM570 621v-88l-418 -173l418 -173v-89l-520 231v60z" />
    <glyph glyph-name="question" unicode="?" horiz-adv-x="443" 
d="M176 135l35 -8l-5 -67l-18 -59l-92 -6l-34 6l6 69l17 57zM196 558h-84l-2 84l202 68q30 0 59 -11t51.5 -31.5t36.5 -49.5t14 -65q0 -66 -45.5 -111.5t-126.5 -77.5l-60 -23l-44 -121h-58l19 122l79 42q41 22 63 62t22 85q0 19 -4.5 38.5t-13 36t-20.5 28.5t-26 15
l-45 -15z" />
    <glyph glyph-name="at" unicode="@" horiz-adv-x="933" 
d="M626 131q30 4 63 23.5t60.5 53.5t45 81t17.5 106q0 53 -19 98.5t-54.5 79.5t-86.5 53t-114 19q-64 0 -127.5 -27.5t-114 -77t-82 -119.5t-31.5 -154q0 -85 30 -145t78 -98t108.5 -55.5t121.5 -17.5q60 0 106 16.5t76 29.5l18 -33q-28 -14 -59.5 -27t-63.5 -23.5
t-61.5 -17.5t-53.5 -10q-92 0 -167 27t-128.5 75.5t-83 115t-29.5 145.5q0 73 25.5 139t72 120t111.5 95.5t143 65.5l93 29q93 0 164.5 -22.5t120 -61.5t73.5 -92.5t25 -116.5q0 -66 -25 -123t-66.5 -100t-95.5 -67.5t-112 -24.5l-59 62l41 111q-2 -3 -10 -13.5t-24.5 -31.5
t-43 -53t-65.5 -77q-29 0 -56.5 10t-48.5 28.5t-33.5 45t-12.5 58.5q0 85 49.5 152.5t130.5 104.5l109 49l126 -68zM603 417l-72 53q-38 -18 -64 -43.5t-42 -54.5t-22.5 -58t-6.5 -54q0 -41 17.5 -61.5t47.5 -20.5l112 129z" />
    <glyph glyph-name="A" unicode="A" horiz-adv-x="695" 
d="M487 2l-119 -3l2 47l75 13l-13 168h-221l-99 -168l76 -13l-12 -47l-101 3l-98 -3l2 47l62 11l370 632l130 29l62 -661l64 -11l-11 -47zM239 282h189l-20 249l6 68z" />
    <glyph glyph-name="B" unicode="B" horiz-adv-x="615" 
d="M360 64q45 29 64.5 66.5t19.5 83.5q0 54 -29 91t-91 37h-58l-45 -278h139zM400 379q99 -11 149 -54t50 -103q0 -40 -17 -70.5t-43.5 -53.5t-60 -39.5t-66.5 -27.5l-98 -32l-198 3l-126 -3l2 47l80 13l94 585l-75 12l12 45l124 -3l196 3q46 0 80.5 -11.5t58 -31t35 -45
t11.5 -52.5q0 -58 -38.5 -101.5t-107.5 -63.5zM316 393q33 0 59.5 13.5t45.5 35.5t29 50t10 56q0 42 -22 71.5t-70 29.5h-54l-40 -256h42z" />
    <glyph glyph-name="C" unicode="C" horiz-adv-x="648" 
d="M337 -18q-67 0 -121 21t-91.5 60t-57.5 95t-20 126q0 59 15.5 118t49.5 111.5t88 96t131 71.5l106 39q37 0 69 -7t58.5 -17.5t47 -23t34.5 -23.5l-2 -168h-64l-25 97q-23 23 -65 44t-105 30q-91 -45 -134 -133t-43 -205q0 -63 14.5 -111t39.5 -80.5t57 -50.5t67 -22
q19 8 34.5 15.5t28.5 15.5t25 18t25 23l60 114h67l-46 -186z" />
    <glyph glyph-name="D" unicode="D" horiz-adv-x="693" 
d="M314 647l-93 -582h145q33 21 63.5 52t53.5 72t36.5 92.5t13.5 112.5q0 59 -13.5 105.5t-36 79t-51.5 50t-61 18.5h-57zM137 2l-147 -3l3 47l79 13l93 585l-76 12l13 45l151 -3l162 3q65 0 116.5 -21t87.5 -59.5t55.5 -92.5t19.5 -118q0 -57 -16.5 -113t-52.5 -106
t-93 -92.5t-137 -70.5l-80 -29z" />
    <glyph glyph-name="E" unicode="E" horiz-adv-x="613" 
d="M628 701v-188h-52l-48 127l-215 3l-40 -247l115 4l62 107h45l-37 -140l-9 -138h-45l-26 106l-114 4l-45 -281l244 3l80 135h53l-50 -197l-421 3l-135 -3l2 47l79 13l94 583l-77 13l13 46l135 -3z" />
    <glyph glyph-name="F" unicode="F" horiz-adv-x="584" 
d="M340 46l-13 -47l-189 3l-148 -3l2 47l79 13l94 583l-77 13l13 46l135 -3l392 3v-194h-52l-48 133l-215 3l-42 -263l115 4l62 107h45l-37 -140l-9 -138h-45l-26 107l-114 4l-43 -266z" />
    <glyph glyph-name="G" unicode="G" horiz-adv-x="685" 
d="M474 268l-81 13l13 49l151 -2l123 3l-1 -50l-57 -13l-34 -210l-261 -76q-66 0 -119.5 20.5t-91 59t-57.5 93.5t-20 125q0 59 17 119t53.5 114t95 99t141.5 74l89 32q75 0 128 -22.5t82 -46.5v-165h-64l-25 94q-27 29 -73 50.5t-99 23.5q-85 -42 -134.5 -126t-49.5 -212
q0 -66 14 -113.5t37.5 -80t54.5 -50t66 -21.5q43 13 72 32z" />
    <glyph glyph-name="H" unicode="H" horiz-adv-x="729" 
d="M88 655l13 46l148 -3l141 3l-3 -46l-72 -13l-40 -252h235l40 252l-69 13l13 46l142 -3l146 3l-3 -46l-78 -13l-92 -583l74 -13l-13 -47l-145 3l-143 -3l2 47l74 13l44 275h-236l-43 -275l68 -13l-13 -47l-139 3l-149 -3l2 47l80 13l92 583z" />
    <glyph glyph-name="I" unicode="I" horiz-adv-x="345" 
d="M223 59l74 -13l-13 -47l-145 3l-146 -3l3 47l79 13l94 582l-76 13l13 47l151 -3l141 3l-3 -47l-78 -13z" />
    <glyph glyph-name="J" unicode="J" horiz-adv-x="362" 
d="M-83 -175l21 105h109q19 30 31 64.5t20 85.5l89 561l-88 13l13 47l158 -3l146 3l-3 -47l-78 -13l-87 -541q-11 -65 -42.5 -107.5t-89.5 -83.5l-112 -84h-87z" />
    <glyph glyph-name="K" unicode="K" horiz-adv-x="732" 
d="M273 382l30 15l265 244l-67 13l10 47l117 -3l119 3l-2 -47l-86 -13l-289 -253l38 -19l233 -311l49 -12l-12 -47l-81 3l-104 -3l-210 322l-15 36l-47 -298l63 -13l-12 -47l-135 3l-147 -3l3 47l80 13l93 582l-76 13l13 47l151 -3l131 3l-3 -47l-68 -13z" />
    <glyph glyph-name="L" unicode="L" horiz-adv-x="578" 
d="M235 698l162 3l-3 -47l-80 -13l-94 -583l214 3l90 141h53l-61 -203l-390 3l-136 -3l3 47l80 13l93 582l-76 13l13 47z" />
    <glyph glyph-name="M" unicode="M" horiz-adv-x="897" 
d="M144 59l71 -13l-10 -47l-108 3l-107 -3l3 47l76 13l92 579l-77 16l13 47l98 -3l157 3l88 -492l-7 -81l266 573l135 -3l116 3l-3 -47l-78 -13l-93 -582l72 -13l-13 -47l-139 3l-146 -3l2 47l80 13l78 481l29 111l-307 -651h-97l-95 517l-11 130z" />
    <glyph glyph-name="N" unicode="N" horiz-adv-x="701" 
d="M144 59l83 -13l-13 -47l-114 3l-110 -3l2 47l80 13l92 581l-73 14l12 47l87 -3l106 3l229 -428l14 -106l66 474l-71 13l12 47l98 -3l115 3l-2 -47l-80 -13l-102 -641h-87l-253 492l-12 104z" />
    <glyph glyph-name="O" unicode="O" horiz-adv-x="721" 
d="M208 312q0 -115 47 -183t122 -83q94 42 138 132.5t44 209.5q0 115 -47 183t-122 83q-94 -42 -138 -132.5t-44 -209.5zM428 718q68 0 122.5 -22.5t92 -63.5t57.5 -99t20 -130q0 -59 -15.5 -118t-50.5 -112t-91 -96t-137 -68l-87 -27q-68 0 -122 22.5t-92 63.5t-58 99
t-20 130q0 58 15.5 117.5t51 112.5t91.5 95.5t137 68.5z" />
    <glyph glyph-name="P" unicode="P" horiz-adv-x="599" 
d="M439 700q91 1 146 -38.5t55 -112.5q0 -44 -17 -76.5t-48 -59t-74 -47.5t-94 -40l-75 -29h-73l-39 -238l119 -13l-12 -47l-192 3l-145 -3l3 47l79 13l94 584l-76 11l13 47l142 -3zM315 651l-45 -282h129q38 29 60.5 69t22.5 94q0 57 -25.5 87t-73.5 32h-68z" />
    <glyph glyph-name="Q" unicode="Q" horiz-adv-x="721" 
d="M428 718q68 0 122.5 -22.5t92 -63.5t57.5 -99t20 -130q0 -59 -15.5 -118t-50.5 -112t-91 -96t-137 -68l-33 -10l100 -33l80 -72l64 -21l-3 -39h-168l-139 149q-65 2 -117 25t-88 64t-55.5 98t-19.5 127q0 58 15.5 117.5t51 112.5t91.5 95.5t137 68.5zM208 312
q0 -115 47 -183t122 -83q94 42 138 132.5t44 209.5q0 115 -47 183t-122 83q-94 -42 -138 -132.5t-44 -209.5z" />
    <glyph glyph-name="R" unicode="R" horiz-adv-x="681" 
d="M261 314l-41 -255l80 -13l-13 -47l-152 3l-145 -3l3 47l79 13l94 584l-76 11l13 47l142 -3l194 3q45 0 82.5 -10t63.5 -28.5t40.5 -45.5t14.5 -61q0 -38 -13.5 -68t-37.5 -54.5t-58 -43.5t-76 -34l-64 -23l92 -41l112 -232l51 -15l-10 -46l-103 3l-82 -3l-130 305l-12 10
h-48zM315 651l-43 -267h119q44 26 67.5 65.5t23.5 93.5q0 51 -25 79t-74 29h-68z" />
    <glyph glyph-name="S" unicode="S" horiz-adv-x="523" 
d="M523 515h-63l-8 88q-30 26 -63.5 40t-76.5 16q-45 -14 -62.5 -37t-17.5 -52q0 -32 19 -54.5t51 -49.5l100 -84q19 -17 36.5 -33.5t31 -36t21 -44.5t7.5 -58q0 -60 -42.5 -110.5t-115.5 -79.5l-99 -38q-68 0 -129.5 16.5t-96.5 42.5l26 157h73v-84q29 -29 73 -48.5
t89 -19.5q38 15 58 42.5t20 62.5q0 21 -5.5 37t-15 29.5t-22 25t-26.5 22.5l-99 81q-42 35 -68.5 70.5t-26.5 85.5q0 61 41 104t126 76l92 36q74 0 123 -16.5t79 -38.5z" />
    <glyph glyph-name="T" unicode="T" horiz-adv-x="611" 
d="M355 59l92 -13l-12 -47l-165 3l-162 -3l2 47l97 13l94 585l-117 -3l-65 -141h-51l28 201l292 -3l282 3l-27 -201h-52l-26 141l-116 3z" />
    <glyph glyph-name="U" unicode="U" horiz-adv-x="692" 
d="M599 242q-7 -41 -19.5 -77t-36 -66t-60 -53t-91.5 -39l-86 -25q-69 0 -114.5 18.5t-70.5 53t-31 82.5t3 107l64 399l-76 13l12 46l136 -3l155 3l-2 -46l-75 -13l-67 -410q-6 -37 1.5 -69t27.5 -55.5t51 -37t72 -13.5q27 12 48 25.5t36 33t25.5 47.5t16.5 69l66 410
l-88 13l12 46l125 -3l119 3l-3 -46l-87 -13z" />
    <glyph glyph-name="V" unicode="V" horiz-adv-x="670" 
d="M273 -18l-128 662l-64 11l12 46l166 -3l116 3l-2 -46l-75 -13l78 -458l-13 -80l239 538l-76 13l13 46l106 -3l88 3l-3 -46l-50 -11l-295 -633z" />
    <glyph glyph-name="W" unicode="W" horiz-adv-x="979" 
d="M249 -18l-107 661l-64 11l12 47l166 -3l108 3l-2 -47l-67 -13l60 -463l-13 -71l171 427l-17 109l-55 11l12 47l158 -3l122 3l-3 -47l-81 -13l61 -463l-13 -71l218 534l-88 13l12 47l118 -3l85 3l-3 -47l-50 -11l-274 -633l-111 -28l-65 429l8 60l-187 -460z" />
    <glyph glyph-name="X" unicode="X" horiz-adv-x="711" 
d="M549 2l-174 -3l2 47l75 13l-102 197v47l-204 -245l68 -12l-12 -47l-127 3l-95 -3l2 47l70 12l252 285l-168 300l-56 11l12 47l114 -3l175 3l-2 -47l-75 -13l97 -186v-44l201 230l-72 13l12 47l131 -3l83 3l-2 -47l-63 -11l-245 -270l177 -315l51 -12l-12 -47z" />
    <glyph glyph-name="Y" unicode="Y" horiz-adv-x="674" 
d="M439 280l-34 -221l106 -13l-12 -47l-180 3l-178 -3l2 47l114 13l34 222l-154 361l-56 12l12 47l134 -3l147 3l-2 -47l-76 -13l106 -256v-59l203 316l-73 12l11 47l111 -3l86 2l-2 -46l-56 -12z" />
    <glyph glyph-name="Z" unicode="Z" horiz-adv-x="569" 
d="M509 210h53l-69 -210h-498l-4 48l421 560l55 37l-259 -7l-69 -130h-49l30 192h483l11 -44l-425 -566l-53 -33l272 5z" />
    <glyph glyph-name="bracketleft" unicode="[" horiz-adv-x="333" 
d="M222 -230l-129 3l-83 -3q22 123 40 228q8 45 15.5 89.5t14.5 83.5t12 69t8 44q1 7 5.5 30t10 54.5t12 69.5t13.5 77q16 91 35 200l82 -3l131 3l-8 -47l-127 -10q-9 -43 -20 -99q-10 -48 -22.5 -116.5t-27.5 -154.5q-19 -103 -33 -187.5t-24 -145.5q-11 -71 -20 -128
l123 -10z" />
    <glyph glyph-name="backslash" unicode="\" horiz-adv-x="440" 
d="M98 718h66l286 -948h-67z" />
    <glyph glyph-name="bracketright" unicode="]" horiz-adv-x="331" 
d="M81 -173q11 57 25 128q12 61 27.5 145.5t34.5 187.5q15 86 25.5 154.5t18.5 116.5q9 56 15 99l-123 10l9 47l129 -3l84 3q-20 -110 -36 -201q-7 -39 -13.5 -77t-12.5 -69.5t-10 -54.5t-5 -30q-3 -14 -8 -43.5t-12 -68.5t-14.5 -83.5t-15.5 -89.5q-18 -105 -40 -228l-82 3
l-131 -3l8 47z" />
    <glyph glyph-name="asciicircum" unicode="^" horiz-adv-x="381" 
d="M174 460h-104l149 245h45l97 -245h-104l-31 121z" />
    <glyph glyph-name="underscore" unicode="_" horiz-adv-x="561" 
d="M-29 -61h555l-11 -67h-555z" />
    <glyph glyph-name="grave" unicode="`" horiz-adv-x="500" 
d="M259 557l-79 176h130l10 -176h-61z" />
    <glyph glyph-name="a" unicode="a" horiz-adv-x="535" 
d="M425 64l82 52l20 -27l-150 -104l-88 36l10 54l21 51l-163 -141q-56 16 -91 61t-35 129q0 91 47.5 160t136.5 112l98 47q40 -1 88 -13t93 -29zM169 224q0 -48 13 -79.5t33 -54.5l99 72l40 229q-23 13 -55 20t-60 7q-32 -37 -51 -86t-19 -108z" />
    <glyph glyph-name="b" unicode="b" horiz-adv-x="518" 
d="M373 494q59 -14 93.5 -61t34.5 -125q0 -46 -12 -88t-34.5 -78.5t-56.5 -65.5t-77 -48l-95 -43q-49 2 -100 13t-92 36l107 609l-90 -24l-13 36l195 60l44 -34l-46 -265l-24 -50zM215 332l-40 -232q21 -13 54.5 -24.5t64.5 -11.5q19 15 32 37.5t21 48t11.5 52.5t3.5 51
q0 53 -13 87.5t-36 47.5z" />
    <glyph glyph-name="c" unicode="c" horiz-adv-x="444" 
d="M273 78q11 5 26.5 13t31.5 16t30.5 16.5t25.5 15.5l22 -30q-27 -20 -60.5 -42t-75.5 -47l-59 -35q-38 2 -70.5 15.5t-57 38t-38.5 58.5t-14 78q0 94 51 162.5t151 116.5l82 40q29 -3 63 -13t67 -27l-69 -108q-32 22 -64 37.5t-64 26.5q-39 -29 -58.5 -76.5t-19.5 -103.5
q0 -59 26 -95.5t74 -56.5z" />
    <glyph glyph-name="d" unicode="d" horiz-adv-x="555" 
d="M299 25l9 54l22 49l-163 -143q-59 17 -96 62.5t-37 131.5q0 88 43 155t129 109l104 51q16 0 33 -3.5t36 -8.5l28 162l-89 -24l-13 35l195 60l42 -33l-109 -618l83 54l20 -27l-150 -106zM173 223q0 -48 14 -79t37 -51l98 71l42 235q-26 10 -58 15.5t-62 5.5
q-18 -17 -31.5 -40t-22 -49.5t-13 -54t-4.5 -53.5z" />
    <glyph glyph-name="e" unicode="e" horiz-adv-x="462" 
d="M269 78q13 5 31 12.5t36.5 16.5t36 18t30.5 16l20 -29q-32 -20 -77.5 -47t-90.5 -49l-64 -31q-31 5 -59.5 20t-50 39t-34.5 56.5t-13 73.5q0 46 12.5 89.5t37.5 80.5t62 66t85 46l111 38q44 -10 73.5 -38.5t29.5 -77.5q0 -23 -3 -42.5t-11 -45.5l-256 -75v-11
q5 -46 30.5 -79t63.5 -47zM262 433q-42 -26 -63 -75.5t-25 -106.5l125 47q5 19 7 31.5t2 28.5q0 31 -14 50.5t-32 24.5z" />
    <glyph glyph-name="f" unicode="f" horiz-adv-x="350" 
d="M3 -123q15 18 24.5 42.5t12.5 45.5l77 438h-96l5 21l48 42h53l6 35q8 41 28 81.5t58 62.5l122 70h107l-18 -95h-128q-14 -12 -22 -32t-10 -35l-16 -92h109l-11 -58h-108l-72 -412q-8 -46 -40 -83.5t-80 -69.5l-110 -73h-73l21 112h113z" />
    <glyph glyph-name="g" unicode="g" horiz-adv-x="522" 
d="M17 -235l19 111h203q18 18 33 47.5t20 62.5l14 92l23 49l-161 -142q-59 15 -96.5 61.5t-37.5 132.5q0 88 48 156t139 113l89 46q21 0 45.5 -3t50 -8.5t50.5 -13.5t46 -18l-81 -461q-8 -45 -49 -81t-102 -77l-98 -67h-155zM173 223q0 -49 13.5 -81t37.5 -50l98 70l41 231
q-25 14 -55.5 22t-60.5 8q-20 -18 -34 -41.5t-23 -50t-13 -54.5t-4 -54z" />
    <glyph glyph-name="h" unicode="h" horiz-adv-x="561" 
d="M168 0h-129l114 645l-88 -26l-14 36l195 60l43 -34l-49 -273l-18 -37l182 123q127 0 104 -129l-54 -297l80 50l20 -27l-150 -106l-87 39l54 307q3 21 -2 36.5t-27 15.5q-17 0 -37 -9t-34 -18l-45 -28z" />
    <glyph glyph-name="i" unicode="i" horiz-adv-x="310" 
d="M183 692l41 7l72 -7v-65l-22 -53l-38 -8l-79 8l3 60zM42 387l-13 32l176 75l55 -50l-67 -376l81 50l20 -27l-150 -106l-87 39l68 391z" />
    <glyph glyph-name="j" unicode="j" horiz-adv-x="295" 
d="M-125 -235l20 110h115q18 25 27 54t14 54l76 432l-83 -28l-13 32l176 75l55 -50l-78 -442q-9 -51 -41 -89t-80 -70l-116 -78h-72zM184 692l41 7l72 -7v-65l-21 -53l-38 -8l-80 8l3 60z" />
    <glyph glyph-name="k" unicode="k" horiz-adv-x="535" 
d="M63 620l-13 35l194 60l44 -33l-70 -397l21 4l169 195h122l-27 -127h-89q-26 -5 -48 -15.5t-44 -27.5l-42 -34l66 -22l98 -188l64 40l20 -27l-146 -98l-69 29l-99 246l-46 -260h-129l113 644z" />
    <glyph glyph-name="l" unicode="l" horiz-adv-x="304" 
d="M67 619l-13 36l194 60l43 -34l-108 -614l82 51l20 -27l-150 -106l-89 39l109 618z" />
    <glyph glyph-name="m" unicode="m" horiz-adv-x="825" 
d="M405 494q117 0 103 -115l159 115q124 0 101 -129l-54 -303l84 55l20 -28l-151 -104l-89 37l53 306q4 21 -0.5 36.5t-24.5 15.5q-14 0 -31 -9t-30 -18l-45 -28l-58 -325h-130l59 331q3 20 -1.5 36t-24.5 16q-14 0 -31 -9.5t-30 -17.5l-47 -28l-57 -328h-130l73 414
l-81 -27l-13 32l176 75l53 -48l-7 -39l-16 -35z" />
    <glyph glyph-name="n" unicode="n" horiz-adv-x="571" 
d="M379 331q3 21 -1 36.5t-26 15.5q-17 0 -36 -9t-33 -18l-46 -28l-57 -328h-129l72 414l-81 -27l-13 32l176 75l53 -48l-7 -39l-16 -35l177 122q124 0 103 -129l-53 -300l82 52l20 -28l-150 -104l-89 37z" />
    <glyph glyph-name="o" unicode="o" horiz-adv-x="518" 
d="M305 494q40 0 76 -13.5t63.5 -39t43.5 -63t16 -85.5q0 -95 -52 -166t-153 -114l-66 -28q-40 0 -76 12.5t-63.5 37.5t-43.5 62t-16 85q0 95 53 165.5t152 115.5zM264 426q-24 -12 -41.5 -35t-28.5 -52t-16.5 -61t-5.5 -63q0 -76 28 -115t73 -50q24 12 42 35t29 52t16.5 61
t5.5 63q0 76 -28 115.5t-74 49.5z" />
    <glyph glyph-name="p" unicode="p" horiz-adv-x="549" 
d="M174 -51l-32 -179h-129l113 644l-81 -27l-13 32l176 75l52 -43l-6 -39l-20 -48l167 130q60 -18 92.5 -64t32.5 -126q0 -45 -12 -86.5t-35 -77t-55.5 -64.5t-74.5 -48l-92 -43q-20 2 -40 5t-42 11zM239 329l-39 -231q26 -13 57.5 -23.5t61.5 -10.5q19 15 32 37t21 48
t11.5 53t3.5 51q0 104 -49 134z" />
    <glyph glyph-name="q" unicode="q" horiz-adv-x="518" 
d="M169 -15q-61 15 -98 62t-37 128q0 90 48.5 161.5t138.5 114.5l86 43q46 -1 100.5 -11.5t95.5 -28.5l-121 -684h-128l51 295l26 60zM322 160l42 239q-29 13 -62 17t-59 4q-19 -15 -32.5 -38t-21.5 -49.5t-12 -54t-4 -52.5q0 -51 15 -82.5t41 -46.5z" />
    <glyph glyph-name="r" unicode="r" horiz-adv-x="426" 
d="M236 372l-34 -119l145 231h95l-30 -133h-58q-23 -13 -47.5 -32.5t-48.5 -47.5l-40 -44l-39 -227h-130l73 414l-80 -27l-13 32l176 75l44 -42z" />
    <glyph glyph-name="s" unicode="s" horiz-adv-x="404" 
d="M135 -15q-14 3 -33 9.5l-38 13t-35 13t-24 11.5l52 101q16 -8 36.5 -18.5t43 -21.5t45.5 -22t44 -20q25 8 25 35q0 14 -9 30.5t-38 38.5l-94 75q-22 18 -35 44.5t-13 53.5q0 39 26 68t90 58l85 40q26 -3 61 -15t72 -28l-55 -103q-33 21 -75 42.5t-78 37.5
q-24 -10 -24 -33q0 -14 9.5 -27t35.5 -33l93 -73q30 -23 41.5 -49.5t11.5 -50.5q0 -50 -27 -81t-76 -50z" />
    <glyph glyph-name="t" unicode="t" horiz-adv-x="380" 
d="M196 68l130 49l15 -28l-194 -104l-89 36l67 381h-94l4 21l48 41h53l11 57l108 90h36l-27 -150h116l-11 -59h-115z" />
    <glyph glyph-name="u" unicode="u" horiz-adv-x="568" 
d="M40 387l-13 32l177 75l53 -48l-52 -299q-4 -23 3 -36.5t26 -13.5q15 0 33.5 10.5t30.5 18.5l44 30l57 323h129l-73 -415l81 53l20 -28l-151 -104l-84 32l9 59l19 41l-174 -132q-63 0 -89.5 33.5t-15.5 93.5l53 303z" />
    <glyph glyph-name="v" unicode="v" horiz-adv-x="489" 
d="M323 427l109 67l52 -53l-23 -138l-231 -318l-126 24l-11 406l-83 -28l-13 31l182 76l47 -47l3 -327l-12 -65l193 275z" />
    <glyph glyph-name="w" unicode="w" horiz-adv-x="723" 
d="M557 427l110 67l51 -53l-23 -138l-224 -318l-117 24l-5 126l14 69l-142 -219l-118 24l-10 406l-83 -28l-13 31l176 76l52 -47v-328l-8 -56l130 201l-5 174l133 43v-366l-10 -56l172 268z" />
    <glyph glyph-name="x" unicode="x" horiz-adv-x="530" 
d="M152 418l-84 -29l-13 32l171 73l53 -47l31 -110v-46l129 193h107l-30 -125h-57q-17 -5 -33.5 -17t-39.5 -36l-51 -50l58 -191l90 52l20 -28l-150 -104l-80 35l-39 126v41l-130 -192h-107l30 125h63q17 5 34.5 16.5t39.5 37.5l45 52z" />
    <glyph glyph-name="y" unicode="y" horiz-adv-x="501" 
d="M240 18l-101 -18l-55 413l-79 -27l-15 30l166 78l59 -42l47 -394l156 269l-83 100l110 67l51 -53l-23 -138l-328 -538h-147l21 127h101z" />
    <glyph glyph-name="z" unicode="z" horiz-adv-x="449" 
d="M371 110l41 35l28 -9l-79 -153l-285 44l-47 -33l-36 25l350 381l-97 -53l-140 18l-28 -27l-30 6l73 144l276 -29l31 20l30 -21l-326 -354l85 37z" />
    <glyph glyph-name="braceleft" unicode="{" horiz-adv-x="305" 
d="M27 269q26 8 41.5 19.5t24.5 26t13.5 32.5t7.5 38l32 190q6 32 23 58t41.5 44t55 28t62.5 10h48l-8 -47h-36q-28 0 -53.5 -22.5t-34.5 -82.5l-25 -178q-3 -17 -7.5 -34t-14.5 -32.5t-27.5 -30t-45.5 -26.5l64 -52l-57 -288q-6 -30 -4 -50t9.5 -32.5t19 -17.5t25.5 -5h36
l-8 -47h-54q-32 0 -57.5 10t-43 28t-24.5 44t-1 58l51 285l-55 60z" />
    <glyph glyph-name="bar" unicode="|" horiz-adv-x="417" 
d="M259 718h68l-169 -963h-68z" />
    <glyph glyph-name="braceright" unicode="}" horiz-adv-x="305" 
d="M290 245q-26 -8 -41.5 -19.5t-24.5 -26t-13 -32.5t-8 -38l-37 -219q-6 -32 -23 -58t-42 -44t-55 -28t-62 -10h-48l8 47h36q13 0 27 5t26 17.5t21 32.5t13 50l31 207q3 17 7.5 34t14.5 32.5t27 30t46 26.5l-64 52l52 259q6 30 4.5 50t-9 32.5t-20 17.5t-26.5 5h-36l9 47
h54q32 0 57.5 -10t43 -28t24.5 -44t1 -58l-46 -256l55 -60z" />
    <glyph glyph-name="asciitilde" unicode="~" horiz-adv-x="732" 
d="M616 317h47l-56 -91l-98 -34l-337 56l-52 -47h-47l52 86l105 39l334 -56z" />
    <glyph glyph-name="exclamdown" unicode="&#xa1;" horiz-adv-x="285" 
d="M58 43l64 187h62l-8 -187l-41 -288h-139zM140 330l-34 8l4 67l18 59l92 6l34 -6l-6 -69l-16 -57z" />
    <glyph glyph-name="cent" unicode="&#xa2;" horiz-adv-x="464" 
d="M277 78q11 5 26.5 13t31.5 16t30.5 16.5t25.5 15.5l22 -30q-27 -20 -60.5 -42t-75.5 -47l-37 -21l-13 -79h-75l12 75q-55 17 -90.5 62.5t-35.5 117.5q0 94 51 162.5t151 116.5l7 3l17 93h75l-11 -57q29 -4 60.5 -13.5t63.5 -25.5l-69 -108q-32 22 -64 37.5t-64 26.5
q-39 -29 -58.5 -76.5t-19.5 -103.5q0 -59 26 -95.5t74 -56.5z" />
    <glyph glyph-name="sterling" unicode="&#xa3;" horiz-adv-x="594" 
d="M511 580q-9 10 -23.5 21t-31 21t-33 17t-29.5 9q-16 -9 -26.5 -24.5t-18 -33.5t-12 -37.5t-7.5 -37.5l-24 -139h150l-12 -64h-149l-28 -161l-62 -92l232 3l51 93h64l-53 -156l-345 3l-138 -3l2 36l95 45l41 232h-88l6 26l42 38h51l25 147q12 66 63.5 108t128.5 65l76 22
q9 -2 24.5 -7t33.5 -12.5t35 -16t28 -16.5z" />
    <glyph glyph-name="currency" unicode="&#xa4;" 
d="M153 350q14 77 71 136l-49 60l54 46l50 -62q30 19 64 29.5t69 10.5t64.5 -10.5t53.5 -28.5l70 59l38 -47l-68 -58q17 -28 23.5 -62.5t-0.5 -72.5q-6 -35 -22.5 -67t-39.5 -59l44 -52l-54 -46l-42 51q-33 -23 -70 -35t-75 -12t-70.5 12t-56.5 34l-64 -54l-39 47l66 56
q-29 54 -17 125zM206 350q-6 -35 2 -65t26.5 -53t46.5 -36t63 -13q34 0 67 13t59.5 36t45 53t24.5 65q6 34 -1.5 64.5t-26.5 53.5t-47 36t-62 13q-35 0 -67.5 -13t-59.5 -36t-45.5 -53.5t-24.5 -64.5z" />
    <glyph glyph-name="yen" unicode="&#xa5;" horiz-adv-x="692" 
d="M440 280l-1 -5h149l-8 -51h-149l-7 -49h147l-9 -51h-146l-10 -65l106 -13l-12 -47l-180 3l-178 -3l2 47l114 13l10 65h-135l9 51h134l7 49h-132l8 51h132l1 6l-154 361l-56 12l12 47l134 -3l147 3l-2 -47l-76 -13l106 -256v-59l203 316l-73 12l11 47l111 -3l86 2l-2 -46
l-56 -12z" />
    <glyph glyph-name="brokenbar" unicode="&#xa6;" horiz-adv-x="416" 
d="M259 718h67l-75 -430h-67zM165 185h67l-75 -430h-67z" />
    <glyph glyph-name="section" unicode="&#xa7;" horiz-adv-x="561" 
d="M287 311q-32 26 -56 48t-35 36q-19 -16 -27.5 -37.5t-8.5 -44.5q0 -38 29.5 -71t86.5 -80q4 -4 15.5 -12.5t24 -18.5t23 -18.5t13.5 -12.5q19 17 32.5 39t13.5 57v22zM85 -59q11 -12 30.5 -30t41 -36t42.5 -33.5t36 -22.5l13 10q18 14 29 34.5t11 46.5q0 25 -7.5 45
t-22 38.5t-35 37t-47.5 41.5q-26 22 -49 42t-40.5 41.5t-27.5 46t-10 55.5q0 28 9.5 54.5t26.5 49t39 40.5t48 29q-13 16 -20.5 39t-7.5 43q0 72 48 117t131 67l74 20q15 -3 34 -13t38.5 -23t37 -27.5t29.5 -26.5l-77 -64q-10 10 -25.5 24t-32.5 27.5t-35 24.5t-33 17
l-18 -12q-19 -13 -31.5 -35t-12.5 -49q0 -33 17.5 -62.5t65.5 -67.5l159 -131v-46q0 -41 -12 -71t-30.5 -52.5t-41.5 -39t-44 -29.5q17 -19 24.5 -48t7.5 -55q0 -24 -6 -48.5t-22.5 -47.5t-45 -43t-73.5 -33l-103 -30q-17 4 -38 17t-42 29t-40.5 33t-31.5 30z" />
    <glyph glyph-name="dieresis" unicode="&#xa8;" horiz-adv-x="500" 
d="M178 701l40 -7l-2 -56l-21 -49l-57 -6l-43 6l4 58l20 47zM364 701l40 -7l-2 -56l-21 -49l-57 -6l-43 6l4 58l21 47z" />
    <glyph glyph-name="copyright" unicode="&#xa9;" horiz-adv-x="835" 
d="M435 37q58 0 111.5 20.5t94.5 60t65 96.5t24 130q0 82 -29 142t-73 99.5t-95 58.5t-96 19q-59 0 -112 -20.5t-94 -60t-65 -96.5t-24 -130q0 -82 29 -142t73 -99.5t95 -58.5t96 -19zM437 -15q-74 1 -140.5 26t-116.5 72.5t-80 116t-30 156.5q0 79 26 140.5t74 106
t115.5 72.5t149.5 40q73 -1 140 -26t117 -72.5t80 -116t30 -156.5q0 -79 -26 -140.5t-74 -106t-115.5 -72.5t-149.5 -40zM607 285l-10 -103q-27 -11 -64.5 -22.5t-85.5 -18.5q-42 0 -80.5 13t-68 38t-47 62.5t-17.5 85.5q0 51 16 88.5t46 63.5t72.5 42.5t96.5 24.5
q42 0 77 -12.5t57 -25.5v-98h-41l-18 55q-11 15 -31.5 28.5t-55.5 13.5q-52 0 -86.5 -42t-34.5 -120q0 -36 9 -68t25.5 -56.5t40 -38.5t52.5 -14q28 0 47 11t34 26l28 67h39z" />
    <glyph glyph-name="ordfeminine" unicode="&#xaa;" horiz-adv-x="438" 
d="M351 372l64 39l16 -23l-119 -83l-74 29l7 43l18 41l-132 -113q-45 14 -73.5 49.5t-28.5 103.5q0 72 39.5 127t114.5 89l77 37q32 -1 72 -10t78 -23zM140 497q0 -35 10.5 -61t24.5 -43l84 57l33 179q-18 11 -43 16t-48 5q-26 -28 -43.5 -67t-17.5 -86z" />
    <glyph glyph-name="guillemotleft" unicode="&#xab;" horiz-adv-x="558" 
d="M391 15l-142 220l220 220h84l-166 -221l89 -219h-85zM177 15l-142 220l220 220h84l-166 -221l89 -219h-85z" />
    <glyph glyph-name="logicalnot" unicode="&#xac;" 
d="M567 180h-77v118h-438v77h515v-195z" />
    <glyph glyph-name="softhyphen" unicode="&#xad;" horiz-adv-x="355" 
d="M33 319h297l-13 -75h-297z" />
    <glyph glyph-name="registered" unicode="&#xae;" horiz-adv-x="598" 
d="M328 215q41 0 78.5 14.5t66 42.5t45.5 68t17 91q0 58 -20.5 100t-51 69.5t-66.5 41t-67 13.5q-41 0 -78.5 -14.5t-66 -42.5t-45.5 -68t-17 -91q0 -57 20.5 -99.5t51 -70t66.5 -41t67 -13.5zM296 424v-97l29 -5l-2 -21l-60 2l-62 -2l-2 21l29 5v220l-29 4l2 22l61 -2l95 2
q35 0 60 -18t25 -50q0 -29 -26 -46t-64 -25l48 -20l57 -86l18 -6l-1 -21l-49 2l-34 -2l-75 119l-5 4h-15zM330 185q-51 0 -97.5 17.5t-81.5 50t-55.5 79.5t-20.5 107q0 54 18 96t51.5 72.5t80 50t103.5 27.5q51 0 97.5 -17.5t81.5 -49.5t55.5 -79.5t20.5 -107.5
q0 -54 -18 -96t-51.5 -72.5t-80 -50t-103.5 -27.5zM296 449h26q19 0 33 14t14 40q0 24 -13 36t-33 12l-27 -2v-100z" />
    <glyph glyph-name="macron" unicode="&#xaf;" horiz-adv-x="500" 
d="M110 670h292l-13 -70h-292z" />
    <glyph glyph-name="degree" unicode="&#xb0;" horiz-adv-x="415" 
d="M115 596q0 64 41.5 99t116.5 58q32 0 60.5 -12.5t50 -34t34 -50t12.5 -60.5q0 -65 -36.5 -102.5t-120.5 -55.5q-32 0 -61 12.5t-50.5 34t-34 50.5t-12.5 61zM182 596q0 -19 7.5 -35.5t20 -29t29 -20t34.5 -7.5q38 0 64.5 27t26.5 65q0 37 -26.5 63.5t-64.5 26.5
q-18 0 -34.5 -7t-29 -19.5t-20 -29t-7.5 -34.5z" />
    <glyph glyph-name="plusminus" unicode="&#xb1;" 
d="M269 134v215h-219v77h219v223h77v-223h219v-77h-219v-215h-77zM50 77h513v-77h-513v77z" />
    <glyph glyph-name="twosuperior" unicode="&#xb2;" horiz-adv-x="378" 
d="M396 707q0 -30 -16 -57t-40 -50t-52 -42t-52 -33l-118 -73l108 25h142v-28l-31 -51h-279l-9 27l128 116q21 18 41.5 37t36.5 39t26 40.5t10 42.5q0 24 -11 39t-31 15l-34 -11l-29 -67h-63l9 71l149 47q58 0 86.5 -22.5t28.5 -64.5z" />
    <glyph glyph-name="threesuperior" unicode="&#xb3;" horiz-adv-x="323" 
d="M53 397l14 81h139q33 22 33 57q0 17 -16 29t-53 12l-7 22l27 12q34 15 54.5 41.5t20.5 58.5q0 20 -8.5 30.5t-21.5 10.5l-35 -8l-28 -61h-74l9 67l156 45q58 0 81.5 -20.5t23.5 -49.5q0 -22 -11 -39t-28.5 -29t-39 -20.5t-41.5 -13.5q54 -4 78 -26t24 -48
q0 -31 -16.5 -51.5t-41.5 -34.5t-54 -23.5t-54 -18.5l-65 -23h-66z" />
    <glyph glyph-name="acute" unicode="&#xb4;" horiz-adv-x="500" 
d="M147 557l73 176h132l-143 -176h-62z" />
    <glyph glyph-name="uni00B5" unicode="&#xb5;" 
d="M159 479h129l-58 -332q-4 -23 3 -36.5t25 -13.5q15 0 33 10t30 18l46 30l57 324h129l-72 -407l82 45l20 -28l-150 -106l-86 34l7 58l20 42l-174 -134q-16 0 -36 3t-31 11l11 -33l32 -194h-140z" />
    <glyph glyph-name="paragraph" unicode="&#xb6;" horiz-adv-x="548" 
d="M502 700v-56l-54 -10v-794h-74v794h-95v-794h-74v540q-33 0 -62 10t-50.5 28.5t-34 45.5t-12.5 60q0 27 12.5 50t34 44t51 41t62.5 41h296z" />
    <glyph glyph-name="periodcentered" unicode="&#xb7;" horiz-adv-x="459" 
d="M288 473l35 -8l-5 -67l-18 -59l-92 -6l-34 6l6 69l17 57z" />
    <glyph glyph-name="cedilla" unicode="&#xb8;" horiz-adv-x="500" 
d="M284 26l37 -16l-42 -57q35 0 58 -17t23 -50q0 -25 -10.5 -43t-27 -31.5t-35.5 -23t-36 -15.5l-51 -19h-61l29 46h72q14 10 21.5 26.5t7.5 33.5t-6.5 28.5t-16.5 18.5t-22.5 10t-24.5 3z" />
    <glyph glyph-name="onesuperior" unicode="&#xb9;" horiz-adv-x="311" 
d="M251 442l79 -9l-9 -37l-125 2l-132 -2l3 37l82 9l52 259l11 18l-34 -22l-51 -9l-9 39l146 58h54z" />
    <glyph glyph-name="ordmasculine" unicode="&#xba;" horiz-adv-x="429" 
d="M257 710q33 0 62 -10.5t51.5 -31t35.5 -50.5t13 -68q0 -75 -43 -132t-125 -91l-52 -22q-33 0 -62.5 10t-52 29.5t-35.5 49t-13 68.5q0 75 43.5 131.5t124.5 92.5zM224 655q-19 -10 -32.5 -28t-22.5 -41t-13 -48.5t-4 -49.5q0 -60 22 -91t57 -39q19 9 32.5 27.5t22.5 41
t13 48.5t4 50q0 60 -22 91t-57 39z" />
    <glyph glyph-name="guillemotright" unicode="&#xbb;" horiz-adv-x="575" 
d="M26 15l165 219l-88 221h84l144 -220l-220 -220h-85zM240 15l165 219l-88 221h84l144 -220l-220 -220h-85z" />
    <glyph glyph-name="onequarter" unicode="&#xbc;" horiz-adv-x="828" 
d="M204 -50h-72l521 760h70zM239 360l79 -9l-8 -37l-126 2l-132 -2l4 37l82 9l52 259l11 18l-35 -22l-51 -9l-8 39l146 58h54zM723 187h72l-12 -66h-71l-24 -121h-86l23 121h-144l-19 43l222 234h93l-6 -36l-256 -196l56 21h66l6 33l79 54h19z" />
    <glyph glyph-name="onehalf" unicode="&#xbd;" horiz-adv-x="848" 
d="M204 -50h-72l521 760h70zM239 360l79 -9l-8 -37l-126 2l-132 -2l4 37l82 9l52 259l11 18l-35 -22l-51 -9l-8 39l146 58h54zM800 309q0 -30 -15.5 -56.5t-39.5 -49.5t-52 -42t-53 -34l-118 -73l109 25h141v-28l-30 -51h-280l-9 27l129 117q21 18 41 37t36.5 38.5t26.5 40
t10 42.5q0 24 -11 39t-31 15l-34 -10l-30 -67h-63l9 71l149 46q58 0 86.5 -22.5t28.5 -64.5z" />
    <glyph glyph-name="threequarters" unicode="&#xbe;" horiz-adv-x="811" 
d="M194 -50h-72l521 760h70zM713 187h71l-12 -66h-71l-24 -121h-86l23 121h-144l-19 43l222 234h94l-7 -36l-256 -196l56 21h66l6 33l79 54h19zM59 314l14 81h139q33 24 33 57q0 18 -16 30t-53 12l-7 22l27 11q34 15 54.5 41.5t20.5 59.5q0 20 -8.5 30t-21.5 11l-35 -8
l-28 -62h-74l9 68l156 44q58 0 81.5 -20t23.5 -50q0 -22 -11 -38.5t-28.5 -29t-39 -20.5t-41.5 -13q54 -4 78 -26.5t24 -47.5q0 -31 -16.5 -51.5t-41.5 -35t-54 -23.5t-54 -18l-65 -24h-66z" />
    <glyph glyph-name="questiondown" unicode="&#xbf;" horiz-adv-x="396" 
d="M277 330l-35 8l5 67l18 59l92 6l34 -6l-6 -69l-17 -57zM257 -93h84l2 -84l-202 -68q-30 0 -59 11t-51.5 31.5t-36.5 49.5t-14 65q0 66 45.5 111.5t126.5 77.5l60 23l44 121h58l-19 -122l-79 -42q-41 -22 -63 -62t-22 -85q0 -19 4.5 -38.5t13 -36t20.5 -28.5t26 -15l45 15
z" />
    <glyph glyph-name="Agrave" unicode="&#xc0;" horiz-adv-x="695" 
d="M445 769l-89 136h134l19 -136h-64zM487 2l-119 -3l2 47l75 13l-13 168h-221l-99 -168l76 -13l-12 -47l-101 3l-98 -3l2 47l62 11l370 632l130 29l62 -661l64 -11l-11 -47zM239 282h189l-20 249l6 68z" />
    <glyph glyph-name="Aacute" unicode="&#xc1;" horiz-adv-x="695" 
d="M440 769l64 136h144l-138 -136h-70zM487 2l-119 -3l2 47l75 13l-13 168h-221l-99 -168l76 -13l-12 -47l-101 3l-98 -3l2 47l62 11l370 632l130 29l62 -661l64 -11l-11 -47zM239 282h189l-20 249l6 68z" />
    <glyph glyph-name="Acircumflex" unicode="&#xc2;" horiz-adv-x="695" 
d="M332 769l125 136h108l76 -136h-78l-65 67l-88 -67h-78zM487 2l-119 -3l2 47l75 13l-13 168h-221l-99 -168l76 -13l-12 -47l-101 3l-98 -3l2 47l62 11l370 632l130 29l62 -661l64 -11l-11 -47zM239 282h189l-20 249l6 68z" />
    <glyph glyph-name="Atilde" unicode="&#xc3;" horiz-adv-x="695" 
d="M372 881l75 22l162 -54l42 52h32l-49 -114l-73 -17l-163 55l-41 -53h-32zM487 2l-119 -3l2 47l75 13l-13 168h-221l-99 -168l76 -13l-12 -47l-101 3l-98 -3l2 47l62 11l370 632l130 29l62 -661l64 -11l-11 -47zM239 282h189l-20 249l6 68z" />
    <glyph glyph-name="Adieresis" unicode="&#xc4;" horiz-adv-x="695" 
d="M408 887l42 -6l-2 -57l-21 -51l-59 -6l-43 6l4 60l20 48zM634 887l42 -6l-3 -57l-20 -51l-60 -6l-42 6l3 60l21 48zM487 2l-119 -3l2 47l75 13l-13 168h-221l-99 -168l76 -13l-12 -47l-101 3l-98 -3l2 47l62 11l370 632l130 29l62 -661l64 -11l-11 -47zM239 282h189
l-20 249l6 68z" />
    <glyph glyph-name="Aring" unicode="&#xc5;" horiz-adv-x="695" 
d="M601 844q0 -28 -9 -44t-24 -26t-35.5 -16.5t-43.5 -15.5q-21 0 -42.5 5t-38 17t-27 31.5t-10.5 48.5q0 26 9.5 43.5t25.5 29.5t37 19.5t43 13.5q24 0 45 -5t36.5 -17.5t24.5 -33t9 -50.5zM428 844q0 -25 17 -40t42 -15q24 0 41 15t17 40q0 24 -17 41.5t-41 17.5
q-25 0 -42 -17.5t-17 -41.5zM487 2l-119 -3l2 47l75 13l-13 168h-221l-99 -168l76 -13l-12 -47l-101 3l-98 -3l2 47l62 11l370 632l130 29l62 -661l64 -11l-11 -47zM239 282h189l-20 249l6 68z" />
    <glyph glyph-name="AE" unicode="&#xc6;" horiz-adv-x="906" 
d="M191 46l-12 -47l-103 3l-101 -3l3 47l61 11l422 644l100 -3l360 3v-179h-46l-48 117l-195 3l-44 -275l99 4l63 113h37l-38 -145l-8 -147h-37l-27 113l-98 4l-34 -251l214 3l75 130h47l-46 -192l-385 3l-133 -3l3 47l79 13l40 252h-164l-160 -252zM307 363h140l48 292z
" />
    <glyph glyph-name="Ccedilla" unicode="&#xc7;" horiz-adv-x="649" 
d="M237 -246h-61l29 46h72q15 10 22 26.5t7 33.5t-6.5 28.5t-16.5 18.5t-22.5 10t-24.5 3l53 65q-57 7 -101.5 31t-76 62.5t-48 90.5t-16.5 115q0 59 15.5 118t49.5 111.5t88 96t131 71.5l107 39q37 0 69 -7t58.5 -17.5t47 -23t34.5 -23.5l-2 -168h-65l-25 97
q-23 23 -64.5 44t-104.5 30q-91 -45 -134.5 -133t-43.5 -205q0 -63 14.5 -111t39.5 -80.5t57.5 -50.5t67.5 -22q19 8 34 15.5t28.5 15.5t25.5 18t25 23l60 114h66l-46 -186l-242 -68l-22 -29q35 0 58 -17t23 -50q0 -25 -10.5 -43t-27 -31.5t-35.5 -23t-36 -15.5z" />
    <glyph glyph-name="Egrave" unicode="&#xc8;" horiz-adv-x="613" 
d="M365 769l-88 136h134l18 -136h-64zM628 701v-188h-52l-48 127l-215 3l-40 -247l115 4l62 107h45l-37 -140l-9 -138h-45l-26 106l-114 4l-45 -281l244 3l80 135h53l-50 -197l-421 3l-135 -3l2 47l79 13l94 583l-77 13l13 46l135 -3z" />
    <glyph glyph-name="Eacute" unicode="&#xc9;" horiz-adv-x="613" 
d="M341 769l64 136h144l-138 -136h-70zM628 701v-188h-52l-48 127l-215 3l-40 -247l115 4l62 107h45l-37 -140l-9 -138h-45l-26 106l-114 4l-45 -281l244 3l80 135h53l-50 -197l-421 3l-135 -3l2 47l79 13l94 583l-77 13l13 46l135 -3z" />
    <glyph glyph-name="Ecircumflex" unicode="&#xca;" horiz-adv-x="613" 
d="M226 769l125 136h108l76 -136h-78l-65 67l-88 -67h-78zM628 701v-188h-52l-48 127l-215 3l-40 -247l115 4l62 107h45l-37 -140l-9 -138h-45l-26 106l-114 4l-45 -281l244 3l80 135h53l-50 -197l-421 3l-135 -3l2 47l79 13l94 583l-77 13l13 46l135 -3z" />
    <glyph glyph-name="Edieresis" unicode="&#xcb;" horiz-adv-x="613" 
d="M308 887l42 -6l-2 -57l-21 -51l-59 -6l-43 6l4 60l20 48zM534 887l42 -6l-2 -57l-21 -51l-59 -6l-43 6l4 60l21 48zM628 701v-188h-52l-48 127l-215 3l-40 -247l115 4l62 107h45l-37 -140l-9 -138h-45l-26 106l-114 4l-45 -281l244 3l80 135h53l-50 -197l-421 3l-135 -3
l2 47l79 13l94 583l-77 13l13 46l135 -3z" />
    <glyph glyph-name="Igrave" unicode="&#xcc;" horiz-adv-x="345" 
d="M231 769l-89 136h134l19 -136h-64zM223 59l74 -13l-13 -47l-145 3l-146 -3l3 47l79 13l94 582l-76 13l13 47l151 -3l141 3l-3 -47l-78 -13z" />
    <glyph glyph-name="Iacute" unicode="&#xcd;" horiz-adv-x="345" 
d="M221 769l64 136h144l-138 -136h-70zM223 59l74 -13l-13 -47l-145 3l-146 -3l3 47l79 13l94 582l-76 13l13 47l151 -3l141 3l-3 -47l-78 -13z" />
    <glyph glyph-name="Icircumflex" unicode="&#xce;" horiz-adv-x="345" 
d="M106 769l125 136h107l77 -136h-78l-65 67l-88 -67h-78zM223 59l74 -13l-13 -47l-145 3l-146 -3l3 47l79 13l94 582l-76 13l13 47l151 -3l141 3l-3 -47l-78 -13z" />
    <glyph glyph-name="Idieresis" unicode="&#xcf;" horiz-adv-x="345" 
d="M193 887l40 -6l-2 -57l-21 -49l-57 -6l-43 6l4 58l20 48zM399 887l40 -6l-2 -57l-21 -49l-57 -6l-43 6l4 58l21 48zM223 59l74 -13l-13 -47l-145 3l-146 -3l3 47l79 13l94 582l-76 13l13 47l151 -3l141 3l-3 -47l-78 -13z" />
    <glyph glyph-name="Eth" unicode="&#xd0;" horiz-adv-x="693" 
d="M137 2l-147 -3l3 47l79 13l44 279h-77l10 53h76l40 253l-76 12l13 45l151 -3l162 3q65 0 116.5 -21t87.5 -59.5t55.5 -92.5t19.5 -118q0 -57 -16.5 -113t-52.5 -106t-93 -92.5t-137 -70.5l-80 -29zM314 647l-41 -256h110l-10 -53h-109l-43 -273h145q33 21 63.5 52
t53.5 72t36.5 92.5t13.5 112.5q0 59 -13.5 105.5t-36 79t-51.5 50t-61 18.5h-57z" />
    <glyph glyph-name="Ntilde" unicode="&#xd1;" horiz-adv-x="701" 
d="M318 881l75 22l161 -54l43 52h32l-50 -114l-73 -17l-163 55l-41 -53h-32zM144 59l83 -13l-13 -47l-114 3l-110 -3l2 47l80 13l92 581l-73 14l12 47l87 -3l106 3l229 -428l14 -106l66 474l-71 13l12 47l98 -3l115 3l-2 -47l-80 -13l-102 -641h-87l-253 492l-12 104z" />
    <glyph glyph-name="Ograve" unicode="&#xd2;" horiz-adv-x="721" 
d="M402 769l-89 136h134l19 -136h-64zM208 312q0 -115 47 -183t122 -83q94 42 138 132.5t44 209.5q0 115 -47 183t-122 83q-94 -42 -138 -132.5t-44 -209.5zM428 718q68 0 122.5 -22.5t92 -63.5t57.5 -99t20 -130q0 -59 -15.5 -118t-50.5 -112t-91 -96t-137 -68l-87 -27
q-68 0 -122 22.5t-92 63.5t-58 99t-20 130q0 58 15.5 117.5t51 112.5t91.5 95.5t137 68.5z" />
    <glyph glyph-name="Oacute" unicode="&#xd3;" horiz-adv-x="721" 
d="M395 769l64 136h144l-138 -136h-70zM208 312q0 -115 47 -183t122 -83q94 42 138 132.5t44 209.5q0 115 -47 183t-122 83q-94 -42 -138 -132.5t-44 -209.5zM428 718q68 0 122.5 -22.5t92 -63.5t57.5 -99t20 -130q0 -59 -15.5 -118t-50.5 -112t-91 -96t-137 -68l-87 -27
q-68 0 -122 22.5t-92 63.5t-58 99t-20 130q0 58 15.5 117.5t51 112.5t91.5 95.5t137 68.5z" />
    <glyph glyph-name="Ocircumflex" unicode="&#xd4;" horiz-adv-x="721" 
d="M287 769l125 136h108l76 -136h-78l-65 67l-88 -67h-78zM208 312q0 -115 47 -183t122 -83q94 42 138 132.5t44 209.5q0 115 -47 183t-122 83q-94 -42 -138 -132.5t-44 -209.5zM428 718q68 0 122.5 -22.5t92 -63.5t57.5 -99t20 -130q0 -59 -15.5 -118t-50.5 -112t-91 -96
t-137 -68l-87 -27q-68 0 -122 22.5t-92 63.5t-58 99t-20 130q0 58 15.5 117.5t51 112.5t91.5 95.5t137 68.5z" />
    <glyph glyph-name="Otilde" unicode="&#xd5;" horiz-adv-x="721" 
d="M339 881l75 22l161 -54l43 52h32l-50 -114l-73 -17l-163 55l-41 -53h-32zM208 312q0 -115 47 -183t122 -83q94 42 138 132.5t44 209.5q0 115 -47 183t-122 83q-94 -42 -138 -132.5t-44 -209.5zM428 718q68 0 122.5 -22.5t92 -63.5t57.5 -99t20 -130q0 -59 -15.5 -118
t-50.5 -112t-91 -96t-137 -68l-87 -27q-68 0 -122 22.5t-92 63.5t-58 99t-20 130q0 58 15.5 117.5t51 112.5t91.5 95.5t137 68.5z" />
    <glyph glyph-name="Odieresis" unicode="&#xd6;" horiz-adv-x="721" 
d="M365 887l42 -6l-2 -57l-21 -51l-59 -6l-43 6l4 60l20 48zM591 887l42 -6l-2 -57l-21 -51l-59 -6l-43 6l4 60l21 48zM208 312q0 -115 47 -183t122 -83q94 42 138 132.5t44 209.5q0 115 -47 183t-122 83q-94 -42 -138 -132.5t-44 -209.5zM428 718q68 0 122.5 -22.5
t92 -63.5t57.5 -99t20 -130q0 -59 -15.5 -118t-50.5 -112t-91 -96t-137 -68l-87 -27q-68 0 -122 22.5t-92 63.5t-58 99t-20 130q0 58 15.5 117.5t51 112.5t91.5 95.5t137 68.5z" />
    <glyph glyph-name="multiply" unicode="&#xd7;" 
d="M467 6l-157 157l-157 -158l-55 55l158 157l-160 160l55 54l159 -159l158 158l55 -55l-158 -158l156 -156z" />
    <glyph glyph-name="Oslash" unicode="&#xd8;" horiz-adv-x="721" 
d="M443 718q53 0 97.5 -13.5t79.5 -39.5l43 50h69l-73 -85q37 -42 56.5 -99t19.5 -128q0 -59 -15.5 -118t-50.5 -112t-91 -96t-137 -68l-87 -27q-60 0 -109 17.5t-86 49.5l-56 -64h-71l90 104q-29 40 -44.5 92.5t-15.5 115.5q0 58 15.5 117.5t51 112.5t91.5 95.5t137 68.5z
M574 388q0 69 -18 122l-303 -351q23 -47 58.5 -75.5t80.5 -37.5q94 42 138 132.5t44 209.5zM223 312q0 -54 10 -95l298 346q-23 37 -55 60t-71 31q-94 -42 -138 -132.5t-44 -209.5z" />
    <glyph glyph-name="Ugrave" unicode="&#xd9;" horiz-adv-x="692" 
d="M417 769l-89 136h134l19 -136h-64zM599 242q-7 -41 -19.5 -77t-36 -66t-60 -53t-91.5 -39l-86 -25q-69 0 -114.5 18.5t-70.5 53t-31 82.5t3 107l64 399l-76 13l12 46l136 -3l155 3l-2 -46l-75 -13l-67 -410q-6 -37 1.5 -69t27.5 -55.5t51 -37t72 -13.5q27 12 48 25.5
t36 33t25.5 47.5t16.5 69l66 410l-88 13l12 46l125 -3l119 3l-3 -46l-87 -13z" />
    <glyph glyph-name="Uacute" unicode="&#xda;" horiz-adv-x="692" 
d="M411 769l64 136h144l-138 -136h-70zM599 242q-7 -41 -19.5 -77t-36 -66t-60 -53t-91.5 -39l-86 -25q-69 0 -114.5 18.5t-70.5 53t-31 82.5t3 107l64 399l-76 13l12 46l136 -3l155 3l-2 -46l-75 -13l-67 -410q-6 -37 1.5 -69t27.5 -55.5t51 -37t72 -13.5q27 12 48 25.5
t36 33t25.5 47.5t16.5 69l66 410l-88 13l12 46l125 -3l119 3l-3 -46l-87 -13z" />
    <glyph glyph-name="Ucircumflex" unicode="&#xdb;" horiz-adv-x="692" 
d="M296 769l125 136h108l76 -136h-78l-65 67l-88 -67h-78zM599 242q-7 -41 -19.5 -77t-36 -66t-60 -53t-91.5 -39l-86 -25q-69 0 -114.5 18.5t-70.5 53t-31 82.5t3 107l64 399l-76 13l12 46l136 -3l155 3l-2 -46l-75 -13l-67 -410q-6 -37 1.5 -69t27.5 -55.5t51 -37
t72 -13.5q27 12 48 25.5t36 33t25.5 47.5t16.5 69l66 410l-88 13l12 46l125 -3l119 3l-3 -46l-87 -13z" />
    <glyph glyph-name="Udieresis" unicode="&#xdc;" horiz-adv-x="692" 
d="M378 887l41 -6l-2 -57l-21 -51l-59 -6l-43 6l4 60l21 48zM603 887l42 -6l-2 -57l-21 -51l-59 -6l-42 6l3 60l21 48zM599 242q-7 -41 -19.5 -77t-36 -66t-60 -53t-91.5 -39l-86 -25q-69 0 -114.5 18.5t-70.5 53t-31 82.5t3 107l64 399l-76 13l12 46l136 -3l155 3l-2 -46
l-75 -13l-67 -410q-6 -37 1.5 -69t27.5 -55.5t51 -37t72 -13.5q27 12 48 25.5t36 33t25.5 47.5t16.5 69l66 410l-88 13l12 46l125 -3l119 3l-3 -46l-87 -13z" />
    <glyph glyph-name="Yacute" unicode="&#xdd;" horiz-adv-x="674" 
d="M411 769l64 136h144l-138 -136h-70zM439 280l-34 -221l106 -13l-12 -47l-180 3l-178 -3l2 47l114 13l34 222l-154 361l-56 12l12 47l134 -3l147 3l-2 -47l-76 -13l106 -256v-59l203 316l-73 12l11 47l111 -3l86 2l-2 -46l-56 -12z" />
    <glyph glyph-name="Thorn" unicode="&#xde;" horiz-adv-x="594" 
d="M301 559l115 1q45 0 81.5 -10t62.5 -29.5t40 -48.5t14 -65q0 -44 -16.5 -77.5t-47 -60.5t-73 -48.5t-93.5 -39.5l-75 -26h-74l-15 -96l86 -13l-13 -47l-157 3l-146 -3l3 47l79 13l94 583l-76 13l13 47l151 -3l141 3l-3 -47l-78 -13zM292 510l-45 -283h129q38 29 60.5 69
t22.5 93q0 57 -25.5 88t-73.5 33h-68z" />
    <glyph glyph-name="germandbls" unicode="&#xdf;" horiz-adv-x="582" 
d="M-105 -124h105q15 18 26 44.5t15 47.5l76 434h-96l5 21l48 42h53l6 34q3 20 9.5 41.5t16.5 41t24.5 35.5t33.5 26l139 74q38 0 73.5 -6.5t62.5 -21t43 -37.5t16 -57q0 -23 -8.5 -43.5t-22.5 -38.5t-32 -33.5t-37 -27.5l-51 -35q-3 -4 -4.5 -11t-1.5 -14q0 -22 15 -42.5
t50 -49.5q43 -35 68.5 -68t25.5 -81q0 -44 -26 -76.5t-86 -54.5l-98 -36q-11 3 -28 11.5t-34.5 18.5t-33 19t-22.5 14l62 87q12 -10 27 -22t31.5 -23t33 -21t31.5 -17q16 5 26 17t10 30q0 32 -24.5 58t-62.5 61q-39 35 -55 63.5t-16 59.5t14 53l48 44q31 29 50.5 64t19.5 79
q0 23 -7.5 39.5t-19 27.5t-25.5 16t-26 5l-7 -4q-29 -26 -45.5 -57.5t-24.5 -78.5l-93 -534q-8 -46 -41 -85t-81 -71l-109 -73h-67z" />
    <glyph glyph-name="agrave" unicode="&#xe0;" horiz-adv-x="535" 
d="M343 557l-80 176h130l10 -176h-60zM425 64l82 52l20 -27l-150 -104l-88 36l10 54l21 51l-163 -141q-56 16 -91 61t-35 129q0 91 47.5 160t136.5 112l98 47q40 -1 88 -13t93 -29zM169 224q0 -48 13 -79.5t33 -54.5l99 72l40 229q-23 13 -55 20t-60 7q-32 -37 -51 -86
t-19 -108z" />
    <glyph glyph-name="aacute" unicode="&#xe1;" horiz-adv-x="535" 
d="M316 557l73 176h132l-143 -176h-62zM425 64l82 52l20 -27l-150 -104l-88 36l10 54l21 51l-163 -141q-56 16 -91 61t-35 129q0 91 47.5 160t136.5 112l98 47q40 -1 88 -13t93 -29zM169 224q0 -48 13 -79.5t33 -54.5l99 72l40 229q-23 13 -55 20t-60 7q-32 -37 -51 -86
t-19 -108z" />
    <glyph glyph-name="acircumflex" unicode="&#xe2;" horiz-adv-x="535" 
d="M211 557l126 176h89l64 -176h-62l-62 92l-93 -92h-62zM425 64l82 52l20 -27l-150 -104l-88 36l10 54l21 51l-163 -141q-56 16 -91 61t-35 129q0 91 47.5 160t136.5 112l98 47q40 -1 88 -13t93 -29zM169 224q0 -48 13 -79.5t33 -54.5l99 72l40 229q-23 13 -55 20t-60 7
q-32 -37 -51 -86t-19 -108z" />
    <glyph glyph-name="atilde" unicode="&#xe3;" horiz-adv-x="535" 
d="M235 694l75 22l161 -54l43 52h32l-50 -114l-73 -17l-163 55l-41 -53h-32zM425 64l82 52l20 -27l-150 -104l-88 36l10 54l21 51l-163 -141q-56 16 -91 61t-35 129q0 91 47.5 160t136.5 112l98 47q40 -1 88 -13t93 -29zM169 224q0 -48 13 -79.5t33 -54.5l99 72l40 229
q-23 13 -55 20t-60 7q-32 -37 -51 -86t-19 -108z" />
    <glyph glyph-name="adieresis" unicode="&#xe4;" horiz-adv-x="535" 
d="M300 701l40 -7l-2 -56l-21 -49l-57 -6l-43 6l4 58l20 47zM486 701l40 -7l-2 -56l-21 -49l-57 -6l-43 6l4 58l21 47zM425 64l82 52l20 -27l-150 -104l-88 36l10 54l21 51l-163 -141q-56 16 -91 61t-35 129q0 91 47.5 160t136.5 112l98 47q40 -1 88 -13t93 -29zM169 224
q0 -48 13 -79.5t33 -54.5l99 72l40 229q-23 13 -55 20t-60 7q-32 -37 -51 -86t-19 -108z" />
    <glyph glyph-name="aring" unicode="&#xe5;" horiz-adv-x="535" 
d="M479 648q0 -28 -9 -44t-24 -26t-35.5 -16.5t-43.5 -15.5q-21 0 -42.5 5t-38 17t-27 31.5t-10.5 48.5q0 26 9.5 43.5t25.5 29.5t37 19.5t43 13.5q24 0 45 -5t36.5 -17.5t24.5 -33t9 -50.5zM306 648q0 -25 17 -40t42 -15t41.5 15t16.5 40q0 24 -16.5 41.5t-41.5 17.5
t-42 -17.5t-17 -41.5zM425 64l82 52l20 -27l-150 -104l-88 36l10 54l21 51l-163 -141q-56 16 -91 61t-35 129q0 91 47.5 160t136.5 112l98 47q40 -1 88 -13t93 -29zM169 224q0 -48 13 -79.5t33 -54.5l99 72l40 229q-23 13 -55 20t-60 7q-32 -37 -51 -86t-19 -108z" />
    <glyph glyph-name="ae" unicode="&#xe6;" horiz-adv-x="716" 
d="M523 78q13 5 31 12.5t36.5 16.5t36 18t30.5 16l19 -29q-15 -10 -35 -22.5t-42 -25t-45 -25t-45 -23.5l-65 -31q-23 4 -45.5 14t-41.5 25t-34 35.5t-24 46.5l-142 -121q-56 16 -92 61t-36 129q0 91 47.5 160t136.5 112l98 47q39 -1 85 -12t90 -28l109 40
q45 -10 74.5 -38.5t29.5 -77.5q0 -23 -3.5 -42.5t-11.5 -45.5l-255 -75q0 -24 7 -45.5t19.5 -39.5t30 -31.5t37.5 -20.5zM167 224q0 -48 13.5 -79.5t34.5 -54.5l75 53q-8 66 12.5 129t67.5 111q-31 16 -63 25.5t-70 9.5q-32 -37 -51 -86t-19 -108zM516 433
q-43 -26 -63.5 -75.5t-24.5 -106.5l125 47q5 19 6.5 31.5t1.5 28.5q0 31 -13.5 50.5t-31.5 24.5z" />
    <glyph glyph-name="ccedilla" unicode="&#xe7;" horiz-adv-x="444" 
d="M111 -246h-61l29 46h72q15 10 22 26.5t7 33.5t-6.5 28.5t-16.5 18.5t-22.5 10t-24.5 3l58 72q-58 16 -96 62.5t-38 120.5q0 94 51 162.5t151 116.5l82 40q29 -3 63 -13t67 -27l-69 -108q-32 22 -64 37.5t-64 26.5q-39 -29 -58.5 -76.5t-19.5 -103.5q0 -59 26 -95.5
t74 -56.5q11 5 26.5 13t31.5 16t30.5 16.5t25.5 15.5l22 -30q-27 -20 -60.5 -42t-75.5 -47l-58 -35l-25 -32q35 0 58 -17t23 -50q0 -25 -10.5 -43t-27 -31.5t-35.5 -23t-36 -15.5z" />
    <glyph glyph-name="egrave" unicode="&#xe8;" horiz-adv-x="462" 
d="M269 78q13 5 31 12.5t36.5 16.5t36 18t30.5 16l20 -29q-32 -20 -77.5 -47t-90.5 -49l-64 -31q-31 5 -59.5 20t-50 39t-34.5 56.5t-13 73.5q0 46 12.5 89.5t37.5 80.5t62 66t85 46l111 38q44 -10 73.5 -38.5t29.5 -77.5q0 -23 -3 -42.5t-11 -45.5l-256 -75v-11
q5 -46 30.5 -79t63.5 -47zM280 557l-80 176h130l10 -176h-60zM262 433q-42 -26 -63 -75.5t-25 -106.5l125 47q5 19 7 31.5t2 28.5q0 31 -14 50.5t-32 24.5z" />
    <glyph glyph-name="eacute" unicode="&#xe9;" horiz-adv-x="462" 
d="M269 78q13 5 31 12.5t36.5 16.5t36 18t30.5 16l20 -29q-32 -20 -77.5 -47t-90.5 -49l-64 -31q-31 5 -59.5 20t-50 39t-34.5 56.5t-13 73.5q0 46 12.5 89.5t37.5 80.5t62 66t85 46l111 38q44 -10 73.5 -38.5t29.5 -77.5q0 -23 -3 -42.5t-11 -45.5l-256 -75v-11
q5 -46 30.5 -79t63.5 -47zM263 557l74 176h132l-144 -176h-62zM262 433q-42 -26 -63 -75.5t-25 -106.5l125 47q5 19 7 31.5t2 28.5q0 31 -14 50.5t-32 24.5z" />
    <glyph glyph-name="ecircumflex" unicode="&#xea;" horiz-adv-x="462" 
d="M269 78q13 5 31 12.5t36.5 16.5t36 18t30.5 16l20 -29q-32 -20 -77.5 -47t-90.5 -49l-64 -31q-31 5 -59.5 20t-50 39t-34.5 56.5t-13 73.5q0 46 12.5 89.5t37.5 80.5t62 66t85 46l111 38q44 -10 73.5 -38.5t29.5 -77.5q0 -23 -3 -42.5t-11 -45.5l-256 -75v-11
q5 -46 30.5 -79t63.5 -47zM170 557l126 176h90l64 -176h-62l-63 92l-93 -92h-62zM262 433q-42 -26 -63 -75.5t-25 -106.5l125 47q5 19 7 31.5t2 28.5q0 31 -14 50.5t-32 24.5z" />
    <glyph glyph-name="edieresis" unicode="&#xeb;" horiz-adv-x="462" 
d="M269 78q13 5 31 12.5t36.5 16.5t36 18t30.5 16l20 -29q-32 -20 -77.5 -47t-90.5 -49l-64 -31q-31 5 -59.5 20t-50 39t-34.5 56.5t-13 73.5q0 46 12.5 89.5t37.5 80.5t62 66t85 46l111 38q44 -10 73.5 -38.5t29.5 -77.5q0 -23 -3 -42.5t-11 -45.5l-256 -75v-11
q5 -46 30.5 -79t63.5 -47zM262 433q-42 -26 -63 -75.5t-25 -106.5l125 47q5 19 7 31.5t2 28.5q0 31 -14 50.5t-32 24.5zM246 701l40 -7l-2 -56l-21 -49l-57 -6l-43 6l4 58l20 47zM432 701l40 -7l-3 -56l-20 -49l-58 -6l-42 6l3 58l21 47z" />
    <glyph glyph-name="igrave" unicode="&#xec;" horiz-adv-x="310" 
d="M197 557l-79 176h130l10 -176h-61zM42 387l-13 32l176 75l55 -50l-67 -376l81 50l20 -27l-150 -106l-87 39l68 391z" />
    <glyph glyph-name="iacute" unicode="&#xed;" horiz-adv-x="310" 
d="M176 557l74 176h132l-144 -176h-62zM42 387l-13 32l176 75l55 -50l-67 -376l81 50l20 -27l-150 -106l-87 39l68 391z" />
    <glyph glyph-name="icircumflex" unicode="&#xee;" horiz-adv-x="310" 
d="M73 557l125 176h90l64 -176h-62l-62 92l-93 -92h-62zM42 387l-13 32l176 75l55 -50l-67 -376l81 50l20 -27l-150 -106l-87 39l68 391z" />
    <glyph glyph-name="idieresis" unicode="&#xef;" horiz-adv-x="310" 
d="M153 701l40 -7l-2 -56l-21 -49l-57 -6l-43 6l4 58l21 47zM339 701l40 -7l-2 -56l-21 -49l-57 -6l-43 6l4 58l21 47zM42 387l-13 32l176 75l55 -50l-67 -376l81 50l20 -27l-150 -106l-87 39l68 391z" />
    <glyph glyph-name="eth" unicode="&#xf0;" horiz-adv-x="519" 
d="M297 494q4 -1 14.5 -3.5t21.5 -6t20.5 -7t11.5 -4.5q-5 25 -23 56.5t-44 57.5l-111 -56v53l72 36q-22 16 -44.5 27t-44.5 16l18 53q42 -11 76 -26t62 -32l113 58v-54l-68 -35q44 -35 70 -75t39.5 -81.5t17.5 -81.5t4 -74q0 -63 -14.5 -111t-41.5 -84.5t-66.5 -63.5
t-90.5 -48l-56 -23q-41 0 -77 12.5t-63 37t-43 61.5t-16 85q0 95 54 172.5t153 117.5zM364 386q-6 4 -23 10.5t-36 12.5t-35 10.5t-20 4.5q-20 -12 -34.5 -36.5t-23.5 -55.5t-13.5 -65.5t-4.5 -66.5q0 -43 8.5 -70.5t22.5 -44.5t31.5 -24.5t34.5 -9.5q24 11 41.5 36.5t29 58
t17 68.5t5.5 68v104z" />
    <glyph glyph-name="ntilde" unicode="&#xf1;" horiz-adv-x="571" 
d="M225 694l75 22l161 -54l43 52h32l-50 -114l-73 -17l-162 55l-42 -53h-32zM379 331q3 21 -1 36.5t-26 15.5q-17 0 -36 -9t-33 -18l-46 -28l-57 -328h-129l72 414l-81 -27l-13 32l176 75l53 -48l-7 -39l-16 -35l177 122q124 0 103 -129l-53 -300l82 52l20 -28l-150 -104
l-89 37z" />
    <glyph glyph-name="ograve" unicode="&#xf2;" horiz-adv-x="518" 
d="M282 557l-80 176h130l10 -176h-60zM305 494q40 0 76 -13.5t63.5 -39t43.5 -63t16 -85.5q0 -95 -52 -166t-153 -114l-66 -28q-40 0 -76 12.5t-63.5 37.5t-43.5 62t-16 85q0 95 53 165.5t152 115.5zM264 426q-24 -12 -41.5 -35t-28.5 -52t-16.5 -61t-5.5 -63q0 -76 28 -115
t73 -50q24 12 42 35t29 52t16.5 61t5.5 63q0 76 -28 115.5t-74 49.5z" />
    <glyph glyph-name="oacute" unicode="&#xf3;" horiz-adv-x="518" 
d="M285 557l74 176h132l-144 -176h-62zM305 494q40 0 76 -13.5t63.5 -39t43.5 -63t16 -85.5q0 -95 -52 -166t-153 -114l-66 -28q-40 0 -76 12.5t-63.5 37.5t-43.5 62t-16 85q0 95 53 165.5t152 115.5zM264 426q-24 -12 -41.5 -35t-28.5 -52t-16.5 -61t-5.5 -63
q0 -76 28 -115t73 -50q24 12 42 35t29 52t16.5 61t5.5 63q0 76 -28 115.5t-74 49.5z" />
    <glyph glyph-name="ocircumflex" unicode="&#xf4;" horiz-adv-x="518" 
d="M189 557l126 176h90l64 -176h-62l-63 92l-93 -92h-62zM305 494q40 0 76 -13.5t63.5 -39t43.5 -63t16 -85.5q0 -95 -52 -166t-153 -114l-66 -28q-40 0 -76 12.5t-63.5 37.5t-43.5 62t-16 85q0 95 53 165.5t152 115.5zM264 426q-24 -12 -41.5 -35t-28.5 -52t-16.5 -61
t-5.5 -63q0 -76 28 -115t73 -50q24 12 42 35t29 52t16.5 61t5.5 63q0 76 -28 115.5t-74 49.5z" />
    <glyph glyph-name="otilde" unicode="&#xf5;" horiz-adv-x="518" 
d="M209 694l75 22l161 -54l43 52h32l-50 -114l-73 -17l-163 55l-41 -53h-32zM305 494q40 0 76 -13.5t63.5 -39t43.5 -63t16 -85.5q0 -95 -52 -166t-153 -114l-66 -28q-40 0 -76 12.5t-63.5 37.5t-43.5 62t-16 85q0 95 53 165.5t152 115.5zM264 426q-24 -12 -41.5 -35
t-28.5 -52t-16.5 -61t-5.5 -63q0 -76 28 -115t73 -50q24 12 42 35t29 52t16.5 61t5.5 63q0 76 -28 115.5t-74 49.5z" />
    <glyph glyph-name="odieresis" unicode="&#xf6;" horiz-adv-x="518" 
d="M274 701l40 -7l-2 -56l-21 -49l-57 -6l-43 6l4 58l20 47zM460 701l40 -7l-3 -56l-20 -49l-58 -6l-42 6l3 58l21 47zM305 494q40 0 76 -13.5t63.5 -39t43.5 -63t16 -85.5q0 -95 -52 -166t-153 -114l-66 -28q-40 0 -76 12.5t-63.5 37.5t-43.5 62t-16 85q0 95 53 165.5
t152 115.5zM264 426q-24 -12 -41.5 -35t-28.5 -52t-16.5 -61t-5.5 -63q0 -76 28 -115t73 -50q24 12 42 35t29 52t16.5 61t5.5 63q0 76 -28 115.5t-74 49.5z" />
    <glyph glyph-name="divide" unicode="&#xf7;" 
d="M338 133l36 -7l7 -67l-7 -59l-91 -6l-35 6l-7 68l7 58zM47 294h525v-77h-525v77zM338 506l36 -7l7 -67l-7 -59l-91 -6l-35 6l-7 68l7 58z" />
    <glyph glyph-name="oslash" unicode="&#xf8;" horiz-adv-x="518" 
d="M305 494q73 0 127 -42l32 34h63l-62 -67q18 -25 28.5 -56.5t10.5 -69.5q0 -95 -52 -166t-153 -114l-66 -28q-37 0 -70.5 10.5t-59.5 30.5l-30 -32h-65l62 67q-17 23 -26.5 53t-9.5 68q0 95 53 165.5t152 115.5zM366 261q0 27 -4 47l-173 -188q13 -30 34.5 -47t49.5 -23
q24 12 42 35t29 52t16.5 61t5.5 63zM264 426q-24 -12 -41.5 -35t-28.5 -52t-16.5 -61t-5.5 -63q0 -11 0.5 -21.5t1.5 -20.5l173 187q-14 28 -35 44t-48 22z" />
    <glyph glyph-name="ugrave" unicode="&#xf9;" horiz-adv-x="568" 
d="M308 557l-80 176h130l10 -176h-60zM40 387l-13 32l177 75l53 -48l-52 -299q-4 -23 3 -36.5t26 -13.5q15 0 33.5 10.5t30.5 18.5l44 30l57 323h129l-73 -415l81 53l20 -28l-151 -104l-84 32l9 59l19 41l-174 -132q-63 0 -89.5 33.5t-15.5 93.5l53 303z" />
    <glyph glyph-name="uacute" unicode="&#xfa;" horiz-adv-x="568" 
d="M303 557l74 176h132l-144 -176h-62zM40 387l-13 32l177 75l53 -48l-52 -299q-4 -23 3 -36.5t26 -13.5q15 0 33.5 10.5t30.5 18.5l44 30l57 323h129l-73 -415l81 53l20 -28l-151 -104l-84 32l9 59l19 41l-174 -132q-63 0 -89.5 33.5t-15.5 93.5l53 303z" />
    <glyph glyph-name="ucircumflex" unicode="&#xfb;" horiz-adv-x="568" 
d="M215 557l125 176h90l64 -176h-62l-62 92l-93 -92h-62zM40 387l-13 32l177 75l53 -48l-52 -299q-4 -23 3 -36.5t26 -13.5q15 0 33.5 10.5t30.5 18.5l44 30l57 323h129l-73 -415l81 53l20 -28l-151 -104l-84 32l9 59l19 41l-174 -132q-63 0 -89.5 33.5t-15.5 93.5l53 303z
" />
    <glyph glyph-name="udieresis" unicode="&#xfc;" horiz-adv-x="568" 
d="M295 701l40 -7l-2 -56l-21 -49l-57 -6l-43 6l4 58l20 47zM481 701l40 -7l-2 -56l-21 -49l-57 -6l-43 6l4 58l21 47zM40 387l-13 32l177 75l53 -48l-52 -299q-4 -23 3 -36.5t26 -13.5q15 0 33.5 10.5t30.5 18.5l44 30l57 323h129l-73 -415l81 53l20 -28l-151 -104l-84 32
l9 59l19 41l-174 -132q-63 0 -89.5 33.5t-15.5 93.5l53 303z" />
    <glyph glyph-name="yacute" unicode="&#xfd;" horiz-adv-x="501" 
d="M247 557l74 176h132l-144 -176h-62zM240 18l-101 -18l-55 413l-79 -27l-15 30l166 78l59 -42l47 -394l156 269l-83 100l110 67l51 -53l-23 -138l-328 -538h-147l21 127h101z" />
    <glyph glyph-name="thorn" unicode="&#xfe;" horiz-adv-x="546" 
d="M75 619l-14 36l195 60l43 -34l-49 -275l-19 -48l156 136q62 -15 99 -62t37 -128q0 -90 -46 -162t-132 -114l-87 -43q-19 2 -40 5.5t-43 11.5l-4 -58l-32 -174h-126l151 873zM235 318l-39 -220q26 -14 57 -25t60 -11q19 15 33 37.5t22 48.5t12 53.5t4 51.5q0 51 -15 82.5
t-41 46.5z" />
    <glyph glyph-name="ydieresis" unicode="&#xff;" horiz-adv-x="501" 
d="M242 701l39 -7l-2 -56l-21 -49l-57 -6l-43 6l4 58l21 47zM427 701l40 -7l-2 -56l-21 -49l-57 -6l-42 6l3 58l21 47zM240 18l-101 -18l-55 413l-79 -27l-15 30l166 78l59 -42l47 -394l156 269l-83 100l110 67l51 -53l-23 -138l-328 -538h-147l21 127h101z" />
    <glyph glyph-name="Amacron" unicode="&#x100;" horiz-adv-x="695" 
d="M357 863h292l-12 -70h-292zM487 2l-119 -3l2 47l75 13l-13 168h-221l-99 -168l76 -13l-12 -47l-101 3l-98 -3l2 47l62 11l370 632l130 29l62 -661l64 -11l-11 -47zM239 282h189l-20 249l6 68z" />
    <glyph glyph-name="amacron" unicode="&#x101;" horiz-adv-x="535" 
d="M242 670h292l-13 -70h-292zM425 64l82 52l20 -27l-150 -104l-88 36l10 54l21 51l-163 -141q-56 16 -91 61t-35 129q0 91 47.5 160t136.5 112l98 47q40 -1 88 -13t93 -29zM169 224q0 -48 13 -79.5t33 -54.5l99 72l40 229q-23 13 -55 20t-60 7q-32 -37 -51 -86t-19 -108z
" />
    <glyph glyph-name="Abreve" unicode="&#x102;" horiz-adv-x="695" 
d="M487 847q22 0 41.5 5.5t35 13t28 16.5t20.5 15l29 -26q-12 -16 -24 -30.5t-29.5 -28t-41.5 -26.5t-59 -26q-32 0 -56 10t-41.5 25.5t-29 35.5t-17.5 40l38 26l15 -15t21.5 -16.5t29.5 -13t40 -5.5zM487 2l-119 -3l2 47l75 13l-13 168h-221l-99 -168l76 -13l-12 -47
l-101 3l-98 -3l2 47l62 11l370 632l130 29l62 -661l64 -11l-11 -47zM239 282h189l-20 249l6 68z" />
    <glyph glyph-name="abreve" unicode="&#x103;" horiz-adv-x="535" 
d="M372 647q22 0 41 7.5t34.5 18.5t27.5 23.5t21 22.5l30 -26q-12 -19 -24.5 -36t-30 -32.5t-42 -31t-60.5 -31.5q-31 0 -55 11.5t-41.5 30.5t-28.5 42t-16 47l40 26q6 -10 14 -22.5t20.5 -23.5t29.5 -18.5t40 -7.5zM425 64l82 52l20 -27l-150 -104l-88 36l10 54l21 51
l-163 -141q-56 16 -91 61t-35 129q0 91 47.5 160t136.5 112l98 47q40 -1 88 -13t93 -29zM169 224q0 -48 13 -79.5t33 -54.5l99 72l40 229q-23 13 -55 20t-60 7q-32 -37 -51 -86t-19 -108z" />
    <glyph glyph-name="Aogonek" unicode="&#x104;" horiz-adv-x="693" 
d="M212 227l-100 -168l76 -13l-12 -47l-101 3l-98 -3l1 47l62 11l374 632l128 29l59 -661l64 -11l-12 -47l-175 3l-66 -106l-6 -33q-2 -13 -0.5 -25.5t11.5 -22t29 -15t52 -5.5l-8 -41q-110 0 -151 25.5t-32 75.5l11 66l129 105l-14 201h-221zM412 531l5 68l-176 -317h188z
" />
    <glyph glyph-name="aogonek" unicode="&#x105;" horiz-adv-x="535" 
d="M425 -246q-110 0 -151 25.5t-32 75.5l12 66l101 72l-66 28l10 54l21 51l-163 -141q-56 16 -91 61t-35 129q0 91 47.5 160t136.5 112l98 47q40 -1 88 -13t93 -29l-69 -388l82 52l20 -27l-98 -68l-80 -117l-7 -41q-3 -13 -1 -25.5t11.5 -22t28.5 -15t52 -5.5zM169 224
q0 -48 13 -79.5t33 -54.5l99 72l40 229q-23 13 -55 20t-60 7q-32 -37 -51 -86t-19 -108z" />
    <glyph glyph-name="Cacute" unicode="&#x106;" horiz-adv-x="648" 
d="M402 769l64 136h140l-134 -136h-70zM337 -18q-67 0 -121 21t-91.5 60t-57.5 95t-20 126q0 59 15.5 118t49.5 111.5t88 96t131 71.5l106 39q37 0 69 -7t58.5 -17.5t47 -23t34.5 -23.5l-2 -168h-64l-25 97q-23 23 -65 44t-105 30q-91 -45 -134 -133t-43 -205
q0 -63 14.5 -111t39.5 -80.5t57 -50.5t67 -22q19 8 34.5 15.5t28.5 15.5t25 18t25 23l60 114h67l-46 -186z" />
    <glyph glyph-name="cacute" unicode="&#x107;" horiz-adv-x="444" 
d="M278 557l73 176h132l-143 -176h-62zM273 78q11 5 26.5 13t31.5 16t30.5 16.5t25.5 15.5l22 -30q-27 -20 -60.5 -42t-75.5 -47l-59 -35q-38 2 -70.5 15.5t-57 38t-38.5 58.5t-14 78q0 94 51 162.5t151 116.5l82 40q29 -3 63 -13t67 -27l-69 -108q-32 22 -64 37.5t-64 26.5
q-39 -29 -58.5 -76.5t-19.5 -103.5q0 -59 26 -95.5t74 -56.5z" />
    <glyph glyph-name="Ccircumflex" unicode="&#x108;" horiz-adv-x="648" 
d="M304 769l125 136h108l76 -136h-78l-65 67l-88 -67h-78zM337 -18q-67 0 -121 21t-91.5 60t-57.5 95t-20 126q0 59 15.5 118t49.5 111.5t88 96t131 71.5l106 39q37 0 69 -7t58.5 -17.5t47 -23t34.5 -23.5l-2 -168h-64l-25 97q-23 23 -65 44t-105 30q-91 -45 -134 -133
t-43 -205q0 -63 14.5 -111t39.5 -80.5t57 -50.5t67 -22q19 8 34.5 15.5t28.5 15.5t25 18t25 23l60 114h67l-46 -186z" />
    <glyph glyph-name="ccircumflex" unicode="&#x109;" horiz-adv-x="444" 
d="M188 557l125 176h90l64 -176h-62l-62 92l-93 -92h-62zM273 78q11 5 26.5 13t31.5 16t30.5 16.5t25.5 15.5l22 -30q-27 -20 -60.5 -42t-75.5 -47l-59 -35q-38 2 -70.5 15.5t-57 38t-38.5 58.5t-14 78q0 94 51 162.5t151 116.5l82 40q29 -3 63 -13t67 -27l-69 -108
q-32 22 -64 37.5t-64 26.5q-39 -29 -58.5 -76.5t-19.5 -103.5q0 -59 26 -95.5t74 -56.5z" />
    <glyph glyph-name="Cdotaccent" unicode="&#x10a;" horiz-adv-x="648" 
d="M422 890l55 5l54 -7l-3 -61l-21 -54l-51 -6l-60 6l5 64zM337 -18q-67 0 -121 21t-91.5 60t-57.5 95t-20 126q0 59 15.5 118t49.5 111.5t88 96t131 71.5l106 39q37 0 69 -7t58.5 -17.5t47 -23t34.5 -23.5l-2 -168h-64l-25 97q-23 23 -65 44t-105 30q-91 -45 -134 -133
t-43 -205q0 -63 14.5 -111t39.5 -80.5t57 -50.5t67 -22q19 8 34.5 15.5t28.5 15.5t25 18t25 23l60 114h67l-46 -186z" />
    <glyph glyph-name="cdotaccent" unicode="&#x10b;" horiz-adv-x="444" 
d="M301 710l54 5l55 -6l-3 -62l-22 -53l-50 -6l-60 6l5 63zM273 78q11 5 26.5 13t31.5 16t30.5 16.5t25.5 15.5l22 -30q-27 -20 -60.5 -42t-75.5 -47l-59 -35q-38 2 -70.5 15.5t-57 38t-38.5 58.5t-14 78q0 94 51 162.5t151 116.5l82 40q29 -3 63 -13t67 -27l-69 -108
q-32 22 -64 37.5t-64 26.5q-39 -29 -58.5 -76.5t-19.5 -103.5q0 -59 26 -95.5t74 -56.5z" />
    <glyph glyph-name="Ccaron" unicode="&#x10c;" horiz-adv-x="648" 
d="M630 905l-125 -136h-108l-77 136h78l66 -66l88 66h78zM337 -18q-67 0 -121 21t-91.5 60t-57.5 95t-20 126q0 59 15.5 118t49.5 111.5t88 96t131 71.5l106 39q37 0 69 -7t58.5 -17.5t47 -23t34.5 -23.5l-2 -168h-64l-25 97q-23 23 -65 44t-105 30q-91 -45 -134 -133
t-43 -205q0 -63 14.5 -111t39.5 -80.5t57 -50.5t67 -22q19 8 34.5 15.5t28.5 15.5t25 18t25 23l60 114h67l-46 -186z" />
    <glyph glyph-name="ccaron" unicode="&#x10d;" horiz-adv-x="444" 
d="M484 731l-125 -170h-89l-65 170h62l63 -86l92 86h62zM273 78q11 5 26.5 13t31.5 16t30.5 16.5t25.5 15.5l22 -30q-27 -20 -60.5 -42t-75.5 -47l-59 -35q-38 2 -70.5 15.5t-57 38t-38.5 58.5t-14 78q0 94 51 162.5t151 116.5l82 40q29 -3 63 -13t67 -27l-69 -108
q-32 22 -64 37.5t-64 26.5q-39 -29 -58.5 -76.5t-19.5 -103.5q0 -59 26 -95.5t74 -56.5z" />
    <glyph glyph-name="Dcaron" unicode="&#x10e;" horiz-adv-x="693" 
d="M569 905l-125 -136h-108l-76 136h78l65 -66l88 66h78zM314 647l-93 -582h145q33 21 63.5 52t53.5 72t36.5 92.5t13.5 112.5q0 59 -13.5 105.5t-36 79t-51.5 50t-61 18.5h-57zM137 2l-147 -3l3 47l79 13l93 585l-76 12l13 45l151 -3l162 3q65 0 116.5 -21t87.5 -59.5
t55.5 -92.5t19.5 -118q0 -57 -16.5 -113t-52.5 -106t-93 -92.5t-137 -70.5l-80 -29z" />
    <glyph glyph-name="dcaron" unicode="&#x10f;" horiz-adv-x="678" 
d="M587 675l7 40h124l-14 -80l-97 -122l-47 10l44 117zM299 25l9 54l22 49l-163 -143q-59 17 -96 62.5t-37 131.5q0 88 43 155t129 109l104 51q16 0 33 -3.5t36 -8.5l28 162l-89 -24l-13 35l195 60l42 -33l-109 -618l83 54l20 -27l-150 -106zM173 223q0 -48 14 -79t37 -51
l98 71l42 235q-26 10 -58 15.5t-62 5.5q-18 -17 -31.5 -40t-22 -49.5t-13 -54t-4.5 -53.5z" />
    <glyph glyph-name="Dcroat" unicode="&#x110;" horiz-adv-x="693" 
d="M137 2l-147 -3l3 47l79 13l44 276h-77l10 56h76l40 253l-76 12l13 45l151 -3l162 3q65 0 116.5 -21t87.5 -59.5t55.5 -92.5t19.5 -118q0 -57 -16.5 -113t-52.5 -106t-93 -92.5t-137 -70.5l-80 -29zM314 647l-41 -256h110l-10 -56h-109l-43 -270h145q33 21 63.5 52
t53.5 72t36.5 92.5t13.5 112.5q0 59 -13.5 105.5t-36 79t-51.5 50t-61 18.5h-57z" />
    <glyph glyph-name="dcroat" unicode="&#x111;" horiz-adv-x="555" 
d="M299 25l9 54l22 49l-163 -143q-59 17 -96 62.5t-37 131.5q0 88 43 155t129 109l104 51q16 0 33 -3.5t36 -8.5l11 66h-109l7 43h110l9 53l-89 -24l-13 35l195 60l42 -33l-16 -91h67l-7 -43h-68l-85 -484l83 54l20 -27l-150 -106zM173 223q0 -48 14 -79t37 -51l98 71
l42 235q-26 10 -58 15.5t-62 5.5q-18 -17 -31.5 -40t-22 -49.5t-13 -54t-4.5 -53.5z" />
    <glyph glyph-name="Emacron" unicode="&#x112;" horiz-adv-x="613" 
d="M257 863h292l-12 -70h-292zM628 701v-188h-52l-48 127l-215 3l-40 -247l115 4l62 107h45l-37 -140l-9 -138h-45l-26 106l-114 4l-45 -281l244 3l80 135h53l-50 -197l-421 3l-135 -3l2 47l79 13l94 583l-77 13l13 46l135 -3z" />
    <glyph glyph-name="emacron" unicode="&#x113;" horiz-adv-x="462" 
d="M269 78q13 5 31 12.5t36.5 16.5t36 18t30.5 16l20 -29q-32 -20 -77.5 -47t-90.5 -49l-64 -31q-31 5 -59.5 20t-50 39t-34.5 56.5t-13 73.5q0 46 12.5 89.5t37.5 80.5t62 66t85 46l111 38q44 -10 73.5 -38.5t29.5 -77.5q0 -23 -3 -42.5t-11 -45.5l-256 -75v-11
q5 -46 30.5 -79t63.5 -47zM188 670h292l-13 -70h-292zM262 433q-42 -26 -63 -75.5t-25 -106.5l125 47q5 19 7 31.5t2 28.5q0 31 -14 50.5t-32 24.5z" />
    <glyph glyph-name="Ebreve" unicode="&#x114;" horiz-adv-x="613" 
d="M391 847q22 0 41.5 5.5t35 13t28 16.5t20.5 15l28 -26q-12 -16 -24 -30.5t-29.5 -28t-41.5 -26.5t-59 -26q-32 0 -56 10t-41.5 25.5t-29 35.5t-17.5 40l39 26l15 -15t21.5 -16.5t29.5 -13t40 -5.5zM628 701v-188h-52l-48 127l-215 3l-40 -247l115 4l62 107h45l-37 -140
l-9 -138h-45l-26 106l-114 4l-45 -281l244 3l80 135h53l-50 -197l-421 3l-135 -3l2 47l79 13l94 583l-77 13l13 46l135 -3z" />
    <glyph glyph-name="ebreve" unicode="&#x115;" horiz-adv-x="462" 
d="M269 78q13 5 31 12.5t36.5 16.5t36 18t30.5 16l20 -29q-32 -20 -77.5 -47t-90.5 -49l-64 -31q-31 5 -59.5 20t-50 39t-34.5 56.5t-13 73.5q0 46 12.5 89.5t37.5 80.5t62 66t85 46l111 38q44 -10 73.5 -38.5t29.5 -77.5q0 -23 -3 -42.5t-11 -45.5l-256 -75v-11
q5 -46 30.5 -79t63.5 -47zM314 647q22 0 41 7.5t34 18.5t27 23.5t21 22.5l30 -26q-12 -19 -24.5 -36t-30 -32.5t-42 -31t-60.5 -31.5q-31 0 -55 11.5t-41 30.5t-28.5 42t-16.5 47l40 26q6 -10 14.5 -22.5t21 -23.5t29.5 -18.5t40 -7.5zM262 433q-42 -26 -63 -75.5
t-25 -106.5l125 47q5 19 7 31.5t2 28.5q0 31 -14 50.5t-32 24.5z" />
    <glyph glyph-name="Edotaccent" unicode="&#x116;" horiz-adv-x="613" 
d="M349 884l55 5l54 -7l-3 -61l-21 -54l-51 -6l-60 6l5 64zM628 701v-188h-52l-48 127l-215 3l-40 -247l115 4l62 107h45l-37 -140l-9 -138h-45l-26 106l-114 4l-45 -281l244 3l80 135h53l-50 -197l-421 3l-135 -3l2 47l79 13l94 583l-77 13l13 46l135 -3z" />
    <glyph glyph-name="edotaccent" unicode="&#x117;" horiz-adv-x="462" 
d="M269 78q13 5 31 12.5t36.5 16.5t36 18t30.5 16l20 -29q-32 -20 -77.5 -47t-90.5 -49l-64 -31q-31 5 -59.5 20t-50 39t-34.5 56.5t-13 73.5q0 46 12.5 89.5t37.5 80.5t62 66t85 46l111 38q44 -10 73.5 -38.5t29.5 -77.5q0 -23 -3 -42.5t-11 -45.5l-256 -75v-11
q5 -46 30.5 -79t63.5 -47zM262 433q-42 -26 -63 -75.5t-25 -106.5l125 47q5 19 7 31.5t2 28.5q0 31 -14 50.5t-32 24.5zM280 710l54 5l55 -6l-3 -62l-22 -53l-50 -6l-60 6l5 63z" />
    <glyph glyph-name="Eogonek" unicode="&#x118;" horiz-adv-x="613" 
d="M493 -246q-110 0 -151 25.5t-32 75.5l11 66l93 79l-289 2l-135 -3l2 47l79 13l94 583l-77 13l13 46l135 -3l392 3v-188h-52l-48 127l-215 3l-40 -247l115 4l62 107h45l-37 -140l-9 -138h-45l-26 106l-114 4l-45 -281l244 3l80 135h53l-50 -197l-72 1l-59 -104l-6 -33
q-2 -13 -0.5 -25.5t11.5 -22t29 -15t52 -5.5z" />
    <glyph glyph-name="eogonek" unicode="&#x119;" horiz-adv-x="462" 
d="M287 -246q-110 0 -151 25.5t-32 75.5l10 55l119 99q-2 -2 -10.5 -5.5t-17.5 -7.5l-24 -10q-29 7 -55.5 22.5t-46.5 39.5t-32.5 55.5t-12.5 70.5q0 46 12.5 89.5t37.5 80.5t62 66t85 46l111 38q44 -10 73.5 -38.5t29.5 -77.5q0 -23 -3 -42.5t-11 -45.5l-256 -75v-11
q5 -46 30.5 -79t63.5 -47q13 5 31 12.5t36.5 16.5t36 18t30.5 16l20 -29q-26 -17 -63 -39.5t-75 -42.5l-74 -123l-7 -44q-2 -13 -0.5 -25.5t11 -22t28.5 -15t52 -5.5zM262 433q-42 -26 -63 -75.5t-25 -106.5l125 47q5 19 7 31.5t2 28.5q0 31 -14 50.5t-32 24.5z" />
    <glyph glyph-name="Ecaron" unicode="&#x11a;" horiz-adv-x="613" 
d="M565 905l-125 -136h-108l-77 136h78l66 -66l88 66h78zM628 701v-188h-52l-48 127l-215 3l-40 -247l115 4l62 107h45l-37 -140l-9 -138h-45l-26 106l-114 4l-45 -281l244 3l80 135h53l-50 -197l-421 3l-135 -3l2 47l79 13l94 583l-77 13l13 46l135 -3z" />
    <glyph glyph-name="ecaron" unicode="&#x11b;" horiz-adv-x="462" 
d="M269 78q13 5 31 12.5t36.5 16.5t36 18t30.5 16l20 -29q-32 -20 -77.5 -47t-90.5 -49l-64 -31q-31 5 -59.5 20t-50 39t-34.5 56.5t-13 73.5q0 46 12.5 89.5t37.5 80.5t62 66t85 46l111 38q44 -10 73.5 -38.5t29.5 -77.5q0 -23 -3 -42.5t-11 -45.5l-256 -75v-11
q5 -46 30.5 -79t63.5 -47zM471 732l-125 -170h-90l-65 170h62l64 -86l92 86h62zM262 433q-42 -26 -63 -75.5t-25 -106.5l125 47q5 19 7 31.5t2 28.5q0 31 -14 50.5t-32 24.5z" />
    <glyph glyph-name="Gcircumflex" unicode="&#x11c;" horiz-adv-x="685" 
d="M285 769l125 136h108l76 -136h-78l-65 67l-88 -67h-78zM474 268l-81 13l13 49l151 -2l123 3l-1 -50l-57 -13l-34 -210l-261 -76q-66 0 -119.5 20.5t-91 59t-57.5 93.5t-20 125q0 59 17 119t53.5 114t95 99t141.5 74l89 32q75 0 128 -22.5t82 -46.5v-165h-64l-25 94
q-27 29 -73 50.5t-99 23.5q-85 -42 -134.5 -126t-49.5 -212q0 -66 14 -113.5t37.5 -80t54.5 -50t66 -21.5q43 13 72 32z" />
    <glyph glyph-name="gcircumflex" unicode="&#x11d;" horiz-adv-x="522" 
d="M219 558l126 176h90l64 -176h-62l-63 92l-93 -92h-62zM17 -235l19 111h203q18 18 33 47.5t20 62.5l14 92l23 49l-161 -142q-59 15 -96.5 61.5t-37.5 132.5q0 88 48 156t139 113l89 46q21 0 45.5 -3t50 -8.5t50.5 -13.5t46 -18l-81 -461q-8 -45 -49 -81t-102 -77l-98 -67
h-155zM173 223q0 -49 13.5 -81t37.5 -50l98 70l41 231q-25 14 -55.5 22t-60.5 8q-20 -18 -34 -41.5t-23 -50t-13 -54.5t-4 -54z" />
    <glyph glyph-name="Gbreve" unicode="&#x11e;" horiz-adv-x="685" 
d="M443 847q22 0 41.5 5.5t35 13t28 16.5t20.5 15l29 -26q-12 -16 -24 -30.5t-29.5 -28t-41.5 -26.5t-59 -26q-32 0 -56 10t-41.5 25.5t-29 35.5t-17.5 40l38 26l15 -15t21.5 -16.5t29.5 -13t40 -5.5zM474 268l-81 13l13 49l151 -2l123 3l-1 -50l-57 -13l-34 -210l-261 -76
q-66 0 -119.5 20.5t-91 59t-57.5 93.5t-20 125q0 59 17 119t53.5 114t95 99t141.5 74l89 32q75 0 128 -22.5t82 -46.5v-165h-64l-25 94q-27 29 -73 50.5t-99 23.5q-85 -42 -134.5 -126t-49.5 -212q0 -66 14 -113.5t37.5 -80t54.5 -50t66 -21.5q43 13 72 32z" />
    <glyph glyph-name="gbreve" unicode="&#x11f;" horiz-adv-x="522" 
d="M357 647q22 0 41 7.5t34 18.5t27 23.5t21 22.5l30 -26q-12 -19 -24.5 -36t-30 -32.5t-42 -31t-60.5 -31.5q-31 0 -55 11.5t-41 30.5t-28.5 42t-16.5 47l40 26q6 -10 14.5 -22.5t21 -23.5t29.5 -18.5t40 -7.5zM17 -235l19 111h203q18 18 33 47.5t20 62.5l14 92l23 49
l-161 -142q-59 15 -96.5 61.5t-37.5 132.5q0 88 48 156t139 113l89 46q21 0 45.5 -3t50 -8.5t50.5 -13.5t46 -18l-81 -461q-8 -45 -49 -81t-102 -77l-98 -67h-155zM173 223q0 -49 13.5 -81t37.5 -50l98 70l41 231q-25 14 -55.5 22t-60.5 8q-20 -18 -34 -41.5t-23 -50
t-13 -54.5t-4 -54z" />
    <glyph glyph-name="Gdotaccent" unicode="&#x120;" horiz-adv-x="685" 
d="M411 890l54 5l55 -7l-3 -61l-22 -54l-50 -6l-60 6l5 64zM474 268l-81 13l13 49l151 -2l123 3l-1 -50l-57 -13l-34 -210l-261 -76q-66 0 -119.5 20.5t-91 59t-57.5 93.5t-20 125q0 59 17 119t53.5 114t95 99t141.5 74l89 32q75 0 128 -22.5t82 -46.5v-165h-64l-25 94
q-27 29 -73 50.5t-99 23.5q-85 -42 -134.5 -126t-49.5 -212q0 -66 14 -113.5t37.5 -80t54.5 -50t66 -21.5q43 13 72 32z" />
    <glyph glyph-name="gdotaccent" unicode="&#x121;" horiz-adv-x="522" 
d="M328 710l54 5l55 -6l-3 -62l-22 -53l-50 -6l-60 6l5 63zM17 -235l19 111h203q18 18 33 47.5t20 62.5l14 92l23 49l-161 -142q-59 15 -96.5 61.5t-37.5 132.5q0 88 48 156t139 113l89 46q21 0 45.5 -3t50 -8.5t50.5 -13.5t46 -18l-81 -461q-8 -45 -49 -81t-102 -77
l-98 -67h-155zM173 223q0 -49 13.5 -81t37.5 -50l98 70l41 231q-25 14 -55.5 22t-60.5 8q-20 -18 -34 -41.5t-23 -50t-13 -54.5t-4 -54z" />
    <glyph glyph-name="Gcommaaccent" unicode="&#x122;" horiz-adv-x="685" 
d="M253 -90l7 40h124l-14 -80l-97 -122l-47 10l44 117zM474 268l-81 13l13 49l151 -2l123 3l-1 -50l-57 -13l-34 -210l-261 -76q-66 0 -119.5 20.5t-91 59t-57.5 93.5t-20 125q0 59 17 119t53.5 114t95 99t141.5 74l89 32q75 0 128 -22.5t82 -46.5v-165h-64l-25 94
q-27 29 -73 50.5t-99 23.5q-85 -42 -134.5 -126t-49.5 -212q0 -66 14 -113.5t37.5 -80t54.5 -50t66 -21.5q43 13 72 32z" />
    <glyph glyph-name="gcommaaccent" unicode="&#x123;" horiz-adv-x="522" 
d="M426 596l-7 -40h-124l14 80l96 122l47 -10l-43 -117zM17 -235l19 111h203q18 18 33 47.5t20 62.5l14 92l23 49l-161 -142q-59 15 -96.5 61.5t-37.5 132.5q0 88 48 156t139 113l89 46q21 0 45.5 -3t50 -8.5t50.5 -13.5t46 -18l-81 -461q-8 -45 -49 -81t-102 -77l-98 -67
h-155zM173 223q0 -49 13.5 -81t37.5 -50l98 70l41 231q-25 14 -55.5 22t-60.5 8q-20 -18 -34 -41.5t-23 -50t-13 -54.5t-4 -54z" />
    <glyph glyph-name="Hcircumflex" unicode="&#x124;" horiz-adv-x="729" 
d="M294 769l125 136h107l77 -136h-78l-66 67l-87 -67h-78zM88 655l13 46l148 -3l141 3l-3 -46l-72 -13l-40 -252h235l40 252l-69 13l13 46l142 -3l146 3l-3 -46l-78 -13l-92 -583l74 -13l-13 -47l-145 3l-143 -3l2 47l74 13l44 275h-236l-43 -275l68 -13l-13 -47l-139 3
l-149 -3l2 47l80 13l92 583z" />
    <glyph glyph-name="hcircumflex" unicode="&#x125;" horiz-adv-x="561" 
d="M87 769l125 136h107l77 -136h-78l-66 67l-87 -67h-78zM168 0h-129l114 645l-88 -26l-14 36l195 60l43 -34l-49 -273l-18 -37l182 123q127 0 104 -129l-54 -297l80 50l20 -27l-150 -106l-87 39l54 307q3 21 -2 36.5t-27 15.5q-17 0 -37 -9t-34 -18l-45 -28z" />
    <glyph glyph-name="Hbar" unicode="&#x126;" horiz-adv-x="729" 
d="M88 655l13 46l148 -3l141 3l-3 -46l-72 -13l-21 -134h235l21 134l-69 13l13 46l142 -3l146 3l-3 -46l-78 -13l-92 -583l74 -13l-13 -47l-145 3l-143 -3l2 47l74 13l44 275h-236l-43 -275l68 -13l-13 -47l-139 3l-149 -3l2 47l80 13l92 583zM510 390l11 72h-235l-11 -72
h235z" />
    <glyph glyph-name="hbar" unicode="&#x127;" horiz-adv-x="561" 
d="M168 0h-129l97 548h-71l7 43h71l10 54l-88 -26l-14 36l195 60l43 -34l-16 -90h104l-7 -43h-105l-25 -140l-18 -37l182 123q127 0 104 -129l-54 -297l80 50l20 -27l-150 -106l-87 39l54 307q3 21 -2 36.5t-27 15.5q-17 0 -37 -9t-34 -18l-45 -28z" />
    <glyph glyph-name="Itilde" unicode="&#x128;" horiz-adv-x="345" 
d="M143 881l75 22l162 -54l42 52h32l-50 -114l-73 -17l-162 55l-42 -53h-32zM223 59l74 -13l-13 -47l-145 3l-146 -3l3 47l79 13l94 582l-76 13l13 47l151 -3l141 3l-3 -47l-78 -13z" />
    <glyph glyph-name="itilde" unicode="&#x129;" horiz-adv-x="310" 
d="M86 694l75 22l162 -54l42 52h32l-50 -114l-73 -17l-162 55l-42 -53h-32zM42 387l-13 32l176 75l55 -50l-67 -376l81 50l20 -27l-150 -106l-87 39l68 391z" />
    <glyph glyph-name="Imacron" unicode="&#x12a;" horiz-adv-x="345" 
d="M131 863h292l-12 -70h-292zM223 59l74 -13l-13 -47l-145 3l-146 -3l3 47l79 13l94 582l-76 13l13 47l151 -3l141 3l-3 -47l-78 -13z" />
    <glyph glyph-name="imacron" unicode="&#x12b;" horiz-adv-x="310" 
d="M83 670h292l-13 -70h-292zM42 387l-13 32l176 75l55 -50l-67 -376l81 50l20 -27l-150 -106l-87 39l68 391z" />
    <glyph glyph-name="Ibreve" unicode="&#x12c;" horiz-adv-x="345" 
d="M281 847q22 0 41.5 5.5t35 13t28 16.5t20.5 15l28 -26q-12 -16 -24 -30.5t-29.5 -28t-41.5 -26.5t-59 -26q-32 0 -56 10t-41.5 25.5t-29 35.5t-17.5 40l39 26l15 -15t21.5 -16.5t29.5 -13t40 -5.5zM223 59l74 -13l-13 -47l-145 3l-146 -3l3 47l79 13l94 582l-76 13l13 47
l151 -3l141 3l-3 -47l-78 -13z" />
    <glyph glyph-name="ibreve" unicode="&#x12d;" horiz-adv-x="310" 
d="M215 647q22 0 41 7.5t34.5 18.5t27.5 23.5t21 22.5l30 -26q-12 -19 -24.5 -36t-30 -32.5t-42 -31t-60.5 -31.5q-31 0 -55 11.5t-41.5 30.5t-28.5 42t-16 47l40 26q6 -10 14 -22.5t20.5 -23.5t29.5 -18.5t40 -7.5zM42 387l-13 32l176 75l55 -50l-67 -376l81 50l20 -27
l-150 -106l-87 39l68 391z" />
    <glyph glyph-name="Iogonek" unicode="&#x12e;" horiz-adv-x="345" 
d="M223 59l74 -13l-13 -47l-117 2l-53 -106l-6 -33q-3 -13 -1 -25t11.5 -21.5t28.5 -15t52 -5.5l-8 -42q-110 0 -151 25.5t-32 75.5l12 66l88 81l-115 -2l3 47l79 13l94 582l-76 13l13 47l151 -3l141 3l-3 -47l-78 -13z" />
    <glyph glyph-name="iogonek" unicode="&#x12f;" horiz-adv-x="310" 
d="M183 692l41 7l72 -7v-65l-22 -53l-38 -8l-79 8l3 60zM211 -246q-110 0 -151 25.5t-32 75.5l11 66l85 73l-67 30l68 391l-83 -28l-13 32l176 75l55 -50l-67 -376l81 50l20 -27l-85 -60l-76 -135l-6 -33q-2 -13 -0.5 -25.5t11.5 -22t29 -15t51 -5.5z" />
    <glyph glyph-name="Idotaccent" unicode="&#x130;" horiz-adv-x="345" 
d="M231 884l54 5l55 -7l-3 -61l-22 -54l-50 -6l-60 6l5 64zM223 59l74 -13l-13 -47l-145 3l-146 -3l3 47l79 13l94 582l-76 13l13 47l151 -3l141 3l-3 -47l-78 -13z" />
    <glyph glyph-name="dotlessi" unicode="&#x131;" horiz-adv-x="310" 
d="M42 387l-13 32l176 75l55 -50l-67 -376l81 50l20 -27l-150 -106l-87 39l68 391z" />
    <glyph glyph-name="IJ" unicode="&#x132;" horiz-adv-x="576" 
d="M220 59l62 -13l-13 -47l-133 3l-146 -3l3 47l79 13l94 583l-76 13l13 47l151 -3l123 3l-3 -47l-60 -13zM200 -175l21 105h108q20 30 32 64.5t20 85.5l89 562l-57 13l13 47l127 -3l147 3l-3 -47l-78 -13l-88 -542q-11 -65 -42.5 -107.5t-88.5 -83.5l-112 -84h-88z" />
    <glyph glyph-name="ij" unicode="&#x133;" horiz-adv-x="548" 
d="M183 692l41 7l72 -7v-65l-22 -53l-38 -8l-79 8l3 60zM42 387l-13 32l176 75l55 -50l-67 -376l71 44l20 -27l-140 -100l-87 39l68 391zM128 -235l20 110h115q18 25 27 54t14 54l76 432l-73 -24l-13 32l166 71l55 -50l-78 -442q-9 -51 -41 -89t-80 -70l-115 -78h-73z
M437 692l41 7l73 -7v-65l-22 -53l-38 -8l-80 8l4 60z" />
    <glyph glyph-name="Jcircumflex" unicode="&#x134;" horiz-adv-x="362" 
d="M114 769l125 136h108l76 -136h-78l-65 67l-88 -67h-78zM-83 -175l21 105h109q19 30 31 64.5t20 85.5l89 561l-88 13l13 47l158 -3l146 3l-3 -47l-78 -13l-87 -541q-11 -65 -42.5 -107.5t-89.5 -83.5l-112 -84h-87z" />
    <glyph glyph-name="jcircumflex" unicode="&#x135;" horiz-adv-x="295" 
d="M68 557l126 176h89l64 -176h-62l-62 92l-93 -92h-62zM-125 -235l20 110h115q18 25 27 54t14 54l76 432l-83 -28l-13 32l176 75l55 -50l-78 -442q-9 -51 -41 -89t-80 -70l-116 -78h-72z" />
    <glyph glyph-name="Kcommaaccent" unicode="&#x136;" horiz-adv-x="732" 
d="M276 -90l7 40h124l-14 -80l-96 -122l-47 10l43 117zM273 382l30 15l265 244l-67 13l10 47l117 -3l119 3l-2 -47l-86 -13l-289 -253l38 -19l233 -311l49 -12l-12 -47l-81 3l-104 -3l-210 322l-15 36l-47 -298l63 -13l-12 -47l-135 3l-147 -3l3 47l80 13l93 582l-76 13
l13 47l151 -3l131 3l-3 -47l-68 -13z" />
    <glyph glyph-name="kcommaaccent" unicode="&#x137;" horiz-adv-x="535" 
d="M162 -90l7 40h124l-14 -80l-97 -122l-47 10l44 117zM63 620l-13 35l194 60l44 -33l-70 -397l21 4l169 195h122l-27 -127h-89q-26 -5 -48 -15.5t-44 -27.5l-42 -34l66 -22l98 -188l64 40l20 -27l-146 -98l-69 29l-99 246l-46 -260h-129l113 644z" />
    <glyph glyph-name="kgreenlandic" unicode="&#x138;" horiz-adv-x="544" 
d="M226 285l21 4l169 195h123l-28 -127h-88q-26 -5 -48 -15.5t-44 -27.5l-42 -34l66 -22l97 -188l64 40l20 -27l-145 -98l-70 29l-98 246l-47 -260h-129l73 415l-84 -28l-13 32l176 75l55 -50z" />
    <glyph glyph-name="Lacute" unicode="&#x139;" horiz-adv-x="578" 
d="M214 769l64 136h144l-138 -136h-70zM235 698l162 3l-3 -47l-80 -13l-94 -583l214 3l90 141h53l-61 -203l-390 3l-136 -3l3 47l80 13l93 582l-76 13l13 47z" />
    <glyph glyph-name="lacute" unicode="&#x13a;" horiz-adv-x="304" 
d="M205 769l64 136h144l-138 -136h-70zM67 619l-13 36l194 60l43 -34l-108 -614l82 51l20 -27l-150 -106l-89 39l109 618z" />
    <glyph glyph-name="Lcommaaccent" unicode="&#x13b;" horiz-adv-x="578" 
d="M187 -90l7 40h124l-14 -80l-96 -122l-47 10l43 117zM235 698l162 3l-3 -47l-80 -13l-94 -583l214 3l90 141h53l-61 -203l-390 3l-136 -3l3 47l80 13l93 582l-76 13l13 47z" />
    <glyph glyph-name="lcommaaccent" unicode="&#x13c;" horiz-adv-x="304" 
d="M37 -90l7 40h124l-14 -80l-96 -122l-47 10l43 117zM67 619l-13 36l194 60l43 -34l-108 -614l82 51l20 -27l-150 -106l-89 39l109 618z" />
    <glyph glyph-name="Lcaron" unicode="&#x13d;" horiz-adv-x="578" 
d="M586 709l35 -7l-4 -64l-17 -58l-98 -154l-42 19q8 13 18 31.5t19.5 37t16.5 35.5t9 27l-45 4l5 67l18 55zM235 698l162 3l-3 -47l-80 -13l-94 -583l214 3l90 141h53l-61 -203l-390 3l-136 -3l3 47l80 13l93 582l-76 13l13 47z" />
    <glyph glyph-name="lcaron" unicode="&#x13e;" horiz-adv-x="474" 
d="M357 675l7 40h124l-14 -80l-96 -122l-47 10l43 117zM67 619l-13 36l194 60l43 -34l-108 -614l82 51l20 -27l-150 -106l-89 39l109 618z" />
    <glyph glyph-name="Ldot" unicode="&#x13f;" horiz-adv-x="578" 
d="M479 473l34 -8l-4 -67l-19 -59l-91 -6l-35 6l6 69l17 57zM235 698l162 3l-3 -47l-80 -13l-94 -583l214 3l90 141h53l-61 -203l-390 3l-136 -3l3 47l80 13l93 582l-76 13l13 47z" />
    <glyph glyph-name="ldot" unicode="&#x140;" horiz-adv-x="445" 
d="M412 473l35 -8l-5 -67l-18 -59l-91 -6l-35 6l6 69l17 57zM67 619l-13 36l194 60l43 -34l-108 -614l82 51l20 -27l-150 -106l-89 39l109 618z" />
    <glyph glyph-name="Lslash" unicode="&#x141;" horiz-adv-x="578" 
d="M235 698l162 3l-3 -47l-80 -13l-31 -191l96 44l-12 -68l-95 -43l-52 -325l214 3l90 141h53l-61 -203l-390 3l-136 -3l3 47l80 13l40 251l-85 -38l12 68l84 38l42 263l-76 13l13 47z" />
    <glyph glyph-name="lslash" unicode="&#x142;" horiz-adv-x="304" 
d="M67 619l-13 36l194 60l43 -34l-43 -244l87 40l-11 -60l-87 -39l-54 -311l82 51l20 -27l-150 -106l-89 39l51 290l-69 -31l11 60l68 31l48 268z" />
    <glyph glyph-name="Nacute" unicode="&#x143;" horiz-adv-x="701" 
d="M376 769l64 136h144l-138 -136h-70zM144 59l83 -13l-13 -47l-114 3l-110 -3l2 47l80 13l92 581l-73 14l12 47l87 -3l106 3l229 -428l14 -106l66 474l-71 13l12 47l98 -3l115 3l-2 -47l-80 -13l-102 -641h-87l-253 492l-12 104z" />
    <glyph glyph-name="nacute" unicode="&#x144;" horiz-adv-x="571" 
d="M281 557l74 176h132l-144 -176h-62zM379 331q3 21 -1 36.5t-26 15.5q-17 0 -36 -9t-33 -18l-46 -28l-57 -328h-129l72 414l-81 -27l-13 32l176 75l53 -48l-7 -39l-16 -35l177 122q124 0 103 -129l-53 -300l82 52l20 -28l-150 -104l-89 37z" />
    <glyph glyph-name="Ncommaaccent" unicode="&#x145;" horiz-adv-x="701" 
d="M248 -90l7 40h124l-14 -80l-96 -122l-47 10l43 117zM144 59l83 -13l-13 -47l-114 3l-110 -3l2 47l80 13l92 581l-73 14l12 47l87 -3l106 3l229 -428l14 -106l66 474l-71 13l12 47l98 -3l115 3l-2 -47l-80 -13l-102 -641h-87l-253 492l-12 104z" />
    <glyph glyph-name="ncommaaccent" unicode="&#x146;" horiz-adv-x="571" 
d="M185 -90l7 40h124l-14 -80l-96 -122l-47 10l43 117zM379 331q3 21 -1 36.5t-26 15.5q-17 0 -36 -9t-33 -18l-46 -28l-57 -328h-129l72 414l-81 -27l-13 32l176 75l53 -48l-7 -39l-16 -35l177 122q124 0 103 -129l-53 -300l82 52l20 -28l-150 -104l-89 37z" />
    <glyph glyph-name="Ncaron" unicode="&#x147;" horiz-adv-x="701" 
d="M598 905l-125 -136h-108l-77 136h78l66 -66l88 66h78zM144 59l83 -13l-13 -47l-114 3l-110 -3l2 47l80 13l92 581l-73 14l12 47l87 -3l106 3l229 -428l14 -106l66 474l-71 13l12 47l98 -3l115 3l-2 -47l-80 -13l-102 -641h-87l-253 492l-12 104z" />
    <glyph glyph-name="ncaron" unicode="&#x148;" horiz-adv-x="571" 
d="M514 731l-124 -170h-90l-65 170h62l63 -86l92 86h62zM379 331q3 21 -1 36.5t-26 15.5q-17 0 -36 -9t-33 -18l-46 -28l-57 -328h-129l72 414l-81 -27l-13 32l176 75l53 -48l-7 -39l-16 -35l177 122q124 0 103 -129l-53 -300l82 52l20 -28l-150 -104l-89 37z" />
    <glyph glyph-name="napostrophe" unicode="&#x149;" horiz-adv-x="571" 
d="M150 675l7 40h124l-14 -80l-96 -122l-47 10l43 117zM379 331q3 21 -1 36.5t-26 15.5q-17 0 -36 -9t-33 -18l-46 -28l-57 -328h-129l72 414l-81 -27l-13 32l176 75l53 -48l-7 -39l-16 -35l177 122q124 0 103 -129l-53 -300l82 52l20 -28l-150 -104l-89 37z" />
    <glyph glyph-name="Eng" unicode="&#x14a;" horiz-adv-x="701" 
d="M144 59l83 -13l-13 -47l-114 3l-110 -3l2 47l80 13l92 581l-73 14l12 47l87 -3l106 3l229 -428l14 -106l66 474l-71 13l12 47l98 -3l115 3l-2 -47l-80 -13l-102 -641l-137 -237h-130l19 95h76l85 113l55 29h-55l-253 492l-12 104z" />
    <glyph glyph-name="eng" unicode="&#x14b;" horiz-adv-x="571" 
d="M447 -12q-8 -46 -42.5 -81.5t-82.5 -68.5l-109 -73h-76l20 113h109q19 15 32 43.5t17 49.5l64 360q3 21 -1 36.5t-26 15.5q-17 0 -36 -9t-33 -18l-46 -28l-57 -328h-129l72 414l-81 -27l-13 32l176 75l53 -48l-7 -39l-16 -35l177 122q126 0 103 -129z" />
    <glyph glyph-name="Omacron" unicode="&#x14c;" horiz-adv-x="721" 
d="M314 863h292l-13 -70h-292zM208 312q0 -115 47 -183t122 -83q94 42 138 132.5t44 209.5q0 115 -47 183t-122 83q-94 -42 -138 -132.5t-44 -209.5zM428 718q68 0 122.5 -22.5t92 -63.5t57.5 -99t20 -130q0 -59 -15.5 -118t-50.5 -112t-91 -96t-137 -68l-87 -27
q-68 0 -122 22.5t-92 63.5t-58 99t-20 130q0 58 15.5 117.5t51 112.5t91.5 95.5t137 68.5z" />
    <glyph glyph-name="omacron" unicode="&#x14d;" horiz-adv-x="518" 
d="M203 670h292l-13 -70h-292zM305 494q40 0 76 -13.5t63.5 -39t43.5 -63t16 -85.5q0 -95 -52 -166t-153 -114l-66 -28q-40 0 -76 12.5t-63.5 37.5t-43.5 62t-16 85q0 95 53 165.5t152 115.5zM264 426q-24 -12 -41.5 -35t-28.5 -52t-16.5 -61t-5.5 -63q0 -76 28 -115t73 -50
q24 12 42 35t29 52t16.5 61t5.5 63q0 76 -28 115.5t-74 49.5z" />
    <glyph glyph-name="Obreve" unicode="&#x14e;" horiz-adv-x="721" 
d="M451 847q22 0 41.5 5.5t35 13t28 16.5t20.5 15l29 -26q-12 -16 -24 -30.5t-29.5 -28t-41.5 -26.5t-59 -26q-32 0 -56 10t-41.5 25.5t-29 35.5t-17.5 40l38 26l15 -15t21.5 -16.5t29.5 -13t40 -5.5zM208 312q0 -115 47 -183t122 -83q94 42 138 132.5t44 209.5
q0 115 -47 183t-122 83q-94 -42 -138 -132.5t-44 -209.5zM428 718q68 0 122.5 -22.5t92 -63.5t57.5 -99t20 -130q0 -59 -15.5 -118t-50.5 -112t-91 -96t-137 -68l-87 -27q-68 0 -122 22.5t-92 63.5t-58 99t-20 130q0 58 15.5 117.5t51 112.5t91.5 95.5t137 68.5z" />
    <glyph glyph-name="obreve" unicode="&#x14f;" horiz-adv-x="518" 
d="M332 647q22 0 41 7.5t34.5 18.5t27.5 23.5t21 22.5l29 -26q-12 -19 -24.5 -36t-30 -32.5t-42 -31t-60.5 -31.5q-31 0 -55 11.5t-41 30.5t-28.5 42t-16.5 47l41 26q6 -10 14 -22.5t20.5 -23.5t29.5 -18.5t40 -7.5zM305 494q40 0 76 -13.5t63.5 -39t43.5 -63t16 -85.5
q0 -95 -52 -166t-153 -114l-66 -28q-40 0 -76 12.5t-63.5 37.5t-43.5 62t-16 85q0 95 53 165.5t152 115.5zM264 426q-24 -12 -41.5 -35t-28.5 -52t-16.5 -61t-5.5 -63q0 -76 28 -115t73 -50q24 12 42 35t29 52t16.5 61t5.5 63q0 76 -28 115.5t-74 49.5z" />
    <glyph glyph-name="Ohungarumlaut" unicode="&#x150;" horiz-adv-x="721" 
d="M304 769l64 136h144l-138 -136h-70zM491 769l63 136h144l-137 -136h-70zM208 312q0 -115 47 -183t122 -83q94 42 138 132.5t44 209.5q0 115 -47 183t-122 83q-94 -42 -138 -132.5t-44 -209.5zM428 718q68 0 122.5 -22.5t92 -63.5t57.5 -99t20 -130q0 -59 -15.5 -118
t-50.5 -112t-91 -96t-137 -68l-87 -27q-68 0 -122 22.5t-92 63.5t-58 99t-20 130q0 58 15.5 117.5t51 112.5t91.5 95.5t137 68.5z" />
    <glyph glyph-name="ohungarumlaut" unicode="&#x151;" horiz-adv-x="518" 
d="M190 557l73 170h132l-143 -170h-62zM371 557l73 170h132l-143 -170h-62zM305 494q40 0 76 -13.5t63.5 -39t43.5 -63t16 -85.5q0 -95 -52 -166t-153 -114l-66 -28q-40 0 -76 12.5t-63.5 37.5t-43.5 62t-16 85q0 95 53 165.5t152 115.5zM264 426q-24 -12 -41.5 -35
t-28.5 -52t-16.5 -61t-5.5 -63q0 -76 28 -115t73 -50q24 12 42 35t29 52t16.5 61t5.5 63q0 76 -28 115.5t-74 49.5z" />
    <glyph glyph-name="OE" unicode="&#x152;" horiz-adv-x="960" 
d="M439 59l93 583l-142 12q-94 -42 -138 -132.5t-44 -209.5q0 -115 47 -183t122 -83zM339 -18q-68 0 -122 22.5t-92 63.5t-58 99t-20 130q0 58 15.5 117.5t51 112.5t91.5 95.5t137 68.5l86 27l175 -20l372 3v-188h-51l-49 127l-195 3l-39 -247l95 4l61 107h45l-37 -140
l-8 -138h-45l-26 106l-94 4l-45 -281l224 3l80 135h53l-51 -197l-401 3z" />
    <glyph glyph-name="oe" unicode="&#x153;" horiz-adv-x="791" 
d="M598 78q13 5 31 12.5t36.5 16.5t36 18t30.5 16l20 -29q-15 -10 -35 -22.5t-42 -25t-45 -25t-45 -23.5l-65 -31q-39 6 -72 27.5t-55 56.5q-39 -33 -94 -56l-64 -28q-41 0 -77 12.5t-64 37t-44 61t-16 84.5q0 96 53.5 166.5t153.5 117.5l64 30q54 0 98.5 -22t71.5 -65
q18 15 39 27.5t46 21.5l111 38q45 -10 74 -38.5t29 -77.5q0 -23 -3 -42.5t-11 -45.5l-256 -75v-11q5 -46 30.5 -79t63.5 -47zM266 426q-25 -12 -42.5 -35t-29 -52t-17 -61t-5.5 -63q0 -76 28 -115t73 -50q25 12 43 35.5t29.5 52.5t17 62t5.5 64q0 76 -27 113.5t-75 48.5z
M591 433q-42 -26 -62.5 -75.5t-25.5 -106.5l125 47q5 19 7 31.5t2 28.5q0 31 -14 50.5t-32 24.5z" />
    <glyph glyph-name="Racute" unicode="&#x154;" horiz-adv-x="681" 
d="M329 769l64 136h144l-138 -136h-70zM261 314l-41 -255l80 -13l-13 -47l-152 3l-145 -3l3 47l79 13l94 584l-76 11l13 47l142 -3l194 3q45 0 82.5 -10t63.5 -28.5t40.5 -45.5t14.5 -61q0 -38 -13.5 -68t-37.5 -54.5t-58 -43.5t-76 -34l-64 -23l92 -41l112 -232l51 -15
l-10 -46l-103 3l-82 -3l-130 305l-12 10h-48zM315 651l-43 -267h119q44 26 67.5 65.5t23.5 93.5q0 51 -25 79t-74 29h-68z" />
    <glyph glyph-name="racute" unicode="&#x155;" horiz-adv-x="426" 
d="M234 557l73 176h132l-143 -176h-62zM236 372l-34 -119l145 231h95l-30 -133h-58q-23 -13 -47.5 -32.5t-48.5 -47.5l-40 -44l-39 -227h-130l73 414l-80 -27l-13 32l176 75l44 -42z" />
    <glyph glyph-name="Rcommaaccent" unicode="&#x156;" horiz-adv-x="681" 
d="M235 -90l7 40h124l-14 -80l-97 -122l-47 10l44 117zM261 314l-41 -255l80 -13l-13 -47l-152 3l-145 -3l3 47l79 13l94 584l-76 11l13 47l142 -3l194 3q45 0 82.5 -10t63.5 -28.5t40.5 -45.5t14.5 -61q0 -38 -13.5 -68t-37.5 -54.5t-58 -43.5t-76 -34l-64 -23l92 -41
l112 -232l51 -15l-10 -46l-103 3l-82 -3l-130 305l-12 10h-48zM315 651l-43 -267h119q44 26 67.5 65.5t23.5 93.5q0 51 -25 79t-74 29h-68z" />
    <glyph glyph-name="rcommaaccent" unicode="&#x157;" horiz-adv-x="426" 
d="M39 -90l7 40h124l-14 -80l-96 -122l-47 10l43 117zM236 372l-34 -119l145 231h95l-30 -133h-58q-23 -13 -47.5 -32.5t-48.5 -47.5l-40 -44l-39 -227h-130l73 414l-80 -27l-13 32l176 75l44 -42z" />
    <glyph glyph-name="Rcaron" unicode="&#x158;" horiz-adv-x="681" 
d="M557 905l-125 -136h-108l-77 136h78l66 -66l88 66h78zM261 314l-41 -255l80 -13l-13 -47l-152 3l-145 -3l3 47l79 13l94 584l-76 11l13 47l142 -3l194 3q45 0 82.5 -10t63.5 -28.5t40.5 -45.5t14.5 -61q0 -38 -13.5 -68t-37.5 -54.5t-58 -43.5t-76 -34l-64 -23l92 -41
l112 -232l51 -15l-10 -46l-103 3l-82 -3l-130 305l-12 10h-48zM315 651l-43 -267h119q44 26 67.5 65.5t23.5 93.5q0 51 -25 79t-74 29h-68z" />
    <glyph glyph-name="rcaron" unicode="&#x159;" horiz-adv-x="426" 
d="M444 731l-125 -170h-90l-65 170h62l64 -86l92 86h62zM236 372l-34 -119l145 231h95l-30 -133h-58q-23 -13 -47.5 -32.5t-48.5 -47.5l-40 -44l-39 -227h-130l73 414l-80 -27l-13 32l176 75l44 -42z" />
    <glyph glyph-name="Sacute" unicode="&#x15a;" horiz-adv-x="523" 
d="M324 769l64 136h144l-138 -136h-70zM523 515h-63l-8 88q-30 26 -63.5 40t-76.5 16q-45 -14 -62.5 -37t-17.5 -52q0 -32 19 -54.5t51 -49.5l100 -84q19 -17 36.5 -33.5t31 -36t21 -44.5t7.5 -58q0 -60 -42.5 -110.5t-115.5 -79.5l-99 -38q-68 0 -129.5 16.5t-96.5 42.5
l26 157h73v-84q29 -29 73 -48.5t89 -19.5q38 15 58 42.5t20 62.5q0 21 -5.5 37t-15 29.5t-22 25t-26.5 22.5l-99 81q-42 35 -68.5 70.5t-26.5 85.5q0 61 41 104t126 76l92 36q74 0 123 -16.5t79 -38.5z" />
    <glyph glyph-name="sacute" unicode="&#x15b;" horiz-adv-x="404" 
d="M211 557l74 176h132l-144 -176h-62zM135 -15q-14 3 -33 9.5l-38 13t-35 13t-24 11.5l52 101q16 -8 36.5 -18.5t43 -21.5t45.5 -22t44 -20q25 8 25 35q0 14 -9 30.5t-38 38.5l-94 75q-22 18 -35 44.5t-13 53.5q0 39 26 68t90 58l85 40q26 -3 61 -15t72 -28l-55 -103
q-33 21 -75 42.5t-78 37.5q-24 -10 -24 -33q0 -14 9.5 -27t35.5 -33l93 -73q30 -23 41.5 -49.5t11.5 -50.5q0 -50 -27 -81t-76 -50z" />
    <glyph glyph-name="Scircumflex" unicode="&#x15c;" horiz-adv-x="523" 
d="M214 769l125 136h108l76 -136h-78l-65 67l-88 -67h-78zM523 515h-63l-8 88q-30 26 -63.5 40t-76.5 16q-45 -14 -62.5 -37t-17.5 -52q0 -32 19 -54.5t51 -49.5l100 -84q19 -17 36.5 -33.5t31 -36t21 -44.5t7.5 -58q0 -60 -42.5 -110.5t-115.5 -79.5l-99 -38
q-68 0 -129.5 16.5t-96.5 42.5l26 157h73v-84q29 -29 73 -48.5t89 -19.5q38 15 58 42.5t20 62.5q0 21 -5.5 37t-15 29.5t-22 25t-26.5 22.5l-99 81q-42 35 -68.5 70.5t-26.5 85.5q0 61 41 104t126 76l92 36q74 0 123 -16.5t79 -38.5z" />
    <glyph glyph-name="scircumflex" unicode="&#x15d;" horiz-adv-x="404" 
d="M124 557l126 176h89l64 -176h-62l-62 92l-93 -92h-62zM135 -15q-14 3 -33 9.5l-38 13t-35 13t-24 11.5l52 101q16 -8 36.5 -18.5t43 -21.5t45.5 -22t44 -20q25 8 25 35q0 14 -9 30.5t-38 38.5l-94 75q-22 18 -35 44.5t-13 53.5q0 39 26 68t90 58l85 40q26 -3 61 -15
t72 -28l-55 -103q-33 21 -75 42.5t-78 37.5q-24 -10 -24 -33q0 -14 9.5 -27t35.5 -33l93 -73q30 -23 41.5 -49.5t11.5 -50.5q0 -50 -27 -81t-76 -50z" />
    <glyph glyph-name="Scedilla" unicode="&#x15e;" horiz-adv-x="523" 
d="M79 -246l29 46h72q15 10 22 26.5t7 33.5t-6.5 28.5t-16.5 18.5t-22.5 10t-24.5 3l52 65q-54 5 -100.5 20t-75.5 36l26 157h73v-84q29 -29 73 -48.5t89 -19.5q38 15 58 42.5t20 62.5q0 21 -5.5 37t-15 29.5t-22 25t-26.5 22.5l-99 81q-42 35 -68.5 70.5t-26.5 85.5
q0 61 41 104t126 76l92 36q74 0 123 -16.5t79 -38.5l-29 -148h-63l-8 88q-30 26 -63.5 40t-76.5 16q-45 -14 -62.5 -37t-17.5 -52q0 -32 19 -54.5t51 -49.5l100 -84q19 -17 36.5 -33.5t31 -36t21 -44.5t7.5 -58q0 -60 -42.5 -110.5t-115.5 -79.5l-99 -38l-22 -29
q35 0 58 -17t23 -50q0 -25 -10.5 -43t-27 -31.5t-35.5 -23t-36 -15.5l-51 -19h-61z" />
    <glyph glyph-name="scedilla" unicode="&#x15f;" horiz-adv-x="404" 
d="M-12 -246l29 46h72q15 10 22 26.5t7 33.5t-6.5 28.5t-16.5 18.5t-22.5 10t-24.5 3l59 73q-28 8 -58 19.5t-44 19.5l52 101q16 -8 36.5 -18.5t43 -21.5t45.5 -22t44 -20q25 8 25 35q0 14 -9 30.5t-38 38.5l-94 75q-22 18 -35 44.5t-13 53.5q0 39 26 68t90 58l85 40
q26 -3 61 -15t72 -28l-55 -103q-33 21 -75 42.5t-78 37.5q-24 -10 -24 -33q0 -14 9.5 -27t35.5 -33l93 -73q30 -23 41.5 -49.5t11.5 -50.5q0 -50 -27 -81t-76 -50l-93 -36l-31 -42q35 0 58 -17t23 -50q0 -25 -10.5 -43t-27 -31.5t-35.5 -23t-36 -15.5l-51 -19h-61z" />
    <glyph glyph-name="Scaron" unicode="&#x160;" horiz-adv-x="523" 
d="M546 905l-125 -136h-108l-77 136h78l66 -66l88 66h78zM523 515h-63l-8 88q-30 26 -63.5 40t-76.5 16q-45 -14 -62.5 -37t-17.5 -52q0 -32 19 -54.5t51 -49.5l100 -84q19 -17 36.5 -33.5t31 -36t21 -44.5t7.5 -58q0 -60 -42.5 -110.5t-115.5 -79.5l-99 -38
q-68 0 -129.5 16.5t-96.5 42.5l26 157h73v-84q29 -29 73 -48.5t89 -19.5q38 15 58 42.5t20 62.5q0 21 -5.5 37t-15 29.5t-22 25t-26.5 22.5l-99 81q-42 35 -68.5 70.5t-26.5 85.5q0 61 41 104t126 76l92 36q74 0 123 -16.5t79 -38.5z" />
    <glyph glyph-name="scaron" unicode="&#x161;" horiz-adv-x="404" 
d="M429 731l-125 -170h-89l-65 170h62l63 -86l92 86h62zM135 -15q-14 3 -33 9.5l-38 13t-35 13t-24 11.5l52 101q16 -8 36.5 -18.5t43 -21.5t45.5 -22t44 -20q25 8 25 35q0 14 -9 30.5t-38 38.5l-94 75q-22 18 -35 44.5t-13 53.5q0 39 26 68t90 58l85 40q26 -3 61 -15
t72 -28l-55 -103q-33 21 -75 42.5t-78 37.5q-24 -10 -24 -33q0 -14 9.5 -27t35.5 -33l93 -73q30 -23 41.5 -49.5t11.5 -50.5q0 -50 -27 -81t-76 -50z" />
    <glyph glyph-name="Tcommaaccent" unicode="&#x162;" horiz-adv-x="611" 
d="M201 -90l7 40h124l-14 -80l-96 -122l-47 10l43 117zM355 59l92 -13l-12 -47l-165 3l-162 -3l2 47l97 13l94 585l-117 -3l-65 -141h-51l28 201l292 -3l282 3l-27 -201h-52l-26 141l-116 3z" />
    <glyph glyph-name="tcommaaccent" unicode="&#x163;" horiz-adv-x="380" 
d="M54 -90l7 40h124l-14 -80l-96 -122l-47 10l43 117zM196 68l130 49l15 -28l-194 -104l-89 36l67 381h-94l4 21l48 41h53l11 57l108 90h36l-27 -150h116l-11 -59h-115z" />
    <glyph glyph-name="Tcaron" unicode="&#x164;" horiz-adv-x="611" 
d="M575 905l-125 -136h-108l-77 136h78l66 -66l88 66h78zM355 59l92 -13l-12 -47l-165 3l-162 -3l2 47l97 13l94 585l-117 -3l-65 -141h-51l28 201l292 -3l282 3l-27 -201h-52l-26 141l-116 3z" />
    <glyph glyph-name="tcaron" unicode="&#x165;" horiz-adv-x="380" 
d="M353 675l7 40h124l-14 -80l-96 -122l-47 10l43 117zM196 68l130 49l15 -28l-194 -104l-89 36l67 381h-94l4 21l48 41h53l11 57l108 90h36l-27 -150h116l-11 -59h-115z" />
    <glyph glyph-name="Tbar" unicode="&#x166;" horiz-adv-x="611" 
d="M419 460h95l-10 -53h-93l-56 -348l92 -13l-12 -47l-165 3l-162 -3l2 47l97 13l56 348h-91l10 53h89l30 184l-117 -3l-65 -141h-51l28 201l292 -3l282 3l-27 -201h-52l-26 141l-116 3z" />
    <glyph glyph-name="tbar" unicode="&#x167;" horiz-adv-x="380" 
d="M241 328h90l-7 -43h-91l-37 -217l130 49l15 -28l-194 -104l-89 36l46 264h-57l7 43h58l13 74h-94l4 21l48 41h53l11 57l108 90h36l-27 -150h116l-11 -59h-115z" />
    <glyph glyph-name="Utilde" unicode="&#x168;" horiz-adv-x="692" 
d="M342 881l75 22l162 -54l42 52h32l-49 -114l-73 -17l-163 55l-41 -53h-32zM599 242q-7 -41 -19.5 -77t-36 -66t-60 -53t-91.5 -39l-86 -25q-69 0 -114.5 18.5t-70.5 53t-31 82.5t3 107l64 399l-76 13l12 46l136 -3l155 3l-2 -46l-75 -13l-67 -410q-6 -37 1.5 -69
t27.5 -55.5t51 -37t72 -13.5q27 12 48 25.5t36 33t25.5 47.5t16.5 69l66 410l-88 13l12 46l125 -3l119 3l-3 -46l-87 -13z" />
    <glyph glyph-name="utilde" unicode="&#x169;" horiz-adv-x="568" 
d="M235 694l75 22l162 -54l42 52h32l-49 -114l-73 -17l-163 55l-41 -53h-32zM40 387l-13 32l177 75l53 -48l-52 -299q-4 -23 3 -36.5t26 -13.5q15 0 33.5 10.5t30.5 18.5l44 30l57 323h129l-73 -415l81 53l20 -28l-151 -104l-84 32l9 59l19 41l-174 -132q-63 0 -89.5 33.5
t-15.5 93.5l53 303z" />
    <glyph glyph-name="Umacron" unicode="&#x16a;" horiz-adv-x="692" 
d="M331 863h292l-12 -70h-292zM599 242q-7 -41 -19.5 -77t-36 -66t-60 -53t-91.5 -39l-86 -25q-69 0 -114.5 18.5t-70.5 53t-31 82.5t3 107l64 399l-76 13l12 46l136 -3l155 3l-2 -46l-75 -13l-67 -410q-6 -37 1.5 -69t27.5 -55.5t51 -37t72 -13.5q27 12 48 25.5t36 33
t25.5 47.5t16.5 69l66 410l-88 13l12 46l125 -3l119 3l-3 -46l-87 -13z" />
    <glyph glyph-name="umacron" unicode="&#x16b;" horiz-adv-x="568" 
d="M229 670h292l-13 -70h-292zM40 387l-13 32l177 75l53 -48l-52 -299q-4 -23 3 -36.5t26 -13.5q15 0 33.5 10.5t30.5 18.5l44 30l57 323h129l-73 -415l81 53l20 -28l-151 -104l-84 32l9 59l19 41l-174 -132q-63 0 -89.5 33.5t-15.5 93.5l53 303z" />
    <glyph glyph-name="Ubreve" unicode="&#x16c;" horiz-adv-x="692" 
d="M469 847q22 0 41.5 5.5t35 13t28 16.5t20.5 15l28 -26q-12 -16 -24 -30.5t-29.5 -28t-41.5 -26.5t-59 -26q-32 0 -56 10t-41.5 25.5t-29 35.5t-17.5 40l39 26l15 -15t21.5 -16.5t29.5 -13t40 -5.5zM599 242q-7 -41 -19.5 -77t-36 -66t-60 -53t-91.5 -39l-86 -25
q-69 0 -114.5 18.5t-70.5 53t-31 82.5t3 107l64 399l-76 13l12 46l136 -3l155 3l-2 -46l-75 -13l-67 -410q-6 -37 1.5 -69t27.5 -55.5t51 -37t72 -13.5q27 12 48 25.5t36 33t25.5 47.5t16.5 69l66 410l-88 13l12 46l125 -3l119 3l-3 -46l-87 -13z" />
    <glyph glyph-name="ubreve" unicode="&#x16d;" horiz-adv-x="568" 
d="M362 647q22 0 41 7.5t34 18.5t27 23.5t21 22.5l30 -26q-12 -19 -24.5 -36t-30 -32.5t-42 -31t-60.5 -31.5q-31 0 -55 11.5t-41.5 30.5t-28.5 42t-16 47l40 26q6 -10 14 -22.5t20.5 -23.5t30 -18.5t40.5 -7.5zM40 387l-13 32l177 75l53 -48l-52 -299q-4 -23 3 -36.5
t26 -13.5q15 0 33.5 10.5t30.5 18.5l44 30l57 323h129l-73 -415l81 53l20 -28l-151 -104l-84 32l9 59l19 41l-174 -132q-63 0 -89.5 33.5t-15.5 93.5l53 303z" />
    <glyph glyph-name="Uring" unicode="&#x16e;" horiz-adv-x="692" 
d="M584 844q0 -28 -9 -44.5t-24 -26.5t-35.5 -16.5t-43.5 -14.5q-21 0 -42.5 5t-38 17t-27 31.5t-10.5 48.5q0 26 9.5 43.5t25.5 29.5t37 19.5t43 13.5q24 0 45 -5t36.5 -17.5t24.5 -33t9 -50.5zM411 844q0 -25 17 -40t42 -15t41.5 15t16.5 40q0 24 -16.5 41.5t-41.5 17.5
t-42 -17.5t-17 -41.5zM599 242q-7 -41 -19.5 -77t-36 -66t-60 -53t-91.5 -39l-86 -25q-69 0 -114.5 18.5t-70.5 53t-31 82.5t3 107l64 399l-76 13l12 46l136 -3l155 3l-2 -46l-75 -13l-67 -410q-6 -37 1.5 -69t27.5 -55.5t51 -37t72 -13.5q27 12 48 25.5t36 33t25.5 47.5
t16.5 69l66 410l-88 13l12 46l125 -3l119 3l-3 -46l-87 -13z" />
    <glyph glyph-name="uring" unicode="&#x16f;" horiz-adv-x="568" 
d="M469 648q0 -28 -9 -44t-24 -26t-35.5 -16.5t-43.5 -15.5q-21 0 -42 5t-37.5 17t-27 31.5t-10.5 48.5q0 26 9.5 43.5t25.5 29.5t36.5 19.5t42.5 13.5q24 0 45 -5t36.5 -17.5t24.5 -33t9 -50.5zM297 648q0 -25 17 -40t41 -15q25 0 42 15t17 40q0 24 -17 41.5t-42 17.5
q-24 0 -41 -17.5t-17 -41.5zM40 387l-13 32l177 75l53 -48l-52 -299q-4 -23 3 -36.5t26 -13.5q15 0 33.5 10.5t30.5 18.5l44 30l57 323h129l-73 -415l81 53l20 -28l-151 -104l-84 32l9 59l19 41l-174 -132q-63 0 -89.5 33.5t-15.5 93.5l53 303z" />
    <glyph glyph-name="Uhungarumlaut" unicode="&#x170;" horiz-adv-x="692" 
d="M319 769l64 136h144l-138 -136h-70zM506 769l63 136h144l-137 -136h-70zM599 242q-7 -41 -19.5 -77t-36 -66t-60 -53t-91.5 -39l-86 -25q-69 0 -114.5 18.5t-70.5 53t-31 82.5t3 107l64 399l-76 13l12 46l136 -3l155 3l-2 -46l-75 -13l-67 -410q-6 -37 1.5 -69
t27.5 -55.5t51 -37t72 -13.5q27 12 48 25.5t36 33t25.5 47.5t16.5 69l66 410l-88 13l12 46l125 -3l119 3l-3 -46l-87 -13z" />
    <glyph glyph-name="uhungarumlaut" unicode="&#x171;" horiz-adv-x="568" 
d="M223 557l72 170h132l-142 -170h-62zM404 557l72 170h132l-142 -170h-62zM40 387l-13 32l177 75l53 -48l-52 -299q-4 -23 3 -36.5t26 -13.5q15 0 33.5 10.5t30.5 18.5l44 30l57 323h129l-73 -415l81 53l20 -28l-151 -104l-84 32l9 59l19 41l-174 -132q-63 0 -89.5 33.5
t-15.5 93.5l53 303z" />
    <glyph glyph-name="Uogonek" unicode="&#x172;" horiz-adv-x="692" 
d="M599 242q-6 -37 -17 -70t-29.5 -61t-47 -50.5t-70.5 -39.5l-67 -125l-6 -33q-2 -13 -0.5 -25.5t11.5 -22t29 -15t51 -5.5l-8 -41q-55 0 -92 6.5t-59 19t-29.5 31.5t-2.5 44l12 66l100 81l-68 -20q-69 0 -114.5 18.5t-70.5 53t-31 82.5t3 107l64 399l-76 13l12 46l136 -3
l155 3l-2 -46l-75 -13l-67 -410q-6 -37 1.5 -69t27.5 -55.5t51 -37t72 -13.5q27 12 48 25.5t36 33t25.5 47.5t16.5 69l66 410l-88 13l12 46l125 -3l119 3l-3 -46l-87 -13z" />
    <glyph glyph-name="uogonek" unicode="&#x173;" horiz-adv-x="568" 
d="M476 -246q-110 0 -151 25.5t-32 75.5l11 66l83 71l-66 25l9 59l19 41l-174 -132q-63 0 -89.5 33.5t-15.5 93.5l53 303l-83 -28l-13 32l177 75l53 -48l-52 -299q-4 -23 3 -36.5t26 -13.5q15 0 33.5 10.5t30.5 18.5l44 30l57 323h129l-73 -415l81 53l20 -28l-81 -56
l-77 -137l-6 -33q-2 -13 -0.5 -25.5t11.5 -22t29 -15t51 -5.5l-7 -41v0z" />
    <glyph glyph-name="Wcircumflex" unicode="&#x174;" horiz-adv-x="979" 
d="M435 769l125 136h107l77 -136h-78l-65 67l-88 -67h-78zM249 -18l-107 661l-64 11l12 47l166 -3l108 3l-2 -47l-67 -13l60 -463l-13 -71l171 427l-17 109l-55 11l12 47l158 -3l122 3l-3 -47l-81 -13l61 -463l-13 -71l218 534l-88 13l12 47l118 -3l85 3l-3 -47l-50 -11
l-274 -633l-111 -28l-65 429l8 60l-187 -460z" />
    <glyph glyph-name="wcircumflex" unicode="&#x175;" horiz-adv-x="723" 
d="M292 557l125 176h90l64 -176h-62l-62 92l-93 -92h-62zM557 427l110 67l51 -53l-23 -138l-224 -318l-117 24l-5 126l14 69l-142 -219l-118 24l-10 406l-83 -28l-13 31l176 76l52 -47v-328l-8 -56l130 201l-5 174l133 43v-366l-10 -56l172 268z" />
    <glyph glyph-name="Ycircumflex" unicode="&#x176;" horiz-adv-x="674" 
d="M305 769l125 136h108l77 -136h-78l-66 67l-88 -67h-78zM439 280l-34 -221l106 -13l-12 -47l-180 3l-178 -3l2 47l114 13l34 222l-154 361l-56 12l12 47l134 -3l147 3l-2 -47l-76 -13l106 -256v-59l203 316l-73 12l11 47l111 -3l86 2l-2 -46l-56 -12z" />
    <glyph glyph-name="ycircumflex" unicode="&#x177;" horiz-adv-x="501" 
d="M160 557l126 176h89l64 -176h-62l-62 92l-93 -92h-62zM240 18l-101 -18l-55 413l-79 -27l-15 30l166 78l59 -42l47 -394l156 269l-83 100l110 67l51 -53l-23 -138l-328 -538h-147l21 127h101z" />
    <glyph glyph-name="Ydieresis" unicode="&#x178;" horiz-adv-x="674" 
d="M365 887l42 -6l-2 -57l-21 -51l-59 -6l-43 6l4 60l20 48zM591 887l42 -6l-3 -57l-20 -51l-60 -6l-42 6l3 60l21 48zM439 280l-34 -221l106 -13l-12 -47l-180 3l-178 -3l2 47l114 13l34 222l-154 361l-56 12l12 47l134 -3l147 3l-2 -47l-76 -13l106 -256v-59l203 316
l-73 12l11 47l111 -3l86 2l-2 -46l-56 -12z" />
    <glyph glyph-name="Zacute" unicode="&#x179;" horiz-adv-x="569" 
d="M314 769l64 136h144l-138 -136h-70zM509 210h53l-69 -210h-498l-4 48l421 560l55 37l-259 -7l-69 -130h-49l30 192h483l11 -44l-425 -566l-53 -33l272 5z" />
    <glyph glyph-name="zacute" unicode="&#x17a;" horiz-adv-x="449" 
d="M251 557l73 176h132l-143 -176h-62zM371 110l41 35l28 -9l-79 -153l-285 44l-47 -33l-36 25l350 381l-97 -53l-140 18l-28 -27l-30 6l73 144l276 -29l31 20l30 -21l-326 -354l85 37z" />
    <glyph glyph-name="Zdotaccent" unicode="&#x17b;" horiz-adv-x="569" 
d="M329 884l54 5l55 -7l-3 -61l-22 -54l-50 -6l-60 6l5 64zM509 210h53l-69 -210h-498l-4 48l421 560l55 37l-259 -7l-69 -130h-49l30 192h483l11 -44l-425 -566l-53 -33l272 5z" />
    <glyph glyph-name="zdotaccent" unicode="&#x17c;" horiz-adv-x="449" 
d="M280 710l54 5l55 -6l-3 -62l-22 -53l-50 -6l-60 6l5 63zM371 110l41 35l28 -9l-79 -153l-285 44l-47 -33l-36 25l350 381l-97 -53l-140 18l-28 -27l-30 6l73 144l276 -29l31 20l30 -21l-326 -354l85 37z" />
    <glyph glyph-name="Zcaron" unicode="&#x17d;" horiz-adv-x="569" 
d="M236 905h78l66 -66l88 66h78l-125 -136h-108zM509 210h53l-69 -210h-498l-4 48l421 560l55 37l-259 -7l-69 -130h-49l30 192h483l11 -44l-425 -566l-53 -33l272 5z" />
    <glyph glyph-name="zcaron" unicode="&#x17e;" horiz-adv-x="449" 
d="M467 731l-125 -170h-90l-65 170h62l64 -86l92 86h62zM371 110l41 35l28 -9l-79 -153l-285 44l-47 -33l-36 25l350 381l-97 -53l-140 18l-28 -27l-30 6l73 144l276 -29l31 20l30 -21l-326 -354l85 37z" />
    <glyph glyph-name="longs" unicode="&#x17f;" horiz-adv-x="346" 
d="M174 -6q-8 -46 -40.5 -83.5t-80.5 -69.5l-109 -73h-75l21 112h113q15 18 24.5 42.5t12.5 45.5l76 435h-96l5 21l48 42h54l6 35q7 41 26.5 78.5t57.5 59.5l122 70h112l-18 -95h-131q-14 -12 -21.5 -32t-10.5 -35z" />
    <glyph glyph-name="florin" unicode="&#x192;" horiz-adv-x="401" 
d="M30 -111q15 15 24.5 38.5t13.5 43.5l75 431h-97l5 22l47 40h56l6 40q6 41 26 78t58 60l118 70h115l-19 -98h-132q-12 -11 -21 -31.5t-11 -35.5l-14 -86h113l-14 -59h-110l-72 -414q-8 -46 -39 -78.5t-79 -65.5l-109 -73h-75l21 118h114z" />
    <glyph glyph-name="Aringacute" unicode="&#x1fa;" horiz-adv-x="695" 
d="M601 844q0 -28 -9 -44t-24 -26t-35.5 -16.5t-43.5 -15.5q-21 0 -42.5 5t-38 17t-27 31.5t-10.5 48.5q0 26 9.5 43.5t26 29.5t38 19.5t44.5 13.5l19 45l120 5l-74 -64q21 -11 34 -33t13 -59zM428 844q0 -25 17 -40t42 -15q24 0 41 15t17 40q0 24 -17 41.5t-41 17.5
q-25 0 -42 -17.5t-17 -41.5zM487 2l-119 -3l2 47l75 13l-13 168h-221l-99 -168l76 -13l-12 -47l-101 3l-98 -3l2 47l62 11l370 632l130 29l62 -661l64 -11l-11 -47zM239 282h189l-20 249l6 68z" />
    <glyph glyph-name="aringacute" unicode="&#x1fb;" horiz-adv-x="535" 
d="M479 648q0 -28 -9 -44t-24 -26t-35.5 -16.5t-43.5 -15.5q-21 0 -42.5 5t-38 17t-27 31.5t-10.5 48.5q0 26 9.5 43.5t26 29.5t38 19.5t44.5 13.5l19 45l120 5l-74 -64q21 -11 34 -33t13 -59zM306 648q0 -25 17 -40t42 -15t41.5 15t16.5 40q0 24 -16.5 41.5t-41.5 17.5
t-42 -17.5t-17 -41.5zM425 64l82 52l20 -27l-150 -104l-88 36l10 54l21 51l-163 -141q-56 16 -91 61t-35 129q0 91 47.5 160t136.5 112l98 47q40 -1 88 -13t93 -29zM169 224q0 -48 13 -79.5t33 -54.5l99 72l40 229q-23 13 -55 20t-60 7q-32 -37 -51 -86t-19 -108z" />
    <glyph glyph-name="AEacute" unicode="&#x1fc;" horiz-adv-x="906" 
d="M547 769l64 136h144l-138 -136h-70zM191 46l-12 -47l-103 3l-101 -3l3 47l61 11l422 644l100 -3l360 3v-179h-46l-48 117l-195 3l-44 -275l99 4l63 113h37l-38 -145l-8 -147h-37l-27 113l-98 4l-34 -251l214 3l75 130h47l-46 -192l-385 3l-133 -3l3 47l79 13l40 252h-164
l-160 -252zM307 363h140l48 292z" />
    <glyph glyph-name="aeacute" unicode="&#x1fd;" horiz-adv-x="716" 
d="M389 557l74 176h132l-144 -176h-62zM523 78q13 5 31 12.5t36.5 16.5t36 18t30.5 16l19 -29q-15 -10 -35 -22.5t-42 -25t-45 -25t-45 -23.5l-65 -31q-23 4 -45.5 14t-41.5 25t-34 35.5t-24 46.5l-142 -121q-56 16 -92 61t-36 129q0 91 47.5 160t136.5 112l98 47
q39 -1 85 -12t90 -28l109 40q45 -10 74.5 -38.5t29.5 -77.5q0 -23 -3.5 -42.5t-11.5 -45.5l-255 -75q0 -24 7 -45.5t19.5 -39.5t30 -31.5t37.5 -20.5zM167 224q0 -48 13.5 -79.5t34.5 -54.5l75 53q-8 66 12.5 129t67.5 111q-31 16 -63 25.5t-70 9.5q-32 -37 -51 -86
t-19 -108zM516 433q-43 -26 -63.5 -75.5t-24.5 -106.5l125 47q5 19 6.5 31.5t1.5 28.5q0 31 -13.5 50.5t-31.5 24.5z" />
    <glyph glyph-name="Oslashacute" unicode="&#x1fe;" horiz-adv-x="721" 
d="M443 718q53 0 97.5 -13.5t79.5 -39.5l43 50h69l-73 -85q37 -42 56.5 -99t19.5 -128q0 -59 -15.5 -118t-50.5 -112t-91 -96t-137 -68l-87 -27q-60 0 -109 17.5t-86 49.5l-56 -64h-71l90 104q-29 40 -44.5 92.5t-15.5 115.5q0 58 15.5 117.5t51 112.5t91.5 95.5t137 68.5z
M574 388q0 69 -18 122l-303 -351q23 -47 58.5 -75.5t80.5 -37.5q94 42 138 132.5t44 209.5zM223 312q0 -54 10 -95l298 346q-23 37 -55 60t-71 31q-94 -42 -138 -132.5t-44 -209.5zM410 769l64 136h144l-138 -136h-70z" />
    <glyph glyph-name="oslashacute" unicode="&#x1ff;" horiz-adv-x="518" 
d="M305 494q75 0 131 -45l34 37h63l-65 -71q17 -24 26.5 -54.5t9.5 -67.5q0 -95 -52 -166t-153 -114l-66 -28q-36 0 -68.5 10t-58.5 29l-28 -30h-65l59 64q-18 23 -28 54.5t-10 69.5q0 95 53 165.5t152 115.5zM264 426q-24 -12 -41.5 -35t-28.5 -52t-16.5 -61t-5.5 -63
q0 -26 3 -47l174 188q-14 29 -35.5 46.5t-49.5 23.5zM366 261q0 21 -3 41l-172 -186q13 -28 34 -44t48 -22q24 12 42 35t29 52t16.5 61t5.5 63zM290 557l74 176h132l-144 -176h-62z" />
    <glyph glyph-name="Scommaaccent" unicode="&#x218;" horiz-adv-x="523" 
d="M159 -90l7 40h124l-14 -80l-96 -122l-47 10l43 117zM523 515h-63l-8 88q-30 26 -63.5 40t-76.5 16q-45 -14 -62.5 -37t-17.5 -52q0 -32 19 -54.5t51 -49.5l100 -84q19 -17 36.5 -33.5t31 -36t21 -44.5t7.5 -58q0 -60 -42.5 -110.5t-115.5 -79.5l-99 -38
q-68 0 -129.5 16.5t-96.5 42.5l26 157h73v-84q29 -29 73 -48.5t89 -19.5q38 15 58 42.5t20 62.5q0 21 -5.5 37t-15 29.5t-22 25t-26.5 22.5l-99 81q-42 35 -68.5 70.5t-26.5 85.5q0 61 41 104t126 76l92 36q74 0 123 -16.5t79 -38.5z" />
    <glyph glyph-name="scommaaccent" unicode="&#x219;" horiz-adv-x="404" 
d="M69 -90l7 40h124l-14 -80l-96 -122l-47 10l43 117zM135 -15q-14 3 -33 9.5l-38 13t-35 13t-24 11.5l52 101q16 -8 36.5 -18.5t43 -21.5t45.5 -22t44 -20q25 8 25 35q0 14 -9 30.5t-38 38.5l-94 75q-22 18 -35 44.5t-13 53.5q0 39 26 68t90 58l85 40q26 -3 61 -15t72 -28
l-55 -103q-33 21 -75 42.5t-78 37.5q-24 -10 -24 -33q0 -14 9.5 -27t35.5 -33l93 -73q30 -23 41.5 -49.5t11.5 -50.5q0 -50 -27 -81t-76 -50z" />
    <glyph glyph-name="uni021A" unicode="&#x21a;" horiz-adv-x="611" 
d="M199 -90l7 40h124l-14 -80l-96 -122l-47 10l43 117zM355 59l92 -13l-12 -47l-165 3l-162 -3l2 47l97 13l94 585l-117 -3l-65 -141h-51l28 201l292 -3l282 3l-27 -201h-52l-26 141l-116 3z" />
    <glyph glyph-name="uni021B" unicode="&#x21b;" horiz-adv-x="380" 
d="M54 -90l7 40h124l-14 -80l-96 -122l-47 10l43 117zM196 68l130 49l15 -28l-194 -104l-89 36l67 381h-94l4 21l48 41h53l11 57l108 90h36l-27 -150h116l-11 -59h-115z" />
    <glyph glyph-name="hsuperior" unicode="&#x2b0;" horiz-adv-x="368" 
d="M176 400h-101l67 348l-48 -13l-9 22l127 36l35 -24l-28 -143l-12 -24l114 75q42 0 59 -17t8 -63l-32 -155l47 26l14 -16l-95 -60l-71 24l30 163q2 6 -1 12.5t-14 6.5q-7 0 -16 -3t-14 -5l-26 -12z" />
    <glyph glyph-name="jsuperior" unicode="&#x2b2;" horiz-adv-x="188" 
d="M-26 271l15 76h68q13 17 17.5 36t8.5 36l40 209l-43 -13l-10 20l112 42l46 -38l-43 -218q-6 -35 -34 -59t-68 -50l-65 -41h-44zM164 783l30 5l52 -5v-46l-16 -34l-28 -7l-57 7l2 39z" />
    <glyph glyph-name="wsuperior" unicode="&#x2b7;" horiz-adv-x="456" 
d="M391 632l79 45l37 -29l-15 -88l-133 -168l-89 15l-3 49l11 43l-79 -107l-90 15l-6 222l-45 -13l-9 19l112 42l44 -37v-155l-5 -37l66 89l-4 103l103 30v-189l-7 -37l89 124z" />
    <glyph glyph-name="ysuperior" unicode="&#x2b8;" horiz-adv-x="319" 
d="M212 417l-85 -17l-31 228l-43 -13l-9 20l114 42l38 -33l30 -202l87 127l-59 63l79 45l37 -29l-15 -88l-197 -289h-99l16 89h74z" />
    <glyph glyph-name="apostrophemod" unicode="&#x2bc;" horiz-adv-x="252" 
d="M95 436q8 13 19 32t20.5 38.5t17 37t9.5 27.5l-47 6l5 68l19 58l87 7l37 -7l-4 -67l-18 -59l-101 -160z" />
    <glyph glyph-name="circumflex" unicode="&#x2c6;" horiz-adv-x="500" 
d="M110 557l126 176h90l64 -176h-62l-63 92l-93 -92h-62z" />
    <glyph glyph-name="caron" unicode="&#x2c7;" horiz-adv-x="500" 
d="M390 731l-125 -170h-90l-65 170h62l64 -86l92 86h62z" />
    <glyph glyph-name="breve" unicode="&#x2d8;" horiz-adv-x="500" 
d="M246 647q22 0 41 7.5t34 18.5t27 23.5t21 22.5l30 -26q-12 -19 -24.5 -36t-30 -32.5t-42 -31t-60.5 -31.5q-31 0 -55 11.5t-41.5 30.5t-28.5 42t-16 47l40 26q6 -10 14 -22.5t20.5 -23.5t30 -18.5t40.5 -7.5z" />
    <glyph glyph-name="dotaccent" unicode="&#x2d9;" horiz-adv-x="500" 
d="M208 710l55 5l54 -6l-3 -62l-21 -53l-51 -6l-60 6l5 63z" />
    <glyph glyph-name="ring" unicode="&#x2da;" horiz-adv-x="500" 
d="M365 648q0 -28 -9 -44t-24 -26t-35.5 -16.5t-43.5 -15.5q-21 0 -42.5 5t-38 17t-27 31.5t-10.5 48.5q0 26 9.5 43.5t25.5 29.5t37 19.5t43 13.5q24 0 45 -5t36.5 -17.5t24.5 -33t9 -50.5zM192 648q0 -25 17 -40t42 -15q24 0 41 15t17 40q0 24 -17 41.5t-41 17.5
q-25 0 -42 -17.5t-17 -41.5z" />
    <glyph glyph-name="ogonek" unicode="&#x2db;" horiz-adv-x="500" 
d="M260 -104l-6 -33q-2 -13 -0.5 -25.5t11.5 -22t29 -15t52 -5.5l-8 -41q-110 0 -151 25.5t-32 75.5l11 66l137 118h37z" />
    <glyph glyph-name="tilde" unicode="&#x2dc;" horiz-adv-x="500" 
d="M118 694l75 22l162 -54l42 52h32l-50 -114l-73 -17l-162 55l-42 -53h-32z" />
    <glyph glyph-name="hungarumlaut" unicode="&#x2dd;" horiz-adv-x="500" 
d="M57 557l73 170h132l-143 -170h-62zM238 557l73 170h132l-143 -170h-62z" />
    <glyph glyph-name="xsuperior" unicode="&#x2e3;" horiz-adv-x="329" 
d="M137 628l-48 -13l-9 19l112 43l44 -37l15 -49v-24l79 104h71l-22 -90h-42q-7 -2 -16 -6.5t-20 -11.5l-34 -21l35 -105l57 32l14 -17l-95 -60l-71 25l-22 64v20l-70 -104h-70l22 90h41q8 2 17.5 6.5t17.5 11.5l25 22z" />
    <glyph glyph-name="mu" unicode="&#x3bc;" 
d="M159 479h129l-58 -332q-4 -23 3 -36.5t25 -13.5q15 0 33 10t30 18l46 30l57 324h129l-72 -407l82 45l20 -28l-150 -106l-86 34l7 58l20 42l-174 -134q-16 0 -36 3t-31 11l11 -33l32 -194h-140z" />
    <glyph glyph-name="pi" unicode="&#x3c0;" 
d="M523 117l21 -28l-151 -106l-93 36l65 372h-98l-68 -391h-133l68 391h-42l-45 -83h-44l28 157h586l-12 -74h-106l-58 -319z" />
    <glyph glyph-name="Wgrave" unicode="&#x1e80;" horiz-adv-x="979" 
d="M554 769l-89 136h134l19 -136h-64zM249 -18l-107 661l-64 11l12 47l166 -3l108 3l-2 -47l-67 -13l60 -463l-13 -71l171 427l-17 109l-55 11l12 47l158 -3l122 3l-3 -47l-81 -13l61 -463l-13 -71l218 534l-88 13l12 47l118 -3l85 3l-3 -47l-50 -11l-274 -633l-111 -28
l-65 429l8 60l-187 -460z" />
    <glyph glyph-name="wgrave" unicode="&#x1e81;" horiz-adv-x="723" 
d="M382 557l-80 176h130l10 -176h-60zM557 427l110 67l51 -53l-23 -138l-224 -318l-117 24l-5 126l14 69l-142 -219l-118 24l-10 406l-83 -28l-13 31l176 76l52 -47v-328l-8 -56l130 201l-5 174l133 43v-366l-10 -56l172 268z" />
    <glyph glyph-name="Wacute" unicode="&#x1e82;" horiz-adv-x="979" 
d="M537 769l64 136h144l-138 -136h-70zM249 -18l-107 661l-64 11l12 47l166 -3l108 3l-2 -47l-67 -13l60 -463l-13 -71l171 427l-17 109l-55 11l12 47l158 -3l122 3l-3 -47l-81 -13l61 -463l-13 -71l218 534l-88 13l12 47l118 -3l85 3l-3 -47l-50 -11l-274 -633l-111 -28
l-65 429l8 60l-187 -460z" />
    <glyph glyph-name="wacute" unicode="&#x1e83;" horiz-adv-x="723" 
d="M367 557l74 176h132l-144 -176h-62zM557 427l110 67l51 -53l-23 -138l-224 -318l-117 24l-5 126l14 69l-142 -219l-118 24l-10 406l-83 -28l-13 31l176 76l52 -47v-328l-8 -56l130 201l-5 174l133 43v-366l-10 -56l172 268z" />
    <glyph glyph-name="Wdieresis" unicode="&#x1e84;" horiz-adv-x="979" 
d="M519 887l41 -6l-1 -57l-22 -51l-58 -6l-43 6l4 60l20 48zM744 887l43 -6l-3 -57l-20 -51l-60 -6l-42 6l3 60l21 48zM249 -18l-107 661l-64 11l12 47l166 -3l108 3l-2 -47l-67 -13l60 -463l-13 -71l171 427l-17 109l-55 11l12 47l158 -3l122 3l-3 -47l-81 -13l61 -463
l-13 -71l218 534l-88 13l12 47l118 -3l85 3l-3 -47l-50 -11l-274 -633l-111 -28l-65 429l8 60l-187 -460z" />
    <glyph glyph-name="wdieresis" unicode="&#x1e85;" horiz-adv-x="723" 
d="M373 701l40 -7l-2 -56l-21 -49l-57 -6l-43 6l4 58l20 47zM559 701l40 -7l-3 -56l-20 -49l-58 -6l-42 6l3 58l21 47zM557 427l110 67l51 -53l-23 -138l-224 -318l-117 24l-5 126l14 69l-142 -219l-118 24l-10 406l-83 -28l-13 31l176 76l52 -47v-328l-8 -56l130 201
l-5 174l133 43v-366l-10 -56l172 268z" />
    <glyph glyph-name="Ygrave" unicode="&#x1ef2;" horiz-adv-x="674" 
d="M423 769l-88 136h134l18 -136h-64zM439 280l-34 -221l106 -13l-12 -47l-180 3l-178 -3l2 47l114 13l34 222l-154 361l-56 12l12 47l134 -3l147 3l-2 -47l-76 -13l106 -256v-59l203 316l-73 12l11 47l111 -3l86 2l-2 -46l-56 -12z" />
    <glyph glyph-name="ygrave" unicode="&#x1ef3;" horiz-adv-x="501" 
d="M252 557l-79 176h130l10 -176h-61zM240 18l-101 -18l-55 413l-79 -27l-15 30l166 78l59 -42l47 -394l156 269l-83 100l110 67l51 -53l-23 -138l-328 -538h-147l21 127h101z" />
    <glyph glyph-name="endash" unicode="&#x2013;" horiz-adv-x="674" 
d="M78 316h555l-13 -70h-555z" />
    <glyph glyph-name="emdash" unicode="&#x2014;" horiz-adv-x="886" 
d="M83 316h757l-13 -70h-757z" />
    <glyph glyph-name="quoteleft" unicode="&#x2018;" horiz-adv-x="242" 
d="M233 490l-19 -57l-87 -8l-37 8l4 67l18 59l101 159l44 -19q-8 -13 -19 -32t-20.5 -38.5t-17 -37t-9.5 -27.5l47 -5z" />
    <glyph glyph-name="quoteright" unicode="&#x2019;" horiz-adv-x="254" 
d="M121 645l19 58l87 7l37 -7l-4 -67l-18 -59l-101 -160l-44 19q8 13 19 32t20.5 38.5t17 37t9.5 27.5l-47 6z" />
    <glyph glyph-name="quotesinglbase" unicode="&#x201a;" horiz-adv-x="256" 
d="M39 70l19 57l87 8l37 -8l-4 -67l-18 -59l-101 -159l-44 19q8 13 19 32t20.5 38.5t17 37t9.5 27.5l-47 5z" />
    <glyph glyph-name="quotedblleft" unicode="&#x201c;" horiz-adv-x="433" 
d="M233 496l-19 -57l-87 -8l-37 8l4 67l18 59l101 159l44 -19q-8 -13 -19 -32t-20.5 -38.5t-17 -37t-9.5 -27.5l47 -5zM423 496l-18 -57l-88 -8l-36 8l4 67l18 59l101 159l44 -19q-8 -13 -19 -32t-21 -38.5t-17.5 -37t-8.5 -27.5l47 -5z" />
    <glyph glyph-name="quotedblright" unicode="&#x201d;" horiz-adv-x="445" 
d="M312 645l19 58l87 7l37 -7l-5 -67l-18 -59l-101 -160l-43 19q8 13 18.5 32t20.5 38.5t17 37t9 27.5l-47 6zM121 645l19 58l87 7l37 -7l-4 -67l-18 -59l-101 -160l-44 19q8 13 19 32t20.5 38.5t17 37t9.5 27.5l-47 6z" />
    <glyph glyph-name="quotedblbase" unicode="&#x201e;" horiz-adv-x="447" 
d="M230 70l19 57l87 8l37 -8l-5 -67l-18 -59l-101 -159l-43 19q8 13 18.5 32t20.5 38.5t17 37t9 27.5l-47 5zM39 70l19 57l87 8l37 -8l-4 -67l-18 -59l-101 -159l-44 19q8 13 19 32t20.5 38.5t17 37t9.5 27.5l-47 5z" />
    <glyph glyph-name="dagger" unicode="&#x2020;" horiz-adv-x="444" 
d="M77 546l158 -27l-1 191h125l-67 -191l172 27l-17 -102l-162 29l-9 -103l23 -41l-48 -103l-76 -286h-26l24 286l-12 103l37 41l29 103l-167 -29z" />
    <glyph glyph-name="daggerdbl" unicode="&#x2021;" horiz-adv-x="508" 
d="M232 370l29 103l-167 -29l17 102l158 -27l-1 191h125l-67 -191l172 27l-17 -102l-162 29l-9 -103l23 -41l-37 -41l-28 -103l166 29l-17 -102l-157 27v-191h-125l67 191l-172 -27l17 102l163 -29l8 103l-23 41z" />
    <glyph glyph-name="bullet" unicode="&#x2022;" horiz-adv-x="296" 
d="M186 380l45 -6l-7 -74l-18 -67l-96 -6l-45 6l7 75l18 66z" />
    <glyph glyph-name="ellipsis" unicode="&#x2026;" horiz-adv-x="812" 
d="M184 135l35 -8l-5 -67l-18 -59l-92 -6l-34 6l6 69l17 57zM448 135l34 -8l-4 -67l-19 -59l-91 -6l-35 6l6 69l17 57zM713 135l34 -8l-4 -67l-19 -59l-91 -6l-35 6l6 69l17 57z" />
    <glyph glyph-name="perthousand" unicode="&#x2030;" horiz-adv-x="1149" 
d="M134 -5h-93l641 710h93zM206 350q-30 0 -55 10.5t-42 30t-25 47.5t-4 63q5 44 21.5 76.5t42.5 56.5t61.5 40.5t78.5 27.5q32 0 57.5 -11t42 -31.5t24 -48t3.5 -60.5q-9 -87 -63.5 -134.5t-141.5 -66.5zM261 659q-32 0 -49.5 -36.5t-24.5 -94.5q-9 -71 4.5 -102.5
t39.5 -31.5q29 0 46.5 36t23.5 94q10 71 -3.5 103t-36.5 32zM899 0q-30 0 -55 10.5t-42 30t-25.5 47.5t-4.5 63q5 44 21.5 76.5t43 56.5t62 40.5t78.5 27.5q32 0 57 -11t42 -31.5t24 -48t3 -60.5q-9 -87 -63 -134.5t-141 -66.5zM531 0q-30 0 -55 10.5t-42 30t-25 47.5t-4 63
q4 44 20.5 76.5t43 56.5t62 40.5t78.5 27.5q32 0 57 -11t42 -31.5t24.5 -48t3.5 -60.5q-10 -87 -64 -134.5t-141 -66.5zM953 309q-32 0 -49.5 -36.5t-24.5 -94.5q-9 -71 4.5 -102.5t39.5 -31.5q29 0 46.5 36t23.5 94q10 71 -3.5 103t-36.5 32zM586 309q-32 0 -50 -36.5
t-24 -94.5q-9 -71 4 -102.5t39 -31.5q29 0 46.5 36t24.5 94q9 71 -4 103t-36 32z" />
    <glyph glyph-name="guilsinglleft" unicode="&#x2039;" horiz-adv-x="344" 
d="M177 15l-142 220l221 220h83l-166 -221l89 -219h-85z" />
    <glyph glyph-name="guilsinglright" unicode="&#x203a;" horiz-adv-x="370" 
d="M35 15l165 219l-88 221h84l144 -220l-220 -220h-85z" />
    <glyph glyph-name="fraction" unicode="&#x2044;" horiz-adv-x="189" 
d="M-129 -50h-72l521 760h70z" />
    <glyph glyph-name="zerosuperior" unicode="&#x2070;" horiz-adv-x="404" 
d="M88 552q0 33 10 67t31.5 64.5t55 56t81.5 40.5l49 15q64 0 100 -43.5t36 -118.5q0 -32 -10 -66t-31.5 -65t-55.5 -56.5t-82 -40.5l-48 -15q-64 0 -100 43.5t-36 118.5zM249 433q44 20 69 72.5t25 120.5q0 64 -16 92t-37 34q-44 -20 -69 -72t-25 -120q0 -32 4.5 -54.5
t11.5 -37.5t16.5 -23.5t20.5 -11.5z" />
    <glyph glyph-name="foursuperior" unicode="&#x2074;" horiz-adv-x="343" 
d="M317 584h72l-12 -66h-71l-24 -121h-86l23 121h-144l-19 43l222 234h93l-6 -36l-256 -196l56 21h66l6 33l79 54h19z" />
    <glyph glyph-name="fivesuperior" unicode="&#x2075;" horiz-adv-x="344" 
d="M70 397l14 82h138q17 12 24.5 30.5t7.5 35.5q0 23 -11 37t-39 14q-17 0 -32 -3.5t-32 -10.5l-20 -8l-14 10l63 203h234l-9 -32l-30 -49h-182l-33 -96l96 44q24 0 46 -4.5t38 -14t25.5 -24.5t9.5 -36q0 -34 -14 -58t-36 -41t-49 -29.5t-52 -22.5l-68 -27h-75z" />
    <glyph glyph-name="sixsuperior" unicode="&#x2076;" horiz-adv-x="346" 
d="M385 776q-50 -14 -84.5 -35.5t-57 -45.5t-34 -49.5t-14.5 -47.5l92 63q45 0 70.5 -29t25.5 -70q0 -34 -11.5 -60.5t-31 -46.5t-45 -33.5t-54.5 -20.5l-37 -10q-57 0 -91.5 37t-34.5 103q0 48 23 92.5t63.5 80.5t94.5 61t117 34zM191 571q-3 -17 -4 -30.5t-1 -29.5
q0 -38 10 -58.5t27 -28.5q16 8 26.5 22t16.5 29t8.5 29.5t2.5 24.5q0 30 -7.5 49.5t-20.5 19.5q-9 0 -18 -3.5t-23 -12.5z" />
    <glyph glyph-name="sevensuperior" unicode="&#x2077;" horiz-adv-x="312" 
d="M289 708l-31 -13h-180l14 90h264l21 -22l-240 -363h-60v45z" />
    <glyph glyph-name="eightsuperior" unicode="&#x2078;" horiz-adv-x="354" 
d="M270 646q17 12 27 28.5t10 35.5q0 23 -10.5 39t-34.5 21q-17 -6 -24 -22.5t-7 -33.5q0 -40 39 -68zM199 388q-56 0 -90.5 26t-34.5 63q0 22 9 39t24.5 30t35.5 22.5t43 17.5q-32 22 -47 44t-15 48q1 41 33 67t77 39l55 16q57 0 89 -21t32 -52q0 -22 -9.5 -38t-25 -28
t-36 -21t-41.5 -16q38 -26 59 -48.5t21 -54.5q0 -26 -11.5 -45.5t-30 -34t-43 -24.5t-50.5 -17zM178 493q0 -31 15.5 -48.5t29.5 -24.5q25 7 36 24t11 36q0 31 -15.5 49t-38.5 37q-17 -14 -27.5 -32.5t-10.5 -40.5z" />
    <glyph glyph-name="ninesuperior" unicode="&#x2079;" horiz-adv-x="344" 
d="M277 616q3 17 4 30.5t1 28.5q0 38 -10 59t-27 29q-17 -8 -27.5 -22t-16.5 -29t-8 -30t-2 -25q0 -29 7.5 -48.5t20.5 -19.5q10 0 18.5 4t22.5 12zM83 411q50 14 85 35.5t57.5 45.5t34 49.5t14.5 48.5l-93 -63q-45 0 -70.5 28.5t-25.5 69.5q0 34 11.5 60.5t31 46.5t45 33
t54.5 21l38 10q57 0 91 -37t34 -103q0 -48 -23 -92.5t-63 -80.5t-94.5 -61t-117.5 -34z" />
    <glyph glyph-name="plussuperior" unicode="&#x207a;" horiz-adv-x="403" 
d="M245 480v116h-129v48h129v119h50v-119h130v-48h-130v-116h-50z" />
    <glyph glyph-name="minussuperior" unicode="&#x207b;" horiz-adv-x="407" 
d="M116 650h315v-48h-315v48z" />
    <glyph glyph-name="equalsuperior" unicode="&#x207c;" horiz-adv-x="403" 
d="M425 648h-309v47h309v-47zM425 540h-309v48h309v-48z" />
    <glyph glyph-name="parenleftsuperior" unicode="&#x207d;" horiz-adv-x="232" 
d="M328 830q-64 -69 -98.5 -151t-34.5 -176q0 -48 6 -89.5t24 -79.5l-25 -15q-18 31 -30.5 55.5t-21 47.5t-12.5 46.5t-4 50.5q0 48 8.5 87.5t29 77t53.5 76.5t82 86z" />
    <glyph glyph-name="parenrightsuperior" unicode="&#x207e;" horiz-adv-x="232" 
d="M44 335q64 69 98 151t34 176q0 48 -6 89.5t-23 79.5l25 15q18 -31 30.5 -55.5t21 -47.5t12.5 -46.5t4 -50.5q0 -48 -9 -87t-29 -76.5t-53 -76.5t-82 -87z" />
    <glyph glyph-name="nsuperior" unicode="&#x207f;" horiz-adv-x="379" 
d="M288 579q1 6 -0.5 12.5t-12.5 6.5q-7 0 -15.5 -3t-13.5 -5l-26 -13l-33 -177h-101l43 226l-43 -11l-9 20l112 42l44 -36l-3 -16l-12 -22l110 74q39 0 56 -17t9 -63l-31 -158l49 28l14 -16l-95 -59l-73 23z" />
    <glyph glyph-name="zeroinferior" unicode="&#x2080;" horiz-adv-x="399" 
d="M-13 2q0 33 10 67t31 64.5t55 56t82 40.5l49 15q63 0 99 -43.5t36 -118.5q0 -32 -10 -66t-31 -65t-55 -56.5t-82 -40.5l-48 -15q-64 0 -100 43.5t-36 118.5zM148 -117q21 10 38.5 29t30 44t19 55.5t6.5 64.5q0 64 -16.5 92t-37.5 34q-44 -20 -68.5 -72t-24.5 -120
q0 -32 4.5 -54.5t11.5 -37.5t16.5 -23.5t20.5 -11.5z" />
    <glyph glyph-name="oneinferior" unicode="&#x2081;" horiz-adv-x="311" 
d="M156 -105l79 -10l-8 -36l-126 2l-132 -2l4 36l82 10l52 259l11 18l-35 -22l-51 -9l-8 39l146 58h54z" />
    <glyph glyph-name="twoinferior" unicode="&#x2082;" horiz-adv-x="353" 
d="M303 159q0 -30 -16 -56.5t-40 -49.5t-52 -42t-52 -34l-119 -73l109 25h141v-28l-30 -51h-279l-9 27l128 117q21 18 41.5 37t36.5 38.5t26 40t10 42.5q0 24 -11 39t-31 15l-34 -10l-29 -67h-64l9 71l150 46q58 0 86.5 -22.5t28.5 -64.5z" />
    <glyph glyph-name="threeinferior" unicode="&#x2083;" horiz-adv-x="317" 
d="M-49 -153l13 81h140q33 22 33 57q0 17 -16 29t-53 12l-8 22l27 12q34 15 55 41.5t21 58.5q0 20 -9 30.5t-22 10.5l-35 -8l-28 -61h-74l9 67l157 45q58 0 81 -20.5t23 -49.5q0 -22 -11 -39t-28.5 -29t-38.5 -20.5t-42 -13.5q55 -4 78.5 -26t23.5 -48q0 -31 -16.5 -51.5
t-41.5 -34.5t-54 -23.5t-54 -18.5l-64 -23h-66z" />
    <glyph glyph-name="fourinferior" unicode="&#x2084;" horiz-adv-x="342" 
d="M227 37h72l-13 -66h-71l-23 -121h-87l24 121h-145l-18 43l221 234h94l-7 -36l-255 -196l55 21h66l7 33l78 54h19z" />
    <glyph glyph-name="fiveinferior" unicode="&#x2085;" horiz-adv-x="335" 
d="M-34 -154l14 81h138q16 13 24 31t8 35q0 24 -11 38t-40 14q-17 0 -31.5 -3.5t-31.5 -10.5l-20 -8l-14 10l63 203h233l-8 -32l-30 -50h-183l-32 -95l95 44q25 0 46.5 -4.5t38 -14t26 -25t9.5 -36.5q0 -33 -14 -57t-36 -41.5t-49 -29.5t-52 -22l-69 -27h-74z" />
    <glyph glyph-name="sixinferior" unicode="&#x2086;" horiz-adv-x="350" 
d="M295 228q-50 -14 -84.5 -35t-57 -45t-34 -49.5t-14.5 -48.5l93 63q45 0 70 -29t25 -69q0 -34 -11.5 -61t-31 -47t-45 -33.5t-54.5 -20.5l-37 -10q-57 0 -91.5 37t-34.5 103q0 48 23 92.5t63.5 80.5t94.5 61t117 34zM101 24q-3 -17 -4 -30.5t-1 -29.5q1 -38 10.5 -59
t26.5 -29q16 8 26.5 22t16.5 29t8.5 29.5t2.5 24.5q0 31 -7.5 50.5t-20.5 19.5q-9 0 -18 -4t-23 -12z" />
    <glyph glyph-name="seveninferior" unicode="&#x2087;" horiz-adv-x="301" 
d="M190 155l-31 -13h-180l14 90h265l20 -22l-239 -363h-61l1 45z" />
    <glyph glyph-name="eightinferior" unicode="&#x2088;" horiz-adv-x="359" 
d="M172 100q17 12 27 28.5t10 35.5q0 23 -11 39t-34 21q-17 -6 -24 -22.5t-7 -33.5q0 -40 39 -68zM101 -157q-56 0 -90.5 25.5t-34.5 62.5q0 22 9 39t24.5 30t35.5 22.5t42 17.5q-61 42 -61 92q1 41 32.5 67t76.5 39l56 16q56 0 88.5 -21t32.5 -52q0 -22 -9.5 -38t-25.5 -28
t-36 -21t-41 -16q37 -25 58.5 -48t21.5 -55q0 -26 -11.5 -45.5t-30 -33.5t-43 -24t-51.5 -17zM80 -53q0 -31 15.5 -48.5t29.5 -24.5q25 7 36 24t11 37q0 30 -15.5 48t-38.5 38q-17 -14 -27.5 -33t-10.5 -41z" />
    <glyph glyph-name="nineinferior" unicode="&#x2089;" horiz-adv-x="341" 
d="M169 60q3 17 3.5 30.5t0.5 28.5q0 38 -9.5 59t-26.5 29q-17 -8 -27.5 -22t-16.5 -29t-8 -30t-2 -25q0 -29 7.5 -48.5t20.5 -19.5q10 0 18.5 4t22.5 12zM-25 -145q50 14 84.5 35.5t57 45.5t34 49.5t14.5 48.5l-92 -63q-46 0 -71.5 28.5t-25.5 69.5q0 34 11.5 60.5t31 46.5
t45.5 33t55 21l37 10q57 0 91.5 -37t34.5 -103q0 -48 -23 -92.5t-63.5 -80.5t-94.5 -61t-117 -34z" />
    <glyph glyph-name="parenleftinferior" unicode="&#x208d;" horiz-adv-x="221" 
d="M213 316q-64 -69 -98 -151t-34 -176q0 -48 6 -89.5t23 -79.5l-24 -15q-18 31 -30.5 55.5t-21 47.5t-12.5 46.5t-4 50.5q0 48 8.5 87.5t29 77t53.5 76.5t82 86z" />
    <glyph glyph-name="parenrightinferior" unicode="&#x208e;" horiz-adv-x="223" 
d="M-52 -179q64 69 98 151t34 176q0 48 -6 89.5t-24 79.5l25 15q18 -31 30.5 -55.5t21 -47.5t12.5 -46.5t4 -50.5q0 -48 -9 -87t-29 -76.5t-53 -76.5t-82 -87z" />
    <glyph glyph-name="Euro" unicode="&#x20ac;" horiz-adv-x="667" 
d="M438 653q-60 -20 -105 -74t-69 -128h288l-49 -67h-253l-4 -34t-2 -34h216l-47 -67h-166q5 -45 20.5 -78.5t37.5 -55.5t49.5 -33t57.5 -11q23 0 46.5 5.5t45 13.5t40.5 17t34 17l26 -41q-14 -9 -39.5 -22.5t-57.5 -27t-68 -27t-70 -22.5q-61 0 -110.5 18.5t-85.5 53
t-57.5 83.5t-26.5 110h-75l11 67h64q2 35 9 68h-60l11 67h71q35 81 105.5 143.5t184.5 98.5l76 25q24 -2 51 -11t52 -20t46.5 -23.5t34.5 -21.5l-59 -80q-12 11 -32.5 25.5t-44.5 28t-49.5 24t-46.5 13.5z" />
    <glyph glyph-name="afii61289" unicode="&#x2113;" horiz-adv-x="492" 
d="M51 264q5 2 16 6t23 9t23 9.5t16 7.5l54 308l191 116q36 0 60 -13.5t39 -34.5t21 -46.5t6 -49.5q0 -57 -19.5 -102t-53 -81t-78 -65.5t-94.5 -55.5l-33 -188l154 44l20 -35l-225 -109l-93 22l38 214q-5 -2 -16 -6t-23 -8.5t-23 -9t-16 -6.5zM270 357q47 33 74.5 86
t27.5 122q0 23 -6 43t-22 20l-28 -10z" />
    <glyph glyph-name="afii61352" unicode="&#x2116;" horiz-adv-x="984" 
d="M568 75h356l-13 -75h-356zM495 0h-80l-177 474l-11 94l-100 -568h-137l2 42l84 34l98 557l-77 20l13 47l85 -3l101 3l158 -402l11 -92l88 494h139l-2 -42l-86 -36zM822 488q33 0 60.5 -8t48 -24.5t32 -41.5t11.5 -59q0 -76 -40.5 -130t-115.5 -79l-64 -21q-33 0 -60.5 8
t-48 24.5t-32 41.5t-11.5 59q0 76 41 130t116 79zM787 184q18 10 30 27t19.5 37t11 42.5t3.5 44.5q0 51 -17.5 72t-44.5 22q-18 -11 -30.5 -27.5t-20 -36.5t-10.5 -42.5t-3 -44.5q0 -51 17.5 -72t44.5 -22z" />
    <glyph glyph-name="trademark" unicode="&#x2122;" horiz-adv-x="1058" 
d="M912 702l89 -2l74 2l3 -36l-42 -7v-302l42 -7l-3 -37l-93 2l-90 -2l-3 37l41 7v237l9 68l-129 -348h-69l-112 273l-15 73v-303l41 -7l-2 -37l-66 2l-63 -2l-3 37l42 7v302l-42 7l3 36l53 -2l120 2l102 -250l-2 -61zM428 313l-116 2l-118 -2l-3 37l63 7v303l-66 -2
l-32 -89h-36v133l197 -2l185 2v-133h-36l-32 89l-65 2v-303l62 -7z" />
    <glyph glyph-name="uni2126" unicode="&#x2126;" horiz-adv-x="720" 
d="M255 130q-41 9 -79.5 29.5t-68.5 54t-48.5 81t-18.5 110.5q0 59 18.5 107t58.5 86t102.5 67t150.5 50q69 0 126 -22t98 -60t63.5 -89t22.5 -109q0 -69 -15.5 -114t-44 -76.5t-70 -56.5t-92.5 -54v-50l162 28l24 60h46v-172h-302v172q19 0 42.5 12.5t43.5 40t34 71.5
t14 108q0 56 -14.5 102t-39 79t-58 51t-71.5 18q-28 0 -53.5 -17t-45 -46.5t-31 -69t-11.5 -85.5q0 -58 12.5 -106.5t32 -83.5t43 -54.5t46.5 -19.5v-172h-302v172h46l24 -60l155 -28v46z" />
    <glyph glyph-name="estimated" unicode="&#x212e;" horiz-adv-x="846" 
d="M740 220q-26 -55 -60 -92.5t-79 -63.5t-101.5 -44t-126.5 -35q-77 0 -137 21.5t-101 60t-63 91.5t-22 116q0 99 28.5 170.5t84 123t137 86.5t188.5 61q79 0 139.5 -25.5t100.5 -70.5t56.5 -106t7.5 -133l-9 -48h-573l-15 -87q5 -94 57 -143.5t138 -49.5q36 0 69.5 13.5
t61.5 36.5t49.5 53.5t33.5 64.5h136zM221 392h413l14 83q-8 82 -59.5 127.5t-135.5 45.5q-36 0 -69 -11t-60.5 -30.5t-49 -47t-34.5 -59.5z" />
    <glyph glyph-name="arrowleft" unicode="&#x2190;" horiz-adv-x="610" 
d="M560 337v-84h-382l45 -19l97 -94v-115l-270 270l270 270v-115l-97 -93l-45 -20h382z" />
    <glyph glyph-name="arrowup" unicode="&#x2191;" horiz-adv-x="640" 
d="M278 422l-20 -45l-93 -97h-115l270 270l270 -270h-115l-94 97l-19 45v-382h-84v382z" />
    <glyph glyph-name="arrowright" unicode="&#x2192;" horiz-adv-x="610" 
d="M432 337l-45 20l-97 93v115l270 -270l-270 -270v115l97 94l45 19h-382v84h382z" />
    <glyph glyph-name="arrowdown" unicode="&#x2193;" horiz-adv-x="640" 
d="M278 550h84v-382l19 45l94 97h115l-270 -270l-270 270h115l93 -97l20 -45v382z" />
    <glyph glyph-name="uni2196" unicode="&#x2196;" horiz-adv-x="490" 
d="M110 356l18 -46l3 -135l-81 -82v382h382l-82 -81l-135 3l-46 18l271 -271l-59 -59z" />
    <glyph glyph-name="uni2197" unicode="&#x2197;" horiz-adv-x="490" 
d="M110 85l-60 59l271 271l-46 -18l-135 -3l-82 81h382v-382l-80 82l2 135l18 46z" />
    <glyph glyph-name="uni2198" unicode="&#x2198;" horiz-adv-x="490" 
d="M380 204l-18 46l-2 135l80 82v-382h-382l82 80l135 -2l46 -18l-271 270l60 60z" />
    <glyph glyph-name="uni2199" unicode="&#x2199;" horiz-adv-x="490" 
d="M381 475l59 -60l-271 -270l46 18l135 2l82 -80h-382v382l81 -82l-3 -135l-18 -46z" />
    <glyph glyph-name="partialdiff" unicode="&#x2202;" 
d="M544 315q0 -63 -14.5 -111t-41.5 -84.5t-66.5 -63.5t-90.5 -48l-56 -23q-41 0 -77 12.5t-63 37t-43 61.5t-16 85q0 95 54 172.5t153 117.5l56 23q4 -1 14 -4t21 -6t20.5 -6t12.5 -5q-4 27 -21 57.5t-42 57.5t-56.5 47.5t-63.5 27.5l18 53q103 -30 163.5 -78.5t91 -104
t39 -113t8.5 -105.5zM406 386q-6 3 -21 9.5t-33 12.5t-35 10.5t-25 5.5q-20 -12 -34.5 -36.5t-23.5 -55.5t-13.5 -65.5t-4.5 -66.5q0 -43 8.5 -70.5t22.5 -44.5t31.5 -24.5t34.5 -9.5q22 12 39.5 37.5t29.5 57.5t18 68t6 68v104z" />
    <glyph glyph-name="uni2206" unicode="&#x2206;" horiz-adv-x="676" 
d="M20 0v62l303 633l45 20l288 -652v-63h-636zM100 62h381l-168 389l-7 55z" />
    <glyph glyph-name="product" unicode="&#x220f;" horiz-adv-x="800" 
d="M50 654l5 47l126 -3h420l144 3l5 -47l-73 -13v-741l73 -13l-5 -47l-144 3l-138 -3l-5 47l66 13v736h-243v-736l61 -13l-5 -47l-132 3l-150 -3l-5 47l78 13v741z" />
    <glyph glyph-name="summation" unicode="&#x2211;" 
d="M62 -160l-22 40l281 355l-271 425l22 40h481v-180h-46l-46 118l-220 5l209 -322v-30l-276 -340l306 15l49 77h50l-35 -203h-482z" />
    <glyph glyph-name="minus" unicode="&#x2212;" 
d="M47 318h525v-77h-525v77z" />
    <glyph glyph-name="radical" unicode="&#x221a;" 
d="M140 -18l-172 436l-66 10l7 42h193l108 -304l9 -74l258 794h241l-20 -68h-161l-282 -804z" />
    <glyph glyph-name="infinity" unicode="&#x221e;" horiz-adv-x="825" 
d="M360 200q-14 -15 -32 -28t-37.5 -22.5t-39 -15t-37.5 -5.5q-36 0 -64.5 12.5t-48.5 34t-30.5 51t-10.5 63.5q0 26 8.5 52t27.5 49.5t50 43.5t76 35q33 0 63 -11t57 -27.5t50 -36.5t43 -38l31 36q28 32 67.5 54.5t75.5 22.5q37 0 66.5 -13t49 -35t30 -52t10.5 -64
q0 -62 -36 -104.5t-126 -72.5q-32 0 -61.5 10t-56 25.5t-50 34.5t-41.5 37zM217 220q27 0 54 8t51 25l31 24q-13 12 -29.5 24t-35 22t-39 16.5t-40.5 6.5q-35 0 -62 -14t-27 -46q0 -28 24.5 -47t72.5 -19zM478 315q13 -10 29.5 -21t35.5 -20.5t38 -15.5t36 -6q15 0 30.5 3.5
t28 11t21 18.5t8.5 26q0 29 -23.5 45t-73.5 16q-25 0 -50 -6.5t-45 -23.5z" />
    <glyph glyph-name="integral" unicode="&#x222b;" 
d="M283 499q3 20 10 41t17.5 40.5t24.5 35.5t33 27l121 70h110l-17 -92h-126q-17 -12 -25.5 -32.5t-10.5 -37.5l-97 -556q-8 -46 -40.5 -83.5t-80.5 -69.5l-109 -73h-73l19 107h109q18 19 28.5 44.5t14.5 48.5z" />
    <glyph glyph-name="approxequal" unicode="&#x2248;" 
d="M553 393h47l-48 -91l-97 -34l-341 56l-47 -47h-47l45 86l103 39l338 -56zM552 211h47l-48 -91l-97 -34l-341 56l-47 -47h-47l45 86l103 39l338 -56z" />
    <glyph glyph-name="notequal" unicode="&#x2260;" 
d="M249 109l-91 -109h-85l92 109h-113v77h178l99 118h-277v77h342l83 99h83l-83 -99h90v-77h-155l-98 -118h253v-77h-318z" />
    <glyph glyph-name="lessequal" unicode="&#x2264;" 
d="M565 0h-511v77h511v-77zM570 389v-60l-520 -231v89l418 173l-418 173v88z" />
    <glyph glyph-name="greaterequal" unicode="&#x2265;" 
d="M261 51h95v-25h-95v25zM570 389v-60l-520 -231v89l418 173l-418 173v88z" />
    <glyph glyph-name="lozenge" unicode="&#x25ca;" 
d="M289 695l45 20l239 -346l-242 -365l-45 -20l-239 346zM287 551l-7 35l-117 -180l171 -245l7 -35l115 180z" />
    <glyph glyph-name="commaaccent" unicode="&#xf6c3;" horiz-adv-x="500" 
d="M214 -125l-17 35l7 40h124l-14 -80l-96 -122l-47 10z" />
    <glyph glyph-name="asuperior" unicode="&#xf6e9;" horiz-adv-x="351" 
d="M339 437l49 29l14 -16l-95 -58l-72 21l6 28l15 31l-109 -80q-37 11 -55.5 38.5t-18.5 66.5q0 46 28.5 84t83.5 61l78 35q31 0 60 -6t58 -17zM178 540q0 -19 5 -37.5t19 -37.5l50 30l22 118q-14 6 -30 9t-32 3q-17 -20 -25.5 -42.5t-8.5 -42.5z" />
    <glyph glyph-name="bsuperior" unicode="&#xf6ea;" horiz-adv-x="348" 
d="M309 677q39 -10 58.5 -38t19.5 -67q0 -50 -27 -86.5t-78 -59.5l-74 -34q-36 -1 -72.5 5.5t-59.5 22.5l63 326l-50 -11l-8 22l126 36l37 -24l-25 -132l-18 -30zM208 589l-23 -126q10 -5 30 -10.5t42 -5.5q14 20 18.5 43t4.5 41q0 21 -5 41t-19 31z" />
    <glyph glyph-name="dsuperior" unicode="&#xf6eb;" horiz-adv-x="361" 
d="M240 417l5 28l15 30l-108 -83q-79 27 -79 109q0 47 26.5 79.5t76.5 56.5l81 40q4 0 15 -0.5t16 -1.5l14 73l-49 -12l-9 21l127 36l35 -24l-64 -331l49 30l15 -16l-95 -60zM180 539q0 -21 5 -37.5t18 -31.5l50 25l25 126q-19 4 -33.5 5.5t-35.5 1.5q-16 -20 -22.5 -45
t-6.5 -44z" />
    <glyph glyph-name="esuperior" unicode="&#xf6ec;" horiz-adv-x="304" 
d="M234 454q8 2 20 6.5t24.5 9.5t24.5 10t20 8l12 -19q-25 -13 -57.5 -28t-62.5 -27l-52 -22q-15 6 -31 15t-29 22t-21.5 30t-8.5 40q0 50 29 89.5t88 57.5l95 31q25 -7 41.5 -26t16.5 -45q0 -16 -1 -25.5t-5 -23.5l-153 -38v-1q5 -15 16 -33t34 -31zM215 636
q-20 -17 -28.5 -41.5t-7.5 -55.5l54 15q3 12 4 19t1 17q0 16 -7.5 29.5t-15.5 16.5z" />
    <glyph glyph-name="isuperior" unicode="&#xf6ed;" horiz-adv-x="206" 
d="M162 783l30 5l53 -5v-46l-16 -34l-29 -7l-56 7l1 39zM77 615l-9 20l112 42l46 -38l-39 -197l47 26l13 -16l-94 -60l-71 24l40 212z" />
    <glyph glyph-name="lsuperior" unicode="&#xf6ee;" horiz-adv-x="202" 
d="M93 735l-8 22l127 36l35 -24l-63 -329l49 28l14 -16l-95 -60l-73 24l63 329z" />
    <glyph glyph-name="msuperior" unicode="&#xf6ef;" horiz-adv-x="540" 
d="M326 677q36 0 53 -15t12 -55l99 70q39 0 55.5 -17t7.5 -63l-30 -161l50 31l13 -16l-95 -59l-73 23l30 160q2 7 -0.5 13.5t-13.5 6.5q-5 0 -12 -3t-12 -5l-25 -12l-34 -175h-101l34 178q2 7 -0.5 13.5t-13.5 6.5q-5 0 -12 -2.5t-12 -5.5l-26 -13l-33 -177h-102l43 226
l-42 -11l-9 20l112 42l44 -36l-3 -16l-12 -22z" />
    <glyph glyph-name="osuperior" unicode="&#xf6f0;" horiz-adv-x="342" 
d="M245 677q28 0 53.5 -7.5t44.5 -22t30 -35.5t11 -48q0 -54 -32.5 -89.5t-96.5 -64.5l-43 -18q-28 0 -53.5 6.5t-44.5 20t-30 33.5t-11 47q0 54 33.5 89.5t96.5 67.5zM221 628q-19 -14 -30.5 -41t-11.5 -59q0 -76 57 -91q19 14 30.5 40.5t11.5 60.5q0 76 -57 90z" />
    <glyph glyph-name="rsuperior" unicode="&#xf6f1;" horiz-adv-x="275" 
d="M212 603l-22 -72l92 140h65l-23 -95h-42q-15 -8 -28 -16t-29 -23l-24 -21l-21 -116h-101l43 226l-42 -11l-9 20l112 42l36 -31z" />
    <glyph glyph-name="ssuperior" unicode="&#xf6f2;" horiz-adv-x="259" 
d="M140 392q-10 1 -22 3.5t-24 5.5t-21.5 5.5t-15.5 4.5l33 72q26 -11 53 -21.5t62 -24.5q6 1 6 6t-4 11t-16 14l-73 45q-15 10 -23.5 27t-8.5 34q0 19 13 36t49 34l68 33q19 -2 39 -6t52 -16l-35 -68q-27 14 -54 26t-49 20q-6 -2 -6 -5q0 -8 5 -13t22 -16l62 -38
q22 -14 28.5 -31t6.5 -28q0 -29 -18 -47t-44 -29l-85 -34v0z" />
    <glyph glyph-name="tsuperior" unicode="&#xf6f3;" horiz-adv-x="239" 
d="M190 442l78 24l9 -15l-119 -59l-74 24l40 200h-57l2 15l34 26h28l6 23l84 64h28l-17 -89h63l-7 -39h-64z" />
    <glyph glyph-name="apple" unicode="&#xf8ff;" horiz-adv-x="685" 
d="M635 460l-3 -41l-8 -35l-12 -31l-3 -156l-21 -7l-50 70l-27 -7l-19 -140l-32 4l-7 -4l-4 -94l30 -19l16 -14l-3 -15l-30 1l-24 18h-14l-8 8l7 76l-4 47l-61 1l-3 -52l-2 -56v-20l-15 -6l-8 6l-30 -10h-32l-1 11l11 11l50 21l-6 96l-98 -6l-147 140l-4 115l-13 10l-10 36
v26l15 8l-3 78l92 -62l9 47l10 36l22 35l28 35l39 29l40 15l38 14h22l-68 22l4 17h7l79 -20l-4 51l16 12h32l19 -5l29 -25l32 -8l32 -10l15 -13v-20l-20 -31l30 -28l28 -32l18 -34l15 -41zM525 399l-4 7h-205l-66 -3l-7 -9l-6 -44l-48 20l-11 -4l57 -27l1 -45l-5 -73v-91
l18 4l2 40l41 -3l3 9l-44 6v16l48 -6l1 9l-47 7l1 22l43 -3l3 6l-45 9l3 94h74l11 10h-79l2 9h74l8 7h-82l2 22l117 4l140 -4v11zM206 569l29 12l13 -15l-17 -20l-10 -3l17 -3h5l36 24h32l18 -12l8 3l4 14l7 5l10 -4v-18h8l10 22l11 8l-5 6l-3 8l1 21l-30 -10l-10 -8l-8 5
l4 21l14 10l11 11l38 -2l12 13l-4 8h-49l-45 -13l-53 -26l-29 -23zM616 465l-8 37l-19 50l-20 36l-23 28l-34 21h-11l17 -19l25 -10l11 -11l3 -33l-25 13l-15 -29l12 -8v-19l15 3l-12 26l15 -5l10 -20l-5 -12l-8 -7h-23l-3 11l-12 2l1 -22h-14l14 -18l-7 -10l-21 5l-3 -27
l41 6l8 17l22 -2l6 -28l-16 -13v-15l8 -6l18 12h23l6 11l-18 6l-5 9l9 42h7l14 -20zM102 434l57 -32l7 10l-68 38v18l59 -34l43 -28l28 -14l3 10l-103 64l-13 7l-41 33l2 -78l19 -17v-5h-21l19 -14l1 -11l-20 7l18 -18l-4 -7l3 -97l11 -12v180zM511 331l-54 1l-1 -24v-6
l-2 -31l19 -3l-8 -61l-48 3l-8 -6l51 -5l-2 -9h-49l-4 -5l53 -7l-6 -35l27 -1l12 79l4 36l-15 3l-1 8l20 1l5 3l-28 16l2 5l30 -6l-30 15l5 5l21 -5l4 10zM206 331l-66 39v-7l-2 -13l1 -27v-48l64 -44l-1 60zM380 214l-64 4v-51l64 -6v53zM532 306l8 -6l8 2l20 15l13 13
l11 18l-7 5h-14l-10 3l-14 7l-17 -3q-2 -13 -3 -24q-2 -9 -2.5 -17t-0.5 -7zM428 585l5 -6l19 11l8 -2l6 -24h13l6 6l-9 18l17 28l-15 9v5l-25 7v-20l-13 -5v-9l-9 -6zM433 336l4 30l-54 5l-3 -35h53zM366 455l-7 -11h-12l-5 7l11 8l-15 2v6l-23 4l3 -17l8 -14l20 -9l13 -1
l18 10l6 9l5 20l-30 2l7 -5zM589 312l-6 -3l-33 -27l39 -48v78zM244 454l1 4l14 2l-13 6l2 7l-20 -1l3 -19l14 -15l12 -6l11 5l16 12l6 12l2 13l-22 -4l6 -10l-12 -13l-14 -1zM394 281l-72 7l-6 -13l78 -4v10zM206 203l-74 50l20 -23l50 -41zM394 312h-73v-10h73v10z
M384 256l-68 4v-10h68v6zM515 359h-48v-13l44 4zM351 520l-4 -12l49 -17l3 4zM214 498l59 12l-4 12zM414 642l-8 -9v-19l12 -6l3 17zM491 530l-8 -4v-9l8 -3l2 7zM564 386l5 7v7l-10 -4v-10h5z" />
    <glyph glyph-name="AE.sc" horiz-adv-x="778" 
d="M262 271h116l39 208zM711 -1l-329 3l-105 -3l2 48l60 9l31 171h-138l-128 -171l61 -9l-12 -48l-90 2l-80 -2l3 48l44 8l348 460l92 -2l311 2v-139h-43l-41 82l-151 2l-34 -184l77 3l50 75h35l-31 -105l-6 -106h-33l-23 75l-78 3l-31 -165l173 2l62 79h42z" />
    <glyph glyph-name="AEacute.002" horiz-adv-x="906" 
d="M539 750l84 100h128l-136 -100h-76zM191 46l-12 -47l-103 3l-101 -3l3 47l61 11l422 644l100 -3l360 3v-179h-46l-48 117l-195 3l-44 -275l99 4l63 113h37l-38 -145l-8 -147h-37l-27 113l-98 4l-34 -251l214 3l75 130h47l-46 -192l-385 3l-133 -3l3 47l79 13l40 252h-164
l-160 -252zM307 363h140l48 292z" />
    <glyph glyph-name="AEacute.sc" horiz-adv-x="778" 
d="M473 567l54 101h128l-114 -101h-68zM262 271h116l39 208zM711 -1l-329 3l-105 -3l2 48l60 9l31 171h-138l-128 -171l61 -9l-12 -48l-90 2l-80 -2l3 48l44 8l348 460l92 -2l311 2v-139h-43l-41 82l-151 2l-34 -184l77 3l50 75h35l-31 -105l-6 -106h-33l-23 75l-78 3
l-31 -165l173 2l62 79h42z" />
    <glyph glyph-name="Aacute.002" horiz-adv-x="695" 
d="M436 750l84 100h128l-136 -100h-76zM487 2l-119 -3l2 47l75 13l-13 168h-221l-99 -168l76 -13l-12 -47l-101 3l-98 -3l2 47l62 11l370 632l130 29l62 -661l64 -11l-11 -47zM239 282h189l-20 249l6 68z" />
    <glyph glyph-name="Aacute.sc" horiz-adv-x="600" 
d="M367 567l54 101h128l-114 -101h-68zM403 1l-95 -2l2 48l58 9l-8 104h-188l-71 -104l60 -9l-11 -48l-88 2l-79 -2l2 48l45 8l300 444l139 29l49 -473l50 -8l-11 -48zM199 209h157l-11 186l6 51z" />
    <glyph glyph-name="Abreve.002" horiz-adv-x="695" 
d="M487 813q45 0 76.5 15t48.5 27l29 -16q-12 -14 -25 -26.5t-30.5 -25t-41.5 -24t-57 -21.5q-63 0 -96.5 29t-46.5 68l36 16q12 -12 37 -27t70 -15zM487 2l-119 -3l2 47l75 13l-13 168h-221l-99 -168l76 -13l-12 -47l-101 3l-98 -3l2 47l62 11l370 632l130 29l62 -661
l64 -11l-11 -47zM239 282h189l-20 249l6 68z" />
    <glyph glyph-name="Abreve.sc" horiz-adv-x="600" 
d="M414 642q38 0 64.5 13.5t40.5 23.5l27 -26q-19 -29 -52 -51.5t-84 -39.5q-51 0 -80.5 24t-40.5 64l35 26q10 -9 31 -21.5t59 -12.5zM403 1l-95 -2l2 48l58 9l-8 104h-188l-71 -104l60 -9l-11 -48l-88 2l-79 -2l2 48l45 8l300 444l139 29l49 -473l50 -8l-11 -48zM199 209
h157l-11 186l6 51z" />
    <glyph glyph-name="Acircumflex.002" horiz-adv-x="695" 
d="M332 750l125 100h107l93 -100h-82l-69 51l-92 -51h-82zM487 2l-119 -3l2 47l75 13l-13 168h-221l-99 -168l76 -13l-12 -47l-101 3l-98 -3l2 47l62 11l370 632l130 29l62 -661l64 -11l-11 -47zM239 282h189l-20 249l6 68z" />
    <glyph glyph-name="Acircumflex.sc" horiz-adv-x="600" 
d="M276 568l109 103h98l68 -103h-75l-54 44l-71 -44h-75zM403 1l-95 -2l2 48l58 9l-8 104h-188l-71 -104l60 -9l-11 -48l-88 2l-79 -2l2 48l45 8l300 444l139 29l49 -473l50 -8l-11 -48zM199 209h157l-11 186l6 51z" />
    <glyph glyph-name="Adieresis.002" horiz-adv-x="695" 
d="M408 854l42 -6l-2 -50l-21 -45l-59 -6l-43 6l4 54l20 41zM634 854l42 -6l-3 -50l-20 -45l-60 -6l-42 6l3 54l21 41zM487 2l-119 -3l2 47l75 13l-13 168h-221l-99 -168l76 -13l-12 -47l-101 3l-98 -3l2 47l62 11l370 632l130 29l62 -661l64 -11l-11 -47zM239 282h189
l-20 249l6 68z" />
    <glyph glyph-name="Adieresis.sc" horiz-adv-x="609" 
d="M352 667l30 -6l-3 -54l-19 -43l-59 -7l-31 7l3 52l18 45zM547 667l30 -6l-2 -54l-19 -43l-60 -7l-30 7l2 52l19 45zM403 1l-95 -2l2 48l58 9l-8 104h-188l-71 -104l60 -9l-11 -48l-88 2l-79 -2l2 48l45 8l300 444l139 29l49 -473l50 -8l-11 -48zM199 209h157l-11 186
l6 51z" />
    <glyph glyph-name="Agrave.002" horiz-adv-x="695" 
d="M442 750l-66 100h114l19 -100h-67zM487 2l-119 -3l2 47l75 13l-13 168h-221l-99 -168l76 -13l-12 -47l-101 3l-98 -3l2 47l62 11l370 632l130 29l62 -661l64 -11l-11 -47zM239 282h189l-20 249l6 68z" />
    <glyph glyph-name="Agrave.sc" horiz-adv-x="600" 
d="M373 567l-72 101h119l14 -101h-61zM403 1l-95 -2l2 48l58 9l-8 104h-188l-71 -104l60 -9l-11 -48l-88 2l-79 -2l2 48l45 8l300 444l139 29l49 -473l50 -8l-11 -48zM199 209h157l-11 186l6 51z" />
    <glyph glyph-name="Amacron.002" horiz-adv-x="695" 
d="M357 828h292l-12 -64h-292zM487 2l-119 -3l2 47l75 13l-13 168h-221l-99 -168l76 -13l-12 -47l-101 3l-98 -3l2 47l62 11l370 632l130 29l62 -661l64 -11l-11 -47zM239 282h189l-20 249l6 68z" />
    <glyph glyph-name="Amacron.sc" horiz-adv-x="600" 
d="M305 643h247l-11 -68h-248zM403 1l-95 -2l2 48l58 9l-8 104h-188l-71 -104l60 -9l-11 -48l-88 2l-79 -2l2 48l45 8l300 444l139 29l49 -473l50 -8l-11 -48zM199 209h157l-11 186l6 51z" />
    <glyph glyph-name="Aogonek.001" horiz-adv-x="693" 
d="M412 531l6 68l-177 -317h189zM434 227h-221l-101 -168l76 -13l-12 -47l-101 3l-98 -3l2 47l62 11l374 632l128 29l58 -661l64 -11l-11 -47l-182 3l-52 -61l-3 -14q-3 -13 -1 -25.5t11.5 -22t29 -15t52.5 -5.5l-8 -41q-110 0 -150.5 22t-29.5 72l2 12l124 102z" />
    <glyph glyph-name="Aogonek.sc" horiz-adv-x="598" 
d="M200 209h157l-10 186l6 51zM413 -187q-96 0 -131.5 18.5t-27.5 55.5l10 61l106 79l-10 133h-187l-72 -104l60 -9l-11 -48l-89 2l-78 -2l2 48l45 8l302 444l138 29l47 -473l49 -8l-10 -48l-155 2l-52 -71l-4 -21q-1 -7 0 -17t8 -19t22.5 -15t44.5 -6z" />
    <glyph glyph-name="Aring.002" horiz-adv-x="695" 
d="M438 792q0 -16 10.5 -25.5t26.5 -9.5q17 0 27 9.5t10 25.5q0 14 -10 24t-27 10q-16 0 -26.5 -10t-10.5 -24zM475 724q-14 0 -28 3.5t-25.5 11.5t-18.5 20.5t-7 30.5q0 16 7 27.5t18 19t25 12.5t29 9q14 0 28 -3.5t25.5 -11.5t18.5 -20.5t7 -30.5q0 -17 -6.5 -28
t-17.5 -18.5t-25.5 -12.5t-29.5 -9zM487 2l-119 -3l2 47l75 13l-13 168h-221l-99 -168l76 -13l-12 -47l-101 3l-98 -3l2 47l62 11l370 632l130 29l62 -661l64 -11l-11 -47zM239 282h189l-20 249l6 68z" />
    <glyph glyph-name="Aring.sc" horiz-adv-x="600" 
d="M512 630q0 -24 -7.5 -37.5t-21 -22t-31 -14t-37.5 -13.5q-19 0 -37 4.5t-32.5 14.5t-23.5 26.5t-9 41.5q0 22 8.5 37t22.5 25t31.5 16.5t36.5 12.5q42 0 71 -19.5t29 -71.5zM364 630q0 -20 14 -32t35 -12t35.5 12t14.5 32q0 19 -14.5 33t-35.5 14t-35 -14t-14 -33zM403 1
l-95 -2l2 48l58 9l-8 104h-188l-71 -104l60 -9l-11 -48l-88 2l-79 -2l2 48l45 8l300 444l139 29l49 -473l50 -8l-11 -48zM199 209h157l-11 186l6 51z" />
    <glyph glyph-name="Aringacute.002" horiz-adv-x="695" 
d="M469 724q-14 0 -28 3.5t-25.5 11.5t-18.5 20.5t-7 30.5q0 16 7 27.5t18 19t25 12.5t29 9q28 0 51 -14l11 9l77 3l-67 -34q7 -14 7 -30q0 -17 -6.5 -28t-17.5 -18.5t-25.5 -12.5t-29.5 -9zM432 792q0 -16 10.5 -25.5t26.5 -9.5q17 0 27 9.5t10 25.5q0 14 -10 24t-27 10
q-16 0 -26.5 -10t-10.5 -24zM487 2l-119 -3l2 47l75 13l-13 168h-221l-99 -168l76 -13l-12 -47l-101 3l-98 -3l2 47l62 11l370 632l130 29l62 -661l64 -11l-11 -47zM239 282h189l-20 249l6 68z" />
    <glyph glyph-name="Aringacute.sc" horiz-adv-x="600" 
d="M512 630q0 -24 -7.5 -37.5t-21 -22t-31 -14t-37.5 -13.5q-19 0 -37 4.5t-32.5 14.5t-23.5 26.5t-9 41.5q0 22 8.5 37t22.5 25t33 16.5t39 12.5l15 31l105 4l-62 -50q17 -11 27.5 -29t10.5 -47zM364 630q0 -20 14 -32t35 -12t35.5 12t14.5 32q0 19 -14.5 33t-35.5 14
t-35 -14t-14 -33zM403 1l-95 -2l2 48l58 9l-8 104h-188l-71 -104l60 -9l-11 -48l-88 2l-79 -2l2 48l45 8l300 444l139 29l49 -473l50 -8l-11 -48zM199 209h157l-11 186l6 51z" />
    <glyph glyph-name="Atilde.002" horiz-adv-x="695" 
d="M366 832l75 21l162 -53l42 52h32l-43 -92l-73 -16l-163 54l-41 -53h-32zM487 2l-119 -3l2 47l75 13l-13 168h-221l-99 -168l76 -13l-12 -47l-101 3l-98 -3l2 47l62 11l370 632l130 29l62 -661l64 -11l-11 -47zM239 282h189l-20 249l6 68z" />
    <glyph glyph-name="Atilde.sc" horiz-adv-x="615" 
d="M315 663l64 16l137 -37l36 36h31l-47 -103l-63 -12l-137 38l-36 -37h-30zM403 1l-95 -2l2 48l58 9l-8 104h-188l-71 -104l60 -9l-11 -48l-88 2l-79 -2l2 48l45 8l300 444l139 29l49 -473l50 -8l-11 -48zM199 209h157l-11 186l6 51z" />
    <glyph glyph-name="B.sc" horiz-adv-x="537" 
d="M311 57q33 20 48 46t15 57q0 39 -23 63.5t-68 24.5h-41l-34 -191h103zM349 278q85 -13 127 -42.5t42 -73.5q0 -26 -13.5 -47t-35.5 -37t-50 -28t-57 -21l-88 -30l-170 2l-101 -2l2 48l64 9l74 403l-57 11l11 45l97 -2l175 2q39 0 68.5 -8t50 -22.5t30.5 -33.5t10 -40
q0 -48 -33 -78.5t-90 -42.5zM281 292q26 0 46.5 8.5t34.5 23t21.5 32.5t7.5 37q0 34 -18 54.5t-55 20.5h-35l-33 -176h31z" />
    <glyph glyph-name="C.sc" horiz-adv-x="565" 
d="M295 -13q-115 0 -180.5 60.5t-65.5 166.5q0 91 57 161.5t181 114.5l96 39q63 0 106.5 -16t66.5 -31l1 -149h-59l-22 74q-20 17 -54.5 34.5t-82.5 22.5q-71 -31 -104.5 -92t-33.5 -139q0 -42 11.5 -74t30 -54.5t43 -35t51.5 -16.5q33 12 55 23.5t43 30.5l46 88h61
l-41 -158z" />
    <glyph glyph-name="Cacute.002" horiz-adv-x="648" 
d="M386 750l84 100h128l-136 -100h-76zM337 -18q-67 0 -121 21t-91.5 60t-57.5 95t-20 126q0 59 15.5 118t49.5 111.5t88 96t131 71.5l106 39q37 0 69 -7t58.5 -17.5t47 -23t34.5 -23.5l-2 -168h-64l-25 97q-23 23 -65 44t-105 30q-91 -45 -134 -133t-43 -205
q0 -63 14.5 -111t39.5 -80.5t57 -50.5t67 -22q19 8 34.5 15.5t28.5 15.5t25 18t25 23l60 114h67l-46 -186z" />
    <glyph glyph-name="Cacute.sc" horiz-adv-x="565" 
d="M341 567l54 101h126l-112 -101h-68zM295 -13q-115 0 -180.5 60.5t-65.5 166.5q0 91 57 161.5t181 114.5l96 39q63 0 106.5 -16t66.5 -31l1 -149h-59l-22 74q-20 17 -54.5 34.5t-82.5 22.5q-71 -31 -104.5 -92t-33.5 -139q0 -42 11.5 -74t30 -54.5t43 -35t51.5 -16.5
q33 12 55 23.5t43 30.5l46 88h61l-41 -158z" />
    <glyph glyph-name="Ccaron.002" horiz-adv-x="648" 
d="M631 850l-125 -100h-108l-87 100h82l64 -51l92 51h82zM337 -18q-67 0 -121 21t-91.5 60t-57.5 95t-20 126q0 59 15.5 118t49.5 111.5t88 96t131 71.5l106 39q37 0 69 -7t58.5 -17.5t47 -23t34.5 -23.5l-2 -168h-64l-25 97q-23 23 -65 44t-105 30q-91 -45 -134 -133
t-43 -205q0 -63 14.5 -111t39.5 -80.5t57 -50.5t67 -22q19 8 34.5 15.5t28.5 15.5t25 18t25 23l60 114h67l-46 -186z" />
    <glyph glyph-name="Ccaron.sc" horiz-adv-x="565" 
d="M536 668l-110 -101h-97l-69 101h76l52 -43l72 43h76zM295 -13q-115 0 -180.5 60.5t-65.5 166.5q0 91 57 161.5t181 114.5l96 39q63 0 106.5 -16t66.5 -31l1 -149h-59l-22 74q-20 17 -54.5 34.5t-82.5 22.5q-71 -31 -104.5 -92t-33.5 -139q0 -42 11.5 -74t30 -54.5t43 -35
t51.5 -16.5q33 12 55 23.5t43 30.5l46 88h61l-41 -158z" />
    <glyph glyph-name="Ccedilla.001" horiz-adv-x="648" 
d="M339 -17l-11 -16q35 -2 56 -12.5t21 -32.5q0 -17 -9.5 -29.5t-23.5 -21.5t-30 -15.5t-30 -11.5l-51 -19h-61l29 46h73q12 6 18.5 16t6.5 20q0 8 -6.5 14t-17 10t-22.5 6t-24 2l34 46q-57 7 -102.5 30.5t-77 62t-48 90.5t-16.5 116q0 59 15.5 118t49.5 111.5t88 96
t131 71.5l106 39q37 0 69 -7t58.5 -17.5t47 -23t34.5 -23.5l-2 -168h-64l-25 97q-23 23 -65 44t-105 30q-91 -45 -134 -133t-43 -205q0 -63 14.5 -111t39.5 -80.5t57 -50.5t67 -22q19 8 34.5 15.5t28.5 15.5t25 18t25 23l60 114h67l-46 -186z" />
    <glyph glyph-name="Ccedilla.sc" horiz-adv-x="565" 
d="M211 -187h-52l24 40h56q11 8 16.5 20t5.5 24q0 25 -17 34.5t-36 9.5l42 49q-94 12 -147 71t-53 153q0 91 56.5 161.5t180.5 114.5l97 39q63 0 106.5 -16t66.5 -31v-149h-58l-23 74q-19 17 -54 34.5t-82 22.5q-72 -31 -105.5 -92t-33.5 -139q0 -42 11.5 -74t30.5 -54.5
t43.5 -35t51.5 -16.5q32 12 54 23.5t44 30.5l46 88h60l-40 -158l-207 -50l-17 -22q31 0 49 -12.5t18 -36.5q0 -20 -9 -34t-23 -24t-30 -17t-30 -12z" />
    <glyph glyph-name="Ccircumflex.002" horiz-adv-x="648" 
d="M293 750l125 100h108l93 -100h-82l-70 51l-92 -51h-82zM337 -18q-67 0 -121 21t-91.5 60t-57.5 95t-20 126q0 59 15.5 118t49.5 111.5t88 96t131 71.5l106 39q37 0 69 -7t58.5 -17.5t47 -23t34.5 -23.5l-2 -168h-64l-25 97q-23 23 -65 44t-105 30q-91 -45 -134 -133
t-43 -205q0 -63 14.5 -111t39.5 -80.5t57 -50.5t67 -22q19 8 34.5 15.5t28.5 15.5t25 18t25 23l60 114h67l-46 -186z" />
    <glyph glyph-name="Ccircumflex.sc" horiz-adv-x="565" 
d="M260 568l109 103h98l69 -103h-76l-53 44l-71 -44h-76zM295 -13q-115 0 -180.5 60.5t-65.5 166.5q0 91 57 161.5t181 114.5l96 39q63 0 106.5 -16t66.5 -31l1 -149h-59l-22 74q-20 17 -54.5 34.5t-82.5 22.5q-71 -31 -104.5 -92t-33.5 -139q0 -42 11.5 -74t30 -54.5
t43 -35t51.5 -16.5q33 12 55 23.5t43 30.5l46 88h61l-41 -158z" />
    <glyph glyph-name="Cdotaccent.002" horiz-adv-x="648" 
d="M477 854l41 -6l-2 -51l-21 -45l-59 -6l-45 6l4 53l21 43zM337 -18q-67 0 -121 21t-91.5 60t-57.5 95t-20 126q0 59 15.5 118t49.5 111.5t88 96t131 71.5l106 39q37 0 69 -7t58.5 -17.5t47 -23t34.5 -23.5l-2 -168h-64l-25 97q-23 23 -65 44t-105 30q-91 -45 -134 -133
t-43 -205q0 -63 14.5 -111t39.5 -80.5t57 -50.5t67 -22q19 8 34.5 15.5t28.5 15.5t25 18t25 23l60 114h67l-46 -186z" />
    <glyph glyph-name="Cdotaccent.sc" horiz-adv-x="565" 
d="M365 675l56 4l46 -5l-4 -61l-19 -48l-54 -5l-49 5l5 62zM295 -13q-115 0 -180.5 60.5t-65.5 166.5q0 91 57 161.5t181 114.5l96 39q63 0 106.5 -16t66.5 -31l1 -149h-59l-22 74q-20 17 -54.5 34.5t-82.5 22.5q-71 -31 -104.5 -92t-33.5 -139q0 -42 11.5 -74t30 -54.5
t43 -35t51.5 -16.5q33 12 55 23.5t43 30.5l46 88h61l-41 -158z" />
    <glyph glyph-name="D.sc" horiz-adv-x="603" 
d="M283 464l-76 -408h109q26 15 49.5 37t41 51t28 65.5t10.5 81.5q0 38 -10 70t-27 55t-39 35.5t-46 12.5h-40zM130 1l-127 -2l4 48l61 9l74 403l-59 11l12 45l133 -2l132 2q55 0 98.5 -16t74 -44t47 -67t16.5 -84q0 -86 -59.5 -159.5t-193.5 -122.5l-67 -23z" />
    <glyph glyph-name="Dcaron.002" horiz-adv-x="696" 
d="M569 850l-125 -100h-107l-87 100h82l64 -51l91 51h82zM314 647l-93 -582h145q33 21 63.5 52t53.5 72t36.5 92.5t13.5 112.5q0 59 -13.5 105.5t-36 79t-51.5 50t-61 18.5h-57zM137 2l-147 -3l3 47l79 13l93 585l-76 12l13 45l151 -3l162 3q65 0 116.5 -21t87.5 -59.5
t55.5 -92.5t19.5 -118q0 -57 -16.5 -113t-52.5 -106t-93 -92.5t-137 -70.5l-80 -29z" />
    <glyph glyph-name="Dcaron.sc" horiz-adv-x="603" 
d="M488 668l-109 -101h-98l-68 101h75l53 -43l72 43h75zM274 464l-75 -408h109q26 15 49 37t40.5 51t28 65.5t10.5 81.5q0 38 -10 70t-27 55t-39 35.5t-46 12.5h-40zM121 1l-127 -2l4 48l61 9l74 403l-59 11l12 45l133 -2l133 2q55 0 98.5 -16t74 -44t46.5 -67t16 -84
q0 -86 -59.5 -159.5t-193.5 -122.5l-67 -23z" />
    <glyph glyph-name="Dcroat.sc" horiz-adv-x="603" 
d="M121 1l-127 -2l4 48l61 9l34 189h-60l8 44h60l32 170l-59 11l12 45l133 -2l133 2q55 0 98.5 -16t74 -44t46.5 -67t16 -84q0 -86 -59.5 -159.5t-193.5 -122.5l-67 -23zM274 464l-33 -175h87l-9 -44h-86l-34 -189h109q26 15 49 37t40.5 51t28 65.5t10.5 81.5q0 38 -10 70
t-27 55t-39 35.5t-46 12.5h-40z" />
    <glyph glyph-name="Delta" horiz-adv-x="676" 
d="M20 0v62l303 633l45 20l288 -652v-63h-636zM100 62h381l-168 389l-7 55z" />
    <glyph glyph-name="E.sc" horiz-adv-x="536" 
d="M539 515v-156h-48l-42 99l-168 2l-30 -161l85 3l52 80h42l-31 -111l-7 -112h-42l-23 81l-85 3l-35 -187l192 2l67 99h50l-45 -158l-357 2l-111 -2l3 48l62 9l74 403l-60 10l11 46l112 -2z" />
    <glyph glyph-name="Eacute.002" horiz-adv-x="613" 
d="M330 750l84 100h128l-136 -100h-76zM628 701v-188h-52l-48 127l-215 3l-40 -247l115 4l62 107h45l-37 -140l-9 -138h-45l-26 106l-114 4l-45 -281l244 3l80 135h53l-50 -197l-421 3l-135 -3l2 47l79 13l94 583l-77 13l13 46l135 -3z" />
    <glyph glyph-name="Eacute.sc" horiz-adv-x="536" 
d="M292 567l54 101h128l-114 -101h-68zM539 515v-156h-48l-42 99l-168 2l-30 -161l85 3l52 80h42l-31 -111l-7 -112h-42l-23 81l-85 3l-35 -187l192 2l67 99h50l-45 -158l-357 2l-111 -2l3 48l62 9l74 403l-60 10l11 46l112 -2z" />
    <glyph glyph-name="Ebreve.002" horiz-adv-x="613" 
d="M393 823q45 0 76.5 15.5t47.5 28.5l29 -20q-12 -14 -25 -27t-30.5 -25.5t-41.5 -24.5t-57 -22q-63 0 -97 29.5t-47 69.5l37 20q13 -13 38 -28.5t70 -15.5zM628 701v-188h-52l-48 127l-215 3l-40 -247l115 4l62 107h45l-37 -140l-9 -138h-45l-26 106l-114 4l-45 -281
l244 3l80 135h53l-50 -197l-421 3l-135 -3l2 47l79 13l94 583l-77 13l13 46l135 -3z" />
    <glyph glyph-name="Ebreve.sc" horiz-adv-x="536" 
d="M340 642q38 0 64.5 13.5t40.5 23.5l27 -26q-20 -29 -52.5 -51.5t-83.5 -39.5q-51 0 -81 24t-39 64l34 26q10 -9 31.5 -21.5t58.5 -12.5zM539 515v-156h-48l-42 99l-168 2l-30 -161l85 3l52 80h42l-31 -111l-7 -112h-42l-23 81l-85 3l-35 -187l192 2l67 99h50l-45 -158
l-357 2l-111 -2l3 48l62 9l74 403l-60 10l11 46l112 -2z" />
    <glyph glyph-name="Ecaron.002" horiz-adv-x="613" 
d="M565 850l-125 -100h-108l-87 100h82l64 -51l92 51h82zM628 701v-188h-52l-48 127l-215 3l-40 -247l115 4l62 107h45l-37 -140l-9 -138h-45l-26 106l-114 4l-45 -281l244 3l80 135h53l-50 -197l-421 3l-135 -3l2 47l79 13l94 583l-77 13l13 46l135 -3z" />
    <glyph glyph-name="Ecaron.sc" horiz-adv-x="536" 
d="M493 671l-109 -103h-98l-68 103h75l53 -43l72 43h75zM539 515v-156h-48l-42 99l-168 2l-30 -161l85 3l52 80h42l-31 -111l-7 -112h-42l-23 81l-85 3l-35 -187l192 2l67 99h50l-45 -158l-357 2l-111 -2l3 48l62 9l74 403l-60 10l11 46l112 -2z" />
    <glyph glyph-name="Ecircumflex.002" horiz-adv-x="613" 
d="M226 750l125 100h107l93 -100h-82l-69 51l-92 -51h-82zM628 701v-188h-52l-48 127l-215 3l-40 -247l115 4l62 107h45l-37 -140l-9 -138h-45l-26 106l-114 4l-45 -281l244 3l80 135h53l-50 -197l-421 3l-135 -3l2 47l79 13l94 583l-77 13l13 46l135 -3z" />
    <glyph glyph-name="Ecircumflex.sc" horiz-adv-x="536" 
d="M191 568l108 103h99l68 -103h-75l-54 44l-71 -44h-75zM539 515v-156h-48l-42 99l-168 2l-30 -161l85 3l52 80h42l-31 -111l-7 -112h-42l-23 81l-85 3l-35 -187l192 2l67 99h50l-45 -158l-357 2l-111 -2l3 48l62 9l74 403l-60 10l11 46l112 -2z" />
    <glyph glyph-name="Edieresis.002" horiz-adv-x="613" 
d="M309 854l41 -6l-1 -50l-22 -45l-58 -6l-43 6l4 54l20 41zM534 854l43 -6l-3 -50l-20 -45l-60 -6l-42 6l3 54l21 41zM628 701v-188h-52l-48 127l-215 3l-40 -247l115 4l62 107h45l-37 -140l-9 -138h-45l-26 106l-114 4l-45 -281l244 3l80 135h53l-50 -197l-421 3l-135 -3
l2 47l79 13l94 583l-77 13l13 46l135 -3z" />
    <glyph glyph-name="Edieresis.sc" horiz-adv-x="536" 
d="M273 667l30 -6l-3 -54l-19 -43l-59 -7l-31 7l3 52l18 45zM468 667l31 -6l-3 -54l-18 -43l-61 -7l-30 7l3 52l18 45zM539 515v-156h-48l-42 99l-168 2l-30 -161l85 3l52 80h42l-31 -111l-7 -112h-42l-23 81l-85 3l-35 -187l192 2l67 99h50l-45 -158l-357 2l-111 -2l3 48
l62 9l74 403l-60 10l11 46l112 -2z" />
    <glyph glyph-name="Edotaccent.002" horiz-adv-x="613" 
d="M417 854l41 -6l-2 -51l-21 -45l-59 -6l-45 6l4 53l21 43zM628 701v-188h-52l-48 127l-215 3l-40 -247l115 4l62 107h45l-37 -140l-9 -138h-45l-26 106l-114 4l-45 -281l244 3l80 135h53l-50 -197l-421 3l-135 -3l2 47l79 13l94 583l-77 13l13 46l135 -3z" />
    <glyph glyph-name="Edotaccent.sc" horiz-adv-x="536" 
d="M304 673l56 4l46 -5l-3 -61l-20 -48l-53 -5l-49 5l4 62zM539 515v-156h-48l-42 99l-168 2l-30 -161l85 3l52 80h42l-31 -111l-7 -112h-42l-23 81l-85 3l-35 -187l192 2l67 99h50l-45 -158l-357 2l-111 -2l3 48l62 9l74 403l-60 10l11 46l112 -2z" />
    <glyph glyph-name="Egrave.002" horiz-adv-x="613" 
d="M372 750l-66 100h114l19 -100h-67zM628 701v-188h-52l-48 127l-215 3l-40 -247l115 4l62 107h45l-37 -140l-9 -138h-45l-26 106l-114 4l-45 -281l244 3l80 135h53l-50 -197l-421 3l-135 -3l2 47l79 13l94 583l-77 13l13 46l135 -3z" />
    <glyph glyph-name="Egrave.sc" horiz-adv-x="536" 
d="M312 567l-73 101h120l13 -101h-60zM539 515v-156h-48l-42 99l-168 2l-30 -161l85 3l52 80h42l-31 -111l-7 -112h-42l-23 81l-85 3l-35 -187l192 2l67 99h50l-45 -158l-357 2l-111 -2l3 48l62 9l74 403l-60 10l11 46l112 -2z" />
    <glyph glyph-name="Emacron.002" horiz-adv-x="613" 
d="M259 828h292l-12 -64h-292zM628 701v-188h-52l-48 127l-215 3l-40 -247l115 4l62 107h45l-37 -140l-9 -138h-45l-26 106l-114 4l-45 -281l244 3l80 135h53l-50 -197l-421 3l-135 -3l2 47l79 13l94 583l-77 13l13 46l135 -3z" />
    <glyph glyph-name="Emacron.sc" horiz-adv-x="536" 
d="M226 643h248l-11 -68h-248zM539 515v-156h-48l-42 99l-168 2l-30 -161l85 3l52 80h42l-31 -111l-7 -112h-42l-23 81l-85 3l-35 -187l192 2l67 99h50l-45 -158l-357 2l-111 -2l3 48l62 9l74 403l-60 10l11 46l112 -2z" />
    <glyph glyph-name="Eng.001" horiz-adv-x="701" 
d="M144 59l83 -13l-13 -47l-114 3l-110 -3l2 47l80 13l92 581l-73 14l12 47l87 -3l106 3l229 -428l14 -106l66 474l-71 13l12 47l98 -3l115 3l-2 -47l-80 -13l-102 -641l-100 -170h-129l16 90h84l48 48l49 32h-55l-253 492l-12 104z" />
    <glyph glyph-name="Eng.sc" horiz-adv-x="607" 
d="M131 56l69 -9l-11 -48l-96 2l-90 -2l3 48l62 9l76 408l-58 4l11 47l71 -2l101 2l183 -248l11 -118l53 310l-56 9l11 47l77 -2l94 2l-2 -47l-63 -9l-83 -459l-114 -175h-110l17 82h63l70 70l47 23h-57l-204 314l-11 109z" />
    <glyph glyph-name="Eogonek.001" horiz-adv-x="613" 
d="M628 701v-188h-52l-48 127l-215 3l-40 -247l115 4l62 107h45l-37 -140l-9 -138h-45l-26 106l-114 4l-45 -281l244 3l80 135h53l-50 -197l-83 1l-45 -59l-3 -14q-3 -13 -1 -25.5t11.5 -22t29 -15t52.5 -5.5l-8 -41q-110 0 -151 22t-30 72l3 12l93 76l-289 2l-135 -3l2 47
l79 13l94 583l-77 13l13 46l135 -3z" />
    <glyph glyph-name="Eogonek.sc" horiz-adv-x="536" 
d="M426 -187q-96 0 -132 18.5t-28 55.5l10 61l71 52l-233 1l-111 -2l3 48l62 9l74 403l-60 10l11 46l112 -2l334 2v-156h-48l-42 99l-168 2l-30 -161l85 3l52 80h42l-31 -111l-7 -112h-42l-23 81l-85 3l-35 -187l192 2l67 99h50l-45 -158h-59l-50 -69l-4 -21q-2 -7 -1 -17
t8 -19t23 -15t45 -6z" />
    <glyph glyph-name="Eth.sc" horiz-adv-x="603" 
d="M121 1l-127 -2l4 48l61 9l35 190h-61l8 43h61l31 170l-59 11l12 45l133 -2l133 2q55 0 98.5 -16t74 -44t46.5 -67t16 -84q0 -86 -59.5 -159.5t-193.5 -122.5l-67 -23zM274 464l-32 -175h86l-9 -43h-85l-35 -190h109q26 15 49 37t40.5 51t28 65.5t10.5 81.5q0 38 -10 70
t-27 55t-39 35.5t-46 12.5h-40z" />
    <glyph glyph-name="Euro.sc" horiz-adv-x="549" 
d="M365 475q-44 -17 -76 -53.5t-49 -86.5h225l-44 -56h-194q-2 -11 -2.5 -22t-1.5 -22h164l-43 -55h-119q4 -34 17 -57t31 -37.5t40.5 -20.5t45.5 -6q37 0 73.5 13t62.5 24l23 -37q-12 -8 -36 -18t-52.5 -19.5t-59 -18t-57.5 -14.5q-104 0 -166.5 50.5t-70.5 140.5h-62
l10 55h53q2 11 3.5 22t4.5 22h-51l11 56h60q29 54 85 99t146 72l66 22q22 0 46.5 -6t47.5 -14.5t42 -18.5t31 -18l-50 -63q-10 8 -28 19t-39.5 21t-44.5 17.5t-42 9.5z" />
    <glyph glyph-name="Euro.tlf" 
d="M406 653q-60 -20 -104.5 -74t-69.5 -128h288l-49 -67h-253l-4 -34t-2 -34h217l-48 -67h-166q5 -45 20.5 -78.5t38 -55.5t50 -33t57.5 -11q23 0 46 5.5t44.5 13.5t41 17t34.5 17l25 -41q-14 -9 -39.5 -22.5t-57.5 -27t-68 -27t-70 -22.5q-61 0 -110.5 18.5t-85.5 53
t-57.5 83.5t-26.5 110h-75l12 67h63l4 34t6 34h-61l12 67h70q35 81 106 143.5t184 98.5l76 25q24 -2 51 -11t52.5 -20t46.5 -23.5t34 -21.5l-59 -80q-12 11 -32.5 25.5t-44.5 28t-49.5 24t-46.5 13.5z" />
    <glyph glyph-name="Euro.tlf.sc" 
d="M383 475q-44 -17 -76 -53.5t-49 -86.5h226l-45 -56h-194q-2 -11 -2.5 -22t-1.5 -22h164l-43 -55h-119q5 -34 18 -57t31 -37.5t40 -20.5t45 -6q38 0 74 13t62 24l24 -37q-12 -8 -36 -18t-53 -19.5t-59.5 -18t-57.5 -14.5q-104 0 -166 50.5t-70 140.5h-63l11 55h52
q2 11 3.5 22t4.5 22h-51l11 56h61q28 54 84 99t146 72l66 22q22 0 46.5 -6t47.5 -14.5t42.5 -18.5t30.5 -18l-50 -63q-10 8 -28 19t-39.5 21t-44.5 17.5t-42 9.5z" />
    <glyph glyph-name="F.sc" horiz-adv-x="502" 
d="M307 47l-12 -48l-167 2l-125 -2l3 48l62 9l74 403l-60 10l11 46l112 -2l334 2v-166h-48l-42 109l-168 2l-32 -174l86 3l51 80h42l-31 -111l-7 -112h-42l-23 80l-85 3l-33 -173z" />
    <glyph glyph-name="G.sc" horiz-adv-x="580" 
d="M403 184l-65 10l12 53l133 -3l105 2l-1 -52l-44 -10l-27 -135l-225 -62q-56 0 -101 15.5t-76.5 44t-48 69t-16.5 90.5q0 44 14 86t45 79t79.5 69t116.5 56l78 32q64 0 109 -14.5t70 -28.5v-151h-57l-21 70q-25 28 -63 42t-83 19q-32 -14 -57.5 -37.5t-43 -53t-27 -64
t-9.5 -70.5q0 -47 11.5 -80.5t30.5 -56.5t44 -36.5t52 -18.5q12 2 23 5t19 7z" />
    <glyph glyph-name="Gbreve.002" horiz-adv-x="685" 
d="M438 813q45 0 76.5 15t48.5 27l29 -16q-12 -14 -25 -26.5t-30.5 -25t-41.5 -24t-57 -21.5q-63 0 -96.5 29t-46.5 68l36 16q12 -12 37 -27t70 -15zM474 268l-81 13l13 49l151 -2l123 3l-1 -50l-57 -13l-34 -210l-261 -76q-66 0 -119.5 20.5t-91 59t-57.5 93.5t-20 125
q0 59 17 119t53.5 114t95 99t141.5 74l89 32q75 0 128 -22.5t82 -46.5v-165h-64l-25 94q-27 29 -73 50.5t-99 23.5q-85 -42 -134.5 -126t-49.5 -212q0 -66 14 -113.5t37.5 -80t54.5 -50t66 -21.5q43 13 72 32z" />
    <glyph glyph-name="Gbreve.sc" horiz-adv-x="580" 
d="M389 642q38 0 64.5 13.5t40.5 23.5l26 -26q-19 -29 -51.5 -51.5t-83.5 -39.5q-51 0 -81 24t-40 64l35 26q10 -9 31 -21.5t59 -12.5zM403 184l-65 10l12 53l133 -3l105 2l-1 -52l-44 -10l-27 -135l-225 -62q-56 0 -101 15.5t-76.5 44t-48 69t-16.5 90.5q0 44 14 86t45 79
t79.5 69t116.5 56l78 32q64 0 109 -14.5t70 -28.5v-151h-57l-21 70q-25 28 -63 42t-83 19q-32 -14 -57.5 -37.5t-43 -53t-27 -64t-9.5 -70.5q0 -47 11.5 -80.5t30.5 -56.5t44 -36.5t52 -18.5q12 2 23 5t19 7z" />
    <glyph glyph-name="Gcircumflex.002" horiz-adv-x="685" 
d="M293 750l125 100h108l93 -100h-82l-70 51l-92 -51h-82zM474 268l-81 13l13 49l151 -2l123 3l-1 -50l-57 -13l-34 -210l-261 -76q-66 0 -119.5 20.5t-91 59t-57.5 93.5t-20 125q0 59 17 119t53.5 114t95 99t141.5 74l89 32q75 0 128 -22.5t82 -46.5v-165h-64l-25 94
q-27 29 -73 50.5t-99 23.5q-85 -42 -134.5 -126t-49.5 -212q0 -66 14 -113.5t37.5 -80t54.5 -50t66 -21.5q43 13 72 32z" />
    <glyph glyph-name="Gcircumflex.sc" horiz-adv-x="580" 
d="M249 568l109 103h98l69 -103h-76l-53 44l-72 -44h-75zM403 184l-65 10l12 53l133 -3l105 2l-1 -52l-44 -10l-27 -135l-225 -62q-56 0 -101 15.5t-76.5 44t-48 69t-16.5 90.5q0 44 14 86t45 79t79.5 69t116.5 56l78 32q64 0 109 -14.5t70 -28.5v-151h-57l-21 70
q-25 28 -63 42t-83 19q-32 -14 -57.5 -37.5t-43 -53t-27 -64t-9.5 -70.5q0 -47 11.5 -80.5t30.5 -56.5t44 -36.5t52 -18.5q12 2 23 5t19 7z" />
    <glyph glyph-name="Gcommaaccent.001" horiz-adv-x="685" 
d="M300 -101l-45 28l6 35h124l-12 -73l-87 -63l-39 11zM474 268l-81 13l13 49l151 -2l123 3l-1 -50l-57 -13l-34 -210l-261 -76q-66 0 -119.5 20.5t-91 59t-57.5 93.5t-20 125q0 59 17 119t53.5 114t95 99t141.5 74l89 32q75 0 128 -22.5t82 -46.5v-165h-64l-25 94
q-27 29 -73 50.5t-99 23.5q-85 -42 -134.5 -126t-49.5 -212q0 -66 14 -113.5t37.5 -80t54.5 -50t66 -21.5q43 13 72 32z" />
    <glyph glyph-name="Gcommaaccent.sc" horiz-adv-x="580" 
d="M226 -74l6 30h111l-11 -59l-86 -95l-43 7l37 92zM338 48q12 2 23 5t19 7l23 124l-65 10l12 53l133 -3l105 2l-1 -52l-44 -10l-27 -135l-225 -62q-56 0 -101 15.5t-76.5 44t-48 69t-16.5 90.5q0 44 14 86t45 79t79.5 69t116.5 56l78 32q64 0 109 -14.5t70 -28.5v-151h-57
l-21 70q-25 28 -63 42t-83 19q-32 -14 -57.5 -37.5t-43 -53t-27 -64t-9.5 -70.5q0 -47 11.5 -80.5t30.5 -56.5t44 -36.5t52 -18.5z" />
    <glyph glyph-name="Gdotaccent.002" horiz-adv-x="685" 
d="M477 854l41 -6l-2 -51l-21 -45l-59 -6l-45 6l4 53l21 43zM474 268l-81 13l13 49l151 -2l123 3l-1 -50l-57 -13l-34 -210l-261 -76q-66 0 -119.5 20.5t-91 59t-57.5 93.5t-20 125q0 59 17 119t53.5 114t95 99t141.5 74l89 32q75 0 128 -22.5t82 -46.5v-165h-64l-25 94
q-27 29 -73 50.5t-99 23.5q-85 -42 -134.5 -126t-49.5 -212q0 -66 14 -113.5t37.5 -80t54.5 -50t66 -21.5q43 13 72 32z" />
    <glyph glyph-name="Gdotaccent.sc" horiz-adv-x="580" 
d="M359 675l56 4l45 -5l-3 -61l-20 -48l-53 -5l-49 5l5 62zM403 184l-65 10l12 53l133 -3l105 2l-1 -52l-44 -10l-27 -135l-225 -62q-56 0 -101 15.5t-76.5 44t-48 69t-16.5 90.5q0 44 14 86t45 79t79.5 69t116.5 56l78 32q64 0 109 -14.5t70 -28.5v-151h-57l-21 70
q-25 28 -63 42t-83 19q-32 -14 -57.5 -37.5t-43 -53t-27 -64t-9.5 -70.5q0 -47 11.5 -80.5t30.5 -56.5t44 -36.5t52 -18.5q12 2 23 5t19 7z" />
    <glyph glyph-name="H.sc" horiz-adv-x="639" 
d="M83 469l12 46l127 -2l121 2l-3 -46l-54 -10l-32 -170h181l31 170l-52 10l11 46l120 -2l129 2l-3 -46l-62 -10l-75 -403l58 -9l-10 -48l-129 2l-120 -2l3 48l55 9l35 186h-180l-35 -186l52 -9l-11 -48l-121 2l-128 -2l3 48l62 9l74 403z" />
    <glyph glyph-name="Hbar.sc" horiz-adv-x="639" 
d="M83 469l12 46l127 -2l121 2l-3 -46l-54 -10l-15 -77h181l14 77l-52 10l11 46l120 -2l129 2l-3 -46l-62 -10l-75 -403l58 -9l-10 -48l-129 2l-120 -2l3 48l55 9l35 186h-180l-35 -186l52 -9l-11 -48l-121 2l-128 -2l3 48l62 9l74 403zM435 289l10 56h-181l-10 -56h181z
" />
    <glyph glyph-name="Hcircumflex.002" horiz-adv-x="729" 
d="M285 750l125 100h108l93 -100h-82l-70 51l-92 -51h-82zM88 655l13 46l148 -3l141 3l-3 -46l-72 -13l-40 -252h235l40 252l-69 13l13 46l142 -3l146 3l-3 -46l-78 -13l-92 -583l74 -13l-13 -47l-145 3l-143 -3l2 47l74 13l44 275h-236l-43 -275l68 -13l-13 -47l-139 3
l-149 -3l2 47l80 13l92 583z" />
    <glyph glyph-name="Hcircumflex.sc" horiz-adv-x="639" 
d="M251 568l109 103h98l68 -103h-74l-54 44l-72 -44h-75zM83 469l12 46l127 -2l121 2l-3 -46l-54 -10l-32 -170h181l31 170l-52 10l11 46l120 -2l129 2l-3 -46l-62 -10l-75 -403l58 -9l-10 -48l-129 2l-120 -2l3 48l55 9l35 186h-180l-35 -186l52 -9l-11 -48l-121 2l-128 -2
l3 48l62 9l74 403z" />
    <glyph glyph-name="I.sc" horiz-adv-x="313" 
d="M208 56l59 -9l-12 -48l-126 2l-126 -2l3 48l63 9l74 403l-59 9l12 47l132 -2l120 2l-3 -47l-62 -9z" />
    <glyph glyph-name="IJ.sc" horiz-adv-x="499" 
d="M226 -129l19 101h75q17 20 27 44t16 56l71 387l-63 9l12 48l130 -2l127 2l-4 -48l-61 -9l-68 -364q-6 -33 -19 -57.5t-31 -44t-40 -35.5t-45 -32l-88 -55h-58zM206 56l58 -9l-12 -48l-124 2l-127 -2l4 48l62 9l75 403l-60 9l12 48l133 -2l112 2l-4 -48l-54 -9z" />
    <glyph glyph-name="Iacute.002" horiz-adv-x="345" 
d="M210 750l84 100h128l-136 -100h-76zM223 59l74 -13l-13 -47l-145 3l-146 -3l3 47l79 13l94 582l-76 13l13 47l151 -3l141 3l-3 -47l-78 -13z" />
    <glyph glyph-name="Iacute.sc" horiz-adv-x="313" 
d="M189 567l54 101h128l-114 -101h-68zM208 56l59 -9l-12 -48l-126 2l-126 -2l3 48l63 9l74 403l-59 9l12 47l132 -2l120 2l-3 -47l-62 -9z" />
    <glyph glyph-name="Ibreve.002" horiz-adv-x="345" 
d="M273 813q45 0 76.5 15t48.5 27l29 -16q-12 -14 -25 -26.5t-30.5 -25t-41.5 -24t-57 -21.5q-63 0 -96.5 29t-45.5 68l35 16q12 -12 37 -27t70 -15zM223 59l74 -13l-13 -47l-145 3l-146 -3l3 47l79 13l94 582l-76 13l13 47l151 -3l141 3l-3 -47l-78 -13z" />
    <glyph glyph-name="Ibreve.sc" horiz-adv-x="313" 
d="M248 642q38 0 64.5 13.5t40.5 23.5l27 -26q-20 -29 -52.5 -51.5t-83.5 -39.5q-51 0 -81 24t-40 64l35 26q10 -9 31 -21.5t59 -12.5zM208 56l59 -9l-12 -48l-126 2l-126 -2l3 48l63 9l74 403l-59 9l12 47l132 -2l120 2l-3 -47l-62 -9z" />
    <glyph glyph-name="Icircumflex.002" horiz-adv-x="345" 
d="M97 750l125 100h108l93 -100h-82l-70 51l-92 -51h-82zM223 59l74 -13l-13 -47l-145 3l-146 -3l3 47l79 13l94 582l-76 13l13 47l151 -3l141 3l-3 -47l-78 -13z" />
    <glyph glyph-name="Icircumflex.sc" horiz-adv-x="313" 
d="M90 568l109 103h99l67 -103h-74l-54 44l-72 -44h-75zM208 56l59 -9l-12 -48l-126 2l-126 -2l3 48l63 9l74 403l-59 9l12 47l132 -2l120 2l-3 -47l-62 -9z" />
    <glyph glyph-name="Idieresis.002" horiz-adv-x="345" 
d="M189 854l40 -6l-2 -50l-21 -43l-57 -6l-43 6l4 52l20 41zM395 854l40 -6l-3 -50l-20 -43l-58 -6l-42 6l3 52l21 41zM223 59l74 -13l-13 -47l-145 3l-146 -3l3 47l79 13l94 582l-76 13l13 47l151 -3l141 3l-3 -47l-78 -13z" />
    <glyph glyph-name="Idieresis.sc" horiz-adv-x="313" 
d="M180 667l29 -6l-2 -54l-20 -43l-58 -6l-30 6l3 52l18 45zM357 667l29 -6l-2 -54l-19 -43l-59 -6l-30 6l3 52l18 45zM238 225l3 -174l17 -38l-85 -13h-126l-41 33l35 19l72 238l-2 174l-19 37l92 13l121 1l40 -33l-35 -20z" />
    <glyph glyph-name="Idotaccent.002" horiz-adv-x="345" 
d="M293 854l41 -6l-2 -51l-21 -45l-59 -6l-45 6l4 53l21 43zM223 59l74 -13l-13 -47l-145 3l-146 -3l3 47l79 13l94 582l-76 13l13 47l151 -3l141 3l-3 -47l-78 -13z" />
    <glyph glyph-name="Idotaccent.sc" horiz-adv-x="313" 
d="M203 673l57 4l45 -5l-3 -61l-20 -48l-53 -5l-49 5l5 62zM208 56l59 -9l-12 -48l-126 2l-126 -2l3 48l63 9l74 403l-59 9l12 47l132 -2l120 2l-3 -47l-62 -9z" />
    <glyph glyph-name="Igrave.002" horiz-adv-x="345" 
d="M233 750l-66 100h114l19 -100h-67zM223 59l74 -13l-13 -47l-145 3l-146 -3l3 47l79 13l94 582l-76 13l13 47l151 -3l141 3l-3 -47l-78 -13z" />
    <glyph glyph-name="Igrave.sc" horiz-adv-x="313" 
d="M201 567l-73 101h120l13 -101h-60zM208 56l59 -9l-12 -48l-126 2l-126 -2l3 48l63 9l74 403l-59 9l12 47l132 -2l120 2l-3 -47l-62 -9z" />
    <glyph glyph-name="Imacron.002" horiz-adv-x="345" 
d="M127 828h292l-12 -64h-292zM223 59l74 -13l-13 -47l-145 3l-146 -3l3 47l79 13l94 582l-76 13l13 47l151 -3l141 3l-3 -47l-78 -13z" />
    <glyph glyph-name="Imacron.sc" horiz-adv-x="313" 
d="M119 643h248l-12 -68h-247zM208 56l59 -9l-12 -48l-126 2l-126 -2l3 48l63 9l74 403l-59 9l12 47l132 -2l120 2l-3 -47l-62 -9z" />
    <glyph glyph-name="Iogonek.001" horiz-adv-x="345" 
d="M223 59l74 -13l-13 -47l-117 2l-46 -60l-3 -14q-3 -13 -1.5 -25.5t11.5 -22t29.5 -15t51.5 -5.5l-8 -41q-55 0 -92 5.5t-58 16.5t-28 29t-2 43l3 12l95 77l-126 -2l3 47l79 13l94 582l-76 13l13 47l151 -3l141 3l-3 -47l-78 -13z" />
    <glyph glyph-name="Iogonek.sc" horiz-adv-x="313" 
d="M208 56l59 -9l-12 -48l-99 1l-45 -71l-4 -21q-1 -7 0 -16.5t8 -18.5t23 -15t45 -6l-8 -39q-95 0 -131 18.5t-28 55.5l10 61l66 52l-89 -1l3 48l63 9l74 403l-59 9l12 47l132 -2l120 2l-3 -47l-62 -9z" />
    <glyph glyph-name="Itilde.002" horiz-adv-x="345" 
d="M140 832l75 21l161 -53l43 52h32l-44 -92l-73 -16l-163 54l-41 -53h-32zM223 59l74 -13l-13 -47l-145 3l-146 -3l3 47l79 13l94 582l-76 13l13 47l151 -3l141 3l-3 -47l-78 -13z" />
    <glyph glyph-name="Itilde.sc" horiz-adv-x="313" 
d="M131 663l64 16l137 -37l36 36h31l-47 -103l-63 -12l-137 38l-36 -37h-30zM208 56l59 -9l-12 -48l-126 2l-126 -2l3 48l63 9l74 403l-59 9l12 47l132 -2l120 2l-3 -47l-62 -9z" />
    <glyph glyph-name="J.sc" horiz-adv-x="316" 
d="M-69 -129l19 101h93q17 20 27.5 44t16.5 56l70 387l-72 9l12 47l139 -2l128 2l-4 -47l-62 -9l-67 -364q-6 -33 -19.5 -57.5t-31.5 -44t-39.5 -35.5t-44.5 -32l-89 -55h-76z" />
    <glyph glyph-name="Jcircumflex.002" horiz-adv-x="362" 
d="M107 750l125 100h108l93 -100h-82l-70 51l-92 -51h-82zM-83 -175l21 105h109q19 30 31 64.5t20 85.5l89 561l-88 13l13 47l158 -3l146 3l-3 -47l-78 -13l-87 -541q-11 -65 -42.5 -107.5t-89.5 -83.5l-112 -84h-87z" />
    <glyph glyph-name="Jcircumflex.sc" horiz-adv-x="316" 
d="M98 568l109 103h98l68 -103h-75l-53 44l-72 -44h-75zM-69 -129l19 101h93q17 20 27.5 44t16.5 56l70 387l-72 9l12 47l139 -2l128 2l-4 -47l-62 -9l-67 -364q-6 -33 -19.5 -57.5t-31.5 -44t-39.5 -35.5t-44.5 -32l-89 -55h-76z" />
    <glyph glyph-name="K.sc" horiz-adv-x="633" 
d="M249 274l26 11l218 174l-57 15l9 41l98 -2l106 2l-1 -35l-72 -19l-239 -178l39 -19l185 -211l40 -5l-11 -49l-69 2l-99 -2l-165 216l-13 33l-36 -192l50 -9l-11 -48l-117 2l-127 -2l4 48l62 9l74 403l-59 9l12 47l133 -2l112 2l-4 -47l-54 -9z" />
    <glyph glyph-name="Kcommaaccent.001" horiz-adv-x="732" 
d="M321 -101l-45 28l6 39h124l-13 -77l-87 -63l-38 11zM273 382l30 15l265 244l-67 13l10 47l117 -3l119 3l-2 -47l-86 -13l-289 -253l38 -19l233 -311l49 -12l-12 -47l-81 3l-104 -3l-210 322l-15 36l-47 -298l63 -13l-12 -47l-135 3l-147 -3l3 47l80 13l93 582l-76 13
l13 47l151 -3l131 3l-3 -47l-68 -13z" />
    <glyph glyph-name="Kcommaaccent.sc" horiz-adv-x="633" 
d="M235 -74l6 30h111l-11 -59l-86 -95l-43 7l37 92zM249 274l26 11l218 174l-57 15l9 41l98 -2l106 2l-1 -35l-72 -19l-239 -178l39 -19l185 -211l40 -5l-11 -49l-69 2l-99 -2l-165 216l-13 33l-36 -192l50 -9l-11 -48l-117 2l-127 -2l4 48l62 9l74 403l-59 9l12 47l133 -2
l112 2l-4 -47l-54 -9z" />
    <glyph glyph-name="L.sc" horiz-adv-x="503" 
d="M207 513l143 2l-3 -47l-63 -9l-74 -403l169 2l74 110h49l-51 -169l-334 2l-114 -2l4 48l63 9l75 403l-60 9l12 47z" />
    <glyph glyph-name="Lacute.002" horiz-adv-x="578" 
d="M202 750l84 100h128l-136 -100h-76zM235 698l162 3l-3 -47l-80 -13l-94 -583l214 3l90 141h53l-61 -203l-390 3l-136 -3l3 47l80 13l93 582l-76 13l13 47z" />
    <glyph glyph-name="Lacute.sc" horiz-adv-x="503" 
d="M188 567l53 101h128l-114 -101h-67zM207 513l143 2l-3 -47l-63 -9l-74 -403l169 2l74 110h49l-51 -169l-334 2l-114 -2l4 48l63 9l75 403l-60 9l12 47z" />
    <glyph glyph-name="Lcaron.sc" horiz-adv-x="503" 
d="M508 521l29 -8l-4 -57l-15 -51l-84 -122l-38 17q6 9 15 23.5t17.5 29.5t14.5 28.5t8 20.5l-40 3l5 60l15 48zM207 513l143 2l-3 -47l-63 -9l-74 -403l169 2l74 110h49l-51 -169l-334 2l-114 -2l4 48l63 9l75 403l-60 9l12 47z" />
    <glyph glyph-name="Lcommaaccent.001" horiz-adv-x="578" 
d="M232 -101l-45 28l7 39h124l-14 -77l-86 -63l-39 11zM235 698l162 3l-3 -47l-80 -13l-94 -583l214 3l90 141h53l-61 -203l-390 3l-136 -3l3 47l80 13l93 582l-76 13l13 47z" />
    <glyph glyph-name="Lcommaaccent.sc" horiz-adv-x="503" 
d="M162 -74l6 30h111l-11 -59l-86 -95l-43 7l37 92zM207 513l143 2l-3 -47l-63 -9l-74 -403l169 2l74 110h49l-51 -169l-334 2l-114 -2l4 48l63 9l75 403l-60 9l12 47z" />
    <glyph glyph-name="Ldot.sc" horiz-adv-x="503" 
d="M432 357l30 -7l-3 -61l-17 -48l-82 -5l-30 5l5 62l15 47zM207 513l143 2l-3 -47l-63 -9l-74 -403l169 2l74 110h49l-51 -169l-334 2l-114 -2l4 48l63 9l75 403l-60 9l12 47z" />
    <glyph glyph-name="Lslash.sc" horiz-adv-x="503" 
d="M207 513l143 2l-3 -47l-63 -9l-22 -119l74 31l-11 -59l-74 -31l-41 -225l169 2l74 110h49l-51 -169l-334 2l-114 -2l4 48l63 9l30 163l-67 -28l11 59l67 28l34 181l-60 9l12 47z" />
    <glyph glyph-name="M.sc" horiz-adv-x="779" 
d="M132 56l55 -9l-8 -48l-87 2l-89 -2l4 48l61 9l74 405l-59 7l12 47l73 -2l153 2l64 -307l-7 -82l210 389l128 -2l98 2l-3 -47l-62 -9l-74 -403l58 -9l-12 -48l-125 2l-123 -2l1 48l64 9l62 335l23 81l-247 -472h-91l-71 327l-10 136z" />
    <glyph glyph-name="N.sc" horiz-adv-x="607" 
d="M131 56l69 -9l-11 -48l-96 2l-90 -2l3 48l62 9l76 408l-58 4l11 47l71 -2l101 2l183 -248l11 -118l53 310l-56 9l11 47l77 -2l94 2l-2 -47l-63 -9l-83 -459h-84l-204 314l-11 109z" />
    <glyph glyph-name="Nacute.002" horiz-adv-x="701" 
d="M364 750l84 100h128l-136 -100h-76zM144 59l83 -13l-13 -47l-114 3l-110 -3l2 47l80 13l92 581l-73 14l12 47l87 -3l106 3l229 -428l14 -106l66 474l-71 13l12 47l98 -3l115 3l-2 -47l-80 -13l-102 -641h-87l-253 492l-12 104z" />
    <glyph glyph-name="Nacute.sc" horiz-adv-x="607" 
d="M320 567l54 101h128l-114 -101h-68zM131 56l69 -9l-11 -48l-96 2l-90 -2l3 48l62 9l76 408l-58 4l11 47l71 -2l101 2l183 -248l11 -118l53 310l-56 9l11 47l77 -2l94 2l-2 -47l-63 -9l-83 -459h-84l-204 314l-11 109z" />
    <glyph glyph-name="Ncaron.002" horiz-adv-x="701" 
d="M599 850l-125 -100h-108l-87 100h82l64 -51l92 51h82zM144 59l83 -13l-13 -47l-114 3l-110 -3l2 47l80 13l92 581l-73 14l12 47l87 -3l106 3l229 -428l14 -106l66 474l-71 13l12 47l98 -3l115 3l-2 -47l-80 -13l-102 -641h-87l-253 492l-12 104z" />
    <glyph glyph-name="Ncaron.sc" horiz-adv-x="607" 
d="M518 671l-108 -103h-99l-67 103h74l54 -43l72 43h74zM131 56l69 -9l-11 -48l-96 2l-90 -2l3 48l62 9l76 408l-58 4l11 47l71 -2l101 2l183 -248l11 -118l53 310l-56 9l11 47l77 -2l94 2l-2 -47l-63 -9l-83 -459h-84l-204 314l-11 109z" />
    <glyph glyph-name="Ncommaaccent.001" horiz-adv-x="701" 
d="M296 -101l-45 28l7 39h124l-14 -77l-86 -63l-39 11zM144 59l83 -13l-13 -47l-114 3l-110 -3l2 47l80 13l92 581l-73 14l12 47l87 -3l106 3l229 -428l14 -106l66 474l-71 13l12 47l98 -3l115 3l-2 -47l-80 -13l-102 -641h-87l-253 492l-12 104z" />
    <glyph glyph-name="Ncommaaccent.sc" horiz-adv-x="607" 
d="M212 -74l6 30h111l-11 -59l-86 -95l-43 7l37 92zM131 56l69 -9l-11 -48l-96 2l-90 -2l3 48l62 9l76 408l-58 4l11 47l71 -2l101 2l183 -248l11 -118l53 310l-56 9l11 47l77 -2l94 2l-2 -47l-63 -9l-83 -459h-84l-204 314l-11 109z" />
    <glyph glyph-name="Ntilde.002" horiz-adv-x="701" 
d="M312 832l75 21l162 -53l42 52h32l-44 -92l-73 -16l-162 54l-42 -53h-32zM144 59l83 -13l-13 -47l-114 3l-110 -3l2 47l80 13l92 581l-73 14l12 47l87 -3l106 3l229 -428l14 -106l66 474l-71 13l12 47l98 -3l115 3l-2 -47l-80 -13l-102 -641h-87l-253 492l-12 104z" />
    <glyph glyph-name="Ntilde.sc" horiz-adv-x="607" 
d="M277 663l64 16l137 -37l36 36h31l-47 -103l-62 -12l-138 38l-36 -37h-30zM131 56l69 -9l-11 -48l-96 2l-90 -2l3 48l62 9l76 408l-58 4l11 47l71 -2l101 2l183 -248l11 -118l53 310l-56 9l11 47l77 -2l94 2l-2 -47l-63 -9l-83 -459h-84l-204 314l-11 109z" />
    <glyph glyph-name="O.sc" horiz-adv-x="621" 
d="M295 -13q-117 0 -181.5 61t-64.5 169q0 48 13.5 92.5t43.5 82t78.5 67.5t117.5 50l66 19q116 0 181 -61.5t65 -169.5q0 -48 -13.5 -92t-44 -82t-79 -68t-117.5 -49zM336 466q-36 -12 -62.5 -34.5t-44 -52.5t-25.5 -67t-8 -77q0 -75 35.5 -124.5t94.5 -62.5
q36 12 62.5 34.5t44 52.5t25.5 66.5t8 77.5q0 75 -36 124.5t-94 62.5z" />
    <glyph glyph-name="OE.sc" horiz-adv-x="829" 
d="M337 466q-73 -29 -106 -89.5t-33 -141.5q0 -75 35 -124.5t94 -62.5l47 8l76 403zM513 513l319 2v-156h-49l-42 99l-151 2l-33 -163l71 3l51 80h41l-31 -111l-7 -111h-40l-23 81l-70 3l-35 -186l177 2l67 99h50l-45 -158l-342 2l-122 -14q-58 0 -104.5 17t-78.5 48
t-49.5 75t-17.5 97q0 48 13.5 90t43 77.5t77 64.5t115.5 51l68 21z" />
    <glyph glyph-name="Oacute.002" horiz-adv-x="721" 
d="M386 750l84 100h128l-136 -100h-76zM208 312q0 -115 47 -183t122 -83q94 42 138 132.5t44 209.5q0 115 -47 183t-122 83q-94 -42 -138 -132.5t-44 -209.5zM428 718q68 0 122.5 -22.5t92 -63.5t57.5 -99t20 -130q0 -59 -15.5 -118t-50.5 -112t-91 -96t-137 -68l-87 -27
q-68 0 -122 22.5t-92 63.5t-58 99t-20 130q0 58 15.5 117.5t51 112.5t91.5 95.5t137 68.5z" />
    <glyph glyph-name="Oacute.sc" horiz-adv-x="621" 
d="M323 567l54 101h128l-114 -101h-68zM288 -13q-116 0 -180.5 61t-64.5 169q0 48 13.5 92.5t43.5 82t78.5 67.5t117.5 50l66 19q116 0 180.5 -61.5t64.5 -169.5q0 -48 -13.5 -92t-44 -82t-78.5 -68t-117 -49zM330 466q-36 -12 -62.5 -34.5t-44 -52.5t-25.5 -67t-8 -77
q0 -75 35.5 -124.5t94.5 -62.5q72 24 106 87t34 144q0 75 -36 124.5t-94 62.5z" />
    <glyph glyph-name="Obreve.002" horiz-adv-x="721" 
d="M447 813q45 0 76.5 15t48.5 27l29 -16q-12 -14 -25 -26.5t-30.5 -25t-41.5 -24t-57 -21.5q-63 0 -96.5 29t-46.5 68l36 16q12 -12 37 -27t70 -15zM208 312q0 -115 47 -183t122 -83q94 42 138 132.5t44 209.5q0 115 -47 183t-122 83q-94 -42 -138 -132.5t-44 -209.5z
M428 718q68 0 122.5 -22.5t92 -63.5t57.5 -99t20 -130q0 -59 -15.5 -118t-50.5 -112t-91 -96t-137 -68l-87 -27q-68 0 -122 22.5t-92 63.5t-58 99t-20 130q0 58 15.5 117.5t51 112.5t91.5 95.5t137 68.5z" />
    <glyph glyph-name="Obreve.sc" horiz-adv-x="621" 
d="M380 642q38 0 64.5 13.5t40.5 23.5l27 -26q-19 -29 -51.5 -51.5t-83.5 -39.5q-52 0 -82 24t-39 64l34 26q11 -9 32 -21.5t58 -12.5zM288 -13q-116 0 -180.5 61t-64.5 169q0 48 13.5 92.5t43.5 82t78.5 67.5t117.5 50l66 19q116 0 180.5 -61.5t64.5 -169.5
q0 -48 -13.5 -92t-44 -82t-78.5 -68t-117 -49zM330 466q-36 -12 -62.5 -34.5t-44 -52.5t-25.5 -67t-8 -77q0 -75 35.5 -124.5t94.5 -62.5q72 24 106 87t34 144q0 75 -36 124.5t-94 62.5z" />
    <glyph glyph-name="Ocircumflex.002" horiz-adv-x="721" 
d="M280 750l125 100h107l93 -100h-82l-69 51l-92 -51h-82zM208 312q0 -115 47 -183t122 -83q94 42 138 132.5t44 209.5q0 115 -47 183t-122 83q-94 -42 -138 -132.5t-44 -209.5zM428 718q68 0 122.5 -22.5t92 -63.5t57.5 -99t20 -130q0 -59 -15.5 -118t-50.5 -112t-91 -96
t-137 -68l-87 -27q-68 0 -122 22.5t-92 63.5t-58 99t-20 130q0 58 15.5 117.5t51 112.5t91.5 95.5t137 68.5z" />
    <glyph glyph-name="Ocircumflex.sc" horiz-adv-x="621" 
d="M231 568l109 103h98l68 -103h-75l-53 44l-72 -44h-75zM288 -13q-116 0 -180.5 61t-64.5 169q0 48 13.5 92.5t43.5 82t78.5 67.5t117.5 50l66 19q116 0 180.5 -61.5t64.5 -169.5q0 -48 -13.5 -92t-44 -82t-78.5 -68t-117 -49zM330 466q-36 -12 -62.5 -34.5t-44 -52.5
t-25.5 -67t-8 -77q0 -75 35.5 -124.5t94.5 -62.5q72 24 106 87t34 144q0 75 -36 124.5t-94 62.5z" />
    <glyph glyph-name="Odieresis.002" horiz-adv-x="721" 
d="M361 854l42 -6l-2 -50l-21 -45l-59 -6l-43 6l4 54l21 41zM587 854l42 -6l-2 -50l-21 -45l-59 -6l-43 6l4 54l21 41zM208 312q0 -115 47 -183t122 -83q94 42 138 132.5t44 209.5q0 115 -47 183t-122 83q-94 -42 -138 -132.5t-44 -209.5zM428 718q68 0 122.5 -22.5
t92 -63.5t57.5 -99t20 -130q0 -59 -15.5 -118t-50.5 -112t-91 -96t-137 -68l-87 -27q-68 0 -122 22.5t-92 63.5t-58 99t-20 130q0 58 15.5 117.5t51 112.5t91.5 95.5t137 68.5z" />
    <glyph glyph-name="Odieresis.sc" horiz-adv-x="621" 
d="M310 667l30 -6l-2 -54l-19 -43l-60 -7l-31 7l3 52l18 45zM506 667l30 -6l-3 -54l-18 -43l-61 -7l-30 7l3 52l19 45zM288 -13q-116 0 -180.5 61t-64.5 169q0 48 13.5 92.5t43.5 82t78.5 67.5t117.5 50l66 19q116 0 180.5 -61.5t64.5 -169.5q0 -48 -13.5 -92t-44 -82
t-78.5 -68t-117 -49zM330 466q-36 -12 -62.5 -34.5t-44 -52.5t-25.5 -67t-8 -77q0 -75 35.5 -124.5t94.5 -62.5q72 24 106 87t34 144q0 75 -36 124.5t-94 62.5z" />
    <glyph glyph-name="Ograve.002" horiz-adv-x="721" 
d="M408 750l-66 100h114l19 -100h-67zM208 312q0 -115 47 -183t122 -83q94 42 138 132.5t44 209.5q0 115 -47 183t-122 83q-94 -42 -138 -132.5t-44 -209.5zM428 718q68 0 122.5 -22.5t92 -63.5t57.5 -99t20 -130q0 -59 -15.5 -118t-50.5 -112t-91 -96t-137 -68l-87 -27
q-68 0 -122 22.5t-92 63.5t-58 99t-20 130q0 58 15.5 117.5t51 112.5t91.5 95.5t137 68.5z" />
    <glyph glyph-name="Ograve.sc" horiz-adv-x="621" 
d="M335 567l-73 101h120l14 -101h-61zM288 -13q-116 0 -180.5 61t-64.5 169q0 48 13.5 92.5t43.5 82t78.5 67.5t117.5 50l66 19q116 0 180.5 -61.5t64.5 -169.5q0 -48 -13.5 -92t-44 -82t-78.5 -68t-117 -49zM330 466q-36 -12 -62.5 -34.5t-44 -52.5t-25.5 -67t-8 -77
q0 -75 35.5 -124.5t94.5 -62.5q72 24 106 87t34 144q0 75 -36 124.5t-94 62.5z" />
    <glyph glyph-name="Ohungarumlaut.002" horiz-adv-x="721" 
d="M302 750l84 100h128l-136 -100h-76zM489 750l84 100h128l-136 -100h-76zM208 312q0 -115 47 -183t122 -83q94 42 138 132.5t44 209.5q0 115 -47 183t-122 83q-94 -42 -138 -132.5t-44 -209.5zM428 718q68 0 122.5 -22.5t92 -63.5t57.5 -99t20 -130q0 -59 -15.5 -118
t-50.5 -112t-91 -96t-137 -68l-87 -27q-68 0 -122 22.5t-92 63.5t-58 99t-20 130q0 58 15.5 117.5t51 112.5t91.5 95.5t137 68.5z" />
    <glyph glyph-name="Ohungarumlaut.sc" horiz-adv-x="621" 
d="M247 567l54 101h128l-114 -101h-68zM409 567l54 101h128l-114 -101h-68zM288 -13q-116 0 -180.5 61t-64.5 169q0 48 13.5 92.5t43.5 82t78.5 67.5t117.5 50l66 19q116 0 180.5 -61.5t64.5 -169.5q0 -48 -13.5 -92t-44 -82t-78.5 -68t-117 -49zM330 466
q-36 -12 -62.5 -34.5t-44 -52.5t-25.5 -67t-8 -77q0 -75 35.5 -124.5t94.5 -62.5q72 24 106 87t34 144q0 75 -36 124.5t-94 62.5z" />
    <glyph glyph-name="Omacron.002" horiz-adv-x="721" 
d="M319 828h292l-12 -64h-292zM208 312q0 -115 47 -183t122 -83q94 42 138 132.5t44 209.5q0 115 -47 183t-122 83q-94 -42 -138 -132.5t-44 -209.5zM428 718q68 0 122.5 -22.5t92 -63.5t57.5 -99t20 -130q0 -59 -15.5 -118t-50.5 -112t-91 -96t-137 -68l-87 -27
q-68 0 -122 22.5t-92 63.5t-58 99t-20 130q0 58 15.5 117.5t51 112.5t91.5 95.5t137 68.5z" />
    <glyph glyph-name="Omacron.sc" horiz-adv-x="621" 
d="M261 643h247l-11 -68h-248zM288 -13q-116 0 -180.5 61t-64.5 169q0 48 13.5 92.5t43.5 82t78.5 67.5t117.5 50l66 19q116 0 180.5 -61.5t64.5 -169.5q0 -48 -13.5 -92t-44 -82t-78.5 -68t-117 -49zM330 466q-36 -12 -62.5 -34.5t-44 -52.5t-25.5 -67t-8 -77
q0 -75 35.5 -124.5t94.5 -62.5q72 24 106 87t34 144q0 75 -36 124.5t-94 62.5z" />
    <glyph glyph-name="Omega" horiz-adv-x="720" 
d="M255 130q-41 9 -79.5 29.5t-68.5 54t-48.5 81t-18.5 110.5q0 59 18.5 107t58.5 86t102.5 67t150.5 50q69 0 126 -22t98 -60t63.5 -89t22.5 -109q0 -69 -15.5 -114t-44 -76.5t-70 -56.5t-92.5 -54v-50l162 28l24 60h46v-172h-302v172q19 0 42.5 12.5t43.5 40t34 71.5
t14 108q0 56 -14.5 102t-39 79t-58 51t-71.5 18q-28 0 -53.5 -17t-45 -46.5t-31 -69t-11.5 -85.5q0 -58 12.5 -106.5t32 -83.5t43 -54.5t46.5 -19.5v-172h-302v172h46l24 -60l155 -28v46z" />
    <glyph glyph-name="Oslash.sc" horiz-adv-x="621" 
d="M304 -13q-99 0 -160 44l-41 -42h-65l72 74q-51 59 -51 154q0 48 13.5 92.5t43.5 82t78.5 67.5t117.5 50l66 19q89 0 148 -38l35 36h63l-62 -64q29 -29 45 -71t16 -94q0 -48 -13.5 -92t-44 -82t-78.5 -68t-117 -49zM475 279q0 22 -3.5 42t-9.5 38l-229 -236
q17 -29 43.5 -48.5t59.5 -26.5q72 24 105.5 87t33.5 144zM345 466q-72 -24 -105.5 -87t-33.5 -144q0 -18 2 -34t6 -31l226 232q-35 50 -95 64z" />
    <glyph glyph-name="Oslashacute.002" horiz-adv-x="721" 
d="M443 718q53 0 97.5 -13.5t79.5 -39.5l43 50h69l-73 -85q37 -42 56.5 -99t19.5 -128q0 -59 -15.5 -118t-50.5 -112t-91 -96t-137 -68l-87 -27q-60 0 -109 17.5t-86 49.5l-56 -64h-71l90 104q-29 40 -44.5 92.5t-15.5 115.5q0 58 15.5 117.5t51 112.5t91.5 95.5t137 68.5z
M574 388q0 69 -18 122l-303 -351q23 -47 58.5 -75.5t80.5 -37.5q94 42 138 132.5t44 209.5zM223 312q0 -54 10 -95l298 346q-23 37 -55 60t-71 31q-94 -42 -138 -132.5t-44 -209.5zM401 750l84 100h128l-136 -100h-76z" />
    </font>
</defs>
</svg>
