<svg xmlns="http://www.w3.org/2000/svg" width="226" height="64" viewBox="0 0 226 64">
    <path fill="currentColor" fill-rule="nonzero"
        d="M201.598 37.216c0 2.606-9.528 13.572-11.415 13.122-2.247-.45.988-11.594 3.595-12.134.63-.09 2.517-.54 4.134-.988 3.775-.9 3.686-.9 3.686 0m-8.899-8.899c-.719.27-5.213 6.292-6.291 8.45-.45.898-1.438 1.797-2.337 2.066-1.079.36-1.438.72-1.169 1.349.36.898-3.775 7.37-4.494 7.1-.898-.27-2.247-3.595-2.067-4.943.09-.81-.09-1.528-.45-1.888-.539-.45-1.078-.18-2.606 1.169-1.528 1.348-2.157 1.618-2.786 1.258-.63-.36-1.348-.27-2.337.27-1.438.719-1.528.719-1.888-.09-.18-.54 0-1.079.72-1.618 1.258-.809 1.438-2.607.359-2.607-.719 0-3.775 3.686-3.775 4.584 0 .27.54.63 1.258.9.72.269 1.259.628 1.259.898 0 .18.18.719.45 1.078.359.54.628.54 1.527.09.989-.539 1.258-.449 1.977.54.72.898.99.988 1.888.539 1.258-.72 1.887-2.067.899-2.067-.81 0-.989-.81-.27-1.259.899-.539 2.517.72 3.236 2.517.54 1.258 1.078 1.798 2.247 2.067 1.797.36 1.887.72.45 1.978-2.068 1.887-3.057 5.213-1.529 5.213.9 0 7.46-6.022 8.539-7.73 1.438-2.337 1.977-2.157 1.977.45 0 2.067.9 3.774 1.978 3.774 1.348 0 4.134-1.797 6.471-4.044 2.786-2.787 5.123-6.112 7.01-9.977l1.08-2.337 4.314-.809c5.752-1.078 12.223-1.797 15.19-1.797 2.336 0 3.505-.63 2.606-1.528-.63-.63-12.224.36-17.617 1.528-9.078 1.887-12.763 2.606-14.74 2.606-2.157.09-4.494 1.798-3.955 3.056.45 1.168-1.887 4.584-5.752 8.718-4.135 4.405-5.483 4.405-2.517 0 1.169-1.617 2.517-4.044 3.056-5.213.54-1.348 1.528-2.516 2.427-2.966 1.078-.539 1.348-.988 1.168-1.887-.18-.81.45-1.888 2.427-4.135 3.955-4.494 4.045-4.494 3.326-5.123-.36-.18-.9-.27-1.259-.18m-32.716 15.46c.18.54-1.348 1.348-1.708.899-.09-.09-.09-.63.09-1.079.27-.719 1.258-.719 1.618.18m-14.92-14.471c-2.247 3.775-4.405 7.55-4.764 8.539-.72 1.797-1.169 1.977-2.067.988-.54-.539-.72-.449-1.079.27-.719 1.258-3.595 3.865-4.224 3.865-1.079 0-1.169-.63-.45-2.067.72-1.438.63-2.427-.27-2.427-.269 0-.898.809-1.527 1.797-.9 1.528-1.169 1.708-1.528.99-.63-1.17-1.259-.99-2.787.628-1.617 1.708-3.775 2.247-4.044.9-.09-.54.36-1.17 1.438-1.619.989-.539 1.528-1.078 1.438-1.618-.27-1.438-1.528-1.168-3.865.81l-2.157 1.887.809 1.528c.899 1.708 1.887 1.887 3.775.809 1.618-.989 1.797-.899 2.157.27.36 1.437 1.168 1.258 2.157-.54 1.079-1.797 1.438-1.887 1.798-.54.27 1.17 1.438 1.349 2.337.27.539-.629.809-.629 2.067 0 1.348.72 1.438.63 2.786-.898l1.348-1.618 1.079 1.348c.899 1.168 1.348 1.258 3.146 1.079 1.258-.18 2.157-.09 2.427.27.539.808 2.157.718 5.033-.36l2.517-.9 2.606 1.709c1.438.988 2.607 1.797 2.607 1.977 0 .63-6.022 7.01-8.629 9.078-2.696 2.157-3.505 3.595-2.427 4.314.989.63 11.685-9.887 13.572-13.212.36-.72.63-1.528.54-1.888-.09-.36.18-1.078.629-1.528 2.696-3.056.45-4.404-2.876-1.797-1.978 1.438-2.607 1.528-2.966.18-.27-.72-.63-.9-1.259-.72-.629.18-.989 0-1.258-.719-.45-1.438-.989-1.258-2.337.45-1.348 1.887-3.775 2.966-4.584 2.067-.45-.45-.27-.899.809-1.798 1.618-1.438 1.798-2.247.27-2.247-.63 0-1.888.9-2.966 1.978-1.888 1.977-3.506 2.337-3.506.629 0-.45 2.337-4.674 5.213-9.438 2.876-4.763 5.213-8.898 5.213-9.167 0-.27-.449-.54-.988-.54-.81.18-2.247 2.068-5.213 7.011m-62.737 8.18c0 1.437-.18 1.797-1.079 1.887-.719.09-1.258-.18-1.618-.9-.809-1.437.18-3.145 1.618-2.965.9.18 1.079.54 1.079 1.977m7.82-15.37c-1.439 2.427-2.517 3.326-4.405 3.686-1.977.36-3.056-.36-4.044-2.697-.81-1.887-1.798-1.887-2.068 0-.18 1.618 1.978 4.225 3.865 4.674.81.18 2.157 0 3.236-.45 1.618-.718 1.887-.718 2.157 0 .36.81-2.517 7.91-3.685 9.168-.63.63-.719.63-1.168 0-.27-.449-.45-1.168-.45-1.617 0-1.708-3.236-1.708-5.123 0-1.079.988-1.168 4.673-.18 5.572.36.36 1.438.54 2.337.45 1.348-.09 1.708.09 2.247 1.078.899 1.798 1.977 2.157 3.955 1.528 1.348-.45 2.157-.45 3.505.09 1.528.54 1.888.54 2.607-.18.809-.809.719-.898-.72-1.438-.898-.27-1.617-.719-1.617-.988 0-.72-1.258-.54-3.236.36-1.438.718-1.887.718-2.517.179-1.078-.899-.988-1.169 1.439-4.045 2.336-2.786 4.224-6.92 4.224-9.437 0-.81.36-2.337.719-3.506 1.528-3.954.72-5.572-1.079-2.426m42.334-10.067c1.438 1.438.63 3.775-2.516 8-4.674 6.201-8.09 9.706-9.078 9.257-.45-.18-.81-.63-.81-1.079 0-.898 3.236-7.37 6.382-12.852 2.068-3.596 2.337-3.865 3.865-3.865.81 0 1.798.27 2.157.539m-5.303-.72c-1.078 1.08-2.696 3.506-3.595 5.484-.899 1.887-1.977 3.685-2.337 3.954-.36.27-.988 1.349-1.348 2.247-.899 2.247-1.438 2.697-4.314 3.685-2.876.99-4.225.99-5.034 0-.539-.629-.449-1.078.18-2.516.72-1.618.72-1.798 0-2.067-2.337-.9-3.415 4.583-1.258 6.381 1.528 1.258 3.325 1.169 5.842-.09 2.067-1.078 3.236-1.258 3.236-.54 0 .27-.899 3.327-1.978 6.832-1.078 3.505-2.157 7.37-2.337 8.628-.27 1.978-.18 2.158.63 1.978.988-.18 1.348-1.169 3.505-9.887.989-3.775 1.798-5.033 3.595-5.033.72 0 1.798-.36 2.337-.9 1.348-1.168 8.09-9.347 9.527-11.684 2.337-3.685.9-7.64-2.966-8.269-1.617-.18-1.977 0-3.685 1.798M64.08.814C51.497 6.656 42.15 13.667 37.385 20.857c-3.685 5.483-7.37 12.584-7.19 13.752.09.809.63.36 2.247-2.157 1.168-1.798 2.696-4.314 3.415-5.753 2.877-5.213 4.764-7.73 8.45-11.055 6.47-6.022 20.312-14.47 20.312-12.313 0 .18-1.618 2.247-3.595 4.583-4.134 5.034-12.403 13.213-19.953 19.864-2.877 2.517-6.112 5.573-7.011 6.831-1.169 1.438-2.157 2.157-3.056 2.247-.809 0-2.067.899-3.416 2.247-1.168 1.258-6.201 5.393-11.145 9.348C3.321 58.607-2.072 64 .714 64c.27 0 2.157-1.528 4.135-3.415 3.865-3.686 9.437-8.36 16.538-13.842 2.516-1.888 5.752-4.584 7.19-5.842 1.528-1.349 3.056-2.427 3.416-2.427.898 0 .809 1.078-.09 2.247-1.888 2.517.09 3.775 2.247 1.438 1.168-1.258 2.696-1.618 3.235-.72.54.81 1.708.54 3.416-.718 1.887-1.438 2.337-1.258 2.337 1.078 0 1.888.36 1.978 2.606.9 1.438-.72 1.618-.72 1.978 0 .27.449.719.808.988.808.81 0 5.483-5.393 8.18-9.437 2.696-4.135 4.494-5.573 2.876-2.247-2.787 5.482-3.236 10.426-.989 10.066.72-.09.989-.45.899-.898-.899-3.056.27-6.562 6.292-18.875 2.336-4.764-.09-4.135-2.697.719-.899 1.617-3.415 5.213-5.572 7.91-2.158 2.785-4.315 5.572-4.674 6.29-.9 1.619-1.259 1.888-2.607 1.619-.719-.18-1.528.27-2.516 1.348-2.248 2.337-4.225 1.797-2.248-.63 1.439-1.797 1.259-2.246-1.078-2.067-1.438.09-2.517.54-3.416 1.439-1.887 1.797-3.055 1.707-3.055-.18 0-1.888-.72-1.888-1.708-.09-1.079 2.067-2.157 2.876-2.876 2.157-.45-.45-.09-1.079 1.348-2.607 1.618-1.617 1.797-2.067 1.258-2.516-.899-.54-1.348-.09 6.292-6.561 6.92-5.933 17.347-16.269 20.313-20.224 1.258-1.618 2.876-4.134 3.595-5.572C67.945-.175 67.496-.714 64.08.814" />
</svg>