<svg xmlns="http://www.w3.org/2000/svg" width="1200" height="630" viewBox="0 0 1200 630"><g fill="none" fill-rule="evenodd"><rect width="1200" height="630" fill="#FFF"/><polygon fill="#2F394C" points="0 0 1200 0 1200 630 0 630"/><path fill="#FFF" d="M1200,0 L1200,630 L0,630 L490.163266,376.786 C479.871725,358.53002 474,337.450717 474,315 C474,245.412122 530.412122,189 600,189 C647.138599,189 688.231287,214.88562 709.838711,253.217507 L1200,0 Z M600,203 C538.144108,203 488,253.144108 488,315 C488,376.855892 538.144108,427 600,427 C661.855892,427 712,376.855892 712,315 C712,253.144108 661.855892,203 600,203 Z M600,231 C630.01031,231 657.74098,247.010309 672.746135,273 C687.75129,298.98969 687.75129,331.01031 672.746135,357 C657.991066,382.556529 630.931131,398.463551 601.498567,398.986686 L600,399 L600,231 Z"/></g></svg>