<svg xmlns="http://www.w3.org/2000/svg" width="320" height="180" viewBox="0 0 320 180">
  <g fill="none" fill-rule="evenodd">
    <rect width="320" height="180" fill="var(--color__base, #2F394C)" />
    <path fill="var(--color__contrast, #FFF)" d="M320,0 L320,180 L0,180 L128.618076,107.653143 C125.677636,102.437149 124,96.4144907 124,90 C124,70.117749 140.117749,54 160,54 C173.468171,54 185.208939,61.3958915 191.382489,72.3478593 L320,0 Z M160,58 C142.326888,58 128,72.326888 128,90 C128,107.673112 142.326888,122 160,122 C177.673112,122 192,107.673112 192,90 C192,72.326888 177.673112,58 160,58 Z M160,66 C168.574374,66 176.497423,70.574374 180.78461,78 C185.071797,85.4256258 185.071797,94.5743742 180.78461,102 C176.568876,109.301866 168.837466,113.846729 160.428162,113.996196 L160,114 L160,66 Z" />
  </g>
</svg>