<?xml version="1.0" encoding="UTF-8" standalone="no"?>
<svg width="360px" height="104px" viewBox="0 0 360 104" version="1.1" xmlns="http://www.w3.org/2000/svg" xmlns:xlink="http://www.w3.org/1999/xlink" xmlns:sketch="http://www.bohemiancoding.com/sketch/ns">
    <!-- Generator: Sketch 3.4.4 (17249) - http://www.bohemiancoding.com/sketch -->
    <title>naish-logo</title>
    <desc>Created with Sketch.</desc>
    <defs></defs>
    <g id="Page-1" stroke="none" stroke-width="1" fill="none" fill-rule="evenodd" sketch:type="MSPage">
        <g id="naish-logo" sketch:type="MSArtboardGroup">
            <rect id="bg" sketch:type="MSShapeGroup" x="0" y="0" width="360" height="104"></rect>
            <g sketch:type="MSLayerGroup" transform="translate(72.000000, 0.000000)" id="logo" fill="#231F20">
                <path d="M179.00083,39.2697095 C179.173444,38.7087137 179.777593,38.3634855 180.209129,38.0182573 C180.338589,37.8887967 180.59751,37.5004149 180.813278,37.3709544 C181.244813,37.1120332 181.848963,37.1983402 182.021577,36.5078838 C182.841494,36.4215768 182.280498,37.7593361 182.496266,38.320332 C181.546888,38.9244813 180.295436,38.7087137 179.00083,39.2697095 M161.221577,40.2190871 C160.919502,40.1327801 160.574274,40.0896266 160.574274,39.7012448 C160.272199,39.4423237 160.40166,38.7518672 160.142739,38.4929461 C160.099585,36.4215768 160.013278,35.5153527 160.40166,33.9618257 C160.315353,33.0124481 160.53112,32.3219917 160.746888,31.7178423 C161.048963,31.0705394 160.876349,29.9917012 161.480498,29.646473 C162.300415,33.5302905 163.983402,36.4647303 165.148548,40.0033195 C163.810788,40.046473 162.516183,40.1327801 161.221577,40.2190871 M148.491286,41.2116183 C149.009129,40.3917012 149.526971,39.5717842 150.087967,38.7950207 C150.217427,37.7593361 150.00166,37.5435685 150.433195,36.7236515 C150.044813,36.3352697 150.562656,36.3352697 150.390041,35.6879668 C150.605809,35.126971 149.958506,34.479668 150.346888,34.479668 C151.425726,36.5078838 152.029876,39.0107884 153.367635,40.780083 C151.727801,40.9095436 150.087967,41.0390041 148.491286,41.2116183 M150.346888,34.0481328 C150.476349,34.1344398 150.217427,34.3070539 150.13112,34.2639004 C150.044813,34.1775934 150.303734,34.0049793 150.346888,34.0481328 M139.299585,42.1609959 C139.774274,41.5136929 140.292116,40.8232365 140.723651,40.1327801 C140.766805,39.4423237 139.817427,39.8307054 140.076349,38.9244813 C139.515353,38.8381743 139.687967,37.9319502 139.429046,37.5004149 C139.558506,36.766805 139.817427,35.126971 140.33527,34.1775934 C140.551037,33.659751 140.809959,33.1419087 141.112033,32.7103734 C141.673029,32.7103734 141.673029,31.1136929 142.104564,31.6746888 C142.061411,33.9186722 142.147718,34.1775934 142.277178,36.5941909 C142.708714,37.3278008 142.622407,38.6224066 143.183402,39.226556 C143.097095,40.0033195 143.960166,40.6937759 143.658091,41.4705394 C143.787552,41.5136929 143.873859,41.6 143.917012,41.6863071 C142.363485,41.8157676 140.809959,41.9883817 139.299585,42.1609959 M135.631535,42.5925311 C132.351867,42.9809129 129.158506,43.4556017 125.965145,43.9302905 L126.828216,42.5925311 C127.604979,41.8589212 128.46805,41.2116183 128.813278,40.0896266 C128.899585,39.4423237 128.424896,39.3991701 128.554357,38.6655602 C128.813278,38.6224066 128.683817,38.4497925 128.554357,38.2340249 C129.072199,37.6298755 129.115353,36.0763485 129.287967,35.7311203 C129.374274,34.5659751 129.848963,33.7460581 130.237344,32.839834 C130.323651,32.1925311 130.582573,31.7178423 130.582573,30.9842324 C131.100415,30.7253112 130.539419,29.4738589 131.359336,29.5170124 C131.920332,33.4439834 133.646473,37.586722 135.2,41.0821577 C134.984232,42.0315353 135.545228,42.0746888 135.674689,42.5062241 C135.674689,42.5493776 135.674689,42.5493776 135.631535,42.5925311 M215.292946,51.4390041 C215.422407,50.5327801 214.904564,51.6116183 214.861411,51.0506224 C214.343568,51.1369295 214.688797,50.2738589 214.041494,50.446473 C213.437344,50.7485477 213.26473,51.4390041 212.229046,51.3095436 C210.114523,50.7485477 209.985062,48.073029 209.208299,46.0879668 C208.949378,43.5419087 207.870539,41.8589212 207.741079,39.1834025 C206.40332,34.8680498 205.971784,29.6033195 204.806639,25.1153527 C204.849793,24.6406639 204.979253,23.6049793 204.720332,22.6556017 C204.806639,22.2240664 205.195021,22.0514523 205.108714,21.4041494 C204.806639,20.6705394 204.375104,20.06639 204.029876,19.3759336 C203.080498,19.5917012 202.346888,20.2390041 201.613278,20.6705394 C200.793361,21.1883817 199.973444,21.619917 199.19668,22.1809129 C198.980913,22.6987552 198.851452,23.3029046 198.419917,23.6481328 C198.765145,24.2522822 198.376763,24.4248963 198.678838,24.8564315 C197.556846,26.453112 196.952697,28.5244813 196.00332,30.2937759 C195.960166,31.7609959 195.140249,33.3576763 194.708714,35.0406639 C194.751867,35.9037344 194.449793,36.3352697 194.363485,37.5004149 C193.975104,38.2340249 194.234025,39.6149378 193.629876,40.1759336 C192.33527,35.7311203 190.911203,30.5958506 190.479668,24.6838174 C189.918672,17.3908714 190.13444,9.7526971 188.753527,3.193361 C188.79668,3.06390041 189.228216,2.37344398 188.710373,2.37344398 C188.79668,1.98506224 189.271369,1.98506224 189.098755,1.33775934 C188.451452,1.33775934 188.79668,0.258921162 188.063071,0.345228216 C187.458921,0.172614108 186.336929,1.25145228 185.646473,1.63983402 C185.128631,1.81244813 184.86971,2.2439834 184.222407,2.28713693 C184.222407,2.93443983 183.143568,2.58921162 183.229876,3.32282158 C183.747718,5.04896266 184.049793,6.81825726 184.222407,8.84647303 C184.351867,9.96846473 184.653942,11.219917 184.740249,12.2987552 C184.99917,15.146888 185.171784,17.8655602 185.214938,20.2821577 C185.214938,20.6705394 185.430705,21.1452282 185.473859,21.4904564 C185.517012,22.353527 184.99917,26.0647303 185.214938,26.6257261 C185.301245,26.8414938 185.042324,26.9709544 185.042324,27.0572614 C184.956017,28.826556 184.610788,29.9485477 183.920332,30.9842324 C181.546888,27.2298755 178.39668,24.2954357 175.980083,20.5842324 C176.454772,19.0738589 177.317842,17.8655602 177.663071,16.2257261 C177.102075,15.3626556 176.713693,14.5858921 175.764315,14.4564315 C174.297095,14.2406639 173.13195,15.7078838 172.139419,16.2257261 C171.103734,16.9593361 169.722822,17.3908714 169.161826,18.5991701 C169.420747,20.9294606 171.190041,21.6630705 172.182573,23.2165975 C171.578423,24.6838174 171.276349,26.6688797 170.672199,27.5751037 L170.715353,28.9991701 C169.938589,30.2506224 170.154357,32.4514523 169.420747,33.7460581 C169.593361,34.8248963 169.118672,35.2995851 169.291286,36.4215768 C168.816598,36.8962656 169.291286,38.2771784 168.557676,38.4929461 C167.176763,33.4439834 163.983402,28.6539419 164.371784,23.0439834 C164.717012,22.0514523 165.709544,21.2746888 165.321162,20.1526971 C164.889627,19.8937759 164.717012,19.3759336 164.242324,19.160166 C162.60249,20.5410788 160.315353,21.2746888 158.804979,22.8282158 C159.279668,23.4323651 159.66805,24.1659751 159.883817,25.0290456 C160.013278,25.6763485 159.538589,25.6763485 159.926971,26.0647303 C158.157676,29.7327801 156.863071,34.9112033 156.647303,38.8813278 C155.611618,37.1983402 154.446473,34.6522822 154.014938,33.0124481 C153.712863,31.7609959 153.324481,30.6390041 153.281328,29.1286307 C152.590871,28.006639 153.281328,27.3593361 152.547718,26.0647303 C152.849793,25.7195021 152.461411,25.5037344 152.720332,24.813278 C152.677178,24.1228216 151.986722,24.079668 151.857261,23.3892116 C149.958506,24.2522822 149.052282,26.0647303 147.455602,27.2298755 C148.016598,27.8771784 147.628216,28.2655602 147.714523,29.2580913 C147.455602,30.9410788 147.412448,32.2356846 147.06722,34.1775934 C146.980913,36.5078838 147.326141,36.5510373 146.765145,38.0614108 C145.211618,35.6016598 144.736929,31.93361 145.211618,27.8771784 C146.765145,26.6257261 148.146058,25.2016598 149.613278,23.8207469 C149.440664,22.7419087 148.6639,22.3103734 147.714523,22.0514523 C145.729461,23.3029046 144.219087,24.9858921 142.751867,26.7120332 C142.622407,27.4887967 142.66556,27.2298755 142.579253,28.1360996 C141.06888,29.8190871 139.817427,31.7609959 138.436515,33.6165975 C138.436515,34.5228216 137.832365,35.3858921 137.314523,36.3352697 C135.976763,33.573444 135.113693,30.3369295 134.552697,26.7983402 C134.552697,25.0290456 134.854772,22.2672199 134.984232,21.2315353 L133.73278,20.0232365 C131.920332,20.9726141 130.66888,22.439834 128.942739,23.4755187 L129.029046,25.7195021 C128.640664,26.6688797 128.813278,26.9278008 128.683817,27.9634855 C128.46805,28.6107884 128.165975,29.2149378 128.122822,30.0348548 C127.691286,30.5095436 127.993361,31.6746888 127.346058,31.8904564 C127.087137,29.0854772 126.612448,27.186722 126.526141,25.1585062 C126.741909,24.1659751 127.777593,22.6987552 126.828216,21.8788382 C126.094606,21.53361 125.447303,22.7850622 124.8,23.173444 C124.152697,23.8207469 122.987552,23.993361 122.814938,25.0721992 C122.814938,25.2016598 122.771784,25.3311203 122.59917,25.2879668 C123.33278,28.8697095 123.807469,33.0987552 124.627386,37.3278008 C124.756846,39.0107884 124.411618,39.7012448 124.756846,40.9958506 C124.368465,41.8157676 123.980083,42.6356846 123.807469,43.6713693 L124.195851,43.9302905 C104.560996,46.9941909 86.1344398,51.4821577 68.7004149,57.566805 C65.4639004,58.6887967 62.2273859,59.940249 58.9045643,61.3211618 C33.5302905,72.3253112 7.29294606,90.1045643 0,96.7502075 L0.043153527,96.7070539 C17.4771784,86.0912863 52.4746888,84.2356846 68.2257261,92.1759336 C68.3983402,92.2622407 68.6141079,92.3485477 68.786722,92.4780083 L68.8298755,92.4780083 C73.7925311,82.6390041 89.1120332,71.3327801 107.409129,61.66639 C121.261411,54.3302905 136.839834,47.9435685 150.907884,43.8439834 L154.662241,42.8082988 L155.654772,44.1892116 C156.431535,45.1385892 157.121992,46.1742739 158.416598,46.5626556 C159.66805,44.8365145 161.26473,43.4124481 162.343568,41.5136929 C162.386722,41.2547718 162.257261,41.0821577 162.127801,40.9958506 C163.206639,40.780083 164.242324,40.5643154 165.321162,40.3917012 L165.407469,40.6074689 C165.407469,41.5136929 165.364315,42.5062241 165.882158,42.8514523 C165.493776,43.8008299 165.321162,44.7502075 165.148548,45.7427386 C165.752697,46.1742739 165.839004,45.8290456 166.184232,46.5195021 C167.521992,46.0448133 168.126141,44.9228216 168.989212,43.973444 C169.809129,43.0240664 170.672199,42.1178423 171.362656,41.0390041 C171.837344,36.1626556 173.045643,32.2356846 173.779253,27.2298755 C174.426556,27.1435685 174.297095,26.2373444 174.556017,25.7626556 C177.447303,28.3087137 179.820747,31.4589212 181.633195,35.1701245 C180.59751,36.5078838 178.828216,37.1551867 177.619917,38.3634855 C177.188382,38.3634855 176.8,38.406639 176.411618,38.406639 C175.33278,40.046473 173.692946,41.1684647 172.873029,43.0240664 C173.347718,43.153527 173.822407,43.2829876 173.908714,43.8008299 C176.541079,42.6788382 180.295436,42.6356846 182.625726,41.2547718 C183.661411,39.6580913 185.344398,38.6655602 185.948548,36.6373444 C186.034855,35.0406639 185.301245,34.393361 184.99917,33.1850622 C185.991701,32.1925311 186.595851,30.8547718 187.329461,29.6033195 C188.019917,32.7103734 188.235685,36.2489627 189.487137,38.7518672 C190.048133,41.9452282 191.644813,44.059751 192.421577,47.0804979 C192.248963,47.9435685 192.248963,48.3751037 192.076349,49.540249 L193.327801,50.3170124 C194.190871,50.1875519 194.320332,49.4107884 194.708714,48.8497925 C195.26971,48.4614108 195.787552,48.0298755 196.089627,47.3825726 C196.521162,46.8647303 197.341079,46.6921162 197.686307,46.0879668 C195.571784,43.6713693 197.039004,39.0970954 197.168465,35.8605809 C197.902075,34.3070539 198.160996,32.2788382 198.851452,30.6821577 C198.937759,29.646473 199.628216,29.1717842 199.80083,28.1792531 C200.275519,27.4887967 200.404979,26.4962656 200.965975,25.8921162 C201.872199,27.8340249 202.087967,30.5095436 202.433195,33.0124481 C203.296266,34.9543568 203.209959,37.8456432 204.073029,39.7443983 C204.375104,42.2473029 205.281328,44.1029046 205.540249,46.6489627 C206.273859,47.5551867 206.230705,49.3244813 206.878008,50.3170124 C207.007469,51.6979253 207.913693,52.9925311 207.611618,54.2008299 C208.215768,54.6755187 208.388382,55.6248963 208.906224,56.2290456 C209.985062,56.746888 210.977593,56.8763485 212.013278,56.9626556 C212.53112,56.013278 213.221577,55.193361 213.782573,54.2439834 C214.214108,53.9419087 214.170954,53.1219917 214.775104,52.9925311 C214.60249,52.0863071 215.767635,51.9568465 215.292946,51.4390041 M169.420747,61.6232365 C158.416598,58.5593361 147.973444,54.9775934 138.220747,51.0074689 C133.042324,52.9493776 127.73444,55.1502075 122.556017,57.4804979 C126.353527,58.9477178 130.280498,60.3286307 134.46639,61.6232365 C134.595851,61.66639 134.725311,61.7095436 134.811618,61.7526971 C115.047303,67.4921162 98.4763485,75.7775934 84.7966805,87.2995851 C83.2431535,86.0481328 81.646473,84.839834 80.006639,83.6315353 C76.2954357,87.0406639 73.3609959,90.4497925 71.5053942,93.7294606 L71.5485477,93.7726141 C76.1659751,96.9659751 80.5676349,100.33195 84.839834,103.870539 L84.9692946,104 L85.1850622,103.827386 C107.495436,84.0630705 135.588382,70.426556 169.679668,61.7526971 L169.765975,61.7095436 L169.679668,61.66639 L169.420747,61.6232365 M31.0705394,71.980083 C35.3858921,69.5634855 39.8307054,67.146888 44.4049793,64.9029046 L44.3618257,64.9029046 C41.3842324,63.7809129 38.2340249,62.7452282 35.0838174,61.7526971 L35.4721992,61.6232365 C65.7659751,52.73361 85.1850622,36.2921162 85.1850622,36.2921162 C89.673029,39.8738589 94.3767635,43.1103734 99.3825726,46.1311203 C105.898755,44.6639004 112.630705,43.3692946 119.53527,42.2473029 C107.020747,35.6879668 95.5850622,28.1360996 85.1850622,19.2896266 C85.1850622,19.2896266 56.1427386,48.5477178 1.46721992,61.6232365 L0.99253112,61.7526971 L0.604149378,61.8390041 L0.690456432,61.8821577 C11.4788382,64.7302905 21.53361,68.0962656 31.0705394,71.980083 M158.546058,15.146888 C158.718672,16.0099585 158.977593,16.786722 159.452282,17.3908714 C160.142739,17.2614108 160.40166,16.6572614 160.833195,16.3120332 C161.696266,16.2257261 161.782573,15.4921162 162.429876,15.233195 C161.86888,13.9385892 161.912033,12.5145228 162.300415,11.13361 L161.437344,9.9253112 C160.142739,10.1410788 159.581743,11.0473029 158.848133,11.6514523 C158.071369,12.2556017 157.208299,12.6008299 156.647303,13.3775934 C157.251452,13.9817427 157.898755,14.5858921 158.546058,15.146888" sketch:type="MSShapeGroup"></path>
            </g>
        </g>
    </g>
</svg>