<svg height="64" viewBox="0 0 240 240" width="64" xmlns="http://www.w3.org/2000/svg">
  <g fill="none" fill-rule="evenodd">
    <path d="m0 0h240v240h-240z" fill="#428069" />
    <path
      d="m206.96543 112.625033-5.334343-2.937255-6.192238-4.400381s14.144259-13.5091714 8.424963-15.9073793c-5.719296-2.4202099-14.518213-5.3464636-14.518213-5.3464636s10.448714-15.6983611 6.269228-16.8534613l-4.069499-1.1440992-11.515582-.946082s8.996892-16.435425 1.825775-16.435425h-12.26349s4.344465-23.8720698-6.599188-14.4552533l-17.63083 14.4552533-7.171117 6.2705437c-7.171117 6.2925456-12.318484 30.3626325-13.946283 36.2371419-.197976 1.1440992-.582928 1.9801717-1.264844 2.618227-1.066869 2.618227-2.903643 6.0725265-6.775166 8.6907538-4.069499 2.618227-7.369093 2.937254-9.876785 2.42021l-.769905-1.166102c2.903643.22002 6.192238-.220019 9.876784-2.618227 2.023751-1.4631264 3.486571-2.9262533 4.729418-4.5983983-1.825775.726063-4.069499 1.1440992-6.57719 2.2001908-5.125369 1.9801715-5.323345 0-5.323345 0-22.5692217-27.9644246-48.042086-30.8906783-48.042086-30.8906783s-26.4407452-6.0725265-17.1578879 10.5609156l5.9172716 6.2925456s-18.6976984 4.6204006-11.5265811 12.5630893c7.1711172 7.9646903 7.1711172 8.1737083 7.1711172 8.1737083s-16.1680097 9.427818-11.9115337 13.091135l4.3554639 3.553308 7.3690928 4.818418s-12.2964863 12.552089-9.4918315 14.752279c2.9146412 2.200191 13.3743536 7.546655 13.3743536 7.546655s-11.5265811 16.853461-2.2327252 17.051478l9.2058668.220019h1.8367739s-6.3792147 21.253843-2.9036425 20.736798c3.4865708-.528046 3.6845464-.220019 3.6845464-.220019l11.3286055-1.144099s-8.0290117 27.535387 3.1016182 21.253843l11.0426406-6.270544s31.9730644-29.020516 35.0856814-47.74414c0 0 1.242847-14.9943 5.895274-16.457427 0 0 3.871523-3.564309 12.098511 9.625835 0 0 15.211127 20.516779 42.916717 19.581698 0 0 25.472864 3.872336 20.732448-4.400382-4.751416-8.173708-9.491832-14.246235-10.448714-14.961297 0 0 19.65458-4.6204 15.398104-9.647836l-4.267474-5.027436-6.599188-6.79859c-.57193.440038 18.312746-9.207798 12.791425-12.354071z"
      fill="var(--color__contrast)" />
  </g>
</svg>