<svg xmlns="http://www.w3.org/2000/svg" width="64" height="64" viewBox="0 0 64 64"><path fill="#FFF" d="M1.103 17.042h61.794l-1.104-1.104v41.958l1.104-1.104H1.103l1.104 1.104V15.938"/><path fill="#C6D6D1" d="M1 7h62v9H1z"/><path class="darkest" fill="#4E5250" d="M0 57.896V59h64V6H0v51.896zm1.103-40.854h61.794l-1.104-1.105v41.96l1.104-1.105H1.103l1.104 1.104V15.937l-1.104 1.105zm0-8.834h61.794l-1.104-1.104v8.834l1.104-1.105H1.103l1.104 1.104V7.104L1.103 8.208zm4.414 5.52c1.22 0 2.207-.988 2.207-2.207 0-1.22-.988-2.207-2.207-2.207-1.22 0-2.207.988-2.207 2.208 0 1.22.988 2.21 2.207 2.21zm0-2.207zm5.517 2.21c1.22 0 2.207-.99 2.207-2.21s-.987-2.207-2.206-2.207c-1.218 0-2.206.988-2.206 2.208 0 1.22.988 2.21 2.206 2.21zm0-2.21zm5.518 2.21c1.22 0 2.207-.99 2.207-2.21s-.99-2.207-2.208-2.207c-1.22 0-2.207.988-2.207 2.208 0 1.22.988 2.21 2.207 2.21zm0-2.21zm19.4 13.368L26.02 48.075c-.24.56.02 1.21.58 1.45.56.24 1.21-.02 1.45-.58l9.93-23.187c.24-.56-.02-1.21-.58-1.45-.56-.24-1.21.02-1.45.58zM24.725 42.053l-10.785-6.63v1.882l10.786-6.63c.52-.318.682-.998.363-1.518-.32-.52-1-.682-1.52-.363l-10.784 6.63c-.7.43-.7 1.45 0 1.88l10.785 6.63c.52.32 1.2.158 1.52-.362.318-.52.156-1.2-.364-1.52zm25.455-4.748v-1.88l-10.784 6.628c-.52.32-.682 1-.363 1.52.32.52 1 .68 1.518.362l10.786-6.63c.7-.43.7-1.45 0-1.88l-10.785-6.63c-.518-.32-1.198-.158-1.517.362-.32.52-.156 1.2.363 1.52l10.785 6.628z"/></svg>