<svg viewBox="0 0 1200 630" fill="none" xmlns="http://www.w3.org/2000/svg">
  <rect x="441.5" y="104.5" width="317" height="117" rx="22.5" fill="var(--color__contrast, white)" />
  <rect x="441.5" y="104.5" width="317" height="117" rx="22.5"
    stroke="var(--color__base--semi, #C7C9D0)" stroke-width="3" />
  <rect x="452" y="115" width="296" height="96" rx="24" fill="var(--color__contrast, white)" />
  <rect x="476" y="155" width="196" height="16" rx="8" fill="var(--color__base--mid, #767D8B)" />
  <path d="M717.25 157.375L706 168.625L694.75 157.375" stroke="var(--color__base--mid, #767D8B)"
    stroke-width="4"
    stroke-linecap="round" stroke-linejoin="round" />
  <g filter="url(#filter0_d_1_22)">
    <rect x="360" y="239" width="480" height="288" rx="24" fill="var(--color__contrast, white)"
      shape-rendering="crispEdges" />
    <rect x="361.5" y="240.5" width="477" height="285" rx="22.5"
      stroke="var(--color__base--light, #E2E4E7)" stroke-width="3"
      shape-rendering="crispEdges" />
    <mask id="path-7-inside-1_1_22" fill="var(--color__contrast, white)">
      <path d="M360 239H840V335H360V239Z" />
    </mask>
    <path d="M840 332H360V338H840V332Z" fill="white"
      mask="url(#path-7-inside-1_1_22)" />
    <rect x="384" y="279" width="380" height="16" rx="8" fill="var(--color__base, #2F394C)" />
    <path d="M786.75 288.125L795.75 297.125L809.25 276.875"
      stroke="var(--color__highlight, #428069)" stroke-width="4"
      stroke-linecap="round" stroke-linejoin="round" />
    <mask id="path-11-inside-2_1_22" fill="var(--color__contrast, white)">
      <path d="M360 335H840V431H360V335Z" />
    </mask>
    <path d="M840 428H360V434H840V428Z" fill="white"
      mask="url(#path-11-inside-2_1_22)" />
    <rect x="384" y="375" width="380" height="16" rx="8" fill="var(--color__base, #2F394C)" />
    <rect x="384" y="471" width="380" height="16" rx="8" fill="var(--color__base, #2F394C)" />
  </g>
  <defs>
    <filter id="filter0_d_1_22" x="328" y="223" width="544" height="352"
      filterUnits="userSpaceOnUse" color-interpolation-filters="sRGB">
      <feFlood flood-opacity="0" result="BackgroundImageFix" />
      <feColorMatrix in="SourceAlpha" type="matrix"
        values="0 0 0 0 0 0 0 0 0 0 0 0 0 0 0 0 0 0 127 0" result="hardAlpha" />
      <feOffset dy="16" />
      <feGaussianBlur stdDeviation="16" />
      <feComposite in2="hardAlpha" operator="out" />
      <feColorMatrix type="matrix" values="0 0 0 0 0 0 0 0 0 0 0 0 0 0 0 0 0 0 0.125 0" />
      <feBlend mode="normal" in2="BackgroundImageFix" result="effect1_dropShadow_1_22" />
      <feBlend mode="normal" in="SourceGraphic" in2="effect1_dropShadow_1_22" result="shape" />
    </filter>
  </defs>
</svg>