<?xml version="1.0" encoding="UTF-8" standalone="no"?>
<svg width="360px" height="104px" viewBox="0 0 360 104" version="1.1" xmlns="http://www.w3.org/2000/svg" xmlns:xlink="http://www.w3.org/1999/xlink" xmlns:sketch="http://www.bohemiancoding.com/sketch/ns">
    <!-- Generator: Sketch 3.4.4 (17249) - http://www.bohemiancoding.com/sketch -->
    <title>uevo-logo</title>
    <desc>Created with Sketch.</desc>
    <defs></defs>
    <g id="Page-1" stroke="none" stroke-width="1" fill="none" fill-rule="evenodd" sketch:type="MSPage">
        <g id="uevo-logo" sketch:type="MSArtboardGroup">
            <rect id="bg" sketch:type="MSShapeGroup" x="0" y="0" width="360" height="104"></rect>
            <g sketch:type="MSLayerGroup" transform="translate(86.000000, 28.000000)">
                <path d="M169.36,8 C167.4,8 164.56,10.64 162.28,14.58 C159.78,18.9 158.1,24.36 158.1,28.14 C158.1,34.34 163.16,39.4 169.36,39.4 C172.36,39.4 175.18,38.22 177.32,36.1 C179.46,33.96 180.62,31.14 180.62,28.14 C180.62,24.36 178.94,18.92 176.44,14.58 C174.16,10.64 171.3,8 169.36,8" id="egg" fill="#F4EF9E" sketch:type="MSShapeGroup"></path>
                <path d="M17.54,48 C7.1,48 0,40.62 0,30.46 L0,2.76 C0,1.74 0.84,0.92 1.84,0.92 L6.46,0.92 C7.48,0.92 8.3,1.76 8.3,2.76 L8.3,30.46 C8.3,35.82 12.08,39.7 18.46,39.7 C24.18,39.7 28.62,36.28 28.62,30.94 L28.62,2.76 C28.62,1.74 29.46,0.92 30.46,0.92 L35.08,0.92 C36.1,0.92 36.92,1.76 36.92,2.76 L36.92,45.22 C36.92,46.24 36.08,47.06 35.08,47.06 L31.02,47.06 C30.46,47.06 30.1,46.78 29.72,46.42 C29.16,45.78 28.34,44.94 27.42,44.94 C24.74,44.96 24.36,48 17.54,48 Z M69.6,39.7 C74.4,39.7 78,37.3 79.1,33.88 C79.46,32.68 80.4,32.32 81.22,32.32 L85.92,32.32 C86.84,32.32 87.68,32.88 87.48,34.16 C86.4,42.18 79.2,48 69.6,48 C58.52,48 51.42,40.16 50.68,30.46 C50.4,26.76 50.4,21.22 50.68,17.54 C51.4,7.84 58.52,0 69.6,0 C80.76,0 88.06,6.92 88.06,18.46 L88.06,24.82 C88.06,25.84 87.22,26.66 86.22,26.66 L59.8,26.66 C59.24,26.66 58.88,27.02 58.88,27.58 C58.88,36 63.22,39.68 69.6,39.7 Z M60,19.3 L79.2,19.3 C79.76,19.3 80.12,18.92 80.12,18.38 C80.12,12.02 75.42,8.32 69.68,8.32 C63.32,8.32 59.06,12.76 59.06,18.38 C59.08,18.92 59.44,19.3 60,19.3 L60,19.3 Z M132.74,2.3 C133.1,1.28 133.66,0.92 134.5,0.92 L140.22,0.92 C141.7,0.92 142.34,2.12 141.98,3.04 L125.74,45.68 C125.38,46.6 124.82,47.06 123.98,47.06 L118.9,47.06 C118.06,47.06 117.52,46.6 117.14,45.68 L100.82,3.04 C100.44,2.12 101.1,0.92 102.58,0.92 L108.3,0.92 C109.14,0.92 109.68,1.3 110.06,2.3 L120.76,33.04 C120.94,33.68 121.86,33.68 122.06,33.04 L132.74,2.3 L132.74,2.3 Z M169.36,47.08 C158.92,47.08 150.42,38.58 150.42,28.14 C150.42,23.04 152.46,16.22 155.64,10.74 C159.52,4.02 164.4,0.32 169.36,0.32 C174.32,0.32 179.2,4.02 183.08,10.74 C186.24,16.22 188.3,23.04 188.3,28.14 C188.3,38.58 179.8,47.08 169.36,47.08 L169.36,47.08 Z M169.36,8 C167.4,8 164.56,10.64 162.28,14.58 C159.78,18.9 158.1,24.36 158.1,28.14 C158.1,34.34 163.16,39.4 169.36,39.4 C172.36,39.4 175.18,38.22 177.32,36.1 C179.46,33.98 180.62,31.14 180.62,28.14 C180.62,24.36 178.94,18.92 176.44,14.58 C174.16,10.64 171.3,8 169.36,8 L169.36,8 Z" id="wordmark" fill="#222222" sketch:type="MSShapeGroup"></path>
            </g>
        </g>
    </g>
</svg>