<?xml version="1.0" encoding="UTF-8" standalone="no"?>
<svg width="424px" height="169px" viewBox="0 0 424 169" version="1.1" xmlns="http://www.w3.org/2000/svg" xmlns:xlink="http://www.w3.org/1999/xlink">
    <!-- Generator: Sketch 39.1 (31720) - http://www.bohemiancoding.com/sketch -->
    <title>Group 2</title>
    <desc>Created with Sketch.</desc>
    <defs></defs>
    <g id="Page-1" stroke="none" stroke-width="1" fill="none" fill-rule="evenodd">
        <g id="Group-2">
            <rect id="Rectangle" fill="#FFFFFF" x="0" y="0.5" width="424" height="168" rx="16"></rect>
            <g id="yodlerestaurants-logo" transform="translate(32.000000, 32.500000)">
                <g id="Page-1">
                    <g id="yr-logo">
                        <rect id="bg" x="0" y="0" width="360" height="104"></rect>
                        <g id="Group">
                            <path d="M116.628142,86.604664 L119.839684,86.604664 L119.839684,73.7414229 C119.839684,73.1373913 119.492727,72.7920949 118.884664,72.7920949 L116.411621,72.7920949 L116.411621,68.6914625 L122.18253,68.6914625 C124.135731,68.6914625 125.133676,69.5117787 125.133676,71.367747 L125.133676,72.6623715 C125.133676,73.4829249 125.046877,74.0437945 125.046877,74.0437945 L125.133676,74.0437945 C126.131858,70.8932016 128.778735,68.3893281 132.163636,68.3893281 C132.684427,68.3893281 133.161818,68.4758893 133.161818,68.4758893 L133.161818,73.8711462 C133.161818,73.8711462 132.597628,73.7848221 131.81668,73.7848221 C127.347036,73.7848221 125.350435,77.6698814 125.350435,81.8136759 L125.350435,86.604664 L128.51834,86.604664 L128.51834,90.7052964 L116.628142,90.7052964 L116.628142,86.604664 L116.628142,86.604664 Z M146.701423,68.1735178 C153.080395,68.1735178 156.551621,72.7920949 156.551621,78.6192095 C156.551621,79.2668775 156.42166,80.4756522 156.42166,80.4756522 L141.103399,80.4756522 C141.451067,84.5328854 144.401739,86.604664 147.743004,86.604664 C151.344427,86.604664 154.165138,84.273913 154.165138,84.273913 L156.291462,88.1582609 C156.291462,88.1582609 152.906798,91.2232411 147.352411,91.2232411 C140.018656,91.2232411 135.462451,85.9572332 135.462451,79.698498 C135.462451,72.9218182 140.062292,68.1735178 146.701423,68.1735178 C146.701423,68.1735178 140.062292,68.1735178 146.701423,68.1735178 L146.701423,68.1735178 Z M150.867273,77.2382609 C150.780711,74.216917 148.914308,72.4038735 146.570988,72.4038735 C143.750751,72.4038735 141.754387,74.346166 141.233834,77.2382609 L150.867273,77.2382609 L150.867273,77.2382609 Z M159.677549,83.3672727 L164.36419,83.3672727 L164.36419,84.6623715 C164.36419,86.1732806 166.403715,86.9499605 168.703874,86.9499605 C170.916759,86.9499605 172.47913,86.1732806 172.47913,84.7055336 C172.47913,82.8495652 170.395968,82.3745455 167.444822,81.2954941 C164.190593,80.1728063 160.458498,78.6626087 160.458498,74.475415 C160.458498,69.8136759 165.145138,68.1735178 169.180791,68.1735178 C172.392332,68.1735178 177.165296,69.4254545 177.165296,72.74917 L177.165296,75.5544664 L172.435494,75.5544664 L172.435494,74.3027668 C172.435494,73.1805534 171.133755,72.4901976 169.180791,72.4901976 C167.444822,72.4901976 165.969723,73.0944664 165.969723,74.475415 C165.969723,76.2884585 168.139684,77.0222134 170.612727,77.7562055 C173.997391,78.8352569 177.989881,80.2162055 177.989881,84.5328854 C177.989881,88.9785771 173.73747,91.2232411 168.660237,91.2232411 C164.624585,91.2232411 159.677549,89.4967589 159.677549,85.9143083 L159.677549,83.3672727 L159.677549,83.3672727 Z M183.80585,72.7920949 L180.420711,72.7920949 L180.420711,68.6914625 L183.979209,68.6914625 L183.979209,62.6916996 L189.316838,62.6916996 L189.316838,68.6914625 L194.350672,68.6914625 L194.350672,72.7920949 L189.316838,72.7920949 L189.316838,82.0721739 C189.316838,85.8275099 192.180949,86.3456917 193.74332,86.3456917 C194.350672,86.3456917 194.741028,86.3025296 194.741028,86.3025296 L194.741028,90.7916206 C194.741028,90.7916206 194.04664,90.9208696 193.048696,90.9208696 C189.924427,90.9208696 183.80585,90.0147036 183.80585,82.6335178 L183.80585,72.7920949 L183.80585,72.7920949 Z M209.75668,77.1085375 L211.14498,77.1085375 L211.14498,76.3747826 C211.14498,73.5687747 209.36585,72.5765217 207.065692,72.5765217 C203.767826,72.5765217 200.81668,74.6914625 200.81668,74.6914625 L198.777391,70.8932016 C198.777391,70.8932016 202.205692,68.1735178 207.54332,68.1735178 C213.4883,68.1735178 216.656206,71.238498 216.656206,76.8495652 L216.656206,85.655336 C216.656206,86.3025296 217.003162,86.604664 217.610514,86.604664 L219.606877,86.604664 L219.606877,90.7052964 L214.399209,90.7052964 C212.359684,90.7052964 211.578735,89.6262451 211.578735,88.3743083 L211.578735,88.115336 C211.578735,87.4249802 211.70917,86.9933597 211.70917,86.9933597 L211.621897,86.9933597 C211.621897,86.9933597 209.75668,91.2232411 204.635573,91.2232411 C200.860316,91.2232411 197.302292,89.0219763 197.302292,84.5328854 C197.302292,77.7991304 206.197945,77.1085375 209.75668,77.1085375 C209.75668,77.1085375 206.197945,77.1085375 209.75668,77.1085375 L209.75668,77.1085375 Z M206.06751,87.1226087 C209.062055,87.1226087 211.188617,83.9286166 211.188617,81.1662451 L211.188617,80.432253 L210.276759,80.432253 C208.107036,80.432253 202.856917,80.7775494 202.856917,84.1012648 C202.856917,85.7411858 204.028221,87.1226087 206.06751,87.1226087 L206.06751,87.1226087 Z M224.685296,72.7920949 L221.257233,72.7920949 L221.257233,68.6914625 L230.196285,68.6914625 L230.196285,81.9 C230.196285,84.5328854 230.890672,86.3456917 233.667984,86.3456917 C237.486877,86.3456917 239.786561,82.4608696 239.786561,78.4899605 L239.786561,72.7920949 L236.401897,72.7920949 L236.401897,68.6914625 L245.297787,68.6914625 L245.297787,85.6977866 C245.297787,86.3025296 245.644743,86.6480632 246.252332,86.6480632 L248.378419,86.6480632 L248.378419,90.7052964 L242.91083,90.7052964 C240.958103,90.7052964 240.046957,89.7986561 240.046957,88.244585 L240.046957,87.4249802 C240.046957,86.8636364 240.090356,86.3888538 240.090356,86.3888538 L240.00332,86.3888538 C239.742925,87.1226087 237.486877,91.2232411 231.93249,91.2232411 C227.505771,91.2232411 224.685296,88.8488538 224.685296,82.8495652 L224.685296,72.7920949 L224.685296,72.7920949 Z M251.67747,86.604664 L254.889012,86.604664 L254.889012,73.7414229 C254.889012,73.1373913 254.541344,72.7920949 253.934466,72.7920949 L251.460711,72.7920949 L251.460711,68.6914625 L257.231858,68.6914625 C259.184822,68.6914625 260.183004,69.5117787 260.183004,71.367747 L260.183004,72.6623715 C260.183004,73.4829249 260.096206,74.0437945 260.096206,74.0437945 L260.183004,74.0437945 C261.181186,70.8932016 263.827826,68.3893281 267.21249,68.3893281 C267.733518,68.3893281 268.210909,68.4758893 268.210909,68.4758893 L268.210909,73.8711462 C268.210909,73.8711462 267.646719,73.7848221 266.865771,73.7848221 C262.395889,73.7848221 260.399763,77.6698814 260.399763,81.8136759 L260.399763,86.604664 L263.567668,86.604664 L263.567668,90.7052964 L251.67747,90.7052964 L251.67747,86.604664 L251.67747,86.604664 Z M282.662372,77.1085375 L284.050672,77.1085375 L284.050672,76.3747826 C284.050672,73.5687747 282.271779,72.5765217 279.971621,72.5765217 C276.673755,72.5765217 273.722609,74.6914625 273.722609,74.6914625 L271.68332,70.8932016 C271.68332,70.8932016 275.111383,68.1735178 280.449012,68.1735178 C286.393992,68.1735178 289.561897,71.238498 289.561897,76.8495652 L289.561897,85.655336 C289.561897,86.3025296 289.909091,86.604664 290.516443,86.604664 L292.512569,86.604664 L292.512569,90.7052964 L287.305375,90.7052964 C285.265613,90.7052964 284.484664,89.6262451 284.484664,88.3743083 L284.484664,88.115336 C284.484664,87.4249802 284.615099,86.9933597 284.615099,86.9933597 L284.527826,86.9933597 C284.527826,86.9933597 282.662372,91.2232411 277.541502,91.2232411 C273.766245,91.2232411 270.207747,89.0219763 270.207747,84.5328854 C270.207747,77.7991304 279.103874,77.1085375 282.662372,77.1085375 C282.662372,77.1085375 279.103874,77.1085375 282.662372,77.1085375 L282.662372,77.1085375 Z M278.973439,87.1226087 C281.968221,87.1226087 284.093834,83.9286166 284.093834,81.1662451 L284.093834,80.432253 L283.182925,80.432253 C281.012964,80.432253 275.762372,80.7775494 275.762372,84.1012648 C275.762372,85.7411858 276.93415,87.1226087 278.973439,87.1226087 L278.973439,87.1226087 Z M295.507352,86.604664 L298.718419,86.604664 L298.718419,73.7414229 C298.718419,73.1373913 298.371462,72.7920949 297.764111,72.7920949 L295.290593,72.7920949 L295.290593,68.6914625 L301.105375,68.6914625 C303.05834,68.6914625 303.969249,69.5981028 303.969249,71.1516996 L303.969249,72.1449012 C303.969249,72.6194466 303.882451,73.0944664 303.882451,73.0944664 L303.969249,73.0944664 C304.229644,72.4038735 306.572964,68.1735178 312.127352,68.1735178 C316.857628,68.1735178 319.547905,70.7200791 319.547905,76.5474308 L319.547905,86.604664 L322.758972,86.604664 L322.758972,90.7052964 L314.080316,90.7052964 L314.080316,77.6698814 C314.080316,74.9935968 313.34253,73.1805534 310.565455,73.1805534 C306.572964,73.1805534 304.229644,76.9792885 304.229644,80.8209486 L304.229644,86.604664 L307.397549,86.604664 L307.397549,90.7052964 L295.507352,90.7052964 L295.507352,86.604664 L295.507352,86.604664 Z M327.707668,72.7920949 L324.32253,72.7920949 L324.32253,68.6914625 L327.881265,68.6914625 L327.881265,62.6916996 L333.218893,62.6916996 L333.218893,68.6914625 L338.25249,68.6914625 L338.25249,72.7920949 L333.218893,72.7920949 L333.218893,82.0721739 C333.218893,85.8275099 336.082767,86.3456917 337.645138,86.3456917 C338.25249,86.3456917 338.642846,86.3025296 338.642846,86.3025296 L338.642846,90.7916206 C338.642846,90.7916206 337.948458,90.9208696 336.950514,90.9208696 C333.826245,90.9208696 327.707668,90.0147036 327.707668,82.6335178 L327.707668,72.7920949 L327.707668,72.7920949 Z M341.508379,83.3672727 L346.194545,83.3672727 L346.194545,84.6623715 C346.194545,86.1732806 348.233834,86.9499605 350.534229,86.9499605 C352.747115,86.9499605 354.309486,86.1732806 354.309486,84.7055336 C354.309486,82.8495652 352.226324,82.3745455 349.275652,81.2954941 C346.021423,80.1728063 342.288854,78.6626087 342.288854,74.475415 C342.288854,69.8136759 346.975968,68.1735178 351.011146,68.1735178 C354.222688,68.1735178 358.996126,69.4254545 358.996126,72.74917 L358.996126,75.5544664 L354.266324,75.5544664 L354.266324,74.3027668 C354.266324,73.1805534 352.964348,72.4901976 351.011146,72.4901976 C349.275652,72.4901976 347.800553,73.0944664 347.800553,74.475415 C347.800553,76.2884585 349.969802,77.0222134 352.443557,77.7562055 C355.828221,78.8352569 359.820474,80.2162055 359.820474,84.5328854 C359.820474,88.9785771 355.567826,91.2232411 350.49083,91.2232411 C346.454941,91.2232411 341.508379,89.4967589 341.508379,85.9143083 L341.508379,83.3672727 L341.508379,83.3672727 Z" id="restaraurants" fill="#0095DB"></path>
                            <path d="M110.746008,68.1365217 C110.661818,68.1894071 110.51004,68.2135968 110.28332,68.2135968 L109.538893,68.2135968 L109.538893,67.3154941 L110.314387,67.3154941 C110.547273,67.3154941 110.7083,67.3517787 110.791304,67.4188933 C110.883557,67.4952569 110.91913,67.6081423 110.91913,67.761581 C110.91913,67.9375494 110.862925,68.0627668 110.746008,68.1365217 L110.746008,68.1365217 L110.746008,68.1365217 Z M111.482609,69.8347826 C111.409565,69.7275889 111.375178,69.5914625 111.375178,69.4304348 L111.375178,69.0896443 C111.375178,68.8700395 111.347668,68.7239526 111.300711,68.6331225 C111.256126,68.543004 111.161028,68.4675889 111.022292,68.4004743 C111.176206,68.3013439 111.27415,68.2102767 111.32087,68.1282213 C111.377075,68.0150988 111.404585,67.8863241 111.404585,67.7286166 C111.404585,67.5493281 111.366403,67.392332 111.280079,67.2595257 C111.198735,67.1229249 111.095336,67.0294862 110.963241,66.9685375 C110.835889,66.9111462 110.622451,66.8777075 110.323162,66.8777075 L109.05083,66.8777075 L109.05083,69.9156522 L109.538893,69.9156522 L109.538893,68.6480632 L110.296364,68.6480632 C110.488696,68.6480632 110.612016,68.6568379 110.682451,68.6793676 C110.746008,68.706166 110.791304,68.7452964 110.829012,68.8031621 C110.862925,68.8603162 110.883557,68.9580237 110.892806,69.0910672 L110.916759,69.4679051 C110.930988,69.6377075 110.954941,69.7873518 110.992648,69.9156522 L111.528379,69.9156522 L111.482609,69.8347826 L111.482609,69.8347826 L111.482609,69.8347826 Z M112.130751,69.555415 C111.927036,69.9056917 111.647668,70.1838735 111.297391,70.3864032 C110.939763,70.5920158 110.55913,70.695415 110.159526,70.695415 C109.756364,70.695415 109.373597,70.5920158 109.015968,70.3878261 C108.663557,70.1838735 108.379684,69.9090119 108.176917,69.555415 C107.976047,69.206087 107.873834,68.8294862 107.873834,68.424664 C107.873834,68.0150988 107.976047,67.6382609 108.176917,67.2796838 C108.379684,66.9251383 108.663557,66.6457708 109.015968,66.4453755 C109.373597,66.2409486 109.756364,66.1370751 110.159526,66.1370751 C110.565771,66.1370751 110.939763,66.2409486 111.297391,66.4453755 C111.644348,66.6457708 111.922767,66.9251383 112.123874,67.2796838 C112.332806,67.6382609 112.4317,68.0115415 112.4317,68.4130435 C112.4317,68.8245059 112.332806,69.2044269 112.130751,69.555415 L112.130751,69.555415 L112.130751,69.555415 Z M112.442134,67.1003953 C112.201897,66.6884585 111.882925,66.3690119 111.472885,66.1358893 C111.069249,65.8989723 110.625296,65.7839526 110.152411,65.7839526 C109.686403,65.7839526 109.23747,65.8989723 108.829565,66.1358893 C108.425455,66.3690119 108.099368,66.6934387 107.859368,67.1032411 C107.621265,67.5177866 107.503636,67.9572332 107.503636,68.4279842 C107.503636,68.8909091 107.621265,69.327747 107.859368,69.7361265 C108.099368,70.1409486 108.425455,70.4637154 108.835494,70.6987352 C109.240791,70.9351779 109.686403,71.0528063 110.152411,71.0528063 C110.625296,71.0528063 111.066403,70.9351779 111.475494,70.6975494 C111.884585,70.4603953 112.212095,70.1392885 112.448775,69.7330435 C112.685692,69.327747 112.799289,68.8871146 112.799289,68.4130435 C112.799289,67.9489328 112.685692,67.5130435 112.442134,67.1003953 L112.442134,67.1003953 Z M92.6561265,77.6022925 C92.6561265,77.6022925 92.7272727,71.987668 97.4411858,71.987668 C101.864585,71.987668 102.151779,77.6022925 102.151779,77.6022925 L92.6561265,77.6022925 L92.6561265,77.6022925 Z M107.857708,79.1525692 C107.869565,72.6614229 103.596285,68.2750198 97.5018972,68.2157312 C89.0148617,68.1320158 86.4623715,74.6535178 86.5268775,80.0836364 C86.5949407,85.9529644 90.4330435,91.1530435 98.4595257,91.2232411 C101.377945,91.2438735 103.646087,90.9972332 106.389486,89.9414229 L105.141818,85.7812648 C105.141818,85.7812648 99.6884585,88.2130435 95.4894071,85.8049802 C92.8550988,84.2916996 92.5600791,81.5596838 92.5600791,81.5596838 L107.66419,81.567747 C107.66419,81.567747 107.857708,80.3051383 107.857708,79.1525692 L107.857708,79.1525692 Z M76.632332,58.3617391 L82.9135968,58.3617391 L82.9135968,90.767668 L76.632332,90.767668 L76.632332,58.3617391 L76.632332,58.3617391 Z M65.1018972,83.6409486 C65.0686957,85.0498814 65.2373123,85.9204743 64.52917,86.1405534 C62.8809486,86.6544664 57.21083,87.516996 55.3290119,82.5533597 C54.7090909,80.9196047 54.495415,76.9517787 56.5214229,74.6300395 C58.136917,72.7702767 59.8652964,72.7294862 60.5086957,72.7294862 C61.3856917,72.7294862 62.3983399,72.8829249 63.2532806,73.5604743 C64.1335968,74.261502 64.7945455,75.2191304 65.0255336,77.4588142 C65.1412648,78.558498 65.1379447,82.1205534 65.1018972,83.6409486 L65.1018972,83.6409486 Z M65.055415,58.3517787 L65.055415,70.0226087 C65.055415,70.0226087 62.1535968,67.5360474 57.1026877,68.3241107 C50.9191304,69.2919368 48.5577866,75.0858498 48.5101186,79.3351779 C48.4505929,85.4034783 51.7211858,88.3264032 54.7669565,89.79083 C57.5298024,91.1233992 60.0865613,91.3458498 62.7652174,91.2244269 C67.47083,91.0126482 71.2942292,89.2183399 71.2942292,89.2183399 L71.2942292,58.3517787 L65.055415,58.3517787 L65.055415,58.3517787 Z M34.6517787,87.1330435 C31.052253,87.1330435 29.4128063,83.7500395 29.4128063,79.803083 C29.4128063,75.5812648 31.1566008,72.3429249 34.6185771,72.3429249 C38.103083,72.3429249 39.735415,75.6073518 39.735415,79.6743083 C39.735415,83.7576285 38.0694071,87.1330435 34.6517787,87.1330435 L34.6517787,87.1330435 Z M34.7478261,68.2437154 C26.5771542,68.2437154 22.9856917,73.2298814 22.9856917,79.9022134 C22.9856917,86.2465613 26.9067984,91.235336 34.3856917,91.235336 C42.1245059,91.235336 46.1544664,86.8069565 46.1544664,79.5078261 C46.1544664,73.3633992 42.4005534,68.2437154 34.7478261,68.2437154 L34.7478261,68.2437154 Z M3.62822134,101.015336 L2.3312253,96.0125692 C2.3312253,96.0125692 4.083083,95.8370751 6.7944664,93.7254545 C8.97509881,92.0269565 8.6855336,89.9229249 8.6855336,89.9229249 L0.115968379,68.7272727 L7.06458498,68.7452964 L12.2041897,83.793913 L16.3467984,68.7272727 L23.0034783,68.7272727 C23.0034783,68.7272727 21.0699605,74.1576285 18.7195257,80.6561265 C17.1457708,84.978498 15.5179447,89.9800791 13.5045059,93.4999209 C11.9888538,96.1505929 10.386166,97.8659289 8.77944664,98.9727273 C6.09320158,100.831067 3.62822134,101.015336 3.62822134,101.015336 L3.62822134,101.015336 Z" id="yodle" fill="#00598A"></path>
                            <path d="M193.103801,56.9027668 C193.105968,56.9023035 193.108074,56.9018292 193.110119,56.9013439 C193.990672,56.6933597 195.840949,54.572253 199.116285,47.229249 C202.390198,39.8848221 201.181897,39.2696443 199.987352,37.1212648 C199.22751,35.7495652 199.295099,34.6873518 199.444032,34.0961265 C200.166166,32.0551779 201.473123,30.0158893 201.616601,28.8986561 C201.720711,28.0724111 201.571304,27.1095652 201.369723,26.2928063 C201.371383,26.2928063 205.388063,25.1219763 205.474387,24.1048221 C205.518735,23.6065613 202.979526,22.4829249 200.771383,21.6052174 C200.771383,21.6052174 199.901028,18.6386561 199.177708,17.8826087 C198.977075,17.6724901 198.68751,17.5418182 198.385613,17.4623715 C197.527352,15.6962846 194.056601,8.6886166 191.886877,6.57249012 C190.332806,5.30395257 186.514387,6.94719368 184.066957,8.05992095 C184.066957,8.05992095 174.367589,3.04245059 171.175494,5.0943083 C170.055178,5.81525692 167.913676,10.764664 167.913676,10.764664 C167.16664,9.32442688 165.737075,7.57802372 162.99415,6.24592885 C157.396364,3.52695652 155.362055,0.777628459 155.002292,0.0419762848 C154.988407,0.0138613434 154.970934,0.000122104433 154.950738,0 L154.950194,2.07420063e-10 C154.789974,0.000965961076 154.45965,0.85435123 154.387352,2.18417011 L154.387352,3.2491172 C154.543814,6.22845882 156.057762,10.6404678 162.017787,13.7727273 C163.544111,14.5743083 164.811225,15.0543083 165.883399,15.3194466 C165.680158,15.8350198 165.563715,16.1511462 165.563715,16.1511462 C165.074229,16.2433992 165.102451,16.1566008 164.801265,16.3041107 C164.499368,16.4518577 163.486008,19.1516206 163.137154,20.2363636 C163.137154,20.2363636 157.44166,24.7038735 156.62419,25.5120949 C154.966245,27.1503557 160.393518,29.0852964 163.381897,29.9971542 C162.532411,30.1133597 161.849407,31.0159684 162.552332,34.1713043 C163.417945,38.0698814 168.423794,41.5349407 168.423794,41.5349407 L168.425929,41.5349407 C169.068854,44.4045059 169.984269,47.6983399 170.600632,48.4330435 C171.123557,49.0541502 172.329723,49.8607115 174.302372,50.8947036 C181.756898,55.1511101 190.250194,56.7395171 192.556329,56.9027668 L193.103801,56.9027668 L193.103801,56.9027668 L193.103801,56.9027668 Z M198.525296,43.2270356 L198.520791,43.2270356 C198.510356,43.2270356 198.495889,43.2282213 198.486403,43.2282213 C198.458182,43.2341502 198.432806,43.2407905 198.406719,43.2512253 C198.149881,43.3489328 197.927668,43.401581 197.740553,43.4086957 C197.537312,43.4174704 197.387194,43.3695652 197.286877,43.2687747 C197.124664,43.1113043 197.093597,42.8347826 197.093597,42.7190514 C197.095968,42.7069565 197.095968,42.6965217 197.095968,42.6856126 C197.098577,42.6799209 197.098577,42.678498 197.098577,42.6761265 C197.156206,41.2081423 196.099684,40.0399209 194.640949,39.9588142 C194.556759,39.9576285 194.475889,39.9554941 194.39336,39.9583399 C193.491225,39.9927273 192.698656,40.4760474 192.255652,41.2190514 C191.806957,40.6731225 191.141976,40.3218972 190.350593,40.236996 C190.250751,40.2265613 190.101818,40.2116206 189.962846,40.2156522 L189.918024,40.2203953 L189.899763,40.2220553 C189.331542,40.2424506 187.38166,40.5101976 186.275573,43.041581 C185.515731,44.7725692 184.351067,45.0348617 183.424743,45.0704348 C182.884743,45.0917787 182.320316,45.0294071 181.778182,44.9651383 L181.652964,44.9542292 C181.635889,44.9501976 181.618103,44.9501976 181.601028,44.9501976 C181.457549,44.9551779 181.329486,45.0550198 181.289644,45.1944664 C181.246482,45.3531225 181.324032,45.5231621 181.47581,45.5871937 C181.588696,45.6410277 184.274704,46.8282213 187.250277,46.7141502 C189.156996,46.6406324 190.745455,46.0449012 191.969407,44.9464032 C192.025138,44.8966008 192.085138,44.8406324 192.14917,44.7664032 C192.164822,44.7528854 192.21083,44.7011858 192.21083,44.7011858 C192.33083,44.5558103 192.440158,44.3966798 192.533123,44.2287747 C192.847115,44.5871146 193.257391,44.855336 193.720553,44.9985771 C193.742134,45.0085375 193.763004,45.0161265 193.785296,45.0253755 C194.414466,45.1911462 195.023004,45.264664 195.6,45.2411858 C197.636443,45.1643478 198.663794,43.9401581 198.793755,43.7755731 C198.846403,43.7165217 198.876285,43.6335178 198.87415,43.5490909 C198.86419,43.3652964 198.710751,43.221581 198.525296,43.2270356 C198.525296,43.2270356 198.710751,43.221581 198.525296,43.2270356 L198.525296,43.2270356 L198.525296,43.2270356 Z" id="hans" fill="#00598A"></path>
                        </g>
                    </g>
                </g>
            </g>
        </g>
    </g>
</svg>