<?xml version="1.0" encoding="UTF-8"?>
<svg width="180px" height="180px" viewBox="0 0 180 180" version="1.1" xmlns="http://www.w3.org/2000/svg" xmlns:xlink="http://www.w3.org/1999/xlink">
    <!-- Generator: Sketch 46.1 (44463) - http://www.bohemiancoding.com/sketch -->
    <title>Group</title>
    <desc>Created with Sketch.</desc>
    <defs>
        <linearGradient x1="50%" y1="0%" x2="50%" y2="100%" id="linearGradient-1">
            <stop stop-color="#0096DB" offset="0%"></stop>
            <stop stop-color="#005A8C" offset="100%"></stop>
        </linearGradient>
    </defs>
    <g id="Page-1" stroke="none" stroke-width="1" fill="none" fill-rule="evenodd">
        <g id="Group" fill-rule="nonzero">
            <rect id="Rectangle-6" fill="url(#linearGradient-1)" x="0" y="0" width="180" height="180"></rect>
            <path d="M130.768272,122.693843 L130.758562,122.693843 C130.7355,122.693843 130.703942,122.696272 130.683307,122.696272 C130.621405,122.709632 130.565571,122.724207 130.508524,122.747283 C129.945331,122.963473 129.458606,123.08007 129.04835,123.095859 C128.602894,123.115292 128.27396,123.009626 128.054266,122.786149 C127.69863,122.437573 127.630658,121.82544 127.630658,121.56917 C127.635513,121.542449 127.635513,121.519373 127.635513,121.495082 C127.641582,121.482936 127.641582,121.479293 127.641582,121.474435 C127.767815,118.224298 125.451928,115.63852 122.254839,115.458767 C122.070345,115.456338 121.893134,115.45148 121.712281,115.457552 C119.735038,115.534069 117.998123,116.604088 117.027101,118.248589 C116.043942,117.040111 114.586196,116.262799 112.851708,116.074544 C112.633228,116.051468 112.306722,116.018675 112.002064,116.027176 L111.903748,116.038107 L111.863694,116.041751 C110.618358,116.086689 106.344649,116.67939 103.920736,122.283325 C102.255434,126.115232 99.7028608,126.695787 97.6722117,126.774732 C96.488779,126.8221 95.2519401,126.683641 94.0636524,126.541539 L93.7893387,126.517248 C93.7517116,126.508746 93.7128708,126.508746 93.6752437,126.508746 C93.3608754,126.519677 93.0804928,126.740725 92.9931009,127.049221 C92.8984263,127.400226 93.0683551,127.776736 93.40093,127.918839 C93.6485406,128.037865 99.5353596,130.666152 106.056984,130.413525 C110.236018,130.250775 113.717131,128.931774 116.399579,126.500244 C116.52217,126.38972 116.653258,126.265836 116.794056,126.101871 C116.828042,126.071508 116.928785,125.95734 116.928785,125.95734 C117.192175,125.635484 117.431289,125.283264 117.635204,124.911612 C118.323415,125.704713 119.222824,126.298629 120.237542,126.615626 C120.284879,126.637488 120.331003,126.654492 120.379554,126.675139 C121.758405,127.041933 123.092346,127.204683 124.357101,127.152457 C128.82016,126.98242 131.071716,124.272759 131.356954,123.908394 C131.472263,123.777222 131.537807,123.593825 131.532952,123.406784 C131.511103,122.99991 131.174887,122.681698 130.768272,122.693843 C130.768272,122.693843 131.174887,122.681698 130.768272,122.693843 L130.768272,122.693843 L130.768272,122.693843 Z M137.002231,85.2055328 C137.444046,87.0139983 137.771766,89.145534 137.543576,90.9746469 C137.229207,93.4474713 134.364693,97.9619549 132.781928,102.480082 C132.455422,103.789367 132.307341,106.140737 133.972644,109.177113 C136.590761,113.933292 139.239222,115.294803 132.063372,131.553988 C124.885094,147.809529 120.829865,152.504981 118.899959,152.965296 C117.192175,153.3746 96.0032682,150.2362 77.6788752,139.668399 C73.3554012,137.378971 70.7117947,135.593582 69.5659891,134.218711 C68.2150552,132.592428 66.2086816,125.300268 64.7994864,118.94817 L64.7946313,118.94817 C64.7946313,118.94817 53.8233,111.27707 51.9261664,102.646476 C50.3858833,95.6615966 51.8824705,93.6636613 53.7444045,93.4061766 C47.1948633,91.3875939 35.2998477,87.103875 38.9338963,83.4772277 C40.7254314,81.688195 53.2079151,71.7981117 53.2079151,71.7981117 C53.9725947,69.3969458 56.1938067,63.4201436 56.8553152,63.0934296 C57.51561,62.7667155 57.4537074,62.9586146 58.5266863,62.75457 C58.5266863,62.75457 58.7815795,62.0549891 59.2270357,60.9133118 C56.8771632,60.326684 54.1000413,59.2639524 50.7548715,57.4894944 C28.4031661,45.6245523 34.5825054,25.4642315 35.3787432,27.0929435 C36.1676983,28.7216555 40.6259016,34.807767 52.8947605,40.8270785 C58.9065985,43.7760066 62.0393572,47.6419203 63.6767425,50.830115 C63.6767425,50.830115 68.3704186,39.8736564 70.8258897,38.2777374 C77.8221009,33.7353191 99.0801931,44.8423818 99.0801931,44.8423818 C104.443874,42.3792738 112.812867,38.7416955 116.218726,41.5497359 C120.974304,46.2342566 128.581046,61.7477079 130.4624,65.6573453 C131.123909,65.8334552 131.758714,66.1225181 132.198101,66.5876909 C133.783294,68.2613412 135.691352,74.8284149 135.691352,74.8284149 C140.530681,76.7716953 146.095849,79.2590944 145.998747,80.3619062 C145.809398,82.6136825 137.005872,85.2055328 137.002231,85.2055328 L137.002231,85.2055328 Z" id="Fill-2" fill="#FFFFFF"></path>
        </g>
    </g>
</svg>