<?xml version="1.0" encoding="UTF-8" standalone="no"?>
<svg width="120px" height="120px" viewBox="0 0 120 120" version="1.1" xmlns="http://www.w3.org/2000/svg" xmlns:xlink="http://www.w3.org/1999/xlink">
    <!-- Generator: Sketch 39.1 (31720) - http://www.bohemiancoding.com/sketch -->
    <title>app-icon</title>
    <desc>Created with Sketch.</desc>
    <defs>
        <path d="M78.163,0 C90.21,0 96.232,0 102.717,2.05 C109.797,4.627 115.373,10.203 117.95,17.283 C120,23.767 120,29.791 120,41.837 L120,78.163 C120,90.21 120,96.232 117.95,102.717 C115.373,109.797 109.797,115.373 102.717,117.949 C96.232,120 90.21,120 78.163,120 L41.837,120 C29.79,120 23.767,120 17.283,117.949 C10.203,115.373 4.627,109.797 2.05,102.717 C0,96.232 0,90.21 0,78.163 L0,41.837 C0,29.791 0,23.767 2.05,17.283 C4.627,10.203 10.203,4.627 17.283,2.05 C23.767,0 29.79,0 41.837,0 L78.163,0 L78.163,0 Z" id="path-1"></path>
        <linearGradient x1="50%" y1="0%" x2="50%" y2="100%" id="linearGradient-3">
            <stop stop-color="#0096DB" offset="0%"></stop>
            <stop stop-color="#005A8C" offset="100%"></stop>
        </linearGradient>
    </defs>
    <g id="iPad-Screen-Flow" stroke="none" stroke-width="1" fill="none" fill-rule="evenodd">
        <g id="app-icon">
            <g id="Group">
                <mask id="mask-2" fill="white">
                    <use xlink:href="#path-1"></use>
                </mask>
                <use id="Mask" fill="#ABB4BD" xlink:href="#path-1"></use>
                <rect id="Rectangle-6" fill="url(#linearGradient-3)" mask="url(#mask-2)" x="0" y="0" width="120" height="120"></rect>
            </g>
            <path d="M87.178848,81.7958954 L87.1723745,81.7958954 C87.157,81.7958954 87.1359612,81.7975148 87.122205,81.7975148 C87.0809366,81.8064215 87.0437141,81.8161379 87.0056824,81.8315223 C86.6302207,81.9756489 86.3057376,82.0533801 86.0322332,82.0639062 C85.7352624,82.0768614 85.5159733,82.0064175 85.3695109,81.8574327 C85.1324198,81.6250487 85.0871054,81.2169598 85.0871054,81.046113 C85.0903422,81.0282996 85.0903422,81.0129153 85.0903422,80.9967213 C85.0943881,80.9886243 85.0943881,80.9861952 85.0943881,80.9829564 C85.1785433,78.8161986 83.6346188,77.0923469 81.5032262,76.9725112 C81.3802302,76.9708918 81.2620892,76.967653 81.1415207,76.9717015 C79.8233587,77.0227127 78.6654154,77.7360586 78.0180676,78.8323926 C77.3626279,78.0267409 76.3907971,77.5085328 75.2344721,77.3830293 C75.0888188,77.367645 74.8711481,77.345783 74.6680428,77.3514509 L74.6024988,77.3587383 L74.5757957,77.3611674 C73.7455722,77.3911263 70.8964327,77.78626 69.2804908,81.5222168 C68.1702894,84.076821 66.4685739,84.4638577 65.1148078,84.5164882 C64.3258527,84.5480665 63.5012934,84.4557607 62.7091016,84.3610257 L62.5262258,84.3448317 C62.5011411,84.3391638 62.4752472,84.3391638 62.4501625,84.3391638 C62.2405836,84.3464511 62.0536619,84.4938166 61.9954006,84.6994804 C61.9322842,84.9334838 62.0455701,85.1844908 62.2672867,85.2792258 C62.4323604,85.3585764 66.3569064,87.1107677 70.7046559,86.94235 C73.490679,86.8338502 75.8114208,85.9545158 77.5997191,84.3334959 C77.6814467,84.2598132 77.7688387,84.1772238 77.8627041,84.0679142 C77.8853613,84.0476717 77.9525236,83.9715599 77.9525236,83.9715599 C78.1281167,83.7569894 78.2875261,83.5221763 78.4234691,83.274408 C78.8822769,83.8031423 79.4818828,84.1990857 80.1583612,84.4104174 C80.1899194,84.424992 80.2206684,84.4363278 80.2530358,84.4500928 C81.1722697,84.6946222 82.0615637,84.803122 82.9047342,84.7683049 C85.8801065,84.6549469 87.3811442,82.8485057 87.5713026,82.6055957 C87.6481751,82.518148 87.6918711,82.3958833 87.6886344,82.2711895 C87.674069,81.9999399 87.4499249,81.7877984 87.178848,81.7958954 C87.178848,81.7958954 87.4499249,81.7877984 87.178848,81.7958954 L87.178848,81.7958954 L87.178848,81.7958954 Z M91.3348208,56.8036885 C91.629364,58.0093322 91.8478439,59.430356 91.6957172,60.6497646 C91.4861383,62.2983142 89.5764623,65.3079699 88.5212854,68.3200547 C88.3036148,69.1929116 88.2048942,70.7604912 89.3150957,72.7847417 C91.0605071,75.9555278 92.8261482,76.8632017 88.0422481,87.7026585 C83.2567296,98.5396862 80.5532434,101.669987 79.2666396,101.976864 C78.1281167,102.249733 64.0021788,100.157467 51.7859168,93.1122657 C48.9036008,91.5859808 47.1411965,90.3957214 46.3773261,89.4791408 C45.4767035,88.3949522 44.1391211,83.5335121 43.1996576,79.29878 L43.1964209,79.29878 C43.1964209,79.29878 35.8822,74.1847134 34.6174443,68.4309837 C33.5905889,63.7743977 34.5883137,62.4424409 35.829603,62.2707844 C31.4632422,60.9250626 23.5332318,58.06925 25.9559309,55.6514851 C27.1502876,54.4587967 35.4719434,47.8654078 35.4719434,47.8654078 C35.9817298,46.2646305 37.4625378,42.2800957 37.9035435,42.0622864 C38.34374,41.844477 38.3024716,41.9724097 39.0177909,41.83638 C39.0177909,41.83638 39.1877197,41.3699927 39.4846905,40.6088745 C37.9181088,40.2177893 36.0666942,39.5093016 33.836581,38.3263296 C18.9354441,30.4163682 23.0550036,16.9761543 23.5858288,18.0619623 C24.1117989,19.1477703 27.0839344,23.205178 35.2631737,27.2180523 C39.2710657,29.1840044 41.3595715,31.7612802 42.4511617,33.8867433 C42.4511617,33.8867433 45.5802791,26.5824376 47.2172598,25.5184916 C51.8814006,22.4902127 66.0534621,29.8949212 66.0534621,29.8949212 C69.6292494,28.2528492 75.2085782,25.827797 77.4791505,27.6998239 C80.6495363,30.8228377 85.7206971,41.1651386 86.9749334,43.7715635 C87.4159391,43.8889701 87.8391427,44.0816787 88.1320676,44.3917939 C89.1888629,45.5075608 90.4609013,49.8856099 90.4609013,49.8856099 C93.6871208,51.1811302 97.3972328,52.8393963 97.332498,53.5746041 C97.2062652,55.0757883 91.3372483,56.8036885 91.3348208,56.8036885 L91.3348208,56.8036885 Z" id="Fill-2" fill="#FFFFFF"></path>
        </g>
    </g>
</svg>